<?xml version="1.0" standalone="no"?>
<!DOCTYPE svg PUBLIC "-//W3C//DTD SVG 1.1//EN" "http://www.w3.org/Graphics/SVG/1.1/DTD/svg11.dtd" >
<svg xmlns="http://www.w3.org/2000/svg">
<metadata></metadata>
<defs>
<font id="graduatescriptregular" horiz-adv-x="718" >
<font-face units-per-em="2048" ascent="1071" descent="-977" />
<missing-glyph horiz-adv-x="481" />
<glyph unicode="&#xfb01;" horiz-adv-x="641" d="M-299 -428q12 7 22.5 11t15.5 5h5q49 0 57 -32v-25q32 12 71 90.5t54 128.5q71 227 177 662t135 522q0 -1 -35.5 -2t-71 -9.5t-35.5 -25.5q0 -10 -15 -17.5t-34 -7.5q-17 0 -29 9t-12 26q0 23 12 41t36.5 29t45.5 18t56.5 11t51 5l46.5 3q68 229 166 344t194 115 q74 0 123.5 -68.5t50.5 -185.5q3 -9 3 -17q-3 -27 -27.5 -49.5t-56.5 -22.5q-37 0 -54.5 14.5t-17.5 35.5q0 30 20.5 57t61.5 31q4 16 4 28q0 47 -30.5 91.5t-67.5 44.5q-57 0 -121.5 -114.5t-106.5 -299.5q209 -4 243 -9q69 -8 69 -34q0 -8 -2 -12q-229 -506 -252 -816 q-2 -16 -2 -43q0 -55 26 -63q14 0 29.5 13.5t37 44.5t41.5 63.5t55 88.5t65 101l45 68q22 0 22 -12q0 -1 -1 -3.5t-1 -3.5q-39 -61 -84.5 -140.5t-70 -121t-56 -83.5t-62 -59t-67.5 -17q-78 0 -78 196q0 9 1 26t1 25q14 172 95.5 409t130.5 306q-47 2 -142 2q-51 0 -63 -2 q-62 -200 -164.5 -575.5t-149.5 -530.5q-14 -45 -36.5 -96.5t-55 -111.5t-74.5 -99t-83 -39q-61 0 -86 25.5t-25 56.5z" />
<glyph unicode="&#xfb02;" horiz-adv-x="845" d="M-446 -786q0 39 10 78.5t34 83.5t46 79t65.5 87.5t71.5 85t83.5 95t84.5 95.5q17 54 63 225q47 175 110.5 469.5t100.5 423.5q-127 -14 -127 -39q0 -10 -15 -17.5t-34 -7.5q-17 0 -29 9t-12 26q0 27 18.5 47t42.5 30.5t62.5 17.5t61.5 8.5t57 3.5q43 128 94 235 q55 112 124 179t126 67q25 0 44 -17.5t19 -60.5q0 -162 -88.5 -292t-193.5 -171q-60 -202 -147 -526t-107 -395q39 52 82 121q178 287 317 485l12 43l19 63q24 89 70.5 210t104.5 242t124.5 204.5t118.5 83.5q75 0 75 -76q0 -81 -82 -222t-221 -296q-25 -37 -55 -78 q-104 -400 -104 -606v-8q0 -121 34 -136q12 -6 27 -6q62 0 145 102t168 261q21 0 21 -19q-103 -198 -201 -309.5t-174 -111.5q-16 0 -32 4t-36 18t-35 36.5t-25.5 64t-10.5 96.5q0 171 35 340q-145 -221 -252 -396q-52 -84 -154 -215q-27 -93 -61 -198q-20 -59 -39 -110 t-52 -132.5t-68 -144.5t-77 -124t-89.5 -94.5t-94.5 -33.5q-55 0 -55 123zM-418 -786q0 -34 4 -51t8.5 -20t14.5 -3q117 0 309 588l-41 -45q-63 -70 -94 -105.5t-77 -94t-68 -96.5t-39 -85t-17 -88zM408 1065q93 55 155 145.5t62 202.5q0 27 -10.5 40t-22.5 13 q-18 -2 -35 -19.5t-34 -55t-28 -66.5t-30 -84q-21 -61 -57 -176zM692 881q40 54 45 59l56 70q44 57 73.5 100t63.5 101.5t51.5 114.5t17.5 108l-20 20q-76 -93 -168 -284t-119 -289z" />
<glyph unicode="&#xfb03;" horiz-adv-x="1267" d="M-291 -428q12 7 23 11t16 5h4q50 0 58 -32v-25q32 12 70.5 90t53.5 129q71 227 177 662t135 522q0 -1 -35.5 -2t-71 -9.5t-35.5 -25.5q0 -10 -15 -17.5t-34 -7.5q-17 0 -29 9t-12 26q0 23 12 41t36.5 29t45.5 18t56.5 11t51 5l46.5 3q66 222 159.5 340.5t160.5 118.5 q49 0 83.5 -52.5t36.5 -105.5q0 -22 -11 -35.5t-25 -13.5q-15 0 -25 15.5t-10 45.5q0 9 3 28t3 29q0 48 -47 48q-18 0 -50 -49t-71 -148t-66 -217l29 -4q50 -6 107 -6q77 0 133 10q58 162 92 231q55 112 124 179t126 67q28 0 43.5 -25.5t15.5 -97.5q0 -247 -262 -366 q-51 -164 -99 -335.5t-98 -364.5t-73 -275q31 41 82 123q265 429 589 858q95 -6 95 -37q0 -8 -2 -12q-229 -506 -252 -816q-2 -16 -2 -43q0 -55 26 -63q18 0 45 23.5t68 78t75 104.5t95 142l20 31q19 0 19 -12q0 -1 -1 -3.5t-1 -3.5q-25 -39 -57.5 -91.5t-51.5 -83.5 t-45 -70.5t-43.5 -62.5t-40 -47.5t-41.5 -37t-41.5 -20.5t-46.5 -8q-78 0 -78 196q0 9 1 26t1 25q10 133 62.5 309t111.5 310q-237 -334 -462 -703q-57 -95 -156 -217q-19 -74 -59 -196q-20 -59 -39 -110t-52 -132.5t-68 -144.5t-77 -124t-89.5 -94.5t-94.5 -33.5 q-56 0 -56 123q0 39 10 78.5t34 83t47 79.5t65 87.5t71 85.5t83 94.5t84 95.5q32 103 65 225q46 172 121 501t98 414q-92 -18 -188 -18q-43 0 -66 2h-16q-62 -200 -164 -575t-149 -531q-14 -45 -36.5 -97t-55.5 -111.5t-75 -98.5t-83 -39q-61 0 -86 25.5t-25 56.5zM4 -786 q0 -34 4 -51t8.5 -20t14.5 -3q61 0 142.5 163.5t166.5 424.5l-31 -33q-68 -75 -98 -109t-79 -95.5t-70.5 -99.5t-39.5 -86.5t-18 -90.5zM827 1061q98 43 155.5 120t57.5 191q0 94 -26 94q-18 -2 -35 -19.5t-34 -55t-28 -66.5t-30 -84q-6 -19 -28 -82.5t-32 -97.5zM1235 1180 q0 32 23 60t69 28q31 0 47.5 -20.5t16.5 -45.5q-3 -27 -27.5 -49.5t-56.5 -22.5q-37 0 -54.5 14.5t-17.5 35.5z" />
<glyph unicode="&#xfb04;" horiz-adv-x="1269" d="M-291 -428q12 7 23 11t16 5h4q50 0 58 -32v-25q32 12 70.5 90t53.5 129q71 227 177 662t135 522q0 -1 -35.5 -2t-71 -9.5t-35.5 -25.5q0 -10 -15 -17.5t-34 -7.5q-17 0 -29 9t-12 26q0 23 12 41t36.5 29t45.5 18t56.5 11t51 5l46.5 3q66 222 159.5 340.5t160.5 118.5 q42 0 70 -27.5t38.5 -61t11.5 -69.5q0 -22 -11 -35.5t-25 -13.5q-15 0 -25 15.5t-10 45.5q0 9 3 28t3 29q0 48 -47 48q-18 0 -50 -49t-71 -148t-66 -217l29 -4q50 -6 107 -6q59 0 137 20q49 139 88 221q55 112 124 179t126 67q25 0 44 -17.5t19 -60.5q0 -116 -70.5 -214 t-185.5 -165q-53 -171 -101.5 -344.5t-103.5 -382t-75 -280.5q31 41 82 123q178 287 317 485l12 43l19 63q24 89 70.5 210t104.5 242t124.5 204.5t118.5 83.5q75 0 75 -76q0 -81 -82 -222t-221 -296q-25 -37 -55 -78q-105 -404 -105 -606v-8q0 -120 35 -136q12 -6 27 -6 q62 0 145 102t168 261q21 0 21 -19q-103 -198 -201 -309.5t-174 -111.5q-16 0 -32 4t-36 18t-35 36.5t-25.5 64t-10.5 96.5q0 171 35 340q-145 -221 -252 -396q-57 -95 -156 -217q-19 -74 -59 -196q-20 -59 -39 -110t-52 -132.5t-68 -144.5t-77 -124t-89.5 -94.5 t-94.5 -33.5q-56 0 -56 123q0 39 10 78.5t34 83.5t46.5 79.5t65 88t71 85.5t83.5 95t84 96q36 117 65 223q44 165 120 500t103 426q-106 -29 -192 -29q-43 0 -66 2h-16q-62 -200 -164 -575t-149 -531q-14 -45 -36.5 -97t-55.5 -111.5t-75 -98.5t-83 -39q-61 0 -86 25.5 t-25 56.5zM4 -786q0 -34 4 -51t8.5 -20t14.5 -3q62 0 145 164t166 426l-41 -45q-64 -71 -95 -106.5t-77.5 -94.5t-68.5 -97t-39 -85t-17 -88zM840 1100q93 57 150 138t57 175q0 27 -10.5 40t-22.5 13q-18 -2 -35 -19.5t-34 -55t-28 -66.5t-30 -84q-40 -118 -47 -141z M1114 881q40 54 45 59l55 70q44 58 73.5 100.5t64 101t52 114.5t17.5 108l-20 20q-76 -93 -168 -284t-119 -289z" />
<glyph horiz-adv-x="0" />
<glyph horiz-adv-x="682" />
<glyph unicode=" "  horiz-adv-x="481" />
<glyph unicode="&#x09;" horiz-adv-x="481" />
<glyph unicode="&#xa0;" horiz-adv-x="481" />
<glyph unicode="!" horiz-adv-x="739" d="M154 55q0 35 22.5 58.5t69.5 23.5q31 0 47 -20t16 -45q-3 -27 -27.5 -49.5t-56.5 -22.5q-35 0 -53 18.5t-18 36.5zM227 455v22q53 310 101 535.5t121 488.5q16 61 30 79.5t53 21.5q31 0 47 -11t25 -35q-9 -33 -61 -205t-92 -313t-79.5 -316.5t-45.5 -279.5q0 -8 -3 -15 t-15 -14t-32 -7h-26q-23 16 -23 49z" />
<glyph unicode="&#x22;" horiz-adv-x="679" d="M164 1483q0 9 1.5 16t6.5 16.5t18.5 15t34.5 5.5q45 0 45 -33q0 -6 -2 -20t-2 -19q-1 -51 -6.5 -137.5t-5.5 -138.5q0 -35 -6.5 -48.5t-32.5 -13.5q-31 0 -31 62zM389 1483q0 53 62 53q45 0 45 -33q0 -6 -2 -20t-2 -19q-1 -51 -7 -138t-6 -138q0 -35 -6.5 -48.5 t-32.5 -13.5q-30 0 -30 62z" />
<glyph unicode="#" horiz-adv-x="1370" d="M102 483q2 7 9.5 15t15.5 8q9 0 71 -3.5t70 -6.5h76l164 424h-240q-8 1 -12 23.5t-4 39.5q2 7 9 15t15 8t71 -4t71 -7h121q56 146 86 217q11 26 19.5 61t15.5 48.5t24 13.5q76 0 76 -24q-75 -188 -123 -316h330q56 146 86 217q11 26 19.5 61t15.5 48.5t24 13.5 q76 0 76 -24q-75 -188 -123 -316h186q17 0 17 -34q-14 -41 -33 -41h-201l-160 -424h228q16 0 16 -35q-14 -41 -33 -41h-239l-141 -389q-9 -13 -32.5 -22t-49.5 -9q-16 0 -23.5 4.5t-8.5 10t-1 16.5l151 389h-321q-102 -272 -141 -389q-9 -13 -32.5 -22t-49.5 -9 q-16 0 -23.5 4.5t-8.5 10t-1 16.5l151 389h-196q-8 1 -12.5 24t-4.5 39zM446 496h326l164 424h-330z" />
<glyph unicode="$" horiz-adv-x="1028" d="M102 539q0 61 13 114t41 98t78 71t118 26q16 0 42.5 -3t39.5 -3q0 -39 -137 -39q-53 -20 -53 -230q0 -75 17.5 -160t48 -160.5t79 -125t103.5 -49.5q110 0 190 150t80 378q0 105 -10.5 181.5t-34 129.5t-54.5 86t-80 51t-100.5 24.5t-126.5 6.5q-24 18 -24 23q0 4 14 18 l148 142q9 53 9.5 141t10.5 152q3 23 22 42t39 19q37 0 37 -66q0 -94 -18 -196l39 33q17 17 47 28t59 11q28 0 46 -12.5t18 -37.5q0 -1 -37.5 -23.5t-110.5 -81t-143 -134.5q106 -14 189 -66.5t130 -125t71 -149t24 -149.5q0 -304 -103.5 -464.5t-296.5 -184.5 q0 -5 -1 -14.5t-1 -14.5q-6 -139 -26 -233q-13 -57 -52 -57q-19 5 -33 26t-14 47q5 61 21 138.5t20 107.5q-95 14 -163.5 65.5t-105 128.5t-53 161t-16.5 180z" />
<glyph unicode="%" horiz-adv-x="1058" d="M102 963q0 70 23.5 152t74 150.5t113.5 75.5q-10 17 -10 37q0 31 30.5 52.5t53.5 21.5q50 0 82.5 -31.5t44.5 -74t12 -95.5q0 -87 -43 -188.5t-119.5 -176.5t-158.5 -75q-38 0 -62.5 25.5t-32.5 57t-8 69.5zM188 965q0 -53 29 -62q39 11 88 73.5t84.5 144.5t38.5 143 q-8 61 -31 61q-47 0 -97.5 -65.5t-81 -150t-30.5 -144.5zM203 29q270 681 522 1306q9 21 16.5 45.5t11 34t11 16.5t20.5 7q25 0 50.5 -6t25.5 -19q-435 -1077 -543 -1384q-21 -31 -81 -31q-16 0 -23.5 4.5t-8.5 10t-1 16.5zM532 129q0 70 23.5 152.5t74 151t113.5 75.5 q-10 18 -10 37q0 31 30.5 52t53.5 21q73 0 106 -58.5t33 -141.5q0 -87 -43 -188.5t-119.5 -177t-158.5 -75.5q-38 0 -62.5 25.5t-32.5 57t-8 69.5zM621 123q0 -54 28 -62q39 11 88 73.5t84.5 144.5t38.5 143q-8 61 -31 61q-47 0 -97 -65.5t-80.5 -150t-30.5 -144.5z" />
<glyph unicode="&#x26;" horiz-adv-x="1441" d="M176 377q0 407 512 672q-84 139 -84 221q0 80 65 125t144 45q115 0 172 -45.5t57 -120.5q0 -64 -52.5 -133t-141.5 -125l319 -651q137 204 217 483q7 2 15 2q16 0 16 -19v-8q-98 -308 -225 -506q40 -98 81 -183t96.5 -178t110.5 -158t121 -107.5t130 -42.5q75 0 159 37 t131 71.5t62 53.5q0 28 55 28q41 0 41 -10q0 -20 -41 -56t-102.5 -71.5t-145.5 -61.5t-159 -26q-51 0 -99.5 12t-89.5 31.5t-82 51.5t-73 63.5t-67 77.5t-60 83.5t-55.5 91t-49.5 90.5t-47 91q-212 -256 -510 -256q-81 0 -156 29.5t-134 82.5t-94.5 135.5t-35.5 180.5z M324 375q0 -167 83 -266t197 -99q268 0 479 242l-350 709q-409 -264 -409 -586zM717 1292q2 -38 86 -196q143 110 143 180q0 55 -32 81.5t-115 26.5q-40 0 -61 -28t-21 -64z" />
<glyph unicode="'" horiz-adv-x="452" d="M164 1483q0 9 1.5 16t6.5 16.5t18.5 15t34.5 5.5q45 0 45 -33q0 -6 -2 -20t-2 -19q-1 -51 -6.5 -137.5t-5.5 -138.5q0 -35 -6.5 -48.5t-32.5 -13.5q-31 0 -31 62z" />
<glyph unicode="(" horiz-adv-x="786" d="M154 256q0 733 729 1382q67 -4 67 -26q0 -6 -2 -8q-9 -8 -23.5 -20.5t-29.5 -26.5t-37 -39q-139 -152 -240 -300.5t-159 -271t-92.5 -252.5t-45 -231.5t-10.5 -220.5q0 -124 4.5 -214.5t19.5 -202.5t49.5 -210t88.5 -180q5 -7 11.5 -14.5t9 -10.5t5 -6.5t3 -6t0.5 -5.5 q0 -24 -25 -37q-17 16 -49.5 58t-81.5 127.5t-90.5 185.5t-71.5 242.5t-30 287.5z" />
<glyph unicode=")" horiz-adv-x="786" d="M-164 -618q0 6 2 8q9 8 23.5 20.5t29.5 26.5t37 39q137 150 237.5 296t159 268t93 249.5t46 229t11.5 218.5q0 102 -2 173.5t-11.5 169t-26 172.5t-47.5 157.5t-75 149.5q-28 35 -28 43q0 24 24 36q17 -16 49.5 -58t82 -127.5t91 -185.5t71.5 -242.5t30 -287.5 q0 -733 -729 -1382q-68 4 -68 27z" />
<glyph unicode="*" horiz-adv-x="778" d="M61 1534q0 13 19 24t52.5 19t64.5 14t69.5 12t52.5 9q-3 2 -13 17q-44 68 -124 179q-6 12 -6 25q0 11 6 18t15 7q13 0 28 -15q69 -69 144 -184l102 143q15 19 41 19q23 0 23 -19q0 -3 -1 -6t-4.5 -9t-7.5 -13.5t-13 -22t-18.5 -30.5t-26.5 -44t-34 -57q26 4 97 18t81 15 q2 0 16.5 2t22.5 2q29 0 29 -19q0 -20 -81 -40.5t-144 -30.5q3 -4 67.5 -84t105 -138.5t40.5 -80.5q0 -8 -6.5 -14.5t-16.5 -6.5q-8 0 -59.5 57t-120.5 138.5t-84 97.5q-97 -160 -155.5 -246.5t-77.5 -104.5t-31 -18q-21 0 -21 25t24 67.5t77 124.5t92 152q-3 0 -79.5 -13.5 t-109.5 -13.5q-14 0 -24.5 7t-10.5 18z" />
<glyph unicode="+" horiz-adv-x="851" d="M61 559q2 7 9.5 15t15.5 8t70.5 -4t70.5 -7h166l23 220l6 55q5 15 16 22.5t39 8.5q13 0 21 -4.5t11 -9.5t7 -15l-37 -277h295q17 0 17 -34q-14 -41 -33 -41h-287q-7 -60 -22 -238q-1 -16 -4 -42.5t-3 -35.5q-2 -15 -7.5 -21.5t-18.5 -6.5q-67 0 -74 24q7 56 21.5 157 t21.5 163h-307q-8 1 -12.5 24t-4.5 39z" />
<glyph unicode="," horiz-adv-x="378" d="M102 -123q0 3 5.5 4t14.5 1.5t15 2.5q64 22 64 74q0 22 -8 41q-35 0 -53.5 18.5t-18.5 36.5q0 35 22.5 58.5t69.5 23.5q31 0 47 -20t16 -45q0 -84 -40.5 -149.5t-118.5 -65.5q-7 0 -11 7t-4 13z" />
<glyph unicode="-" horiz-adv-x="851" d="M133 559q2 7 9.5 15t15.5 8q47 0 140.5 -17.5t141.5 -17.5l265 24q14 0 14 -34q-14 -41 -33 -41h-536q-8 1 -12.5 24t-4.5 39z" />
<glyph unicode="." horiz-adv-x="360" d="M102 55q0 34 23 58t70 24q31 0 47 -20t16 -45q-3 -27 -27.5 -49.5t-56.5 -22.5q-35 0 -53.5 18.5t-18.5 36.5z" />
<glyph unicode="/" horiz-adv-x="659" d="M0 -113q0 20 18 56q145 372 308 903q119 382 161 474q39 84 84 103q25 11 88 11q-121 -319 -518 -1532q-16 -49 -59 -49q-28 0 -76 24q-6 0 -6 10z" />
<glyph unicode="0" horiz-adv-x="735" d="M20 336q0 254 66.5 495.5t196.5 448.5q49 77 109 124.5t145 47.5q40 0 69 -14.5t45.5 -37t26.5 -57t13 -66t3 -71.5q0 -125 -13.5 -275.5t-47 -321t-82 -308t-126.5 -228.5t-173 -91q-67 0 -115 34t-72 90t-34.5 112.5t-10.5 117.5zM174 340q0 -260 62 -283q36 12 72 64 t61 110q92 262 134 494.5t42 472.5q0 98 -6.5 145t-30.5 68q-2 -1 -7 -4.5t-22.5 -23.5t-37.5 -50t-53.5 -90.5t-70.5 -138.5q-78 -270 -110.5 -430t-32.5 -334z" />
<glyph unicode="1" horiz-adv-x="608" d="M72 1108q0 16 155 149.5t224 174.5q86 -3 86 -13q0 -20 -27.5 -99.5t-67.5 -199t-79.5 -264t-67 -330.5t-27.5 -362q0 -17 -1 -53.5t-1 -55.5q0 -37 2 -55q-10 -10 -43 -10q-63 0 -63 8q-2 37 -2 123q0 630 194 1120l-133 -113q-28 -28 -42 -35.5t-46 -7.5q-35 0 -48 5 t-13 18z" />
<glyph unicode="2" horiz-adv-x="897" d="M-61 123q0 99 41.5 156t123.5 57q43 0 107 -31q132 169 247 370.5t128 307.5q-28 -4 -45 -4q-85 0 -136 58.5t-51 150.5q0 106 57.5 189t143.5 83q48 0 84 -29t55.5 -69.5t31.5 -93.5t15.5 -91t3.5 -71q0 -81 -28 -174.5t-69.5 -178.5t-106 -183.5t-121.5 -175 t-131 -167.5l127 -123q66 -73 116 -122t105.5 -93.5t107 -66t99.5 -21.5q105 0 295 115q0 6 41 6q53 0 53 -8q0 -12 -41 -33q-195 -117 -381 -117q-67 0 -132 19.5t-117 48t-114.5 80.5t-108.5 98t-116 121q-2 1 -5.5 6t-4.5 6q-11 -11 -38.5 -40t-41 -41.5t-37 -31 t-44.5 -27.5t-44 -11q-28 0 -48.5 42.5t-20.5 88.5zM33 172q0 -27 2 -41q34 9 102 86q-45 45 -49 45q-55 0 -55 -90zM489 1180q0 -81 14 -114.5t60 -33.5q17 0 31 4q2 27 2 84q0 155 -47 279q-28 -35 -44 -94.5t-16 -124.5z" />
<glyph unicode="3" horiz-adv-x="839" d="M-20 211q0 22 6 53t23.5 60.5t41.5 29.5q32 0 38.5 -2t8.5 -10q0 -1 -1 -4t-1 -4q-28 -86 -28 -164q0 -129 55 -129q73 0 158.5 98.5t149 230.5t106.5 260.5t43 192.5q0 96 -40.5 163t-113.5 71q-58 0 -158 -17q-8 -2 -20 -2q-11 0 -20 3t-13 6.5t-4 5.5q0 17 9 22.5 t28 9.5l22 5q42 13 74 25.5t66.5 33t57.5 45t37.5 59.5t14.5 78q0 28 -15 44t-30 16t-55 -29q-33 -27 -50.5 -35t-45.5 -8q-45 0 -45 14q0 27 47 51t96.5 36t73.5 12q81 0 118 -28t37 -73q0 -71 -52.5 -132.5t-131.5 -104.5q110 -16 180 -82t70 -170q0 -65 -22 -154.5 t-60 -184.5t-94 -188t-119.5 -166.5t-141 -119t-153.5 -45.5q-39 2 -67.5 18t-43.5 37.5t-23.5 54t-10.5 58t-2 59.5z" />
<glyph unicode="4" horiz-adv-x="987" d="M10 840q0 9 1 15.5t9.5 20t24 22t48.5 15.5t79 7q61 29 108 62t82 75t53 70t48 79q28 51 46 80.5t53 70.5t75 70q45 23 61 23q62 0 62 -29q0 -5 -6.5 -19t-10.5 -30q-71 -236 -135 -600q16 -8 88 -8q58 0 164 24q6 1 36 9t46 10q4 0 14 -10q-3 -38 -99 -62t-200 -24 q-9 0 -57 6q-44 -266 -92 -699q-3 -18 -29 -18q-3 0 -10 1t-10 1h-15q-17 0 -26 11.5t-10.5 23t-1.5 29.5q0 110 10.5 229t21.5 193.5t33 203.5l6 41q-61 14 -139 47q-86 35 -133 47q-31 0 -58 -6q-36 -8 -59 -8q-33 0 -51 4t-22.5 9.5t-4.5 13.5zM313 887q57 -17 181 -74 l26 105q76 308 90 376l-24 -43q-137 -247 -226 -333z" />
<glyph unicode="5" horiz-adv-x="856" d="M20 231q0 249 74 588q4 20 7 30t10 22.5t19.5 18t31.5 5.5q13 0 20 -2.5t8.5 -4.5t2.5 -8t2 -8q-60 -319 -60 -563q0 -180 70 -250q38 11 84 64t86 125t69 132.5t48 108.5q90 232 90 388q0 241 -95 307q-13 10 -39.5 21t-42.5 20t-16 18q0 40 29 109t35 94q93 6 165 6 q177 0 177 -43q0 -22 -33.5 -27.5t-97.5 -5.5q-101 0 -117 2q2 -3 -13 -57.5t-22 -67.5q215 -142 215 -399q0 -244 -149 -535q-95 -182 -232 -292q-74 -45 -139 -45q-53 0 -91 21t-58 58t-29 78.5t-9 91.5z" />
<glyph unicode="6" horiz-adv-x="759" d="M20 414q0 69 17 170.5t47.5 218t78.5 231t104.5 207.5t131 151t152.5 58q38 0 69 -14t51 -35.5t35 -51.5t22.5 -59t10.5 -61q0 -20 -9 -35.5t-21 -15.5q-17 0 -37.5 23.5t-24.5 68.5q-4 27 -11.5 52t-25.5 48t-41 23q-228 -13 -385 -717l9 -2q42 62 116 116t121 54 q62 0 111.5 -35.5t76.5 -90t40.5 -112t13.5 -110.5q0 -87 -27.5 -176t-76.5 -164t-126 -123t-168 -49q-51 0 -92 21t-68 57.5t-46 80t-29 94t-14.5 93.5t-4.5 84zM178 301q0 -86 26.5 -173t65.5 -87q64 0 128 72.5t103.5 184t39.5 220.5q0 31 -3.5 68.5t-12.5 84.5t-29.5 78 t-49.5 31q-38 0 -94.5 -46.5t-106 -125.5t-63.5 -157q0 -26 -2 -76t-2 -74z" />
<glyph unicode="7" horiz-adv-x="620" d="M82 1403q0 37 33 37q69 0 188 -2t170 -2q161 0 262 12q18 0 33.5 -7.5t15.5 -23.5q0 -6 -4 -22q-258 -272 -378.5 -607t-120.5 -761q0 -16 -13 -19.5t-45 -3.5q-25 0 -38 10t-15.5 21t-3.5 35q11 170 27 303t46 274t72.5 254.5t107.5 224.5t152 205q-10 4 -77 8 q-240 13 -293 13q-119 0 -119 51z" />
<glyph unicode="8" horiz-adv-x="800" d="M20 289q0 227 97 394.5t295 299.5q-82 124 -82 205q0 116 76.5 188t168.5 72q95 0 150 -38t55 -110q0 -55 -20 -104t-59.5 -92t-75 -72.5t-90.5 -68.5l26 -43q54 -61 85.5 -156t31.5 -191q0 -164 -55 -300.5t-157 -218t-230 -81.5q-57 0 -100.5 29t-68 76.5t-36 101 t-11.5 109.5zM166 301q0 -99 24.5 -180.5t63.5 -81.5q82 0 152.5 80t109.5 202.5t39 251.5q0 209 -102 328q-45 -33 -93.5 -93.5t-92.5 -138.5t-72.5 -176.5t-28.5 -191.5zM438 1208q0 -58 10.5 -97t38.5 -93q89 61 129.5 139.5t40.5 153.5q0 40 -17 66t-44 26 q-70 0 -114 -58.5t-44 -136.5z" />
<glyph unicode="9" horiz-adv-x="737" d="M20 268q0 38 9 62t26 24q45 0 45 -22q0 -4 -2 -17t-2 -22q0 -36 7 -77t20 -80.5t35.5 -66.5t50.5 -28q187 13 344 717l-8 2q-42 -62 -116.5 -116t-121.5 -54q-62 0 -111 35.5t-76 90t-40.5 112t-13.5 110.5q0 87 27.5 176t76 164t126 123t167.5 49q51 0 92 -21t68 -57.5 t46 -80t29 -94t14.5 -93.5t4.5 -84q0 -83 -23 -211t-67.5 -271t-102.5 -267t-136.5 -205.5t-160.5 -81.5q-52 0 -94 28.5t-65.5 73t-35.5 91.5t-12 91zM197 915q0 -31 3.5 -68.5t12.5 -84.5t29 -78t49 -31t78.5 32.5t97.5 81t83.5 114t35.5 123.5q0 131 -32.5 253t-86.5 136 q-63 0 -126.5 -72.5t-103.5 -184.5t-40 -221z" />
<glyph unicode=":" horiz-adv-x="509" d="M102 55q0 34 23 58t70 24q31 0 47 -20t16 -45q-3 -27 -27.5 -49.5t-56.5 -22.5q-35 0 -53.5 18.5t-18.5 36.5zM254 705q0 34 22 55.5t70 21.5q31 0 46.5 -16t15.5 -41q0 -30 -23 -55t-59 -25q-35 0 -53.5 20.5t-18.5 39.5z" />
<glyph unicode=";" horiz-adv-x="509" d="M102 -123q0 3 5.5 4t14.5 1.5t15 2.5q64 22 64 74q0 22 -8 41q-35 0 -53.5 18.5t-18.5 36.5q0 35 22.5 58.5t69.5 23.5q31 0 47 -20t16 -45q0 -84 -40.5 -149.5t-118.5 -65.5q-7 0 -11 7t-4 13zM254 705q0 34 22 55.5t70 21.5q31 0 46.5 -16t15.5 -41q0 -30 -23 -55 t-59 -25q-35 0 -53.5 20.5t-18.5 39.5z" />
<glyph unicode="&#x3c;" horiz-adv-x="923" d="M102 592q532 316 598 366q46 31 88 31q70 0 70 -16q0 -12 -117.5 -89.5t-255 -166.5t-168.5 -117q48 -34 179.5 -121.5t233.5 -158.5t132 -103q0 -12 -45 -12q-16 0 -49 10l-129 80q-276 170 -339 205t-97 35q-36 0 -56.5 6.5t-26 13t-10.5 19.5t-8 18z" />
<glyph unicode="=" horiz-adv-x="892" d="M57 492q2 7 9.5 14.5t15.5 7.5q47 0 212.5 -17.5t213.5 -17.5l264 25q14 0 14 -35q-14 -41 -32 -41q-211 -20 -412 -20q-181 0 -268 20q-8 1 -12.5 24.5t-4.5 39.5zM104 766q2 7 9.5 14.5t15.5 7.5q47 0 212.5 -17t213.5 -17l264 24q15 0 15 -35q-14 -41 -33 -41 q-211 -20 -412 -20q-181 0 -268 20q-8 1 -12.5 24.5t-4.5 39.5z" />
<glyph unicode="&#x3e;" horiz-adv-x="811" d="M61 223q0 16 25 35q48 38 148 103.5t183.5 128t137.5 124.5q-8 8 -118 109t-181.5 177t-71.5 104q0 2 5.5 6.5t17.5 9t26 4.5q29 0 56 -16q47 -75 194 -210.5t213 -162.5q13 -5 13 -17q0 -5 -2.5 -11t-5.5 -9l-3 -4q-19 -13 -105.5 -75.5t-148.5 -106t-142 -96.5 t-134.5 -82t-77.5 -29q-17 3 -23 6.5t-6 11.5z" />
<glyph unicode="?" horiz-adv-x="952" d="M164 1354q0 58 22 106t59.5 81t87 55.5t103.5 33t111 10.5q176 0 290.5 -109t114.5 -263q0 -78 -22.5 -148t-62 -127t-88.5 -109.5t-105 -106.5t-108.5 -107.5t-103 -123t-83.5 -143.5q-28 -14 -53 -14q-24 0 -31.5 13t-7.5 36q29 79 92.5 168t130 165t130 155.5 t104 167.5t40.5 174q0 77 -22 140t-57 101t-76.5 58t-83.5 20q-45 0 -89 -15.5t-82.5 -44.5t-62.5 -78t-24 -110q0 -14 6 -36t6 -31q0 -13 -43 -23q-38 0 -63.5 27t-28.5 78zM240 55q0 35 22.5 58.5t69.5 23.5q31 0 47 -20t16 -45q-3 -27 -27.5 -49.5t-56.5 -22.5 q-35 0 -53 18.5t-18 36.5z" />
<glyph unicode="@" horiz-adv-x="1671" d="M164 326q0 138 44 278t126 262.5t190 218.5t247 151.5t286 55.5q110 0 195.5 -42t136.5 -114.5t76.5 -161.5t25.5 -190q0 -113 -31 -223t-85.5 -199t-137.5 -143.5t-178 -54.5q-38 0 -64 14.5t-39.5 42t-18.5 58.5t-5 71v72l-23 -35q-29 -40 -52.5 -69.5t-58.5 -67 t-69.5 -58t-64.5 -20.5q-45 0 -67 19.5t-22 50.5q0 116 84 268q84 153 208.5 273.5t201.5 146.5q10 43 66 43q16 0 30.5 -10.5t14.5 -26.5q0 -6 -2 -10q-4 -11 -35 -84t-59.5 -146t-53 -173.5t-24.5 -178.5q0 -51 11 -95t34 -44q88 0 161.5 88.5t112.5 221.5t39 273 q0 87 -17.5 162.5t-52.5 137t-94.5 96.5t-138.5 35q-136 0 -270.5 -79t-234.5 -204t-162 -287t-62 -321q0 -86 19 -170.5t61.5 -163.5t102.5 -138.5t148.5 -95.5t194.5 -36q284 0 584 245q24 21 45 21q20 0 20 -23q0 -10 -2 -16q-124 -123 -302 -211t-343 -88 q-141 0 -258 38t-197 102.5t-135 151.5t-80.5 183t-25.5 199zM666 225q0 -4 4 -4q79 0 286 416l1 1v1l1 2l25 47l57 154q-101 -87 -209 -234q-160 -229 -165 -383z" />
<glyph unicode="A" horiz-adv-x="1615" d="M-82 307q0 333 440 676q21 0 21 -20l-49 -45q-45 -40 -71.5 -64.5t-69.5 -68.5t-69 -78.5t-58 -84t-50 -95.5t-30.5 -103.5t-12.5 -116.5q0 -106 52 -176t153 -70q79 0 149 27.5t134 94.5t108.5 121.5t102.5 169.5t84.5 173t85.5 193q6 12 8 18q-71 23 -117.5 43.5 t-44.5 28.5q0 14 9.5 29.5t21.5 16.5q10 0 21.5 -10t11.5 -22l22 -6q16 -6 49.5 -16t48.5 -15q33 77 58.5 131.5t59 120.5t63 111t66.5 90.5t72.5 73t78.5 44.5t88 17h10q106 0 106 -45q-5 -14 -23.5 -96.5t-47 -236.5t-47.5 -296q79 3 125 33q0 2 -3.5 13.5t-3.5 17.5 q0 14 17 14q2 0 6 -1t6 -1q14 -3 24.5 -20t10.5 -35q0 -9 -4 -17q-34 -59 -184 -59q-25 -212 -25 -344q0 -56 6.5 -117.5t20.5 -123t39.5 -101t58.5 -39.5q27 0 55.5 23t72 91t65.5 107t84 153q2 3 3 5q21 0 21 -19q-32 -66 -56 -113.5t-58 -106t-62.5 -94.5t-62 -61.5 t-62.5 -25.5q-57 0 -103.5 26.5t-76.5 69.5t-50.5 99t-29 112t-8.5 113q0 184 22 358q-94 13 -211 41q-53 -112 -83 -172.5t-86.5 -163.5t-99.5 -161.5t-108.5 -132.5t-127.5 -113.5t-142.5 -67.5t-167.5 -28q-126 0 -191 91t-65 236zM1012 868q124 -30 194 -39 q34 241 101 461q10 37 28 74q-44 -29 -85.5 -77t-85 -122.5t-73.5 -134t-79 -162.5z" />
<glyph unicode="B" horiz-adv-x="1769" d="M-82 307q0 333 440 676q21 0 21 -20l-49 -45q-45 -40 -71.5 -64.5t-69.5 -68.5t-69 -78.5t-58 -84t-50 -95.5t-30.5 -103.5t-12.5 -116.5q0 -106 52 -176t153 -70q76 0 138.5 31t107.5 88t80 131t60.5 165.5t45 185.5t37 197t33.5 194.5t38 184t46 159.5q-98 -2 -196 -21 t-180 -51t-133.5 -81t-51.5 -105q0 -39 -26.5 -81t-66.5 -42q0 83 40 154.5t106 121.5t154 86t183 54.5t193 21.5q77 168 207 168q72 0 102.5 -7.5t30.5 -33.5q0 -20 -15.5 -36.5t-38.5 -30t-26 -15.5q-35 -40 -41 -49q110 -4 195.5 -15t165 -33.5t123 -64t43.5 -98.5 q0 -63 -53 -115.5t-130 -83.5t-151.5 -48t-128.5 -19q500 -108 500 -430q0 -96 -33.5 -185.5t-89.5 -156.5t-126 -118t-145.5 -77t-144.5 -26q-122 0 -219.5 96.5t-97.5 220.5q0 42 16 86q5 15 31 29t53 14q59 0 59 -25l-22 -90q10 -137 59.5 -203.5t122.5 -66.5 q90 0 174 79t133 195.5t49 227.5q0 62 -18.5 114.5t-44 90t-72.5 70.5t-83.5 53t-98.5 41t-96.5 30t-96.5 25l-47 12l-30 -137q-20 -93 -31 -142t-33.5 -135.5t-40 -135t-48 -119.5t-60.5 -111t-73.5 -88t-92 -72.5t-110.5 -41.5t-134 -17q-126 0 -191 91t-65 236zM840 1034 q85 2 168.5 15.5t157 37t118.5 62t45 86.5q0 49 -30 82.5t-85.5 50.5t-113 23.5t-131.5 7.5q-71 -125 -129 -365z" />
<glyph unicode="C" horiz-adv-x="1247" d="M0 430q0 223 141 447t365 385q-31 0 -120.5 38t-169.5 77.5t-83 39.5q8 35 45 35t117 -45q148 -76 272 -100q104 65 222 101t233 36q174 0 174 -68q-18 -46 -92 -76t-144 -39.5t-131 -9.5h-176q-200 -137 -331.5 -366.5t-131.5 -454.5q0 -165 73.5 -278t191.5 -113 q62 0 133 35.5t129.5 92t97.5 133.5t39 153q0 18 -2 39t-2 26q0 18 15 24.5t61 6.5q35 0 58.5 -10t23.5 -29q0 -132 -80.5 -255.5t-214.5 -200.5t-281 -77q-104 0 -188 39t-136 103.5t-80 144.5t-28 166zM694 1292h25q110 0 185.5 15.5t133.5 52.5q-37 12 -77 12 q-111 0 -267 -80z" />
<glyph unicode="D" horiz-adv-x="1769" d="M-82 436q0 150 78 256.5t219 106.5q107 0 205 -79.5t176 -205.5q34 126 91 450.5t104 452.5q-133 -3 -259 -33.5t-214.5 -90.5t-88.5 -134q0 -39 -26 -81t-66 -42q0 103 60.5 187.5t159.5 136.5t216.5 81.5t241.5 33.5q76 165 209 165q72 0 102.5 -7.5t30.5 -33.5 q0 -20 -15.5 -36t-38.5 -29.5t-26 -15.5q-35 -35 -55 -66q162 -42 287.5 -159t190.5 -272.5t65 -320.5q0 -91 -23.5 -190t-71 -194t-111.5 -170.5t-153 -122t-188 -46.5q-122 0 -213 66.5t-168 183.5q-38 -58 -74 -94q-135 -135 -278 -135q-87 0 -158.5 38t-116 101 t-68.5 140t-24 159zM8 455q0 -86 33.5 -168t100.5 -138.5t151 -56.5q77 0 143.5 61.5t102.5 186.5l12 29l-6 12q-32 55 -54.5 92t-57.5 84.5t-65 76t-68 48.5t-75 20q-108 0 -162.5 -70.5t-54.5 -176.5zM690 338q33 -59 63 -100.5t70.5 -80t92 -58t112.5 -19.5 q82 0 153.5 62.5t116 157.5t70 199.5t25.5 194.5q0 96 -26.5 199t-76 199.5t-131.5 174.5t-182 115q-48 -92 -87 -235.5t-61 -272.5t-59 -281.5t-80 -254.5z" />
<glyph unicode="E" horiz-adv-x="1249" d="M0 438q0 197 149 361.5t359 220.5q-73 26 -111.5 74.5t-38.5 107.5q0 83 50.5 141t127 83.5t169.5 25.5q97 0 187 -40.5t152 -100.5q0 -19 -20 -21q-49 44 -124 72.5t-140 28.5q-63 0 -116 -18t-89.5 -61.5t-36.5 -105.5q0 -61 54.5 -108t158.5 -47q17 0 33 -4.5 t16 -12.5q0 -9 -16 -33q-53 -6 -98 -6h-13q-75 -18 -156 -68.5t-152 -122t-117 -169t-46 -197.5q0 -164 77.5 -277.5t195.5 -113.5q62 0 133 35.5t129.5 92t97.5 133.5t39 153q0 18 -2 39t-2 26q0 18 15 24.5t61 6.5q35 0 58.5 -10t23.5 -29q0 -99 -48 -196t-126.5 -170.5 t-185 -119.5t-216.5 -46q-104 0 -188 38.5t-136 103t-80 144.5t-28 166z" />
<glyph unicode="F" horiz-adv-x="1288" d="M-59 305q0 122 59 241t182 249q185 202 549 256q13 71 47 231q-25 6 -98 41.5t-150.5 65.5t-130.5 30q-66 0 -95 -23t-30 -96q-1 -30 -4.5 -40t-19 -16.5t-53.5 -8.5q-24 0 -47 9t-23 30q0 192 266 192q55 0 137 -28.5t159.5 -61.5t105.5 -39q96 226 313 226q34 0 78 -6 t93.5 -18.5t82.5 -38.5t33 -60q0 -160 -443 -160q-33 -111 -55 -217h10q135 0 230 -27.5t100 -66.5q0 -23 -16 -37t-29 -14q-8 0 -17 4.5t-13 9.5l-5 4q2 2 2 6q-3 24 -81.5 41.5t-192.5 20.5l-15 -72q-68 -325 -117 -471q-106 -312 -283 -419q-104 -62 -239 -62 q-130 0 -210 93t-80 232zM4 297q0 -103 57 -169.5t160 -66.5q61 0 113.5 21t94 61.5t76 92t61.5 120.5t49 139t40.5 156t33.5 162t31 166l3 18l-86 -8q-117 -15 -231 -77t-203 -153t-144 -213.5t-55 -248.5zM965 1323q145 0 261.5 34t127.5 93q-20 24 -61 38.5t-89 14.5 q-83 0 -151 -44.5t-88 -135.5z" />
<glyph unicode="G" horiz-adv-x="1249" d="M0 430q0 223 141 447t365 385q-31 0 -120.5 38t-169.5 77.5t-83 39.5q8 35 45 35t117 -45q148 -76 272 -100q104 65 222 101t233 36q174 0 174 -68q-18 -46 -92 -76t-144 -39.5t-131 -9.5h-176q-205 -141 -348 -370.5t-143 -450.5q0 -161 86.5 -276t206.5 -115 q62 0 133 35.5t129.5 92t97.5 133.5t39 153q0 18 -2 39t-2 26q0 18 15 24.5t61 6.5q35 0 58.5 -10t23.5 -29q0 -87 -39 -176q-14 -54 -37 -140.5t-40 -149.5t-22 -85q-8 -23 -10 -39q140 -29 241 -121.5t101 -204.5q0 -102 -88 -190q-18 4 -18 23q71 59 71 153 q0 101 -86 186t-233 107q-44 -161 -91.5 -293t-104.5 -244.5t-124 -175.5t-137 -63q-78 0 -129 46t-70.5 114t-19.5 157q0 104 34 190t89 143t128 97.5t146.5 60.5t149.5 25l41 154q-152 -107 -328 -107q-104 0 -188 39t-136 103.5t-80 144.5t-28 166zM297 -573 q0 -33 6 -73.5t18 -80.5t33 -67t47 -27q63 0 144.5 198.5t159.5 499.5q-78 -8 -147.5 -37.5t-129.5 -81.5t-95.5 -137.5t-35.5 -193.5zM694 1292h25q110 0 185.5 15.5t133.5 52.5q-37 12 -77 12q-111 0 -267 -80z" />
<glyph unicode="H" horiz-adv-x="1544" d="M-51 307q0 333 440 676q21 0 21 -20l-50 -45q-44 -40 -71 -64.5t-69.5 -68.5t-69 -78.5t-58.5 -84t-49.5 -95.5t-30 -103.5t-12.5 -116.5q0 -106 52 -176t153 -70q93 0 167 45.5t121 120.5t85.5 176.5t61 210t47 223.5t45.5 214t54 186t74 135q-38 -14 -112 -14 q-81 0 -223.5 34.5t-159.5 34.5q-66 0 -95 -22.5t-30 -95.5q-1 -23 -2.5 -32t-9 -18t-22.5 -11.5t-44 -4.5q-24 0 -47 9t-23 30q0 193 266 193q55 0 194 -32t210 -32q76 0 135 29q8 2 33.5 12t52 16.5t53.5 6.5q68 0 68 -41q0 -20 -15.5 -36.5t-38.5 -30t-26 -15.5 q-66 -80 -103.5 -201t-74.5 -313h198q37 127 93 237.5t127.5 196.5t161 135t184.5 49q38 0 51.5 -21.5t13.5 -84.5q-18 -200 -150.5 -359t-324.5 -192q-64 -198 -74 -377q0 -56 6.5 -117.5t20.5 -123t39.5 -101t58.5 -39.5q14 0 28.5 6.5t31.5 23.5t31.5 33t35 47.5t34.5 54 t38.5 66t39 70t42.5 78.5q20 0 20 -19q-32 -66 -56 -113.5t-58 -106t-62.5 -94.5t-62 -61.5t-62.5 -25.5q-57 0 -103.5 26.5t-76.5 69.5t-50.5 99t-29 112t-8.5 113q0 188 49 371h-194q-16 -84 -26 -132.5t-30 -127t-37.5 -126.5t-46.5 -113t-60.5 -104.5t-76 -83.5 t-95.5 -68t-117.5 -40t-143.5 -16q-126 0 -191 91t-65 236zM1217 850q76 20 142.5 67.5t110.5 105t76.5 121.5t47 117t14.5 91q0 13 -6 27t-17 14q-4 0 -12 -4q-105 -55 -197.5 -202t-158.5 -337z" />
<glyph unicode="I" horiz-adv-x="1261" d="M-51 307q0 333 440 676q21 0 21 -20l-50 -45q-44 -40 -71 -64.5t-69.5 -68.5t-69 -78.5t-58.5 -84t-49.5 -95.5t-30 -103.5t-12.5 -116.5q0 -106 52 -176t153 -70q76 0 139 33.5t107 88t81 137t60.5 167.5t46.5 194t38 201.5t35 204.5t38 189q-25 6 -96.5 41.5 t-147.5 65.5t-129 30q-66 0 -95 -23t-30 -96q-1 -30 -4.5 -40t-19.5 -16.5t-54 -8.5q-24 0 -47 9t-23 30q0 192 267 192q55 0 125.5 -24.5t150 -58t129.5 -46.5q128 125 352 125q35 0 69.5 -3t78.5 -11t71 -25.5t27 -44.5q0 -24 -20 -42.5t-60.5 -29t-78.5 -17.5t-99 -9.5 t-94.5 -3t-91.5 -0.5q-27 -83 -54.5 -198t-47 -214.5t-48.5 -213.5t-58.5 -206.5t-77.5 -180t-106 -146.5t-143.5 -95t-189.5 -36q-126 0 -191 91t-65 236zM956 1325q224 14 224 53q0 8 -13.5 14.5t-21.5 6.5q-87 0 -189 -74z" />
<glyph unicode="J" horiz-adv-x="1150" d="M-178 -586q0 107 35.5 203t94 165t133 120.5t152.5 78.5t152 31q41 199 121 629.5t129 634.5q-25 6 -100 41t-154.5 64.5t-132.5 29.5q-49 0 -72.5 -34t-23.5 -111q0 -57 39.5 -118.5t85.5 -88.5q0 -23 -52 -23q-57 0 -134 79.5t-77 152.5q0 50 22 88t58 58.5t75 30 t79 9.5q56 0 128 -23t154.5 -55.5t131.5 -44.5q128 125 352 125q35 0 69.5 -3t78.5 -10.5t71 -25.5t27 -45q0 -24 -19.5 -42.5t-60 -29t-78 -17.5t-98 -9.5t-94 -3t-91.5 -0.5q-43 -127 -80.5 -272t-58.5 -248t-55 -275.5t-54 -269.5q-30 -136 -43 -191q134 13 229.5 94.5 t196.5 253.5l33 58q23 0 23 -10q0 -7 -2 -9l-35 -63q-41 -76 -83.5 -133.5t-97 -108.5t-123.5 -83t-151 -44q-2 -4 -2 -10q-44 -175 -93 -320.5t-109 -272t-131.5 -198t-145.5 -71.5q-78 0 -129 46t-70.5 114t-19.5 157zM-53 -573q0 -33 6 -73.5t18 -80.5t33 -67t47 -27 q46 0 105.5 116.5t113.5 286t105 377.5q-78 -8 -153.5 -49t-137 -108t-99.5 -165t-38 -210zM846 1325q223 14 223 53q0 8 -13.5 14.5t-21.5 6.5q-86 0 -188 -74z" />
<glyph unicode="K" horiz-adv-x="1564" d="M-51 307q0 333 440 676q21 0 21 -20l-50 -45q-44 -40 -71 -64.5t-69.5 -68.5t-69 -78.5t-58.5 -84t-49.5 -95.5t-30 -103.5t-12.5 -116.5q0 -106 52 -176t153 -70q107 0 188.5 58t131.5 155.5t86.5 217t62.5 252t50 250t58 221.5t78 157q-38 -14 -112 -14 q-81 0 -223.5 34.5t-159.5 34.5q-66 0 -95 -22.5t-30 -95.5q-1 -23 -2.5 -32t-9 -18t-22.5 -11.5t-44 -4.5q-24 0 -47 9t-23 30q0 193 266 193q55 0 194 -32t210 -32q76 0 135 29q8 2 33.5 12t52 16.5t53.5 6.5q68 0 68 -41q0 -20 -15.5 -36.5t-38.5 -30t-26 -15.5 q-76 -79 -121.5 -196t-81.5 -284h25q87 22 161.5 56t124.5 67.5t100.5 82.5t78.5 83.5t70 89t65 80.5q114 133 199 133q63 0 63 -12q0 -3 -3.5 -7.5t-13 -12t-17.5 -13.5t-26 -18.5t-30 -20.5q-32 -34 -89.5 -101.5t-99.5 -111.5t-108 -103.5t-152 -114.5t-194 -107 q36 -28 65.5 -64.5t58.5 -94t44.5 -93t47.5 -119t44 -113.5q271 -686 547 -686q62 0 129.5 24t118.5 58t84.5 61.5t44.5 41.5q0 30 59 30q43 0 43 -10q0 -23 -44 -64t-109.5 -81t-155.5 -69.5t-170 -29.5q-79 0 -151 23t-128.5 59t-110.5 94.5t-93 115.5t-80.5 136.5 t-69.5 142.5t-62 148q-9 21 -39 98.5t-44.5 108.5t-44 86t-62 91t-72.5 65q-6 -2 -20 -2l-12 -64q-17 -82 -26.5 -126t-28.5 -120t-35 -118.5t-43.5 -104t-56 -97t-70 -76.5t-88.5 -62.5t-108 -36t-132 -14.5q-126 0 -191 91t-65 236z" />
<glyph unicode="L" horiz-adv-x="1695" d="M-61 236q0 88 82 152.5t229 64.5q187 0 426 -187q56 108 92.5 258.5t95.5 466.5q-37 -2 -157 -2q-89 0 -169.5 10.5t-159 36.5t-136 66.5t-92.5 104.5t-35 145q0 125 107 210t298 85q79 0 193 -37t114 -60q0 -7 -22 -12.5t-49 -5.5q-36 0 -82 27q-26 22 -73.5 42.5 t-84.5 20.5q-65 0 -118.5 -24t-86 -63.5t-50 -86.5t-17.5 -96q0 -149 127 -231.5t336 -82.5q123 0 167 17q31 109 73 192t104 150t150.5 102t201.5 35q62 0 126 -16.5t113.5 -53.5t49.5 -86q0 -32 -25.5 -66t-74 -65.5t-94.5 -57.5t-113.5 -54t-102 -41.5t-86.5 -32.5 q-19 -7 -74.5 -22t-87.5 -25q-29 -86 -56.5 -211t-46 -215.5t-60 -200t-101.5 -194.5q99 -108 166.5 -178t138.5 -136.5t123.5 -103t103.5 -58.5t97 -22q89 0 184 51q13 6 28 20.5t32.5 21.5t48.5 7q23 0 35.5 -4.5t14 -8t1.5 -9.5q-79 -54 -177.5 -83.5t-185.5 -29.5 q-57 0 -110.5 12.5t-109.5 42.5t-105 63t-113 91t-116 108.5t-132 131.5q-146 -132 -370 -132q-172 0 -278.5 78t-106.5 181zM94 238q0 -75 64 -132t159 -57q183 0 297 135q-58 79 -166.5 149t-191.5 70q-68 0 -115 -47.5t-47 -117.5zM1057 1083q41 10 117 37q34 10 83.5 31 t113.5 54.5t107.5 77.5t43.5 87q0 45 -36.5 74t-84.5 29q-49 0 -93 -20.5t-78 -54.5t-66.5 -86t-57 -106t-49.5 -123z" />
<glyph unicode="M" horiz-adv-x="1806" d="M-82 307q0 301 481 676q21 0 21 -20l-49 -45q-6 -6 -14 -13t-18 -15t-15 -13q-45 -40 -69.5 -62t-68 -65t-68.5 -74.5t-57.5 -78.5t-49.5 -89t-29.5 -94.5t-12.5 -106.5q0 -106 52 -176t153 -70q67 0 128.5 23.5t111 60.5t96.5 98t82 120.5t71 145.5t60 155t52.5 166.5 t45 162.5t41 160.5t37.5 144.5q-55 121 -246 121q-62 0 -110 -17t-75 -41.5t-45 -59t-24.5 -63.5t-7.5 -60q0 -3 -1 -12t-1 -13q0 -59 17 -76q3 -6 4 -6q-4 -13 -26.5 -21t-47.5 -8q-57 0 -66 29q-16 31 -16 64q0 27 2 43q10 141 110.5 222t305.5 81q96 0 167 -28.5 t116.5 -79t73 -130.5t38 -171.5t10.5 -213.5q0 -112 -10 -272q0 -6 -1 -19.5t-1 -19.5q0 -3 -1 -8.5t-1 -8.5q0 -4 -1 -12t-1 -12q-9 -117 -29 -213q47 86 168.5 321.5t227.5 426.5t198 325q33 78 69 104.5t77 26.5l-24 -63q-116 -338 -186 -678q-40 -197 -51 -346 q-2 -23 -2 -72q0 -55 5 -103.5t15.5 -94t31 -72.5t49.5 -27q14 0 29 6.5t33.5 23.5t33.5 33t38.5 47.5t39 54t43.5 66.5t44 69.5t48 78.5q18 0 18 -12q0 -1 -1 -3.5t-1 -3.5q-47 -87 -80.5 -143.5t-79.5 -123t-87.5 -100.5t-77.5 -34q-62 0 -107 29.5t-68.5 80t-34.5 107.5 t-11 123q0 47 2 70q3 39 7.5 77.5t12.5 85t13 74t17.5 83t16 71.5t19 79.5t16.5 69.5q-61 -111 -214.5 -416t-213.5 -399q-35 -56 -77 -92.5t-75 -36.5q-1 0 -10 1.5t-16 3t-16 4t-14 6t-5 8.5q63 238 86 557q10 132 23 479q-84 -326 -131 -462q-130 -370 -324 -516 q-143 -107 -332 -107q-126 0 -191 91t-65 236z" />
<glyph unicode="N" horiz-adv-x="1748" d="M-51 305q0 333 440 676q21 0 21 -20l-50 -46q-45 -40 -71 -64.5t-69 -68.5t-69.5 -78t-58.5 -83.5t-49.5 -95.5t-30 -103.5t-12.5 -116.5q0 -106 52 -176t153 -70q77 0 140.5 35t107.5 92.5t81 144t60.5 175t45.5 201t36 207t33 208t36 189.5l-40 45q-43 39 -108 68.5 t-122 29.5q-70 0 -130 -58.5t-60 -105.5q0 -7 -26 -15.5t-44 -8.5t-50 11.5t-32 20.5q0 38 48 84t130.5 79.5t165.5 33.5q266 0 402 -176q66 -85 119.5 -247.5t78 -293.5t37.5 -246l10 56q10 56 24.5 121.5t41 154t58 170.5t75.5 163.5t93.5 142t113.5 98t133 37.5 q93 0 151 -87t58 -180q-77 0 -90 105q-6 53 -38.5 87t-80.5 34q-71 0 -138.5 -92.5t-118 -238.5t-93 -310t-70.5 -324.5t-44 -264.5t-19 -145v-10q-3 -32 -24 -48.5t-69 -16.5q-19 5 -32 13.5t-19.5 16.5t-9.5 25.5t-3.5 27.5t-0.5 35q0 10 1 32t1 34q0 195 -44 439.5 t-87 396.5q-40 143 -45 144v-1q-10 -35 -22 -114.5t-23 -164t-33.5 -190t-50 -201t-74.5 -189t-105.5 -161t-144.5 -109t-190 -41.5q-126 0 -191 91.5t-65 236.5z" />
<glyph unicode="O" horiz-adv-x="1140" d="M0 379q0 138 38 284.5t99.5 268.5t129.5 220.5t136 164.5q62 58 110 87.5t101 29.5q13 -17 13 -23q0 -8 -13 -18l-90 -84q-61 -58 -121 -148.5t-113 -208t-85.5 -265t-32.5 -296.5q0 -64 5.5 -119.5t19.5 -111.5t42.5 -88.5t69.5 -32.5q155 0 295 221q-84 67 -129 189 t-45 280q0 160 70.5 369.5t169.5 312.5q47 47 151 47q60 0 103.5 -30.5t67 -84t34 -116t10.5 -137.5q0 -201 -73 -434t-199 -406q16 -4 49 -4q106 0 183 55t141 152q13 26 30 26q15 0 15 -10q0 -8 -8 -16q-35 -57 -69.5 -99t-80 -80.5t-102.5 -58.5t-123 -20q-37 0 -72 6 q-186 -226 -412 -226q-64 0 -119.5 23.5t-100 70.5t-70 126.5t-25.5 183.5zM551 707q0 -276 88 -383q103 191 166 449.5t63 457.5q0 149 -47 149q-67 0 -131 -112t-101.5 -268t-37.5 -293z" />
<glyph unicode="P" horiz-adv-x="1527" d="M-82 307q0 333 440 676q21 0 21 -20l-49 -45q-45 -40 -71.5 -64.5t-69.5 -68.5t-69 -78.5t-58 -84t-50 -95.5t-30.5 -103.5t-12.5 -116.5q0 -106 52 -176t153 -70q94 0 167.5 47.5t122 133t83.5 189t60.5 231.5t44.5 243.5t44 242t52 210.5l12 39q-98 -2 -196 -21 t-180 -51t-133.5 -81t-51.5 -105q0 -39 -26.5 -81t-66.5 -42q0 83 40 154.5t106.5 121.5t155 86t183.5 54.5t193 21.5q77 168 205 168q72 0 102.5 -7.5t30.5 -33.5q0 -20 -15.5 -36.5t-38.5 -30t-26 -15.5q-29 -34 -41 -51q84 -4 156.5 -14t142.5 -29.5t119 -47t79 -69.5 t30 -94q0 -62 -53 -115.5t-133.5 -88.5t-181 -61t-190.5 -39t-167 -16l-8 -40q-19 -90 -30.5 -141t-33.5 -135t-40.5 -133.5t-48.5 -118.5t-60.5 -109.5t-73.5 -87t-91 -71.5t-110 -41.5t-133 -16.5q-126 0 -191 91t-65 236zM811 918q83 5 173.5 27.5t167.5 57.5t127 86 t50 105q0 183 -362 199l-25 -45q-67 -143 -131 -430z" />
<glyph unicode="Q" horiz-adv-x="1062" d="M27 279q13 25 39.5 43t54.5 18q37 0 69 -8t55.5 -19.5t52.5 -35t48.5 -42.5t55.5 -56t63 -62q122 110 212.5 285.5t134.5 367t44 375.5q0 89 -8.5 145t-33.5 90.5t-69 34.5q-86 0 -184.5 -86.5t-173 -208t-124.5 -254t-50 -223.5q0 -46 1.5 -80.5t6.5 -59.5t8 -39.5 t13.5 -28t14.5 -18t18.5 -15.5t19.5 -15q-4 -15 -18 -29t-37 -14q-24 0 -58 21q-114 102 -114 288q0 58 25 141.5t68.5 176t108 184.5t138 165.5t164 119t180.5 45.5q61 0 109.5 -18.5t79.5 -49t51.5 -74.5t29 -92t8.5 -104q0 -234 -63 -457t-175 -395t-253 -262l49 -49 q49 -50 74.5 -75t68 -63.5t70 -58t67.5 -44t74.5 -35.5t77.5 -19t90 -8q64 0 158 19t118 34q36 26 80 26q37 0 47 -28q-54 -30 -178 -59t-227 -29q-107 0 -201 25t-175.5 74.5t-150 110t-143.5 144.5q-40 -18 -119 -18q-217 0 -264 165q0 17 70 17q52 0 68 -23 q10 -28 44 -62t56 -34q44 0 100 23q-12 14 -49.5 58t-60.5 68.5t-55.5 57t-59.5 48t-49 15.5q-41 0 -72 -55q-20 0 -20 21z" />
<glyph unicode="R" horiz-adv-x="1585" d="M-51 307q0 333 440 676q21 0 21 -20l-50 -45q-44 -40 -71 -64.5t-69.5 -68.5t-69 -78.5t-58.5 -84t-49.5 -95.5t-30 -103.5t-12.5 -116.5q0 -106 52 -176t153 -70q76 0 138.5 31t107.5 88t80 131t60.5 165.5t45 185.5t37 197t33.5 194.5t38 184t46 159.5 q-133 -3 -259 -33.5t-214.5 -90.5t-88.5 -134q0 -39 -26 -81t-66 -42q0 83 40 154.5t106 121.5t154 86t183 54.5t193 21.5q77 168 207 168q72 0 102.5 -7.5t30.5 -33.5q0 -20 -15.5 -36.5t-38.5 -30t-26 -15.5q-29 -34 -41 -51q84 -4 156.5 -14t142.5 -29.5t119 -47 t79 -69.5t30 -94q0 -51 -36 -96t-93.5 -77.5t-135 -59.5t-153.5 -44t-156 -28l10 -6q44 -34 83.5 -99t62 -120.5t59 -157.5t55.5 -148q271 -686 547 -686q62 0 129.5 24t118.5 58t84.5 61.5t44.5 41.5q0 30 59 30q43 0 43 -10q0 -23 -44 -64t-109.5 -81t-155.5 -69.5 t-170 -29.5q-79 0 -151 23t-128.5 59t-110 95t-93 115.5t-80.5 136.5t-69 142.5t-62 147.5q-14 35 -49 130t-56.5 146t-64.5 115t-92 99q-6 -2 -19 -2q-65 -297 -111 -427q-98 -276 -267 -373q-105 -60 -244 -60q-126 0 -191 91t-65 236zM844 918q83 5 173 27.5t167 57.5 t126.5 86t49.5 105q0 45 -21.5 79t-55 55t-83 35.5t-97.5 20.5t-106 9q-49 -86 -83.5 -199.5t-69.5 -275.5z" />
<glyph unicode="S" horiz-adv-x="1132" d="M0 446q0 113 40.5 228t89 188t97.5 119q21 18 72 18q66 0 66 -20q0 1 -12 -8.5t-25 -20.5q-89 -89 -132.5 -224.5t-43.5 -272.5q0 -108 34 -200.5t103.5 -152t159.5 -59.5q88 0 158.5 37t113.5 97.5t65.5 134.5t22.5 153q0 81 -30 172t-59 144t-81 139 q-46 76 -76.5 160.5t-30.5 152.5q0 53 17 94q-25 55 -25 109q0 75 50 133t151 80q12 -5 12 -21v-8q-65 -17 -102 -57t-37 -95q0 -36 10 -65q72 57 217 57q92 0 159 -40t67 -97q0 -65 -69.5 -104t-168.5 -39q-65 0 -115 12q13 -124 121 -303q144 -237 144 -428 q0 -108 -46 -201t-120 -153t-165 -94t-183 -34q-104 0 -190.5 41t-142 108t-86 150t-30.5 170zM696 1266q46 -52 117 -52q27 0 51.5 23t24.5 70q0 38 -15 69t-43 31q-40 0 -81 -41.5t-54 -99.5z" />
<glyph unicode="T" horiz-adv-x="1294" d="M-55 307q0 333 440 676q21 0 21 -20l-50 -45q-44 -40 -71 -64.5t-69.5 -68.5t-69 -78.5t-58.5 -84t-49.5 -95.5t-30 -103.5t-12.5 -116.5q0 -106 52 -176t153 -70q82 0 148.5 37.5t112 100t82 152.5t59.5 185.5t45 209t38 213t38.5 207.5t45.5 184q-127 43 -227 43 q-87 0 -155.5 -20.5t-108 -53.5t-60 -71.5t-20.5 -78.5q0 -63 41.5 -99t154.5 -36q37 0 84.5 20.5t73.5 43.5q45 26 82 26q27 0 49.5 -5.5t22.5 -12.5q0 -23 -114.5 -59.5t-193.5 -36.5q-181 0 -253 42t-72 115q0 47 33.5 95t92 88.5t149 66t194.5 25.5q73 0 245 -43 q39 108 94 165.5t134 57.5q72 0 102.5 -7.5t30.5 -33.5q0 -20 -15.5 -36.5t-38.5 -30t-26 -15.5q-53 -56 -96 -143q118 -25 180 -25q81 0 140 14t90 34t49 50.5t22 54t4 54.5q0 33 -32.5 54.5t-84.5 21.5q-73 0 -73 18q0 9 8 17q0 10 61 10q56 0 117.5 -45.5t61.5 -112.5 q0 -106 -93.5 -179t-248.5 -73q-111 0 -232 41q-32 -80 -61 -192t-49 -214t-48 -217t-57 -211t-76.5 -186t-106 -152.5t-146.5 -100t-197 -37.5q-126 0 -191 91t-65 236z" />
<glyph unicode="U" horiz-adv-x="1792" d="M133 1268q0 50 22 88t58 58.5t75 30t79 9.5q49 0 156 -48t159 -48q71 0 125 65q6 33 84 33q74 0 74 -10l-32 -93q-73 -220 -112 -329q-42 -115 -110 -381.5t-68 -431.5q0 -158 66 -158q55 0 145.5 126.5t181.5 307.5t174 361.5t135 307.5l52 126q1 1 2 4.5t2 5.5 q14 50 38.5 85t52.5 50.5t50 21t45 5.5l-23 -61q-108 -325 -163 -650q-37 -214 -37 -374q0 -58 7 -115.5t24 -118t51 -98t82 -37.5q49 0 93 20.5t74.5 49t63 77.5t51.5 86t48 97.5t45 89.5q20 0 20 -19q-11 -23 -31 -67t-33 -73t-35.5 -71t-42 -70t-48 -60t-58 -51.5 t-67.5 -33.5t-80 -16q-69 0 -121 26t-83 66t-50.5 96.5t-26 109.5t-6.5 112q0 163 14 297q-65 -137 -117.5 -237.5t-109 -190t-107 -144.5t-104 -87t-106.5 -32q-209 0 -209 289q0 147 59 372t137.5 453t87.5 263q-30 -49 -92 -49q-54 0 -173 52t-159 52q-92 0 -92 -141 q0 -57 39.5 -118.5t85.5 -88.5q0 -23 -51 -23q-57 0 -134 79.5t-77 152.5z" />
<glyph unicode="V" horiz-adv-x="1693" d="M133 1268q0 50 22 88t58 58.5t75 30t79 9.5q49 0 156 -48t159 -48q36 0 63 11t54 44q0 3 1 11t2 10.5t4 8t8 7.5t14 4t22 2h31q34 0 34 -6q3 -38 3 -66q0 -117 -25.5 -267.5t-57.5 -272t-63 -262.5t-39 -232q56 161 135 320t185 309t223.5 264.5t257 184t278.5 69.5 q56 0 108 -9t101.5 -31t86 -55t59 -84.5t22.5 -115.5q0 -84 -57 -164q-50 -73 -180 -148t-193 -75q-41 2 -41 14q0 7 4 11q65 25 149.5 84.5t131.5 119.5q59 85 59 168q0 105 -81 174.5t-171 69.5q-104 0 -213.5 -60t-203.5 -158.5t-182.5 -222.5t-157.5 -255t-121 -253 t-79.5 -219t-27.5 -151q0 -15 4 -35q2 -6 2 -30q0 -37 -8 -74t-22 -37h-15q-26 0 -88 43l-6 6q-106 83 -106 291q0 97 27 237.5t61 264.5t69.5 279.5t47.5 269.5q-30 -49 -97 -49q-54 0 -173 52t-159 52q-92 0 -92 -141q0 -57 39.5 -118.5t85.5 -88.5q0 -23 -51 -23 q-57 0 -134 79.5t-77 152.5z" />
<glyph unicode="W" horiz-adv-x="2097" d="M-102 1063q0 95 74 186.5t193 148t243 56.5q117 0 207.5 -29t147 -78t93 -119.5t50.5 -145.5t14 -164q0 -130 -35 -289t-86 -260q161 262 339.5 530.5t291.5 407.5q43 53 89.5 86.5t82.5 33.5q1 0 9.5 -1t15.5 -2.5t15 -4t12.5 -6.5t4.5 -10q-94 -229 -172 -594 q-52 -249 -74 -420q38 65 137.5 162t209 193.5t215 199.5t174.5 210t69 196q0 177 -246 329q1 21 21 21q301 -171 301 -377q0 -83 -48 -177t-125 -182t-170.5 -180.5t-187.5 -185.5t-172 -183.5t-128.5 -188t-53.5 -185.5v-8q-10 -36 -55.5 -53t-71.5 -17q-31 0 -44.5 2 t-16 5t-2.5 10q3 76 16.5 168t31.5 187t23 126q19 138 82 434q34 162 68 252q-72 -102 -211.5 -326t-271 -418t-244.5 -321q-10 -16 -20.5 -29t-22 -22t-20 -15t-21 -10t-18 -6t-17.5 -4.5t-14 -3.5q-14 -4 -35 -4q-11 0 -22 2t-18 5t-7 5q0 18 47 117q94 198 165.5 430 t71.5 399q0 66 -13.5 130.5t-42.5 125.5t-71 108t-104 75t-135 28q-88 0 -178.5 -48.5t-150.5 -130.5t-60 -171q6 -60 47 -122.5t86 -88.5q0 -23 -51 -23q-57 0 -134 80t-77 154z" />
<glyph unicode="X" horiz-adv-x="1662" d="M-59 307q0 333 440 676q20 0 20 -20l-49 -45q-44 -40 -71 -64.5t-69.5 -68.5t-69 -78.5t-58.5 -84t-49.5 -95.5t-30 -103.5t-12.5 -116.5q0 -106 52 -176t153 -70q70 0 135.5 26t116.5 63t106 106.5t92 125.5t86 153t76 157.5t74 167.5q-19 73 -95 294t-88 278 q-92 0 -92 -142q0 -57 39.5 -118.5t85.5 -88.5q0 -22 -51 -22q-57 0 -134 79t-77 152q0 183 295 183q61 0 82 -21q100 -315 137 -430q33 70 55.5 113.5t53 97t56 85t60.5 65t70.5 51t80.5 28.5t97 11q93 0 151 -87t58 -180q-77 0 -90 105q-5 48 -43.5 73t-77.5 25 q-44 0 -95.5 -46.5t-94.5 -111t-89.5 -153.5t-74.5 -152t-55 -129q53 -234 123 -427.5t144 -325t153.5 -222t153.5 -131.5t144 -41q62 0 129.5 24t118.5 58t84.5 61.5t44.5 41.5q0 30 60 30q43 0 43 -10q0 -23 -44 -64t-110 -81t-156 -69.5t-170 -29.5q-140 0 -259.5 55.5 t-225 174.5t-191 317t-147.5 471q-301 -671 -745 -671q-126 0 -191 91t-65 236z" />
<glyph unicode="Y" horiz-adv-x="1390" d="M133 1257q0 38 48 84t130.5 79.5t165.5 33.5q14 2 43 2q320 0 320 -442q0 -114 -28.5 -279.5t-63.5 -275.5l-29 -90q45 93 135.5 312t168.5 385t140 241q119 147 174 147q1 0 9.5 -1t15.5 -2.5t15 -4t13 -6.5t5 -10l-21 -72q-5 -16 -35 -88q-43 -126 -81 -270.5t-58 -235 t-55 -262.5q-53 -279 -103 -488q132 13 228 94.5t196 253.5l33 58q23 0 23 -10q0 -7 -2 -9l-35 -63q-41 -76 -83.5 -133.5t-97 -108.5t-123.5 -83t-151 -44q-2 -4 -2 -10q-44 -175 -93 -320.5t-109 -272t-131.5 -198t-145.5 -71.5q-78 0 -129 46t-70.5 114t-19.5 157 q0 132 54 246t138.5 187t182 115.5t190.5 47.5l233 994q-49 -92 -138.5 -300t-171.5 -378.5t-146 -243.5q-7 -41 -65 -61.5t-113 -20.5q-31 0 -31 6q0 25 41 111q65 137 138 417t73 502q0 377 -240 377q-70 0 -130 -58.5t-60 -105.5q0 -7 -26 -15.5t-44 -8.5t-50 11.5 t-32 20.5zM455 -573q0 -33 6 -73.5t18 -80.5t33 -67t47 -27q46 0 105.5 116.5t113.5 286t105 377.5q-78 -8 -153.5 -49t-137 -108t-99.5 -165t-38 -210z" />
<glyph unicode="Z" horiz-adv-x="1423" d="M-129 162q0 30 10.5 62.5t34.5 67.5t72 57t114 22q127 0 312 -129q56 76 113 193.5t105 234t99.5 234t116 222.5t135.5 170q-46 9 -156 45t-218 63.5t-189 27.5h-17q-48 0 -76 -35t-28 -101q0 -94 125 -166q0 -22 -51 -22q-61 0 -136 59.5t-75 130.5q0 98 67.5 146.5 t165.5 48.5q100 0 200 -18t168 -39.5t152.5 -39.5t157.5 -18q136 82 299 82q70 0 113 -15t43 -46q0 -15 -9.5 -30.5t-35.5 -33.5t-65 -31.5t-106 -22.5t-151 -9h-18q-85 -82 -159.5 -199t-130 -238t-106.5 -239.5t-113.5 -233.5t-127.5 -190q48 -38 130 -107t137.5 -115 t135 -103t143.5 -91t141.5 -58t149.5 -24q254 0 512 203q0 4 3.5 11t3.5 10q0 4 24 22q28 19 74 19q57 0 57 -19q0 -4 -6 -14.5t-21 -27t-34 -28.5q-331 -215 -604 -215h-9q-64 1 -131 14.5t-124.5 33t-124 53t-115.5 62.5t-114.5 74.5t-105.5 75.5t-104.5 78.5t-95.5 71.5 q-124 -102 -295 -102q-139 0 -200.5 45.5t-61.5 120.5zM10 158q0 -41 38 -65.5t79 -24.5q114 3 213 92q-153 104 -240 104q-40 0 -65 -31.5t-25 -74.5z" />
<glyph unicode="[" horiz-adv-x="843" d="M102 -170q0 123 7 243t28 277t38.5 271t61 338t70 356.5t90.5 441.5q1 30 126.5 60t221.5 30q99 0 99 -20q0 -6 -13 -12t-41.5 -10.5t-66.5 -4.5q-47 0 -98.5 -12.5t-75.5 -30.5q-161 -742 -215.5 -1159.5t-54.5 -744.5q0 -56 53 -103t123.5 -70.5t134.5 -23.5 q52 0 77.5 -6t32.5 -27q0 -2 -6 -5t-24 -6t-43 -3q-45 0 -105.5 6t-135.5 22t-137 39.5t-104.5 64t-42.5 89.5z" />
<glyph unicode="\" horiz-adv-x="622" d="M0 1366q0 19 4.5 31t14 18t18 8.5t24.5 5.5t25 5q60 -106 211 -588q167 -543 307 -903q19 -38 19 -56q0 -10 -7 -10q-48 -24 -75 -24q-44 0 -60 49q-6 19 -119 318.5t-217.5 610.5t-138.5 486q-6 27 -6 49z" />
<glyph unicode="]" horiz-adv-x="970" d="M0 -293q0 17 78 17q14 0 28 -2t30.5 -6.5l27.5 -7.5t32.5 -10.5t30.5 -10.5q110 -37 174 -49q43 132 55 291.5t12.5 339.5t14.5 288q32 269 105.5 617.5t159.5 594.5q-83 2 -153.5 12.5t-104 22.5t-33.5 21q0 18 82 18h10q34 0 53.5 -0.5t57.5 -2.5t62 -6.5t54.5 -13.5 t48.5 -21.5t30.5 -33t12.5 -45.5q0 -18 -2 -26q-110 -441 -169.5 -834.5t-59.5 -826.5q0 -334 -123 -457q-12 -12 -47 -12q-83 0 -261 61.5t-206 81.5z" />
<glyph unicode="^" horiz-adv-x="907" d="M61 719q0 12 11 49l80 129q54 101 107.5 204.5t79.5 155.5t51 97t38.5 61t24.5 17q26 0 41 -20.5t23.5 -52.5t12.5 -38q72 -120 126 -211.5t80 -136.5t42.5 -74t20.5 -37.5t7 -13t9 -12.5q31 -46 31 -88q0 -70 -17 -70q-12 0 -89.5 117.5t-166 255t-116.5 168.5 q-34 -48 -121.5 -179.5t-158.5 -233.5t-103 -132q-13 0 -13 45z" />
<glyph unicode="_" horiz-adv-x="1443" d="M51 -213q3 7 13 15t12 8q281 -29 575 -29q89 0 348.5 1t352.5 1q8 0 15 -8t9 -15q0 -17 -4 -39.5t-12 -23.5q-47 -12 -131 -12q-18 0 -57.5 1t-61.5 1q-69 0 -339 8t-374 8q-237 0 -329 21q-8 1 -12.5 24t-4.5 39z" />
<glyph unicode="`" horiz-adv-x="409" d="M102 1341q0 17 54 17q28 0 75 -49t84.5 -104t55.5 -91q-38 0 -66 8t-49.5 27.5t-33.5 35.5t-32 48q-38 62 -88 108z" />
<glyph unicode="a" horiz-adv-x="724" d="M-6 68q0 147 100 327q106 189 259 337t247 179q31 68 51 88q36 27 76 27q48 0 51 -49q2 -2 2 -8q0 -25 -80 -160q-54 -83 -116 -278.5t-62 -337.5q0 -104 39 -152q12 0 27.5 10.5t37 37.5t38.5 50t48 73.5t49.5 81.5t57.5 97l17 29q20 0 20 -19q-24 -42 -57.5 -103.5 t-52 -94t-44 -75.5t-44 -65t-42 -44t-47.5 -30.5t-51 -8.5q-86 0 -86 221v88l-31 -45q-39 -53 -65.5 -86t-70.5 -80t-86 -71.5t-79 -24.5q-55 0 -80.5 24t-25.5 62zM104 47q3 -6 5 -6q97 0 343 492q40 81 42 81l69 191q-114 -97 -254 -289q-77 -104 -139 -232.5t-66 -236.5z " />
<glyph unicode="b" horiz-adv-x="653" d="M-2 23q0 7 3.5 18.5t10 31.5t11.5 38l20 73q26 91 94.5 337t104.5 369.5t93.5 289.5t108.5 268q13 28 35.5 51.5t38.5 28.5q24 6 39 6q31 0 31 -23q0 -14 -6.5 -30t-12.5 -21q-14 -1 -67 -130t-120.5 -337t-111.5 -391q90 185 172.5 261.5t167.5 76.5q56 0 86.5 -24.5 t30.5 -61.5q0 -175 -99.5 -364t-236.5 -318q31 -8 68 -8q82 0 157 56t146 200q20 0 20 -19l-10 -18q-141 -256 -313 -256q-43 0 -101 14q-105 -85 -176 -96q-1 0 -3.5 -1t-9.5 -2.5t-12 -3t-11.5 -3t-8.5 -1.5t-2 1l-22 -25q-12 -12 -52 -12q-36 0 -49.5 5.5t-13.5 19.5z M147 109q62 12 121 59q-40 8 -51 8q-51 0 -70 -67zM180 203q20 10 41 10q20 0 82 -16q116 103 200.5 288.5t106.5 388.5q-39 0 -101 -69.5t-118.5 -164t-101.5 -181.5t-60 -131z" />
<glyph unicode="c" horiz-adv-x="540" d="M61 199q0 93 27 198t69 195t88.5 164t90.5 121q61 65 98 65q56 0 86.5 -53.5t30.5 -120.5q0 -47 -19 -85t-45 -42q-47 0 -47 14q27 77 27 119q0 45 -6 74q-113 -122 -185.5 -304.5t-72.5 -348.5q0 -92 26 -132q10 -2 29 -2q203 0 393 359q21 0 21 -19 q-120 -231 -228.5 -326t-232.5 -95q-21 0 -43 8t-48 28.5t-42.5 67.5t-16.5 115z" />
<glyph unicode="d" horiz-adv-x="729" d="M0 68q0 147 100 327q97 174 237.5 315t242.5 189q87 301 200 551q33 71 64 80q7 1 11 4.5t11 3.5q20 0 33.5 -7t13.5 -18q0 -45 -8 -51q-20 -30 -109.5 -278t-177.5 -550t-88 -421v-66q0 -49 6.5 -74.5t26.5 -31.5q12 0 27.5 10.5t37 37.5t38.5 50t48 73.5t49.5 81.5 t57.5 97l17 29q20 0 20 -19q-24 -42 -57.5 -103.5t-52 -94t-44 -75.5t-44 -65t-42 -44t-47.5 -30.5t-51 -8.5q-88 0 -88 241v17q1 5 4.5 31.5t7.5 41.5l-6 -22l-30 -45q-38 -52 -65.5 -85.5t-71.5 -80.5t-86 -71.5t-79 -24.5q-55 0 -80.5 24t-25.5 62zM111 47q3 -6 4 -6 q97 0 343 492q40 81 42 81l49 174q-97 -82 -234 -272q-76 -104 -138 -232.5t-66 -236.5z" />
<glyph unicode="e" horiz-adv-x="561" d="M61 190q0 189 263 744q16 8 43 8q66 0 137 -41.5t71 -89.5q0 -38 -47.5 -68t-101.5 -43.5t-98 -15.5q-36 -93 -58 -156t-44.5 -157t-22.5 -162q0 -33 1 -50.5t4.5 -39.5t11.5 -32.5t22.5 -18t36.5 -7.5q203 0 393 359q20 0 20 -19q-120 -231 -228.5 -326t-232.5 -95 q-44 0 -78 20t-53.5 52.5t-29 67.5t-9.5 70zM346 754q3 1 16.5 5t21 6.5t21.5 7t22.5 9t17.5 9.5t14 11.5t6 12.5q0 16 -26.5 33.5t-53.5 17.5q-26 -62 -39 -112z" />
<glyph unicode="f" horiz-adv-x="286" d="M-299 -428q12 7 22.5 11t15.5 5h5q49 0 57 -32v-25q32 12 71 90.5t54 128.5q71 227 177 662t135 522q0 -1 -35.5 -2t-71 -9.5t-35.5 -25.5q0 -10 -15 -17.5t-34 -7.5q-17 0 -29 9t-12 26q0 23 12 41t36.5 29t45.5 18t56.5 11t51 5l46.5 3q84 239 154.5 349t146.5 110 q100 0 100 -80q0 -63 -48 -155.5t-87 -131.5q-41 4 -41 22q0 28 45 89q39 80 39 176q0 12 -8 28q-24 -23 -61 -115.5t-99 -287.5q31 -1 84 -1q120 -1 158.5 -9.5t38.5 -44.5q-5 -25 -17 -25q-3 0 -9.5 1t-10.5 1q-102 4 -201 4q-51 0 -63 -2q-62 -200 -164.5 -575.5 t-149.5 -530.5q-14 -45 -36.5 -96.5t-55 -111.5t-74.5 -99t-83 -39q-61 0 -86 25.5t-25 56.5z" />
<glyph unicode="g" horiz-adv-x="632" d="M-82 -784q0 135 79.5 283t276.5 360l33 32q11 39 38.5 135t46 156.5t32.5 98.5l-25 -37q-43 -63 -86.5 -116t-104.5 -99.5t-110 -46.5q-55 0 -80.5 24t-25.5 62q0 75 21 152t40.5 117.5t40.5 72.5q120 186 267.5 328.5t236.5 172.5q9 20 17.5 35.5t14.5 24t10 13t8 8.5 l5 3q36 27 76 27q22 0 37.5 -14.5t15.5 -36.5q0 -7 -12.5 -27.5t-39 -61t-46.5 -73.5q-18 -30 -39 -84t-47 -140.5t-46.5 -157t-56 -197t-55.5 -197.5q185 177 301 387q13 0 17 -4t4 -15q-123 -248 -350 -471q-29 -107 -72.5 -234t-100 -268.5t-119.5 -235t-112 -93.5 q-34 0 -55.5 20t-28 44t-6.5 53zM-20 -772v-16q0 -56 26 -56q36 0 133 251t133 380q-13 -18 -75 -99t-102 -139t-77.5 -149.5t-37.5 -171.5zM90 47q3 -6 4 -6q42 0 130.5 123t161 254.5t97.5 195.5l76 191q-114 -97 -254 -289q-208 -282 -215 -469z" />
<glyph unicode="h" horiz-adv-x="692" d="M0 23q0 33 12 63q25 57 29 68l213 759q21 64 45.5 140.5t33.5 104t23 70t19 54.5t17 40t20 44t26 51l17 33q13 28 35 51.5t38 28.5q7 1 11.5 4.5t11.5 3.5q20 0 33.5 -7t13.5 -18q0 -14 -6 -30t-12 -21q-16 -1 -76.5 -157t-133.5 -393.5t-112 -426.5q29 41 68.5 109.5 t71 123t67.5 107.5t73 83t72 30q21 0 35 -6.5t19 -16.5t6.5 -16t1.5 -12q0 -41 -56 -209l-10 -29q-100 -296 -108 -436q-2 -25 -2 -66q0 -98 32 -106q12 0 27.5 10.5t37 37.5t38.5 50t48 73.5t49.5 81.5t57.5 97l17 29q20 0 20 -19q-24 -42 -57.5 -103.5t-52 -94t-44 -75.5 t-44 -65t-42 -44t-47.5 -30.5t-51 -8.5q-88 0 -88 174q0 133 45.5 319t85.5 272q-79 -122 -183.5 -298t-154.5 -257q-74 -165 -81 -172q-35 -18 -70 -18q-19 0 -27.5 3.5t-10 7t-1.5 12.5z" />
<glyph unicode="i" horiz-adv-x="389" d="M84 174q0 107 26 234t63 230t71.5 179t56.5 107q11 11 35.5 18.5t44.5 7.5q15 0 21 -7.5t6 -27.5v-14q-106 -236 -167 -432.5t-61 -382.5q3 -39 27 -45q11 0 23.5 8t29.5 27t32 37.5t39.5 55t42 63t50 76t53.5 81.5l21 31q24 0 24 -12q0 -1 -1 -3.5t-1 -3.5 q-28 -45 -64 -104t-57 -93.5t-48.5 -76t-47 -64t-43.5 -44t-48.5 -30.5t-51.5 -9q-76 0 -76 194zM385 1174q0 36 22.5 65t69.5 29q31 0 47.5 -20.5t16.5 -45.5q-3 -27 -27.5 -49.5t-56.5 -22.5q-36 0 -54 14t-18 30z" />
<glyph unicode="j" horiz-adv-x="348" d="M-369 -784q0 135 80 283t277 360l18 18q37 140 100.5 403.5t106.5 432t61 207.5q3 13 24.5 28t39.5 15q23 0 31 -13t8 -49q-26 -135 -65.5 -282.5t-92 -326.5t-76.5 -269q196 185 312 397q13 0 16.5 -4t3.5 -15q-123 -248 -350 -471q-30 -108 -72.5 -234t-99.5 -268.5 t-119.5 -235.5t-112.5 -93q-34 0 -55.5 20t-28 44t-6.5 53zM-301 -772v-16q0 -56 27 -56q36 0 133 251t133 380q-15 -22 -58.5 -77t-78.5 -104t-73.5 -112.5t-60.5 -132t-22 -133.5zM336 1180q0 33 21 60.5t67 27.5q31 0 49.5 -21t18.5 -45q0 -26 -24 -49t-56 -23 q-39 0 -57.5 16t-18.5 34z" />
<glyph unicode="k" horiz-adv-x="778" d="M82 23q0 7 3 18.5t9.5 32t11.5 37.5l138 487q-21 -34 -60 -101.5t-57 -95.5q-9 0 -15 5.5t-6 13.5q79 157 177 317l2 8q26 98 67.5 219.5t97 257t118 226t114.5 90.5q34 0 55.5 -20t28 -44t6.5 -53q0 -129 -69 -244t-273 -335l-27 -76q-9 -26 -20 -68q49 85 117 148 t131 63q46 0 66 -20.5t20 -50.5q0 -92 -61 -183t-138 -123q39 0 63 -51.5t32 -125t11.5 -147.5t9.5 -125.5t19 -51.5q15 0 33 18.5t41.5 59.5t44 81.5t55.5 109.5t62 120q20 0 20 -19q-33 -63 -69.5 -141.5t-56.5 -120.5t-44.5 -83.5t-48 -58.5t-53.5 -17q-48 0 -73 45.5 t-32.5 114.5t-12.5 140.5t-21.5 133.5t-51.5 84l-32 5q-82 10 -82 15l-135 -508q-5 -12 -37 -12h-15q-36 0 -49.5 5.5t-13.5 19.5zM393 592q0 -4 17 -4q6 0 20 1t19 1l7 -2h-1q39 7 100 78.5t61 126.5q0 16 -4 24q-43 -18 -131 -101.5t-88 -123.5zM430 911q90 129 166 270 t76 222v12q-75 -91 -143.5 -244t-98.5 -260z" />
<glyph unicode="l" horiz-adv-x="581" d="M109 420q93 181 176 317l2 8q26 98 67.5 219.5t97 257t118 226t114.5 90.5q34 0 55.5 -20t28 -44t6.5 -53q0 -129 -69 -244t-275 -337q-113 -418 -113 -633v-8q0 -120 35 -136q12 -6 27 -6q62 0 145 102t168 261q21 0 21 -19q-103 -198 -201 -309.5t-174 -111.5 q-16 0 -32 4t-36 18t-35 36.5t-25.5 64t-10.5 96.5q0 185 49 403q-20 -33 -60 -102t-59 -99q-9 0 -14.5 5.5t-5.5 13.5zM432 911q90 129 166 270t76 222v12q-75 -91 -143.5 -244t-98.5 -260z" />
<glyph unicode="m" horiz-adv-x="1325" d="M109 420q190 368 286 481q7 12 27 20.5t39 8.5q48 0 51 -49v-9q0 -52 -29.5 -155t-76 -236t-58.5 -174q51 101 109 188t149 205.5t125 165.5q40 72 105 72h28q21 0 35 -6.5t19 -16.5t6.5 -16t1.5 -12q0 -41 -56 -209q-67 -186 -133 -412l369 600q45 72 106 72h29 q21 0 35 -6.5t19 -16.5t6.5 -16t1.5 -12q0 -41 -56 -209q-2 -4 -5 -14.5t-5 -14.5q-89 -258 -109 -428q0 -103 6 -138.5t27 -41.5q12 0 27.5 10.5t36.5 37.5t38.5 50t48.5 73.5t49.5 81.5t57.5 97l17 29q20 0 20 -19q-24 -42 -57.5 -103.5t-52 -94t-44 -75.5t-44 -65 t-42 -44t-47.5 -30.5t-51 -8.5q-88 0 -88 241q0 139 56 312.5t94 244.5q-67 -123 -199 -317.5t-199 -321.5q-41 -78 -70.5 -108.5t-78.5 -30.5q-19 0 -31.5 6t-17 18.5t-5.5 21t-1 22.5q0 78 43 196q23 67 30 92q37 123 70.5 217t46 131t16.5 74q-19 -29 -88.5 -119 t-166 -227.5t-201.5 -308.5q-11 -17 -22.5 -37.5t-20.5 -35t-25 -32.5q-13 -18 -57 -18q-56 0 -56 31q0 79 105 350q118 295 137 397q-57 -52 -104 -119.5t-93 -149.5t-63 -108q-9 0 -14.5 5.5t-5.5 13.5z" />
<glyph unicode="n" horiz-adv-x="913" d="M109 420q52 100 80.5 154.5t65 119t58.5 96t48.5 62t48.5 41t45 10.5h8q41 -4 51 -39q4 -4 4 -16q0 -36 -33.5 -142t-79.5 -235t-57 -164l348 559q45 72 107 72h28q21 0 35 -6.5t19 -16.5t6.5 -16t1.5 -12q0 -44 -55 -209q-2 -5 -6 -15.5t-5 -13.5q0 -1 -14.5 -38 t-29 -78t-30.5 -95t-26 -111.5t-10 -105.5q0 -103 6 -138.5t27 -41.5q12 0 27.5 10.5t36.5 37.5t38.5 50t48.5 73.5t49.5 81.5t57.5 97l16 29q20 0 20 -19q-24 -43 -57.5 -103.5t-52 -94t-44 -75.5t-44 -64.5t-41.5 -44.5t-47 -30.5t-51 -8.5q-89 0 -89 241 q0 139 56.5 311.5t95.5 245.5q-67 -96 -244.5 -366t-265.5 -394q-13 -18 -57 -18q-56 0 -56 31q0 79 105 350q118 295 137 397q-57 -52 -104 -119.5t-93 -149.5t-63 -108q-9 0 -14.5 5.5t-5.5 13.5z" />
<glyph unicode="o" d="M4 238q0 172 90 353.5t197 276.5q37 32 84.5 52t87.5 20q29 0 35 -14q44 26 90 26q35 0 60.5 -12.5t41 -32.5t25 -50t13 -60.5t3.5 -69.5q0 -230 -110 -446q119 0 208 139q21 0 21 -19q-50 -76 -115.5 -117t-134.5 -44q-36 -59 -71 -104t-80 -86t-100 -63t-116 -22 q-99 0 -164 67.5t-65 205.5zM147 246q0 -57 8 -102t27 -75t47 -30q58 0 111.5 54t126.5 173q-131 76 -131 332q0 65 31 149.5t82 139.5l-64 -43q-92 -88 -165 -255t-73 -343zM446 598q0 -205 56 -270q112 250 112 440v7q0 30 -0.5 42.5t-3 26.5t-7.5 18t-15 4 q-34 0 -62.5 -31.5t-45 -76.5t-25.5 -88t-9 -72z" />
<glyph unicode="p" horiz-adv-x="817" d="M-14 -485q0 -4 33.5 66t85 195.5t106.5 279t105 349t73 373.5q-57 -52 -104 -119.5t-93 -149.5t-63 -108q-9 0 -14.5 5.5t-5.5 13.5q154 300 225 401q11 14 33 49.5t41.5 60.5t42.5 44q26 0 50.5 -32t24.5 -56q-4 -22 -13.5 -64t-10.5 -45q-5 -25 -31 -121 q82 154 157.5 218.5t153.5 64.5q56 0 86.5 -24.5t30.5 -61.5q0 -175 -99.5 -364t-236.5 -318q27 -8 64 -8q82 0 156 56t145 200q20 0 20 -19l-10 -18q-141 -256 -311 -256q-46 0 -97 14q-105 -85 -176 -96q-1 0 -3.5 -1t-9.5 -2.5t-12.5 -3t-11.5 -3t-9 -1.5l-3 -1 q-76 -231 -170 -422l-16 -33q-33 -71 -64 -80q-7 -1 -11 -4.5t-11 -3.5q-20 0 -33.5 7t-13.5 18zM338 113q49 13 106 57q-21 6 -38 6q-49 0 -68 -63zM356 199q22 14 54 14q25 0 69 -14q114 106 198 290.5t105 384.5q-39 0 -101 -69.5t-118.5 -164t-101.5 -181.5t-60 -131 l-26 -68z" />
<glyph unicode="q" horiz-adv-x="692" d="M0 68q0 147 100 327q106 189 259 337t247 179q31 68 51 88q36 27 76 27q48 0 51 -49q2 -2 2 -8q0 -18 -23 -59.5t-26 -49.5q-66 -184 -217 -637l-57 -174q41 10 79 34t65.5 50.5t59 68.5t49.5 71.5t46 77.5t41 69q2 0 6 -1t9 -6t5 -12q-7 -11 -33.5 -61.5t-54 -95.5 t-67.5 -97t-91 -87.5t-106 -45.5q25 -9 25 -116q0 -132 -31 -314.5t-91.5 -333.5t-127.5 -151q-115 0 -115 156q0 74 68.5 290.5t147 444.5t91.5 299l-30 -45q-38 -52 -65.5 -85.5t-71.5 -80.5t-86 -71.5t-79 -24.5q-55 0 -80.5 24t-25.5 62zM111 47q3 -6 4 -6q97 0 343 492 q40 81 42 81l69 191q-114 -97 -254 -289q-76 -104 -138 -232.5t-66 -236.5zM211 -786q0 -16 8 -35t17 -19q34 0 85 147.5t88 329t37 277.5q0 7 -2 16t-4.5 17.5t-3.5 11.5q-20 -59 -63.5 -188t-64.5 -191.5t-48 -149t-38 -137t-11 -79.5z" />
<glyph unicode="r" d="M109 420q71 119 215 409q-39 16 -62 27.5t-44 30.5t-21 39q0 50 31 65t91 15q23 0 57 -40.5t34 -68.5q0 -10 -9 -16q121 -27 162 -27q29 0 41 6q4 2 12 2q14 0 23.5 -32.5t9.5 -73.5q0 -69 -20 -80l-15 -23q-31 -44 -118.5 -255.5t-87.5 -295.5q0 -41 24 -41 q100 0 202 91.5t195 267.5q21 0 21 -19q-120 -230 -230.5 -325.5t-234.5 -95.5q-94 0 -94 120q0 67 28.5 167t68 192.5t74.5 163.5t56 104q2 2 2 10q0 10 -11.5 20.5t-33 20t-37.5 15t-41 13t-26 7.5q-23 -40 -82.5 -143t-99 -170.5t-60.5 -98.5q-9 0 -14.5 5.5t-5.5 13.5z " />
<glyph unicode="s" horiz-adv-x="655" d="M109 420q49 83 137 248q0 38 81 144t128 144q23 14 41 22.5t26.5 11t18 3.5t12.5 3q36 0 72 -21q14 -8 14 -29q0 -20 -14 -41q-4 -7 -61.5 -33.5t-119 -64t-75.5 -70.5q10 -16 50.5 -60.5t76.5 -87.5t66 -114.5t30 -146.5q0 -91 -47 -185q88 88 171.5 208.5t112.5 191.5 q8 8 17 8q14 0 14 -19q0 -2 -4 -10q-65 -123 -173.5 -268.5t-219.5 -220.5q-63 -53 -148 -53t-140.5 52.5t-55.5 135.5q0 48 18.5 85.5t44.5 41.5q47 0 47 -14q-26 -74 -26 -119q0 -66 41 -104t80 -38q59 5 102 90.5t43 215.5q0 163 -197 315q-98 -175 -143 -240 q-9 0 -14.5 5.5t-5.5 13.5z" />
<glyph unicode="t" horiz-adv-x="636" d="M109 420q84 142 282 514q0 -1 -35.5 -2t-70.5 -9.5t-35 -25.5q0 -10 -15 -17.5t-34 -7.5q-17 0 -29 9t-12 26q0 23 12 41t36.5 29t45.5 18t56.5 11t51 5l46.5 3q4 0 12.5 -1t13.5 -1q0 4 31 78q42 120 50 138t26 72q8 27 25 42.5t32 15.5q26 0 36.5 -6t10.5 -21 q-3 -46 -16 -93t-38.5 -117.5t-37.5 -108.5q136 0 206 -9t70 -40q-5 -25 -16 -25q-3 0 -9.5 1t-10.5 1q-102 4 -201 4q-3 0 -24.5 -1t-37.5 -1q-78 -231 -118.5 -404t-40.5 -348q0 -113 32 -127q12 -6 27 -6q62 0 145 102t168 261q21 0 21 -19q-103 -198 -201 -309.5 t-174 -111.5q-62 0 -105.5 47t-43.5 161q0 161 31.5 298t107.5 356q-234 -417 -250 -441q-9 0 -14.5 5.5t-5.5 13.5z" />
<glyph unicode="u" horiz-adv-x="753" d="M25 92v10q68 267 128 465t88.5 271t34.5 73q0 15 33 15q14 0 25.5 -5t11.5 -10q0 -4 -3.5 -17.5t-10 -35.5t-10.5 -37l-166 -626q-6 -17 -12.5 -55t-6.5 -48q24 3 207 290.5t244 416.5l37 80q0 1 2 7t2 7q5 19 14.5 26t42.5 7q25 0 38 -5.5t15 -10t2 -13.5q0 -11 -8 -37 t-21 -61.5t-18 -50.5q0 -1 -4 -13q-133 -351 -133 -514q0 -103 6 -138.5t27 -41.5q12 0 27.5 10.5t37 37.5t38.5 50t48 73.5t49.5 81.5t57.5 97l16 29q21 0 21 -19q-24 -42 -57.5 -103.5t-52 -94t-44 -75.5t-44 -65t-42 -44t-47.5 -30.5t-51 -8.5q-88 0 -88 241 q0 116 41 260q-67 -118 -124.5 -207t-91.5 -133t-59 -70.5t-35 -32.5l-10 -5q-31 -31 -102 -31q-53 0 -53 90z" />
<glyph unicode="v" horiz-adv-x="747" d="M92 956q0 3 1 15t1 20q0 4 14 9.5t23 5.5q78 0 129 -48.5t70.5 -120t19.5 -163.5q0 -283 -55 -516l-6 -27q19 22 59 66.5t69 78.5t54 64q-39 51 -59.5 119t-20.5 135q0 106 38.5 201.5t104.5 154t142 58.5q78 0 125 -33q53 -30 53 -139q0 -96 -80 -235.5t-207 -293.5 q41 -26 80 -26q71 0 118 33.5t93 105.5q21 0 21 -19q-28 -50 -64.5 -84t-72 -48t-58 -18.5t-41.5 -4.5q-56 0 -104 28q-77 -91 -197 -211q-28 -36 -72 -61t-59 -25q-63 0 -74 43q0 8 0.5 14t2.5 12.5t2.5 10t5 10.5t6 9.5t8 12t8.5 13.5q16 30 45 213.5t29 337.5 q0 120 -29 201.5t-94 87.5q-5 0 -17 4.5t-12 9.5zM446 594q0 -124 58 -213q235 297 235 475q0 26 -16.5 46t-42.5 20q-100 0 -167 -95t-67 -233z" />
<glyph unicode="w" horiz-adv-x="1241" d="M92 956q0 3 1 15t1 20q0 4 14 9.5t23 5.5q78 0 129 -48.5t70.5 -120t19.5 -163.5q0 -283 -55 -516l-6 -27q26 24 122.5 219t190.5 376t121 185q11 13 29 13t38 -16.5t33 -57.5q19 -65 19 -152q0 -64 -9.5 -151.5t-18 -141t-27 -158.5t-21.5 -120l-4 -25q129 143 203 238 q-80 110 -80 254q0 106 38 201.5t104 154t142 58.5q78 0 125 -33q54 -30 54 -139q0 -96 -80 -235.5t-207 -293.5q41 -26 80 -26q71 0 118 33.5t93 105.5q20 0 20 -19q-28 -50 -64.5 -84t-71.5 -48t-57.5 -18.5t-41.5 -4.5q-57 0 -105 28q-82 -98 -196 -211q-28 -36 -72 -61 t-59 -25q-15 -6 -25 -6q-33 0 -33 66q0 57 42.5 327t45.5 394q-82 -170 -192.5 -371t-200.5 -324q-36 -46 -64 -66t-69 -20q-45 0 -45 70q0 25 6 55q10 42 23.5 108t32 203t18.5 240q0 120 -29 201.5t-94 87.5q-5 0 -17 4.5t-12 9.5zM940 594q0 -125 57 -213 q113 147 174.5 264t61.5 211q0 26 -17 46t-42 20q-100 0 -167 -95t-67 -233z" />
<glyph unicode="x" horiz-adv-x="995" d="M109 420q190 368 286 481q3 7 16.5 14t24.5 7q20 0 43 -11.5t29 -25.5v-21q0 -128 55 -315q219 282 262 369q34 45 56 45q8 0 12 -2q20 -5 38 -19.5t19 -30.5q-39 -68 -135.5 -203t-214.5 -280q57 -163 121.5 -275t109.5 -112q18 0 43 23t63 79.5t67.5 104.5t85.5 143 l16 29q20 0 20 -19q-24 -42 -57.5 -103.5t-52 -94t-44 -75.5t-44 -65t-42 -44t-47.5 -30.5t-51 -8.5q-140 0 -272 346q-178 -210 -332 -346q-18 2 -34.5 15.5t-16.5 31.5t19 34q140 156 323 379q-61 195 -86 338q-57 -52 -104 -119.5t-93 -149.5t-63 -108q-9 0 -14.5 5.5 t-5.5 13.5z" />
<glyph unicode="y" horiz-adv-x="686" d="M-39 -784q0 132 83.5 279.5t283.5 363.5l32 32q23 80 73.5 262.5t87.5 312t52 169.5q-288 -481 -348 -615q-13 -26 -20 -47h-37l-66 33q83 249 122.5 424t60.5 408v14q0 40 -19 57t-43 17q-4 0 -15.5 -1t-17.5 -1q-29 0 -34 24q0 47 67 58q47 0 79 -15t47 -42.5t20.5 -55 t5.5 -62.5q0 -206 -109 -565q105 206 213 385.5t172 259.5q9 20 17.5 35.5t15 24t10.5 13t8 8.5l5 3q36 27 75 27q22 0 38 -15t16 -36q0 -7 -13 -27.5t-39.5 -60.5t-46.5 -74q-18 -30 -39 -84.5t-47 -140t-46.5 -157.5t-55 -196t-55.5 -198q185 177 301 387q13 0 16.5 -4 t3.5 -15q-123 -248 -350 -471q-29 -107 -72.5 -234t-100 -268.5t-119.5 -235t-112 -93.5q-50 0 -75 36.5t-25 80.5zM33 -772v-16q0 -56 26 -56q36 0 133.5 251.5t133.5 379.5q-15 -22 -58.5 -77t-78.5 -104t-73.5 -112.5t-60.5 -132t-22 -133.5z" />
<glyph unicode="z" horiz-adv-x="751" d="M109 420q71 119 215 409q-39 16 -62 27.5t-44 30.5t-21 39q0 50 31 65t91 15q23 0 57 -40.5t34 -68.5q0 -10 -9 -16q121 -27 162 -27q65 0 132.5 27t109.5 77q92 -32 92 -75q0 -18 -23 -62q-44 -40 -248 -342t-227 -315q-2 -3 37 -6q43 -15 89 -54t84.5 -83t78 -86 t84.5 -69.5t90 -27.5q85 0 127 37q5 4 18.5 24.5t26.5 20.5q33 0 43 -5.5t10 -27.5q-73 -88 -237 -88q-50 0 -93.5 12.5t-82.5 39t-63.5 48t-61.5 58.5t-59.5 57t-54.5 38t-60 18q-22 -5 -36 -13.5t-27.5 -20.5t-24.5 -18q-6 -3 -25 -12l-28.5 -13.5t-25 -8.5t-28.5 -4 q-31 0 -49 21t-18 62q3 21 31 38.5t63 17.5q36 0 128 129.5t205 309.5t154 233q-79 -11 -141 -11q-84 0 -182 33q-23 -40 -82.5 -143t-99 -170.5t-60.5 -98.5q-9 0 -14.5 5.5t-5.5 13.5z" />
<glyph unicode="{" horiz-adv-x="790" d="M102 -86q0 76 23 157t56 152t66 141t56 148.5t23 151.5q0 37 -13 65t-29 42t-32.5 33t-20.5 38q26 18 48 25t63 7q31 26 51.5 56.5t45.5 95.5t42.5 182.5t28.5 288.5q0 287 199 287q43 0 82 -10q0 -6 -6 -12.5t-19 -6.5q-19 0 -39 10q-1 0 -3 1t-3 1q-33 0 -68 -129 q-11 -73 -22.5 -294t-42.5 -336q-25 -93 -150 -197q56 -59 56 -104q0 -78 -24.5 -160.5t-59 -156t-70 -148t-60.5 -162.5t-26 -174q0 -78 20.5 -138t53.5 -63q5 0 73.5 20.5t100.5 20.5q39 0 39 -27q-3 -22 -77 -36.5t-142 -14.5q-110 9 -165 76.5t-55 169.5z" />
<glyph unicode="|" horiz-adv-x="516" d="M82 -254q0 8 3.5 28t6.5 21q48 308 88 735l51 560q4 43 10 115t9 100q10 101 17.5 164t19.5 111.5t21.5 71.5t31.5 39.5t39 21.5t55 13q-45 -285 -186 -1708q-1 -9 -3 -43t-4 -61.5t-7.5 -64t-12.5 -62t-19 -45.5t-28 -23q-42 0 -82 9q-10 2 -10 18z" />
<glyph unicode="}" horiz-adv-x="741" d="M-41 -358q10 26 49 26q32 0 92.5 -21.5t65.5 -21.5q55 26 98 88t67 140t36 155.5t12 147.5q0 249 -96 430q-5 10 -27.5 49t-31 56t-18 45.5t-9.5 49.5q0 79 112 115q-23 1 -40 18t-17 35q0 63 41 153.5t90 169t90 174t41 167.5q0 20 -4.5 34t-24 27.5t-55.5 18.5 q0 14 68 14q67 -10 104 -33t37 -69q0 -83 -49.5 -198.5t-104.5 -197.5q-90 -166 -90 -243q0 -19 8.5 -29t18.5 -12t18.5 -9.5t8.5 -23.5q0 -8 -17 -17t-39 -10q-65 -21 -65 -75q0 -45 57 -138q67 -109 104 -250t37 -282q0 -95 -21 -183.5t-63 -166.5t-115 -128.5t-169 -58.5 q-68 2 -133.5 15.5t-65.5 34.5v4z" />
<glyph unicode="~" horiz-adv-x="1026" d="M61 346q0 7 11 29q52 83 108.5 111t130.5 28q62 0 211 -39t240 -39q99 0 166 78q10 14 20 14q17 0 17 -16q0 -14 -11 -31q-51 -80 -109 -106.5t-136 -26.5q-59 0 -210 37t-225 37q-109 0 -176 -78q-7 -14 -18 -14q-19 0 -19 16z" />
<glyph unicode="&#xa1;" horiz-adv-x="604" d="M0 -608q9 34 61 205t92.5 312.5t80 317t45.5 279.5q0 37 49 37h26q23 -16 23 -49v-23q-53 -314 -101 -538.5t-120 -485.5q-16 -60 -30 -78.5t-54 -21.5q-31 0 -47 10.5t-25 34.5zM295 877q3 26 27.5 48.5t56.5 22.5q35 0 53.5 -18.5t18.5 -36.5q0 -34 -23 -58t-70 -24 q-31 0 -47 20.5t-16 45.5z" />
<glyph unicode="&#xa2;" horiz-adv-x="815" d="M102 199q0 313 275 743q20 28 51 49q6 46 7 131.5t11 149.5q3 23 22.5 42t39.5 19q37 0 37 -65q0 -89 -27 -244l-4 -25q38 -18 58 -65t20 -100q0 -47 -19 -85t-45 -42q-47 0 -47 14q27 76 27 119q0 44 -6 73q-42 -27 -122 -196.5t-106 -261.5q0 -2 -1 -6.5t-1 -6.5 q-28 -147 -28 -247q0 -92 26 -132q10 -2 29 -2q203 0 393 359q21 0 21 -19q-90 -171 -169.5 -265t-162.5 -130q0 -5 -1 -14.5t-1 -14.5q-6 -132 -27 -235q-13 -57 -51 -57q-19 5 -33 26t-14 47q5 60 21 129.5t20 96.5q-28 -4 -43 -4q-21 0 -43 8t-48 28.5t-42.5 67.5 t-16.5 115z" />
<glyph unicode="&#xa3;" horiz-adv-x="1695" d="M-61 236q0 88 82 152.5t229 64.5q187 0 426 -187q45 87 78 205.5t71 310.5h-295q-1 0 -4 -1t-4 -1q-18 0 -18 19q0 22 31 53h303l26 139q-37 -2 -157 -2q-89 0 -169.5 10.5t-159 36.5t-136 66.5t-92.5 104.5t-35 145q0 125 107 210t298 85q79 0 193 -37t114 -60 q0 -7 -22 -12.5t-49 -5.5q-36 0 -82 27q-26 22 -73.5 42.5t-84.5 20.5q-65 0 -118.5 -24t-86 -63.5t-50 -86.5t-17.5 -96q0 -149 127 -231.5t336 -82.5q123 0 167 17q31 109 73 192t104 150t150.5 102t201.5 35q62 0 126 -16.5t113.5 -53.5t49.5 -86q0 -32 -25.5 -66 t-74 -65.5t-94.5 -57.5t-113.5 -54t-102 -41.5t-86.5 -32.5q-19 -7 -74.5 -22t-87.5 -25q-27 -82 -45 -162h215q15 0 26 -7.5t11 -17.5q0 -26 -51 -45h-217q-5 -21 -18.5 -86.5t-19.5 -91.5t-20 -82.5t-26.5 -89.5t-30.5 -79t-40 -84.5t-48 -75.5q99 -108 166.5 -178 t138.5 -136.5t123.5 -103t103.5 -58.5t97 -22q89 0 184 51q13 6 28 20.5t32.5 21.5t48.5 7q23 0 35.5 -4.5t14 -8t1.5 -9.5q-79 -54 -177.5 -83.5t-185.5 -29.5q-57 0 -110.5 12.5t-109.5 42.5t-105 63t-113 91t-116 108.5t-132 131.5q-146 -132 -370 -132q-172 0 -278.5 78 t-106.5 181zM94 238q0 -75 64 -132t159 -57q183 0 297 135q-58 79 -166.5 149t-191.5 70q-68 0 -115 -47.5t-47 -117.5zM1057 1083q41 10 117 37q34 10 83.5 31t113.5 54.5t107.5 77.5t43.5 87q0 45 -36.5 74t-84.5 29q-49 0 -93 -20.5t-78 -54.5t-66.5 -86t-57 -106 t-49.5 -123z" />
<glyph unicode="&#xa4;" horiz-adv-x="978" d="M102 123q7 30 49.5 75.5t110 103.5t76.5 67q-70 48 -70 155q0 178 119 334q-44 35 -107 104t-71 89q0 92 22 92q25 -6 101 -76t114 -125q59 43 119 43q38 0 76 -14q25 18 99 89.5t100 78.5q4 2 10 2q11 0 19 -7t8 -16q0 -26 -55.5 -89.5t-106.5 -102.5q47 -49 70.5 -119 t23.5 -113q0 -104 -44 -191.5t-118 -129.5q58 -44 132.5 -123t74.5 -123q0 -23 -33 -23q-2 0 -6 1t-6 1q-42 14 -115.5 99.5t-101.5 142.5q-62 -16 -121 -16q-48 0 -82 10q-19 -22 -82 -105.5t-110.5 -135.5t-71.5 -52q-11 0 -17 25t-6 49zM387 545q0 -51 28.5 -95t71.5 -44 q59 0 107.5 52t71 116t22.5 116q0 99 -37 154t-90 55q-39 0 -81.5 -61.5t-57.5 -108.5q-35 -103 -35 -184z" />
<glyph unicode="&#xa5;" horiz-adv-x="1509" d="M61 1274q0 47 44.5 87t108.5 63t125 36t103 13q61 0 82 -21q197 -456 234 -571q33 87 59 149.5t58 128.5t61 110.5t65.5 86t74 65.5t83.5 38t98 14q105 0 148 -41.5t43 -137.5q0 -76 -58 -153.5t-112 -77.5q-51 0 -51 22q46 27 85.5 88.5t39.5 118.5q0 142 -95 142 q-52 0 -104 -49t-97 -135.5t-82 -184t-71 -213.5h238q15 0 26 -7.5t11 -17.5q0 -25 -52 -45h-243l-29 -118h285q14 0 23 -6.5t9 -14.5q0 -26 -47 -47h-282q-6 -34 -15 -102t-18.5 -122t-22.5 -104q-19 -58 -31.5 -92t-32.5 -76.5t-40.5 -65t-50 -38.5t-64.5 -16 q-69 0 -90.5 7t-21.5 33q0 20 15.5 36.5t38.5 30t26 15.5q41 46 67 95t36.5 84.5t27.5 107.5q16 69 28 207h-235q-21 0 -21 16q0 11 9 26.5t22 25.5h233q1 7 11 53l-33 65h-213q-1 0 -4 -1t-4 -1q-19 0 -19 19q0 22 31 53h178q-212 449 -237 578q-70 0 -134.5 -59 t-64.5 -105q0 -7 -26 -16t-44 -9t-50 12t-32 21z" />
<glyph unicode="&#xa6;" horiz-adv-x="534" d="M82 -242q3 53 8 58q58 331 96 729q4 28 7.5 41.5t6 15.5t7.5 2q16 0 50.5 8.5t43.5 8.5q14 -7 14 -17q-27 -237 -47.5 -411.5t-28 -238.5t-12.5 -106t-8 -71q-6 -56 -49 -56q-24 0 -53.5 10t-34.5 27zM201 776q2 42 8.5 91.5t18.5 121t18 113.5q5 37 11 98.5t11 116 t12 117.5t17 113.5t24 92.5t35 65.5t47 23.5q23 0 50 -21q-3 3 -9 -42q-3 -17 -60 -508q-45 -386 -60 -386q-22 0 -62 -4t-51 -4q-10 0 -10 12z" />
<glyph unicode="&#xa7;" horiz-adv-x="733" d="M102 78q0 20 6.5 25.5t30.5 5.5q20 0 29.5 -4.5t21.5 -16.5q47 -47 62 -47q233 0 233 278q0 66 -37.5 128t-113.5 110q-65 10 -104.5 61t-39.5 117q0 93 55.5 167.5t145.5 78.5q-96 44 -150.5 106.5t-54.5 120.5q0 28 14.5 57t33 51.5t61.5 58t71.5 56.5t92.5 66h18 q19 0 28.5 -4t11 -7.5t1.5 -10.5q0 -26 -23.5 -54t-57 -53t-66.5 -49.5t-56.5 -53t-23.5 -55.5q0 -33 35 -71.5t85 -75.5t100 -75t85 -82.5t35 -86.5q0 -102 -55.5 -170t-155.5 -96q180 -108 180 -256q0 -135 -83 -227.5t-243 -92.5q-37 0 -74.5 9.5t-67 33.5t-30.5 58z M307 770q5 -67 22.5 -102t63.5 -35q30 0 50.5 18.5t29.5 48.5t12.5 56.5t3.5 54.5q-3 48 -24 85t-64 75q-94 -66 -94 -201z" />
<glyph unicode="&#xa8;" horiz-adv-x="540" d="M72 1202q0 44 28 63t64 19q19 0 28 -1t18 -8t9 -22q0 -22 -14 -45q0 -18 -26 -30.5t-46 -12.5q-5 0 -15.5 -1t-15.5 -1q-30 0 -30 39zM328 1253q0 23 30 23q111 0 111 -68q0 -20 -30.5 -31.5t-47.5 -11.5q-38 0 -50.5 22.5t-12.5 65.5z" />
<glyph unicode="&#xa9;" horiz-adv-x="1351" d="M102 557q0 126 39.5 241.5t111 204t179.5 141t236 52.5q144 0 268 -88q-2 2 -2 6t2 6q0 19 18 19q123 0 209 -140.5t86 -359.5q0 -124 -40 -240.5t-112.5 -210t-185.5 -150t-249 -56.5q-134 0 -242.5 48.5t-176.5 129.5t-104.5 183t-36.5 214zM291 547q0 -68 16.5 -139 t49.5 -137t78 -118.5t107.5 -84t131.5 -31.5q96 0 182 54.5t143.5 141.5t91 195.5t33.5 216.5q0 184 -92 307q-12 -6 -35 -6q-35 0 -52 11t-38 38q-48 71 -99.5 111.5t-129.5 40.5q-78 -5 -143.5 -44t-109.5 -99.5t-75 -138t-45 -158t-14 -160.5zM469 553q0 87 45.5 148.5 t112 88.5t143.5 27q28 0 51.5 -6.5t35 -14.5t11.5 -14q0 -10 -16 -10q-35 0 -45 10q-86 -10 -127 -72t-41 -155q0 -44 14 -73t39 -29q16 0 84 41q21 16 41 16q9 0 17 -3t12 -6l4 -3q-1 -13 -25.5 -31.5t-74 -34.5t-107.5 -16q-90 0 -132 41t-42 96z" />
<glyph unicode="&#xaa;" horiz-adv-x="737" d="M123 692q0 22 13 32t53.5 14.5t127.5 4.5h146q44 0 61 -9t17 -27q-10 -17 -72 -22t-186 -5h-47q-113 0 -113 12zM131 915q0 93 68 215q67 123 166 219t161 117q7 35 52 35q13 0 24.5 -9t11.5 -22q0 -4 -2 -8q-3 -9 -27.5 -67.5t-47.5 -116.5t-42.5 -138.5t-19.5 -142.5 q0 -64 27 -98q51 -12 51 -31q0 -14 -35 -14q-21 0 -45 6q-57 13 -57 144v57l-19 -29q-122 -172 -196 -172q-35 0 -52.5 15t-17.5 40zM203 903q0 -4 4 -4q64 0 232 340l18 35l47 123q-88 -77 -168 -189q-128 -181 -133 -305z" />
<glyph unicode="&#xab;" horiz-adv-x="1396" d="M102 592q532 316 598 366q46 31 88 31q70 0 70 -16q0 -12 -117.5 -89.5t-255 -166.5t-168.5 -117q48 -34 179.5 -121.5t233.5 -158.5t132 -103q0 -12 -45 -12q-16 0 -49 10l-129 80q-276 170 -339 205t-97 35q-36 0 -56.5 6.5t-26 13t-10.5 19.5t-8 18zM575 592 q537 319 599 366q46 31 88 31q69 0 69 -16q0 -12 -117.5 -89.5t-254.5 -166.5t-168 -117q48 -34 179.5 -121.5t233 -158.5t131.5 -103q0 -12 -45 -12q-16 0 -49 10l-129 80q-276 170 -339 205t-97 35q-36 0 -56.5 6.5t-26 13t-10.5 19.5t-8 18z" />
<glyph unicode="&#xac;" horiz-adv-x="1095" d="M102 567q0 21 37.5 27t106.5 6q82 0 224.5 -6t205.5 -6q93 0 164 8q1 0 5.5 1t6.5 1q50 10 86 10q55 0 55 -28q0 -11 -4 -17q-11 -24 -16 -36.5t-10 -43t-5 -69.5v-11q0 -59 -65 -59q-31 0 -51 39t-21 113q-20 -4 -55 -4q-99 0 -555 34q-44 0 -70.5 8.5t-32.5 16.5t-6 16 z" />
<glyph unicode="&#xad;" horiz-adv-x="0" />
<glyph unicode="&#xae;" horiz-adv-x="1351" d="M102 557q0 126 39.5 241.5t111 204t179.5 141t236 52.5q144 0 268 -88q-2 2 -2 6t2 6q0 19 18 19q123 0 209 -140.5t86 -359.5q0 -124 -40 -240.5t-112.5 -210t-185.5 -150t-249 -56.5q-134 0 -242.5 48.5t-176.5 129.5t-104.5 183t-36.5 214zM291 547q0 -68 16.5 -139 t49.5 -137t78 -118.5t107.5 -84t131.5 -31.5q96 0 182 54.5t143.5 141.5t91 195.5t33.5 216.5q0 184 -92 307q-12 -6 -35 -6q-35 0 -52 11t-38 38q-48 71 -99.5 111.5t-129.5 40.5q-78 -5 -143.5 -44t-109.5 -99.5t-75 -138t-45 -158t-14 -160.5zM541 428l3 21q1 4 1 6 q9 49 16.5 145.5t7.5 159.5q0 29 -8 69q0 -1 9.5 1.5t26 5.5t28.5 4h8q93 -2 163 -23.5t70 -66.5q0 -32 -54 -53.5t-130 -32.5q7 0 12 -5q22 -10 40 -37t30.5 -57t27.5 -59.5t38.5 -48.5t54.5 -19h14q7 0 13 -5t6 -11q0 -5 -17 -8q-12 -2 -33 -2q-41 0 -73.5 18.5 t-53.5 47.5t-37.5 58.5t-32.5 58.5t-30 40q-12 -176 -12 -217q-23 -4 -60 -4q-28 0 -28 14zM643 686l10 4q97 29 97 60q0 8 -6 14.5t-17.5 12.5t-22 10.5t-27 10.5t-24.5 9z" />
<glyph unicode="&#xaf;" horiz-adv-x="485" d="M51 1642q0 11 9 24t16 13q4 12 65.5 18.5t130.5 6.5h39q59 0 89.5 -7.5t33.5 -35.5q-11 -21 -121.5 -31t-171.5 -10q-74 0 -86 12q-4 4 -4 10z" />
<glyph unicode="&#xb0;" horiz-adv-x="522" d="M61 1397q0 84 59 156.5t150 72.5q98 0 144.5 -57.5t46.5 -128.5q0 -11 -5 -30.5t-15 -46t-28.5 -53.5t-42.5 -50t-60.5 -37.5t-78.5 -14.5q-39 0 -70.5 15t-49.5 37t-30 49.5t-16 49t-4 38.5zM172 1393q0 -44 15.5 -82.5t45.5 -38.5q61 0 93 50.5t32 119.5q0 58 -22 95.5 t-70 37.5q-27 0 -60.5 -59t-33.5 -123z" />
<glyph unicode="&#xb1;" horiz-adv-x="851" d="M8 63q2 7 9.5 15t15.5 8q9 0 71 -3.5t70 -6.5h541q16 0 16 -35q-14 -41 -33 -41h-673q-8 1 -12.5 24t-4.5 39zM61 559q2 7 9.5 15t15.5 8t70.5 -4t70.5 -7h166l23 220l6 55q5 15 16 22.5t39 8.5q13 0 21 -4.5t11 -9.5t7 -15l-37 -277h295q17 0 17 -34q-14 -41 -33 -41 h-287q-7 -60 -22 -238q-1 -16 -4 -42.5t-3 -35.5q-2 -15 -7.5 -21.5t-18.5 -6.5q-67 0 -74 24q7 56 21.5 157t21.5 163h-307q-8 1 -12.5 24t-4.5 39z" />
<glyph unicode="&#xb2;" horiz-adv-x="409" d="M-12 887q0 41 20 64.5t58 23.5q10 0 38 -8q51 69 96.5 147t53.5 121q-45 0 -70.5 23.5t-25.5 62.5q0 43 27 79t67 36q26 0 44.5 -17t26.5 -43.5t11.5 -48t3.5 -39.5q0 -74 -52 -163.5t-136 -196.5q41 -48 63 -65t45 -17q51 0 109 45q18 6 20 6q13 0 22 -8.5t9 -22.5 l-35 -16q-9 -2 -39.5 -11.5t-50.5 -13.5t-41 -4q-76 0 -139 66q-10 -7 -25 -23t-28.5 -24t-32.5 -9q-16 0 -27.5 18t-11.5 38zM47 899q17 17 25 29l-13 12q-12 0 -12 -41zM221 1319q0 -18 9.5 -40t19.5 -22q3 0 6 3q1 3 3.5 13.5t4.5 20t2 13.5q0 13 -3 25t-8.5 27.5 t-8.5 26.5q-1 -3 -9 -18t-12 -26.5t-4 -22.5z" />
<glyph unicode="&#xb3;" horiz-adv-x="440" d="M41 918q0 16 12 38.5t31 22.5q33 0 33 -8q-15 -40 -15 -72q0 -55 15 -55q42 0 91 70.5t79 150.5t30 119q0 42 -16 70.5t-45 31.5q-20 0 -70 -8h-12q-27 0 -27 6t25 14l10 2q107 29 107 105q0 27 -10 27q-3 0 -19 -13q-22 -18 -51 -18q-31 0 -31 6q0 16 44 29.5t67 13.5 q82 0 82 -45q0 -53 -92 -102q53 -8 86.5 -37t33.5 -74q0 -44 -23 -107t-59.5 -122.5t-90 -101.5t-107.5 -42q-26 1 -42.5 10t-23.5 25.5t-9.5 30.5t-2.5 33z" />
<glyph unicode="&#xb4;" horiz-adv-x="376" d="M51 1112q27 35 68 94q84 150 153 150q54 0 54 -17q-50 -46 -88 -108q-20 -32 -31.5 -47.5t-34 -35.5t-51.5 -28t-70 -8z" />
<glyph unicode="&#xb5;" horiz-adv-x="753" d="M-166 -471l10 29q103 249 179 544q69 268 129.5 465.5t89 270.5t34.5 73q0 15 33 15q14 0 25.5 -5t11.5 -10q0 -4 -3.5 -17.5t-10 -35.5t-10.5 -37l-166 -626q-6 -17 -12.5 -55t-6.5 -48q24 3 207 290.5t244 416.5l37 80q0 1 2 7t2 7q5 19 14.5 26t42.5 7q25 0 38 -5.5 t15 -10t2 -13.5q0 -11 -8 -37t-21 -61.5t-18 -50.5q0 -1 -4 -13q-133 -351 -133 -514q0 -103 6 -138.5t27 -41.5q12 0 27.5 10.5t37 37.5t38.5 50t48 73.5t49.5 81.5t57.5 97l16 29q21 0 21 -19q-24 -42 -57.5 -103.5t-52 -94t-44 -75.5t-44 -65t-42 -44t-47.5 -30.5 t-51 -8.5q-88 0 -88 241q0 116 41 260q-67 -118 -124.5 -207t-91.5 -133t-59 -70.5t-35 -32.5l-10 -5q-31 -31 -88 -31q-8 -25 -20.5 -68t-21 -72.5t-21.5 -70t-24 -69t-24.5 -61t-27 -54.5t-29 -41t-32.5 -28t-35 -9h-23z" />
<glyph unicode="&#xb6;" horiz-adv-x="909" d="M102 1024q0 36 10.5 64.5t25.5 46.5t41.5 31t48.5 19.5t57 10t56 4t56 0.5q80 -1 190.5 -6t149.5 -6q111 0 111 -39q-20 -150 -61.5 -342.5t-77 -336t-63.5 -312t-28 -297.5q0 -92 24 -139.5t85 -47.5q10 0 39 11q8 0 25 7t26 7q23 0 31 -16q0 -22 -47 -37t-99 -15 q-43 0 -75.5 12.5t-53 33.5t-33 52.5t-17.5 66t-5 77.5q0 191 45.5 456.5t93 487t50.5 289.5h-154q-25 -112 -110 -448t-126 -562q-4 -21 -9 -35t-20.5 -31t-41.5 -30q-41 6 -41 66q22 244 164 815q-10 -2 -39 -2q-28 0 -55.5 3.5t-60 13t-56.5 25t-40 42t-16 61.5z" />
<glyph unicode="&#xb7;" horiz-adv-x="360" d="M102 436q0 34 23 58t70 24q31 0 47 -20t16 -45q-3 -27 -27.5 -49.5t-56.5 -22.5q-35 0 -53.5 18.5t-18.5 36.5z" />
<glyph unicode="&#xb8;" horiz-adv-x="391" d="M51 -252q0 17 2 25q0 10 7.5 16t15.5 6q16 0 16 -20q0 -49 22.5 -92t71.5 -43q36 0 62 30t26 68q0 35 -18.5 65.5t-54.5 30.5q-23 0 -23 31q0 23 14.5 74t14.5 61h63l-30 -123q60 -14 90 -54t30 -83q0 -64 -51.5 -102.5t-128.5 -38.5q-62 0 -95.5 48.5t-33.5 100.5z" />
<glyph unicode="&#xb9;" horiz-adv-x="296" d="M41 1296q0 6 65.5 62t96.5 74l53 -7q0 -27 -23 -73q-25 -72 -40 -121t-32.5 -143t-17.5 -177q0 -24 -0.5 -39.5t-1 -21.5t-0.5 -8q-4 -4 -26 -4q-37 0 -37 4v51q0 235 72 438q-33 -32 -43.5 -38.5t-30.5 -6.5q-35 0 -35 10z" />
<glyph unicode="&#xba;" horiz-adv-x="819" d="M129 686q0 22 13 32.5t54.5 15.5t127.5 5h147q76 0 76 -37q-10 -17 -69.5 -21.5t-186.5 -4.5h-49q-113 0 -113 10zM145 1012q0 108 56 221.5t123 173.5q57 43 106 43q20 0 23 -8q21 16 57 16q90 0 90 -141q0 -145 -70 -279q72 0 129 88q15 0 15 -12q-32 -47 -73 -72.5 t-83 -27.5q-49 -80 -102.5 -126t-126.5 -46q-62 0 -103 42.5t-41 127.5zM233 1018q0 -56 13.5 -92.5t38.5 -36.5q38 0 71.5 33.5t77.5 107.5q-82 48 -82 207q0 40 19 92.5t51 87.5l-39 -26q-58 -56 -104 -159.5t-46 -213.5zM422 1237q0 -129 33 -168q71 151 71 274 q0 37 -2.5 49.5t-13.5 12.5q-40 0 -64 -61t-24 -107z" />
<glyph unicode="&#xbb;" horiz-adv-x="1245" d="M61 225q0 16 25 35q48 38 148 103.5t183.5 128t137.5 124.5q-8 8 -118 109t-181.5 177t-71.5 104q0 2 5.5 6.5t17.5 9t26 4.5q29 0 56 -16q47 -75 194 -210.5t213 -162.5q13 -5 13 -16q0 -5 -2.5 -11.5t-5.5 -9.5l-3 -4q-19 -13 -105.5 -75.5t-148.5 -106t-142 -96.5 t-134.5 -82t-77.5 -29q-17 3 -23 6.5t-6 11.5zM496 223q0 17 24 35q48 38 148 103.5t183.5 128t137.5 124.5q-8 8 -118 109t-181.5 177t-71.5 104q0 2 5.5 6.5t18 9t26.5 4.5q28 0 55 -16q47 -75 194 -210.5t213 -162.5q13 -5 13 -17q0 -5 -2.5 -11t-4.5 -9l-3 -4 q-17 -12 -105.5 -75.5t-149.5 -106t-141.5 -96.5t-135 -82.5t-77.5 -28.5q-17 3 -22.5 6.5t-5.5 11.5z" />
<glyph unicode="&#xbc;" horiz-adv-x="960" d="M41 1296q0 6 65.5 62t96.5 74l53 -7q0 -27 -23 -73q-25 -72 -40 -121t-32.5 -143t-17.5 -177q0 -24 -0.5 -39.5t-1 -21.5t-0.5 -8q-4 -4 -26 -4q-37 0 -37 4v51q0 235 72 438q-33 -32 -43.5 -38.5t-30.5 -6.5q-35 0 -35 10zM70 51q39 78 112.5 256.5t147 362t149.5 361 t139.5 290t96.5 111.5q18 0 18 -19q0 -13 -14 -41q-242 -584 -576 -1356q-3 -14 -41 -14q-19 0 -25.5 12t-6.5 37zM489 332q0 8 2.5 13.5t20 12.5t51.5 7q31 13 59 41.5t39.5 47t30.5 52.5q31 56 70 88q25 14 39 14q37 0 37 -12q0 -4 -5.5 -10.5t-5.5 -10.5 q-57 -223 -65 -266q10 -4 29 -4q17 0 51 6t51 6q4 0 16 -6q-1 -17 -48 -31t-103 -14q-7 -44 -27 -260q-3 -8 -22 -8h-15q-26 0 -26 27q0 159 18 251q-15 4 -51.5 19.5t-54.5 21.5q-11 0 -26.5 1t-21.5 1q-43 0 -43 13zM635 350q31 -15 61 -24q8 37 30.5 105.5t25.5 84.5 q-1 -2 -27 -45.5t-43.5 -69.5t-28.5 -36z" />
<glyph unicode="&#xbd;" horiz-adv-x="974" d="M41 1296q0 6 65.5 62t96.5 74l53 -7q0 -27 -23 -73q-25 -72 -40 -121t-32.5 -143t-17.5 -177q0 -24 -0.5 -39.5t-1 -21.5t-0.5 -8q-4 -4 -26 -4q-37 0 -37 4v51q0 235 72 438q-33 -32 -43.5 -38.5t-30.5 -6.5q-35 0 -35 10zM70 51q39 78 112.5 256.5t147 362t149.5 361 t139.5 290t96.5 111.5q18 0 18 -19q0 -13 -14 -41q-242 -584 -576 -1356q-3 -14 -41 -14q-19 0 -25.5 12t-6.5 37zM434 47q0 41 20 64.5t58 23.5q11 0 39 -8q51 68 96 146.5t53 121.5q-45 0 -70.5 23.5t-25.5 62.5q0 43 27 79t67 36q34 0 55 -31t26 -60.5t5 -55.5 q0 -123 -188 -361q41 -47 63.5 -64.5t45.5 -17.5q50 0 108 45q18 6 21 6q14 0 22 -8.5t8 -21.5l-35 -17q-11 -3 -32 -9t-33.5 -9.5t-31 -6.5t-34.5 -3q-77 0 -139 65q-9 -7 -24.5 -22.5t-29 -23.5t-32.5 -9q-16 0 -27.5 17.5t-11.5 37.5zM494 59q14 14 24 29l-12 12 q-12 0 -12 -41zM668 479q0 -19 9 -40t19 -21q4 0 6 2q0 1 5.5 21t5.5 26q0 13 -3.5 25.5t-9 28t-8.5 26.5q-2 -4 -7 -14.5t-8 -17.5t-6 -17t-3 -19z" />
<glyph unicode="&#xbe;" horiz-adv-x="1009" d="M41 903q0 16 12 39t31 23q33 0 33 -9q-15 -40 -15 -71q0 -56 15 -56q42 0 91 70.5t79 150.5t30 119q0 42 -16 71t-45 32q-20 0 -70 -8h-12q-27 0 -27 6t25 14l10 2q107 29 107 105q0 26 -10 26q-4 0 -19 -12q-24 -19 -51 -19q-31 0 -31 7q0 16 44 29.5t67 13.5 q82 0 82 -45q0 -54 -92 -103q54 -8 87 -36.5t33 -73.5q0 -44 -23 -107t-59.5 -122.5t-90 -101.5t-107.5 -42q-26 1 -42.5 10t-23.5 25t-9.5 30t-2.5 33zM119 51q39 78 112.5 256.5t147 362t149.5 361t139.5 290t96.5 111.5q18 0 18 -19q0 -13 -14 -41q-265 -639 -575 -1356 q-3 -14 -41 -14q-19 0 -26 12t-7 37zM539 332q0 8 2 13.5t19.5 12.5t51.5 7q31 13 59 41.5t39.5 47t30.5 52.5q31 56 70 88q25 14 39 14q37 0 37 -12q0 -4 -5 -10.5t-5 -10.5q-5 -19 -21 -78t-27 -104t-18 -84q10 -4 29 -4q18 0 51 6t51 6q4 0 16 -6q-1 -17 -48 -31 t-103 -14q-7 -44 -27 -260q-3 -8 -22 -8h-15q-26 0 -26 27q0 163 16 231q0 7 1 13t1 7q-15 4 -51.5 19.5t-54.5 21.5q-11 0 -26 1t-21 1q-43 0 -43 13zM684 350q31 -15 61 -24q8 37 30.5 105.5t25.5 84.5q-1 -2 -27 -45.5t-43.5 -69.5t-28.5 -36z" />
<glyph unicode="&#xbf;" horiz-adv-x="849" d="M-205 -336q0 78 23 148t62 126.5t88 109t105.5 106.5t109 107.5t103 123t83.5 143.5q30 15 53 15q24 0 31.5 -13t7.5 -36q-29 -79 -92.5 -168t-130.5 -165t-130.5 -155.5t-104 -167.5t-40.5 -174q0 -77 22 -140t57.5 -101t77 -58t83.5 -20q61 0 118 25t98.5 83.5 t41.5 138.5q0 14 -6 36.5t-6 31.5q0 13 43 23q38 0 63.5 -27t28.5 -78q0 -72 -33.5 -128.5t-89.5 -90t-122.5 -51t-137.5 -17.5q-176 0 -291 109.5t-115 263.5zM352 860q3 27 27.5 49.5t56.5 22.5q35 0 53.5 -18.5t18.5 -36.5q0 -35 -22.5 -58.5t-69.5 -23.5q-31 0 -47.5 20 t-16.5 45z" />
<glyph unicode="&#xc0;" horiz-adv-x="1615" d="M-82 307q0 333 440 676q21 0 21 -20l-49 -45q-45 -40 -71.5 -64.5t-69.5 -68.5t-69 -78.5t-58 -84t-50 -95.5t-30.5 -103.5t-12.5 -116.5q0 -106 52 -176t153 -70q79 0 149 27.5t134 94.5t108.5 121.5t102.5 169.5t84.5 173t85.5 193q6 12 8 18q-71 23 -117.5 43.5 t-44.5 28.5q0 14 9.5 29.5t21.5 15.5q10 0 21.5 -9.5t11.5 -21.5l22 -6q16 -6 49.5 -16t48.5 -15q33 77 58.5 131.5t59 120.5t63 111t66.5 90.5t72.5 73t78.5 44.5t88 17h10q106 0 106 -45q-5 -14 -23.5 -96.5t-47 -236.5t-47.5 -296q79 3 125 33q0 2 -3.5 13.5t-3.5 17.5 q0 14 17 14q2 0 6 -1t6 -1q14 -3 24.5 -20t10.5 -35q0 -9 -4 -17q-34 -59 -184 -59q-25 -212 -25 -344q0 -56 6.5 -117.5t20.5 -123t39.5 -101t58.5 -39.5q27 0 55.5 23t72 91t65.5 107t84 153q2 3 3 5q21 0 21 -19q-32 -66 -56 -113.5t-58 -106t-62.5 -94.5t-62 -61.5 t-62.5 -25.5q-57 0 -103.5 26.5t-76.5 69.5t-50.5 99t-29 112t-8.5 113q0 184 22 358q-94 13 -211 41q-53 -112 -83 -172.5t-86.5 -163.5t-99.5 -161.5t-108.5 -132.5t-127.5 -113.5t-142.5 -67.5t-167.5 -28q-126 0 -191 91t-65 236zM1012 868q124 -30 194 -39 q34 241 101 461q10 37 28 74q-44 -29 -85.5 -77t-85 -122.5t-73.5 -134t-79 -162.5zM1243 1845q0 17 53 17q72 0 152 -150q69 -94 63 -94q-38 0 -66 8t-49.5 28t-33 35.5t-31.5 47.5q-38 62 -88 108z" />
<glyph unicode="&#xc1;" horiz-adv-x="1615" d="M-82 307q0 333 440 676q21 0 21 -20l-49 -45q-45 -40 -71.5 -64.5t-69.5 -68.5t-69 -78.5t-58 -84t-50 -95.5t-30.5 -103.5t-12.5 -116.5q0 -106 52 -176t153 -70q79 0 149 27.5t134 94.5t108.5 121.5t102.5 169.5t84.5 173t85.5 193q6 12 8 18q-71 23 -117.5 43.5 t-44.5 28.5q0 14 9.5 29.5t21.5 15.5q10 0 21.5 -9.5t11.5 -21.5l22 -6q16 -6 49.5 -16t48.5 -15q33 77 58.5 131.5t59 120.5t63 111t66.5 90.5t72.5 73t78.5 44.5t88 17h10q106 0 106 -45q-5 -14 -23.5 -96.5t-47 -236.5t-47.5 -296q79 3 125 33q0 2 -3.5 13.5t-3.5 17.5 q0 14 17 14q2 0 6 -1t6 -1q14 -3 24.5 -20t10.5 -35q0 -9 -4 -17q-34 -59 -184 -59q-25 -212 -25 -344q0 -56 6.5 -117.5t20.5 -123t39.5 -101t58.5 -39.5q27 0 55.5 23t72 91t65.5 107t84 153q2 3 3 5q21 0 21 -19q-32 -66 -56 -113.5t-58 -106t-62.5 -94.5t-62 -61.5 t-62.5 -25.5q-57 0 -103.5 26.5t-76.5 69.5t-50.5 99t-29 112t-8.5 113q0 184 22 358q-94 13 -211 41q-53 -112 -83 -172.5t-86.5 -163.5t-99.5 -161.5t-108.5 -132.5t-127.5 -113.5t-142.5 -67.5t-167.5 -28q-126 0 -191 91t-65 236zM1012 868q124 -30 194 -39 q34 241 101 461q10 37 28 74q-44 -29 -85.5 -77t-85 -122.5t-73.5 -134t-79 -162.5zM1270 1618q26 35 67 94q84 150 154 150q53 0 53 -17q-50 -46 -88 -108q-20 -33 -31.5 -48t-33.5 -35t-51 -28t-70 -8z" />
<glyph unicode="&#xc2;" horiz-adv-x="1615" d="M-82 307q0 333 440 676q21 0 21 -20l-49 -45q-45 -40 -71.5 -64.5t-69.5 -68.5t-69 -78.5t-58 -84t-50 -95.5t-30.5 -103.5t-12.5 -116.5q0 -106 52 -176t153 -70q79 0 149 27.5t134 94.5t108.5 121.5t102.5 169.5t84.5 173t85.5 193q6 12 8 18q-71 23 -117.5 43.5 t-44.5 28.5q0 14 9.5 29.5t21.5 15.5q10 0 21.5 -9.5t11.5 -21.5l22 -6q16 -6 49.5 -16t48.5 -15q33 77 58.5 131.5t59 120.5t63 111t66.5 90.5t72.5 73t78.5 44.5t88 17h10q106 0 106 -45q-5 -14 -23.5 -96.5t-47 -236.5t-47.5 -296q79 3 125 33q0 2 -3.5 13.5t-3.5 17.5 q0 14 17 14q2 0 6 -1t6 -1q14 -3 24.5 -20t10.5 -35q0 -9 -4 -17q-34 -59 -184 -59q-25 -212 -25 -344q0 -56 6.5 -117.5t20.5 -123t39.5 -101t58.5 -39.5q27 0 55.5 23t72 91t65.5 107t84 153q2 3 3 5q21 0 21 -19q-32 -66 -56 -113.5t-58 -106t-62.5 -94.5t-62 -61.5 t-62.5 -25.5q-57 0 -103.5 26.5t-76.5 69.5t-50.5 99t-29 112t-8.5 113q0 184 22 358q-94 13 -211 41q-53 -112 -83 -172.5t-86.5 -163.5t-99.5 -161.5t-108.5 -132.5t-127.5 -113.5t-142.5 -67.5t-167.5 -28q-126 0 -191 91t-65 236zM1012 868q124 -30 194 -39 q34 241 101 461q10 37 28 74q-44 -29 -85.5 -77t-85 -122.5t-73.5 -134t-79 -162.5zM1178 1614q0 24 39 78.5t79 97.5l39 43q7 7 20.5 12t36 9.5t25.5 5.5q21 -11 62 -92.5t51 -139.5q-1 -13 -15 -24t-28 -11q-3 0 -14 11l-89 172h-10q-77 -83 -108 -136q-14 -23 -28 -33 t-42 -10q-18 0 -18 17z" />
<glyph unicode="&#xc3;" horiz-adv-x="1615" d="M-82 307q0 333 440 676q21 0 21 -20l-49 -45q-45 -40 -71.5 -64.5t-69.5 -68.5t-69 -78.5t-58 -84t-50 -95.5t-30.5 -103.5t-12.5 -116.5q0 -106 52 -176t153 -70q79 0 149 27.5t134 94.5t108.5 121.5t102.5 169.5t84.5 173t85.5 193q6 12 8 18q-71 23 -117.5 43.5 t-44.5 28.5q0 14 9.5 29.5t21.5 15.5q10 0 21.5 -9.5t11.5 -21.5l22 -6q16 -6 49.5 -16t48.5 -15q33 77 58.5 131.5t59 120.5t63 111t66.5 90.5t72.5 73t78.5 44.5t88 17h10q106 0 106 -45q-5 -14 -23.5 -96.5t-47 -236.5t-47.5 -296q79 3 125 33q0 2 -3.5 13.5t-3.5 17.5 q0 14 17 14q2 0 6 -1t6 -1q14 -3 24.5 -20t10.5 -35q0 -9 -4 -17q-34 -59 -184 -59q-25 -212 -25 -344q0 -56 6.5 -117.5t20.5 -123t39.5 -101t58.5 -39.5q27 0 55.5 23t72 91t65.5 107t84 153q2 3 3 5q21 0 21 -19q-32 -66 -56 -113.5t-58 -106t-62.5 -94.5t-62 -61.5 t-62.5 -25.5q-57 0 -103.5 26.5t-76.5 69.5t-50.5 99t-29 112t-8.5 113q0 184 22 358q-94 13 -211 41q-53 -112 -83 -172.5t-86.5 -163.5t-99.5 -161.5t-108.5 -132.5t-127.5 -113.5t-142.5 -67.5t-167.5 -28q-126 0 -191 91t-65 236zM1012 868q124 -30 194 -39 q34 241 101 461q10 37 28 74q-44 -29 -85.5 -77t-85 -122.5t-73.5 -134t-79 -162.5zM1100 1681q13 49 60.5 89t105.5 40q41 0 84.5 -27.5t86.5 -55t83 -27.5q16 0 28.5 30.5t12.5 45.5q0 28 38 28q37 0 37 -32q0 -65 -35.5 -104.5t-93.5 -39.5q-49 0 -89.5 16.5t-63 36 t-51 36t-56.5 16.5q-18 0 -37.5 -13.5t-27.5 -29.5q-1 -20 -21 -35t-35 -15q-21 0 -26 41z" />
<glyph unicode="&#xc4;" horiz-adv-x="1615" d="M-82 307q0 333 440 676q21 0 21 -20l-49 -45q-45 -40 -71.5 -64.5t-69.5 -68.5t-69 -78.5t-58 -84t-50 -95.5t-30.5 -103.5t-12.5 -116.5q0 -106 52 -176t153 -70q79 0 149 27.5t134 94.5t108.5 121.5t102.5 169.5t84.5 173t85.5 193q6 12 8 18q-71 23 -117.5 43.5 t-44.5 28.5q0 14 9.5 29.5t21.5 15.5q10 0 21.5 -9.5t11.5 -21.5l22 -6q16 -6 49.5 -16t48.5 -15q33 77 58.5 131.5t59 120.5t63 111t66.5 90.5t72.5 73t78.5 44.5t88 17h10q106 0 106 -45q-5 -14 -23.5 -96.5t-47 -236.5t-47.5 -296q79 3 125 33q0 2 -3.5 13.5t-3.5 17.5 q0 14 17 14q2 0 6 -1t6 -1q14 -3 24.5 -20t10.5 -35q0 -9 -4 -17q-34 -59 -184 -59q-25 -212 -25 -344q0 -56 6.5 -117.5t20.5 -123t39.5 -101t58.5 -39.5q27 0 55.5 23t72 91t65.5 107t84 153q2 3 3 5q21 0 21 -19q-32 -66 -56 -113.5t-58 -106t-62.5 -94.5t-62 -61.5 t-62.5 -25.5q-57 0 -103.5 26.5t-76.5 69.5t-50.5 99t-29 112t-8.5 113q0 184 22 358q-94 13 -211 41q-53 -112 -83 -172.5t-86.5 -163.5t-99.5 -161.5t-108.5 -132.5t-127.5 -113.5t-142.5 -67.5t-167.5 -28q-126 0 -191 91t-65 236zM1012 868q124 -30 194 -39 q34 241 101 461q10 37 28 74q-44 -29 -85.5 -77t-85 -122.5t-73.5 -134t-79 -162.5zM1184 1655q0 44 28 63t64 19q19 0 28 -1t18 -8t9 -22q0 -22 -14 -45q0 -18 -26 -30.5t-46 -12.5q-5 0 -15.5 -1t-15.5 -1q-30 0 -30 39zM1481 1706q0 23 30 23q111 0 111 -68 q0 -20 -30.5 -31.5t-47.5 -11.5q-38 0 -50.5 22.5t-12.5 65.5z" />
<glyph unicode="&#xc5;" horiz-adv-x="1615" d="M-82 307q0 333 440 676q21 0 21 -20l-49 -45q-45 -40 -71.5 -64.5t-69.5 -68.5t-69 -78.5t-58 -84t-50 -95.5t-30.5 -103.5t-12.5 -116.5q0 -106 52 -176t153 -70q79 0 149 27.5t134 94.5t108.5 121.5t102.5 169.5t84.5 173t85.5 193q6 12 8 18q-71 23 -117.5 43.5 t-44.5 28.5q0 14 9.5 29.5t21.5 15.5q10 0 21.5 -9.5t11.5 -21.5l22 -6q16 -6 49.5 -16t48.5 -15q33 77 58.5 131.5t59 120.5t63 111t66.5 90.5t72.5 73t78.5 44.5t88 17h10q106 0 106 -45q-5 -14 -23.5 -96.5t-47 -236.5t-47.5 -296q79 3 125 33q0 2 -3.5 13.5t-3.5 17.5 q0 14 17 14q2 0 6 -1t6 -1q14 -3 24.5 -20t10.5 -35q0 -9 -4 -17q-34 -59 -184 -59q-25 -212 -25 -344q0 -56 6.5 -117.5t20.5 -123t39.5 -101t58.5 -39.5q27 0 55.5 23t72 91t65.5 107t84 153q2 3 3 5q21 0 21 -19q-32 -66 -56 -113.5t-58 -106t-62.5 -94.5t-62 -61.5 t-62.5 -25.5q-57 0 -103.5 26.5t-76.5 69.5t-50.5 99t-29 112t-8.5 113q0 184 22 358q-94 13 -211 41q-53 -112 -83 -172.5t-86.5 -163.5t-99.5 -161.5t-108.5 -132.5t-127.5 -113.5t-142.5 -67.5t-167.5 -28q-126 0 -191 91t-65 236zM1012 868q124 -30 194 -39 q34 241 101 461q10 37 28 74q-44 -29 -85.5 -77t-85 -122.5t-73.5 -134t-79 -162.5zM1257 1686q0 67 41.5 121.5t104.5 84.5q26 13 41 13q8 0 8 -9q0 -16 -8 -24q47 -3 85 -32t38 -77q0 -68 -57.5 -123t-131.5 -55q-47 0 -84 23t-37 78zM1341 1688q0 -22 12.5 -37t22.5 -15 q43 0 83 52t40 88q0 41 -74 47q-84 -75 -84 -135z" />
<glyph unicode="&#xc6;" horiz-adv-x="2435" d="M-82 307q0 333 440 676q21 0 21 -20l-49 -45q-45 -40 -71.5 -64.5t-69.5 -68.5t-69 -78.5t-58 -84t-50 -95.5t-30.5 -103.5t-12.5 -116.5q0 -106 52 -176t153 -70q79 0 149 27.5t134 94.5t108.5 121.5t102.5 169.5t84.5 173t85.5 193q6 12 8 18q-71 23 -117.5 43.5 t-44.5 28.5q0 14 9.5 29.5t21.5 15.5q10 0 21.5 -9.5t11.5 -21.5l22 -6q16 -6 49.5 -16t48.5 -15q33 77 58.5 131.5t59 120.5t63 111t66.5 90.5t72.5 73t78.5 44.5t88 17h10q106 0 106 -43v-2q-5 -13 -23.5 -95.5t-46.5 -236.5t-46 -297q141 144 340 199q-73 26 -111.5 74.5 t-38.5 107.5q0 63 28.5 112t78 78.5t110 44.5t129.5 15q97 0 187.5 -40.5t152.5 -100.5q0 -19 -20 -21q-49 44 -124 72.5t-140 28.5q-63 0 -116 -18t-89.5 -61.5t-36.5 -105.5q0 -61 54.5 -108t158.5 -47q17 0 33 -4.5t16 -12.5q0 -9 -16 -33q-52 -6 -99 -6h-14 q-78 -18 -165 -68t-165 -121.5t-129 -169t-51 -196.5q0 -159 95.5 -276t217.5 -117q84 0 177 58.5t158 156.5t65 199q0 18 -2 39t-2 26q0 18 14.5 24.5t60.5 6.5q35 0 58.5 -10t23.5 -29q0 -99 -48 -196t-126 -170.5t-184.5 -119.5t-216.5 -46q-139 0 -237.5 65.5 t-151.5 173.5q-51 104 -51 195q0 184 22 358q-94 13 -211 41q-53 -112 -83 -172.5t-86.5 -163.5t-99.5 -161.5t-108.5 -132.5t-127.5 -113.5t-142.5 -67.5t-167.5 -28q-126 0 -191 91t-65 236zM1012 868q124 -30 194 -39q34 241 101 461q10 37 28 74q-44 -29 -85.5 -77 t-85 -122.5t-73.5 -134t-79 -162.5z" />
<glyph unicode="&#xc7;" horiz-adv-x="1247" d="M0 430q0 223 141 447t365 385q-31 0 -120.5 38t-169.5 77.5t-83 39.5q8 35 45 35t117 -45q148 -76 272 -100q104 65 222 101t233 36q174 0 174 -68q-18 -46 -92 -76t-144 -39.5t-131 -9.5h-176q-200 -137 -331.5 -366.5t-131.5 -454.5q0 -165 73.5 -278t191.5 -113 q62 0 133 35.5t129.5 92t97.5 133.5t39 153q0 18 -2 39t-2 26q0 18 15 24.5t61 6.5q35 0 58.5 -10t23.5 -29q0 -130 -77.5 -251.5t-207.5 -199t-274 -82.5l-25 -100q61 -14 91 -54t30 -83q0 -64 -51.5 -102.5t-128.5 -38.5q-62 0 -95.5 48.5t-33.5 100.5q0 17 2 25 q0 10 7 16t15 6q16 0 16 -20q0 -48 23 -91.5t72 -43.5q36 0 62 30t26 68q0 35 -19 65.5t-55 30.5q-23 0 -23 31q0 20 12 65.5t13 49.5q-93 7 -168.5 48.5t-122.5 104.5t-71.5 139.5t-24.5 157.5zM694 1292h25q110 0 185.5 15.5t133.5 52.5q-37 12 -77 12q-111 0 -267 -80z " />
<glyph unicode="&#xc8;" horiz-adv-x="1249" d="M0 438q0 197 149 361.5t359 220.5q-73 26 -111.5 74.5t-38.5 107.5q0 83 50.5 141t127 83.5t169.5 25.5q97 0 187 -40.5t152 -100.5q0 -19 -20 -21q-49 44 -124 72.5t-140 28.5q-63 0 -116 -18t-89.5 -61.5t-36.5 -105.5q0 -61 54.5 -108t158.5 -47q17 0 33 -4.5 t16 -12.5q0 -9 -16 -33q-53 -6 -98 -6h-13q-75 -18 -156 -68.5t-152 -122t-117 -169t-46 -197.5q0 -164 77.5 -277.5t195.5 -113.5q62 0 133 35.5t129.5 92t97.5 133.5t39 153q0 18 -2 39t-2 26q0 18 15 24.5t61 6.5q35 0 58.5 -10t23.5 -29q0 -99 -48 -196t-126.5 -170.5 t-185 -119.5t-216.5 -46q-104 0 -188 38.5t-136 103t-80 144.5t-28 166zM532 1845q0 17 54 17q71 0 151 -150q66 -91 64 -94q-38 0 -66 8t-49.5 28t-33 35.5t-31.5 47.5q-36 60 -89 108z" />
<glyph unicode="&#xc9;" horiz-adv-x="1249" d="M0 438q0 197 149 361.5t359 220.5q-73 26 -111.5 74.5t-38.5 107.5q0 83 50.5 141t127 83.5t169.5 25.5q97 0 187 -40.5t152 -100.5q0 -19 -20 -21q-49 44 -124 72.5t-140 28.5q-63 0 -116 -18t-89.5 -61.5t-36.5 -105.5q0 -61 54.5 -108t158.5 -47q17 0 33 -4.5 t16 -12.5q0 -9 -16 -33q-53 -6 -98 -6h-13q-75 -18 -156 -68.5t-152 -122t-117 -169t-46 -197.5q0 -164 77.5 -277.5t195.5 -113.5q62 0 133 35.5t129.5 92t97.5 133.5t39 153q0 18 -2 39t-2 26q0 18 15 24.5t61 6.5q35 0 58.5 -10t23.5 -29q0 -99 -48 -196t-126.5 -170.5 t-185 -119.5t-216.5 -46q-104 0 -188 38.5t-136 103t-80 144.5t-28 166zM641 1618q27 35 68 94q84 150 153 150q53 0 53 -17q-50 -46 -88 -108q-20 -33 -31.5 -48t-33.5 -35t-51 -28t-70 -8z" />
<glyph unicode="&#xca;" horiz-adv-x="1249" d="M0 438q0 197 149 361.5t359 220.5q-73 26 -111.5 74.5t-38.5 107.5q0 83 50.5 141t127 83.5t169.5 25.5q97 0 187 -40.5t152 -100.5q0 -19 -20 -21q-49 44 -124 72.5t-140 28.5q-63 0 -116 -18t-89.5 -61.5t-36.5 -105.5q0 -61 54.5 -108t158.5 -47q17 0 33 -4.5 t16 -12.5q0 -9 -16 -33q-53 -6 -98 -6h-13q-75 -18 -156 -68.5t-152 -122t-117 -169t-46 -197.5q0 -164 77.5 -277.5t195.5 -113.5q62 0 133 35.5t129.5 92t97.5 133.5t39 153q0 18 -2 39t-2 26q0 18 15 24.5t61 6.5q35 0 58.5 -10t23.5 -29q0 -99 -48 -196t-126.5 -170.5 t-185 -119.5t-216.5 -46q-104 0 -188 38.5t-136 103t-80 144.5t-28 166zM588 1614q0 24 39 78.5t79 97.5l39 43q7 7 20.5 12t36 9.5t25.5 5.5q21 -11 62 -92.5t51 -139.5q-1 -13 -15 -24t-28 -11q-3 0 -14 11l-88 172h-11q-77 -83 -108 -136q-14 -23 -28 -33t-42 -10 q-18 0 -18 17z" />
<glyph unicode="&#xcb;" horiz-adv-x="1249" d="M0 438q0 197 149 361.5t359 220.5q-73 26 -111.5 74.5t-38.5 107.5q0 83 50.5 141t127 83.5t169.5 25.5q97 0 187 -40.5t152 -100.5q0 -19 -20 -21q-49 44 -124 72.5t-140 28.5q-63 0 -116 -18t-89.5 -61.5t-36.5 -105.5q0 -61 54.5 -108t158.5 -47q17 0 33 -4.5 t16 -12.5q0 -9 -16 -33q-53 -6 -98 -6h-13q-75 -18 -156 -68.5t-152 -122t-117 -169t-46 -197.5q0 -164 77.5 -277.5t195.5 -113.5q62 0 133 35.5t129.5 92t97.5 133.5t39 153q0 18 -2 39t-2 26q0 18 15 24.5t61 6.5q35 0 58.5 -10t23.5 -29q0 -99 -48 -196t-126.5 -170.5 t-185 -119.5t-216.5 -46q-104 0 -188 38.5t-136 103t-80 144.5t-28 166zM526 1655q0 44 28 63t64 19q19 0 28.5 -1t18.5 -8t9 -22q0 -20 -15 -45q0 -18 -26 -30.5t-45 -12.5q-5 0 -15.5 -1t-15.5 -1q-31 0 -31 39zM823 1706q0 23 31 23q111 0 111 -68q0 -20 -30.5 -31.5 t-47.5 -11.5q-38 0 -51 22.5t-13 65.5z" />
<glyph unicode="&#xcc;" horiz-adv-x="1261" d="M-51 307q0 333 440 676q21 0 21 -20q-16 -15 -51 -46.5t-55 -50t-54 -52t-55.5 -57.5t-50.5 -60.5t-47.5 -67t-38.5 -70.5t-31.5 -78t-19 -83t-7.5 -91q0 -106 52 -176t153 -70q76 0 139 33.5t107 88t81 137t60.5 167.5t46.5 194t38 201.5t35 204.5t38 189 q-25 6 -96.5 41.5t-147.5 65.5t-129 30q-66 0 -95 -23t-30 -96q-1 -30 -4.5 -40t-19.5 -16.5t-54 -8.5q-24 0 -47 9t-23 30q0 192 267 192q55 0 125.5 -24.5t150 -58t129.5 -46.5q128 125 352 125q35 0 69.5 -3t78.5 -10.5t71 -25.5t27 -45q0 -24 -20 -42.5t-60.5 -29 t-78.5 -17.5t-99 -9.5t-94.5 -3t-91.5 -0.5q-27 -83 -54.5 -198t-47 -214.5t-48.5 -213.5t-58.5 -206.5t-77.5 -180t-106 -146.5t-143.5 -95t-189.5 -36q-126 0 -191 91t-65 236zM723 1845q0 17 53 17q72 0 152 -150q69 -94 63 -94q-38 0 -66 8t-49.5 28t-33 35.5 t-31.5 47.5q-38 62 -88 108zM956 1325q224 14 224 53q0 8 -13.5 14.5t-21.5 6.5q-87 0 -189 -74z" />
<glyph unicode="&#xcd;" horiz-adv-x="1261" d="M-51 307q0 333 440 676q21 0 21 -20q-16 -15 -51 -46.5t-55 -50t-54 -52t-55.5 -57.5t-50.5 -60.5t-47.5 -67t-38.5 -70.5t-31.5 -78t-19 -83t-7.5 -91q0 -106 52 -176t153 -70q76 0 139 33.5t107 88t81 137t60.5 167.5t46.5 194t38 201.5t35 204.5t38 189 q-25 6 -96.5 41.5t-147.5 65.5t-129 30q-66 0 -95 -23t-30 -96q-1 -30 -4.5 -40t-19.5 -16.5t-54 -8.5q-24 0 -47 9t-23 30q0 192 267 192q55 0 125.5 -24.5t150 -58t129.5 -46.5q128 125 352 125q35 0 69.5 -3t78.5 -10.5t71 -25.5t27 -45q0 -24 -20 -42.5t-60.5 -29 t-78.5 -17.5t-99 -9.5t-94.5 -3t-91.5 -0.5q-27 -83 -54.5 -198t-47 -214.5t-48.5 -213.5t-58.5 -206.5t-77.5 -180t-106 -146.5t-143.5 -95t-189.5 -36q-126 0 -191 91t-65 236zM784 1618q27 35 68 94q84 150 154 150q53 0 53 -17q-50 -46 -88 -108q-20 -32 -31.5 -47.5 t-34 -35.5t-51.5 -28t-70 -8zM956 1325q224 14 224 53q0 8 -13.5 14.5t-21.5 6.5q-87 0 -189 -74z" />
<glyph unicode="&#xce;" horiz-adv-x="1261" d="M-51 307q0 333 440 676q21 0 21 -20q-16 -15 -51 -46.5t-55 -50t-54 -52t-55.5 -57.5t-50.5 -60.5t-47.5 -67t-38.5 -70.5t-31.5 -78t-19 -83t-7.5 -91q0 -106 52 -176t153 -70q76 0 139 33.5t107 88t81 137t60.5 167.5t46.5 194t38 201.5t35 204.5t38 189 q-25 6 -96.5 41.5t-147.5 65.5t-129 30q-66 0 -95 -23t-30 -96q-1 -30 -4.5 -40t-19.5 -16.5t-54 -8.5q-24 0 -47 9t-23 30q0 192 267 192q55 0 125.5 -24.5t150 -58t129.5 -46.5q128 125 352 125q35 0 69.5 -3t78.5 -10.5t71 -25.5t27 -45q0 -24 -20 -42.5t-60.5 -29 t-78.5 -17.5t-99 -9.5t-94.5 -3t-91.5 -0.5q-27 -83 -54.5 -198t-47 -214.5t-48.5 -213.5t-58.5 -206.5t-77.5 -180t-106 -146.5t-143.5 -95t-189.5 -36q-126 0 -191 91t-65 236zM602 1614q0 24 39.5 78.5t78.5 97.5l40 43q7 7 20.5 12t36 9.5t25.5 5.5q21 -11 61.5 -92.5 t50.5 -139.5q-1 -13 -15 -24t-28 -11q-3 0 -14 11l-88 172h-10q-80 -86 -109 -136q-14 -23 -27.5 -33t-41.5 -10q-19 0 -19 17zM956 1325q224 14 224 53q0 8 -13.5 14.5t-21.5 6.5q-87 0 -189 -74z" />
<glyph unicode="&#xcf;" horiz-adv-x="1261" d="M-51 307q0 333 440 676q21 0 21 -20q-16 -15 -51 -46.5t-55 -50t-54 -52t-55.5 -57.5t-50.5 -60.5t-47.5 -67t-38.5 -70.5t-31.5 -78t-19 -83t-7.5 -91q0 -106 52 -176t153 -70q76 0 139 33.5t107 88t81 137t60.5 167.5t46.5 194t38 201.5t35 204.5t38 189 q-25 6 -96.5 41.5t-147.5 65.5t-129 30q-66 0 -95 -23t-30 -96q-1 -30 -4.5 -40t-19.5 -16.5t-54 -8.5q-24 0 -47 9t-23 30q0 192 267 192q55 0 125.5 -24.5t150 -58t129.5 -46.5q128 125 352 125q35 0 69.5 -3t78.5 -10.5t71 -25.5t27 -45q0 -24 -20 -42.5t-60.5 -29 t-78.5 -17.5t-99 -9.5t-94.5 -3t-91.5 -0.5q-27 -83 -54.5 -198t-47 -214.5t-48.5 -213.5t-58.5 -206.5t-77.5 -180t-106 -146.5t-143.5 -95t-189.5 -36q-126 0 -191 91t-65 236zM647 1655q0 44 28.5 63t63.5 19q19 0 28.5 -1t18.5 -8t9 -22q0 -20 -15 -45q0 -18 -26 -30.5 t-45 -12.5q-5 0 -15.5 -1t-15.5 -1q-31 0 -31 39zM944 1706q0 23 31 23q110 0 110 -68q0 -20 -30.5 -31.5t-46.5 -11.5q-38 0 -51 22.5t-13 65.5zM956 1325q224 14 224 53q0 8 -13.5 14.5t-21.5 6.5q-87 0 -189 -74z" />
<glyph unicode="&#xd0;" horiz-adv-x="1810" d="M-41 436q0 150 78 256.5t219 106.5q107 0 205 -79.5t176 -205.5q21 77 65 309h-313q-11 1 -17.5 9.5t-6.5 15.5q0 8 7 16t17 8h322q6 31 21 116t22.5 125t21 103.5t27 111t28.5 89.5q-98 -2 -196 -21t-180 -51t-133.5 -81t-51.5 -105q0 -39 -26 -81t-66 -42 q0 103 60.5 187.5t159.5 136.5t216.5 81.5t241.5 33.5q76 165 209 165q72 0 102.5 -7.5t30.5 -33.5q0 -20 -15.5 -36t-38.5 -29.5t-26 -15.5q-35 -35 -55 -66q162 -42 287.5 -159t190.5 -272.5t65 -320.5q0 -91 -23.5 -190t-71 -194t-111.5 -170.5t-153 -122t-188 -46.5 q-122 0 -213 66.5t-168 183.5q-38 -58 -74 -94q-135 -135 -278 -135q-87 0 -158.5 38t-116 101t-68.5 140t-24 159zM49 455q0 -86 33.5 -168t100.5 -138.5t151 -56.5q78 0 145.5 66t112.5 211l-6 12q-32 55 -54.5 92t-57.5 84.5t-65 76t-68 48.5t-75 20q-108 0 -162.5 -70.5 t-54.5 -176.5zM731 338q33 -59 63 -100.5t70.5 -80t92 -58t112.5 -19.5q82 0 153.5 62.5t116 157.5t70 199.5t25.5 194.5q0 96 -26.5 199t-76 199.5t-131.5 174.5t-182 115q-48 -92 -80.5 -212t-67.5 -298h220q10 0 17 -8t7 -16q0 -7 -6.5 -15.5t-17.5 -9.5h-230 q-63 -326 -129 -485z" />
<glyph unicode="&#xd1;" horiz-adv-x="1748" d="M-51 305q0 333 440 676q21 0 21 -20l-50 -46q-45 -40 -71 -64.5t-69 -68.5t-69.5 -78t-58.5 -83.5t-49.5 -95.5t-30 -103.5t-12.5 -116.5q0 -106 52 -176t153 -70q77 0 140.5 35t107.5 92.5t81 144t60.5 175t45.5 201t36 207t33 208t36 189.5l-40 45q-43 39 -108 68.5 t-122 29.5q-70 0 -130 -58.5t-60 -105.5q0 -7 -26 -15.5t-44 -8.5t-50 11.5t-32 20.5q0 38 48 84t130.5 79.5t165.5 33.5q266 0 402 -176q66 -85 119.5 -247.5t78 -293.5t37.5 -246l10 56q10 56 24.5 121.5t41 154t58 170.5t75.5 163.5t93.5 142t113.5 98t133 37.5 q93 0 151 -87t58 -180q-77 0 -90 105q-6 53 -38.5 87t-80.5 34q-71 0 -138.5 -92.5t-118 -238.5t-93 -310t-70.5 -324.5t-44 -264.5t-19 -145v-10q-3 -32 -24 -48.5t-69 -16.5q-19 5 -32 13.5t-19.5 16.5t-9.5 25.5t-3.5 27.5t-0.5 35q0 10 1 32t1 34q0 195 -44 439.5 t-87 397t-45 142.5q-10 -35 -22 -114.5t-23 -164t-33.5 -190t-50 -201t-74.5 -189t-105.5 -161t-144.5 -109t-190 -41.5q-126 0 -191 91.5t-65 236.5zM879 1681q13 49 60 89t105 40q41 0 84.5 -27.5t86.5 -55t83 -27.5q16 0 28.5 30.5t12.5 45.5q0 28 39 28q37 0 37 -32 q0 -65 -35.5 -104.5t-93.5 -39.5q-49 0 -89.5 16.5t-63 36t-51 36t-56.5 16.5q-18 0 -37.5 -13.5t-27.5 -29.5q-1 -20 -21 -35t-35 -15q-21 0 -26 41z" />
<glyph unicode="&#xd2;" horiz-adv-x="1140" d="M0 379q0 138 38 284.5t99.5 268.5t129.5 220.5t136 164.5q62 58 110 87.5t101 29.5q13 -17 13 -23q0 -8 -13 -18l-90 -84q-61 -58 -121 -148.5t-113 -208t-85.5 -265t-32.5 -296.5q0 -64 5.5 -119.5t19.5 -111.5t42.5 -88.5t69.5 -32.5q155 0 295 221q-84 67 -129 189 t-45 280q0 160 70.5 369.5t169.5 312.5q47 47 151 47q60 0 103.5 -30.5t67 -84t34 -116t10.5 -137.5q0 -201 -73 -434t-199 -406q16 -4 49 -4q106 0 183 55t141 152q13 26 30 26q15 0 15 -10q0 -8 -8 -16q-35 -57 -69.5 -99t-80 -80.5t-102.5 -58.5t-123 -20q-37 0 -72 6 q-186 -226 -412 -226q-64 0 -119.5 23.5t-100 70.5t-70 126.5t-25.5 183.5zM551 707q0 -276 88 -383q103 191 166 449.5t63 457.5q0 149 -47 149q-67 0 -131 -112t-101.5 -268t-37.5 -293zM621 1845q0 17 53 17q71 0 151 -150q66 -91 64 -94q-38 0 -66 8t-49.5 28t-33 35.5 t-31.5 47.5q-38 62 -88 108z" />
<glyph unicode="&#xd3;" horiz-adv-x="1140" d="M0 379q0 138 38 284.5t99.5 268.5t129.5 220.5t136 164.5q62 58 110 87.5t101 29.5q13 -17 13 -23q0 -8 -13 -18l-90 -84q-61 -58 -121 -148.5t-113 -208t-85.5 -265t-32.5 -296.5q0 -64 5.5 -119.5t19.5 -111.5t42.5 -88.5t69.5 -32.5q155 0 295 221q-84 67 -129 189 t-45 280q0 160 70.5 369.5t169.5 312.5q47 47 151 47q60 0 103.5 -30.5t67 -84t34 -116t10.5 -137.5q0 -201 -73 -434t-199 -406q16 -4 49 -4q106 0 183 55t141 152q13 26 30 26q15 0 15 -10q0 -8 -8 -16q-35 -57 -69.5 -99t-80 -80.5t-102.5 -58.5t-123 -20q-37 0 -72 6 q-186 -226 -412 -226q-64 0 -119.5 23.5t-100 70.5t-70 126.5t-25.5 183.5zM551 707q0 -276 88 -383q103 191 166 449.5t63 457.5q0 149 -47 149q-67 0 -131 -112t-101.5 -268t-37.5 -293zM768 1618q27 35 68 94q84 150 153 150q53 0 53 -17q-50 -46 -88 -108 q-20 -33 -31.5 -48t-33.5 -35t-51 -28t-70 -8z" />
<glyph unicode="&#xd4;" horiz-adv-x="1140" d="M0 379q0 138 38 284.5t99.5 268.5t129.5 220.5t136 164.5q62 58 110 87.5t101 29.5q13 -17 13 -23q0 -8 -13 -18l-90 -84q-61 -58 -121 -148.5t-113 -208t-85.5 -265t-32.5 -296.5q0 -64 5.5 -119.5t19.5 -111.5t42.5 -88.5t69.5 -32.5q155 0 295 221q-84 67 -129 189 t-45 280q0 160 70.5 369.5t169.5 312.5q47 47 151 47q60 0 103.5 -30.5t67 -84t34 -116t10.5 -137.5q0 -201 -73 -434t-199 -406q16 -4 49 -4q106 0 183 55t141 152q13 26 30 26q15 0 15 -10q0 -8 -8 -16q-35 -57 -69.5 -99t-80 -80.5t-102.5 -58.5t-123 -20q-37 0 -72 6 q-186 -226 -412 -226q-64 0 -119.5 23.5t-100 70.5t-70 126.5t-25.5 183.5zM551 707q0 -276 88 -383q103 191 166 449.5t63 457.5q0 149 -47 149q-67 0 -131 -112t-101.5 -268t-37.5 -293zM557 1614q0 24 39.5 78.5t79.5 97.5l39 43q7 7 20.5 12t36 9.5t25.5 5.5 q21 -11 61.5 -92.5t50.5 -139.5q-1 -13 -15 -24t-28 -11q-3 0 -14 11l-88 172h-10q-80 -86 -109 -136q-14 -23 -28 -33t-42 -10q-18 0 -18 17z" />
<glyph unicode="&#xd5;" horiz-adv-x="1140" d="M0 379q0 138 38 284.5t99.5 268.5t129.5 220.5t136 164.5q62 58 110 87.5t101 29.5q13 -17 13 -23q0 -8 -13 -18l-90 -84q-61 -58 -121 -148.5t-113 -208t-85.5 -265t-32.5 -296.5q0 -64 5.5 -119.5t19.5 -111.5t42.5 -88.5t69.5 -32.5q155 0 295 221q-84 67 -129 189 t-45 280q0 160 70.5 369.5t169.5 312.5q47 47 151 47q60 0 103.5 -30.5t67 -84t34 -116t10.5 -137.5q0 -201 -73 -434t-199 -406q16 -4 49 -4q106 0 183 55t141 152q13 26 30 26q15 0 15 -10q0 -8 -8 -16q-35 -57 -69.5 -99t-80 -80.5t-102.5 -58.5t-123 -20q-37 0 -72 6 q-186 -226 -412 -226q-64 0 -119.5 23.5t-100 70.5t-70 126.5t-25.5 183.5zM514 1681q13 49 60.5 89t105.5 40q41 0 84.5 -27.5t86.5 -55t83 -27.5q16 0 28.5 30.5t12.5 45.5q0 28 39 28q37 0 37 -32q0 -65 -35.5 -104.5t-93.5 -39.5q-49 0 -89.5 16.5t-63 36t-51 36 t-56.5 16.5q-18 0 -38 -13.5t-28 -29.5q-1 -20 -21 -35t-34 -15q-22 0 -27 41zM551 707q0 -276 88 -383q103 191 166 449.5t63 457.5q0 149 -47 149q-67 0 -131 -112t-101.5 -268t-37.5 -293z" />
<glyph unicode="&#xd6;" horiz-adv-x="1140" d="M0 379q0 138 38 284.5t99.5 268.5t129.5 220.5t136 164.5q62 58 110 87.5t101 29.5q13 -17 13 -23q0 -8 -13 -18l-90 -84q-61 -58 -121 -148.5t-113 -208t-85.5 -265t-32.5 -296.5q0 -64 5.5 -119.5t19.5 -111.5t42.5 -88.5t69.5 -32.5q155 0 295 221q-84 67 -129 189 t-45 280q0 160 70.5 369.5t169.5 312.5q47 47 151 47q60 0 103.5 -30.5t67 -84t34 -116t10.5 -137.5q0 -201 -73 -434t-199 -406q16 -4 49 -4q106 0 183 55t141 152q13 26 30 26q15 0 15 -10q0 -8 -8 -16q-35 -57 -69.5 -99t-80 -80.5t-102.5 -58.5t-123 -20q-37 0 -72 6 q-186 -226 -412 -226q-64 0 -119.5 23.5t-100 70.5t-70 126.5t-25.5 183.5zM551 707q0 -276 88 -383q103 191 166 449.5t63 457.5q0 149 -47 149q-67 0 -131 -112t-101.5 -268t-37.5 -293zM627 1655q0 44 28.5 63t63.5 19q19 0 28 -1t18 -8t9 -22q0 -22 -14 -45 q0 -18 -26 -30.5t-46 -12.5q-5 0 -15.5 -1t-15.5 -1q-30 0 -30 39zM924 1706q0 23 30 23q111 0 111 -68q0 -20 -30.5 -31.5t-47.5 -11.5q-38 0 -50.5 22.5t-12.5 65.5z" />
<glyph unicode="&#xd7;" horiz-adv-x="819" d="M86 260q0 9 4 21l264 237l-223 238q-2 2 -2 8q0 23 14 37q8 12 33 12q8 0 10 -2l228 -242l270 244q2 2 14 2q18 0 25 -10q8 -8 8 -33l-4 -12l-266 -240l221 -235q4 -8 4 -15q0 -17 -15.5 -32t-29.5 -15q-6 0 -12 6l-228 238l-266 -240q-8 -4 -16 -4q-19 0 -25 13 q-8 8 -8 24z" />
<glyph unicode="&#xd8;" horiz-adv-x="1142" d="M0 379q0 138 38 284.5t99.5 268.5t129.5 220.5t136 164.5q62 58 110 87.5t101 29.5q13 -17 13 -23q0 -8 -13 -18l-90 -84q-61 -58 -121 -148.5t-113 -208t-85.5 -265t-32.5 -296.5q0 -168 33 -256q90 245 233 701q15 120 58.5 252t101.5 229q63 158 118 219t128 61 q-4 -11 -13.5 -35.5t-19 -51t-18.5 -52.5h28q60 0 103.5 -30.5t67 -84t34 -116t10.5 -137.5q0 -201 -73 -434t-199 -406q16 -4 49 -4q107 0 184.5 54.5t141.5 152.5q13 26 30 26q15 0 15 -10q0 -8 -8 -16q-35 -57 -69.5 -99t-80.5 -80.5t-103.5 -58.5t-123.5 -20 q-37 0 -72 6q-186 -226 -412 -226q-6 0 -17.5 1t-16.5 1l-17 -51q-16 -49 -59 -49q-26 0 -76 25q-6 0 -6 10q0 19 18 55l19 49q-160 94 -160 363zM301 39h8q155 0 295 221q-99 77 -145 240zM551 707q0 -276 88 -383q103 191 166 449.5t63 457.5q0 149 -47 149q-31 0 -67 -28 q-57 -162 -201 -580q-2 -23 -2 -65z" />
<glyph unicode="&#xd9;" horiz-adv-x="1792" d="M133 1268q0 50 22 88t58 58.5t75 30t79 9.5q49 0 156 -48t159 -48q71 0 125 65q6 33 84 33q74 0 74 -10l-32 -93q-73 -220 -112 -329q-42 -115 -110 -381.5t-68 -431.5q0 -158 66 -158q55 0 145.5 126.5t181.5 307.5t174 361.5t135 307.5l52 126q1 1 2 4.5t2 5.5 q14 50 38.5 85t52.5 50.5t50 21t45 5.5l-23 -61q-108 -325 -163 -650q-37 -214 -37 -374q0 -58 7 -115.5t24 -118t51 -98t82 -37.5q49 0 93 20.5t74.5 49t63 77.5t51.5 86t48 97.5t45 89.5q20 0 20 -19q-11 -23 -31 -67t-33 -73t-35.5 -71t-42 -70t-48 -60t-58 -51.5 t-67.5 -33.5t-80 -16q-69 0 -121 26t-83 66t-50.5 96.5t-26 109.5t-6.5 112q0 163 14 297q-65 -137 -117.5 -237.5t-109 -190t-107 -144.5t-104 -87t-106.5 -32q-209 0 -209 289q0 147 59 372t137.5 453t87.5 263q-30 -49 -92 -49q-54 0 -173 52t-159 52q-92 0 -92 -141 q0 -57 39.5 -118.5t85.5 -88.5q0 -23 -51 -23q-57 0 -134 79.5t-77 152.5zM997 1845q0 17 54 17q71 0 151 -150q66 -91 64 -94q-38 0 -66 8t-49.5 27.5t-33.5 35.5t-32 48q-38 62 -88 108z" />
<glyph unicode="&#xda;" horiz-adv-x="1792" d="M133 1268q0 50 22 88t58 58.5t75 30t79 9.5q49 0 156 -48t159 -48q71 0 125 65q6 33 84 33q74 0 74 -10l-32 -93q-73 -220 -112 -329q-42 -115 -110 -381.5t-68 -431.5q0 -158 66 -158q55 0 145.5 126.5t181.5 307.5t174 361.5t135 307.5l52 126q1 1 2 4.5t2 5.5 q14 50 38.5 85t52.5 50.5t50 21t45 5.5l-23 -61q-108 -325 -163 -650q-37 -214 -37 -374q0 -58 7 -115.5t24 -118t51 -98t82 -37.5q49 0 93 20.5t74.5 49t63 77.5t51.5 86t48 97.5t45 89.5q20 0 20 -19q-11 -23 -31 -67t-33 -73t-35.5 -71t-42 -70t-48 -60t-58 -51.5 t-67.5 -33.5t-80 -16q-69 0 -121 26t-83 66t-50.5 96.5t-26 109.5t-6.5 112q0 163 14 297q-65 -137 -117.5 -237.5t-109 -190t-107 -144.5t-104 -87t-106.5 -32q-209 0 -209 289q0 147 59 372t137.5 453t87.5 263q-30 -49 -92 -49q-54 0 -173 52t-159 52q-92 0 -92 -141 q0 -57 39.5 -118.5t85.5 -88.5q0 -23 -51 -23q-57 0 -134 79.5t-77 152.5zM1157 1618q27 35 68 94q84 150 153 150q54 0 54 -17q-53 -48 -89 -108q-20 -33 -31.5 -48t-33.5 -35t-51 -28t-70 -8z" />
<glyph unicode="&#xdb;" horiz-adv-x="1792" d="M133 1268q0 50 22 88t58 58.5t75 30t79 9.5q49 0 156 -48t159 -48q71 0 125 65q6 33 84 33q74 0 74 -10l-32 -93q-73 -220 -112 -329q-42 -115 -110 -381.5t-68 -431.5q0 -158 66 -158q55 0 145.5 126.5t181.5 307.5t174 361.5t135 307.5l52 126q1 1 2 4.5t2 5.5 q14 50 38.5 85t52.5 50.5t50 21t45 5.5l-23 -61q-108 -325 -163 -650q-37 -214 -37 -374q0 -58 7 -115.5t24 -118t51 -98t82 -37.5q49 0 93 20.5t74.5 49t63 77.5t51.5 86t48 97.5t45 89.5q20 0 20 -19q-11 -23 -31 -67t-33 -73t-35.5 -71t-42 -70t-48 -60t-58 -51.5 t-67.5 -33.5t-80 -16q-69 0 -121 26t-83 66t-50.5 96.5t-26 109.5t-6.5 112q0 163 14 297q-65 -137 -117.5 -237.5t-109 -190t-107 -144.5t-104 -87t-106.5 -32q-209 0 -209 289q0 147 59 372t137.5 453t87.5 263q-30 -49 -92 -49q-54 0 -173 52t-159 52q-92 0 -92 -141 q0 -57 39.5 -118.5t85.5 -88.5q0 -23 -51 -23q-57 0 -134 79.5t-77 152.5zM1071 1614q0 24 39.5 78.5t79.5 97.5l39 43q7 7 20.5 12t36 9.5t25.5 5.5q21 -11 61.5 -92.5t50.5 -139.5q-1 -13 -15 -24t-28 -11q-3 0 -14 11l-88 172h-10q-80 -86 -109 -136q-14 -23 -27.5 -33 t-41.5 -10q-19 0 -19 17z" />
<glyph unicode="&#xdc;" horiz-adv-x="1792" d="M133 1268q0 50 22 88t58 58.5t75 30t79 9.5q49 0 156 -48t159 -48q71 0 125 65q6 33 84 33q74 0 74 -10l-32 -93q-73 -220 -112 -329q-42 -115 -110 -381.5t-68 -431.5q0 -158 66 -158q55 0 145.5 126.5t181.5 307.5t174 361.5t135 307.5l52 126q1 1 2 4.5t2 5.5 q14 50 38.5 85t52.5 50.5t50 21t45 5.5l-23 -61q-108 -325 -163 -650q-37 -214 -37 -374q0 -58 7 -115.5t24 -118t51 -98t82 -37.5q49 0 93 20.5t74.5 49t63 77.5t51.5 86t48 97.5t45 89.5q20 0 20 -19q-11 -23 -31 -67t-33 -73t-35.5 -71t-42 -70t-48 -60t-58 -51.5 t-67.5 -33.5t-80 -16q-69 0 -121 26t-83 66t-50.5 96.5t-26 109.5t-6.5 112q0 163 14 297q-65 -137 -117.5 -237.5t-109 -190t-107 -144.5t-104 -87t-106.5 -32q-209 0 -209 289q0 147 59 372t137.5 453t87.5 263q-30 -49 -92 -49q-54 0 -173 52t-159 52q-92 0 -92 -141 q0 -57 39.5 -118.5t85.5 -88.5q0 -23 -51 -23q-57 0 -134 79.5t-77 152.5zM1079 1655q0 44 28.5 63t63.5 19q19 0 28.5 -1t18.5 -8t9 -22q0 -20 -15 -45q0 -18 -26 -30.5t-45 -12.5q-5 0 -15.5 -1t-15.5 -1q-31 0 -31 39zM1376 1706q0 23 31 23q111 0 111 -68 q0 -20 -30.5 -31.5t-47.5 -11.5q-38 0 -51 22.5t-13 65.5z" />
<glyph unicode="&#xdd;" horiz-adv-x="1390" d="M133 1257q0 38 48 84t130.5 79.5t165.5 33.5q14 2 43 2q320 0 320 -442q0 -114 -28.5 -279.5t-63.5 -275.5l-29 -90q45 93 135.5 312t168.5 385t140 241q119 147 174 147q1 0 9.5 -1t15.5 -2.5t15 -4t13 -6.5t5 -10l-21 -72q-5 -16 -35 -88q-43 -126 -81 -270.5t-58 -235 t-55 -262.5q-53 -279 -103 -488q132 13 228 94.5t196 253.5l33 58q23 0 23 -10q0 -7 -2 -9l-35 -63q-41 -76 -83.5 -133.5t-97 -108.5t-123.5 -83t-151 -44q-2 -4 -2 -10q-44 -175 -93 -320.5t-109 -272t-131.5 -198t-145.5 -71.5q-78 0 -129 46t-70.5 114t-19.5 157 q0 132 54 246t138.5 187t182 115.5t190.5 47.5l233 994q-49 -92 -138.5 -300t-171.5 -378.5t-146 -243.5q-7 -41 -65 -61.5t-113 -20.5q-31 0 -31 6q0 25 41 111q65 137 138 417t73 502q0 377 -240 377q-70 0 -130 -58.5t-60 -105.5q0 -7 -26 -15.5t-44 -8.5t-50 11.5 t-32 20.5zM455 -573q0 -33 6 -73.5t18 -80.5t33 -67t47 -27q46 0 105.5 116.5t113.5 286t105 377.5q-78 -8 -153.5 -49t-137 -108t-99.5 -165t-38 -210zM850 1618q27 35 68 94q84 150 153 150q53 0 53 -17q-50 -46 -88 -108q-20 -33 -31.5 -48t-33.5 -35t-51 -28t-70 -8z " />
<glyph unicode="&#xde;" horiz-adv-x="1441" d="M-143 758q0 96 52.5 175.5t141 131.5t195 84.5t223.5 42.5q10 45 18 76.5t23 80t30 82.5t38 72.5t48.5 62.5t60 40t73.5 16q72 0 102.5 -7.5t30.5 -33.5q0 -20 -15.5 -36.5t-38.5 -30t-26 -15.5q-50 -52 -100 -151q-38 -78 -62 -154q627 -13 627 -258q0 -63 -54.5 -117 t-137.5 -89.5t-185.5 -62t-193 -38.5t-166.5 -15q-23 -196 -62 -346q-19 -58 -31.5 -92t-32.5 -76.5t-40.5 -65t-50 -38.5t-64.5 -16q-73 0 -103 7t-30 33q0 20 15.5 36.5t38.5 30t26 15.5q41 46 67 95t36.5 84.5t27.5 107.5q31 134 62.5 389.5t54.5 356.5 q-126 -8 -238.5 -39.5t-190 -88.5t-77.5 -126q0 -39 -26 -81t-66 -42zM547 659q114 3 235 39t209 100.5t88 137.5q0 51 -28.5 89t-71 59t-106 34t-118 16.5t-122.5 4.5q-13 -45 -23.5 -91.5t-20 -103t-14.5 -89t-15 -103.5t-13 -93z" />
<glyph unicode="&#xdf;" horiz-adv-x="907" d="M-295 -428q11 8 27 8q36 0 73 -49q1 0 4.5 -1t4.5 -1q57 0 124 241q25 88 116 482q1 7 3 14q11 46 63.5 283t78.5 338q17 64 31.5 113t36.5 109t45 104.5t55 89t67.5 72.5t81.5 45.5t98 17.5q86 0 133.5 -57t47.5 -117q0 -70 -25 -130.5t-60.5 -101.5t-71 -77.5 t-60.5 -76t-25 -79.5q0 -25 25.5 -78.5t55.5 -109.5t55.5 -135t25.5 -148q0 -36 -9.5 -79t-31 -91t-52.5 -87.5t-79 -65t-105 -25.5q-85 0 -140.5 52.5t-55.5 135.5q0 48 18.5 85.5t44.5 41.5q47 0 47 -14q-26 -74 -26 -119q0 -65 39.5 -103.5t74.5 -38.5q60 0 103 86.5 t43 219.5q0 58 -22 129.5t-48 125.5t-48 108.5t-22 82.5q0 52 23.5 104.5t56.5 96t66 86t56.5 90.5t23.5 94q0 34 -18 74.5t-50 40.5q-52 0 -104 -70t-91.5 -173t-78.5 -239t-63.5 -248t-48.5 -222t-32 -140q-4 -16 -22 -90t-34 -133t-42 -145.5t-54 -152t-61.5 -127 t-74 -95t-82.5 -33.5q-61 0 -86 25.5t-25 56.5z" />
<glyph unicode="&#xe0;" horiz-adv-x="724" d="M-6 68q0 147 100 327q106 189 259 337t247 179q31 68 51 88q36 27 76 27q48 0 51 -49q2 -2 2 -8q0 -25 -80 -160q-54 -83 -116 -278.5t-62 -337.5q0 -104 39 -152q12 0 27.5 10.5t37 37.5t38.5 50t48 73.5t49.5 81.5t57.5 97l17 29q20 0 20 -19q-24 -42 -57.5 -103.5 t-52 -94t-44 -75.5t-44 -65t-42 -44t-47.5 -30.5t-51 -8.5q-86 0 -86 221v88l-31 -45q-39 -53 -65.5 -86t-70.5 -80t-86 -71.5t-79 -24.5q-55 0 -80.5 24t-25.5 62zM104 47q3 -6 5 -6q97 0 343 492q40 81 42 81l69 191q-114 -97 -254 -289q-77 -104 -139 -232.5t-66 -236.5z M502 1337q0 17 53 17q28 0 75 -49t84.5 -104t55.5 -91q-38 0 -66 8t-49.5 28t-33 35.5t-31.5 47.5q-38 62 -88 108z" />
<glyph unicode="&#xe1;" horiz-adv-x="731" d="M-6 68q0 147 100 327q106 189 259 337t247 179q31 68 51 88q36 27 76 27q48 0 51 -49q2 -2 2 -8q0 -25 -80 -160q-54 -83 -116 -278.5t-62 -337.5q0 -104 39 -152q12 0 27.5 10.5t37 37.5t38.5 50t48 73.5t49.5 81.5t57.5 97l17 29q20 0 20 -19q-24 -42 -57.5 -103.5 t-52 -94t-44 -75.5t-44 -65t-42 -44t-47.5 -30.5t-51 -8.5q-86 0 -86 221v88l-31 -45q-39 -53 -65.5 -86t-70.5 -80t-86 -71.5t-79 -24.5q-55 0 -80.5 24t-25.5 62zM104 47q3 -6 5 -6q97 0 343 492q40 81 42 81l69 191q-114 -97 -254 -289q-77 -104 -139 -232.5t-66 -236.5z M588 1112q26 35 67 94q84 150 154 150q53 0 53 -17q-50 -46 -88 -108q-20 -33 -31.5 -48t-33.5 -35t-51 -28t-70 -8z" />
<glyph unicode="&#xe2;" horiz-adv-x="724" d="M-6 68q0 147 100 327q106 189 259 337t247 179q31 68 51 88q36 27 76 27q48 0 51 -49q2 -2 2 -8q0 -25 -80 -160q-54 -83 -116 -278.5t-62 -337.5q0 -104 39 -152q12 0 27.5 10.5t37 37.5t38.5 50t48 73.5t49.5 81.5t57.5 97l17 29q20 0 20 -19q-24 -42 -57.5 -103.5 t-52 -94t-44 -75.5t-44 -65t-42 -44t-47.5 -30.5t-51 -8.5q-86 0 -86 221v88l-31 -45q-39 -53 -65.5 -86t-70.5 -80t-86 -71.5t-79 -24.5q-55 0 -80.5 24t-25.5 62zM104 47q3 -6 5 -6q97 0 343 492q40 81 42 81l69 191q-114 -97 -254 -289q-77 -104 -139 -232.5t-66 -236.5z M401 1116q0 24 39.5 78.5t79.5 97.5l39 43q7 7 20.5 12t36 9.5t25.5 5.5q21 -11 62 -92.5t51 -139.5q-1 -13 -15 -23.5t-28 -10.5q-5 0 -15 10l-88 172h-10q-81 -87 -109 -135q-14 -23 -27.5 -33t-41.5 -10q-19 0 -19 16z" />
<glyph unicode="&#xe3;" horiz-adv-x="724" d="M-6 68q0 147 100 327q106 189 259 337t247 179q31 68 51 88q36 27 76 27q48 0 51 -49q2 -2 2 -8q0 -25 -80 -160q-54 -83 -116 -278.5t-62 -337.5q0 -104 39 -152q12 0 27.5 10.5t37 37.5t38.5 50t48 73.5t49.5 81.5t57.5 97l17 29q20 0 20 -19q-24 -42 -57.5 -103.5 t-52 -94t-44 -75.5t-44 -65t-42 -44t-47.5 -30.5t-51 -8.5q-86 0 -86 221v88l-31 -45q-39 -53 -65.5 -86t-70.5 -80t-86 -71.5t-79 -24.5q-55 0 -80.5 24t-25.5 62zM104 47q3 -6 5 -6q97 0 343 492q40 81 42 81l69 191q-114 -97 -254 -289q-77 -104 -139 -232.5t-66 -236.5z M414 1169q13 49 60.5 89t105.5 40q41 0 84.5 -27.5t86.5 -55t83 -27.5q16 0 28 30.5t12 45.5q0 28 39 28q37 0 37 -32q0 -65 -35.5 -104.5t-93.5 -39.5q-49 0 -89.5 16.5t-63 36t-51 36t-56.5 16.5q-18 0 -37.5 -13.5t-27.5 -29.5q-1 -20 -21 -35t-35 -15q-21 0 -26 41z" />
<glyph unicode="&#xe4;" horiz-adv-x="724" d="M-6 68q0 147 100 327q106 189 259 337t247 179q31 68 51 88q36 27 76 27q48 0 51 -49q2 -2 2 -8q0 -25 -80 -160q-54 -83 -116 -278.5t-62 -337.5q0 -104 39 -152q12 0 27.5 10.5t37 37.5t38.5 50t48 73.5t49.5 81.5t57.5 97l17 29q20 0 20 -19q-24 -42 -57.5 -103.5 t-52 -94t-44 -75.5t-44 -65t-42 -44t-47.5 -30.5t-51 -8.5q-86 0 -86 221v88l-31 -45q-39 -53 -65.5 -86t-70.5 -80t-86 -71.5t-79 -24.5q-55 0 -80.5 24t-25.5 62zM104 47q3 -6 5 -6q97 0 343 492q40 81 42 81l69 191q-114 -97 -254 -289q-77 -104 -139 -232.5t-66 -236.5z M506 1202q0 44 28 63t64 19q19 0 28 -1t18 -8t9 -22q0 -22 -14 -45q0 -18 -26 -30.5t-46 -12.5q-5 0 -15 -1t-15 -1q-31 0 -31 39zM762 1253q0 23 31 23q110 0 110 -68q0 -20 -30.5 -31.5t-47.5 -11.5q-38 0 -50.5 22.5t-12.5 65.5z" />
<glyph unicode="&#xe5;" horiz-adv-x="724" d="M-6 68q0 147 100 327q106 189 259 337t247 179q31 68 51 88q36 27 76 27q48 0 51 -49q2 -2 2 -8q0 -25 -80 -160q-54 -83 -116 -278.5t-62 -337.5q0 -104 39 -152q12 0 27.5 10.5t37 37.5t38.5 50t48 73.5t49.5 81.5t57.5 97l17 29q20 0 20 -19q-24 -42 -57.5 -103.5 t-52 -94t-44 -75.5t-44 -65t-42 -44t-47.5 -30.5t-51 -8.5q-86 0 -86 221v88l-31 -45q-39 -53 -65.5 -86t-70.5 -80t-86 -71.5t-79 -24.5q-55 0 -80.5 24t-25.5 62zM104 47q3 -6 5 -6q97 0 343 492q40 81 42 81l69 191q-114 -97 -254 -289q-77 -104 -139 -232.5t-66 -236.5z M401 1133q0 67 41.5 121.5t104.5 84.5q26 13 41 13q8 0 8 -9q0 -16 -8 -24q47 -3 85 -32t38 -77q0 -68 -57.5 -123t-131.5 -55q-47 0 -84 23t-37 78zM485 1135q0 -22 12.5 -37t22.5 -15q43 0 83 52t40 88q0 41 -74 47q-84 -75 -84 -135z" />
<glyph unicode="&#xe6;" horiz-adv-x="923" d="M-6 68q0 147 100 327q106 189 259 337t247 179q31 68 51 88q36 27 76 27q48 0 51 -49q2 -2 2 -8q0 -13 -18 -54q62 -10 107.5 -40t45.5 -74q0 -56 -84.5 -93.5t-193.5 -37.5q-85 -221 -111 -404q0 -38 5 -71t17 -65t36 -50.5t57 -18.5q203 0 393 359q21 0 21 -19 q-120 -231 -228.5 -326t-232.5 -95q-44 0 -78 20t-53.5 52.5t-29 67.5t-9.5 70v27q0 39 8 72l-31 -45q-39 -53 -65.5 -86t-70.5 -80t-86 -71.5t-79 -24.5q-55 0 -80.5 24t-25.5 62zM104 47q3 -6 5 -6q97 0 343 492q40 81 42 81l69 191q-114 -97 -254 -289 q-77 -104 -139 -232.5t-66 -236.5zM666 741q44 6 87 22.5t52 41.5q0 26 -84 37l-21 -33q-17 -28 -34 -68z" />
<glyph unicode="&#xe7;" horiz-adv-x="540" d="M61 199q0 93 27 198t69 195t88.5 164t90.5 121q61 65 98 65q56 0 86.5 -53.5t30.5 -120.5q0 -47 -19 -85t-45 -42q-47 0 -47 14q27 77 27 119q0 45 -6 74q-113 -122 -185.5 -304.5t-72.5 -348.5q0 -92 26 -132q10 -2 29 -2q203 0 393 359q21 0 21 -19 q-94 -182 -180.5 -277.5t-176.5 -127.5l-22 -88q61 -14 91 -54t30 -83q0 -64 -52 -103t-129 -39q-62 0 -95.5 49t-33.5 101q0 16 2 24q0 10 7.5 16.5t15.5 6.5q16 0 16 -21q0 -48 23 -91.5t72 -43.5q36 0 62 30.5t26 68.5q0 35 -19 65.5t-55 30.5q-23 0 -23 31q0 24 17 86 q-6 0 -18.5 -1t-18.5 -1q-21 0 -43 8t-48 28.5t-42.5 67.5t-16.5 115z" />
<glyph unicode="&#xe8;" horiz-adv-x="561" d="M61 190q0 189 263 744q16 8 43 8q66 0 137 -41.5t71 -89.5q0 -38 -47.5 -68t-101.5 -43.5t-98 -15.5q-36 -93 -58 -156t-44.5 -157t-22.5 -162q0 -33 1 -50.5t4.5 -39.5t11.5 -32.5t22.5 -18t36.5 -7.5q203 0 393 359q20 0 20 -19q-120 -231 -228.5 -326t-232.5 -95 q-44 0 -78 20t-53.5 52.5t-29 67.5t-9.5 70zM346 754q3 1 16.5 5t21 6.5t21.5 7t22.5 9t17.5 9.5t14 11.5t6 12.5q0 16 -26.5 33.5t-53.5 17.5q-26 -62 -39 -112zM369 1341q0 17 53 17q28 0 75 -49t84.5 -104t55.5 -91q-38 0 -66 8t-49.5 28t-33 35.5t-31.5 47.5 q-38 62 -88 108z" />
<glyph unicode="&#xe9;" horiz-adv-x="561" d="M61 190q0 189 263 744q16 8 43 8q66 0 137 -41.5t71 -89.5q0 -38 -47.5 -68t-101.5 -43.5t-98 -15.5q-36 -93 -58 -156t-44.5 -157t-22.5 -162q0 -33 1 -50.5t4.5 -39.5t11.5 -32.5t22.5 -18t36.5 -7.5q203 0 393 359q20 0 20 -19q-120 -231 -228.5 -326t-232.5 -95 q-44 0 -78 20t-53.5 52.5t-29 67.5t-9.5 70zM346 754q3 1 16.5 5t21 6.5t21.5 7t22.5 9t17.5 9.5t14 11.5t6 12.5q0 16 -26.5 33.5t-53.5 17.5q-26 -62 -39 -112zM440 1112q27 35 68 94q84 150 154 150q53 0 53 -17q-50 -46 -88 -108q-20 -32 -31.5 -47.5t-34 -35.5 t-51.5 -28t-70 -8z" />
<glyph unicode="&#xea;" horiz-adv-x="561" d="M61 190q0 189 263 744q16 8 43 8q66 0 137 -41.5t71 -89.5q0 -38 -47.5 -68t-101.5 -43.5t-98 -15.5q-36 -93 -58 -156t-44.5 -157t-22.5 -162q0 -33 1 -50.5t4.5 -39.5t11.5 -32.5t22.5 -18t36.5 -7.5q203 0 393 359q20 0 20 -19q-120 -231 -228.5 -326t-232.5 -95 q-44 0 -78 20t-53.5 52.5t-29 67.5t-9.5 70zM307 1116q0 24 39.5 78.5t79.5 97.5l39 43q7 7 20.5 12t36 9.5t25.5 5.5q21 -11 61.5 -92.5t50.5 -139.5q-1 -13 -15 -23.5t-28 -10.5q-4 0 -14 10l-88 172h-10q-81 -87 -109 -135q-14 -23 -27.5 -33t-41.5 -10q-19 0 -19 16z M346 754q3 1 16.5 5t21 6.5t21.5 7t22.5 9t17.5 9.5t14 11.5t6 12.5q0 16 -26.5 33.5t-53.5 17.5q-26 -62 -39 -112z" />
<glyph unicode="&#xeb;" horiz-adv-x="561" d="M61 190q0 189 263 744q16 8 43 8q66 0 137 -41.5t71 -89.5q0 -38 -47.5 -68t-101.5 -43.5t-98 -15.5q-36 -93 -58 -156t-44.5 -157t-22.5 -162q0 -33 1 -50.5t4.5 -39.5t11.5 -32.5t22.5 -18t36.5 -7.5q203 0 393 359q20 0 20 -19q-120 -231 -228.5 -326t-232.5 -95 q-44 0 -78 20t-53.5 52.5t-29 67.5t-9.5 70zM272 1202q0 44 28.5 63t64.5 19q19 0 28 -1t18 -8t9 -22q0 -22 -14 -45q0 -18 -26 -30.5t-46 -12.5q-5 0 -15.5 -1t-15.5 -1q-31 0 -31 39zM346 754q3 1 16.5 5t21 6.5t21.5 7t22.5 9t17.5 9.5t14 11.5t6 12.5q0 16 -26.5 33.5 t-53.5 17.5q-26 -62 -39 -112zM528 1253q0 23 31 23q111 0 111 -68q0 -20 -30.5 -31.5t-47.5 -11.5q-38 0 -51 22.5t-13 65.5z" />
<glyph unicode="&#xec;" horiz-adv-x="391" d="M84 174q0 107 26 234t63 230t71.5 179t56.5 107q11 11 35.5 18.5t44.5 7.5q15 0 21 -7.5t6 -27.5v-14q-106 -236 -167 -432.5t-61 -382.5q3 -39 27 -45q11 0 23.5 8t29.5 27t32 37.5t39.5 55t42 63t50 76t53.5 81.5l21 31q24 0 24 -12q0 -1 -1 -3.5t-1 -3.5 q-28 -45 -64 -104t-57 -93.5t-48.5 -76t-47 -64t-43.5 -44t-48.5 -30.5t-51.5 -9q-76 0 -76 194zM246 1341q0 17 53 17q28 0 75 -49t84.5 -104t55.5 -91q-38 0 -66 8t-49.5 28t-33 35.5t-31.5 47.5q-38 62 -88 108z" />
<glyph unicode="&#xed;" horiz-adv-x="395" d="M84 174q0 107 26 234t63 230t71.5 179t56.5 107q11 11 35.5 18.5t44.5 7.5q15 0 21 -7.5t6 -27.5v-14q-106 -236 -167 -432.5t-61 -382.5q3 -39 27 -45q11 0 23.5 8t29.5 27t32 37.5t39.5 55t42 63t50 76t53.5 81.5l21 31q24 0 24 -12q0 -1 -1 -3.5t-1 -3.5 q-28 -45 -64 -104t-57 -93.5t-48.5 -76t-47 -64t-43.5 -44t-48.5 -30.5t-51.5 -9q-76 0 -76 194zM399 1112q27 35 68 94q84 150 154 150q53 0 53 -17q-50 -46 -88 -108q-20 -32 -31.5 -47.5t-34 -35.5t-51.5 -28t-70 -8z" />
<glyph unicode="&#xee;" horiz-adv-x="393" d="M84 174q0 107 26 234t63 230t71.5 179t56.5 107q11 11 35.5 18.5t44.5 7.5q15 0 21 -7.5t6 -27.5v-14q-106 -236 -167 -432.5t-61 -382.5q3 -39 27 -45q11 0 23.5 8t29.5 27t32 37.5t39.5 55t42 63t50 76t53.5 81.5l21 31q24 0 24 -12q0 -1 -1 -3.5t-1 -3.5 q-28 -45 -64 -104t-57 -93.5t-48.5 -76t-47 -64t-43.5 -44t-48.5 -30.5t-51.5 -9q-76 0 -76 194zM225 1116q0 24 39.5 78.5t79.5 97.5l39 43q7 7 20.5 12t36 9.5t25.5 5.5q21 -11 62 -92.5t51 -139.5q-1 -13 -15 -23.5t-28 -10.5q-5 0 -15 10l-88 172h-10q-81 -87 -109 -135 q-14 -23 -27.5 -33t-41.5 -10q-19 0 -19 16z" />
<glyph unicode="&#xef;" horiz-adv-x="387" d="M84 174q0 107 26 234t63 230t71.5 179t56.5 107q11 11 35.5 18.5t44.5 7.5q15 0 21 -7.5t6 -27.5v-14q-106 -236 -167 -432.5t-61 -382.5q3 -39 27 -45q11 0 23.5 8t29.5 27t32 37.5t39.5 55t42 63t50 76t53.5 81.5l21 31q24 0 24 -12q0 -1 -1 -3.5t-1 -3.5 q-28 -45 -64 -104t-57 -93.5t-48.5 -76t-47 -64t-43.5 -44t-48.5 -30.5t-51.5 -9q-76 0 -76 194zM231 1202q0 44 28.5 63t64.5 19q19 0 28 -1t18 -8t9 -22q0 -22 -14 -45q0 -18 -26 -30.5t-46 -12.5q-5 0 -15.5 -1t-15.5 -1q-31 0 -31 39zM487 1253q0 23 31 23 q111 0 111 -68q0 -20 -30.5 -31.5t-47.5 -11.5q-38 0 -51 22.5t-13 65.5z" />
<glyph unicode="&#xf0;" horiz-adv-x="591" d="M-2 66q0 147 100 327q111 197 258 358.5t234 190.5q14 35 20 65t7 47.5t1 59.5q0 23 -2 33q-36 -18 -43 -25l-11 -6q-11 -6 -28 -15t-34 -20t-29 -23t-12 -22q0 -1 1 -3t1 -3t1 -3t1 -3q0 -9 -11 -20t-26 -17q-6 -4 -23 -4q-20 0 -28 18q-6 15 -6 19q0 21 15 44 t31.5 38.5t49 36.5t46 28.5t44.5 24.5l53 25q-14 64 -40.5 101.5t-59.5 37.5q-163 0 -232 -244q-3 -9 -5.5 -22t-4.5 -17q-9 -22 -53 -24q-18 0 -18 28q0 23 12 58q15 44 42.5 92t65.5 94t89 77t102 34h8q148 0 193 -172q112 49 151 49h19q15 0 20 -11q2 -6 2 -14t-6 -14 q-3 -2 -10 -4t-11 -4q-24 -9 -83 -35.5t-72 -32.5q4 -46 4 -70q0 -159 -57.5 -360.5t-144.5 -374t-200 -291t-215 -118.5q-55 0 -80.5 24t-25.5 62zM109 45q3 -6 4 -6q59 0 160.5 149t187 339t108.5 313q-91 -77 -272 -326q-70 -95 -127 -226.5t-61 -242.5z" />
<glyph unicode="&#xf1;" horiz-adv-x="913" d="M109 420q52 100 80.5 154.5t65 119t58.5 96t48.5 62t48.5 41t45 10.5h8q41 -4 51 -39q4 -4 4 -16q0 -36 -33.5 -142t-79.5 -235t-57 -164l348 559q45 72 107 72h28q21 0 35 -6.5t19 -16.5t6.5 -16t1.5 -12q0 -44 -55 -209q-2 -5 -6 -15.5t-5 -13.5q0 -1 -14.5 -38 t-29 -78t-30.5 -95t-26 -111.5t-10 -105.5q0 -103 6 -138.5t27 -41.5q12 0 27.5 10.5t36.5 37.5t38.5 50t48.5 73.5t49.5 81.5t57.5 97l16 29q20 0 20 -19q-24 -43 -57.5 -103.5t-52 -94t-44 -75.5t-44 -64.5t-41.5 -44.5t-47 -30.5t-51 -8.5q-89 0 -89 241 q0 139 56.5 311.5t95.5 245.5q-67 -96 -244.5 -366t-265.5 -394q-13 -18 -57 -18q-56 0 -56 31q0 79 105 350q118 295 137 397q-57 -52 -104 -119.5t-93 -149.5t-63 -108q-9 0 -14.5 5.5t-5.5 13.5zM492 1169q13 49 60 89t105 40q41 0 84.5 -27.5t86.5 -55t83 -27.5 q16 0 28.5 30.5t12.5 45.5q0 28 39 28q37 0 37 -32q0 -65 -35.5 -104.5t-93.5 -39.5q-49 0 -89.5 16.5t-63 36t-51 36t-56.5 16.5q-18 0 -38 -13.5t-28 -29.5q-1 -20 -21 -35t-34 -15q-21 0 -26 41z" />
<glyph unicode="&#xf2;" d="M4 238q0 172 90 353.5t197 276.5q37 32 84.5 52t87.5 20q29 0 35 -14q44 26 90 26q35 0 60.5 -12.5t41 -32.5t25 -50t13 -60.5t3.5 -69.5q0 -230 -110 -446q119 0 208 139q21 0 21 -19q-50 -76 -115.5 -117t-134.5 -44q-36 -59 -71 -104t-80 -86t-100 -63t-116 -22 q-99 0 -164 67.5t-65 205.5zM147 246q0 -57 8 -102t27 -75t47 -30q58 0 111.5 54t126.5 173q-131 76 -131 332q0 65 31 149.5t82 139.5l-64 -43q-92 -88 -165 -255t-73 -343zM389 1341q0 17 53 17q28 0 75 -49t84.5 -104t55.5 -91q-38 0 -66 8t-49.5 28t-33 35.5t-31.5 47.5 q-38 62 -88 108zM446 598q0 -205 56 -270q112 250 112 440v7q0 30 -0.5 42.5t-3 26.5t-7.5 18t-15 4q-34 0 -62.5 -31.5t-45 -76.5t-25.5 -88t-9 -72z" />
<glyph unicode="&#xf3;" d="M4 238q0 172 90 353.5t197 276.5q37 32 84.5 52t87.5 20q29 0 35 -14q44 26 90 26q35 0 60.5 -12.5t41 -32.5t25 -50t13 -60.5t3.5 -69.5q0 -230 -110 -446q119 0 208 139q21 0 21 -19q-50 -76 -115.5 -117t-134.5 -44q-36 -59 -71 -104t-80 -86t-100 -63t-116 -22 q-99 0 -164 67.5t-65 205.5zM147 246q0 -57 8 -102t27 -75t47 -30q58 0 111.5 54t126.5 173q-131 76 -131 332q0 65 31 149.5t82 139.5l-64 -43q-92 -88 -165 -255t-73 -343zM446 598q0 -205 56 -270q112 250 112 440v7q0 30 -0.5 42.5t-3 26.5t-7.5 18t-15 4 q-34 0 -62.5 -31.5t-45 -76.5t-25.5 -88t-9 -72zM539 1114q26 35 67 94q84 150 154 150q53 0 53 -17q-50 -46 -88 -108q-20 -33 -31.5 -48t-33.5 -35t-51 -28t-70 -8z" />
<glyph unicode="&#xf4;" d="M4 238q0 172 90 353.5t197 276.5q37 32 84.5 52t87.5 20q29 0 35 -14q44 26 90 26q35 0 60.5 -12.5t41 -32.5t25 -50t13 -60.5t3.5 -69.5q0 -230 -110 -446q119 0 208 139q21 0 21 -19q-50 -76 -115.5 -117t-134.5 -44q-36 -59 -71 -104t-80 -86t-100 -63t-116 -22 q-99 0 -164 67.5t-65 205.5zM147 246q0 -57 8 -102t27 -75t47 -30q58 0 111.5 54t126.5 173q-131 76 -131 332q0 65 31 149.5t82 139.5l-64 -43q-92 -88 -165 -255t-73 -343zM399 1116q0 24 39.5 78.5t79.5 97.5l39 43q7 7 20.5 12t36 9.5t25.5 5.5q21 -11 62 -92.5 t51 -139.5q-1 -13 -15 -23.5t-28 -10.5q-5 0 -15 10l-88 172h-10q-81 -87 -109 -135q-14 -23 -27.5 -33t-41.5 -10q-19 0 -19 16zM446 598q0 -205 56 -270q112 250 112 440v7q0 30 -0.5 42.5t-3 26.5t-7.5 18t-15 4q-34 0 -62.5 -31.5t-45 -76.5t-25.5 -88t-9 -72z" />
<glyph unicode="&#xf5;" d="M4 238q0 172 90 353.5t197 276.5q37 32 84.5 52t87.5 20q29 0 35 -14q44 26 90 26q35 0 60.5 -12.5t41 -32.5t25 -50t13 -60.5t3.5 -69.5q0 -230 -110 -446q119 0 208 139q21 0 21 -19q-50 -76 -115.5 -117t-134.5 -44q-36 -59 -71 -104t-80 -86t-100 -63t-116 -22 q-99 0 -164 67.5t-65 205.5zM147 246q0 -57 8 -102t27 -75t47 -30q58 0 111.5 54t126.5 173q-131 76 -131 332q0 65 31 149.5t82 139.5l-64 -43q-92 -88 -165 -255t-73 -343zM301 1169q13 49 60.5 89t105.5 40q41 0 84.5 -27.5t86.5 -55t83 -27.5q16 0 28.5 30.5t12.5 45.5 q0 28 39 28q37 0 37 -32q0 -65 -35.5 -104.5t-93.5 -39.5q-49 0 -89.5 16.5t-63 36t-51 36t-56.5 16.5q-18 0 -38 -13.5t-28 -29.5q-1 -20 -21 -35t-34 -15q-22 0 -27 41zM446 598q0 -205 56 -270q112 250 112 440v7q0 30 -0.5 42.5t-3 26.5t-7.5 18t-15 4 q-34 0 -62.5 -31.5t-45 -76.5t-25.5 -88t-9 -72z" />
<glyph unicode="&#xf6;" d="M4 238q0 172 90 353.5t197 276.5q37 32 84.5 52t87.5 20q29 0 35 -14q44 26 90 26q35 0 60.5 -12.5t41 -32.5t25 -50t13 -60.5t3.5 -69.5q0 -230 -110 -446q119 0 208 139q21 0 21 -19q-50 -76 -115.5 -117t-134.5 -44q-36 -59 -71 -104t-80 -86t-100 -63t-116 -22 q-99 0 -164 67.5t-65 205.5zM147 246q0 -57 8 -102t27 -75t47 -30q58 0 111.5 54t126.5 173q-131 76 -131 332q0 65 31 149.5t82 139.5l-64 -43q-92 -88 -165 -255t-73 -343zM446 598q0 -205 56 -270q112 250 112 440v7q0 30 -0.5 42.5t-3 26.5t-7.5 18t-15 4 q-34 0 -62.5 -31.5t-45 -76.5t-25.5 -88t-9 -72zM446 1202q0 44 28.5 63t64.5 19q19 0 28 -1t18 -8t9 -22q0 -22 -14 -45q0 -18 -26 -30.5t-46 -12.5q-5 0 -15.5 -1t-15.5 -1q-31 0 -31 39zM702 1253q0 23 31 23q111 0 111 -68q0 -20 -30.5 -31.5t-47.5 -11.5 q-38 0 -51 22.5t-13 65.5z" />
<glyph unicode="&#xf7;" horiz-adv-x="851" d="M61 561q2 7 9.5 15t15.5 8t70.5 -4t70.5 -7h547q17 0 17 -34q-14 -41 -33 -41h-680q-8 1 -12.5 24t-4.5 39zM297 176q0 35 22.5 58.5t69.5 23.5q31 0 47.5 -20t16.5 -45q-3 -27 -27.5 -49.5t-56.5 -22.5q-35 0 -53.5 18.5t-18.5 36.5zM449 825q0 34 22 56t70 22 q31 0 46 -16t15 -41q0 -30 -23 -55t-59 -25q-35 0 -53 20t-18 39z" />
<glyph unicode="&#xf8;" d="M4 238q0 172 90 353.5t197 276.5q66 60 149 70l6 23q9 33 17.5 53.5t24 43.5t41 35t61.5 13h20q-33 -83 -57 -158q20 4 35 4q35 0 60.5 -12.5t41 -32.5t25 -50t13 -60.5t3.5 -69.5q0 -230 -110 -446q119 0 208 139q21 0 21 -19q-50 -76 -115.5 -117t-134.5 -44 q-36 -60 -71 -104.5t-81 -85.5t-102 -63t-119 -22l-43 -127q-16 -49 -59 -49q-12 0 -20.5 3.5t-18.5 11t-16 10.5q-7 0 -7 10q0 17 19 55l41 111q-119 63 -119 248zM147 246q0 -87 17 -142q36 104 93 287.5t85 267.5q14 81 51 146l21 57l-29 -18q-92 -88 -165 -255t-73 -343 zM252 41q51 9 99.5 62t115.5 163q-64 36 -100 127zM446 598q0 -205 56 -270q112 250 112 440v7q0 30 -0.5 42.5t-3 26.5t-7.5 18t-15 4q-45 0 -84 -59l-53 -160q-5 -25 -5 -49z" />
<glyph unicode="&#xf9;" horiz-adv-x="753" d="M25 92v10q68 267 128 465t88.5 271t34.5 73q0 15 33 15q14 0 25.5 -5t11.5 -10q0 -4 -3.5 -17.5t-10 -35.5t-10.5 -37l-166 -626q-6 -17 -12.5 -55t-6.5 -48q24 3 207 290.5t244 416.5l37 80q0 1 2 7t2 7q5 19 14.5 26t42.5 7q25 0 38 -5.5t15 -10t2 -13.5q0 -11 -8 -37 t-21 -61.5t-18 -50.5q0 -1 -4 -13q-133 -351 -133 -514q0 -103 6 -138.5t27 -41.5q12 0 27.5 10.5t37 37.5t38.5 50t48 73.5t49.5 81.5t57.5 97l16 29q21 0 21 -19q-24 -42 -57.5 -103.5t-52 -94t-44 -75.5t-44 -65t-42 -44t-47.5 -30.5t-51 -8.5q-88 0 -88 241 q0 116 41 260q-67 -118 -124.5 -207t-91.5 -133t-59 -70.5t-35 -32.5l-10 -5q-31 -31 -102 -31q-53 0 -53 90zM389 1341q0 17 53 17q28 0 75 -49t84.5 -104t55.5 -91q-38 0 -66 8t-49.5 28t-33 35.5t-31.5 47.5q-38 62 -88 108z" />
<glyph unicode="&#xfa;" horiz-adv-x="753" d="M25 92v10q68 267 128 465t88.5 271t34.5 73q0 15 33 15q14 0 25.5 -5t11.5 -10q0 -4 -3.5 -17.5t-10 -35.5t-10.5 -37l-166 -626q-6 -17 -12.5 -55t-6.5 -48q24 3 207 290.5t244 416.5l37 80q0 1 2 7t2 7q5 19 14.5 26t42.5 7q25 0 38 -5.5t15 -10t2 -13.5q0 -11 -8 -37 t-21 -61.5t-18 -50.5q0 -1 -4 -13q-133 -351 -133 -514q0 -103 6 -138.5t27 -41.5q12 0 27.5 10.5t37 37.5t38.5 50t48 73.5t49.5 81.5t57.5 97l16 29q21 0 21 -19q-24 -42 -57.5 -103.5t-52 -94t-44 -75.5t-44 -65t-42 -44t-47.5 -30.5t-51 -8.5q-88 0 -88 241 q0 116 41 260q-67 -118 -124.5 -207t-91.5 -133t-59 -70.5t-35 -32.5l-10 -5q-31 -31 -102 -31q-53 0 -53 90zM485 1116q27 35 68 94q84 150 154 150q53 0 53 -17q-50 -46 -88 -108q-20 -32 -31.5 -47.5t-34 -35.5t-51.5 -28t-70 -8z" />
<glyph unicode="&#xfb;" horiz-adv-x="753" d="M25 92v10q68 267 128 465t88.5 271t34.5 73q0 15 33 15q14 0 25.5 -5t11.5 -10q0 -4 -3.5 -17.5t-10 -35.5t-10.5 -37l-166 -626q-6 -17 -12.5 -55t-6.5 -48q24 3 207 290.5t244 416.5l37 80q0 1 2 7t2 7q5 19 14.5 26t42.5 7q25 0 38 -5.5t15 -10t2 -13.5q0 -11 -8 -37 t-21 -61.5t-18 -50.5q0 -1 -4 -13q-133 -351 -133 -514q0 -103 6 -138.5t27 -41.5q12 0 27.5 10.5t37 37.5t38.5 50t48 73.5t49.5 81.5t57.5 97l16 29q21 0 21 -19q-24 -42 -57.5 -103.5t-52 -94t-44 -75.5t-44 -65t-42 -44t-47.5 -30.5t-51 -8.5q-88 0 -88 241 q0 116 41 260q-67 -118 -124.5 -207t-91.5 -133t-59 -70.5t-35 -32.5l-10 -5q-31 -31 -102 -31q-53 0 -53 90zM399 1116q0 24 39.5 78.5t79.5 97.5l39 43q7 7 20.5 12t36 9.5t25.5 5.5q21 -11 62 -92.5t51 -139.5q-1 -13 -15 -23.5t-28 -10.5q-5 0 -15 10l-88 172h-10 q-81 -87 -109 -135q-14 -23 -27.5 -33t-41.5 -10q-19 0 -19 16z" />
<glyph unicode="&#xfc;" horiz-adv-x="753" d="M25 92v10q68 267 128 465t88.5 271t34.5 73q0 15 33 15q14 0 25.5 -5t11.5 -10q0 -4 -3.5 -17.5t-10 -35.5t-10.5 -37l-166 -626q-6 -17 -12.5 -55t-6.5 -48q24 3 207 290.5t244 416.5l37 80q0 1 2 7t2 7q5 19 14.5 26t42.5 7q25 0 38 -5.5t15 -10t2 -13.5q0 -11 -8 -37 t-21 -61.5t-18 -50.5q0 -1 -4 -13q-133 -351 -133 -514q0 -103 6 -138.5t27 -41.5q12 0 27.5 10.5t37 37.5t38.5 50t48 73.5t49.5 81.5t57.5 97l16 29q21 0 21 -19q-24 -42 -57.5 -103.5t-52 -94t-44 -75.5t-44 -65t-42 -44t-47.5 -30.5t-51 -8.5q-88 0 -88 241 q0 116 41 260q-67 -118 -124.5 -207t-91.5 -133t-59 -70.5t-35 -32.5l-10 -5q-31 -31 -102 -31q-53 0 -53 90zM381 1202q0 44 28.5 63t63.5 19q19 0 28 -1t18 -8t9 -22q0 -22 -14 -45q0 -18 -26 -30.5t-46 -12.5q-5 0 -15 -1t-15 -1q-31 0 -31 39zM637 1253q0 23 31 23 q110 0 110 -68q0 -20 -30.5 -31.5t-47.5 -11.5q-38 0 -50.5 22.5t-12.5 65.5z" />
<glyph unicode="&#xfd;" horiz-adv-x="686" d="M-39 -784q0 132 83.5 279.5t283.5 363.5l32 32q23 80 73.5 262.5t87.5 312t52 169.5q-288 -481 -348 -615q-13 -26 -20 -47h-37l-66 33q83 249 122.5 424t60.5 408v14q0 40 -19 57t-43 17q-4 0 -15.5 -1t-17.5 -1q-29 0 -34 24q0 47 67 58q47 0 79 -15t47 -42.5t20.5 -55 t5.5 -62.5q0 -206 -109 -565q105 206 213 385.5t172 259.5q9 20 17.5 35.5t15 24t10.5 13t8 8.5l5 3q36 27 75 27q22 0 38 -15t16 -36q0 -7 -13 -27.5t-39.5 -60.5t-46.5 -74q-18 -30 -39 -84.5t-47 -140t-46.5 -157.5t-55 -196t-55.5 -198q185 177 301 387q13 0 16.5 -4 t3.5 -15q-123 -248 -350 -471q-29 -107 -72.5 -234t-100 -268.5t-119.5 -235t-112 -93.5q-50 0 -75 36.5t-25 80.5zM33 -772v-16q0 -56 26 -56q36 0 133.5 251.5t133.5 379.5q-15 -22 -58.5 -77t-78.5 -104t-73.5 -112.5t-60.5 -132t-22 -133.5zM485 1112q27 35 68 94 q84 150 154 150q53 0 53 -17q-50 -46 -88 -108q-20 -32 -31.5 -47.5t-34 -35.5t-51.5 -28t-70 -8z" />
<glyph unicode="&#xfe;" horiz-adv-x="651" d="M-174 -541q0 41 16 49q29 80 53 155t34.5 111.5t36.5 132t36 132.5l41 145q26 91 94.5 337t104.5 369.5t93.5 289.5t108.5 268q13 28 35.5 51.5t38.5 28.5q24 6 39 6q31 0 31 -23q0 -14 -6.5 -30t-12.5 -21q-14 -1 -67 -130t-120.5 -337t-111.5 -391q90 185 172.5 261.5 t167.5 76.5q56 0 86.5 -24.5t30.5 -61.5q0 -179 -98 -366t-240 -316q31 -8 70 -8q82 0 156 56t145 200q20 0 20 -19l-10 -18q-141 -256 -311 -256q-45 0 -103 14q-126 -104 -231 -110l-4 -6q-149 -488 -174 -578q-10 -43 -56 -43q-65 17 -65 55zM147 109q62 12 121 59 q-40 8 -51 8q-51 0 -70 -67zM180 203q20 10 41 10q20 0 82 -16q116 103 200.5 288.5t106.5 388.5q-39 0 -101 -69.5t-118.5 -164t-101.5 -181.5t-60 -131z" />
<glyph unicode="&#xff;" horiz-adv-x="686" d="M-39 -784q0 132 83.5 279.5t283.5 363.5l32 32q23 80 73.5 262.5t87.5 312t52 169.5q-288 -481 -348 -615q-13 -26 -20 -47h-37l-66 33q83 249 122.5 424t60.5 408v14q0 40 -19 57t-43 17q-4 0 -15.5 -1t-17.5 -1q-29 0 -34 24q0 47 67 58q47 0 79 -15t47 -42.5t20.5 -55 t5.5 -62.5q0 -206 -109 -565q105 206 213 385.5t172 259.5q9 20 17.5 35.5t15 24t10.5 13t8 8.5l5 3q36 27 75 27q22 0 38 -15t16 -36q0 -7 -13 -27.5t-39.5 -60.5t-46.5 -74q-18 -30 -39 -84.5t-47 -140t-46.5 -157.5t-55 -196t-55.5 -198q185 177 301 387q13 0 16.5 -4 t3.5 -15q-123 -248 -350 -471q-29 -107 -72.5 -234t-100 -268.5t-119.5 -235t-112 -93.5q-50 0 -75 36.5t-25 80.5zM33 -772v-16q0 -56 26 -56q36 0 133.5 251.5t133.5 379.5q-15 -22 -58.5 -77t-78.5 -104t-73.5 -112.5t-60.5 -132t-22 -133.5zM401 1202q0 44 28.5 63 t64.5 19q19 0 28 -1t18 -8t9 -22q0 -22 -14 -45q0 -18 -26 -30.5t-46 -12.5q-5 0 -15.5 -1t-15.5 -1q-31 0 -31 39zM657 1253q0 23 31 23q111 0 111 -68q0 -20 -30.5 -31.5t-47.5 -11.5q-38 0 -51 22.5t-13 65.5z" />
<glyph unicode="&#x152;" horiz-adv-x="2041" d="M0 379q0 138 38 284.5t99.5 268.5t129.5 220.5t136 164.5q62 58 110 87.5t101 29.5q13 -17 13 -23q0 -8 -13 -18l-90 -84q-61 -58 -121 -148.5t-113 -208t-85.5 -265t-32.5 -296.5q0 -64 5.5 -119.5t19.5 -111.5t42.5 -88.5t69.5 -32.5q50 0 118.5 49.5t139 135.5 t139 216t113.5 277q-45 -23 -96 -23q-73 0 -137.5 44.5t-93.5 117.5q-29 71 -29 156q0 103 58.5 220.5t148.5 178.5q68 47 151 47q58 0 101 -30t66.5 -83t34.5 -115t11 -136q0 -81 -26 -230q130 112 292 156q-73 25 -111 74t-38 108q0 63 28.5 112t78 78.5t110 44.5 t129.5 15q97 0 187.5 -40.5t152.5 -100.5q0 -19 -20 -21q-49 44 -124.5 72.5t-140.5 28.5q-63 0 -115.5 -18t-89 -61.5t-36.5 -105.5q0 -61 54.5 -108t158.5 -47q17 0 33 -4.5t16 -12.5t-17 -33q-53 -6 -98 -6h-12q-75 -18 -156 -68.5t-152 -122t-117 -169t-46 -197.5 q0 -164 77 -277.5t195 -113.5q84 0 177 58.5t158 156.5t65 199q0 18 -2.5 39t-2.5 26q0 18 15 24.5t61 6.5q35 0 58.5 -10t23.5 -29q0 -99 -48 -196t-126 -170.5t-184.5 -119.5t-216.5 -46q-166 0 -274 92.5t-144 234.5q-204 -338 -492 -338q-64 0 -119.5 23.5t-100 70.5 t-70 126.5t-25.5 183.5zM635 1018q0 -48 6 -91.5t19.5 -82.5t37.5 -62.5t56 -23.5q29 0 65 20q6 18 9.5 31t5 21.5t3.5 29t5 39.5q2 8 6.5 53t9 120t4.5 136q0 172 -41 172q-45 0 -82.5 -41.5t-59 -101.5t-33 -118t-11.5 -101z" />
<glyph unicode="&#x153;" horiz-adv-x="1007" d="M4 238q0 172 90 353.5t197 276.5q65 56 125 56h14q16 0 16 -11q0 -13 -30 -43l-31 -26q-93 -79 -165.5 -249t-72.5 -349q0 -207 89 -207q66 0 128.5 72.5t105 182t68 237t25.5 237.5q0 36 -8 58t-19.5 30.5t-23 14t-19.5 16t-8 28.5q0 14 17 25.5t45 11.5q40 4 76 4 q59 0 116 -7t115 -23t93.5 -48.5t35.5 -78.5q0 -56 -84 -93.5t-190 -37.5h-11q-9 -95 -28 -168q-7 -39 -15 -132t-8 -141q0 -74 19.5 -120t58.5 -46q203 0 393 359q21 0 21 -19q-120 -231 -228.5 -326t-232.5 -95q-73 0 -115.5 50.5t-52.5 121.5q-129 -187 -270 -187 q-100 0 -168 68t-68 205zM674 870q23 -46 26 -131h13q41 0 94.5 17.5t64.5 46.5q2 4 2 10q0 24 -55.5 39t-144.5 18z" />
<glyph unicode="&#x178;" horiz-adv-x="1390" d="M133 1257q0 38 48 84t130.5 79.5t165.5 33.5q14 2 43 2q320 0 320 -442q0 -114 -28.5 -279.5t-63.5 -275.5l-29 -90q45 93 135.5 312t168.5 385t140 241q119 147 174 147q1 0 9.5 -1t15.5 -2.5t15 -4t13 -6.5t5 -10l-21 -72q-5 -16 -35 -88q-43 -126 -81 -270.5t-58 -235 t-55 -262.5q-53 -279 -103 -488q132 13 228 94.5t196 253.5l33 58q23 0 23 -10q0 -7 -2 -9l-35 -63q-41 -76 -83.5 -133.5t-97 -108.5t-123.5 -83t-151 -44q-2 -4 -2 -10q-44 -175 -93 -320.5t-109 -272t-131.5 -198t-145.5 -71.5q-78 0 -129 46t-70.5 114t-19.5 157 q0 132 54 246t138.5 187t182 115.5t190.5 47.5l233 994q-49 -92 -138.5 -300t-171.5 -378.5t-146 -243.5q-7 -41 -65 -61.5t-113 -20.5q-31 0 -31 6q0 25 41 111q65 137 138 417t73 502q0 377 -240 377q-70 0 -130 -58.5t-60 -105.5q0 -7 -26 -15.5t-44 -8.5t-50 11.5 t-32 20.5zM455 -573q0 -33 6 -73.5t18 -80.5t33 -67t47 -27q46 0 105.5 116.5t113.5 286t105 377.5q-78 -8 -153.5 -49t-137 -108t-99.5 -165t-38 -210zM815 1655q0 44 28.5 63t63.5 19q19 0 28.5 -1t18.5 -8t9 -22q0 -20 -15 -45q0 -18 -26 -30.5t-45 -12.5q-5 0 -15.5 -1 t-15.5 -1q-31 0 -31 39zM1112 1706q0 23 31 23q110 0 110 -68q0 -20 -30.5 -31.5t-46.5 -11.5q-38 0 -51 22.5t-13 65.5z" />
<glyph unicode="&#x2c6;" horiz-adv-x="454" d="M51 1116q0 24 39.5 78.5t79.5 97.5l39 43q7 7 20.5 12t36 9.5t25.5 5.5q21 -11 61.5 -92.5t50.5 -139.5q-1 -13 -15 -23.5t-28 -10.5q-4 0 -14 10l-88 172h-10q-81 -87 -109 -135q-14 -23 -27.5 -33t-41.5 -10q-19 0 -19 16z" />
<glyph unicode="&#x2dc;" horiz-adv-x="638" d="M51 1169q13 49 60.5 89t105.5 40q41 0 84.5 -27.5t86.5 -55t83 -27.5q16 0 28.5 30.5t12.5 45.5q0 28 39 28q37 0 37 -32q0 -65 -35.5 -104.5t-93.5 -39.5q-49 0 -89.5 16.5t-63 36t-51 36t-56.5 16.5q-18 0 -38 -13.5t-28 -29.5q-1 -20 -21 -35t-34 -15q-22 0 -27 41z " />
<glyph unicode="&#x2000;" horiz-adv-x="952" />
<glyph unicode="&#x2001;" horiz-adv-x="1905" />
<glyph unicode="&#x2002;" horiz-adv-x="952" />
<glyph unicode="&#x2003;" horiz-adv-x="1905" />
<glyph unicode="&#x2004;" horiz-adv-x="635" />
<glyph unicode="&#x2005;" horiz-adv-x="476" />
<glyph unicode="&#x2006;" horiz-adv-x="317" />
<glyph unicode="&#x2007;" horiz-adv-x="317" />
<glyph unicode="&#x2008;" horiz-adv-x="238" />
<glyph unicode="&#x2009;" horiz-adv-x="381" />
<glyph unicode="&#x200a;" horiz-adv-x="105" />
<glyph unicode="&#x2010;" horiz-adv-x="851" d="M133 559q2 7 9.5 15t15.5 8q47 0 140.5 -17.5t141.5 -17.5l265 24q14 0 14 -34q-14 -41 -33 -41h-536q-8 1 -12.5 24t-4.5 39z" />
<glyph unicode="&#x2011;" horiz-adv-x="851" d="M133 559q2 7 9.5 15t15.5 8q47 0 140.5 -17.5t141.5 -17.5l265 24q14 0 14 -34q-14 -41 -33 -41h-536q-8 1 -12.5 24t-4.5 39z" />
<glyph unicode="&#x2012;" horiz-adv-x="851" d="M133 559q2 7 9.5 15t15.5 8q47 0 140.5 -17.5t141.5 -17.5l265 24q14 0 14 -34q-14 -41 -33 -41h-536q-8 1 -12.5 24t-4.5 39z" />
<glyph unicode="&#x2013;" horiz-adv-x="1036" d="M135 575q2 7 9.5 15t15.5 8q47 0 233 -17.5t234 -17.5l264 25q14 0 14 -35q-14 -41 -33 -41q-210 -20 -411 -20q-221 0 -309 20q-8 1 -12.5 24t-4.5 39z" />
<glyph unicode="&#x2014;" horiz-adv-x="1589" d="M131 569q3 7 13 15t12 8q281 -29 575 -29q90 0 349.5 1t351.5 1q8 0 15 -7.5t9 -14.5q0 -17 -4 -40t-12 -24q-47 -12 -131 -12q-18 0 -57.5 1t-61.5 1q-69 0 -339 8t-374 8q-238 0 -330 21q-8 1 -12 23.5t-4 39.5z" />
<glyph unicode="&#x2018;" horiz-adv-x="362" d="M123 1202q0 52 20.5 109.5t63.5 102t96 44.5q7 0 10.5 -7t3.5 -13q0 -3 -5 -4t-14 -1.5t-15 -2.5q-24 -8 -44 -40t-20 -71q0 -26 8 -45q35 0 53.5 -24t18.5 -44q0 -36 -22.5 -63t-69.5 -27q-31 0 -57.5 30.5t-26.5 55.5z" />
<glyph unicode="&#x2019;" horiz-adv-x="362" d="M47 1133q0 3 5.5 4t14.5 1.5t15 2.5q24 8 43.5 39.5t19.5 70.5q0 26 -8 45q-35 0 -53 24t-18 44q0 36 22.5 63t69.5 27q31 0 57.5 -30.5t26.5 -55.5q0 -52 -21 -109.5t-64 -102t-96 -44.5q-7 0 -10.5 7.5t-3.5 13.5z" />
<glyph unicode="&#x201a;" horiz-adv-x="362" d="M41 -164q0 3 5.5 4t14.5 1.5t15 2.5q24 8 43.5 40t19.5 71q0 26 -8 45q-35 0 -53.5 24t-18.5 44q0 36 23 63t70 27q31 0 57.5 -30.5t26.5 -55.5q0 -52 -21 -109.5t-64 -102t-96 -44.5q-7 0 -10.5 7t-3.5 13z" />
<glyph unicode="&#x201c;" horiz-adv-x="628" d="M123 1202q0 52 20.5 109.5t63.5 102t96 44.5q7 0 10.5 -7t3.5 -13q0 -3 -5 -4t-14 -1.5t-15 -2.5q-24 -8 -44 -40t-20 -71q0 -26 8 -45q35 0 53.5 -24t18.5 -44q0 -36 -22.5 -63t-69.5 -27q-31 0 -57.5 30.5t-26.5 55.5zM389 1202q0 52 20.5 109.5t63.5 102t96 44.5 q7 0 11 -7t4 -13q0 -3 -5.5 -4t-14.5 -1.5t-15 -2.5q-24 -8 -44 -40t-20 -71q0 -24 9 -45q35 0 53 -24t18 -44q0 -36 -22.5 -63t-69.5 -27q-31 0 -57.5 30.5t-26.5 55.5z" />
<glyph unicode="&#x201d;" horiz-adv-x="628" d="M41 1137q0 3 5.5 4t14.5 1.5t15 2.5q24 8 43.5 39.5t19.5 70.5q0 26 -8 45q-35 0 -53.5 24t-18.5 44q0 36 23 63t70 27q31 0 57.5 -30.5t26.5 -55.5q0 -52 -21 -109.5t-64 -102t-96 -44.5q-7 0 -10.5 7.5t-3.5 13.5zM307 1137q0 3 5.5 4t14.5 1.5t15 2.5q24 8 44 39.5 t20 70.5q0 24 -9 45q-35 0 -53 24t-18 44q0 36 22.5 63t69.5 27q31 0 57.5 -30.5t26.5 -55.5q0 -52 -20.5 -109.5t-63.5 -102t-96 -44.5q-7 0 -11 7.5t-4 13.5z" />
<glyph unicode="&#x201e;" horiz-adv-x="628" d="M41 -164q0 3 5.5 4t14.5 1.5t15 2.5q24 8 43.5 40t19.5 71q0 26 -8 45q-35 0 -53.5 24t-18.5 44q0 36 23 63t70 27q31 0 57.5 -30.5t26.5 -55.5q0 -52 -21 -109.5t-64 -102t-96 -44.5q-7 0 -10.5 7t-3.5 13zM307 -164q0 3 5.5 4t14.5 1.5t15 2.5q24 8 44 40t20 71 q0 24 -9 45q-35 0 -53 24t-18 44q0 36 22.5 63t69.5 27q31 0 57.5 -30.5t26.5 -55.5q0 -52 -20.5 -109.5t-63.5 -102t-96 -44.5q-7 0 -11 7t-4 13z" />
<glyph unicode="&#x2022;" horiz-adv-x="493" d="M133 436q0 50 32.5 82.5t82.5 32.5q49 0 80.5 -32.5t31.5 -82.5q0 -48 -31.5 -81t-80.5 -33t-82 33t-33 81z" />
<glyph unicode="&#x2026;" horiz-adv-x="851" d="M102 55q0 34 23 58t70 24q31 0 47 -20t16 -45q-3 -27 -27.5 -49.5t-56.5 -22.5q-35 0 -53.5 18.5t-18.5 36.5zM348 55q0 35 22.5 58.5t69.5 23.5q31 0 47.5 -20t16.5 -45q-3 -27 -27.5 -49.5t-56.5 -22.5q-35 0 -53.5 18.5t-18.5 36.5zM594 55q0 35 22.5 58.5t69.5 23.5 q31 0 47.5 -20t16.5 -45q-3 -27 -27.5 -49.5t-56.5 -22.5q-35 0 -53.5 18.5t-18.5 36.5z" />
<glyph unicode="&#x202f;" horiz-adv-x="381" />
<glyph unicode="&#x2039;" horiz-adv-x="942" d="M102 590q7 5 294 183.5t298 187.5q45 30 88 30q70 0 70 -16q0 -12 -117.5 -89.5t-255 -166.5t-168.5 -117q45 -32 185 -126.5t247.5 -170.5t137.5 -108q0 -13 -45 -13q-13 0 -50 11q-117 72 -282 175q-179 112 -228.5 139.5t-78.5 27.5q-95 0 -95 53z" />
<glyph unicode="&#x203a;" horiz-adv-x="811" d="M61 223q0 16 25 35q48 38 148 103.5t183.5 128t137.5 124.5q-8 8 -118 109t-181.5 177t-71.5 104q0 2 5.5 6.5t17.5 9t26 4.5q29 0 56 -16q47 -75 194 -210.5t213 -162.5q13 -5 13 -17q0 -5 -2.5 -11t-5.5 -9l-3 -4q-19 -13 -105.5 -75.5t-148.5 -106t-142 -96.5 t-134.5 -82t-77.5 -29q-17 3 -23 6.5t-6 11.5z" />
<glyph unicode="&#x205f;" horiz-adv-x="476" />
<glyph unicode="&#x20ac;" horiz-adv-x="1445" d="M104 801q0 27 31 51h158q39 63 80 119h-152q-1 0 -4 -1t-4 -1q-18 0 -18 18q0 23 30 53h205q106 121 244 222q-31 0 -120.5 38t-169.5 77.5t-83 39.5q8 35 45 35t117 -45q148 -76 272 -100q104 65 222 101t233 36q174 0 174 -68q-18 -46 -92 -76t-144 -39.5t-131 -9.5 h-176q-122 -82 -225 -211h299q15 0 26 -7t11 -17q0 -26 -51 -45h-338q-28 -40 -72 -119h334q14 0 23.5 -6.5t9.5 -14.5q0 -26 -47 -47h-353q-80 -184 -80 -354q0 -165 73.5 -278t191.5 -113q62 0 133 35.5t129.5 92t97.5 133.5t39 153q0 18 -2 39t-2 26q0 18 15 24.5t61 6.5 q35 0 58.5 -10t23.5 -29q0 -132 -80.5 -255.5t-214.5 -200.5t-281 -77q-104 0 -188 39t-136 103.5t-80 144.5t-28 166q0 176 88 354h-131q-21 0 -21 17zM862 1292h25q111 0 186 15.5t133 52.5q-38 12 -78 12q-110 0 -266 -80z" />
<glyph unicode="&#x2122;" horiz-adv-x="1288" d="M61 1188q0 50 65.5 93.5t166.5 43.5q44 0 110 -16q41 104 115 104q40 0 56 -5t16 -22q0 -20 -41 -43q-22 -25 -39 -61q36 -8 76 -8q89 0 119 15.5t30 45.5q0 12 -13.5 21.5t-33.5 9.5q-12 0 -17.5 0.5t-12.5 1.5t-10 4t-3 8q0 7 4 11q8 8 37 8q28 0 59 -23.5t31 -58.5 q0 -94 -180 -94q-38 0 -104 20q-40 -92 -70 -244q-5 -27 -20.5 -84t-24 -103t-8.5 -89q0 -53 22 -53q40 0 110 97t133.5 225.5t92.5 226.5q4 13 13.5 22.5t17.5 9.5q14 0 20 -12q33 -84 33 -217q0 -94 -14 -209v-12q8 16 30 55.5t33 61.5q103 206 178 325q16 42 41 60 q15 10 37 10l-6 -6l-27 -113q-47 -217 -59 -373q-2 -10 -2 -30q0 -138 43 -138q12 0 26.5 12.5t35.5 42.5t36.5 55t44.5 73q19 0 19 -17q-33 -60 -53.5 -94.5t-52 -69t-56.5 -34.5q-60 0 -86.5 50t-26.5 122v32q5 78 37 211q-31 -55 -67 -137q-16 -30 -41.5 -80.5t-43 -82.5 t-28.5 -48q-15 -27 -37.5 -45t-42.5 -18q-8 0 -21.5 4.5t-13.5 13.5q31 116 41 266q4 50 8 158q0 1 5 41q-50 -104 -97.5 -189.5t-97.5 -157.5t-97 -112.5t-85 -40.5q-70 0 -70 129q0 30 7.5 81.5t18 113t13.5 88.5l18 123q-24 -14 -65 -25.5t-70 -11.5q-162 0 -162 82z M133 1190q0 -60 88 -60q16 0 39 10.5t35 20.5q23 13 41 13q9 0 29 -5q10 62 24 105q-59 18 -96 18q-78 0 -119 -31t-41 -71z" />
<glyph unicode="&#x25fc;" horiz-adv-x="962" d="M0 0v963h963v-963h-963z" />
</font>
</defs>
</svg>
