<?xml version="1.0" standalone="no"?>
<!DOCTYPE svg PUBLIC "-//W3C//DTD SVG 1.1//EN" "http://www.w3.org/Graphics/SVG/1.1/DTD/svg11.dtd" >
<svg xmlns="http://www.w3.org/2000/svg">
<metadata></metadata>
<defs>
<font id="thesecretswashes" horiz-adv-x="0" >
<font-face units-per-em="2048" ascent="1638" descent="-410" />
<missing-glyph horiz-adv-x="512" />
<glyph />
<glyph horiz-adv-x="682" />
<glyph unicode=" "  horiz-adv-x="512" />
<glyph unicode="&#x09;" horiz-adv-x="512" />
<glyph unicode="&#xa0;" horiz-adv-x="512" />
<glyph unicode="!" d="M-892 1198q14 96 90 133q61 29 115 2q58 -30 52 -100q0 -5 -1 -9q8 64 -37 91q-41 24 -84 -5q-42 -29 -54 -94q-13 -76 34.5 -133t178.5 -65q97 -6 381.5 18t593.5 52.5t685.5 40.5t657.5 -18q342 -35 466 -70q192 -55 136 -155q-14 -25 -43 -53q18 32 19.5 59t-15 48.5 t-42.5 39.5t-69.5 32.5t-89 26t-108.5 21t-120 16.5t-131 15q-280 30 -657 18t-687 -40.5t-595.5 -52.5t-382.5 -18q-139 8 -221.5 66.5t-71.5 133.5z" />
<glyph unicode="#" d="M-902 1004q45 148 130 255q-87 -111 -130 -255zM-772 1259q72 93 168.5 156.5t237 96.5t306 20.5t384 -85.5t464.5 -208q153 -84 302.5 -128t270.5 -48t233 16.5t196.5 59.5t155.5 88t114.5 95t67.5 87q-25 -42 -71 -91.5t-121 -104.5t-164.5 -100.5t-207.5 -72.5 t-244 -27.5t-279.5 41t-309.5 126.5q-242 133 -454 208.5t-372 95t-292.5 -4t-224 -79t-160.5 -141.5z" />
<glyph unicode="$" horiz-adv-x="7272" d="M74 1003q0 78 45.5 150.5t129.5 129.5t215.5 91t290.5 33q197 -1 436.5 -28t444.5 -61.5t505.5 -101t491.5 -113.5t539 -134t520 -129q286 80 523.5 172t425 196t302.5 221.5t138 237.5q2 10 11 8q11 -2 9 -12q-19 -98 -96.5 -194.5t-200 -183t-289 -168.5t-360.5 -153.5 t-417 -134.5q547 -134 978 -214q151 62 436 182t436.5 182t353.5 140.5t345 122t252 63.5q384 68 617 -27q155 -63 193 -180q42 -123 -62 -254q-133 -167 -444 -269q-183 -60 -410 -89q-684 -87 -1741 97q-563 -232 -1021 -390q144 -43 297.5 -93t353.5 -117t282 -94 q403 172 684 270t464 114q336 29 530 -87q131 -79 153 -198q22 -118 -74 -218q-122 -130 -377 -161q-122 -16 -264 -5q-242 18 -512.5 81.5t-627.5 171.5q-82 -35 -311 -134t-390 -166.5t-308 -125.5q314 -105 404 -135q273 126 575.5 182.5t595.5 39.5q257 -15 358 -109 q74 -69 32 -150q-46 -91 -208 -145q-156 -53 -373 -53q-198 0 -439.5 53t-561.5 150q-486 -234 -752 -631q-4 -7 -14 -3q-9 5 -3 15q264 393 741 627q-78 24 -223 69t-202 63q-674 -260 -982 -246q-297 14 -408 124q-77 77 -35 170q41 92 175 151q193 86 463 53 q170 -21 369.5 -75t457.5 -140q147 57 303 122.5t397.5 169.5t308.5 133q-66 20 -230.5 71t-257 79t-233 69t-259.5 73q-1113 -372 -1785 -320q-348 21 -513 134q-117 79 -96 176q21 99 176 174q257 125 747 128q236 1 508 -29q456 -49 1030 -218q427 146 1017 387 q-415 73 -1018 211q-369 -99 -779.5 -168t-804.5 -102t-753.5 -22t-631 63.5t-432.5 162.5t-161 268zM133 989q0 -114 89 -202t246 -142.5t374 -86t471.5 -35.5t540.5 12.5t579 54.5t588 94t567 128q-145 33 -432 100.5t-446.5 104t-411 92t-425.5 86t-382.5 63t-389.5 47.5 t-346 16q-152 1 -273 -26.5t-196 -74.5t-114 -106t-39 -125zM1319 152q-48 -84 31 -159q102 -97 353 -127q40 -4 83 -7q662 -51 1748 309q-509 134 -929 180q-639 69 -1010 -34q-217 -61 -276 -162zM2158 -592q-31 -82 48 -145q96 -75 314 -85q298 -14 949 235 q-485 147 -758 181q-242 29 -412 -53q-112 -54 -141 -133zM4003 -713q300 -98 531.5 -151.5t420.5 -53.5q265 0 420 94q105 63 111 140q5 79 -98 129q-90 44 -243 53q-287 16 -581 -37.5t-561 -173.5zM4633 -121q334 -109 595 -173.5t494 -81.5q320 -24 502 94 q123 81 140 197q16 115 -77 207q-121 119 -366 134q-79 5 -167 -3q-179 -16 -453 -111.5t-668 -262.5zM4753 608q1015 -186 1677 -102q436 56 672 230q160 118 180 254q18 125 -89 212q-138 111 -413 107q-111 -2 -237 -24q-107 -19 -247 -62t-338.5 -120t-347 -137.5 t-428.5 -178.5t-429 -179z" />
<glyph unicode="%" horiz-adv-x="6135" d="M0 -41q0 138 153 294t414.5 304.5t616 295.5t750 272t825 229t833 171t781 93.5t662.5 1.5q329 17 574 0.5t386 -82t141 -174.5q0 -161 -302 -405q75 -130 -75 -296q-99 -112 -517 -288q-250 -185 -567 -331t-619 -224q-565 -146 -1257 -195q-497 -115 -945 -162 t-841.5 -16.5t-659.5 147.5q-353 156 -353 365zM24 -38q0 -201 338 -350q253 -111 623.5 -143.5t793 7t894.5 141.5q-211 -12 -420 -15q-941 -100 -1417 92q-109 18 -221 41q-213 45 -328 111.5t-131.5 147t50 175.5t206.5 196.5t348 211.5q435 231 1110 397 q688 235 1515 408.5t1501 226.5q-293 12 -667 -22.5t-767 -105.5t-806 -175t-790.5 -226t-713.5 -264t-583 -284t-391 -290.5t-144 -279.5zM602 -142q23 -21 52 -42q76 -56 183 -100q620 -105 1401 -96q607 63 1345 243q594 192 1133 447.5t946 545.5q48 88 69 181 q-142 99 -425 142q-683 105 -1646 43t-1796 -269q-841 -288 -1178 -571q-343 -290 -84 -524zM612 337q278 276 1048 562q-522 -145 -881 -333q-1124 -588 -164 -807q81 -18 142 -29q-60 31 -115 70q-330 239 -30 537zM940 -321q406 -127 1095 -77q-590 6 -1095 77z M2070 1021q809 179 1703.5 227.5t1536.5 -49.5q280 -42 426 -141q10 51 10 108q0 164 -142 267q-178 131 -571 167q-630 -37 -1443 -195.5t-1520 -383.5zM2439 -376q173 6 346 18q260 60 533 140q-469 -104 -879 -158zM2912 -348q629 53 1148 190q279 74 571.5 204 t530.5 296q-680 -277 -1565 -495q-333 -109 -685 -195zM3839 -71q808 215 1393 463q275 205 406 422q-361 -252 -823.5 -478t-975.5 -407zM5156 1606q313 -44 468 -157q148 -109 148 -276q0 -67 -15 -131q42 -32 65 -65q281 229 281 379q0 74 -68 126.5t-194.5 82 t-297.5 39.5t-387 2zM5305 424q350 155 438 253q136 151 74 269q-21 -17 -98 -74q-7 -4 -20 -13.5t-19 -14.5q-118 -215 -375 -420zM5701 884l6 4q12 9 99 76q-19 28 -54 57q-18 -70 -51 -137z" />
<glyph unicode="&#x26;" horiz-adv-x="4505" d="M4.5 336q-1.5 4 2.5 10q121 144 306.5 300.5t419.5 308t484 278t521 214.5t510 113q98 135 225.5 249t276 199.5t320.5 128t342 29.5q177 -13 261.5 -99.5t84.5 -222.5q0 -117 -45 -239.5t-118.5 -226t-170 -196.5t-197.5 -158t-202 -103t-183 -38q-41 0 -84 9t-86 29 t-76 49t-54 72t-21 95q0 65 26 125.5t73.5 107.5t124.5 68t168 4q-223 116 -544 106q-121 -177 -184 -357.5t-52 -348t110 -276.5q54 -12 81 -20q119 -33 125 -75q2 -14 -10.5 -21.5t-36.5 -5.5t-52 14q-92 41 -160 101q-161 31 -315 6t-296.5 -88.5t-270.5 -166.5 t-237 -228.5t-196 -274t-148 -303.5t-93 -317t-30 -314q2 -136 27 -263.5t82.5 -248t141 -209.5t210.5 -143t283 -54q125 0 243.5 24.5t218.5 68.5t193 106.5t169 135.5t144 159t121 173.5t97 181.5q-186 -76 -347 -104t-301.5 -7.5t-248.5 107.5t-174 239q-32 75 -39.5 162 t8 174.5t54 175t94 164.5t132.5 141.5t165.5 108t196.5 61.5t222 4q126 -15 228.5 -73t172.5 -151t100 -225.5t10 -288.5q-22 -172 -111 -374q423 199 909 588.5t901 834.5q5 6 10.5 4t6.5 -7.5t-3 -10.5q-257 -286 -559.5 -559.5t-645 -517t-644.5 -386.5 q-69 -141 -160.5 -271.5t-217 -252.5t-267 -211.5t-317.5 -143.5t-361 -54q-172 0 -321 59.5t-254 159.5t-180 231.5t-111 275.5t-36 291q0 204 62.5 416.5t172.5 405t270.5 357.5t347 278t412.5 161.5t456 13.5q-113 113 -137.5 277t30 337.5t173.5 344.5 q-236 -26 -503.5 -114t-514 -213t-477 -274.5t-414 -304.5t-302.5 -297q-4 -5 -10 -4.5t-7.5 4.5zM1556.5 -707.5q0.5 -112.5 40.5 -208.5q58 -138 154 -218t222 -100.5t271.5 3t314.5 90.5q96 224 125 449q39 317 -53.5 494t-334.5 207q-124 15 -241 -19.5t-206 -105 t-157 -168.5t-102 -204.5t-33.5 -219zM2268 541q41 -38 91 -65q45 -24 64 -15q15 8 -16 28q-29 19 -88 38q-34 10 -51 14zM2383 1568q314 8 539 -108q15 -6 21 -18t-3.5 -19t-32.5 -1q-68 21 -131.5 -19t-100 -113t-36.5 -151q0 -118 50.5 -175t137.5 -57q72 0 162.5 37.5 t181.5 101.5t178 155t153.5 191.5t107.5 218t41 227.5q0 122 -65.5 206.5t-175.5 100.5q-140 19 -287 -18t-279 -119t-249.5 -194t-211.5 -246z" />
<glyph unicode="(" horiz-adv-x="3649" d="M176 419q0 10 7 17t17 7t17 -7t7 -17t-7 -17t-17 -7t-17 7t-7 17zM193 541q0 10 7 17t17 7t17 -7t7 -17t-7 -17t-17 -7t-17 7t-7 17zM231 -2q0 16 13 22q-8 6 -8 17q0 10 7 17.5t17 7.5t17.5 -7.5t7.5 -17.5q0 -15 -13 -21q8 -6 8 -18q0 -10 -7.5 -17t-17.5 -7t-17 7 t-7 17zM235 286q0 10 7 17.5t17 7.5q5 0 13 -4q6 8 18 8q10 0 17.5 -7t7.5 -17t-7.5 -17t-17.5 -7q-6 0 -12 3q-6 -8 -19 -8q-10 0 -17 7t-7 17zM240 -74q0 10 7 17t17 7t17 -7t7 -17t-7 -17.5t-17 -7.5t-17 7.5t-7 17.5zM270 770q0 10 7.5 17t17.5 7t17 -7t7 -17t-7 -17 t-17 -7t-17.5 7t-7.5 17zM295 -60q0 10 7.5 17t17.5 7q18 0 23 -17q7 15 22 15q10 0 17 -7.5t7 -17.5t-7 -17t-17 -7q-18 0 -23 17q-7 -14 -22 -14q-10 0 -17.5 7t-7.5 17zM295 593q0 10 7 17t17 7t17.5 -7t7.5 -17q0 -3 -2 -9q7 11 20 11q10 0 17 -7.5t7 -17.5t-7 -17 t-17 -7t-17.5 7t-7.5 17q0 3 2 9q-7 -10 -20 -10q-10 0 -17 7t-7 17zM296 659q0 10 7 17t17 7t17.5 -7t7.5 -17t-7.5 -17.5t-17.5 -7.5t-17 7.5t-7 17.5zM304 831q0 10 7.5 17.5t17.5 7.5t17 -7.5t7 -17.5t-7 -17t-17 -7t-17.5 7t-7.5 17zM323 464q0 10 7 17t17 7t17.5 -7 t7.5 -17t-7.5 -17.5t-17.5 -7.5t-17 7.5t-7 17.5zM324 -185q0 10 7.5 17.5t17.5 7.5t17 -7.5t7 -17.5t-7 -17t-17 -7t-17.5 7t-7.5 17zM329 158q0 10 7 17.5t17 7.5t17.5 -7.5t7.5 -17.5t-7.5 -17t-17.5 -7t-17 7t-7 17zM335 237q0 10 7 17t17 7t17 -7t7 -17t-7 -17t-17 -7 t-17 7t-7 17zM343 419q0 10 7 17t17 7t17.5 -7t7.5 -17t-7.5 -17.5t-17.5 -7.5t-17 7.5t-7 17.5zM358 70q0 10 7 17.5t17 7.5t17.5 -7.5t7.5 -17.5t-7.5 -17t-17.5 -7t-17 7t-7 17zM360 955q0 10 7 17t17 7t17.5 -7t7.5 -17t-7.5 -17.5t-17.5 -7.5t-17 7.5t-7 17.5z M386 -261q0 10 7.5 17t17.5 7t17 -7t7 -17t-7 -17.5t-17 -7.5t-17.5 7.5t-7.5 17.5zM394 -399q0 10 7 17t17 7t17.5 -7t7.5 -17t-7.5 -17.5t-17.5 -7.5t-17 7.5t-7 17.5zM397 817q0 10 7 17t17 7t17 -7t7 -17t-7 -17t-17 -7t-17 7t-7 17zM401 690q0 10 7 17.5t17 7.5 t17.5 -7.5t7.5 -17.5t-7.5 -17t-17.5 -7t-17 7t-7 17zM405 -137q0 10 7 17t17 7t17.5 -7t7.5 -17t-7.5 -17t-17.5 -7t-17 7t-7 17zM421 1031q0 10 7 17t17 7t17 -7t7 -17t-7 -17t-17 -7t-17 7t-7 17zM432 782q0 10 7 17t17 7t17.5 -7t7.5 -17t-7.5 -17.5t-17.5 -7.5t-17 7.5 t-7 17.5zM433 -443q0 10 7.5 17.5t17.5 7.5t17 -7.5t7 -17.5q5 4 14 4q10 0 17 -7t7 -17t-7 -17t-17 -7t-17 7t-7 17q-5 -4 -14 -4q-10 0 -17.5 7t-7.5 17zM434 -216q0 10 7 17.5t17 7.5t17 -7.5t7 -17.5t-7 -17t-17 -7t-17 7t-7 17zM450 -370q0 10 7 17.5t17 7.5t17.5 -7.5 t7.5 -17.5t-7.5 -17t-17.5 -7t-17 7t-7 17zM469 1102q0 10 7 17.5t17 7.5t17.5 -7.5t7.5 -17.5t-7.5 -17t-17.5 -7t-17 7t-7 17zM487 -550q0 10 7 17t17 7q-5 7 -5 15q0 10 7 17.5t17 7.5t17 -7.5t7 -17.5t-7 -17t-17 -7q6 -8 6 -15q0 -10 -7.5 -17.5t-17.5 -7.5t-17 7.5 t-7 17.5zM500 84q0 10 7 17t17 7t17.5 -7t7.5 -17t-7.5 -17.5t-17.5 -7.5t-17 7.5t-7 17.5zM501 1042q0 10 7.5 17.5t17.5 7.5t17 -7.5t7 -17.5t-7 -17t-17 -7t-17.5 7t-7.5 17zM504 -417q0 10 7 17t17 7t17.5 -7t7.5 -17t-7.5 -17t-17.5 -7t-17 7t-7 17zM511 -283 q0 10 7 17t17 7t17.5 -7t7.5 -17t-7.5 -17.5t-17.5 -7.5t-17 7.5t-7 17.5zM518 858q0 10 7 17t17 7t17.5 -7t7.5 -17t-7.5 -17.5t-17.5 -7.5t-17 7.5t-7 17.5zM522 1131q0 10 7.5 17.5t17.5 7.5t17 -7.5t7 -17.5t-7 -17t-17 -7t-17.5 7t-7.5 17zM527 774q0 10 7 17t17 7 t17.5 -7t7.5 -17t-7.5 -17t-17.5 -7t-17 7t-7 17zM552 -379q0 10 7.5 17.5t17.5 7.5t17 -7.5t7 -17.5t-7 -17t-17 -7t-17.5 7t-7.5 17zM561 284q0 10 7.5 17.5t17.5 7.5t17 -7.5t7 -17.5t-7 -17t-17 -7t-17.5 7t-7.5 17zM569 -698q0 10 7 17.5t17 7.5t17.5 -7.5t7.5 -17.5 t-7.5 -17t-17.5 -7t-17 7t-7 17zM577 -536q0 10 7 17t17 7q18 0 23 -17q1 10 8 16.5t17 6.5t17 -7.5t7 -17.5t-7 -17t-17 -7q-19 0 -24 17q-2 -23 -24 -23q-10 0 -17 7.5t-7 17.5zM581 -612q0 10 7.5 17.5t17.5 7.5t17 -7.5t7 -17.5t-7 -17t-17 -7t-17.5 7t-7.5 17z M582 1195q0 10 7 17t17 7t17.5 -7t7.5 -17t-7.5 -17t-17.5 -7t-17 7t-7 17zM596 -151q0 10 7 17.5t17 7.5t17 -7.5t7 -17.5t-7 -17t-17 -7t-17 7t-7 17zM603 -478q0 10 7 17t17 7t17 -7t7 -17t-7 -17.5t-17 -7.5t-17 7.5t-7 17.5zM646 1357q0 10 7 17t17 7t17.5 -7t7.5 -17 t-6 -16q11 -6 11 -21q0 -10 -7.5 -17t-17.5 -7t-17 7t-7 17t6 16q-11 6 -11 21zM693 -766q0 10 7 17t17 7t17.5 -7t7.5 -17t-7.5 -17t-17.5 -7t-17 7t-7 17zM703 580q0 10 7.5 17.5t17.5 7.5t17 -7.5t7 -17.5t-7 -17t-17 -7t-17.5 7t-7.5 17zM719 1446q0 10 7.5 17t17.5 7 t17 -7t7 -17t-7 -17.5t-17 -7.5t-17.5 7.5t-7.5 17.5zM722 -542q0 10 7 17t17 7t17 -7t7 -17t-7 -17.5t-17 -7.5t-17 7.5t-7 17.5zM743 -685q0 10 7 17.5t17 7.5t17.5 -7.5t7.5 -17.5t-7.5 -17t-17.5 -7t-17 7t-7 17zM749 -139q0 10 7.5 17.5t17.5 7.5t17 -7.5t7 -17.5 t-7 -17t-17 -7t-17.5 7t-7.5 17zM756 771q0 10 7.5 17.5t17.5 7.5t17 -7.5t7 -17.5t-7 -17t-17 -7t-17.5 7t-7.5 17zM756 941q0 10 7 17.5t17 7.5t17 -7.5t7 -17.5t-7 -17t-17 -7t-17 7t-7 17zM767 -494q0 10 7 17.5t17 7.5t17.5 -7.5t7.5 -17.5t-7.5 -17t-17.5 -7t-17 7 t-7 17zM779 -376q0 10 7 17t17 7t17.5 -7t7.5 -17t-7.5 -17.5t-17.5 -7.5t-17 7.5t-7 17.5zM790 -597q0 10 7.5 17t17.5 7t17 -7t7 -17t-7 -17t-17 -7t-17.5 7t-7.5 17zM798 -829q0 10 7 17t17 7t17.5 -7t7.5 -17q0 -5 -1 -7q9 -1 15.5 -8t6.5 -17t-7.5 -17t-17.5 -7t-17 7 t-7 17q0 5 1 7q-9 1 -15.5 8t-6.5 17zM801 1123q0 10 7.5 17t17.5 7t17 -7t7 -17q0 -19 -19 -24q20 -4 20 -24q0 -10 -7.5 -17t-17.5 -7t-17 7t-7 17q0 19 19 24q-20 4 -20 24zM805 1521q0 10 7.5 17.5t17.5 7.5t17 -7.5t7 -17.5t-7 -17t-17 -7t-17.5 7t-7.5 17zM818 -720 q0 10 7.5 17t17.5 7t17 -7t7 -17t-7 -17.5t-17 -7.5t-17.5 7.5t-7.5 17.5zM819 991q0 10 7 17.5t17 7.5t17.5 -7.5t7.5 -17.5t-7.5 -17t-17.5 -7t-17 7t-7 17zM830 1363q0 10 7 17.5t17 7.5t17.5 -7.5t7.5 -17.5t-7.5 -17t-17.5 -7t-17 7t-7 17zM852 1541q0 10 7 17.5 t17 7.5t17.5 -7.5t7.5 -17.5t-7.5 -17t-17.5 -7t-17 7t-7 17zM865 837q0 10 7 17.5t17 7.5t17.5 -7.5t7.5 -17.5t-7.5 -17t-17.5 -7t-17 7t-7 17zM878 -614q0 10 7 17.5t17 7.5t17.5 -7.5t7.5 -17.5t-7.5 -17t-17.5 -7t-17 7t-7 17zM916 1615q0 10 7 17t17 7t17.5 -7 t7.5 -17t-7.5 -17t-17.5 -7t-17 7t-7 17zM937 -575q0 10 7 17.5t17 7.5t17.5 -7.5t7.5 -17.5t-7.5 -17t-17.5 -7t-17 7t-7 17zM938 1365q0 10 7 17.5t17 7.5t17 -7.5t7 -17.5t-7 -17t-17 -7t-17 7t-7 17zM945 820q0 10 7 17t17 7t17.5 -7t7.5 -17t-7.5 -17.5t-17.5 -7.5 t-17 7.5t-7 17.5zM964 1629q0 10 7 17t17 7t17.5 -7t7.5 -17t-7.5 -17.5t-17.5 -7.5t-17 7.5t-7 17.5zM1024 1467q0 10 7 17.5t17 7.5t17 -7.5t7 -17.5t-7 -17t-17 -7t-17 7t-7 17zM1062 882q0 10 7 17t17 7t17.5 -7t7.5 -17t-7.5 -17.5t-17.5 -7.5t-17 7.5t-7 17.5z M1070 1522q0 10 7 17t17 7t17.5 -7t7.5 -17t-7.5 -17t-17.5 -7t-17 7t-7 17zM1079 429q0 10 7 17.5t17 7.5t17.5 -7.5t7.5 -17.5t-7.5 -17t-17.5 -7t-17 7t-7 17zM1084 -1138q0 10 7 17t17 7t17.5 -7t7.5 -17t-7.5 -17t-17.5 -7t-17 7t-7 17zM1099 -234q0 10 7 17.5t17 7.5 t17 -7.5t7 -17.5t-7 -17t-17 -7t-17 7t-7 17zM1101 1683q0 10 7.5 17t17.5 7t17 -7t7 -17t-7 -17.5t-17 -7.5t-17.5 7.5t-7.5 17.5zM1128 -1023q0 10 7.5 17.5t17.5 7.5t17 -7.5t7 -17.5t-7 -17t-17 -7t-17.5 7t-7.5 17zM1156 1398q0 10 7 17t17 7t17 -7t7 -17t-7 -17.5 t-17 -7.5t-17 7.5t-7 17.5zM1174 -832q0 10 7 17.5t17 7.5t17.5 -7.5t7.5 -17.5q0 -13 -11 -20q17 -5 17 -23q0 -10 -7.5 -17t-17.5 -7t-17 7t-7 17q0 13 10 20q-16 5 -16 23zM1205 1721q0 10 7 17.5t17 7.5t17.5 -7.5t7.5 -17.5t-7.5 -17t-17.5 -7t-17 7t-7 17zM1252 -858 q0 10 7 17.5t17 7.5t17.5 -7.5t7.5 -17.5t-7.5 -17t-17.5 -7t-17 7t-7 17zM1255 -712q0 10 7 17t17 7t17 -7t7 -17t-7 -17.5t-17 -7.5t-17 7.5t-7 17.5zM1257 -981q0 10 7 17q-6 8 -6 15q0 10 7.5 17.5t17.5 7.5t17 -7.5t7 -17.5q0 -9 -7 -16q6 -8 6 -16q0 -10 -7 -17 t-17 -7t-17.5 7t-7.5 17zM1285 1716q0 22 21 24q-17 5 -17 23q0 10 7 17.5t17 7.5t17.5 -7.5t7.5 -17.5t-6.5 -16.5t-15.5 -7.5q18 -5 18 -23q0 -10 -7.5 -17.5t-17.5 -7.5t-17 7.5t-7 17.5zM1302 -887q0 18 18 23q0 1 -0.5 2.5t-0.5 2.5q0 10 7.5 17.5t17.5 7.5t17 -7.5 t7 -17.5q0 -18 -18 -23q0 -1 0.5 -2.5t0.5 -2.5q0 -10 -7.5 -17.5t-17.5 -7.5t-17 7.5t-7 17.5zM1327 1857q0 10 7.5 17.5t17.5 7.5t17 -7.5t7 -17.5v-2q16 -5 16 -23q0 -10 -7 -17t-17 -7t-17.5 7t-7.5 17v2q-16 5 -16 23zM1336 -1080q0 10 7.5 17t17.5 7t17 -7t7 -17 t-7 -17.5t-17 -7.5t-17.5 7.5t-7.5 17.5zM1337 -1156q0 10 7 17t17 7t17.5 -7t7.5 -17t-7.5 -17t-17.5 -7t-17 7t-7 17zM1378 -1313q0 10 7.5 17.5t17.5 7.5t17 -7.5t7 -17.5t-7 -17t-17 -7t-17.5 7t-7.5 17zM1404 -1087q0 10 7.5 17.5t17.5 7.5t17 -7.5t7 -17.5t-7 -17 t-17 -7t-17.5 7t-7.5 17zM1407 -940q0 10 7.5 17.5t17.5 7.5t17 -7.5t7 -17.5t-7 -17t-17 -7t-17.5 7t-7.5 17zM1420 -889q0 10 7 17.5t17 7.5t17 -7.5t7 -17.5t-7 -17t-17 -7t-17 7t-7 17zM1470 1860q0 10 7 17t17 7t17.5 -7t7.5 -17q0 -7 -5 -14h2l2 1q10 0 17 -7.5 t7 -17.5t-7 -17t-17 -7t-17 7t-7 17q0 9 4 14h-4q-10 0 -17 7t-7 17zM1480 -1046q0 10 7 17t17 7t17 -7t7 -17t-7 -17t-17 -7t-17 7t-7 17zM1514 1475q0 10 7.5 17t17.5 7q15 0 22 -15h1q10 0 17.5 -7t7.5 -17t-7.5 -17t-17.5 -7q-15 0 -22 15h-1q-10 0 -17.5 7t-7.5 17z M1515 -1091q0 10 7 17t17 7t17 -7t7 -17t-7 -17t-17 -7t-17 7t-7 17zM1525 -1149q0 10 7 17.5t17 7.5q8 0 15 -5q7 10 19 10q10 0 17 -7t7 -17t-7 -17.5t-17 -7.5q-7 0 -14 5q-7 -10 -20 -10q-10 0 -17 7t-7 17zM1557 1748q0 10 7 17t17 7t17 -7t7 -17t-7 -17.5t-17 -7.5 t-17 7.5t-7 17.5zM1562 1547q0 10 7.5 17t17.5 7t17 -7t7 -17t-7 -17.5t-17 -7.5t-17.5 7.5t-7.5 17.5zM1576 -1084q0 10 7.5 17t17.5 7t17 -7t7 -17t-7 -17.5t-17 -7.5t-17.5 7.5t-7.5 17.5zM1600 -850q0 10 7 17.5t17 7.5t17 -7.5t7 -17.5t-7 -17t-17 -7t-17 7t-7 17z M1638 1736q0 10 6.5 16.5t15.5 7.5q-4 5 -4 14q0 10 7 17t17 7t17.5 -7t7.5 -17q0 -5 -4 -13q9 -1 15.5 -7.5t6.5 -16.5t-7 -17t-17 -7q-12 0 -18 7q-7 -9 -19 -9q-10 0 -17 7.5t-7 17.5zM1666 1424q0 10 7.5 17t17.5 7t17 -7t7 -17t-7 -17t-17 -7t-17.5 7t-7.5 17z M1732 -1130q0 10 7 17.5t17 7.5t17 -7.5t7 -17.5q0 -3 -2 -9h2q10 0 17 -7.5t7 -17.5t-7 -17t-17 -7t-17 7t-7 17q0 4 2 10h-2q-10 0 -17 7t-7 17zM1802 -1117q0 10 7 17t17 7t17 -7t7 -17q0 -11 -5 -16q18 -5 18 -23q0 -10 -7 -17.5t-17 -7.5t-17.5 7.5t-7.5 17.5q0 9 6 15 q-18 5 -18 24zM1872 -1117q0 10 7.5 17.5t17.5 7.5t17 -7.5t7 -17.5t-7 -17t-17 -7t-17.5 7t-7.5 17zM1913 1733q0 10 7.5 17.5t17.5 7.5t17 -7.5t7 -17.5t-7 -17t-17 -7t-17.5 7t-7.5 17zM1923 -1364q0 10 7 17t17 7t17.5 -7t7.5 -17t-7.5 -17.5t-17.5 -7.5t-17 7.5 t-7 17.5zM1935 -1085q0 10 7.5 17t17.5 7q4 0 10 -2q7 14 22 14q10 0 17 -7.5t7 -17.5t-7 -17t-17 -7q-4 0 -10 2q-7 -14 -22 -14q-10 0 -17.5 7.5t-7.5 17.5zM2006 1456q0 10 7 17t17 7t17 -7t7 -17t-7 -17.5t-17 -7.5t-17 7.5t-7 17.5zM2068 -696q0 10 7.5 17t17.5 7 t17 -7t7 -17t-7 -17t-17 -7t-17.5 7t-7.5 17zM2071 1723q0 10 7 17.5t17 7.5t17.5 -7.5t7.5 -17.5t-7.5 -17t-17.5 -7t-17 7t-7 17zM2137 -1109q0 10 7.5 17.5t17.5 7.5t17 -7.5t7 -17.5t-7 -17t-17 -7t-17.5 7t-7.5 17zM2144 1816q0 10 7.5 17t17.5 7t17 -7t7 -17t-7 -17.5 t-17 -7.5t-17.5 7.5t-7.5 17.5zM2191 1712q0 10 7.5 17.5t17.5 7.5t17 -7.5t7 -17.5q0 -18 -16 -23q10 -1 15 -11q2 20 21 23q-15 7 -15 22q0 10 7.5 17t17.5 7t17 -7t7 -17q0 -20 -20 -24q14 -7 14 -23q0 -13 -11 -20h3q19 0 24 -17q5 16 23 16q10 0 17 -7t7 -17t-7 -17.5 t-17 -7.5q-4 0 -12 4q7 -7 7 -17t-7.5 -17.5t-17.5 -7.5t-17 7.5t-7 17.5q0 8 5 15q-22 2 -22 24q0 13 10 20h-2q-14 0 -21 12q-2 -23 -24 -23q-10 0 -17.5 7.5t-7.5 17.5q0 18 16 23q-19 3 -19 23zM2237 -1110q0 10 7.5 17.5t17.5 7.5t17 -7.5t7 -17.5t-7 -17t-17 -7 t-17.5 7t-7.5 17zM2276 -934q0 10 7 17.5t17 7.5t17 -7.5t7 -17.5t-7 -17t-17 -7t-17 7t-7 17zM2287 -1032q0 10 7 17.5t17 7.5q9 0 15.5 -6t8.5 -15q7 14 22 14q10 0 17 -7t7 -17t-7 -17.5t-17 -7.5q-9 0 -15.5 6t-8.5 15q-1 -3 -5 -7q8 -6 8 -18q0 -10 -7 -17.5t-17 -7.5 t-17.5 7.5t-7.5 17.5q0 11 8 17q-8 6 -8 18zM2288 1486q0 10 7 17.5t17 7.5t17.5 -7.5t7.5 -17.5t-7.5 -17t-17.5 -7t-17 7t-7 17zM2299 1617q5 0 10 -3q-5 5 -6 10q-1 -4 -4 -7zM2335 -986q0 10 7.5 17.5t17.5 7.5t17 -7.5t7 -17.5t-7 -17t-17 -7t-17.5 7t-7.5 17z M2343 -856q0 10 7.5 17t17.5 7t17 -7t7 -17t-7 -17t-17 -7t-17.5 7t-7.5 17zM2348 1529q0 10 7.5 17.5t17.5 7.5t17 -7.5t7 -17.5t-7 -17t-17 -7t-17.5 7t-7.5 17zM2358 -941q0 10 7.5 17.5t17.5 7.5t17 -7.5t7 -17.5t-7 -17t-17 -7t-17.5 7t-7.5 17zM2413 1577q0 10 7 17 t17 7t17.5 -7t7.5 -17t-7.5 -17.5t-17.5 -7.5t-17 7.5t-7 17.5zM2416 -818q0 10 7 17t17 7t17 -7t7 -17t-4 -15q8 4 12 4q10 0 17 -7.5t7 -17.5t-7 -17t-17 -7t-17 7t-7 17q0 8 5 15q-8 -4 -13 -4q-10 0 -17 7.5t-7 17.5zM2427 1276q0 10 7.5 17.5t17.5 7.5t17 -7.5t7 -17.5 t-7 -17t-17 -7t-17.5 7t-7.5 17zM2440 -975q0 10 7.5 17.5t17.5 7.5h3q5 16 23 16q10 0 17 -7t7 -17t-7 -17.5t-17 -7.5q-1 0 -3 1q-5 -17 -23 -17q-10 0 -17.5 7t-7.5 17zM2464 -1137q0 10 7 17t17 7t17.5 -7t7.5 -17t-7.5 -17.5t-17.5 -7.5t-17 7.5t-7 17.5zM2472 -770 q0 10 7 17t17 7t17 -7t7 -17t-7 -17t-17 -7t-17 7t-7 17zM2499 1732q0 10 7.5 17t17.5 7t17 -7t7 -17t-7 -17t-17 -7t-17.5 7t-7.5 17zM2521 -290q0 10 7 17t17 7t17 -7t7 -17t-7 -17.5t-17 -7.5t-17 7.5t-7 17.5zM2526 -930q0 10 7 17t17 7t17.5 -7t7.5 -17t-7.5 -17.5 t-17.5 -7.5t-17 7.5t-7 17.5zM2531 -865q0 10 7.5 17t17.5 7t17 -7t7 -17t-7 -17t-17 -7t-17.5 7t-7.5 17zM2536 -715q0 10 7.5 17t17.5 7t17 -7t7 -17q0 -15 -14 -22q14 -7 14 -23q0 -10 -7 -17t-17 -7t-17 7t-7 17q0 16 13 22q-14 7 -14 23zM2564 1529q0 10 7.5 17t17.5 7 t17 -7t7 -17t-7 -17.5t-17 -7.5t-17.5 7.5t-7.5 17.5zM2566 -646q0 10 7 17.5t17 7.5t17.5 -7.5t7.5 -17.5t-7.5 -17t-17.5 -7t-17 7t-7 17zM2583 -903q0 10 7.5 17.5t17.5 7.5t17 -7.5t7 -17.5t-7 -17t-17 -7t-17.5 7t-7.5 17zM2586 -760q0 10 7 17t17 7t17.5 -7t7.5 -17 q1 0 1 0.5t1 0.5q10 0 16 -6v3q0 10 7 17t17 7q9 0 16 -6t8 -15h3q10 0 17 -7.5t7 -17.5t-7 -17t-17 -7q-9 0 -16 6t-8 15h-3q-10 0 -16 6v-3q0 -10 -7 -17t-17 -7t-17 7t-7 17h-3q-10 0 -17 7t-7 17zM2652 -949q0 10 7 17t17 7t17 -7t7 -17t-7 -17.5t-17 -7.5t-17 7.5 t-7 17.5zM2660 -699q0 10 7.5 17.5t17.5 7.5t17 -7.5t7 -17.5t-7 -17t-17 -7t-17.5 7t-7.5 17zM2663 -387q0 22 23 24q-16 7 -16 23q0 10 7.5 17t17.5 7t17 -7t7 -17q0 -22 -23 -24q16 -7 16 -23q0 -10 -7.5 -17t-17.5 -7t-17 7t-7 17zM2673 1562q0 10 7 17t17 7t17 -7 t7 -17v-3q6 2 10 2h2q5 18 24 18q10 0 17 -7t7 -17t-7 -17t-17 -7h-2q-5 -19 -24 -19q-10 0 -17 7.5t-7 17.5v2q-6 -2 -10 -2q-10 0 -17 7.5t-7 17.5zM2690 1343q0 10 7 17t17 7t17.5 -7t7.5 -17t-7.5 -17t-17.5 -7t-17 7t-7 17zM2729 -757q0 10 7 17t17 7t17 -7t7 -17 t-7 -17t-17 -7t-17 7t-7 17zM2729 1459q0 10 7 17t17 7t17.5 -7t7.5 -17t-7.5 -17.5t-17.5 -7.5t-17 7.5t-7 17.5zM2780 -565q0 10 7 17t17 7q12 0 19 -9v1q0 10 7 17.5t17 7.5t17.5 -7.5t7.5 -17.5t-7.5 -17t-17.5 -7q-11 0 -18 9v-1q0 -10 -7.5 -17.5t-17.5 -7.5t-17 7.5 t-7 17.5zM2794 -1034q0 10 7.5 17.5t17.5 7.5t17 -7.5t7 -17.5t-7 -17t-17 -7t-17.5 7t-7.5 17zM2800 -400q0 10 7.5 17t17.5 7t17 -7t7 -17t-7 -17.5t-17 -7.5t-17.5 7.5t-7.5 17.5zM2808 -457q0 10 7 17.5t17 7.5t17.5 -7.5t7.5 -17.5t-7.5 -17t-17.5 -7t-17 7t-7 17z M2808 1429q0 10 7.5 17.5t17.5 7.5t17 -7.5t7 -17.5t-7 -17t-17 -7t-17.5 7t-7.5 17zM2810 174q0 10 7 17t17 7t17.5 -7t7.5 -17t-7.5 -17t-17.5 -7t-17 7t-7 17zM2823 -639q0 10 7 16.5t17 7.5q-3 5 -3 11q0 10 7 17.5t17 7.5t17.5 -7.5t7.5 -17.5t-7 -16.5t-17 -7.5 q3 -4 3 -11q0 -10 -7 -17.5t-17 -7.5t-17.5 7.5t-7.5 17.5zM2829 -345q0 10 7.5 17t17.5 7h4q-2 3 -2 11q0 10 7 17t17 7t17 -7t7 -17t-7 -17.5t-17 -7.5l-2 1h-2q2 -3 2 -11q0 -10 -7 -17t-17 -7t-17.5 7t-7.5 17zM2835 -974q0 10 7 17t17 7t17.5 -7t7.5 -17t-7.5 -17 t-17.5 -7t-17 7t-7 17zM2845 1473q0 10 7 17.5t17 7.5t17 -7.5t7 -17.5t-7 -17t-17 -7t-17 7t-7 17zM2850 -404q0 10 7 17.5t17 7.5q20 0 24 -20h2q10 0 17 -7.5t7 -17.5t-7 -17t-17 -7q-20 0 -24 20h-2q-10 0 -17 7t-7 17zM2850 1297q0 10 7 17.5t17 7.5t17 -7.5t7 -17.5 t-7 -17t-17 -7t-17 7t-7 17zM2861 992q0 10 7 17t17 7t17.5 -7t7.5 -17t-7.5 -17t-17.5 -7t-17 7t-7 17zM2872 -92q0 10 6.5 17t16.5 7q-1 2 -1 7q0 10 7.5 17t17.5 7t17 -7t7 -17t-7 -17.5t-17 -7.5q1 -2 1 -6q0 -10 -7 -17.5t-17 -7.5t-17 7.5t-7 17.5zM2875 1370 q0 10 7.5 17.5t17.5 7.5t17 -7.5t7 -17.5t-7 -17t-17 -7t-17.5 7t-7.5 17zM2876 -702q0 10 7 17t17 7t17 -7t7 -17t-7 -17t-17 -7t-17 7t-7 17zM2881 -543q0 10 7 17t17 7q12 0 18 -8v1q0 10 7 17t17 7t17.5 -7t7.5 -17t-7.5 -17t-17.5 -7q-12 0 -18 7q0 -10 -7 -17.5 t-17 -7.5t-17 7.5t-7 17.5zM2896 1424q0 10 7.5 17t17.5 7t17 -7t7 -17t-7 -17t-17 -7t-17.5 7t-7.5 17zM2897 -277q0 10 7 17.5t17 7.5q18 0 23 -18q6 6 16 6t17.5 -7t7.5 -17t-7.5 -17.5t-17.5 -7.5q-18 0 -23 18q-6 -6 -16 -6t-17 7t-7 17zM2897 1193q0 10 7 17t17 7 t17 -7t7 -17t-7 -17.5t-17 -7.5t-17 7.5t-7 17.5zM2913 -333q0 10 7 17.5t17 7.5t17 -7.5t7 -17.5t-7 -17t-17 -7t-17 7t-7 17zM2939 948q0 10 7 17t17 7t17 -7t7 -17t-7 -17.5t-17 -7.5t-17 7.5t-7 17.5zM2948 1188q0 10 7 17t17 7t17 -7t7 -17q0 -6 -1 -8q15 -8 15 -22 q0 -10 -7.5 -17t-17.5 -7t-17 7t-7 17q0 6 1 8q-14 7 -14 22zM2959 1439q0 10 7 17t17 7t17 -7t7 -17t-7 -17t-17 -7t-17 7t-7 17zM2965 -173q0 10 7.5 17t17.5 7t17 -7t7 -17t-7 -17t-17 -7t-17.5 7t-7.5 17zM2966 620q0 10 7.5 17.5t17.5 7.5t17 -7.5t7 -17.5t-7 -17 t-17 -7t-17.5 7t-7.5 17zM2971 -349q0 20 20 24v1q0 10 7.5 17.5t17.5 7.5t17 -7.5t7 -17.5q0 -20 -20 -24v-1q0 -10 -7 -17.5t-17 -7.5t-17.5 7.5t-7.5 17.5zM2975 104q0 10 7 17.5t17 7.5t17.5 -7.5t7.5 -17.5t-7.5 -17t-17.5 -7t-17 7t-7 17zM2993 185q0 10 7 17.5 t17 7.5t17 -7.5t7 -17.5t-7 -17t-17 -7t-17 7t-7 17zM3013 1157q0 10 7 17.5t17 7.5t17.5 -7.5t7.5 -17.5t-7.5 -17t-17.5 -7t-17 7t-7 17zM3014 -237q0 10 7.5 17t17.5 7t17 -7t7 -17t-7 -17t-17 -7t-17.5 7t-7.5 17zM3023 -13q0 16 15 23q-9 7 -9 19q0 10 7 17t17 7h3 q-3 6 -3 13q0 10 7 17t17 7t17 -7t7 -17t-7 -17.5t-17 -7.5h-3q4 -8 4 -12q0 -16 -15 -23q8 -6 8 -19q0 -10 -7 -17t-17 -7t-17 7t-7 17zM3032 -367q0 10 7 17t17 7t17 -7t7 -17t-7 -17.5t-17 -7.5t-17 7.5t-7 17.5zM3033 314q0 10 7.5 17.5t17.5 7.5t17 -7.5t7 -17.5 t-7 -17t-17 -7t-17.5 7t-7.5 17zM3038 -306q0 10 7 17.5t17 7.5t17 -7.5t7 -17.5t-7 -17t-17 -7t-17 7t-7 17zM3038 1004q0 10 7 17t17 7q20 0 24 -21q8 4 13 4q10 0 17.5 -7.5t7.5 -17.5q0 -12 -8 -18q6 -6 6 -16t-7 -17t-17 -7t-17.5 7t-7.5 17q0 12 8 18q-5 6 -6 13 q-8 -4 -13 -4q-10 0 -17 7.5t-7 17.5zM3052 -64q0 10 7.5 17t17.5 7t17 -7t7 -17t-7 -17t-17 -7t-17.5 7t-7.5 17zM3059 -177q0 10 7 17t17 7h4q-2 4 -2 8q0 10 7.5 17t17.5 7t17 -7t7 -17t-7 -17.5t-17 -7.5h-4q2 -4 2 -7q0 -10 -7.5 -17.5t-17.5 -7.5t-17 7.5t-7 17.5z M3066 766q0 10 7.5 17t17.5 7t17 -7t7 -17t-7 -17.5t-17 -7.5t-17.5 7.5t-7.5 17.5zM3076 -19q0 13 10 20q-7 6 -7 17q0 10 7 17.5t17 7.5q1 0 3 -0.5t3 -0.5q5 17 23 17q10 0 17 -7t7 -17t-7 -17.5t-17 -7.5q-1 0 -3 0.5t-3 0.5q-4 -9 -9 -13q7 -6 7 -17q0 -10 -7 -17.5 t-17 -7.5t-17 7.5t-7 17.5zM3089 -217q0 10 7 17.5t17 7.5t17 -7.5t7 -17.5t-7 -17t-17 -7t-17 7t-7 17zM3094 -274q0 10 7 17.5t17 7.5t17 -7.5t7 -17.5t-7 -17t-17 -7t-17 7t-7 17zM3104 221q0 10 7.5 17.5t17.5 7.5t17 -7.5t7 -17.5t-7 -17t-17 -7t-17.5 7t-7.5 17z M3106 147q0 10 7 17t17 7t17.5 -7t7.5 -17t-7.5 -17.5t-17.5 -7.5t-17 7.5t-7 17.5zM3118 511q0 10 7 17.5t17 7.5q-3 6 -3 12q0 10 7 17.5t17 7.5t17.5 -7.5t7.5 -17.5t-7.5 -17t-17.5 -7q4 -8 4 -13q0 -10 -7.5 -17t-17.5 -7t-17 7t-7 17zM3121 1121q0 10 7 17t17 7 t17.5 -7t7.5 -17t-7.5 -17.5t-17.5 -7.5t-17 7.5t-7 17.5zM3122 335q0 10 7 17t17 7t17 -7t7 -17t-7 -17.5t-17 -7.5t-17 7.5t-7 17.5zM3140 -597q0 10 7.5 17.5t17.5 7.5t17 -7.5t7 -17.5t-7 -17t-17 -7t-17.5 7t-7.5 17zM3145 -137q0 10 7 17.5t17 7.5t17 -7.5t7 -17.5 t-7 -17t-17 -7t-17 7t-7 17zM3156 921q0 10 7 17.5t17 7.5t17.5 -7.5t7.5 -17.5t-7.5 -17t-17.5 -7t-17 7t-7 17zM3168 81q0 10 7 17t17 7t17 -7t7 -17t-7 -17.5t-17 -7.5t-17 7.5t-7 17.5zM3170 277q0 10 7 17.5t17 7.5t17.5 -7.5t7.5 -17.5t-7.5 -17t-17.5 -7t-17 7t-7 17 zM3171 678q0 10 7 17.5t17 7.5t17.5 -7.5t7.5 -17.5t-7.5 -17t-17.5 -7t-17 7t-7 17zM3178 391q0 10 7.5 17t17.5 7t17 -7t7 -17t-7 -17.5t-17 -7.5t-17.5 7.5t-7.5 17.5zM3187 -305q0 10 7.5 17.5t17.5 7.5t17 -7.5t7 -17.5t-7 -17t-17 -7t-17.5 7t-7.5 17zM3223 218 q0 10 7.5 17t17.5 7t17 -7t7 -17t-7 -17.5t-17 -7.5t-17.5 7.5t-7.5 17.5zM3223 531q0 10 7 17t17 7t17 -7t7 -17t-7 -17t-17 -7t-17 7t-7 17zM3231 348q0 10 7 17t17 7t17 -7t7 -17t-7 -17.5t-17 -7.5t-17 7.5t-7 17.5zM3240 1012q0 10 7 17t17 7q13 0 19 -9q-2 6 -2 10 q0 10 7.5 17t17.5 7t17 -7t7 -17t-7 -17t-17 -7q-13 0 -19 9q2 -6 2 -10q0 -10 -7.5 -17.5t-17.5 -7.5t-17 7.5t-7 17.5zM3242 96q0 10 7.5 17t17.5 7t17 -7t7 -17t-7 -17t-17 -7t-17.5 7t-7.5 17zM3245 670q0 10 7 17t17 7t17 -7t7 -17t-7 -17.5t-17 -7.5t-17 7.5t-7 17.5z M3272 457q0 10 7.5 17.5t17.5 7.5t17 -7.5t7 -17.5t-7 -17t-17 -7t-17.5 7t-7.5 17zM3362 602q0 10 7 17.5t17 7.5t17.5 -7.5t7.5 -17.5t-7.5 -17t-17.5 -7t-17 7t-7 17zM3372 757q0 10 7 17.5t17 7.5t17 -7.5t7 -17.5t-7 -17t-17 -7t-17 7t-7 17zM3381 1305q0 10 7.5 17.5 t17.5 7.5t17 -7.5t7 -17.5t-7 -17t-17 -7t-17.5 7t-7.5 17zM3388 289q0 10 7.5 17.5t17.5 7.5t17 -7.5t7 -17.5t-7 -17t-17 -7t-17.5 7t-7.5 17zM3420 -55q0 10 7.5 17t17.5 7t17 -7t7 -17t-7 -17t-17 -7t-17.5 7t-7.5 17zM3459 389q0 10 7 17.5t17 7.5t17.5 -7.5t7.5 -17.5 t-7.5 -17t-17.5 -7t-17 7t-7 17zM3746 687q0 10 7.5 17.5t17.5 7.5t17 -7.5t7 -17.5t-7 -17t-17 -7t-17.5 7t-7.5 17z" />
<glyph unicode=")" horiz-adv-x="3649" d="M64 538q0 12 8 20t20 8t20 -8t8 -20t-8 -20t-20 -8t-20 8t-8 20zM64 782q0 -11 8 -19.5t20 -8.5t20 8.5t8 19.5q0 12 -8 20t-20 8t-20 -8t-8 -20zM74 674q0 12 8 20t20 8t20 -8t8 -20q0 -11 -8 -19.5t-20 -8.5t-20 8.5t-8 19.5zM84 954q0 11 8 19.5t20 8.5t20 -8.5 t8 -19.5q0 -12 -8 -20t-20 -8t-20 8t-8 20zM127 1142q0 12 8.5 20t19.5 8q12 0 20 -8t8 -20q0 -11 -8 -19.5t-20 -8.5q-11 0 -19.5 8.5t-8.5 19.5zM137 309q0 12 8.5 20t19.5 8q12 0 20.5 -8t8.5 -20q0 -11 -8.5 -19.5t-20.5 -8.5q-11 0 -19.5 8.5t-8.5 19.5zM180 185 q0 12 8.5 20t19.5 8q12 0 20.5 -8t8.5 -20t-8.5 -20t-20.5 -8q-11 0 -19.5 8t-8.5 20zM180 675q0 11 8.5 19.5t19.5 8.5q12 0 20 -8.5t8 -19.5q0 -12 -8 -20t-20 -8q-11 0 -19.5 8t-8.5 20zM198 41q0 12 8.5 20t20.5 8t20 -8t8 -20t-8 -20t-20 -8t-20.5 8t-8.5 20zM205 1016 q0 11 8.5 19.5t19.5 8.5q12 0 20 -8.5t8 -19.5q0 -12 -8 -20t-20 -8q-11 0 -19.5 8t-8.5 20zM211 1343q0 12 8.5 20t19.5 8q12 0 20 -8t8 -20t-8 -20t-20 -8q-11 0 -19.5 8t-8.5 20zM305 972q0 11 8 19.5t20 8.5t20 -8.5t8 -19.5q0 -12 -8 -20t-20 -8t-20 8t-8 20zM311 442 q0 12 8.5 20t20.5 8q11 0 19.5 -8t8.5 -20t-8.5 -20.5t-19.5 -8.5q-12 0 -20.5 8.5t-8.5 20.5zM352 -115q0 12 8 20t20 8q11 0 19.5 -8t8.5 -20t-8.5 -20t-19.5 -8q-12 0 -20 8t-8 20zM355 1556q0 11 8 19.5t20 8.5q11 0 19.5 -8.5t8.5 -19.5q0 -12 -8.5 -20t-19.5 -8 q-12 0 -20 8t-8 20zM365 -280q0 -11 8 -19.5t20 -8.5t20 8t8 20t-8 20t-20 8t-20 -8t-8 -20zM416 -326q0 11 8 19.5t20 8.5q11 0 19.5 -8t8.5 -20t-8.5 -20t-19.5 -8q-12 0 -20 8t-8 20zM453 -431q0 -12 8 -20t20 -8q11 0 19.5 8t8.5 20t-8.5 20t-19.5 8q-12 0 -20 -8 t-8 -20zM493 1399q0 12 8.5 20t19.5 8q12 0 20 -8t8 -20t-8 -20t-20 -8q-11 0 -19.5 8t-8.5 20zM515 -144q0 12 8.5 20t19.5 8q12 0 20 -8t8 -20t-8 -20t-20 -8q-11 0 -19.5 8t-8.5 20zM566 1848q0 11 8.5 19.5t19.5 8.5q12 0 20 -8.5t8 -19.5q0 -12 -8 -20t-20 -8 q-11 0 -19.5 8t-8.5 20zM568 -509q0 12 8 20t20 8t20 -8t8 -20q0 -11 -8 -19.5t-20 -8.5t-20 8.5t-8 19.5zM584 -657q0 12 8 20t20 8t20.5 -8t8.5 -20q0 -11 -8.5 -19.5t-20.5 -8.5t-20 8.5t-8 19.5zM680 1973q0 12 8 20t20 8q11 0 19.5 -8t8.5 -20q0 -11 -8.5 -19.5 t-19.5 -8.5q-12 0 -20 8.5t-8 19.5zM746 -493q0 11 9 19.5t20 8.5q12 0 20 -8.5t8 -19.5q0 -12 -8 -20t-20 -8t-20.5 8t-8.5 20zM747 -821q0 11 8 19.5t20 8.5q11 0 19.5 -8.5t8.5 -19.5q0 -12 -8.5 -20t-19.5 -8q-12 0 -20 8t-8 20zM807 1722q0 11 8 19.5t20 8.5t20 -8.5 t8 -19.5q0 -12 -8 -20t-20 -8t-20 8t-8 20zM874 2085q0 11 8.5 19.5t19.5 8.5q12 0 20 -8.5t8 -19.5q0 -12 -8 -20t-20 -8q-11 0 -19.5 8t-8.5 20zM884 -744q0 12 8 20t20 8q11 0 19.5 -8t8.5 -20t-8.5 -20t-19.5 -8q-12 0 -20 8t-8 20zM980 -634q0 12 8.5 20t19.5 8 q12 0 20 -8t8 -20q0 -11 -8 -19.5t-20 -8.5q-11 0 -19.5 8.5t-8.5 19.5zM1013 -913q0 11 8 19.5t20 8.5q11 0 19.5 -8.5t8.5 -19.5q0 -12 -8.5 -20t-19.5 -8q-12 0 -20 8t-8 20zM1068 2168q0 12 8 20t20 8t20 -8t8 -20q0 -11 -8 -19.5t-20 -8.5t-20 8.5t-8 19.5zM1142 1915 q0 12 8.5 20t19.5 8q12 0 20 -8t8 -20q0 -11 -8 -19.5t-20 -8.5q-11 0 -19.5 8.5t-8.5 19.5zM1150 -842q0 11 8 19.5t20 8.5q11 0 19.5 -8.5t8.5 -19.5q0 -12 -8.5 -20.5t-19.5 -8.5q-12 0 -20 8.5t-8 20.5zM1212 -944q0 -12 8 -20t20 -8t20 8t8 20q0 11 -8 19.5t-20 8.5 t-20 -8.5t-8 -19.5zM1234 2177q0 12 8 20.5t20 8.5t20 -8.5t8 -20.5q0 -11 -8 -19.5t-20 -8.5t-20 8.5t-8 19.5zM1355 -735q0 12 8 20t20 8q11 0 19.5 -8t8.5 -20t-8.5 -20t-19.5 -8q-12 0 -20 8t-8 20zM1446 2049q0 12 8 20t20 8t20 -8t8 -20t-8 -20t-20 -8t-20 8t-8 20z M1470 -982q0 -12 8 -20t20 -8q11 0 19.5 8t8.5 20t-8.5 20t-19.5 8q-12 0 -20 -8t-8 -20zM1608 2155q0 11 8.5 20t19.5 9q12 0 20 -8.5t8 -20.5t-8 -20t-20 -8q-11 0 -19.5 8t-8.5 20zM1619 -1013q0 11 8.5 19.5t19.5 8.5q7 0 13 -3q5 22 27 22q11 0 19.5 -8t8.5 -20 q0 -11 -8.5 -19.5t-19.5 -8.5q-7 0 -13 3q-5 -23 -27 -23q-11 0 -19.5 8.5t-8.5 20.5zM1625 -918q0 -12 8 -20t20 -8q11 0 19.5 8t8.5 20q0 11 -8.5 19.5t-19.5 8.5q-12 0 -20 -8.5t-8 -19.5zM1752 -742q0 12 8 20.5t20 8.5t20.5 -9t8.5 -20q0 -12 -8.5 -20t-20.5 -8t-20 8 t-8 20zM1757 -914q0 12 8.5 20t19.5 8q12 0 20.5 -8t8.5 -20t-8.5 -20t-20.5 -8q-11 0 -19.5 8t-8.5 20zM1807 2144q0 11 8.5 19.5t19.5 8.5q12 0 20 -8.5t8 -19.5q0 -12 -8 -20t-20 -8q-11 0 -19.5 8t-8.5 20zM1889 -994q0 11 8.5 19.5t19.5 8.5q12 0 20 -8.5t8 -19.5 q0 -12 -8 -20t-20 -8q-11 0 -19.5 8t-8.5 20zM1895 2145q0 12 8.5 20t19.5 8q12 0 20 -8t8 -20t-8 -20t-20 -8q-11 0 -19.5 8t-8.5 20zM2045 2125q0 11 8.5 19.5t19.5 8.5q12 0 20 -8.5t8 -19.5q0 -12 -8 -20t-20 -8q-11 0 -19.5 8t-8.5 20zM2075 -725q0 12 8 20t20 8t20 -8 t8 -20t-8 -20t-20 -8t-20 8t-8 20zM2138 -996q0 12 8.5 20t20.5 8t20 -8t8 -20t-8 -20t-20 -8t-20.5 8t-8.5 20zM2207 2065q0 19 19 26q-15 8 -15 25q0 12 8 20t20 8t20 -8t8 -20q0 -19 -19 -26q15 -8 15 -25q0 -12 -8 -20t-20 -8q-11 0 -19.5 8t-8.5 20zM2261 -822 q0 12 8 20t20 8t20 -8t8 -20t-8 -20t-20 -8t-20 8t-8 20zM2283 -935q0 11 8 19.5t20 8.5t20 -8.5t8 -19.5q0 -12 -8 -20t-20 -8t-20 8t-8 20zM2301 -674q0 12 8.5 20.5t19.5 8.5q12 0 20 -8.5t8 -20.5q0 -11 -8 -19.5t-20 -8.5q-11 0 -19.5 8.5t-8.5 19.5zM2315 2031 q0 11 9 19.5t20 8.5q12 0 20 -8.5t8 -19.5q0 -12 -8 -20t-20 -8t-20.5 8t-8.5 20zM2393 -945q0 11 8 19.5t20 8.5t20 -8.5t8 -19.5q0 -12 -8 -20t-20 -8t-20 8t-8 20zM2416 -611q0 12 8 20t20 8q11 0 19.5 -8t8.5 -20t-8.5 -20t-19.5 -8q-12 0 -20 8t-8 20zM2449 1959 q0 11 8 19.5t20 8.5q16 0 24 -13q9 16 25 16q11 0 19.5 -8t8.5 -20q0 -11 -8.5 -19.5t-19.5 -8.5q-16 0 -24 12q-9 -16 -25 -16q-12 0 -20 8.5t-8 20.5zM2592 -821q0 11 8 19.5t20 8.5q11 0 20 -8.5t9 -19.5q0 -12 -8.5 -20t-20.5 -8t-20 8t-8 20zM2679 -684q0 -12 8.5 -20 t19.5 -8q12 0 20 8t8 20t-8 20.5t-20 8.5q-11 0 -19.5 -9t-8.5 -20zM2705 1791q0 12 8 20.5t20 8.5t20.5 -9t8.5 -20q0 -12 -8.5 -20t-20.5 -8t-20 8t-8 20zM2733 -582q0 12 8 20t20 8q11 0 19.5 -8t8.5 -20t-8.5 -20t-19.5 -8q-12 0 -20 8t-8 20zM2772 -687q0 11 8 19.5 t20 8.5t20 -8.5t8 -19.5q0 -12 -8 -20t-20 -8t-20 8t-8 20zM2774 1747q0 -12 8 -20t20 -8q11 0 19.5 8t8.5 20q0 11 -8.5 19.5t-19.5 8.5q-12 0 -20 -8.5t-8 -19.5zM2883 1648q0 12 8 20t20 8t20 -8t8 -20t-8 -20t-20 -8t-20 8t-8 20zM2960 -532q0 12 8.5 20t19.5 8 q12 0 20 -8t8 -20t-8 -20t-20 -8q-11 0 -19.5 8t-8.5 20zM2969 1509q0 11 8 19.5t20 8.5q11 0 19.5 -8.5t8.5 -19.5q0 -12 -8.5 -20t-19.5 -8q-12 0 -20 8t-8 20zM3009 -324q0 12 8.5 20t19.5 8q12 0 20 -8t8 -20t-8 -20t-20 -8q-11 0 -19.5 8t-8.5 20zM3014 1552q0 12 8 20 t20 8t20 -8t8 -20t-8 -20t-20 -8t-20 8t-8 20zM3068 1393q0 12 8 20t20 8q11 0 19.5 -8t8.5 -20q0 -11 -8.5 -19.5t-19.5 -8.5q-12 0 -20 8.5t-8 19.5zM3101 1276q0 12 8.5 20t19.5 8q12 0 20 -8t8 -20q0 -11 -8 -19.5t-20 -8.5q-11 0 -19.5 8.5t-8.5 19.5zM3105 -114 q0 12 8.5 20.5t19.5 8.5q12 0 20 -8.5t8 -20.5q0 -11 -8 -19.5t-20 -8.5q-11 0 -19.5 8.5t-8.5 19.5zM3111 -281q0 12 8.5 20t19.5 8q12 0 20 -8t8 -20q0 -11 -8 -19.5t-20 -8.5q-11 0 -19.5 8t-8.5 20zM3115 -365q0 11 8 19.5t20 8.5q11 0 19.5 -8.5t8.5 -19.5 q0 -12 -8.5 -20t-19.5 -8q-12 0 -20 8t-8 20zM3160 1280q0 11 8.5 19.5t19.5 8.5q12 0 20 -8t8 -20t-8 -20t-20 -8q-11 0 -19.5 8t-8.5 20zM3175 229q0 12 8.5 20t19.5 8q12 0 20 -8t8 -20t-8 -20t-20 -8q-11 0 -19.5 8t-8.5 20zM3181 1135q0 12 8 20t20 8t20 -8t8 -20 q0 -11 -8 -19.5t-20 -8.5t-20 8.5t-8 19.5zM3192 622q0 12 8 20t20 8t20 -8t8 -20t-8 -20t-20 -8t-20 8t-8 20zM3192 992q0 12 8 20t20 8q11 0 19.5 -8t8.5 -20q0 -11 -8.5 -19.5t-19.5 -8.5q-12 0 -20 8.5t-8 19.5zM3221 -234q0 12 8 20t20 8t20 -8t8 -20q0 -11 -8 -19.5 t-20 -8.5t-20 8.5t-8 19.5zM3251 982q0 12 8 20t20 8t20 -8t8 -20q0 -11 -8 -19.5t-20 -8.5t-20 8.5t-8 19.5zM3275 849q0 11 8 19.5t20 8.5q11 0 19.5 -8.5t8.5 -19.5q0 -12 -8.5 -20.5t-19.5 -8.5q-12 0 -20 8.5t-8 20.5zM3289 -78q0 11 8 19.5t20 8.5t20 -8t8 -20t-8 -20 t-20 -8t-20 8t-8 20zM3295 708q0 12 8.5 20t19.5 8q12 0 20 -8t8 -20q0 -11 -8 -19.5t-20 -8.5q-11 0 -19.5 8.5t-8.5 19.5zM3340 601q0 12 8 20.5t20 8.5t20 -8.5t8 -20.5t-8 -20t-20 -8t-20 8t-8 20zM3346 164q0 12 8 20t20 8q11 0 19.5 -8t8.5 -20q0 -11 -8.5 -19.5 t-19.5 -8.5q-12 0 -20 8.5t-8 19.5zM3346 401q0 11 8.5 19.5t20.5 8.5t20 -8.5t8 -19.5q0 -12 -8 -20t-20 -8t-20.5 8t-8.5 20zM3456 207q0 12 8 20t20 8q11 0 19.5 -8t8.5 -20t-8.5 -20.5t-19.5 -8.5q-12 0 -20 8.5t-8 20.5z" />
<glyph unicode="*" horiz-adv-x="3649" d="M-103 331q0 223 58.5 450t161.5 427t237.5 374.5t292.5 313.5q2 11 10 18.5t19 7.5q55 47 125 97q332 302 803 302q428 0 722 -190q254 -98 411 -283q71 -83 126 -163q18 -7 18 -27q24 -34 58 -91q8 16 27 16q12 0 20.5 -8.5t8.5 -20.5t-8.5 -20.5t-20.5 -8.5h-2 q24 -42 45 -84l19 -19q8 17 27 17q12 0 20.5 -8.5t8.5 -20.5q0 -18 -17 -26q35 -36 69 -75q8 9 21 9q12 0 21 -8.5t9 -20.5q0 -16 -13 -24q29 -34 58 -73q8 9 22 9q12 0 20.5 -8.5t8.5 -20.5q0 -18 -17 -26q152 -214 223.5 -441.5t52 -466t-138.5 -453.5q14 -9 14 -25 q0 -12 -8.5 -20.5t-20.5 -8.5q-6 0 -14 4q-61 -99 -143 -190q-3 -19 -22 -24q-65 -70 -138 -131q-106 -90 -236 -167q-8 -15 -26 -15q-218 -126 -475 -196q14 -8 14 -25q0 -12 -8.5 -20.5t-20.5 -8.5t-20.5 8.5t-8.5 20.5q0 10 4 15q-277 -71 -566 -72.5t-530 61.5 q-143 18 -282 74q-2 -11 -10 -18.5t-19 -7.5q-12 0 -20.5 8.5t-8.5 20.5q0 10 7 19q-1 1 -2.5 1t-2.5 1q-139 33 -263 90q8 -8 8 -21q0 -12 -8.5 -20.5t-20.5 -8.5t-20.5 8.5t-8.5 20.5t8.5 20.5t20.5 8.5h2q-155 73 -278.5 180.5t-214 249t-139.5 323.5t-49 391zM-83 331 q0 -238 63.5 -438.5t179 -348.5t271 -251t347.5 -161q-109 62 -209 153q-6 -2 -10 -2q-12 0 -20.5 8.5t-8.5 20.5q0 6 1 9q-35 35 -63 67q-5 -24 -29 -24q-12 0 -20.5 9t-8.5 21t8.5 20.5t20.5 8.5q-39 47 -41 50q-11 2 -18.5 10t-7.5 19v5q-2 3 -6 8.5t-6 8.5q-6 -3 -12 -3 q-12 0 -20.5 8.5t-8.5 20.5t9 21q-95 144 -145 285q-3 -1 -8 -1q-12 0 -20.5 8.5t-8.5 20.5q0 20 19 27q-13 42 -25 98q-13 8 -13 25q0 10 6 17q-7 37 -10 84q-6 -2 -11 -2q-12 0 -20.5 8.5t-8.5 20.5t8.5 21t20.5 9q2 0 8 -2q-4 164 41 325q-1 0 -2.5 -0.5t-2.5 -0.5 q-12 0 -21 8.5t-9 20.5t9 20.5t21 8.5q7 0 11 -2q30 287 168 568q67 332 233 597q-6 -2 -11 -2q-22 0 -28 24q-274 -286 -443 -661t-169 -765zM6 654q0 12 8.5 20.5t20.5 8.5t20.5 -8.5t8.5 -20.5t-8.5 -20.5t-20.5 -8.5t-20.5 8.5t-8.5 20.5zM7 401q0 12 8.5 20.5t20.5 8.5 t20.5 -8.5t8.5 -20.5t-8.5 -20.5t-20.5 -8.5t-20.5 8.5t-8.5 20.5zM16 542q0 12 8.5 20.5t20.5 8.5t21 -8.5t9 -20.5t-9 -20.5t-21 -8.5t-20.5 8.5t-8.5 20.5zM27 833q0 12 8.5 20.5t20.5 8.5t20.5 -8.5t8.5 -20.5t-8.5 -21t-20.5 -9t-20.5 9t-8.5 21zM72 1028 q0 12 8.5 20.5t20.5 8.5t20.5 -8.5t8.5 -20.5t-8.5 -20.5t-20.5 -8.5t-20.5 8.5t-8.5 20.5zM152 62q1 0 2 0.5t2 0.5q12 0 21 -8.5t9 -20.5q0 -23 -24 -29q14 -62 24 -94q18 -7 18 -27q0 -10 -4 -15q49 -141 147 -289h1q12 0 20.5 -9t8.5 -21q0 -7 -2 -11q1 -2 4 -6.5 t5 -6.5q8 5 17 5q12 0 20.5 -8.5t8.5 -20.5q0 -15 -11 -23q17 -22 46 -56q46 -53 79 -86q7 5 15 5q12 0 21 -9t9 -21q0 -6 -4 -14q131 -119 282 -190q4 -1 12.5 -3t12.5 -3q-192 95 -307 231q-150 179 -245 360q-1 0 -2.5 -0.5t-2.5 -0.5q-12 0 -20.5 8.5t-8.5 20.5 q0 15 9 22q-158 325 -156 673q-35 -177 -7 -354zM152 898q0 12 9 20.5t21 8.5t20.5 -8.5t8.5 -20.5t-8.5 -21t-20.5 -9t-21 9t-9 21zM159 1237q0 12 9 21t21 9t20.5 -9t8.5 -21t-8.5 -20.5t-20.5 -8.5t-21 8.5t-9 20.5zM183 519q-27 -396 152 -768q12 0 20.5 -9t8.5 -21 q0 -9 -6 -17q97 -186 243 -358q135 -159 372 -259q144 -24 298 -24q51 0 76 1q-197 64 -367 188.5t-294.5 288.5t-213.5 359.5t-133.5 408t-44.5 428.5q0 9 0.5 25t0.5 25q-75 -138 -112 -268zM193 611q38 105 99 212q-1 0 -3 -0.5t-3 -0.5q-12 0 -20.5 8.5t-8.5 20.5 t8.5 20.5t20.5 8.5q8 0 14 -3q6 91 21 184q-98 -220 -128 -450zM263 300q0 12 9 20.5t21 8.5t20.5 -8.5t8.5 -20.5t-8.5 -20.5t-20.5 -8.5t-21 8.5t-9 20.5zM308 1459q0 12 8.5 20.5t20.5 8.5t20.5 -8.5t8.5 -20.5t-8.5 -20.5t-20.5 -8.5t-20.5 8.5t-8.5 20.5zM315 737 q0 -214 43.5 -424.5t130.5 -403.5t209.5 -354.5t289.5 -284.5t361 -186q5 22 28 22q12 0 20.5 -8.5t8.5 -20.5q0 -4 -2 -10h1q343 21 619.5 148t467.5 344.5t293.5 525t102.5 682.5q0 513 -174 880q-290 182 -609.5 216t-651 -85t-646.5 -385q-318 -270 -490 -567 q-2 -60 -2 -89zM319 870q171 281 475 539q246 209 501 328t496.5 144.5t469 -25.5t437.5 -177q-36 72 -75 129q-8 8 -24.5 23t-24.5 22q-6 -2 -9 -2q-15 0 -24 14q-9 -17 -26 -17q-12 0 -21 8.5t-9 20.5q0 11 7.5 19t18.5 10q-102 82 -216 143q1 -2 1 -8q0 -21 -20 -28 q16 -9 16 -26q0 -12 -8.5 -20.5t-20.5 -8.5t-20.5 8.5t-8.5 20.5q0 21 20 28q-16 9 -16 26q0 20 19 27q-169 86 -362 131q-328 14 -618 -108q-8 -15 -26 -15q-5 0 -7 1q-137 -62 -247 -155q-434 -367 -642 -789q-27 -132 -36 -263zM371 1207q212 392 613 731q105 89 242 152 q-4 8 -4 15q0 12 8.5 20.5t20.5 8.5q21 0 28 -20q242 99 517 105q-160 27 -338 27q-304 0 -642 -240q-61 -56 -111 -115q-2 -22 -22 -27q-220 -273 -312 -657zM452 1296q0 12 8.5 20.5t20.5 8.5t20.5 -8.5t8.5 -20.5t-8.5 -20.5t-20.5 -8.5t-20.5 8.5t-8.5 20.5zM475 -308 q0 12 8.5 20.5t20.5 8.5t20.5 -8.5t8.5 -20.5t-8.5 -21t-20.5 -9t-20.5 9t-8.5 21zM563 1791q21 -3 23 -26q31 47 75 103q-7 4 -9 8q-40 -36 -89 -85zM696 1914l1 -2q1 2 4 5l4 4q-2 -1 -5 -3.5t-4 -3.5zM716 -671q0 12 8.5 20.5t20.5 8.5t20.5 -8.5t8.5 -20.5t-8.5 -20.5 t-20.5 -8.5t-20.5 8.5t-8.5 20.5zM716 -1012q0 12 8.5 20.5t20.5 8.5t20.5 -8.5t8.5 -20.5t-8.5 -20.5t-20.5 -8.5t-20.5 8.5t-8.5 20.5zM778 1631q0 12 9 21t21 9t20.5 -9t8.5 -21t-8.5 -20.5t-20.5 -8.5t-21 8.5t-9 20.5zM848 2009q0 12 8.5 20.5t20.5 8.5t20.5 -8.5 t8.5 -20.5t-8.5 -21t-20.5 -9t-20.5 9t-8.5 21zM959 -817q0 12 8.5 20.5t20.5 8.5t20.5 -8.5t8.5 -20.5t-8.5 -20.5t-20.5 -8.5t-20.5 8.5t-8.5 20.5zM964 -932l24 -9q-6 2 -18 8q-1 0 -3 0.5t-3 0.5zM989 2136q250 131 469 131q239 0 451 -50q170 -9 320 -53 q-264 136 -625 136q-344 0 -615 -164zM993 -1108q0 12 8.5 21t20.5 9t20.5 -9t8.5 -21t-8.5 -20.5t-20.5 -8.5t-20.5 8.5t-8.5 20.5zM1049 2094q0 12 9 21t21 9t20.5 -9t8.5 -21t-8.5 -20.5t-20.5 -8.5t-21 8.5t-9 20.5zM1055 -945q70 -24 144 -44q174 -23 358 3 q-75 11 -152 32q-59 -4 -134 -4q-101 0 -216 13zM1127 1832q0 12 8.5 20.5t20.5 8.5t20.5 -8.5t8.5 -20.5t-8.5 -21t-20.5 -9t-20.5 9t-8.5 21zM1135 -1034q0 12 8.5 20.5t20.5 8.5t20.5 -8.5t8.5 -20.5t-8.5 -21t-20.5 -9t-20.5 9t-8.5 21zM1199 -1140q0 12 8.5 20.5 t20.5 8.5t20.5 -8.5t8.5 -20.5t-8.5 -20.5t-20.5 -8.5t-20.5 8.5t-8.5 20.5zM1336 -1019q172 -31 355.5 -32.5t370.5 25.5t373.5 89t351.5 155q-7 9 -7 19q0 12 8.5 20.5t20.5 8.5q21 0 28 -19q117 72 221 159q66 56 127 120q-12 9 -12 24q0 12 8.5 20.5t20.5 8.5 q14 0 22 -10q80 91 136 182q-1 3 -1 9q0 24 23 29q121 214 141 451.5t-53.5 464t-228.5 441.5q-13 6 -16 21l-5 7q0 -1 0.5 -3t0.5 -3q0 -12 -8.5 -21t-20.5 -9t-20.5 9t-8.5 21t8.5 20.5t20.5 8.5q5 0 13 -4q-17 22 -53 66l-1 2q-21 5 -23 26q-54 61 -93 100 q179 -388 138 -785q17 -161 17 -322q0 -329 -188.5 -622.5t-498.5 -469.5q-8 -9 -20 -11q-57 -30 -96 -48q-9 -17 -27 -17q-6 0 -9 1q-132 -56 -283 -85q-229 -44 -444 -22q-149 -28 -288 -25zM1443 1971q0 12 8.5 20.5t20.5 8.5t20.5 -8.5t8.5 -20.5t-8.5 -20.5t-20.5 -8.5 t-20.5 8.5t-8.5 20.5zM1467 -949q83 -18 159 -25q80 16 138 32q-3 6 -3 13q0 12 8.5 20.5t20.5 8.5q25 0 29 -25q369 117 672 373q284 240 456 534t206 614q-60 581 -335 980q-39 29 -73 51q163 -363 163 -860q0 -314 -70 -580t-197.5 -463.5t-307 -342t-397.5 -226 t-469 -104.5zM1467 -1179q0 12 8.5 20.5t20.5 8.5t20.5 -8.5t8.5 -20.5t-8.5 -21t-20.5 -9t-20.5 9t-8.5 21zM1611 2082q0 12 8.5 20.5t20.5 8.5t20.5 -8.5t8.5 -20.5t-8.5 -20.5t-20.5 -8.5t-20.5 8.5t-8.5 20.5zM1623 -1212q0 12 8.5 20.5t20.5 8.5q7 0 13 -3q5 23 28 23 q12 0 21 -8.5t9 -20.5t-9 -20.5t-21 -8.5q-7 0 -13 3q-5 -23 -28 -23q-12 0 -20.5 8.5t-8.5 20.5zM1629 -1113q0 12 8.5 20.5t20.5 8.5t20.5 -8.5t8.5 -20.5t-8.5 -20.5t-20.5 -8.5t-20.5 8.5t-8.5 20.5zM1695 -979q182 -9 370 27q14 2 53 11q-9 2 -15 10.5t-6 18.5 q0 12 8.5 20.5t20.5 8.5t20.5 -8.5t8.5 -20.5q0 -14 -10 -22q94 23 189 62q-3 6 -3 13q0 12 8.5 20.5t20.5 8.5q20 0 27 -18q40 19 72 35q-8 8 -8 19q0 12 8.5 20.5t20.5 8.5q21 0 28 -21q299 174 480 459.5t181 606.5q0 111 -8 231q-50 -301 -219.5 -577t-436.5 -502 q-310 -262 -692 -380q-8 -11 -23 -11q-3 0 -9 2q-28 -8 -86 -22zM1766 -1109q0 12 9 20.5t21 8.5t20.5 -8.5t8.5 -20.5t-8.5 -20.5t-20.5 -8.5t-21 8.5t-9 20.5zM1818 2070q0 12 8.5 20.5t20.5 8.5t20.5 -8.5t8.5 -20.5t-8.5 -20.5t-20.5 -8.5t-20.5 8.5t-8.5 20.5z M1903 -1192q0 12 8.5 20.5t20.5 8.5t21 -8.5t9 -20.5t-9 -20.5t-21 -8.5t-20.5 8.5t-8.5 20.5zM1910 2071q0 12 8.5 20.5t20.5 8.5t20.5 -8.5t8.5 -20.5t-8.5 -20.5t-20.5 -8.5t-20.5 8.5t-8.5 20.5zM2015 2189q298 -91 532 -285h1q2 0 2 1q-106 127 -237 210 q-144 55 -298 74zM2066 2050q0 12 8.5 20.5t20.5 8.5t20.5 -8.5t8.5 -20.5t-8.5 -20.5t-20.5 -8.5t-20.5 8.5t-8.5 20.5zM2163 -1194q0 12 8.5 20.5t20.5 8.5t20.5 -8.5t8.5 -20.5t-8.5 -20.5t-20.5 -8.5t-20.5 8.5t-8.5 20.5zM2313 -1130q0 12 8.5 20.5t20.5 8.5t20.5 -8.5 t8.5 -20.5t-8.5 -20.5t-20.5 -8.5t-20.5 8.5t-8.5 20.5zM2346 1952q0 12 9 20.5t21 8.5t20.5 -8.5t8.5 -20.5t-8.5 -20.5t-20.5 -8.5t-21 8.5t-9 20.5zM2402 2077q93 -73 171 -168q19 -5 21 -27q24 -31 42 -58q59 -58 117 -128q-1 2 -1 8q0 12 8.5 20.5t20.5 8.5t20.5 -8.5 t8.5 -20.5t-8.5 -21t-20.5 -9q-5 0 -13 4q32 -41 65 -89q58 -42 132 -108q-41 77 -94 155q-8 -8 -19 -8q-12 0 -20.5 9t-8.5 21q0 17 16 26q-48 67 -118 150q-127 150 -319 243zM2427 -1141q0 12 8.5 20.5t20.5 8.5t20.5 -8.5t8.5 -20.5t-8.5 -20.5t-20.5 -8.5t-20.5 8.5 t-8.5 20.5zM2634 -1012q0 12 8.5 20.5t20.5 8.5t21 -8.5t9 -20.5t-9 -20.5t-21 -8.5t-20.5 8.5t-8.5 20.5zM2687 1741q33 -59 43 -81q6 -4 53 -35q-41 57 -96 116zM2724 -869q0 12 8.5 20.5t20.5 8.5t20.5 -8.5t8.5 -20.5t-8.5 -20.5t-20.5 -8.5t-20.5 8.5t-8.5 20.5z M2821 -873q0 12 8.5 20.5t20.5 8.5t20.5 -8.5t8.5 -20.5t-8.5 -20.5t-20.5 -8.5t-20.5 8.5t-8.5 20.5zM2867 1538q224 -351 294 -836q11 370 -168 726q-65 61 -126 110zM3016 -712q0 12 8.5 20.5t20.5 8.5t20.5 -8.5t8.5 -20.5t-8.5 -20.5t-20.5 -8.5t-20.5 8.5t-8.5 20.5z M3068 -495q0 12 8.5 20.5t20.5 8.5t20.5 -8.5t8.5 -20.5t-8.5 -20.5t-20.5 -8.5t-20.5 8.5t-8.5 20.5zM3072 1454q0 12 9 20.5t21 8.5t20.5 -8.5t8.5 -20.5t-8.5 -20.5t-20.5 -8.5t-21 8.5t-9 20.5zM3167 -277q0 12 8.5 21t20.5 9t21 -9t9 -21t-9 -20.5t-21 -8.5t-20.5 8.5 t-8.5 20.5zM3178 -538q0 12 8.5 20.5t20.5 8.5t20.5 -8.5t8.5 -20.5t-8.5 -20.5t-20.5 -8.5t-20.5 8.5t-8.5 20.5zM3239 79q0 12 9 20.5t21 8.5t20.5 -8.5t8.5 -20.5t-8.5 -20.5t-20.5 -8.5t-21 8.5t-9 20.5zM3246 1021q0 12 8.5 21t20.5 9t21 -9t9 -21t-9 -20.5t-21 -8.5 t-20.5 8.5t-8.5 20.5zM3257 872q0 12 8.5 21t20.5 9t20.5 -9t8.5 -21t-8.5 -20.5t-20.5 -8.5t-20.5 8.5t-8.5 20.5zM3258 488q0 12 8.5 20.5t20.5 8.5t20.5 -8.5t8.5 -20.5t-8.5 -20.5t-20.5 -8.5t-20.5 8.5t-8.5 20.5zM3288 -402q0 12 8.5 21t20.5 9t20.5 -9t8.5 -21 t-8.5 -20.5t-20.5 -8.5t-20.5 8.5t-8.5 20.5zM3319 862q0 12 8.5 20.5t20.5 8.5t20.5 -8.5t8.5 -20.5t-8.5 -20.5t-20.5 -8.5t-20.5 8.5t-8.5 20.5zM3344 723q0 12 8.5 21t20.5 9t20.5 -9t8.5 -21t-8.5 -20.5t-20.5 -8.5t-20.5 8.5t-8.5 20.5zM3365 577q0 12 8.5 21t20.5 9 t20.5 -9t8.5 -21t-8.5 -20.5t-20.5 -8.5t-20.5 8.5t-8.5 20.5zM3411 467q0 12 8.5 20.5t20.5 8.5t20.5 -8.5t8.5 -20.5t-8.5 -21t-20.5 -9t-20.5 9t-8.5 21zM3417 12q0 12 8.5 20.5t20.5 8.5t21 -8.5t9 -20.5t-9 -20.5t-21 -8.5t-20.5 8.5t-8.5 20.5zM3418 258 q0 12 8.5 20.5t20.5 8.5t20.5 -8.5t8.5 -20.5t-8.5 -20.5t-20.5 -8.5t-20.5 8.5t-8.5 20.5zM3532 56q0 12 8.5 20.5t20.5 8.5t20.5 -8.5t8.5 -20.5t-8.5 -20.5t-20.5 -8.5t-20.5 8.5t-8.5 20.5z" />
<glyph unicode="," horiz-adv-x="8036" d="M15 128q45 -265 231 -493.5t480 -398.5t694 -287.5t860 -169.5t991 -34.5t1076 108.5t1052.5 248.5t925.5 356.5t757.5 441t562 499t324 533.5t56.5 541.5q-44 260 -223.5 485t-467.5 394.5t-672 287.5t-838 174q461 -57 843 -180.5t653 -297.5t436.5 -394.5 t207.5 -471.5q44 -261 -55.5 -532t-318 -520.5t-549.5 -483.5t-739 -426.5t-899.5 -343.5t-1018.5 -240q-395 -66 -783.5 -92.5t-741 -13.5t-679.5 63t-604.5 132t-511 198t-404.5 258t-279.5 314t-140.5 363q-32 193 5.5 390t139 388t271 377t393.5 356t514 324.5t625 283 t734 232t833 171.5q190 29 443.5 40t542.5 2.5t585 -48.5t556.5 -104.5t471.5 -173t317 -247.5q-93 121 -265.5 224t-387.5 174.5t-466 125t-507.5 81.5t-504.5 39t-465 2t-382 -35q-448 -70 -862 -177t-763 -240.5t-653 -294t-540 -337t-415.5 -369.5t-288 -392 t-149.5 -404t-7 -406z" />
<glyph unicode="-" horiz-adv-x="3426" d="M42 324q-118 458 92 852q81 209 218 411.5t315.5 378.5t406 310.5t469.5 196.5q253 62 471 46.5t402 -104t326 -231t244 -334.5q112 -135 179 -304q108 -197 174 -432.5t84.5 -485.5t-25.5 -510t-153 -485q-109 -226 -264.5 -385t-334.5 -240.5t-380 -102t-407.5 22.5 t-411.5 142q-102 49 -203 112q-229 49 -462 162q-218 105 -377 328q-256 237 -363 652zM57 479q-55 213 11 487q-92 -301 -6 -637q90 -350 287 -571q-79 132 -131 296q-101 192 -161 425zM77 484q43 -167 112 -320q-53 220 -35.5 447.5t104.5 408.5q228 470 555 775 q-215 -114 -387.5 -274t-275.5 -356q-149 -388 -73 -681zM170 559.5q-10 -252.5 63 -487.5q201 -388 559 -607q74 -25 143 -41q-174 172 -280 379.5t-141 448t16.5 516.5t192.5 567q169 351 404 594q-82 -28 -170 -65q-413 -297 -681 -853q-96 -199 -106 -451.5zM205 1294 q233 342 667 553q258 222 556 322q516 303 1145 -2q203 -98 351 -249q-104 171 -241.5 295.5t-313 200.5t-379.5 86.5t-441 -47.5q-222 -57 -432.5 -175.5t-380.5 -274.5t-305 -336.5t-226 -372.5zM272 -41q57 -146 146 -271q122 -113 276 -184q-255 179 -422 455zM477 -389 q135 -161 314 -248q203 -99 403 -149q-62 41 -137 101q-150 56 -277 133q-172 61 -303 163zM546.5 221.5q52.5 -464.5 414.5 -802.5q405 -82 905 48q484 124 802.5 390.5t440.5 643t35 826.5q-105 183 -265 323t-349 224.5t-402 125t-432 32t-432 -62.5q-278 -262 -502 -724 q-268 -559 -215.5 -1023.5zM873 -581q73 -38 137 -64q-40 35 -48 43q-41 8 -89 21zM989 -607q27 -25 66 -55q460 -172 1043 -85q301 112 543 352t404 575q104 215 156.5 460t36.5 483q-31 84 -64 148q27 -154 24.5 -304t-26.5 -291t-79 -274t-132.5 -252t-187.5 -225.5 t-243 -195t-300 -160.5t-358 -121q-487 -126 -883 -55zM1039 1919q80 30 120 42q26 26 63 58q-96 -45 -183 -100zM1105 -701q64 -48 144 -97q392 -86 748 17q-489 -53 -892 80zM1295 1998q206 48 418 54t418 -33.5t390.5 -120t343 -212t267.5 -302.5q-3 14 -9.5 40t-8.5 33 q-23 91 -58 187q-158 212 -362 311q-331 159 -657 194t-623 -56q-56 -39 -119 -95zM1301 -829q87 -50 154 -82q253 -122 503.5 -146t476.5 49t422 256t331 463q130 269 173 568t5.5 567t-140.5 504q23 -104 31 -220q74 -203 89 -436q20 -313 -94 -608t-335.5 -506 t-503.5 -284q-169 -43 -316 -64q-378 -138 -796 -61zM1666 2227q497 80 1016 -172q158 -76 299 -240q-2 4 -5.5 11.5t-5.5 11.5q-162 194 -405 311q-483 234 -899 78zM2183 -733q117 21 225 49q168 43 317.5 139t263.5 230.5t194.5 295.5t117.5 344.5t25 367.5 q-12 190 -65 364q6 -226 -47 -455.5t-150 -430.5q-152 -315 -377 -548t-504 -356zM3033 1754l2 -6l12 -15q-3 4 -7.5 11t-6.5 10zM3099 1583q13 -39 35 -121q19 -75 29 -130q36 -63 69 -139q-16 139 -51 251q-33 65 -82 139z" />
<glyph unicode="." horiz-adv-x="4816" d="M8 384.5q17 32.5 76 63.5q533 277 2481 494q328 36 821 57t1002.5 20t956.5 -19t726 -62.5t268 -106.5q7 57 -267 90.5t-713 39t-944.5 -6t-1003 -41.5t-847.5 -70q-582 -67 -1116 -161t-871.5 -185t-407.5 -156q-13 -12 12 -12q49 1 424 87q714 163 1111 225 q1115 175 1208 -136q-57 86 -193 129t-313 44.5t-397 -22.5t-439.5 -66.5t-447 -91.5t-412 -94.5t-341.5 -78.5t-230 -40q-45 -4 -84 9t-57.5 35.5t-1.5 55zM6318 801q18 14 21 30q-1 -13 -21 -30z" />
<glyph unicode="/" horiz-adv-x="4984" d="M8 361q-26 38 32 100q87 94 332 194t587 186t792 148t907 77q393 13 951.5 -10t981.5 -76.5t393 -115.5q26 56 -409 101.5t-963.5 56.5t-956.5 -4q-429 -22 -860.5 -84t-742 -136.5t-523 -147.5t-267.5 -124q-68 -63 -29 -107q34 -39 119 -35q67 2 126 34 q-160 -86 -317 -96q-123 -8 -153 39zM478 418l6 3zM4984 864zM4984 864z" />
<glyph unicode="1" horiz-adv-x="1904" d="M-9.5 324.5q-1.5 4.5 3.5 9.5q119 111 218.5 156.5t222.5 62.5q110 15 213 -1t185 -53t158.5 -85t145.5 -97.5t133 -90t134 -62.5t137 -15q200 20 367 195q5 5 10 3t6 -7t-2 -10q-91 -102 -186 -147.5t-224 -58.5q-104 -11 -198 8t-166.5 58t-141 87.5t-135.5 96.5 t-136 85.5t-157 55t-185 4.5q-89 -12 -181.5 -55t-204.5 -144q-4 -4 -9.5 -2t-7 6.5z" />
<glyph unicode="2" horiz-adv-x="4505" d="M-9 323.5q-1 4.5 3 10.5q352 382 759.5 585t802.5 203q147 0 297.5 -33.5t286 -89.5t272.5 -129.5t268 -154t260.5 -161t262 -154t261 -129.5t268.5 -89.5t274 -33.5q287 0 503 196q6 5 11 3t6 -7.5t-3 -9.5q-231 -224 -552 -224q-190 0 -391 53.5t-379.5 138.5 t-360.5 188.5t-360 206.5t-349 188t-357 138.5t-357 53.5q-651 0 -1410 -753q-4 -4 -9.5 -2.5t-6.5 6z" />
<glyph unicode="3" horiz-adv-x="2396" d="M-9.5 324.5q-1.5 4.5 3.5 9.5q27 25 80 75q61 58 92.5 87t90 81t93.5 79.5t91 69t96.5 63.5t95.5 49t103 40.5t104.5 23t112.5 9.5q94 0 166.5 -29t117.5 -78t79 -112t59 -133.5t49.5 -140.5t58 -133t77 -112t113.5 -78t162 -29q79 0 151 16.5t127 41t110 64t93 74 t84 82.5q3 3 6.5 3.5t5.5 -1t3.5 -4.5t1 -6t-2.5 -6q-48 -53 -86.5 -90.5t-97.5 -81.5t-118 -70.5t-140.5 -45t-171.5 -18.5q-121 0 -214 28t-150.5 75.5t-100 109t-68.5 129.5t-48.5 136t-47.5 129.5t-59 109t-89.5 75.5t-131.5 28q-60 0 -115 -8t-108 -26.5t-97 -37.5 t-95.5 -53.5t-89 -62t-92 -75t-90 -80t-97 -89.5t-100.5 -92q-4 -4 -9.5 -2t-7 6.5z" />
<glyph unicode="4" horiz-adv-x="1351" d="M-9.5 323.5q-1.5 4.5 3.5 10.5q72 72 169 185.5t171 200t158 171t167 132t161 49.5q79 2 112 -31t33 -94q0 -60 -35.5 -153.5t-86.5 -192t-102 -198t-86.5 -196.5t-35.5 -161q0 -63 34.5 -98t116.5 -35q33 0 73 14.5t75 32.5t83 55t78 61.5t81 73t71.5 68.5t69 70 t54.5 56q3 3 6.5 3.5t5.5 -1t3.5 -4.5t1 -6t-2.5 -6q-44 -47 -67.5 -72.5t-76.5 -78.5t-90 -85.5t-91 -75.5t-97 -67.5t-91.5 -42t-89.5 -17.5q-89 0 -130 41t-41 112q0 66 35.5 165t86 200t101 200.5t86 191t35.5 147.5q0 52 -24.5 77.5t-93.5 23.5q-65 -2 -135.5 -37.5 t-131.5 -90.5t-133 -133.5t-132.5 -152.5t-138.5 -163t-143 -152q-4 -4 -9.5 -2.5t-7 6z" />
<glyph unicode="5" horiz-adv-x="1351" d="M-9.5 323.5q-1.5 4.5 3.5 10.5q37 37 85 90.5t92.5 106t97 113.5t100.5 116t100.5 109t99.5 97.5t95 77t90 51.5t82 17.5t72 -22.5q34 -23 44.5 -60.5t3.5 -78.5t-31.5 -101t-50.5 -110.5t-64.5 -126.5t-63.5 -131q-19 -43 -34.5 -79.5t-35 -86.5t-32 -91t-23.5 -86.5 t-12.5 -81t3 -67t22 -52t46.5 -28.5q33 -6 63 -6.5t66.5 12t69.5 27.5t71 40t71 49t69 55.5t66 58.5t62.5 59t56.5 56.5t49 50.5q22 22 31 32q3 3 6.5 3.5t5.5 -1t3.5 -4.5t1 -6t-2.5 -6q-171 -186 -268 -272q-274 -246 -442 -217q-44 8 -70 30.5t-35.5 54.5t-6 76t15.5 89 t32 98.5t40.5 101t44.5 100.5q26 58 38 85q19 44 58 130q90 199 106 270q27 118 -58 129q-17 2 -40 0q-75 -7 -152 -51.5t-154 -121t-145.5 -155t-160.5 -182.5t-165 -175q-4 -4 -9.5 -2.5t-7 6z" />
<glyph unicode="6" horiz-adv-x="1640" d="M0 341q193 208 325 289.5t275 81.5q116 0 212 -97q38 30 70.5 38t52 -3t33 -31.5t13 -47.5t-7.5 -50q-19 -48 -43 -79q-23 25 -59 69.5t-59.5 70.5t-57.5 55t-74 42.5t-88 13.5q-115 0 -254.5 -83.5t-322.5 -281.5q-6 -7 -14 -2q-9 5 -1 15zM591.5 508q3.5 47 24.5 74 t53 33q14 3 28.5 0.5t31.5 -13.5t30 -21t34.5 -32.5t34 -36.5t39.5 -45.5t41 -47.5q43 -49 81 -85.5t88.5 -73t107.5 -56t118 -19.5q72 0 162 40.5t175 114.5q3 3 8.5 1t6.5 -6.5t-4 -10.5q-82 -78 -176.5 -120t-175.5 -42q-116 0 -216 65.5t-194 170.5q-28 -30 -74.5 -71.5 t-78 -75t-55.5 -73.5q-7 -12 -12.5 -15t-8 1.5t-3.5 9.5t-1 10q1 45 -10.5 109.5t-28.5 102.5q-29 65 -25.5 112z" />
<glyph unicode="7" horiz-adv-x="1638" d="M-6.5 326.5q-1.5 5.5 4.5 14.5q112 140 244 233t247.5 124.5t211.5 8.5t144 -102q43 54 108 70t107.5 -16t26.5 -101q-19 -82 -129 -186q53 -53 101.5 -89.5t115 -62t133.5 -24t152.5 36t177.5 106.5q8 7 14 -3q4 -8 -3 -14q-97 -76 -187.5 -112t-161 -37.5t-139.5 25.5 t-118.5 64.5t-103.5 92.5q-33 -30 -95 -81.5t-101 -85.5t-79.5 -79t-58.5 -83q16 47 12.5 109.5t-18.5 122.5t-39 114q-30 69 -39.5 120t1 81.5t27 47t43.5 28.5q19 9 38.5 9t37 -5t38.5 -19.5t38 -29.5t40.5 -39.5t40.5 -44.5t43.5 -50.5t45.5 -50.5q79 74 96 131 q26 84 -23 99q-40 12 -94 -28q-30 -24 -49 -54q-44 79 -120 110t-165.5 14.5t-186.5 -65t-189.5 -126.5t-168.5 -172q-5 -7 -12 -7t-8.5 5.5zM547 488q8 -42 31 -105q5 -14 25 -55t31.5 -78t11.5 -75q31 37 73 75.5t97 84t80 67.5q-17 20 -42 48.5t-41 47.5t-37.5 42t-37 37 t-34.5 28t-34.5 19.5t-33 6t-33.5 -7.5q-39 -19 -51.5 -56t-4.5 -79z" />
<glyph unicode="8" d="M-1301 1509q36 12 80 19q-44 -7 -80 -19zM-1221 1528q87 12 189.5 -10t187 -59t188.5 -101.5t164.5 -109.5t148 -112.5t108.5 -83.5q180 -133 416 -143q68 -3 160.5 16.5t191.5 68.5q-60 -42 -168.5 -79t-193.5 -33q-125 5 -222.5 39t-203.5 112q-29 22 -109 85.5 t-144.5 114t-163 114.5t-182.5 104.5t-183 64t-184 12.5z" />
<glyph unicode="9" d="M-309 1389.5q18 102.5 77 195.5q-52 -110 -63.5 -214.5t15.5 -186.5t82.5 -145.5t137.5 -99.5t180 -40q143 -6 298 57q7 3 9 1.5t2 -12.5q0 -6 -10 -10q-138 -60 -297 -60q-112 0 -203 43t-145 116t-77.5 163t-5.5 192.5z" />
<glyph unicode="&#x3e;" horiz-adv-x="4816" d="M0.5 378.5q-6.5 27.5 14.5 58.5t69 56q323 168 1013.5 295.5t1467.5 153.5q386 13 923 -26t952 -126t374 -191q21 61 -152 110q-305 88 -1070 121q-592 25 -1030 3q-429 -22 -860.5 -84t-742 -136.5t-523 -147.5t-267.5 -124q-20 -18 11 -17q33 2 278 58q572 131 966 159 q620 45 995 -121q-238 68 -486.5 91.5t-450.5 9.5t-411 -47.5t-362 -72.5t-309.5 -73.5t-248.5 -42.5q-35 -3 -69 9t-54.5 34.5t-27 50zM4783 561q23 19 31 38q-6 -19 -31 -38z" />
<glyph unicode="?" horiz-adv-x="4861" d="M13 306q-32 23 9 64q26 25 76 51q336 175 1008 314t1428 164q393 13 951.5 -10t981.5 -76.5t393 -115.5q26 56 -409 101.5t-963.5 56.5t-956.5 -4q-428 -22 -860 -84t-742.5 -137t-523 -148t-267.5 -124q-25 -23 1 -21q29 1 259 70q570 171 998 247q324 58 619 76 q-202 -16 -426.5 -54.5t-449.5 -93.5t-386 -98.5t-368 -104t-265 -76.5q-73 -20 -107 3zM4860 697zM4860 697z" />
<glyph unicode="@" d="M-282.5 1366q5.5 50 33.5 89.5t80.5 64t121.5 24.5q90 0 192.5 -38t195 -94t182 -112t182.5 -99t168 -49q136 -11 209 54q46 40 37 79q-8 28 -41 36q39 0 59 -21t11 -60q-12 -51 -106.5 -84.5t-198.5 -19.5q-87 11 -177.5 50t-166.5 86t-155 92t-172.5 75.5t-188.5 30.5 q-59 0 -105 -18t-71.5 -47.5t-33.5 -68.5t3.5 -79.5t45 -82.5t85.5 -76q-68 29 -113.5 75t-63.5 94.5t-12.5 98.5z" />
<glyph unicode="A" horiz-adv-x="860" d="M-66 125q1 29 11 54q11 28 33 25q18 -3 16 -22l-3 -11q-17 -40 -17 -76q0 -49 30 -89q47 -64 147 -64q11 0 23 1q313 22 688 399q3 3 7 3h3q6 -1 7 -5q1 -1 1 -3q0 -3 -3 -7q-182 -183 -354 -287.5t-348 -116.5q-14 -1 -27 -1q-34 -1 -66 7q-42 10 -70 30.5t-46 47.5 q-19 26 -26 56q-6 26 -6 52v7z" />
<glyph unicode="B" horiz-adv-x="1845" d="M-55 186q-2 3 -2 6q0 9 13 19q161 114 367 113h31q80 -3 174.5 -31t172.5 -62t189.5 -71.5t212.5 -55.5q103 -18 186 -18t150 13t136.5 50t129.5 80.5t145 115.5q4 4 8 4q2 0 3 -1q6 -2 6 -9q0 -5 -4 -8q-50 -43 -93 -78t-92.5 -70t-95.5 -61.5t-97 -50t-102.5 -37.5 t-106.5 -22q-52 -8 -108 -9q-3 1 -7 1q-60 0 -122 10q-84 13 -166.5 45t-147 68t-128 71t-136 59.5t-144.5 27.5h-26q-194 0 -329 -100q-10 -8 -17 1z" />
<glyph unicode="C" d="M-1505 -371q17 95 74.5 210.5t160.5 248t238 260t321.5 252.5t395.5 221l7 -3q-177 -84 -337.5 -189.5t-282.5 -213t-222 -220t-164 -215.5t-98 -194t-34 -160q0 -96 68 -136q38 -22 99 -23q48 0 111 14q121 26 287.5 124t331.5 231t310 267.5t259 256.5q9 9 15 0 q2 -2 2 -4q0 -3 -3 -6q-117 -126 -268.5 -267.5t-327.5 -285.5t-354 -250.5t-307 -134.5q-64 -14 -114 -14q-81 0 -123 37q-51 44 -51 129q0 30 6 65z" />
<glyph unicode="D" horiz-adv-x="2211" d="M2 53q-2 9 -2 17q0 30 22 52q28 30 80 34l20 2q44 0 99 -20q-58 -6 -83.5 -27t-16.5 -52q15 -51 130 -100t267 -77.5t282 -28.5q106 0 194 3.5t203 15.5t213 33t211 58.5t211 88.5t200 127t190 171q4 4 8 4h2q6 -2 6 -10q0 -4 -2 -7q-75 -81 -160 -149t-164.5 -117 t-173.5 -88t-170.5 -64t-173 -42.5t-164 -26.5t-160.5 -13.5t-145 -5.5t-134 -1q-168 0 -340 25.5t-303.5 78t-145.5 119.5z" />
<glyph unicode="E" horiz-adv-x="2119" d="M78 286q4 60 16.5 110.5t32.5 85t40 47.5q34 20 60 20q5 0 11 -1q30 -5 49.5 -31t29 -54.5t9.5 -50.5q-5 27 -22 47q-16 21 -44 27q-6 1 -13 1q-23 0 -51 -19q-18 -12 -36.5 -42t-31 -74.5t-15.5 -96.5v-16q0 -45 14 -95q17 -59 51.5 -115.5t103.5 -113t164 -99.5 q119 -54 249 -78q83 -16 181 -16q56 0 118 5q168 14 341 76t379 199.5t410 341.5q6 6 12 0q3 -2 3 -7t-3 -8q-199 -203 -400.5 -340.5t-377.5 -203.5t-348 -82q-65 -6 -125 -6q-100 1 -189 17q-142 26 -276 87q-98 45 -168.5 105.5t-106.5 123.5q-35 63 -53 130 q-15 56 -15 106q0 10 1 20z" />
<glyph unicode="F" horiz-adv-x="1976" d="M0 329q0 96 29 186.5t89.5 171t146.5 141t207 95.5t263 35q102 0 189 -33t143 -86.5t87 -118t31 -129.5q0 -111 -84.5 -196.5t-186.5 -85.5q-105 0 -174.5 43t-69.5 111t50 99q24 15 45 15q17 0 32 -9q29 -19 29 -66v-6q-8 18 -33 23t-46.5 -7.5t-21.5 -37.5 q0 -57 45.5 -98.5t133.5 -41.5q103 0 178.5 74t75.5 189q0 135 -128.5 237.5t-300.5 102.5q-170 0 -307 -51.5t-222 -137t-130 -191.5t-45 -221q0 -93 28.5 -181.5t88 -167t144 -138t204 -94t260.5 -34.5q133 0 271.5 32t294 102t326 194t340.5 295q6 6 12 0q3 -2 3 -7 t-3 -8q-620 -632 -1239 -632q-147 0 -272 35.5t-213 96t-149.5 141.5t-91 172t-29.5 187z" />
<glyph unicode="G" horiz-adv-x="5545" d="M544 791q17 69 128 108q93 33 225 33q29 0 61 -2q173 -9 220 -72q13 -18 13 -35q0 -21 -20 -40q-14 -14 -35 -23q41 18 41 45q0 9 -4 18q-17 44 -97 68q-53 16 -118 16q-238 0 -333 -73q-43 -33 -43 -70q0 -21 14 -44q48 -78 228 -123q117 -29 271 -36q96 -4 188 -4 q177 0 339 16q181 156 398 259.5t382 103.5q53 0 52 -37q0 -48 -89 -114q-166 -125 -485 -192q-85 -18 -177 -30q-76 -68 -136 -136.5t-100 -138.5t-55 -133q-5 -26 -5 -50q0 -35 12 -68q21 -55 77.5 -95t163.5 -63t259 -23q61 0 91 1q1 105 69.5 228.5t182.5 241.5 t268.5 229.5t321 194.5t347.5 133.5t341 50.5q193 0 250 -108q20 -38 20 -84q0 -75 -54 -171q-99 -177 -336 -338q-361 -245 -878 -343q-208 -39 -431 -51q3 -72 41 -129.5t114.5 -101.5t204 -67.5t298.5 -23.5q163 0 303 10q31 142 126 303.5t232 316t315.5 297.5t369 250 t400.5 171q207 62 396 62h6q217 -1 282 -126q24 -47 24 -103q0 -88 -57 -199q-108 -211 -371 -415q-380 -294 -928 -452q-357 -103 -753 -134q-17 -70 -17 -129q0 -172 134.5 -262.5t351.5 -90.5q210 0 467 112t521 322q422 335 979 892q6 6 13 0h1q4 -3 4 -6q0 -4 -5 -9 q-557 -555 -974 -888q-268 -214 -525 -328.5t-481 -114.5q-243 0 -384.5 108.5t-141.5 297.5q0 41 8 92q-137 -10 -298 -10q-380 0 -563.5 94.5t-192.5 256.5q-30 -1 -92 -1q-167 0 -288 23t-188 63.5t-97 95.5q-25 44 -25 93q0 13 2 26q8 64 43.5 134.5t94 141t136.5 139.5 q-147 -14 -314 -14q-92 0 -189 4q-328 15 -475 116q-78 53 -78 111q0 11 3 23zM1730 586q376 54 584 186q95 61 112 109q8 32 -24 34q-131 0 -317.5 -93.5t-354.5 -235.5zM2111 -139q632 33 1104 273q302 155 460 352q111 139 111 249q0 13 -2 26q-13 106 -133 140 q-48 13 -111 13q-141 0 -306 -49.5t-319.5 -131.5t-301 -191t-255.5 -224t-176.5 -235.5t-70.5 -221.5zM3123 -468q739 59 1308 353q375 193 589 441q168 195 178 353q1 10 1 19q0 125 -115 178q-67 31 -167 32h-5q-163 0 -352 -62q-192 -63 -373.5 -169t-358 -247 t-317 -293t-243.5 -310t-145 -295z" />
<glyph unicode="H" d="M-3264 -426q38 100 208 145t490 45q166 0 329 -14.5t347 -49t300.5 -60t332.5 -76.5q393 133 710 333.5t551 446.5q3 3 7 3l7 -4q5 -7 -1 -13q-229 -242 -541 -440.5t-698 -333.5q243 -58 391 -89.5t381.5 -72.5t466 -60t478.5 -19q309 0 711 61t793.5 148t781 174 t783 148t690.5 61q504 0 801 -149q195 -97 245 -232q16 -42 16 -82q0 -88 -74 -170q-134 -150 -456 -216q-205 -42 -464 -42q-124 0 -300 17.5t-362 57.5t-264 91q-70 46 -70 100q0 8 2 17q7 43 49 62q18 8 34 8q27 0 49 -23q23 -25 32 -69q-19 26 -43 26q-11 0 -22 -5 q-30 -13 -34 -46q0 -3 -1 -6q0 -39 51 -65q130 -65 408.5 -104.5t470.5 -39.5q475 0 733 143q172 94 197 225q4 21 4 41q0 106 -106 203q-163 149 -506 207q-179 30 -390 30q-251 0 -574 -45.5t-628.5 -113.5t-658.5 -148t-662.5 -148t-641 -113.5t-594.5 -45.5 q-207 0 -417 17t-363.5 38t-360 63.5t-314 68.5t-316.5 78q-640 -213 -1402 -213q-84 0 -169 3q-130 4 -234.5 39t-154.5 91q-35 39 -35 80q0 18 7 37zM-3245 -433q-6 -15 -6 -30q0 -38 37 -74q51 -50 150.5 -81.5t217.5 -34.5q87 -3 172 -3q738 0 1362 202 q-259 65 -421 100.5t-393 66t-440 30.5q-49 0 -80.5 -0.5t-93 -2.5t-106 -7t-103.5 -12.5t-102 -21t-85 -31t-69.5 -43.5t-39.5 -58z" />
<glyph unicode="I" horiz-adv-x="4626" d="M-101 -102q-5 31 -5 62q0 57 17 113q26 86 92 158q59 65 131 93q54 21 104 21q16 0 30 -2q62 -9 116 -44.5t84 -88.5q28 -50 27 -113v-9q-2 -69 -43 -137q16 54 16 99v14q-3 50 -19.5 93t-47.5 71.5t-68 46.5q-37 19 -81 21h-17q-34 0 -67 -8q-41 -10 -80.5 -38.5 t-69.5 -70.5q-59 -85 -71 -181q-3 -27 -3 -53q0 -69 22 -139q31 -96 102.5 -191t173.5 -180t239 -159t292.5 -127t340 -83.5t376.5 -30.5q573 1 1136 150t1078.5 444t919.5 709q6 6 13 0q4 -3 4 -6q0 -4 -5 -9q-400 -416 -916 -713.5t-1095.5 -452t-1177.5 -155.5 q-176 0 -347.5 27t-317.5 76.5t-279 116t-235.5 147t-183 168t-126 180t-59.5 181.5z" />
<glyph unicode="J" horiz-adv-x="397" d="M-244 -1020q-3 28 -3 59q0 87 21 191q30 141 95.5 295.5t156.5 306.5q159 265 374 511q4 4 8 4t8 -3q6 -5 0 -12q-207 -239 -358 -502q-161 -281 -224 -560q-30 -130 -30 -228q0 -125 48 -198q54 -83 165 -83q124 0 295.5 77t334.5 197q17 112 73 233.5t128.5 203 t130.5 81.5q30 0 43 -23q9 -16 9 -39q0 -12 -2 -26q-16 -91 -109.5 -204.5t-234.5 -221.5q-8 -46 -8 -85q0 -57 17 -100q30 -70 122 -70q74 0 173 60.5t173.5 148t85.5 158.5q5 31 -8.5 40t-44.5 -12q24 25 43 37.5t29.5 12t15.5 -10.5q4 -7 4 -19q0 -3 -1 -7q-1 -18 -9 -40 q-29 -87 -109 -178.5t-178 -150.5t-174 -59q-102 0 -142 67q-32 53 -32 132q0 22 2 45q-163 -118 -333.5 -193t-293.5 -75q-119 0 -185 65t-76 175zM691 -932q131 103 217 209t101 191q2 14 2 25q0 42 -32 42q-42 0 -101.5 -72t-111.5 -181.5t-75 -213.5z" />
<glyph unicode="K" horiz-adv-x="397" d="M-461 -890q9 73 40.5 155t69.5 154t97.5 158t114.5 154.5t131 156.5t135.5 153t139.5 153.5t133 148.5q4 4 8 4t8 -3q6 -5 0 -12q-50 -57 -150 -168t-167 -186t-159.5 -189t-151.5 -200t-117.5 -195.5t-82.5 -199.5q-22 -83 -23 -171q0 -7 1 -15q2 -97 42 -180 q53 -112 165 -170.5t276 -58.5q144 0 302 66.5t289 169.5t235 225t155 235q-97 -28 -224 -67t-150 -46q-130 -38 -217 -38q-86 0 -130 37q-36 30 -36 77q0 32 17 72q43 102 164 188q168 119 375 126h22q77 0 132 -18q63 -22 92 -62.5t36 -96.5q2 -15 2 -30q0 -43 -15 -92 q1201 341 1837 341q180 0 290.5 -34t168.5 -111q28 -37 28 -77q0 -20 -7 -41q-21 -63 -90 -81q-22 -6 -46 -6q-76 0 -174 56q68 -22 116 -22h6q50 2 80 21t42 46t8.5 56.5t-20.5 51.5q-91 115 -404 115q-648 0 -1846 -349q-34 -97 -107.5 -203.5t-179.5 -206.5t-228.5 -180 t-266 -128.5t-279.5 -48.5q-164 0 -277 71.5t-168 193.5q-33 72 -42 150q-4 39 -4 77t4 74zM338 -661q-5 -21 -6 -38q0 -54 51 -84q42 -24 110 -24q69 0 164 25q32 9 89 25.5t143 41.5t156 45q26 68 26 123q-1 51 -23 90q-24 41 -78 62q-49 18 -119 18h-21 q-214 -7 -366 -120q-104 -77 -126 -164z" />
<glyph unicode="L" horiz-adv-x="397" d="M-248 -845q-2 27 -2 55q0 65 10 132q16 91 62 195.5t102.5 197t143 207t158.5 200t174 201.5q4 4 8 4t8 -3q6 -5 0 -12q-105 -121 -184 -217.5t-169.5 -223t-148.5 -231t-97 -218t-39 -208.5q0 -225 125.5 -344t361.5 -119q119 0 230 44t193 116.5t143.5 162.5t91.5 186 q27 87 27 166v16q-105 -30 -210.5 -61.5t-194 -58t-115.5 -34.5q-130 -38 -217 -38q-86 0 -130 37q-35 30 -35 76q0 32 17 73q42 101 164 187q168 119 375 126h25q152 0 243 -67q98 -73 121 -198q1109 308 1716 308q180 0 290.5 -34t168.5 -111q28 -37 28 -77q0 -20 -7 -42 q-21 -62 -89 -80q-23 -6 -47 -6q-76 0 -173 55q68 -22 116 -22q3 1 6 1q50 2 80 20.5t42 45.5t8.5 56.5t-20.5 51.5q-91 115 -404 115q-608 0 -1711 -310q3 -26 3 -53q0 -70 -20 -146q-28 -105 -94 -204t-157.5 -179t-219 -129t-267.5 -49q-111 0 -202 35t-149 94.5 t-95.5 139.5t-43.5 171zM111 -536q-5 -19 -5 -36q0 -56 53 -86q42 -23 108 -23q69 0 164 25q48 12 225 63.5t292 83.5q-14 120 -100 191q-80 66 -224 66h-20q-215 -7 -366 -120q-104 -77 -127 -164z" />
<glyph unicode="M" d="M-369 -260q3 69 38 147q34 75 97.5 166t110 145.5t125.5 143.5q3 3 7 3h3q7 -1 7 -8q0 -3 -3 -7q-247 -273 -328 -452q-33 -78 -33 -139q1 -19 3 -35q12 -72 69 -95q15 -6 17.5 -18.5t-7.5 -19.5q-5 -4 -13 -4q-6 0 -13 3q-39 15 -61 58q-19 38 -19 96v16z" />
<glyph unicode="N" d="M-832 -692q12 98 57 203q35 80 115.5 181.5t179.5 198.5t193 183t177.5 161t111.5 107q3 3 7 3h3q7 -1 7 -8q0 -3 -3 -7q-30 -34 -115.5 -112t-179.5 -164.5t-191.5 -183.5t-175.5 -195t-109 -171q-37 -86 -47 -172q-5 -38 -4 -71q0 -43 8 -79q14 -64 40.5 -108.5 t61.5 -59.5q19 -8 22 -24q2 -16 -10 -26q-7 -5 -15 -5q-7 0 -16 4q-37 16 -67 62t-46 115q-9 39 -10 88q1 38 6 80z" />
<glyph unicode="O" horiz-adv-x="1282" d="M4 522q-1 3 0 7q0 12 10 29q40 60 136 94q72 26 174 25q33 0 68 -2q217 -17 439 -148.5t336 -312.5q51 64 116 127q4 4 9 2q6 -2 6 -9q0 -4 -3 -8q-84 -84 -118 -128q17 -30 24 -62t3 -56.5t-16 -40.5t-31 -17h-4q-27 0 -39 22q-7 14 -7 33q1 15 5 35q10 42 44 88 q-72 118 -196 217t-266.5 158.5t-275.5 68.5q-34 2 -66 2q-94 0 -166 -22q-96 -30 -134 -89q-13 -21 -28.5 -24t-19.5 11zM1142 71q6 -20 19 -22h4q11 0 19 15q6 12 5 31q0 9 -1 20q-4 33 -22 67q-18 -29 -24 -60q-3 -16 -3 -28.5t3 -22.5z" />
<glyph unicode="P" horiz-adv-x="1282" d="M-2201 411q37 178 225 349q237 216 611 328q311 93 666 93q174 0 313 -45q140 -44 218 -126q80 -83 79 -189q0 -61 -28 -125q-29 -66 -80 -124t-119 -111.5t-145 -91.5t-160 -63.5t-163 -27.5h-15q-71 0 -137 16q-140 40 -157 134q-2 12 -2 25q0 74 76 152 q102 104 271 145q80 19 163 19q80 0 118 -28.5t38 -70.5q0 -37 -26 -67t-62 -34q-20 -2 -27.5 7.5t-1 21t20.5 13.5q36 6 54 42q8 16 8 30q0 24 -24 42q-31 24 -98 24q-188 0 -336 -96q-111 -72 -139 -159q-8 -24 -8 -46q0 -61 62 -102q31 -20 76 -33q62 -19 126 -18 q26 1 53 3q92 10 180 41.5t166 85.5t137 116q59 63 93 133q33 68 33 131q0 107 -77 189q-76 80 -201.5 123t-278.5 43q-523 0 -930 -199q-285 -139 -435 -337q-112 -147 -112 -280q0 -25 4 -50q24 -154 200 -232q144 -63 370 -64q20 0 40 1q177 4 356 35t332 77.5 t303.5 101.5t292 109t275.5 98.5t275.5 72.5t271.5 28q121 0 226.5 -27t180.5 -74t127 -98.5t87 -109.5q41 52 118 129q4 4 9 2q6 -2 6 -9q0 -4 -3 -8q-84 -84 -118 -128q17 -30 24 -62t3 -56.5t-16 -40.5t-31 -17q-30 -2 -43 22q-7 14 -7 33q1 15 5 35q10 42 44 88 q-33 57 -88.5 110t-131 98t-177.5 72t-214 27q-128 0 -269 -28t-274 -73t-273.5 -99.5t-291.5 -110.5t-304 -102.5t-334 -78.5t-360 -36q-24 -1 -47 -1q-350 0 -505 143q-96 88 -96 213q0 37 8 77zM1142 71q6 -20 19 -22h5q17 0 21 25q1 10 1 20q0 38 -20 84l-2 4 q-18 -29 -24 -60q-3 -16 -3 -28.5t3 -22.5z" />
<glyph unicode="Q" horiz-adv-x="272" d="M-2402 1031q3 -149 204 -272q-215 132 -215 289q0 40 14 82q56 167 323 325q285 169 684 260q298 68 565 68q35 0 69 -1q363 -12 749 -97.5t808 -220.5q409 140 713 216q275 68 475 68q22 0 42 -1q362 -12 525 -154q97 -85 97 -192q0 -16 -2 -33q-16 -120 -139 -210 q-161 -118 -416 -121h-17q-107 0 -222 23q-106 21 -264.5 74.5t-413.5 147.5t-413 148q-87 -30 -414 -146t-493 -170q235 -114 327 -326q50 -115 50 -258q0 -121 -35 -261q15 15 40.5 40t35.5 35q9 9 15 1q7 -7 0 -14q-41 -38 -101 -101q-29 -102 -75 -212 q-45 -107 -97 -126q-10 -4 -17 -4q-21 0 -30 26q-4 14 -4 30q0 48 40 118q48 84 144 169q48 166 48 306q0 127 -40 232q-84 220 -333 335q-535 -173 -780 -173h-24q-146 5 -203 71q-24 28 -24 57q0 27 20 56q55 80 226 110q83 15 184 15q23 0 46 -1q330 -11 560 -113 q125 41 275 93.5t335.5 118.5t291.5 103q-882 300 -1490 320q-36 1 -72 1q-340 0 -719 -110q-384 -112 -621 -283q-232 -167 -232 -332v-6zM-1145 1039q12 -53 88 -76q36 -11 80 -12h22q242 0 753 165q-211 89 -514 99q-26 1 -50 1q-219 0 -324 -73q-57 -40 -57 -85 q0 -10 2 -19zM-11 -16q-8 -25 -8 -39q0 -17 10 -21q2 -1 5 -1q19 0 50 51q14 24 28 55q41 94 64 165q-117 -110 -149 -210zM832 1454q148 -48 389 -130.5t389.5 -129.5t249.5 -67q105 -21 199 -21q157 0 283 58q137 63 187 170q23 48 23 94q0 59 -37 114q-84 126 -319 168 q-78 14 -168 17q-18 1 -37 1q-198 0 -468 -66q-296 -73 -691 -208z" />
<glyph unicode="R" horiz-adv-x="860" d="M-1912 333q0 129 94 219t234 126q102 26 214 26q41 0 82 -4q135 -12 268 -47.5t242 -82.5t213.5 -102t198 -107t180 -95t175 -69.5t167.5 -26.5q51 66 119 118t112 52q20 0 31 -11t11 -29q0 -42 -54.5 -87.5t-151.5 -58.5q-25 -4 -58 -4q-35 -48 -41 -82q-1 -6 -1 -11 q0 -50 90 -50q288 0 647 333q5 5 10 3q6 -2 6 -9q0 -4 -3 -8q-363 -337 -660 -337q-64 1 -90 23q-21 18 -21 46q0 7 1 14q6 31 38 78q-79 3 -168 30.5t-175.5 70.5t-180 95t-197 106t-211 100.5t-237.5 81.5t-261 46q-39 4 -78 4q-70 0 -138 -12q-106 -18 -193 -59 t-140.5 -114t-53.5 -166q0 -59 34.5 -111.5t88.5 -89t112.5 -60.5t114.5 -34q75 -13 141 -13q69 0 129 14q118 29 181 109q53 68 53 163q0 18 -2 37q-1 15 8.5 22t21 1.5t12.5 -19.5q2 -21 2 -41q0 -96 -56 -168q-68 -87 -198 -121q-70 -18 -149 -18q-70 0 -147 14 q-45 8 -93 25.5t-97.5 46t-88 63t-63 82t-24.5 98.5zM182 171q37 3 38 3q78 10 133.5 48t55.5 78q0 19 -22 19q-35 0 -95.5 -45t-109.5 -103z" />
<glyph unicode="S" horiz-adv-x="860" d="M-3709 686q-1 4 -1 8q0 14 9 24q11 12 25.5 4.5t18.5 -31.5q23 -132 87 -189t186 -57q109 0 258.5 42t306 109t324.5 148.5t331 164t307.5 151.5t271 114.5t206.5 50.5q21 1 40 1q204 0 298 -133q146 140 301.5 242t341.5 164q170 57 335 57q16 0 32 -1q151 -4 254 -67 q147 169 294.5 301.5t299.5 230t302 139.5q95 27 184 26q50 0 98 -8q130 -23 228 -96.5t157 -182.5q58 -110 86 -250q23 -117 22 -247v-53q-6 -160 -41 -333l-8 3q41 203 41 373q0 219 -68 383q-122 292 -420 346q-47 8 -97 8q-85 0 -178 -24q-146 -40 -293.5 -132.5 t-291 -218t-286.5 -285.5q94 -70 136 -193q35 -102 35 -221q1 -24 -1 -48q-8 -146 -51.5 -313.5t-114.5 -328t-160.5 -309t-184 -260t-191.5 -177.5q-96 -65 -174 -65h-2q-178 2 -193 204q-2 20 -2 42q0 223 169 598q190 424 504 842q80 107 164 206q-89 44 -217 48 q-17 1 -33 1q-245 0 -482 -111q-253 -118 -475 -321q45 -80 51 -194q1 -22 1 -44q1 -91 -21 -184q-26 -115 -78.5 -230.5t-119 -204t-148 -144t-158.5 -55.5q-105 0 -111 119v17q0 142 123 375q152 286 401 536l22 22q-89 131 -284 131q-18 0 -36 -1q-105 -6 -300.5 -89 t-418 -196t-453 -225.5t-457.5 -190.5t-379 -78q-275 0 -322 260zM-1585 166q0 -101 85 -101q76 0 154.5 51t142 132.5t113 188t74.5 213.5q21 91 21 180q-1 16 -1 32q-4 106 -44 182q-250 -234 -410 -509q-135 -233 -135 -369zM-611 -70q-8 -52 -8 -95q0 -165 114 -196 q22 -6 49 -6h2q76 1 170 63q95 64 188.5 169.5t181.5 246.5t157.5 293t110.5 309q41 158 47 294q1 16 1 31q0 118 -41 217q-46 112 -144 172q-326 -376 -564 -815q-223 -412 -264 -683zM263 -748q21 120 65.5 252.5t114.5 278.5t177.5 292.5t237.5 263.5q4 4 8 4t8 -4 q4 -7 -1 -13q-123 -111 -221 -247.5t-159.5 -273.5t-99 -256t-57.5 -234q-13 -74 -13 -132q0 -163 101 -204q31 -12 69 -12q106 0 265 94q220 130 435 375q170 194 283 405l4 -7q-158 -310 -428 -574q-234 -228 -444 -320q-105 -46 -180 -46q-73 0 -118 43q-60 57 -60 183 q0 58 13 132z" />
<glyph unicode="T" horiz-adv-x="860" d="M5 281q7 84 58 175q69 121 180 218t245.5 163.5t305.5 113.5t344 73q172 25 378 35q164 8 318 8q38 -1 76 -1q188 -2 402.5 -15.5t390.5 -31t374 -41.5q170 -22 309 -26q45 -1 85 -1q85 1 149 7q96 10 165.5 30.5t108 48.5t56.5 63q17 33 17 66q0 36 -17 76q-14 34 10 48 q8 5 16 5q12 0 21 -12q3 -5 6 -11q19 -45 19 -87q0 -19 -4 -36q-12 -58 -68 -108t-163 -79q-107 -30 -270 -36q-31 -1 -64 -1q-142 0 -325 23q-208 25 -373.5 42.5t-387 34.5t-399.5 21q-65 1 -134 1q-120 0 -254 -4q-210 -7 -378 -30.5t-342 -68.5t-307.5 -111.5 t-248.5 -164t-189 -220.5q-70 -120 -70 -209q0 -9 1 -17q8 -94 76 -142q59 -42 146 -43q12 0 25 1q100 7 179.5 32.5t180.5 93.5t218 186q4 4 9.5 3t7.5 -5t-2 -10q-165 -166 -298.5 -236.5t-293.5 -81.5q-16 -1 -32 -1q-73 0 -130 27q-70 33 -102 92q-27 49 -26 114 q0 14 1 29z" />
<glyph unicode="U" horiz-adv-x="860" d="M5 281q7 84 58 175q69 122 169.5 218.5t214 163.5t262.5 113.5t292 72.5t325 35q156 8 295 7h45q158 -2 360 -16t359.5 -30.5t363.5 -41.5q170 -22 309 -26q45 -1 85 -1q85 1 149 7q96 10 166 30.5t108 48.5t56 63q18 33 18 66q0 36 -17 76q-13 33 9 48q8 5 15 5 q11 0 21 -11q4 -5 7 -12q19 -45 19 -87q0 -19 -4 -36q-12 -58 -68 -108t-162 -79q-107 -30 -270 -36q-31 -1 -64 -1q-142 0 -325 23q-226 28 -363 43t-354 33q-218 20 -360 22q-44 1 -93 0q-108 0 -241 -4q-193 -6 -325.5 -30.5t-288 -68t-266.5 -110.5t-216 -164t-179 -221 q-70 -120 -70 -209q0 -9 1 -17q8 -94 76 -142q59 -42 146 -43q12 0 25 1q100 7 179.5 32.5t180.5 93.5t218 186q4 4 9.5 3t7.5 -5t-2 -10q-165 -166 -298.5 -236.5t-293.5 -81.5q-16 -1 -32 -1q-73 0 -130 27q-70 33 -102 92q-27 49 -26 114q0 14 1 29z" />
<glyph unicode="V" horiz-adv-x="1228" d="M-24 -13q-16 91 -16 189q0 109 19 227q40 236 156.5 455.5t292 403t410 335t505 256.5t582.5 162.5t637 57.5q396 0 741.5 -106t588.5 -308q244 -203 334 -495q39 -128 39 -270q0 -185 -65 -395q-61 -190 -152 -354q128 -84 129 -225q0 -23 -4 -47q-25 -181 -222 -381 q-242 -244 -642 -413q-399 -169 -868 -221q-204 -23 -409 -23q-32 0 -63 1q-237 4 -466.5 37.5t-441 97.5t-394.5 159t-326.5 221.5t-237 285.5t-127.5 350zM46 66q14 -156 66.5 -291.5t139.5 -250.5t202.5 -210t255 -170t298 -130t331.5 -91t355 -53q163 -15 331 -16 q20 0 39 1q187 2 374 23q612 67 1085 322q332 179 504 401q130 166 130 305q0 23 -4 45q-16 107 -116 174q-88 -156 -204 -294.5t-238.5 -242t-258 -189.5t-264.5 -143.5t-255.5 -97t-233.5 -57t-197 -17.5q-253 0 -468 108q-146 72 -197 155q-20 33 -20 59q0 35 37 57 q48 29 149 29q67 0 116 -13t104 -42q-78 34 -159 34q-148 0 -160 -67q-1 -6 -1 -12q0 -52 81 -119q117 -97 302 -142q108 -27 216 -27q128 0 282.5 35t336 117t352 200t335.5 300.5t282 402.5q-132 58 -336 58q-19 0 -39 -1q-194 -4 -451 -64t-502.5 -145.5t-517.5 -185 t-499.5 -184t-444.5 -140.5t-356 -56q-108 0 -170 31q-60 32 -72 88q-4 17 -4 36q0 44 18 94q26 74 89 160q50 70 143.5 153.5t215.5 182.5t187 160q8 8 14 -2q4 -7 -3 -14q-66 -62 -188 -160.5t-215 -180.5t-141 -149q-89 -123 -89 -205q0 -24 8 -44q34 -89 207 -89 q120 0 295.5 39.5t369.5 103t411 140.5t443 154.5t440 142.5t428 107.5t383 46.5q21 1 41 1q212 0 345 -58q79 153 135 326q68 218 68 407q0 130 -32 248q-79 288 -307 486t-561 302t-725 104q-324 0 -630 -57.5t-567 -162t-485.5 -254.5t-391.5 -332t-277.5 -398 t-149.5 -449q-20 -119 -19 -229q-1 -53 4 -104z" />
<glyph unicode="W" horiz-adv-x="1228" d="M-21 -13q-20 91 -20 190q0 108 24 226q42 202 151.5 393t277 356.5t384.5 309t481 255.5t557 192t621 122t667 42q481 0 901 -106t717 -308q296 -203 406 -495q48 -128 47 -271q0 -184 -79 -394q-99 -251 -269 -470q229 -62 257 -198q4 -19 4 -38q0 -119 -148 -262 q-213 -204 -638 -372q-586 -232 -1345 -301q-247 -23 -497 -23q-38 0 -76 1q-288 4 -567.5 37.5t-536.5 97.5t-479.5 159t-396.5 221.5t-288 285.5t-155 350zM68 32q26 -170 108 -315.5t213 -265t302.5 -214.5t375.5 -165.5t432 -117t472 -69t496.5 -22.5t504.5 23 q773 70 1355 305q405 163 599 358q126 127 126 232q0 25 -7 50q-34 113 -224 168q-129 -159 -294.5 -296.5t-337 -235t-350 -173t-348 -120.5t-315.5 -67.5t-267 -22.5q-307 0 -568 107q-177 73 -241 156q-24 33 -24 58q0 33 39 55q57 32 187 32q140 0 268 -55 q-94 34 -193 34q-181 0 -195 -67q-1 -6 -1 -12q0 -50 90 -113q135 -96 356 -144q140 -31 282 -31q146 0 319.5 31t378.5 102t400.5 174t390 260.5t341.5 347.5q-134 25 -317 25h-52q-284 -6 -683 -76t-738.5 -155t-755.5 -185.5t-664 -144.5q-322 -57 -524 -57 q-272 0 -327 104q-14 27 -14 62q0 199 463 647q33 32 107 106q5 5 10.5 3.5t6.5 -6.5t-4 -11q-78 -78 -112 -111q-171 -167 -272 -290q-101 -124 -136 -212q-19 -47 -18 -83q0 -33 14 -57q31 -52 133 -71q66 -13 158 -12q50 0 108 3q164 11 405 50q248 41 664.5 134.5 t758 173t744 145.5t688.5 72h51q182 0 328 -25q158 212 255 457q83 217 83 407q1 132 -39 248q-96 288 -373.5 486t-682.5 302t-882 104q-393 0 -765 -57.5t-689.5 -162t-590.5 -254.5t-475.5 -332t-336.5 -398t-182 -449q-24 -120 -25 -231q0 -70 10 -136z" />
<glyph unicode="X" horiz-adv-x="798" d="M-107 -98q-6 43 -6 87q0 265 233 559q283 356 828 655q660 362 1510 534q606 122 1246 130q58 1 115 1q1211 0 1664 -328q247 -178 247 -435q0 -45 -8 -93q-41 -254 -283 -523q-205 -227 -472 -379q-16 -9 -31 -17q-8 -5 -14 5q-5 9 4 14q224 121 411 329 q223 248 278 496q16 72 16 138q0 230 -187 399q-381 346 -1470 372q-78 2 -160 2q-54 0 -110 -1q-1026 -12 -1924 -320q-694 -237 -1171 -601q-391 -299 -541 -614q-82 -171 -81 -324q0 -133 61 -254q150 -290 631 -443q470 -150 1207 -150q331 0 656 29t589.5 78 t503.5 111.5t416 131t307 135.5t196 125.5t66 100.5q0 61 -168 71q-61 3 -128 3q-173 0 -389 -22q-299 -31 -613.5 -84t-641.5 -106q-328 -54 -696 -90q-315 -30 -589 -30q-46 0 -91 1q-180 4 -315 25.5t-217 54.5t-129.5 80t-61.5 95q-8 29 -8 61q-1 22 3 45q10 58 33 108 t60 105.5t67.5 94t63.5 77.5l3 3q4 4 9.5 2.5t7 -6t-2.5 -9.5q-124 -147 -172 -239q-50 -96 -50 -173q0 -237 480 -289q104 -11 229 -14q45 -1 91 -1q275 1 589 31q368 36 695 89t641.5 106t614.5 84q211 22 383 21q72 0 136 -3q233 -13 233 -92q0 -65 -153 -160.5 t-409 -195.5q-954 -375 -2239 -375q-1062 0 -1583 280q-364 196 -410 502z" />
<glyph unicode="Y" horiz-adv-x="798" d="M490 -318q-3 25 -3 50q0 75 22 142q29 90 89.5 191.5t106 160.5t96.5 116q3 3 7 3h2q6 -1 8 -5.5t-2 -9.5q-31 -35 -64 -78t-75.5 -110.5t-74.5 -134.5t-51 -145q-16 -68 -16 -130v-20q3 -70 40 -139.5t109 -123t199.5 -94t302.5 -57.5q159 -17 340 -17q117 0 242 7 q320 18 607 58.5t607.5 98t583.5 110t535 94.5t462 50q181 13 413 13h34q252 -1 428 -32q374 -66 530 -239q88 -97 88 -207q0 -38 -11 -78q-40 -147 -211 -258q-229 -150 -589 -168q-45 -2 -90 -2q-64 0 -129 4q-255 17 -609.5 69.5t-690.5 110.5t-682.5 112.5t-686.5 82.5 q-221 18 -410 18q-101 0 -192 -5q-270 -16 -419 -134q-106 -84 -106 -186v-6q2 -108 120 -182q148 -92 412 -92q59 0 124 5q43 3 88 8q124 14 389.5 47t423.5 51.5t406 42.5t427.5 33.5t389.5 10.5h14q203 0 373 -15q339 -29 459 -174q53 -65 53 -141q0 -49 -22 -103 q-55 -130 -218 -231q-220 -135 -520 -145q-22 -1 -44 -1q-33 0 -67 2q-82 4 -185 26t-230 63.5t-210.5 70.5t-227 83.5t-178.5 67.5q-384 141 -639 141q-58 0 -110 -7q-159 -23 -204 -109q-14 -27 -14 -56q0 -50 42 -103q80 -103 265 -153q124 -33 269 -33q105 0 221 17 q230 34 416 34q334 0 530 -109q182 -102 208 -277q4 -29 4 -58q0 -119 -76 -237q-88 -136 -235 -199q-90 -38 -184 -38q-144 0 -250 91q-38 -87 -61.5 -159t-33.5 -154q-4 -34 -4 -66q0 -44 8 -84q14 -68 59.5 -135.5t123.5 -120.5q34 -23 35.5 -62.5t-25.5 -53.5 q-9 -4 -20 -4q-23 0 -54 19q-71 52 -115.5 115t-58.5 132q-14 63 -14 127v13q2 71 24.5 151.5t49.5 149.5t66 151q-67 67 -105 161t-44 194q-1 21 -1 41q0 166 89 256q63 63 139 63q9 0 18 -1q81 -7 121 -79q26 -47 26 -106q0 -78 -44 -177q0 -2 -1 -3q-23 -51 -79 -162.5 t-83 -170.5q97 -105 234 -105q148 0 274 114q116 104 151 248q12 49 12 95q0 113 -71 205q-142 184 -524 208q-54 3 -113 3q-176 0 -389 -31q-126 -19 -238 -19q-214 0 -378 68q-157 64 -213 166q-23 43 -23 82q0 45 31 85q74 95 279 105q24 1 50 1q271 0 666 -145 q39 -14 179 -67.5t225.5 -83.5t210.5 -70.5t227 -62.5t183 -26q32 -2 63 -2q260 0 471 112q171 90 243 219q39 70 39 133q0 55 -30 106q-82 138 -360 176q-34 5 -70 8q-169 15 -372 15q-7 0 -13 -1q-211 0 -389.5 -9.5t-427 -33.5t-405 -42t-423.5 -51t-389 -47 q-125 -14 -233 -14q-248 0 -404 77q-139 70 -160 181q-4 19 -4 38q0 87 82 169q126 124 375 164q59 9 122 13q90 5 190 5q146 0 314 -11q281 -19 550 -57t578.5 -88t576.5 -97t556.5 -87t507.5 -54q60 -4 117 -4q307 0 537 113q194 95 270 239q39 74 39 145q0 69 -36 135 q-88 161 -359 242q-74 23 -161 38q-171 30 -423 31h-33q-232 0 -417 -13q-189 -8 -461 -50t-534.5 -94.5t-583.5 -110t-608 -98t-608 -58.5q-125 -7 -241 -7q-182 0 -341 17q-240 23 -396.5 85t-222.5 139.5t-75 180.5zM3128 -2502q15 -186 120 -317q23 48 81.5 159 t82.5 164q46 100 46 174q0 51 -22 91q-34 64 -106 66h-4q-75 0 -131 -67q-69 -81 -69 -218q0 -25 2 -52z" />
<glyph unicode="Z" horiz-adv-x="675" d="M-1564 -358q98 367 447 772q373 432 894 743q630 375 1292 458q177 22 350 22q659 0 1254 -320l53 -29q9 -5 4 -14t-14 -4q-609 345 -1286 345q-175 0 -354 -23q-655 -84 -1276 -459q-483 -292 -840 -694q-322 -363 -444 -706q-61 -173 -62 -315q0 -138 59 -245 q133 -245 543 -274q53 -4 111 -4q86 0 182 9q215 0 580 54q23 347 223 720t524 662q4 4 10 2t7.5 -6.5t-3.5 -9.5q-314 -278 -506.5 -647t-210.5 -715q236 36 693 121t807.5 140t577.5 62q31 1 61 1q102 0 195 -10q120 -14 224.5 -49t174.5 -89t100 -138q17 -47 17 -101 q0 -42 -10 -87q-26 -117 -131.5 -227.5t-260 -196.5t-345.5 -159t-389.5 -120.5t-389 -73.5t-347.5 -26q-220 0 -396.5 47.5t-295.5 130.5t-197 201q-77 118 -109 254q-25 109 -26 230q0 31 2 63q-363 -54 -579 -54q-107 -10 -203 -10q-429 0 -616 199q-127 135 -127 342 q0 105 33 228zM-28 -1056q-1 -25 -1 -49q1 -127 27 -239q32 -134 106 -250t188 -198.5t281.5 -129.5t376.5 -47q156 0 344.5 26t384 73t382.5 118t338.5 156t255 193t128.5 222q10 44 10 83q0 51 -16 95q-28 79 -93.5 130.5t-165.5 84.5q-100 34 -216 46q-88 9 -187 9 q-32 0 -64 -1q-226 -7 -576.5 -62t-808 -139.5t-694.5 -120.5z" />
<glyph unicode="[" horiz-adv-x="675" d="M-1184 1055q39 107 157 176q119 70 279 70q182 0 367 -86t346 -235q159 50 711 234q-141 68 -240 144.5t-154.5 161t-47.5 177.5t86 184q11 13 25.5 10t18 -15.5t-5.5 -26.5q-73 -85 -80.5 -172.5t45.5 -167.5t147 -152t227 -136q335 111 561 177.5t389 93.5 q528 89 825 4q184 -52 223 -156q30 -83 -44 -174q-104 -127 -339 -183t-513 -40.5t-571.5 83t-524.5 175.5q-644 -213 -721 -237q194 -185 311.5 -421.5t118.5 -464.5q27 33 64 70.5t64.5 64t73.5 69.5t67 63q10 10 15 0q4 -8 -3 -15q-15 -15 -61.5 -58.5t-66 -62.5 t-52.5 -52t-57 -60t-45 -53q-1 -49 -11 -103q-16 -87 -58 -115q-28 -18 -41 7q-17 35 21 112q26 53 69 107q7 231 -112 474t-319 431q-607 -190 -858 -190q-192 0 -266 102q-59 80 -20 186zM-1151.5 989.5q-6.5 -100.5 76.5 -157.5q66 -45 177 -45q240 0 840 186 q-157 143 -335.5 225.5t-354.5 82.5q-190 0 -308 -109q-89 -82 -95.5 -182.5zM328 -128q9 -14 26 8q18 21 26 65q6 35 9 70q-24 -33 -45 -71q-29 -53 -16 -72zM724 1208q179 -83 401 -143t451 -86t436.5 -19t374.5 63t249 156q84 102 25 189q-71 105 -315 137 q-275 37 -695 -33q-259 -43 -927 -264z" />
<glyph unicode="]" horiz-adv-x="675" d="M-1941 -483q-30 83 44 174q104 127 339 183t513 40.5t571.5 -83t524.5 -175.5q644 213 721 237q-189 181 -305.5 410.5t-123.5 453.5q-146 -225 -317 -418q-9 -11 -16 -3q-6 6 1 14q176 198 331 448q1 59 12 118q16 87 58 115q28 18 41 -7q17 -35 -21 -112 q-23 -48 -69 -123q-2 -228 116.5 -466t314.5 -423q607 190 858 190q192 0 266 -102q59 -80 20 -186q-39 -107 -157 -176q-119 -70 -279 -70q-182 0 -367 86t-346 235q-159 -50 -711 -234q141 -68 240 -144.5t154.5 -161t47.5 -177.5t-86 -184q-11 -13 -25.5 -10t-18 15.5 t5.5 26.5q73 85 80.5 172.5t-45.5 167.5t-147 152t-227 136q-335 -111 -561 -177.5t-389 -93.5q-528 -89 -825 -4q-184 52 -223 156zM-1907 -511q71 -105 315 -137q275 -37 695 33q259 43 927 264q-179 83 -401 143t-451 86t-436.5 19t-374.5 -63t-249 -156 q-84 -102 -25 -189zM365 834q4 6 45 79q29 53 16 72q-9 14 -26 -8q-18 -21 -26 -65q-5 -26 -9 -78zM811 -116q157 -143 336 -225.5t355 -82.5q190 0 308 109q89 82 95.5 182.5t-76.5 157.5q-66 45 -177 45q-241 0 -841 -186z" />
<glyph unicode="^" horiz-adv-x="6135" d="M-47 -1q0 189 270.5 402.5t703.5 402t991 358t1116.5 282.5t1096.5 163.5t917 12.5q241 15 441 6.5t344 -37.5t223.5 -86t79.5 -139q0 -161 -302 -405q75 -130 -75 -296q-99 -112 -517 -288q-250 -185 -567 -331t-619 -224q-565 -146 -1257 -195q-497 -115 -945 -162 t-841.5 -16.5t-659.5 147.5q-400 176 -400 405zM20 -34q0 -204 342 -354q253 -111 623.5 -143.5t793 7t894.5 141.5q-211 -12 -420 -15q-941 -100 -1417 92q-109 18 -221 41q-213 45 -328 111.5t-131.5 147t50 175.5t206.5 196.5t348 211.5q435 231 1110 397 q644 221 1416.5 388.5t1431.5 232.5q-294 6 -661 -31.5t-749 -109t-780 -174.5t-760 -222.5t-683 -258t-556.5 -277t-372 -283.5t-136.5 -273zM612 337q278 276 1048 562q-522 -145 -881 -333q-1124 -588 -164 -807q81 -18 142 -29q-60 31 -115 70q-330 239 -30 537z M705 373q-311 -291 2 -525l8 -6q143 -104 371 -162q457 -56 949 -60q707 42 1612 264q531 175 1017.5 402t871.5 483q95 157 111 316q-139 64 -341 94q-690 106 -1667 41t-1814 -277q-820 -289 -1120 -570zM1321 -364q185 -24 379 -25q-210 10 -379 25zM2023 1010 q816 185 1725.5 237t1561.5 -48q203 -32 339 -94q1 14 1 43q0 163 -142 266q-207 152 -688 177q-630 -54 -1389.5 -211.5t-1407.5 -369.5zM2439 -376q173 6 346 18q260 60 533 140q-469 -104 -879 -158zM2912 -348q629 53 1148 190q267 70 536 191.5t489 277.5 q-657 -259 -1488 -464q-333 -109 -685 -195zM3885 -55q706 187 1263 413q233 176 362 369q-680 -444 -1625 -782zM5129 1611q333 -44 495 -162q148 -109 148 -276q0 -67 -15 -131q42 -32 65 -65q283 231 283 382q0 100 -125 161.5t-339 82t-512 8.5zM5304 424 q351 154 439 253q136 151 74 269q-21 -17 -98 -74q-7 -4 -19.5 -13.5t-18.5 -14.5q-116 -212 -377 -420zM5701 884l6 4q12 9 99 76q-19 28 -54 57q-18 -70 -51 -137z" />
<glyph unicode="_" horiz-adv-x="3649" d="M0 356q0 250 73 503.5t199 470.5t287.5 400t344.5 314q330 302 803 302q428 0 722 -190q254 -98 411 -283q165 -194 273 -407q77 -73 158 -168q147 -174 240 -363t123.5 -389.5t-4 -394t-150 -383.5t-306.5 -352q-191 -161 -432 -269t-487.5 -152t-491 -39t-462.5 60 q-178 23 -338 98q-211 51 -385 154t-304 256t-202 365.5t-72 466.5zM20 356q0 -238 63.5 -438.5t179 -348.5t271 -251t347.5 -161q-181 104 -328 278q-452 533 -287 1109q22 313 173 619q97 474 369 783q-163 -136 -304.5 -311.5t-250 -379t-171 -436.5t-62.5 -463zM262 441 q-98 -515 306 -993q175 -208 402 -315q4 -1 12.5 -3t12.5 -3q-192 95 -307 231q-428 507 -426 1083zM287 544q-22 -307 82.5 -604.5t334.5 -568.5q135 -159 372 -259q144 -24 299 -24q50 0 75 1q-197 64 -367 188.5t-294.5 288.5t-213.5 359.5t-133.5 408t-44.5 428.5 q0 8 0.5 25t0.5 26q-72 -133 -111 -269zM296 636q38 105 104 220q6 118 25 230q-99 -224 -129 -450zM418 762q0 -220 46 -436t138 -413t220.5 -360t305 -283.5t380.5 -177.5q343 21 619.5 148t467.5 344.5t293.5 525t102.5 682.5q0 513 -174 880q-290 182 -609.5 216 t-651 -84.5t-646.5 -385.5q-319 -271 -490 -566q-2 -60 -2 -90zM423 895q172 282 474 539q246 209 501 328t496.5 144.5t469 -25t437.5 -176.5q-34 68 -75 128q-300 292 -728 391q-252 11 -490.5 -61.5t-407.5 -215.5q-434 -367 -642 -789q-25 -124 -35 -263zM475 1233 q212 392 612 730q154 130 367.5 203t444.5 78q-166 28 -338 28q-303 0 -642 -241q-164 -149 -275 -355t-169 -443zM1067 -907q4 -2 12 -4.5t12 -3.5q-3 1 -9 3.5t-9 3.5zM1092 2161q248 131 469 131q239 0 451 -50q170 -9 320 -53q-264 136 -625 136q-346 0 -615 -164z M1158 -920q70 -24 144 -44q174 -23 358 3q-63 10 -151 33q-73 -5 -134 -5q-103 0 -217 13zM1439 -994q166 -30 343 -33t362 23.5t360.5 80.5t345.5 144.5t311 209.5q189 160 303 347t148 377.5t3.5 387t-122.5 383t-238 358.5q-60 71 -117 128q179 -388 138 -785 q17 -161 17 -321q0 -218 -88 -428.5t-238 -376.5t-357 -285t-438 -163q-229 -44 -444 -22q-149 -28 -289 -25zM1570 -924q83 -18 159 -25q235 44 459.5 156t406.5 266q284 240 456 534t206 614q-60 580 -336 980q-39 29 -73 51q164 -366 164 -860q0 -314 -70 -580 t-198 -463.5t-307.5 -342t-397.5 -226t-469 -104.5zM1799 -954q182 -9 369 27q227 43 430.5 159.5t351.5 279.5t235 370.5t87 423.5q0 130 -8 230q-50 -301 -219.5 -577t-436.5 -502q-169 -144 -378.5 -252t-430.5 -159zM2118 2214q306 -92 545 -296q-105 130 -247 222 q-144 55 -298 74zM2505 2102q134 -104 234 -253q111 -108 198 -235q58 -42 132 -108q-99 183 -244 354q-125 147 -320 242zM2790 1766q33 -59 43 -81q6 -4 53 -35q-41 57 -96 116zM2970 1564q224 -353 294 -837q11 370 -168 726q-71 67 -126 111z" />
<glyph unicode="a" horiz-adv-x="931" d="M-3 329q-1 1 -1 3q0 3 3 7q25 26 83 84.5t87.5 88t83.5 81t88.5 79.5t85.5 64.5t91.5 56t88.5 35t93 18.5q14 1 27 1q35 1 67 -7q42 -10 69.5 -31t46.5 -48t26 -57q6 -26 6 -51v-7q-1 -29 -11 -54q-11 -28 -33 -25q-18 3 -16 22q1 5 3 11q17 40 17 76q0 48 -30 88 q-47 64 -147 65q-11 0 -23 -1q-60 -4 -128 -34.5t-116.5 -60.5t-134 -106t-120.5 -110.5t-135 -135.5l-54 -54q-3 -3 -7 -3h-3q-6 1 -7 5z" />
<glyph unicode="b" horiz-adv-x="1906" d="M-1 336q0 4 3 7q99 94 182 157t183.5 115.5t211.5 71.5q64 11 132 11q50 0 102 -6q85 -10 168.5 -38.5t149.5 -62t131.5 -66t138.5 -54t145 -21.5q208 0 351 114q11 8 17 -1q2 -3 2 -6q0 -8 -13 -18q-167 -129 -392 -129q-80 0 -175.5 24t-175 55t-192.5 64t-215 47 q-87 12 -157 12q-3 0 -5 1q-67 -1 -127 -13q-62 -12 -114 -32t-109 -57.5t-107 -78t-118 -103.5q-4 -4 -8 -4q-2 0 -3 1q-6 3 -6 10z" />
<glyph unicode="c" horiz-adv-x="675" d="M-325 1153q158 310 428 574q234 228 444 320q105 46 180 46q73 0 118 -43q60 -57 60 -183q0 -59 -13 -132q-33 -186 -147 -423.5t-305 -499.5t-420 -479q-3 -3 -7 -3h-3q-6 2 -7 6.5t4 10.5q171 162 316.5 346t245 357t163.5 332t87 290q13 74 13 132q0 163 -101 203 q-32 13 -70 13q-106 0 -264 -94q-220 -131 -435 -376q-170 -195 -283 -405z" />
<glyph unicode="d" horiz-adv-x="2091" d="M0 336q0 4 2 7q153 153 344 277.5t381 203t371.5 120t334.5 41.5q138 0 266.5 -29t215.5 -73.5t135 -98.5q41 -45 41 -86q0 -8 -1 -15q-9 -44 -57 -63q-34 -14 -75 -14q-16 0 -33 2q-60 8 -109 35q26 -7 54 -8q26 -1 52 7q54 14 58 54v5q0 38 -39 81q-42 46 -114.5 86.5 t-182 67t-229.5 26.5q-214 0 -462.5 -76.5t-496.5 -221.5t-440 -335q-4 -4 -7 -4l-3 1q-6 2 -6 10z" />
<glyph unicode="e" horiz-adv-x="2119" d="M-4 331q0 5 3 8q199 203 400 340.5t377 203.5t348 82q65 6 125 6q101 -1 189 -17q142 -26 277 -87q98 -45 168.5 -105.5t106.5 -123.5t54 -130q15 -56 14 -106v-20q-4 -60 -17 -110.5t-33 -85t-40 -47.5q-34 -20 -60 -20q-5 0 -11 1q-30 5 -49.5 31t-28.5 54.5t-10 50.5 q5 -27 22 -47q17 -21 45 -27q6 -1 12 -1q23 0 51 19q18 12 36.5 42t30.5 74q12 46 16 98q1 9 0 18q0 44 -14 93q-17 59 -51.5 116t-103.5 113t-164 99q-83 38 -173 61q-88 22 -198 30q-38 3 -77 3q-72 0 -146 -9q-113 -14 -244 -56.5t-263.5 -113.5t-281 -184t-295.5 -260 q-6 -6 -12 0q-3 2 -3 7z" />
<glyph unicode="f" horiz-adv-x="1976" d="M-8 327q0 5 3 8q620 632 1239 632q147 0 272 -35.5t213 -96t149.5 -141.5t91 -172t29.5 -187t-29 -186.5t-89.5 -170.5t-146.5 -140.5t-207 -95.5t-263 -35q-102 0 -189 33t-143 86t-87 117.5t-31 129.5q0 110 85 196t187 86q105 0 174 -43t69 -111t-50 -100 q-23 -15 -44 -15q-17 0 -33 10q-28 19 -28 66v6q8 -18 33 -23t46.5 7.5t21.5 37.5q0 57 -46 98.5t-134 41.5q-103 0 -178.5 -74t-75.5 -189q0 -135 129 -237.5t301 -102.5q170 0 307 51.5t222 137t130 191.5t45 221q0 93 -28.5 181.5t-88 167t-144 138t-204 94t-260.5 34.5 q-133 0 -272 -32t-294.5 -102t-326 -194t-340.5 -295q-6 -6 -12 0q-3 2 -3 7z" />
<glyph unicode="g" horiz-adv-x="5556" d="M3 329q-3 3 -3 7t3 8q51 49 234.5 232t308.5 305t319 297.5t359 307.5q582 465 1005 465q241 0 383.5 -118t142.5 -309q0 -41 -8 -92q137 10 298 10q194 0 340 -26t234.5 -74t133.5 -110.5t49 -140.5q30 1 91 1q167 0 288 -23t188 -63.5t97 -95.5q25 -44 25 -93 q0 -13 -2 -26q-8 -64 -43.5 -134.5t-94 -141t-136.5 -139.5q147 14 314 14q92 0 189 -4q328 -15 475 -116q78 -53 78 -111q0 -11 -3 -23q-17 -69 -128 -108q-93 -33 -225 -33q-29 0 -61 2q-173 9 -220 72q-13 18 -13 35q0 21 20 40q14 14 35 23q-41 -18 -41 -45q0 -9 4 -18 q17 -43 97 -68q53 -16 119 -16q238 0 333 73q43 33 43 70q0 21 -14 44q-48 78 -228 123q-118 29 -271 36q-96 4 -188 4q-178 0 -340 -16q-181 -156 -397.5 -259.5t-381.5 -103.5q-53 0 -53 37q1 48 90 115q166 125 485 191q85 18 176 30q76 68 136 136.5t100 138.5t55 133 q5 26 5 50q0 35 -12 68q-21 55 -77.5 95t-163.5 63t-259 23q-61 0 -91 -1q-1 -105 -69.5 -228.5t-182.5 -241.5t-268.5 -229.5t-320.5 -194.5t-347 -133.5t-341 -50.5q-193 0 -250 108q-20 38 -20 84q0 75 54 171q99 177 336 338q361 245 878 343q209 39 431 51 q-3 72 -41 129.5t-115 101.5t-204.5 67.5t-298.5 23.5q-163 0 -303 -10q-31 -142 -126 -303.5t-232 -316t-315.5 -297.5t-369 -250t-400.5 -170q-207 -63 -396 -63h-6q-217 1 -282 126q-24 46 -24 103q0 87 57 199q108 211 372 415q379 294 927 452q357 103 753 134 q17 70 17 129q0 174 -136 274t-350 100q-204 0 -460.5 -119.5t-527.5 -335.5q-166 -131 -359.5 -307t-322 -301.5t-308 -305t-234.5 -232.5q-7 -8 -14 -1zM614 248q-1 -10 -1 -19q0 -125 115 -178q67 -31 167 -32h5q163 0 352 62q192 63 373.5 169t358 247t317 293 t243.5 310t145 295q-739 -59 -1308 -353q-375 -193 -589 -441q-168 -195 -178 -353zM2029 166q13 -106 133 -140q48 -13 111 -13q141 0 306 49.5t319.5 131.5t301 191t255.5 224t176.5 235.5t70.5 221.5q-632 -33 -1104 -273q-302 -155 -460 -352q-111 -139 -111 -249 q0 -13 2 -26zM3387 46q-2 -6 -2 -12q0 -20 26 -22q131 0 317.5 93.5t354.5 235.5q-376 -54 -584 -186q-95 -61 -112 -109z" />
<glyph unicode="h" horiz-adv-x="573" d="M-4231 1454q-10 27 -10 56q0 61 44 128q107 161 348 254.5t559 117.5q158 12 335 11q180 0 380 -12q396 -24 805 -88t838 -155.5t807 -192.5t719 -209q313 -100 625 -165q165 74 338.5 136.5t331 105t316 76.5t292.5 51q135 17 263 29q110 10 196 10h28q96 -2 178 -6 q258 -22 313 -111q13 -21 14 -44q0 -52 -72 -111q-136 -114 -446 -187q-332 -79 -734 -79q-185 0 -386 17q-309 26 -630 92q-718 -325 -1204 -848q-3 -3 -7 -3q-3 0 -6 2q-8 7 0 15q483 518 1185 841q-287 60 -601 159q-330 105 -709.5 204t-803 186.5t-833.5 149.5 q-412 62 -804 85q-205 12 -389 12q-168 0 -320 -10q-317 -21 -553 -107.5t-335 -236.5q-41 -63 -41 -118q0 -112 165 -196q225 -113 673 -148q151 -12 303 -12q445 0 571 90q34 25 34 68v9q-3 33 -20 38q-16 3 -30 -27q10 57 54 62q5 1 10 1q31 0 54 -28q16 -20 15 -41 q0 -24 -19 -51q-17 -24 -49 -45q-70 -46 -243 -72t-395 -26q-421 0 -743 81q-354 89 -411 242zM1251 1192q506 -103 951 -103q235 0 452 29q385 51 602 173q139 79 149 154q1 5 1 10q0 64 -105 100q-57 19 -141 26q-82 4 -176 6h-29q-85 0 -191 -9q-126 -11 -257.5 -28 t-287 -49.5t-310 -74t-325.5 -102t-333 -132.5z" />
<glyph unicode="i" horiz-adv-x="4462" d="M2 327q-4 3 -4 7t4 8q400 416 917 714t1097 453.5t1178 156.5h10q220 0 431 -44q216 -44 389 -121.5t318.5 -178t237 -216.5t136.5 -232q31 -81 31 -161q1 -35 -5 -69q-20 -114 -104 -206q-45 -49 -97.5 -77.5t-102.5 -34.5q-16 -2 -31 -1q-33 -1 -65 7q-48 12 -86 37.5 t-65 64t-39 82.5q-7 26 -6 54q0 22 4 44q8 52 39 103q-16 -54 -16 -99v-14q3 -50 19 -93t47.5 -71.5t68.5 -46.5q36 -19 80 -21h17q34 0 67 8q41 10 80.5 38.5t69.5 70.5q59 85 71 181q3 27 3 53q0 69 -22 139q-31 96 -102.5 191t-173.5 180t-239 159t-292.5 127t-340 83.5 t-376.5 30.5q-573 -1 -1136 -150.5t-1079 -445t-920 -709.5q-3 -3 -7 -3q-3 0 -6 2z" />
<glyph unicode="j" horiz-adv-x="663" d="M-644 1696q-1 5 -1 9q0 21 9 50q29 87 109 178.5t178 150.5t174 59q102 0 143 -67q31 -53 31 -132q0 -22 -2 -45q163 118 333.5 193t293.5 75q119 0 185 -65t77 -174q2 -30 2 -61q0 -86 -21 -190q-29 -141 -94.5 -295.5t-156.5 -306.5q-249 -413 -596 -742q-3 -3 -7 -3 h-3q-5 2 -6.5 6.5t3.5 10.5q345 327 576 730q161 281 224 560q30 130 30 228q0 125 -48 198q-54 83 -165 83q-124 0 -295.5 -77t-334.5 -197q-17 -112 -73 -233.5t-128.5 -203t-130.5 -81.5q-30 0 -44 24q-8 15 -8 38q0 12 2 26q16 91 109.5 204.5t234.5 221.5q8 46 8 85 q0 57 -18 99q-29 71 -121 71q-74 0 -173 -60.5t-173.5 -148t-85.5 -158.5q-5 -31 8.5 -39.5t44.5 12.5q-40 -41 -64 -48t-26 15zM-368 1438q-2 -14 -2 -25q0 -41 32 -41q42 0 101.5 72t112 181.5t75.5 213.5q-131 -103 -217.5 -209.5t-101.5 -191.5z" />
<glyph unicode="k" horiz-adv-x="663" d="M-216 2160q0 58 91 109q95 53 248 53q253 0 348 -163q19 4 153.5 31.5t177 35.5t163.5 31t190 31.5t174 21.5t197.5 18t184.5 5q86 0 172 -13t167.5 -41t148 -68t109 -97.5t54.5 -125.5q3 -19 3 -38q-1 -53 -23 -117q-32 -88 -108 -185q-100 -124 -258.5 -189.5 t-329.5 -65.5q-172 0 -297 55t-139 140q-6 38 13 57.5t47.5 16.5t48.5 -24q-12 7 -24.5 10t-25.5 1t-17 -15.5t0 -39.5q17 -77 125.5 -129t265.5 -52q171 0 331.5 66.5t245.5 192.5q87 130 87 239q1 13 -1 27q-12 120 -103 203.5t-237 127.5q-132 40 -282 40q-17 0 -34 -1 q-152 -4 -304.5 -19t-330 -45.5t-261 -47t-274.5 -55.5q41 -81 41 -189q0 -28 -3 -56q58 22 120 22q141 0 161 -164q4 -29 4 -60q0 -161 -94 -400q-89 -226 -221 -415q-209 -300 -468 -546q-3 -3 -7 -3h-3q-6 2 -7 6.5t4 10.5q264 249 464 550q127 190 215 451 q74 221 74 361q0 42 -7 77q-22 112 -115 112q-63 0 -122 -25q-18 -133 -86 -238t-137 -113h-8q-39 0 -39 46q-1 66 65 159q66 94 158 145q5 43 5 80q0 109 -34 181q-349 -72 -487 -72q-169 0 -169 99zM-47 2085q146 0 478 66q-78 139 -294 139q-119 0 -208 -42 q-86 -40 -86 -89q0 -74 110 -74zM265 1557q4 -12 18 -12h6q58 10 108 97.5t69 204.5q-103 -63 -167 -173q-37 -63 -37 -99q0 -10 3 -18z" />
<glyph unicode="l" horiz-adv-x="663" d="M-510 1840q0 58 91 109q95 53 248 53q252 0 348 -164q27 5 154 31.5t176 36t165.5 31.5t188.5 31t175.5 22t196.5 18t185 5q86 0 172 -13t167.5 -41t148 -68t108.5 -97.5t54 -125.5q3 -19 3 -38q-1 -53 -23 -117q-32 -88 -108 -185q-100 -124 -258.5 -190t-329.5 -66 t-296 55.5t-139 140.5q-6 38 13 57.5t47.5 16.5t48.5 -24q-12 7 -24.5 10t-25.5 1t-17 -15.5t0 -39.5q17 -77 125.5 -129.5t265.5 -52.5q110 0 216.5 27t204 87.5t155.5 145.5q87 130 87 239q1 13 -1 27q-12 120 -103 203.5t-237 127.5q-132 40 -282 40q-17 0 -34 -1 q-152 -4 -304.5 -19t-330.5 -45.5t-259.5 -46.5t-274.5 -56q41 -81 41 -189q0 -28 -3 -57q61 23 119 23q277 0 287 -215q0 -8 1 -16q0 -200 -210 -529q-167 -261 -402 -505q-3 -3 -7 -3h-3q-6 2 -7 6.5t4 10.5q233 248 399 528q182 306 182 490q0 18 -2 35q-19 178 -242 178 q-60 0 -122 -26q-18 -133 -86 -237.5t-137 -112.5h-8q-39 0 -39 46q0 66 66 159q66 94 158 145q5 43 5 80q0 106 -35 181q-354 -73 -487 -73q-169 0 -169 100zM-341 1765q151 0 478 65q-78 140 -293 140q-118 0 -208 -42q-87 -40 -87 -89q0 -74 110 -74zM-30 1237 q5 -13 19 -13h6q58 10 108 97.5t69 205.5q-103 -62 -166 -173q-38 -65 -38 -101q0 -9 2 -16z" />
<glyph unicode="m" horiz-adv-x="26" d="M4 335q-2 2 -2 5t4 6q99 83 185 194t130 206q35 75 40 140q1 13 1 26q0 48 -16 81q-20 42 -47 68t-58 36q-25 7 -19 27q4 14 19 15q5 0 12 -2q25 -8 49.5 -27t45.5 -54q22 -34 32 -78q5 -22 4 -50q0 -26 -4 -57q-9 -63 -40 -132q-47 -104 -134.5 -214t-185.5 -191 q-4 -3 -8 -3t-8 4z" />
<glyph unicode="n" horiz-adv-x="323" d="M-1 334q0 3 3 7q406 393 590 826q36 86 46 172q5 38 5 71q1 42 -7 78q-14 64 -41 109.5t-62 60.5q-19 8 -22 24t9 26q7 5 16 5q7 0 16 -4q37 -16 67 -63q31 -46 47 -115q9 -39 9 -88q1 -37 -5 -79q-12 -98 -58 -204q-188 -436 -596 -831q-3 -3 -7 -3h-3q-8 1 -7 8z" />
<glyph unicode="o" horiz-adv-x="1232" d="M-1 334q0 3 3 7q46 45 80.5 89t52.5 74.5t42 78.5q-35 29 -47 67q-6 19 -5 35q0 17 5 31q11 28 36 36q12 4 21 4q29 0 38 -35q4 -13 3 -29q0 -44 -28 -105q172 -129 351 -208t327 -79q112 0 193 39.5t99 93.5q9 27 30 28q17 0 19 -18q0 -8 -3 -17q-19 -58 -103.5 -103.5 t-207.5 -45.5q-160 0 -350 82t-363 213q-25 -50 -42.5 -79.5t-52 -74t-81.5 -89.5q-4 -4 -10 -3q-8 1 -7 8zM146 708q-3 -9 -3 -21q1 -14 5 -31q10 -31 37 -57q19 44 19 81q0 13 -2 25q-5 29 -23 29q-4 0 -8 -1q-17 -5 -25 -25z" />
<glyph unicode="p" horiz-adv-x="1232" d="M-1 334q0 3 3 7q46 45 80.5 89t52.5 74.5t42 78.5q-35 29 -47 67q-5 19 -5 35q0 17 5 31q11 28 36 36q12 4 21 4q29 0 38 -35q3 -13 3 -28q0 -42 -26 -100q114 -38 238 -43h40q104 0 207 20q123 23 252.5 65t264.5 98t272 115t287.5 116.5t298 104t315 77t328.5 34.5 q24 1 47 1q350 0 505 -143q96 -89 96 -213q0 -37 -8 -77q-38 -178 -226 -350q-238 -216 -612 -327q-311 -93 -665 -93q-174 0 -312.5 45t-217 126.5t-79.5 184.5v4q0 61 28 125q29 66 80 124t119 111.5t145 91.5t160 63.5t163 27.5h15q71 0 137 -16q140 -40 157 -134 q2 -13 2 -25q0 -74 -75 -152q-102 -105 -272 -146q-80 -19 -163 -19q-80 0 -118 28.5t-38 70.5q0 37 26 67t62 34q20 2 27.5 -7.5t1 -21t-20.5 -13.5q-37 -6 -54 -43q-7 -15 -7 -29q0 -24 23 -41q33 -24 98 -24q179 0 323 99q108 75 137 163q8 25 8 48q0 60 -59 97 q-26 17 -64 28q-60 18 -124 18q-29 0 -58 -3q-94 -12 -185.5 -45t-174 -89.5t-145 -119.5t-99.5 -135q-35 -70 -35 -134v-3q1 -78 50 -142.5t131.5 -106.5t188 -64.5t220.5 -22.5q516 0 917 200q281 140 428 338q111 149 111 282q0 25 -4 49q-24 154 -197 231 q-139 61 -353 61h-39q-159 -4 -326 -34.5t-314 -76.5t-297.5 -104t-288.5 -117t-274.5 -115t-267 -97.5t-254.5 -65.5q-101 -20 -203 -20q-24 0 -47 1q-126 6 -241 44q-38 -74 -74 -127t-103 -118q-4 -4 -10 -3q-7 1 -7 8zM146 708q-4 -10 -4 -21q0 -14 6 -31q9 -31 37 -57 q19 44 19 81q0 13 -2 25q-5 29 -23 29q-4 0 -8 -1q-18 -5 -25 -25z" />
<glyph unicode="q" horiz-adv-x="272" d="M-2339 -943q12 121 133 216q157 123 412 134q23 1 46 1q93 0 192 -16q107 -17 267.5 -65.5t417.5 -133.5t418 -134q94 36 413 161.5t481 184.5q-291 125 -408 400q-67 158 -67 365q0 154 37 335q24 117 78 150q15 9 27 9q18 0 30 -18q14 -20 14 -50q0 -36 -20 -86 q-32 -85 -115 -180q-9 -85 -9 -163q0 -237 86 -411q116 -231 379 -339q553 200 799 200q146 0 205 -64q26 -28 26 -59q0 -26 -17 -53q-51 -80 -217 -117q-103 -23 -235 -23q-332 0 -565 93q-165 -60 -501.5 -192.5t-388.5 -152.5q407 -123 780 -196t721 -73q371 0 785 135 q379 124 611 303q223 171 223 333v13q-8 149 -214 266q225 -128 225 -290q0 -35 -11 -72q-50 -170 -313 -338q-279 -178 -673 -282q-336 -89 -633 -89q-364 0 -752.5 72t-814.5 193q-403 -154 -704.5 -239.5t-514.5 -85.5q-363 0 -531 137q-103 84 -103 196q0 12 1 25z M-2220 -904q-20 -46 -20 -89q0 -62 40 -119q88 -124 326 -158q78 -11 168 -11q208 0 501 82.5t685 231.5q-143 41 -391.5 117t-397 117t-250.5 58q-89 14 -169 14q-176 0 -312 -68q-134 -67 -180 -175zM21 365q100 122 109 214q5 46 -16 49h-2l-40 -42q-17 -34 -28 -87 q-16 -80 -23 -134zM501 -594q217 -81 517 -81q257 0 371 85q55 40 55 85q0 10 -3 21q-15 53 -95 73q-34 8 -76 8q-242 0 -769 -191z" />
<glyph unicode="r" horiz-adv-x="2879" d="M-3 329q-1 1 -1 3q0 3 3 7q403 405 731 405q64 0 90 -22q21 -18 20 -46q0 -7 -1 -14q-6 -33 -37 -78q79 -3 168 -30.5t175.5 -70.5t180 -95t197 -106t211 -100.5t237.5 -81.5t261 -46q39 -4 78 -3q70 0 138 11q106 18 192.5 59t140 114t53.5 166q0 59 -34.5 111.5 t-88 88.5t-112 60t-114.5 34q-75 13 -141 13q-69 0 -129 -14q-118 -28 -181 -108q-53 -68 -53 -164q0 -18 2 -37q1 -15 -8.5 -21.5t-21 -1t-12.5 19.5q-2 21 -2 41q0 96 55 168q68 87 198 121q69 18 147 17q71 0 149 -14q57 -10 118 -35.5t118.5 -64t94 -95t36.5 -119.5 q0 -129 -94 -219t-234 -126q-102 -26 -214 -25q-41 0 -82 3q-135 12 -268 47.5t-242 82.5t-213.5 102t-198 107t-180 95t-175 69.5t-167.5 26.5q-51 -66 -119 -118t-112 -52q-20 0 -31.5 11t-11.5 29q0 42 55 87.5t152 58.5q25 4 57 4q36 50 42 82q5 29 -17 44.5t-73 15.5 q-316 0 -715 -399q-4 -4 -9.5 -3t-7.5 5zM534 434q0 -19 22 -19q35 0 95.5 45t109.5 103q-24 -2 -38 -4q-78 -10 -133.5 -47.5t-55.5 -77.5z" />
<glyph unicode="s" horiz-adv-x="4968" d="M-738 -362q6 160 40 334l8 -3q-41 -203 -41 -373q1 -220 69 -384q122 -292 419 -345q47 -8 97 -9q85 0 178 26q146 40 293.5 131.5t291.5 217t286 285.5q-94 70 -136 193q-35 102 -35 221q0 24 2 48q8 146 51 314t114 328.5t160.5 309t184 260t191.5 177.5q96 65 174 65 h2q178 -2 193 -204q2 -20 2 -42q0 -223 -169 -598q-190 -424 -504 -842q-80 -107 -164 -206q91 -45 217 -49q17 -1 33 0q245 1 482 111q253 118 475 321q-44 79 -50 193q-1 22 -2 45q0 91 22 184q26 115 78 230.5t118.5 204t148 144t158.5 55.5q105 0 111 -119v-17 q0 -142 -123 -375q-152 -286 -401 -536l-22 -22q89 -131 284 -131q18 0 36 1q105 6 300.5 89t418 196t453 225.5t457.5 190.5t379 78q275 0 322 -260q1 -4 1 -8q0 -13 -9 -23q-11 -12 -25.5 -5t-18.5 31q-23 132 -87 188.5t-186 56.5q-109 0 -258.5 -42t-306 -109 t-324.5 -148.5t-331 -164t-307.5 -151.5t-271 -114.5t-206.5 -50.5q-20 -1 -40 -1q-204 0 -299 134q-227 -218 -485 -344q-243 -119 -492 -118h-32q-151 4 -254 67q-147 -169 -294.5 -301.5t-299.5 -230.5t-302 -140q-95 -27 -184 -27q-50 0 -98 9q-130 23 -228 96.5 t-156 182.5t-86 250q-23 118 -23 248q0 25 1 52zM-325 1153q158 310 428 574q234 228 444 320q105 46 180 46q73 0 118 -43q60 -57 60 -183q0 -59 -13 -132q-33 -186 -147 -423.5t-305 -499.5t-420 -479q-4 -4 -9.5 -2.5t-7 6t3.5 10.5q171 162 316.5 346t245 357t163.5 332 t87 290q13 74 13 132q0 163 -101 203q-32 13 -70 13q-106 0 -264 -94q-220 -131 -435 -376q-170 -195 -283 -405zM754 -22q-1 -16 -1 -31q0 -118 41 -217q46 -112 144 -172q325 375 564 815q224 412 264 684q8 52 8 95q0 165 -114 196q-23 6 -49 6h-2q-76 0 -170 -62 q-95 -64 -188.5 -170t-181.5 -247t-157.5 -293t-110.5 -310t-47 -294zM2150 124q4 -106 45 -182q250 234 410 509q135 233 135 369q0 101 -85 101q-76 0 -154.5 -51t-142 -132.5t-113 -188t-74.5 -213.5q-21 -91 -21 -180q-1 -16 0 -32z" />
<glyph unicode="t" horiz-adv-x="931" d="M-3133 -226q12 58 68 108t163 79t270 35q31 1 64 2q142 0 325 -23q240 -29 498 -47q257 -17 543 -19q34 0 67 -1q250 0 487 14q268 15 522.5 57.5t456 108t349 169.5t205.5 237q18 36 18 71q1 9 -1 17q-6 43 -28 76.5t-68 51.5q-37 15 -83 16q-10 0 -21 -1 q-164 -12 -333 -111.5t-355 -286.5q-4 -4 -9.5 -3t-7.5 5t2 10q182 183 353.5 287.5t347.5 116.5q14 1 27 1q35 0 67 -8q42 -10 69.5 -30.5t46.5 -47.5q19 -26 26 -56q6 -26 7 -52q0 -4 -1 -7q-1 -29 -11 -54q-51 -131 -194 -235t-344 -171t-455 -111.5t-526 -62.5 q-271 -19 -557 -19h-17q-276 0 -530 16q-262 16 -500 45q-170 21 -309 25q-40 1 -76 1q-90 0 -158 -7q-95 -10 -165 -31.5t-108.5 -50t-56.5 -64.5q-17 -34 -17 -67q0 -37 17 -76q14 -34 -10 -48q-8 -5 -16 -5q-12 0 -21 12q-3 5 -6 11q-19 45 -19 87q0 18 4 36z" />
<glyph unicode="u" horiz-adv-x="931" d="M-2764 -228q12 56 67 104t161 74q108 27 270 31h37q150 0 351 -27q187 -24 401 -38t461.5 -14t486.5 16.5t471 60t418.5 109t326.5 169.5t198 237q18 36 18 71q1 9 -1 17q-6 43 -28 76.5t-68 51.5q-37 15 -83 16q-10 0 -21 -1q-164 -12 -333 -111.5t-355 -286.5 q-4 -4 -9.5 -3t-7.5 5t2 10q182 183 353.5 287.5t347.5 116.5q14 1 27 1q35 0 67 -8q42 -10 69.5 -30.5t46.5 -47.5q19 -26 26 -56q6 -26 7 -52q0 -4 -1 -7q-1 -29 -11 -54q-51 -131 -186.5 -235t-321.5 -171t-417.5 -113t-473.5 -65t-490 -22q-48 -1 -95 -1q-197 0 -371 10 q-218 12 -402 37q-243 31 -420 31q-308 0 -416 -95q-52 -46 -52 -108q0 -35 17 -76q13 -33 -9 -48q-8 -5 -15 -5q-11 0 -21 11q-4 5 -7 12q-19 45 -19 86q0 18 4 35z" />
<glyph unicode="v" horiz-adv-x="272" d="M-3241 1756v15q0 184 145 354q199 235 601 354q328 97 755 101h44q398 0 753 -69q375 -73 666.5 -209t477.5 -342q185 -205 243 -451q20 -86 20 -179q0 -174 -70 -376q-108 -308 -388 -636q-3 -4 -7 -4q-3 0 -7 2q-8 6 -1 15q197 230 301 456q104 225 114 423q1 26 1 52 q1 170 -57 328q-66 182 -202.5 331t-332.5 270.5t-437 203.5q-240 82 -526 125q-267 40 -552 40h-40q-654 -6 -1044 -237q-245 -145 -334 -350q-42 -97 -42 -188q0 -75 28 -146q58 -145 211 -216q114 -53 259 -53q107 0 225.5 21.5t218.5 52.5t227.5 83t216 93.5t223 105.5 t213.5 99q-101 131 -144 275q-9 32 -9 59q0 39 19 68q17 26 37 26q9 0 18 -5q17 -8 29 -31q-21 9 -39 -1t-29 -33t-11 -52q0 -45 27 -105q44 -98 118 -194q204 91 374 140.5t326 49.5q235 0 371.5 -82t136.5 -223q0 -81 -31 -146.5t-84 -107t-121 -63.5t-144 -22 q-135 0 -286.5 51.5t-297 151.5t-248.5 229q-84 -37 -221.5 -102.5t-232.5 -110t-227 -98.5t-237.5 -87t-229.5 -56t-236 -23q-251 0 -399 135q-127 116 -132 288zM-1310 1817q1 -1 5 -6.5t6 -7.5q152 -182 367.5 -288t404.5 -106q150 0 249 82t99 229q0 129 -123 204 t-337 75q-147 0 -310 -47.5t-361 -134.5z" />
<glyph unicode="w" horiz-adv-x="272" d="M-3274 1429q-1 15 -1 31q0 188 136 375q188 259 572 417q333 137 776 178q186 17 367 17q57 0 114 -2q236 -7 446 -42.5t399 -97t341 -148t272 -195.5t191.5 -238.5t99.5 -278.5q13 -71 13 -145q0 -83 -16 -171q-36 -206 -129 -396t-289 -402q-3 -3 -7 -3h-3 q-6 1 -7.5 5.5t3.5 10.5q172 185 258 363t120 371q15 85 15 168q1 72 -11 143q-24 151 -96 280t-186 243.5t-264.5 202t-332 155.5t-389.5 104.5t-436 48.5q-74 4 -150 4q-158 0 -322 -17q-643 -59 -1027 -329q-251 -177 -338 -407q-39 -103 -39 -198q0 -83 30 -160 q59 -146 210 -211q95 -41 213 -41q24 0 49 2q109 8 218.5 32t216 65.5t198.5 84t199.5 105.5t184 110.5t187.5 118t177 110.5q-124 131 -183 281q-14 39 -14 71t14 58q16 28 38 28q7 0 15 -3q17 -7 31 -29q-9 3 -17 3q-31 0 -48 -43q-6 -17 -6 -37q0 -33 17 -77 q28 -70 71.5 -129t96.5 -114q193 117 352.5 185t312.5 80q51 4 98 4q99 0 185 -18q126 -27 203.5 -92t85.5 -158q1 -14 1 -28q0 -88 -50 -160q-58 -83 -148.5 -126.5t-194.5 -52.5q-31 -3 -63 -3q-175 0 -376 80q-238 94 -409 267q-72 -44 -213.5 -133t-230 -144 t-227 -129.5t-249 -119t-249 -81.5t-270.5 -46q-29 -2 -56 -2q-209 0 -341 114q-129 112 -139 291zM-1284 1688q166 -166 388 -254q188 -74 351 -75q30 0 59 3q73 6 139.5 31.5t118.5 66.5q54 42 82 104q24 52 23 111q0 12 -1 25q-7 85 -78 144q-70 60 -186 84 q-80 17 -172 16q-42 0 -86 -3q-144 -12 -298 -76.5t-340 -176.5z" />
<glyph unicode="x" horiz-adv-x="272" d="M-4004 1767q-1 11 -1 23q0 181 135 347q186 229 561 344q312 95 717 95q365 0 719 -42t673.5 -120.5t592 -196.5t480.5 -263.5t333 -328.5q124 -183 156 -385q8 -53 8 -108q0 -155 -64 -330q-88 -237 -300 -484q-3 -4 -7 -4q-3 0 -7 2q-8 6 -1 15q225 261 295 517 q34 123 33 237q0 123 -39 236q-76 217 -257.5 411.5t-463.5 343t-621.5 257.5t-732.5 166t-797 57q-599 0 -959 -222q-232 -143 -314 -347q-38 -93 -38 -182q0 -81 32 -158q61 -149 219 -223q117 -54 267 -54q127 0 303 47t319 104t378.5 154t373.5 148q-126 131 -181 277 q-11 32 -11 59q0 37 21 65q21 29 49 29q9 0 18 -3q23 -9 40 -33q-26 9 -48.5 -1t-36.5 -33q-17 -25 -12.5 -61t20 -72t43.5 -77t56.5 -75.5t61.5 -67.5q521 192 873 192q293 0 464 -82t171 -223q0 -81 -38.5 -146.5t-105 -107t-151.5 -63.5t-180 -22q-258 0 -551 118 t-487 312q-130 -48 -315 -123.5t-321 -130.5t-287.5 -109t-284.5 -83t-242 -29q-263 0 -419 140q-131 119 -139 294zM-1976 1815l12 -12q190 -182 460 -288t506 -106q188 0 311 82t123 229q0 129 -154 204t-421 75q-331 0 -837 -184z" />
<glyph unicode="y" horiz-adv-x="675" d="M-4502 -3080q-3 49 -3 100q0 95 11 196q18 155 73 343t145 390q109 244 273 485t352.5 444.5t401.5 379.5t419.5 298.5t406.5 192t363 69.5q227 0 367.5 -119t172.5 -332q10 -65 10 -138q0 -165 -51 -370q-49 -185 -153.5 -357t-230.5 -291.5t-266 -186.5 q-120 -58 -225 -58q-17 0 -34 2q-106 10 -172 71t-82 158q-6 39 -6 80q0 63 14 133q24 117 97.5 248t184.5 249h4q-107 -116 -178 -247.5t-93 -247.5q-13 -70 -13 -132q0 -42 6 -80q14 -95 78 -150q62 -55 160 -55h4q162 2 332 123.5t301 320.5t191 425q51 193 59 350 q2 32 2 62q0 116 -25 202q-31 107 -96 180t-154.5 106.5t-203.5 33.5q-161 0 -355.5 -67t-393 -186t-402.5 -289.5t-384.5 -369t-338.5 -434t-265 -475.5q-88 -198 -142 -382t-72 -337q-12 -105 -12 -202q0 -46 3 -90q8 -138 41.5 -249t86.5 -205.5t121 -164t147.5 -122 t163.5 -83.5t172 -44q115 -17 228 -17q714 0 1306 671q280 317 527 772t436 975t330 1107l10 -10q-106 -443 -237 -845.5t-296.5 -779t-353.5 -688.5t-413.5 -564t-470.5 -415.5t-530 -233.5q-177 -42 -360 -42q-113 0 -228 16q-90 13 -176.5 44t-169 84t-153 123 t-125.5 165.5t-90.5 207t-45.5 252.5zM-325 1153q158 310 428 574q234 228 444 320q105 46 180 46q73 0 118 -43q60 -57 60 -183q0 -58 -13 -132q-33 -186 -147 -423.5t-305 -499.5t-420 -479q-3 -3 -7 -3h-3q-5 2 -6.5 6.5t3.5 10.5q171 162 316.5 346t245 357t163.5 332 t87 290q13 74 13 132q0 163 -101 203q-32 13 -70 13q-106 0 -264 -94q-220 -131 -435 -376q-170 -195 -283 -405z" />
<glyph unicode="z" horiz-adv-x="675" d="M-2034 -131q5 9 14 4q624 -353 1325 -352q174 0 352 21q667 80 1303 447q495 286 859 677q324 349 447 676q62 165 62 299q0 130 -59 231q-136 235 -561 253q-33 1 -68 1q-90 0 -190 -9q-217 0 -593 -56q-20 -386 -241.5 -844t-595.5 -885q-6 -8 -13 -1.5t0 15.5 q363 415 576.5 869t229.5 839q-230 -35 -688 -120t-804.5 -139t-572.5 -61q-32 -1 -63 -1q-101 0 -193 10q-120 13 -224.5 48t-174.5 89t-100 138q-17 47 -17 101q0 42 10 87q26 117 131.5 227.5t260 197t345.5 159t389.5 120t389 74t347.5 26.5q215 0 387 -45t290 -126.5 t196 -197.5q78 -115 110 -255q27 -118 26 -253v-51q374 56 592 56q110 10 207 10q428 0 607 -194q115 -124 115 -309q0 -111 -41 -243q-111 -356 -473 -745q-397 -426 -942 -724q-658 -361 -1340 -423q-136 -12 -269 -12q-714 0 -1344 357q-6 3 -6 8q0 3 2 6zM-1986 2050 q14 -68 61.5 -118.5t114.5 -86t157 -57.5q89 -21 189 -29q72 -6 151 -6q29 0 60 1q176 6 447 43.5t514.5 82.5t571 104t534.5 91v35q0 142 -28 264q-32 138 -107 252t-187.5 194t-276 124.5t-366.5 44.5q-189 0 -419 -35.5t-465.5 -106t-436.5 -163.5t-341.5 -219.5 t-170.5 -262.5q-9 -45 -9 -86q0 -34 7 -66z" />
<glyph unicode="&#xad;" horiz-adv-x="3426" d="M42 324q-118 458 92 852q81 209 218 411.5t315.5 378.5t406 310.5t469.5 196.5q253 62 471 46.5t402 -104t326 -231t244 -334.5q112 -135 179 -304q108 -197 174 -432.5t84.5 -485.5t-25.5 -510t-153 -485q-109 -226 -264.5 -385t-334.5 -240.5t-380 -102t-407.5 22.5 t-411.5 142q-102 49 -203 112q-229 49 -462 162q-218 105 -377 328q-256 237 -363 652zM57 479q-55 213 11 487q-92 -301 -6 -637q90 -350 287 -571q-79 132 -131 296q-101 192 -161 425zM77 484q43 -167 112 -320q-53 220 -35.5 447.5t104.5 408.5q228 470 555 775 q-215 -114 -387.5 -274t-275.5 -356q-149 -388 -73 -681zM170 559.5q-10 -252.5 63 -487.5q201 -388 559 -607q74 -25 143 -41q-174 172 -280 379.5t-141 448t16.5 516.5t192.5 567q169 351 404 594q-82 -28 -170 -65q-413 -297 -681 -853q-96 -199 -106 -451.5zM205 1294 q233 342 667 553q258 222 556 322q516 303 1145 -2q203 -98 351 -249q-104 171 -241.5 295.5t-313 200.5t-379.5 86.5t-441 -47.5q-222 -57 -432.5 -175.5t-380.5 -274.5t-305 -336.5t-226 -372.5zM272 -41q57 -146 146 -271q122 -113 276 -184q-255 179 -422 455zM477 -389 q135 -161 314 -248q203 -99 403 -149q-62 41 -137 101q-150 56 -277 133q-172 61 -303 163zM546.5 221.5q52.5 -464.5 414.5 -802.5q405 -82 905 48q484 124 802.5 390.5t440.5 643t35 826.5q-105 183 -265 323t-349 224.5t-402 125t-432 32t-432 -62.5q-278 -262 -502 -724 q-268 -559 -215.5 -1023.5zM873 -581q73 -38 137 -64q-40 35 -48 43q-41 8 -89 21zM989 -607q27 -25 66 -55q460 -172 1043 -85q301 112 543 352t404 575q104 215 156.5 460t36.5 483q-31 84 -64 148q27 -154 24.5 -304t-26.5 -291t-79 -274t-132.5 -252t-187.5 -225.5 t-243 -195t-300 -160.5t-358 -121q-487 -126 -883 -55zM1039 1919q80 30 120 42q26 26 63 58q-96 -45 -183 -100zM1105 -701q64 -48 144 -97q392 -86 748 17q-489 -53 -892 80zM1295 1998q206 48 418 54t418 -33.5t390.5 -120t343 -212t267.5 -302.5q-3 14 -9.5 40t-8.5 33 q-23 91 -58 187q-158 212 -362 311q-331 159 -657 194t-623 -56q-56 -39 -119 -95zM1301 -829q87 -50 154 -82q253 -122 503.5 -146t476.5 49t422 256t331 463q130 269 173 568t5.5 567t-140.5 504q23 -104 31 -220q74 -203 89 -436q20 -313 -94 -608t-335.5 -506 t-503.5 -284q-169 -43 -316 -64q-378 -138 -796 -61zM1666 2227q497 80 1016 -172q158 -76 299 -240q-2 4 -5.5 11.5t-5.5 11.5q-162 194 -405 311q-483 234 -899 78zM2183 -733q117 21 225 49q168 43 317.5 139t263.5 230.5t194.5 295.5t117.5 344.5t25 367.5 q-12 190 -65 364q6 -226 -47 -455.5t-150 -430.5q-152 -315 -377 -548t-504 -356zM3033 1754l2 -6l12 -15q-3 4 -7.5 11t-6.5 10zM3099 1583q13 -39 35 -121q19 -75 29 -130q36 -63 69 -139q-16 139 -51 251q-33 65 -82 139z" />
<glyph unicode="&#xb1;" horiz-adv-x="4982" d="M8 230q-26 38 32 100q108 117 471 207.5t878 143t1128.5 77.5t1250 17.5t1216.5 -42.5q-712 33 -1508.5 12.5t-1480 -70.5t-1166.5 -126t-567 -154q-68 -63 -29 -107q34 -39 119 -35q67 2 126 34q-160 -86 -317 -96q-123 -8 -153 39zM478 287l6 3z" />
<glyph unicode="&#x2000;" horiz-adv-x="1505" />
<glyph unicode="&#x2001;" horiz-adv-x="3010" />
<glyph unicode="&#x2002;" horiz-adv-x="1505" />
<glyph unicode="&#x2003;" horiz-adv-x="3010" />
<glyph unicode="&#x2004;" horiz-adv-x="1003" />
<glyph unicode="&#x2005;" horiz-adv-x="752" />
<glyph unicode="&#x2006;" horiz-adv-x="501" />
<glyph unicode="&#x2007;" horiz-adv-x="501" />
<glyph unicode="&#x2008;" horiz-adv-x="376" />
<glyph unicode="&#x2009;" horiz-adv-x="602" />
<glyph unicode="&#x200a;" horiz-adv-x="167" />
<glyph unicode="&#x2010;" horiz-adv-x="3426" d="M42 324q-118 458 92 852q81 209 218 411.5t315.5 378.5t406 310.5t469.5 196.5q253 62 471 46.5t402 -104t326 -231t244 -334.5q112 -135 179 -304q108 -197 174 -432.5t84.5 -485.5t-25.5 -510t-153 -485q-109 -226 -264.5 -385t-334.5 -240.5t-380 -102t-407.5 22.5 t-411.5 142q-102 49 -203 112q-229 49 -462 162q-218 105 -377 328q-256 237 -363 652zM57 479q-55 213 11 487q-92 -301 -6 -637q90 -350 287 -571q-79 132 -131 296q-101 192 -161 425zM77 484q43 -167 112 -320q-53 220 -35.5 447.5t104.5 408.5q228 470 555 775 q-215 -114 -387.5 -274t-275.5 -356q-149 -388 -73 -681zM170 559.5q-10 -252.5 63 -487.5q201 -388 559 -607q74 -25 143 -41q-174 172 -280 379.5t-141 448t16.5 516.5t192.5 567q169 351 404 594q-82 -28 -170 -65q-413 -297 -681 -853q-96 -199 -106 -451.5zM205 1294 q233 342 667 553q258 222 556 322q516 303 1145 -2q203 -98 351 -249q-104 171 -241.5 295.5t-313 200.5t-379.5 86.5t-441 -47.5q-222 -57 -432.5 -175.5t-380.5 -274.5t-305 -336.5t-226 -372.5zM272 -41q57 -146 146 -271q122 -113 276 -184q-255 179 -422 455zM477 -389 q135 -161 314 -248q203 -99 403 -149q-62 41 -137 101q-150 56 -277 133q-172 61 -303 163zM546.5 221.5q52.5 -464.5 414.5 -802.5q405 -82 905 48q484 124 802.5 390.5t440.5 643t35 826.5q-105 183 -265 323t-349 224.5t-402 125t-432 32t-432 -62.5q-278 -262 -502 -724 q-268 -559 -215.5 -1023.5zM873 -581q73 -38 137 -64q-40 35 -48 43q-41 8 -89 21zM989 -607q27 -25 66 -55q460 -172 1043 -85q301 112 543 352t404 575q104 215 156.5 460t36.5 483q-31 84 -64 148q27 -154 24.5 -304t-26.5 -291t-79 -274t-132.5 -252t-187.5 -225.5 t-243 -195t-300 -160.5t-358 -121q-487 -126 -883 -55zM1039 1919q80 30 120 42q26 26 63 58q-96 -45 -183 -100zM1105 -701q64 -48 144 -97q392 -86 748 17q-489 -53 -892 80zM1295 1998q206 48 418 54t418 -33.5t390.5 -120t343 -212t267.5 -302.5q-3 14 -9.5 40t-8.5 33 q-23 91 -58 187q-158 212 -362 311q-331 159 -657 194t-623 -56q-56 -39 -119 -95zM1301 -829q87 -50 154 -82q253 -122 503.5 -146t476.5 49t422 256t331 463q130 269 173 568t5.5 567t-140.5 504q23 -104 31 -220q74 -203 89 -436q20 -313 -94 -608t-335.5 -506 t-503.5 -284q-169 -43 -316 -64q-378 -138 -796 -61zM1666 2227q497 80 1016 -172q158 -76 299 -240q-2 4 -5.5 11.5t-5.5 11.5q-162 194 -405 311q-483 234 -899 78zM2183 -733q117 21 225 49q168 43 317.5 139t263.5 230.5t194.5 295.5t117.5 344.5t25 367.5 q-12 190 -65 364q6 -226 -47 -455.5t-150 -430.5q-152 -315 -377 -548t-504 -356zM3033 1754l2 -6l12 -15q-3 4 -7.5 11t-6.5 10zM3099 1583q13 -39 35 -121q19 -75 29 -130q36 -63 69 -139q-16 139 -51 251q-33 65 -82 139z" />
<glyph unicode="&#x2011;" horiz-adv-x="3426" d="M42 324q-118 458 92 852q81 209 218 411.5t315.5 378.5t406 310.5t469.5 196.5q253 62 471 46.5t402 -104t326 -231t244 -334.5q112 -135 179 -304q108 -197 174 -432.5t84.5 -485.5t-25.5 -510t-153 -485q-109 -226 -264.5 -385t-334.5 -240.5t-380 -102t-407.5 22.5 t-411.5 142q-102 49 -203 112q-229 49 -462 162q-218 105 -377 328q-256 237 -363 652zM57 479q-55 213 11 487q-92 -301 -6 -637q90 -350 287 -571q-79 132 -131 296q-101 192 -161 425zM77 484q43 -167 112 -320q-53 220 -35.5 447.5t104.5 408.5q228 470 555 775 q-215 -114 -387.5 -274t-275.5 -356q-149 -388 -73 -681zM170 559.5q-10 -252.5 63 -487.5q201 -388 559 -607q74 -25 143 -41q-174 172 -280 379.5t-141 448t16.5 516.5t192.5 567q169 351 404 594q-82 -28 -170 -65q-413 -297 -681 -853q-96 -199 -106 -451.5zM205 1294 q233 342 667 553q258 222 556 322q516 303 1145 -2q203 -98 351 -249q-104 171 -241.5 295.5t-313 200.5t-379.5 86.5t-441 -47.5q-222 -57 -432.5 -175.5t-380.5 -274.5t-305 -336.5t-226 -372.5zM272 -41q57 -146 146 -271q122 -113 276 -184q-255 179 -422 455zM477 -389 q135 -161 314 -248q203 -99 403 -149q-62 41 -137 101q-150 56 -277 133q-172 61 -303 163zM546.5 221.5q52.5 -464.5 414.5 -802.5q405 -82 905 48q484 124 802.5 390.5t440.5 643t35 826.5q-105 183 -265 323t-349 224.5t-402 125t-432 32t-432 -62.5q-278 -262 -502 -724 q-268 -559 -215.5 -1023.5zM873 -581q73 -38 137 -64q-40 35 -48 43q-41 8 -89 21zM989 -607q27 -25 66 -55q460 -172 1043 -85q301 112 543 352t404 575q104 215 156.5 460t36.5 483q-31 84 -64 148q27 -154 24.5 -304t-26.5 -291t-79 -274t-132.5 -252t-187.5 -225.5 t-243 -195t-300 -160.5t-358 -121q-487 -126 -883 -55zM1039 1919q80 30 120 42q26 26 63 58q-96 -45 -183 -100zM1105 -701q64 -48 144 -97q392 -86 748 17q-489 -53 -892 80zM1295 1998q206 48 418 54t418 -33.5t390.5 -120t343 -212t267.5 -302.5q-3 14 -9.5 40t-8.5 33 q-23 91 -58 187q-158 212 -362 311q-331 159 -657 194t-623 -56q-56 -39 -119 -95zM1301 -829q87 -50 154 -82q253 -122 503.5 -146t476.5 49t422 256t331 463q130 269 173 568t5.5 567t-140.5 504q23 -104 31 -220q74 -203 89 -436q20 -313 -94 -608t-335.5 -506 t-503.5 -284q-169 -43 -316 -64q-378 -138 -796 -61zM1666 2227q497 80 1016 -172q158 -76 299 -240q-2 4 -5.5 11.5t-5.5 11.5q-162 194 -405 311q-483 234 -899 78zM2183 -733q117 21 225 49q168 43 317.5 139t263.5 230.5t194.5 295.5t117.5 344.5t25 367.5 q-12 190 -65 364q6 -226 -47 -455.5t-150 -430.5q-152 -315 -377 -548t-504 -356zM3033 1754l2 -6l12 -15q-3 4 -7.5 11t-6.5 10zM3099 1583q13 -39 35 -121q19 -75 29 -130q36 -63 69 -139q-16 139 -51 251q-33 65 -82 139z" />
<glyph unicode="&#x2012;" horiz-adv-x="3426" d="M42 324q-118 458 92 852q81 209 218 411.5t315.5 378.5t406 310.5t469.5 196.5q253 62 471 46.5t402 -104t326 -231t244 -334.5q112 -135 179 -304q108 -197 174 -432.5t84.5 -485.5t-25.5 -510t-153 -485q-109 -226 -264.5 -385t-334.5 -240.5t-380 -102t-407.5 22.5 t-411.5 142q-102 49 -203 112q-229 49 -462 162q-218 105 -377 328q-256 237 -363 652zM57 479q-55 213 11 487q-92 -301 -6 -637q90 -350 287 -571q-79 132 -131 296q-101 192 -161 425zM77 484q43 -167 112 -320q-53 220 -35.5 447.5t104.5 408.5q228 470 555 775 q-215 -114 -387.5 -274t-275.5 -356q-149 -388 -73 -681zM170 559.5q-10 -252.5 63 -487.5q201 -388 559 -607q74 -25 143 -41q-174 172 -280 379.5t-141 448t16.5 516.5t192.5 567q169 351 404 594q-82 -28 -170 -65q-413 -297 -681 -853q-96 -199 -106 -451.5zM205 1294 q233 342 667 553q258 222 556 322q516 303 1145 -2q203 -98 351 -249q-104 171 -241.5 295.5t-313 200.5t-379.5 86.5t-441 -47.5q-222 -57 -432.5 -175.5t-380.5 -274.5t-305 -336.5t-226 -372.5zM272 -41q57 -146 146 -271q122 -113 276 -184q-255 179 -422 455zM477 -389 q135 -161 314 -248q203 -99 403 -149q-62 41 -137 101q-150 56 -277 133q-172 61 -303 163zM546.5 221.5q52.5 -464.5 414.5 -802.5q405 -82 905 48q484 124 802.5 390.5t440.5 643t35 826.5q-105 183 -265 323t-349 224.5t-402 125t-432 32t-432 -62.5q-278 -262 -502 -724 q-268 -559 -215.5 -1023.5zM873 -581q73 -38 137 -64q-40 35 -48 43q-41 8 -89 21zM989 -607q27 -25 66 -55q460 -172 1043 -85q301 112 543 352t404 575q104 215 156.5 460t36.5 483q-31 84 -64 148q27 -154 24.5 -304t-26.5 -291t-79 -274t-132.5 -252t-187.5 -225.5 t-243 -195t-300 -160.5t-358 -121q-487 -126 -883 -55zM1039 1919q80 30 120 42q26 26 63 58q-96 -45 -183 -100zM1105 -701q64 -48 144 -97q392 -86 748 17q-489 -53 -892 80zM1295 1998q206 48 418 54t418 -33.5t390.5 -120t343 -212t267.5 -302.5q-3 14 -9.5 40t-8.5 33 q-23 91 -58 187q-158 212 -362 311q-331 159 -657 194t-623 -56q-56 -39 -119 -95zM1301 -829q87 -50 154 -82q253 -122 503.5 -146t476.5 49t422 256t331 463q130 269 173 568t5.5 567t-140.5 504q23 -104 31 -220q74 -203 89 -436q20 -313 -94 -608t-335.5 -506 t-503.5 -284q-169 -43 -316 -64q-378 -138 -796 -61zM1666 2227q497 80 1016 -172q158 -76 299 -240q-2 4 -5.5 11.5t-5.5 11.5q-162 194 -405 311q-483 234 -899 78zM2183 -733q117 21 225 49q168 43 317.5 139t263.5 230.5t194.5 295.5t117.5 344.5t25 367.5 q-12 190 -65 364q6 -226 -47 -455.5t-150 -430.5q-152 -315 -377 -548t-504 -356zM3033 1754l2 -6l12 -15q-3 4 -7.5 11t-6.5 10zM3099 1583q13 -39 35 -121q19 -75 29 -130q36 -63 69 -139q-16 139 -51 251q-33 65 -82 139z" />
<glyph unicode="&#x2013;" horiz-adv-x="1021" d="M13 324q-36 458 27 852q24 209 65 411.5t94.5 378.5t121.5 310.5t140 196.5q75 62 140.5 46.5t120 -104t97 -231t73.5 -334.5q33 -135 53 -304q32 -197 52 -432.5t25.5 -485.5t-7.5 -510t-46 -485q-32 -226 -78.5 -385t-100 -240.5t-113.5 -102t-122 22.5t-123 142 q-30 49 -60 112q-69 49 -138 162q-65 105 -113 328q-76 237 -108 652zM17 479q-16 213 3 487q-27 -301 -1 -637q27 -350 85 -571q-23 132 -39 296q-30 192 -48 425zM23 484q13 -167 34 -320q-16 220 -11 447.5t31 408.5q68 470 166 775q-64 -114 -115.5 -274t-82.5 -356 q-45 -388 -22 -681zM51 559.5q-3 -252.5 19 -487.5q60 -388 167 -607q22 -25 42 -41q-52 172 -83.5 379.5t-42 448t5 516.5t57.5 567q50 351 121 594q-25 -28 -51 -65q-123 -297 -203 -853q-29 -199 -32 -451.5zM61 1294q70 342 200 553q77 222 166 322q154 303 341 -2 q61 -98 105 -249q-31 171 -72 295.5t-93.5 200.5t-113.5 86.5t-131 -47.5q-67 -57 -129.5 -175.5t-113.5 -274.5t-91 -336.5t-68 -372.5zM81 -41q17 -146 44 -271q36 -113 82 -184q-76 179 -126 455zM143 -389q40 -161 93 -248q61 -99 121 -149q-19 41 -41 101 q-45 56 -83 133q-51 61 -90 163zM163.5 221.5q15.5 -464.5 123.5 -802.5q121 -82 270 48q145 124 240 390.5t131.5 643t10.5 826.5q-31 183 -79 323t-104.5 224.5t-120 125t-129 32t-128.5 -62.5q-83 -262 -150 -724q-80 -559 -64.5 -1023.5zM261 -581q22 -38 41 -64 q-12 35 -15 43q-12 8 -26 21zM295 -607q9 -25 20 -55q138 -172 312 -85q89 112 161.5 352t120.5 575q31 215 47 460t11 483q-9 84 -19 148q8 -154 7 -304t-8 -291t-23.5 -274t-39.5 -252t-56 -225.5t-72.5 -195t-89.5 -160.5t-107 -121q-145 -126 -264 -55zM310 1919 q24 30 36 42q8 26 19 58q-29 -45 -55 -100zM330 -701q19 -48 43 -97q117 -86 223 17q-146 -53 -266 80zM387 1998q61 48 124.5 54t125 -33.5t116.5 -120t102.5 -212t79.5 -302.5q-1 14 -2.5 40t-2.5 33q-7 91 -17 187q-48 212 -108 311q-99 159 -196.5 194t-186.5 -56 q-16 -39 -35 -95zM389 -829q26 -50 46 -82q75 -122 150 -146t142.5 49t126 256t98.5 463q39 269 52 568t1.5 567t-42.5 504q7 -104 10 -220q22 -203 26 -436q6 -313 -28 -608t-100 -506t-150 -284q-51 -43 -95 -64q-113 -138 -237 -61zM498 2227q148 80 303 -172 q47 -76 89 -240q0 4 -1 11.5t-2 11.5q-48 194 -121 311q-144 234 -268 78zM652 -733q35 21 67 49q50 43 95 139t79 230.5t58 295.5t35 344.5t7 367.5q-3 190 -19 364q2 -226 -14 -455.5t-45 -430.5q-45 -315 -112.5 -548t-150.5 -356zM906 1754v-6l4 -15q-1 4 -2.5 11 t-1.5 10zM925 1583q4 -39 11 -121q6 -75 9 -130q10 -63 20 -139q-5 139 -15 251q-10 65 -25 139z" />
<glyph unicode="&#x2014;" horiz-adv-x="2046" d="M25 324q-70 458 55 852q49 209 130.5 411.5t188 378.5t242.5 310.5t281 196.5q151 62 281 46.5t240 -104t195 -231t145 -334.5q67 -135 107 -304q65 -197 104.5 -432.5t50.5 -485.5t-15.5 -510t-91.5 -485q-65 -226 -158 -385t-199.5 -240.5t-227 -102t-243.5 22.5 t-246 142q-61 49 -121 112q-137 49 -276 162q-130 105 -225 328q-153 237 -217 652zM34 479q-33 213 7 487q-55 -301 -4 -637q54 -350 172 -571q-47 132 -79 296q-60 192 -96 425zM46 484q26 -167 67 -320q-32 220 -21.5 447.5t62.5 408.5q137 470 332 775 q-129 -114 -232 -274t-164 -356q-89 -388 -44 -681zM102 559.5q-6 -252.5 37 -487.5q120 -388 334 -607q44 -25 86 -41q-104 172 -167.5 379.5t-84.5 448t10 516.5t115 567q101 351 241 594q-49 -28 -101 -65q-247 -297 -407 -853q-57 -199 -63 -451.5zM123 1294 q139 342 398 553q154 222 332 322q308 303 684 -2q121 -98 209 -249q-62 171 -144 295.5t-187 200.5t-226.5 86.5t-263.5 -47.5q-132 -57 -258 -175.5t-227.5 -274.5t-182 -336.5t-134.5 -372.5zM163 -41q34 -146 87 -271q73 -113 165 -184q-153 179 -252 455zM285 -389 q81 -161 188 -248q121 -99 240 -149q-37 41 -82 101q-89 56 -165 133q-103 61 -181 163zM326.5 221.5q31.5 -464.5 247.5 -802.5q242 -82 541 48q289 124 479 390.5t263 643t21 826.5q-63 183 -158.5 323t-208.5 224.5t-240 125t-258 32t-258 -62.5q-166 -262 -300 -724 q-160 -559 -128.5 -1023.5zM522 -581q43 -38 81 -64q-23 35 -28 43q-25 8 -53 21zM591 -607q16 -25 39 -55q275 -172 623 -85q180 112 324.5 352t241.5 575q62 215 93.5 460t21.5 483q-19 84 -38 148q16 -154 14.5 -304t-16 -291t-47 -274t-79 -252t-112 -225.5t-145 -195 t-179.5 -160.5t-214 -121q-291 -126 -527 -55zM621 1919q48 30 71 42q16 26 38 58q-57 -45 -109 -100zM660 -701q38 -48 86 -97q234 -86 447 17q-292 -53 -533 80zM774 1998q123 48 249.5 54t249.5 -33.5t233 -120t205 -212t160 -302.5q-2 14 -6 40t-5 33q-14 91 -35 187 q-94 212 -216 311q-198 159 -392.5 194t-371.5 -56q-34 -39 -71 -95zM777 -829q52 -50 92 -82q151 -122 300.5 -146t284.5 49t252 256t198 463q78 269 103.5 568t3 567t-83.5 504q14 -104 18 -220q44 -203 53 -436q12 -313 -56 -608t-200 -506t-301 -284q-101 -43 -188 -64 q-226 -138 -476 -61zM995 2227q297 80 607 -172q94 -76 178 -240q-1 4 -3 11.5t-3 11.5q-97 194 -242 311q-288 234 -537 78zM1304 -733q70 21 134 49q101 43 190 139t157 230.5t116 295.5t70.5 344.5t15.5 367.5q-8 190 -39 364q3 -226 -28.5 -455.5t-89.5 -430.5 q-91 -315 -225 -548t-301 -356zM1812 1754l1 -6l7 -15q-2 4 -4.5 11t-3.5 10zM1851 1583q8 -39 21 -121q11 -75 17 -130q22 -63 41 -139q-9 139 -30 251q-20 65 -49 139z" />
<glyph unicode="&#x202f;" horiz-adv-x="602" />
<glyph unicode="&#x205f;" horiz-adv-x="752" />
<glyph unicode="&#x25fc;" horiz-adv-x="2580" d="M0 0v2580h2580v-2580h-2580z" />
</font>
</defs>
</svg>
