<?xml version="1.0" standalone="no"?>
<!DOCTYPE svg PUBLIC "-//W3C//DTD SVG 1.1//EN" "http://www.w3.org/Graphics/SVG/1.1/DTD/svg11.dtd" >
<svg xmlns="http://www.w3.org/2000/svg" xmlns:xlink="http://www.w3.org/1999/xlink" version="1.1">
<metadata></metadata>
<defs>
<font id="hunterswoodregular" horiz-adv-x="665" >
<font-face units-per-em="2048" ascent="1991" descent="-57" />
<missing-glyph horiz-adv-x="317" />
<glyph horiz-adv-x="0" />
<glyph horiz-adv-x="682" />
<glyph unicode=" "  horiz-adv-x="317" />
<glyph unicode="&#x09;" horiz-adv-x="317" />
<glyph unicode="&#xa0;" horiz-adv-x="317" />
<glyph unicode="!" horiz-adv-x="495" d="M72 -92q0 42 35.5 84.5t76.5 42.5q34 0 55 -45.5t21 -85.5q0 -55 -49 -72q-4 -1 -23.5 -11.5t-31.5 -10.5q-25 0 -54.5 35.5t-29.5 62.5zM98 238q0 16 11 184l22 385q2 34 7.5 103.5t9 112t6 102t2.5 108.5q0 15 -1 43t-1 43t1.5 23.5t10.5 15t13.5 8t23.5 8.5 q25 10 35 10q2 0 8 -2t8 -2q6 0 21 6.5t24 6.5q23 0 35 -37t12 -350q0 -36 -2 -52q-8 -72 -24.5 -214t-24.5 -214q-29 -256 -55 -372q-9 -35 -43 -35q-53 0 -70 14q-10 8 -14 21q-3 7 -9 41.5t-6 42.5z" />
<glyph unicode="&#x22;" horiz-adv-x="585" d="M61 1278q0 11 8.5 23t18.5 12q32 0 75.5 -17t43.5 -43v-20q-3 -23 -5 -52t-3.5 -41t-6 -31t-13.5 -37t-25 -44q-3 -1 -19 -5.5t-18 -4.5q-18 0 -28.5 31t-10.5 53q0 16 3 48t3 48q0 20 -11.5 48t-11.5 32zM238 1278q0 12 7.5 23.5t18.5 11.5q32 0 75.5 -17t43.5 -43 q0 -3 -1 -9.5t-1 -10.5h2q-3 -22 -5 -51.5t-3.5 -41t-6.5 -31t-14.5 -37.5t-25.5 -44q-1 -1 -17 -5.5t-18 -4.5q-18 0 -29.5 31t-11.5 53q0 16 4 48t4 48q0 20 -11 48t-11 32z" />
<glyph unicode="#" horiz-adv-x="563" d="M18 584q0 179 60 362t164 338q4 5 20 30.5t26.5 40.5t27.5 35t33 30t32 10q3 0 10 -1.5t10 -1.5h2q2 0 11 3.5t14 3.5q21 0 35 -24t14 -48q0 -14 -33 -88.5t-73.5 -161.5t-48.5 -106q-43 -114 -66 -265.5t-23 -289.5q0 -324 121 -514q12 -17 35 -53.5t23 -43.5 q0 -17 -20.5 -31t-37.5 -14q-107 0 -253 308q-4 7 -5 10q-49 103 -63.5 211t-14.5 260z" />
<glyph unicode="$" horiz-adv-x="593" d="M8 313q0 36 10 77t33 46q70 17 113 17q9 0 14.5 -6.5t7.5 -19.5t2.5 -21.5t-0.5 -24.5v-16h-4q1 -6 4 -33.5t5 -41.5t8.5 -38t15.5 -37t25 -23t37 -10q14 0 45 9t47 16q22 9 37.5 65t15.5 90q0 58 -40.5 162t-80.5 172q-16 26 -51 50t-64.5 40t-53 47.5t-23.5 73.5 q0 15 2.5 29t9.5 27t11.5 22t17.5 21t18.5 17.5t22.5 17t22 14.5t24.5 14.5t22.5 13.5q12 8 14.5 34t0.5 51.5t10 46t43 20.5q2 0 21.5 0.5t34 0.5t33 -1.5t28.5 -6t10 -11.5q0 -5 -8.5 -15.5t-17.5 -28.5t-9 -40q0 -17 4 -23q4 -7 24 -14t41.5 -20t32.5 -36q31 -82 31 -84 q4 -16 4 -22q0 -25 -28.5 -45.5t-53.5 -20.5q-14 0 -18.5 9.5t-6.5 24t-10 22.5q-45 39 -102 39q-38 0 -61 -9.5t-35 -38.5v-4q0 -8 3.5 -16t12.5 -15.5t15.5 -13t20 -13t19 -10.5t19.5 -9l14 -7q19 -8 54 -30.5t53 -30.5q19 -9 24 -35.5t10 -32.5q105 -105 105 -258 q0 -107 -60.5 -199t-160.5 -130q-3 -1 -12 -5t-11 -5t-7 -5t-6 -10t-1 -14q0 -12 3 -34.5t3 -33.5q0 -15 -7.5 -24.5t-24 -12.5t-25 -3.5t-27.5 -0.5t-31 3.5t-19 6.5t-10 14t-3.5 16t0 23.5t0.5 24.5q0 15 -19.5 29.5t-46.5 31t-54.5 39.5t-47 65t-19.5 97zM483 887l2 2h-2 v-2z" />
<glyph unicode="%" horiz-adv-x="901" d="M29 215q0 26 379 582q99 134 221 272q27 31 47 31q21 0 48 -19.5t38 -19.5q3 -1 10 0.5t10 1.5q12 0 19.5 -8t7.5 -19q0 -20 -18 -47q-52 -79 -151.5 -219.5t-133.5 -189.5q-27 -39 -254 -371q-17 -24 -38.5 -34t-23.5 -13q-5 -8 -7 -10t-6.5 -4.5t-12.5 -2.5 q-22 0 -78.5 26.5t-56.5 43.5zM76 991q0 49 37 92t86 43q13 0 24 -8q51 -15 92 -70.5t41 -109.5q0 -45 -36 -74.5t-82 -29.5q-62 0 -112 47.5t-50 109.5zM162 989q0 -28 25.5 -48.5t54.5 -20.5q26 0 26 22q0 24 -27 58t-51 38q-28 -12 -28 -49zM516 422q0 49 29.5 88 t77.5 39t129.5 -79t81.5 -126t-44 -72.5t-94 -25.5q-75 0 -127.5 50.5t-52.5 125.5zM606 420q0 -40 24.5 -65t65.5 -25q11 0 26 5t15 13q0 10 -21.5 32.5t-48.5 46t-32 30.5q-16 8 -17 8q-12 0 -12 -45z" />
<glyph unicode="&#x26;" horiz-adv-x="409" d="M-154 504q0 57 21.5 115.5t64.5 76.5q14 5 71 38t58 38q-4 7 -12 16.5t-23 23.5l-14 13q-63 66 -63 162q0 56 66 110t126 64q24 5 28 12q3 5 3 15q0 9 -1 27.5t-1 27.5q0 36 18.5 65t53.5 29q13 0 22.5 -4t15.5 -14t10 -17t6 -23.5t3 -22t1.5 -24.5t0.5 -20q0 -18 16 -26 q45 -19 76 -63t31 -93q0 -22 -13 -59.5t-28 -42.5q-33 -10 -72 -10q-13 0 -19.5 30t-6.5 51q0 23 -5.5 32.5t-25.5 15.5q-8 2 -25 2q-26 0 -64 -26.5t-38 -51.5q0 -26 48 -52t83 -32q19 -2 40 -22t21 -40q0 -7 -4 -20t-4 -19t4 -17t4 -17q0 -15 -12 -28.5t-26 -16.5 q-5 -1 -14.5 -3.5t-14.5 -3.5q-74 -8 -142.5 -62t-68.5 -124q0 -75 49.5 -132.5t122.5 -57.5q51 0 88 27.5t37 78.5q0 12 -7 47t-14 35q-9 0 -23.5 -12.5t-27.5 -12.5q-20 0 -31.5 18.5t-11.5 39.5q0 35 37 54t76 19q9 0 27.5 4.5t27.5 4.5q15 0 29.5 -16t23.5 -33.5t20 -44 t15 -33.5q10 -19 10 -76q0 -60 -13.5 -97t-53.5 -77q-51 -54 -133 -70q-2 -1 -8.5 -2.5t-9 -2.5t-5 -4.5t-2.5 -8.5q0 -7 1 -22.5t1 -22.5q0 -51 -43 -51q-9 0 -28 4t-29 4q-7 0 -21 -4t-20 -4q-14 0 -23 22q-1 4 -4.5 33t-9.5 46t-16 23q-4 3 -33 20.5t-37 23.5t-32 22.5 t-34 27.5t-25.5 27.5t-24 34t-13.5 37.5q-3 12 -11 37.5t-12 45t-4 38.5z" />
<glyph unicode="'" horiz-adv-x="346" d="M43 1253q0 14 10.5 29.5t24.5 15.5q41 0 98 -21.5t57 -55.5q0 -4 -1 -13.5t-1 -13.5l2 -2q-1 -11 -5 -54.5t-6.5 -61t-9.5 -50t-19.5 -56.5t-30.5 -46q-2 -3 -16 -5t-17 -4q-12 -4 -14 -4q-23 0 -37.5 41t-14.5 70q0 20 4.5 61t4.5 62q0 28 -14.5 65.5t-14.5 42.5z" />
<glyph unicode="(" horiz-adv-x="563" d="M18 584q0 179 60 362t164 338q4 5 20 30.5t26.5 40.5t27.5 35t33 30t32 10q3 0 10 -1.5t10 -1.5h2q2 0 11 3.5t14 3.5q21 0 35 -24t14 -48q0 -14 -33 -88.5t-73.5 -161.5t-48.5 -106q-43 -114 -66 -265.5t-23 -289.5q0 -324 121 -514q12 -17 35 -53.5t23 -43.5 q0 -17 -20.5 -31t-37.5 -14q-107 0 -253 308q-4 7 -5 10q-49 103 -63.5 211t-14.5 260z" />
<glyph unicode=")" horiz-adv-x="438" d="M-63 1343q0 22 14 46t35 24q12 0 24 -6q3 0 11 2t12 2q16 0 32 -10t33 -30t27.5 -34.5t27 -40t19.5 -30.5q104 -156 163.5 -339.5t59.5 -363.5q0 -151 -14.5 -259.5t-63.5 -211.5q-84 -175 -144 -246q-61 -71 -114 -71q-17 0 -37 14t-20 31q0 16 57 96q121 193 121 514 q0 139 -22.5 291t-65.5 266q-8 19 -48.5 106t-73.5 161.5t-33 88.5z" />
<glyph unicode="*" horiz-adv-x="591" d="M18 1163v17t2 16.5t8 17.5t15 5q27 0 81 -7t66 -8l-26 26t-40.5 43t-17.5 27q0 9 18.5 26t27.5 17q15 0 67 -63q0 22 -2 47t-2.5 32.5t5 16t17 9.5t37.5 1q9 0 14.5 -7.5t6.5 -20.5t0.5 -25t-1.5 -26.5t-1 -18.5q33 41 45 41q9 0 28 -18t19 -27l-4 -10l-74 -76 q42 -1 118 0.5t101 1.5q6 0 10 -2t6.5 -6t4 -7.5t2 -10.5t0.5 -10v-10.5v-8.5q0 -7 -6.5 -13t-14.5 -6q-106 -4 -159 -2q3 -3 25 -25.5t38.5 -41.5t16.5 -25q0 -10 -18.5 -27.5t-27.5 -17.5q-8 0 -31 22.5t-49.5 53t-29.5 33.5v-133q0 -8 -4.5 -12.5t-12 -6t-13.5 -1.5 t-15 0.5t-10 0.5q-8 0 -13.5 6t-5.5 13v145q-3 -3 -15 -15.5t-24.5 -26t-26.5 -27t-25 -22.5t-15 -9q-9 0 -27 17.5t-18 27.5l4 10l69 72q-2 0 -21 1t-33 2.5t-31.5 4.5t-27.5 8t-10 12z" />
<glyph unicode="+" horiz-adv-x="630" d="M61 696q0 8 5.5 14.5t17 10.5t22 6t27 3t25 1h24.5h15q22 0 27.5 4.5t6.5 26.5q0 4 0.5 25t1.5 35t4.5 31t12.5 26.5t22 9.5q6 0 16 -4t15 -4t17 3t18 3q34 0 53 -19q4 -4 4.5 -27.5t-1 -55t-1.5 -33.5q0 -21 21 -21q18 0 55 3t55 3q47 0 47 -59q0 -23 -8.5 -39 t-18.5 -24t-31.5 -12t-33.5 -4.5t-39 0.5t-34 1q-10 0 -16.5 -10t-8 -27t-1 -32t1.5 -33t1 -23q0 -53 -39 -61q-3 -1 -37 -10t-51 -9l-14 2q-15 10 -15.5 61t-0.5 95.5t-15 44.5q-9 0 -27.5 -2t-27.5 -2q-5 0 -18 -1t-22 -0.5t-19.5 2t-16.5 7.5t-8 16q-11 46 -11 78z" />
<glyph unicode="," horiz-adv-x="356" d="M20 -135q0 11 26.5 57t29.5 58q18 53 18 145q0 17 6 28.5t14 17.5t23.5 9t25.5 3.5t30 0.5q32 0 46.5 -21.5t14.5 -53.5q0 -5 -9 -32t-9 -28q-30 -66 -60 -101.5t-98 -94.5q-10 -7 -19 -7q-5 0 -16 3.5t-16 3.5q-7 7 -7 12z" />
<glyph unicode="-" d="M100 610q0 81 84 78v2h291q44 0 41 -41v-55q0 -30 -15 -49t-44 -19q-110 4 -166 4q-21 0 -60.5 -2t-58.5 -2q-6 0 -14 1t-18 2.5t-15 2.5q-25 20 -25 78z" />
<glyph unicode="." horiz-adv-x="313" d="M66 31q0 45 32 63q4 2 18.5 10.5t25.5 13.5t18 5q18 0 49 -38.5t31 -57.5q0 -8 -3.5 -15.5t-10.5 -12.5t-13 -8.5t-17.5 -6.5t-17 -4.5t-17.5 -4t-14 -2.5q-5 2 -21 5.5t-23.5 6t-17.5 8.5t-14.5 15.5t-4.5 22.5z" />
<glyph unicode="/" horiz-adv-x="681" d="M-94 -94q0 36 33 160q68 255 75 280q25 83 58 173.5t78.5 204.5t66.5 171q42 114 107 340q7 23 18 69.5t18 69.5q8 24 13.5 36t15.5 24.5t25 17t37 4.5q11 0 33.5 4t35.5 4q53 0 53 -47q0 -24 -46 -159.5t-99 -277.5t-111.5 -296.5t-64.5 -171.5q-92 -246 -162 -498 q-2 -6 -7.5 -28.5t-10.5 -37.5t-13.5 -33.5t-20.5 -28t-26 -9.5q-15 0 -44.5 4.5t-41.5 5.5q-11 0 -15.5 4t-4.5 15z" />
<glyph unicode="0" horiz-adv-x="696" d="M43 670q0 68 16.5 146t49 155t91 127.5t132.5 50.5q27 0 51 -11t45 -33.5t33 -39t31 -45.5q108 -163 108 -430q0 -44 -4 -90t-13 -102.5t-27.5 -105t-44.5 -90t-66.5 -65.5t-90.5 -24q-9 0 -26 -5.5t-27 -5.5q-26 0 -82 29q-53 33 -96 111q-51 98 -65.5 192.5 t-14.5 235.5zM223 629q0 -23 3 -49.5t5.5 -45.5t10 -53t10 -46t13 -52t11.5 -45q16 -61 56 -107q12 -12 16 -12t14.5 14.5t21.5 32.5t13 21q76 95 76 211q0 170 -9 237q-26 187 -132 240q-20 10 -27 10q-20 0 -42.5 -61t-20.5 -86v-15q2 -34 -8.5 -100t-10.5 -94z" />
<glyph unicode="1" horiz-adv-x="319" d="M45 709q0 43 5 129t5 129q0 25 -3 73t-3 72q0 14 3 23.5t5.5 14.5t11.5 7t12.5 2.5t17 0t18.5 -0.5q10 0 23.5 10.5t25.5 10.5q47 0 47 -93q0 -17 -2 -49t-2 -49q0 -75 12 -223q8 -131 8 -295q0 -18 5.5 -52t5.5 -50q0 -13 -8.5 -38t-8.5 -38q0 -14 9.5 -40t9.5 -42 q0 -25 -5 -37.5t-10.5 -15.5t-23.5 -6.5t-31 -8.5q-15 -6 -31 -6q-26 0 -44 16.5t-23 43.5q-8 42 -11 98q-18 308 -18 414z" />
<glyph unicode="2" horiz-adv-x="747" d="M80 893q0 71 35 135.5t94 104.5q21 15 64.5 23t58.5 15q30 15 51 15q38 0 84 -37q71 -55 97 -126t26 -173q0 -43 -13 -91.5t-42.5 -106.5t-49 -93.5t-60.5 -101t-50 -80.5q-6 -9 -17 -26t-17.5 -27.5t-14.5 -26t-13 -29.5q16 -4 25 -4l8 2q15 1 130 16t175 15 q27 0 41.5 -14.5t17.5 -31.5t3 -44q0 -45 -23 -51q-11 -2 -30 -15.5t-29 -13.5q-8 0 -20 8t-21 8q-6 0 -29 -11t-49 -11q-10 0 -29.5 -2t-29.5 -2q-22 0 -35 8q-28 -14 -33 -14q-12 0 -44.5 -7t-53.5 -2h-11q-12 0 -34 -5t-33 -5q-32 0 -79.5 20t-47.5 46q0 16 115.5 225.5 t177.5 316.5q41 77 41 170q0 36 -26.5 102t-55.5 66q-7 0 -31 -9.5t-33 -14.5q-37 -18 -50 -44.5t-13 -70.5q0 -21 10 -48t10 -32q0 -16 -11 -29.5t-26 -13.5q-50 0 -80 34t-30 83z" />
<glyph unicode="3" horiz-adv-x="745" d="M23 1047q0 45 28 67q31 22 78 25q33 4 97.5 11t97.5 11q15 1 89 11t113 10q37 0 37 -43q0 -41 -36 -91.5t-78.5 -87.5t-78.5 -67t-36 -35q2 -5 28.5 -17t65 -34.5t79.5 -57t78 -98.5t54 -147q6 -34 6 -68q0 -83 -49 -186q-11 -22 -26 -30t-21 -17q-12 -17 -23 -23.5 t-27 -9.5t-28 -8q-10 -6 -32 -19t-35.5 -21t-34 -14.5t-39.5 -5.5l-31 2q-65 2 -134 58t-69 119q0 37 28.5 92t61.5 55q8 0 25 -2t25 -2q14 0 21 -0.5t18 -2.5t16.5 -6.5t9.5 -13.5t4 -22q0 -9 -3 -26.5t-3 -26.5q0 -27 18 -88q7 -21 45 -21q43 0 71.5 34.5t39 76.5t10.5 84 q0 66 -10 110q-15 53 -58.5 93.5t-95.5 63.5t-101.5 41t-82.5 36.5t-33 38.5q0 25 78 99t78 99q0 8 -8 8h-4q-6 -1 -67 -9.5t-66 -8.5q-26 0 -58 20t-32 44z" />
<glyph unicode="4" horiz-adv-x="794" d="M41 281q0 34 4.5 72t13 86.5t11.5 70.5q6 52 19.5 173.5t21.5 186.5q5 35 17 104.5t17 104.5q1 5 3 20.5t3 23t5 20t9 19t14.5 11.5t21.5 5q9 0 25 5t24 5q11 0 19.5 -6.5t13 -19.5t7.5 -26t3.5 -31t0.5 -31t-0.5 -29t-0.5 -21q0 -105 -12 -317q-2 -39 -8.5 -83 t-17.5 -100t-15 -82q-1 -6 -2.5 -24.5t-4.5 -30.5t-10 -22l8 -11h13q26 0 82 8.5t84 8.5q10 0 17 7t9 21.5t2.5 24.5t0 27.5t-0.5 19.5q2 33 16 51t46 25q67 16 82 16q30 0 30 -39q0 -19 -3.5 -61t-2.5 -64v-45l49 6q18 11 35 11q23 0 23 -37q0 -28 -19 -79.5t-41 -51.5 q-12 0 -25.5 13t-23.5 13q-16 0 -26 -10q-1 -5 -11 -23t-10 -30q0 -4 2 -13.5t2 -13.5q0 -26 -20.5 -42.5t-46.5 -16.5q-29 0 -45 22t-19.5 48.5t-12 48.5t-24.5 22q-14 0 -44 -4t-46 -4q-5 0 -16 1t-17 1q-32 -14 -131 -14q-53 0 -75.5 15t-22.5 65z" />
<glyph unicode="5" horiz-adv-x="700" d="M25 281q0 24 57.5 62t85.5 38q20 0 46.5 -30t47.5 -66.5t47.5 -66.5t46.5 -30q28 0 61.5 62.5t33.5 95.5q0 5 -1 14.5t-1 14.5q0 13 4 40t4 42q0 72 -45 164q-10 26 -45 26h-56q-37 0 -77 -14.5t-67 -29.5t-34 -15q-27 0 -56.5 24.5t-29.5 51.5q0 12 4 32l70 379 q3 19 9 27t22 12q10 3 31 16t34 15q15 3 65 11.5t77.5 13t70.5 10.5t78.5 9t66.5 3q18 0 30.5 -11.5t12.5 -29.5q0 -13 -18.5 -54.5t-28.5 -45.5q-8 -4 -39 -4q-4 -25 -55 -25q-25 0 -74 -5t-73 -5q-18 0 -29.5 -9t-15.5 -23t-5.5 -31.5t-0.5 -34t0 -31.5h-3v-39v-10v-10.5 t0.5 -8.5t2 -7.5t4.5 -5.5t8 -4t12 -1q10 0 31 3t33 3q49 0 77 -45q11 -17 27.5 -32.5t38.5 -32t33 -27.5q3 -3 10.5 -9.5t10.5 -9t8.5 -8t8.5 -10t6 -11t5 -14.5q3 -10 12 -16q24 -19 35.5 -68t11.5 -90q0 -106 -69 -208.5t-168 -129.5q-12 -3 -36.5 -11.5t-44.5 -13 t-38 -4.5q-8 0 -53 5q-30 3 -49 28q-8 13 -30.5 20t-31.5 15q-32 26 -69 73.5t-37 76.5z" />
<glyph unicode="6" horiz-adv-x="643" d="M33 571q0 55 16 162t33 158q57 164 192 266q43 31 68 31h10.5h12.5t12.5 -0.5t14 -1.5t12.5 -2.5t11.5 -4.5t8 -7t6.5 -9t2 -12q0 -29 -41 -102q-49 -81 -77 -154.5t-64 -192.5q-8 -20 -8 -32q0 -6 6 -6q11 0 55.5 14t69.5 14q63 0 113 -46.5t74 -109.5t24 -124 q0 -54 -11.5 -95.5t-39 -77t-52 -58.5t-72.5 -61q-13 -10 -20 -16q-17 -14 -37 -14q-69 0 -127.5 39t-96 100.5t-60.5 128.5t-29 131q-6 81 -6 82zM229 479q0 -35 13 -88t42.5 -100t65.5 -47q5 0 8.5 1.5t6 5t3.5 6t2.5 8t2.5 7.5q2 7 7 25t8 30t6 27.5t3 26.5 q0 37 -24 105.5t-51 68.5t-60 -25t-33 -51z" />
<glyph unicode="7" horiz-adv-x="651" d="M23 1081q0 11 8 24.5t10 20.5q8 33 20.5 43.5t47.5 10.5q7 0 20.5 -2t20.5 -2q26 0 78 16t77 16q4 0 10.5 -4t16.5 -4q9 0 27.5 5.5t25.5 6.5q107 11 119 11q26 0 37.5 -19.5t9.5 -46.5v-10q-3 -63 -14 -136t-22 -125.5t-29 -136t-27 -128.5q-9 -46 -23 -130.5 t-18 -103.5q-2 -10 -8 -34t-7 -38q-2 -18 -4.5 -87t-9.5 -103q-8 -41 -35 -41q-16 0 -38 12l-21 13q-5 0 -19.5 -14.5t-25.5 -14.5q-26 0 -47 18t-21 43q0 20 20.5 97t45.5 166t31 116q10 50 18.5 105t17 124.5t13.5 104.5q3 18 10 53t11.5 64t4.5 53q0 10 -8 10 q-6 0 -21 -3.5t-20 -2.5q-4 0 -10.5 1t-9.5 1q-21 0 -61 -13t-62 -13q-139 0 -139 77z" />
<glyph unicode="8" horiz-adv-x="636" d="M4 283q0 124 100 262q13 23 44.5 83t31.5 66q0 8 -10 23q-115 128 -115 252q0 21 4 39t8.5 32.5t16 27.5t19 22t25 19t26.5 15t30.5 13t30.5 11t33.5 11t32.5 10q10 5 16 5h8q73 -13 116.5 -71.5t43.5 -133.5q0 -37 -78 -197q-4 -7 -17.5 -24.5t-24.5 -33t-11 -20.5 t21 -28.5t50.5 -59t59.5 -78.5t51 -98t21 -108q0 -49 -11.5 -86t-28.5 -57.5t-34 -35.5t-30.5 -29t-16.5 -28q-4 -17 -33 -25q-7 -1 -52 -12.5t-63 -11.5q-105 0 -184.5 71.5t-79.5 174.5zM180 969q0 -13 35 -80.5t41 -67.5q13 6 31.5 61t27.5 91q-3 11 -6 24.5t-4.5 18 t-4.5 11t-9.5 8t-16.5 2.5t-28 1q-26 0 -46 -21t-20 -48zM188 299q0 -31 7 -60t28 -53t53 -24q10 0 19 1.5t16 3.5t13 7.5t10 8.5t8.5 11.5t6.5 12t5.5 14t4.5 14t4 16t4 15.5l-5 2q0 33 -4 49q-11 44 -45 132.5t-53 103.5q-16 -14 -44 -118.5t-28 -135.5z" />
<glyph unicode="9" horiz-adv-x="690" d="M18 848q0 99 47.5 184t135.5 113q54 18 71 18q5 0 14.5 -3t14.5 -3q22 0 72.5 18.5t68.5 18.5q5 1 13.5 -0.5t11.5 -1.5q12 0 30.5 8t28.5 8q30 0 43 -32t13 -68q0 -181 -17 -414q-5 -76 -19.5 -218.5t-17.5 -170.5q-2 -21 -2 -45t1 -54t1 -46q0 -82 -92 -82 q-68 0 -74 69q-16 126 -16 199q0 42 7 127t7 127q0 12 -8 12q-5 0 -16.5 -2t-16.5 -2q-8 0 -23 3t-22 3q-17 0 -52 -10t-54 -10q-24 0 -59 35q-91 94 -91 219zM188 877q0 -36 22 -95t52 -59q4 0 21 7t37 16t22 10q26 13 29 45l6 174h2q0 5 1 16.5t1 16.5q0 13 -5 21 t-16.5 11t-18.5 3.5t-24 0.5q-14 0 -20 -4q-109 -63 -109 -163z" />
<glyph unicode=":" horiz-adv-x="356" d="M98 326q0 45 33 63q4 2 18.5 10.5t25.5 13.5t18 5q18 0 48.5 -38t30.5 -58q0 -8 -3 -15.5t-10.5 -12.5t-13.5 -8.5t-17 -6.5l-16.5 -4.5t-17.5 -4t-14 -2.5q-6 2 -21.5 5.5t-23 6t-18 8.5t-15 15.5t-4.5 22.5zM98 653q0 46 33 64q3 1 18 10t26 13.5t18 4.5q18 0 48.5 -38 t30.5 -58q0 -8 -3.5 -15t-10 -12t-13 -9t-17 -6.5t-17 -4t-17.5 -3.5t-14 -3q-6 2 -21.5 5t-23 6t-18 8.5t-15 15t-4.5 22.5z" />
<glyph unicode=";" horiz-adv-x="356" d="M20 -135q0 11 26.5 57t29.5 58q18 53 18 145q0 17 6 28.5t14 17.5t23.5 9t25.5 3.5t30 0.5q32 0 46.5 -21.5t14.5 -53.5q0 -5 -9 -32t-9 -28q-30 -66 -60 -101.5t-98 -94.5q-10 -7 -19 -7q-5 0 -16 3.5t-16 3.5q-7 7 -7 12zM98 326q0 45 33 63q4 2 18.5 10.5t25.5 13.5 t18 5q18 0 48.5 -38t30.5 -58q0 -8 -3 -15.5t-10.5 -12.5t-13.5 -8.5t-17 -6.5l-16.5 -4.5t-17.5 -4t-14 -2.5q-6 2 -21.5 5.5t-23 6t-18 8.5t-15 15.5t-4.5 22.5z" />
<glyph unicode="&#x3c;" horiz-adv-x="518" d="M53 598q0 3 19.5 39t23.5 39q34 24 128 116t128 111q7 4 39.5 10.5t42.5 6.5q21 0 21 -27q-6 -12 -11 -34.5t-13 -38.5t-25 -25q-30 -15 -100 -78t-70 -84q0 -8 29.5 -28t64.5 -40.5t64.5 -45t29.5 -40.5v-10q0 -15 -1 -24t-4 -22t-12.5 -19.5t-23.5 -6.5q-32 0 -78 28.5 t-83.5 62.5t-72 62.5t-45.5 27.5q-6 -3 -12 -3q-9 0 -24 7.5t-15 15.5z" />
<glyph unicode="=" d="M100 643q0 31 18.5 48.5t49.5 15.5l16 -2v2h305q37 0 37 -33v-43q-3 -56 -63 -53q-54 1 -154 -1t-137 -2q-9 0 -26 3t-21 4q-25 11 -25 61zM100 838q0 32 18.5 49.5t49.5 15.5l16 -2v2h305q37 0 37 -33v-43q-3 -55 -63 -55q-43 2 -91 2t-107.5 -1t-92.5 -1q-15 0 -47 4 q-25 13 -25 62z" />
<glyph unicode="&#x3e;" horiz-adv-x="518" d="M76 903q0 27 18 27q11 0 43 -6.5t41 -10.5q32 -18 125.5 -109t130.5 -116q4 -3 23.5 -40t19.5 -40q0 -20 -51 -20q-15 0 -65 -44.5t-112 -89t-104 -44.5q-18 0 -27.5 12.5t-10.5 24t-1 32.5v13q0 19 47 51.5t94.5 61t47.5 38.5q0 21 -70 84t-100 78q-17 9 -25 25.5 t-13 38.5t-11 34z" />
<glyph unicode="?" horiz-adv-x="768" d="M59 1083q0 59 34.5 114.5t90.5 115.5q41 43 183 43q115 0 194 -88q6 -9 23 -21q60 -54 97.5 -124.5t37.5 -145.5q0 -62 -31.5 -117.5t-83.5 -95.5q-135 -112 -223 -195q-16 -14 -28.5 -31.5t-21 -39t-15.5 -39.5t-10.5 -46t-6 -44t-3.5 -48t-1 -44.5v-46v-40.5 q0 -29 -26.5 -54t-55.5 -25q-32 0 -55.5 58.5t-32 117t-8.5 94.5q0 95 10 156q6 31 19 58.5t25 45t39.5 41t40 32.5t50 33t47.5 31q98 67 166 162q16 19 16 43q0 17 -14.5 44.5t-28.5 41.5q-1 1 -15.5 14t-23 19.5t-25 20t-27.5 22t-25 17.5t-24 13.5t-17 4.5 q-48 0 -84.5 -26t-36.5 -73q0 -28 19.5 -77.5t19.5 -57.5q0 -21 -26 -33t-50 -12q-21 0 -49 4q-22 5 -43 74.5t-21 103.5zM135 -80q5 42 44.5 79.5t82.5 37.5q25 0 38 -25t13 -53q0 -34 -32 -66t-66 -32q-25 0 -49.5 17.5t-30.5 41.5zM145 1006l5 -5v7h-5v-2z" />
<glyph unicode="@" horiz-adv-x="1212" d="M18 494q0 24 2.5 49t7.5 57t7 49q7 61 30 113t64 112q6 8 19.5 22t17.5 19q15 15 62 63t67 67.5t63 56t74 54.5t75.5 37.5t90.5 27.5q72 14 121 14q20 0 55 -6t53 -6q120 0 239.5 -94t139.5 -209q6 -40 6 -76q0 -24 -9 -69t-9 -70q0 -32 -19.5 -92.5t-19.5 -82.5 q0 -8 6 -17.5t6 -16.5q0 -15 -58.5 -52.5t-86.5 -48.5q-39 -20 -90 -20q-42 0 -90 11t-66 36q-41 82 -49 82q-9 -3 -16 -10q-35 -36 -57.5 -56t-61 -39.5t-76.5 -19.5q-130 0 -188 231q-2 10 -2 29q0 26 8 45q22 54 45.5 90t60.5 57q52 28 138.5 48t150.5 20q17 0 51.5 -9 t53.5 -9q4 0 13 1t13 1q32 0 54 -28t32 -75.5t15 -90.5t7.5 -93t4.5 -64q0 -10 6 -10q29 6 33 43q3 36 37 104.5t34 108.5q0 22 -13 62t-13 61q0 39 -35 70q-45 43 -101 77.5t-102 34.5q-80 0 -162 -16q-28 -4 -109 -41.5t-104 -56.5q-17 -11 -94 -74q-14 0 -24 -6.5 t-13.5 -13.5t-9 -21t-8.5 -20q-18 -4 -25 -17t-9 -34t-7 -31q-53 -115 -53 -263q0 -35 2 -64t9 -54.5t12.5 -45.5t20 -39t24 -32t31 -29t35 -25t43 -24t47 -23.5t54.5 -25.5q43 -21 90 -21q18 0 50 6t47 7q93 8 252 84q9 4 62.5 43t84.5 39q15 0 27 -11t12 -26q0 -13 -6 -25 q-61 -113 -142 -151q-8 -4 -23.5 -13.5t-23.5 -13.5q-131 -82 -272 -82q-17 0 -111 9t-100 12q-185 71 -296.5 199t-111.5 311zM111 670l2 -2v2h-2zM272 922zM539 539q0 -1 4 -13t4 -14q62 28 125 104t98 150q4 8 4 14q0 17 -18 17q-8 0 -101 -31q-40 -13 -64.5 -35 t-35 -55.5t-13.5 -61.5t-3 -75z" />
<glyph unicode="A" horiz-adv-x="790" d="M10 33q0 20 7 58.5t18.5 88.5t13.5 62l76 383q6 27 39.5 206.5t58.5 270.5q9 30 45 104q14 29 35 29q24 0 42.5 -22.5t27.5 -49.5q22 -66 125 -393q12 -37 39 -120.5t42 -130t35.5 -116t36.5 -127.5q-4 -12 -4 -18q0 -11 12.5 -28.5t14.5 -26.5q8 -36 8 -84 q0 -115 -39 -115q-48 0 -79.5 32.5t-37.5 80.5q-2 10 -12.5 44.5t-24 76t-16.5 51.5q-4 12 -10 17.5t-11.5 6t-21.5 0.5q-21 0 -66.5 6.5t-68.5 6.5q-12 0 -25.5 -29.5t-24.5 -73t-17.5 -74t-10.5 -51.5q-3 -25 -27 -28q9 -27 9 -37q0 -62 -68 -62q-7 0 -21.5 -4t-21.5 -4 q-29 0 -53.5 21t-24.5 49zM297 442q0 -9 6.5 -15t18.5 -8.5t21.5 -4t24 -2t17.5 -0.5v2q2 0 10.5 -0.5t14.5 -0.5t13 1.5t11 5t4 10.5q0 12 -31.5 130.5t-37.5 125.5q-4 8 -9 8q-6 -2 -10 -10q-2 -2 -27.5 -119t-25.5 -123z" />
<glyph unicode="B" horiz-adv-x="741" d="M10 1112q0 20 11 49.5t26 32.5q14 2 21 4.5t15.5 9t16.5 11.5q21 12 101 13q9 0 29 1.5t30 1.5q98 0 196.5 -68t98.5 -161q0 -50 -26 -101.5t-57 -84t-57 -59.5t-26 -34q0 -10 12 -18q92 -78 161 -188t69 -212q0 -95 -58 -176t-146.5 -125.5t-180.5 -44.5q-47 0 -103 17 q-8 3 -24.5 14t-26.5 14q-42 15 -58 41.5t-16 73.5q0 49 3 138.5t4 111.5h2l2 133q0 100 -9.5 302t-9.5 304zM172 1051q0 -43 4 -121l2 -125q0 -41 33 -41q59 0 134 73t75 132q0 45 -31 73t-69 36.5t-82 8.5q-2 0 -15 0.5t-16.5 0t-12.5 -2.5t-12 -5.5t-6.5 -11t-3.5 -17.5z M184 211q0 -8 5.5 -23.5t5.5 -23.5q0 -2 1 -15.5t2 -21.5t4 -19t8 -16.5t13 -5.5q130 0 189 54t59 182q0 40 -13 94.5t-41.5 107t-64.5 64.5q-24 8 -71 25.5t-70 25.5q-8 4 -14 4q-13 0 -13 -51q0 -56 6.5 -167t6.5 -167q0 -9 -6.5 -23.5t-6.5 -23.5z" />
<glyph unicode="C" horiz-adv-x="718" d="M10 666q0 360 185 510q73 59 145 59q83 0 157 -78.5t74 -161.5q0 -25 -11 -43t-34 -18q-27 0 -44.5 23.5t-25.5 51t-28.5 51t-54.5 23.5q-44 0 -78 -34q-48 -51 -69 -207.5t-21 -284.5q0 -86 14.5 -234.5t38.5 -177.5q22 -28 92 -28q52 0 95.5 19.5t65.5 43t44.5 43 t38.5 19.5q17 0 27 -13t10 -30q0 -89 -94.5 -162.5t-186.5 -73.5q-54 0 -102.5 24.5t-84 66.5t-61 88.5t-43.5 99.5q-49 145 -49 424z" />
<glyph unicode="D" horiz-adv-x="792" d="M18 401q0 75 3.5 158.5t10 189.5t9.5 160q1 20 2 85t4 117.5t10 76.5q10 39 50 56.5t86 17.5q12 0 32.5 -4.5t30.5 -4.5q13 0 36 1t34 1q72 0 132.5 -49.5t99 -124t66 -164.5t39 -168.5t11.5 -138.5q0 -138 -44 -277.5t-128 -234.5q-33 -36 -61 -56.5t-66 -27.5 q-16 -3 -68 -23t-59 -20q-5 0 -14.5 3t-14.5 3q-10 0 -28.5 -8t-28.5 -8q-18 0 -58 10t-47 19q-27 34 -30 69q-9 169 -9 342zM219.5 152q0.5 -5 2.5 -11t9 -8t19 -2q51 0 110 45q22 15 55.5 44t41.5 42q10 18 18 39.5t13.5 49t10 49.5t7 56.5t4 53.5t2 58t0.5 52v52.5v44.5 q0 37 -14 84q-42 125 -70 172q-63 106 -166 106q-16 0 -20 -5.5t-6 -20.5q-11 -115 -11 -445q0 -69 -2 -210t-2 -212q0 -7 -1 -18t-0.5 -16z" />
<glyph unicode="E" horiz-adv-x="677" d="M20 569q0 107 23 445q1 11 2.5 46.5t3 53.5t6 46t11.5 50q11 33 49 33q180 10 219 10q10 0 21 -1t24.5 -2.5t21.5 -2.5q5 0 38 -1t51 -4t43.5 -10t38 -22.5t12.5 -38.5q0 -19 -15 -35t-34 -16q-4 0 -14 2t-15 2q-21 0 -60.5 -15t-62.5 -15q-11 0 -34 3t-34 3 q-25 0 -79 -4q-15 -2 -14 -23q0 -164 3 -246q0 -24 4.5 -28t30.5 -4h49q73 -2 101 -23.5t28 -93.5q0 -23 -18.5 -39t-40.5 -16q-21 0 -64 6t-65 6q-24 0 -27 -25q-1 -21 -3 -65.5t-3 -65.5q-1 -23 -7.5 -125t-6.5 -157q0 -6 1 -10.5t2 -7t5 -4t5 -2t8 -2t9 -1.5 q20 -3 77.5 -13.5t88.5 -13.5q15 -1 42 0.5t36 1.5q64 0 83 -13q15 -11 15 -30q0 -10 -8 -24t-8 -23q0 -4 2 -12.5t2 -13.5q0 -22 -27 -32.5t-55 -10.5q-13 0 -32.5 8t-30.5 8q-105 0 -297 -12q-5 0 -15.5 -2t-15.5 -2q-26 0 -36.5 28.5t-14.5 67.5t-12 51q-7 27 -7 436z " />
<glyph unicode="F" horiz-adv-x="626" d="M2 1192v6q-1 44 17 56t65 14v-2q16 2 53 6.5t64 7t53 2.5q18 0 51 -2t51 -2q11 0 34.5 2t35.5 2q38 0 57 -24t19 -62q0 -4 3 -13t3 -14q0 -25 -23.5 -47t-48.5 -22q-7 0 -20 1t-19 1q-30 0 -174 -21q-15 -1 -20.5 -8t-5.5 -22q0 -51 19.5 -153.5t19.5 -154.5 q0 -22 18 -22q20 0 58.5 4t56.5 4q22 0 43.5 -24.5t21.5 -47.5q0 -10 -8 -22.5t-10 -18.5q-3 -19 -15.5 -31t-33 -17.5t-37.5 -7.5t-42.5 -3t-35.5 -2q-25 -3 -25 -27q-8 -123 -10 -180q-2 -22 -3.5 -79.5t-4.5 -88.5q-1 -17 -14 -29t-26 -19t-13 -11q2 -6 19.5 -21.5 t17.5 -33.5q0 -26 -26.5 -38t-55.5 -12q-7 0 -22.5 -2t-22.5 -2q-54 0 -54 121q0 98 5.5 295t5.5 297q0 86 -9.5 244.5t-11.5 222.5z" />
<glyph unicode="G" horiz-adv-x="823" d="M33 500q0 132 31 296.5t83 262.5q139 256 334 256q44 0 101 -59t57 -105q0 -24 -19 -50t-42 -26q-6 0 -26 16t-47 32t-52 16q-19 0 -41 -15q-137 -98 -156 -231q-37 -253 -37 -406q0 -10 -1 -57v-40v-28q1 -21 5 -58t15 -63.5t28 -47.5q47 -58 105 -58q36 0 64 10 t47 25.5t32 41t20 49t11 57.5t5 58t1 58q0 16 -5.5 22.5t-21.5 6.5t-46 -3t-46 -3q-30 0 -54 25t-24 55t28 44.5t64 17t81 8.5t69 18q16 8 27 8q18 0 31.5 -16.5t13.5 -34.5q0 -6 -4.5 -16.5t-4.5 -16.5t8 -13.5t9 -15.5q8 -66 8 -98q0 -16 -3 -45t-3 -45q0 -21 3 -64.5 t3 -66.5q0 -95 -53.5 -145t-151.5 -72q-82 -21 -117 -21q-58 0 -102 33q-60 44 -100 92q-58 66 -92.5 188.5t-34.5 223.5z" />
<glyph unicode="H" horiz-adv-x="882" d="M27 453v98q2 65 2.5 213t5 258t16.5 213q4 37 20.5 51t53.5 14q13 0 33.5 7.5t29.5 7.5q23 0 38.5 -33t15.5 -59q0 -59 -6.5 -178t-6.5 -179q0 -35 21 -35q10 0 35 5q69 12 237 12q12 0 16.5 6t6.5 20q1 15 5.5 105t11 158.5t16.5 91.5q12 33 34 33q7 0 20.5 -5.5 t20.5 -5.5t19.5 4.5t19.5 4.5q51 0 50 -166q0 -344 -29 -684q-5 -51 -14.5 -155t-14.5 -155q-1 -2 -1 -6t-0.5 -7.5t-3 -6t-5.5 -2.5q-1 0 -25 6q19 -51 19 -66q0 -26 -36 -38.5t-69 -12.5q-29 0 -42 58t-13 104q0 85 12 254.5t12 253.5q0 22 -16 22q-126 0 -227 -16 q-35 -5 -43 -12t-8 -39v-238q0 -39 -9 -172q-1 -4 -1.5 -27t-2.5 -41t-6 -18t-18 7t-19 8q4 -7 13.5 -22.5t14.5 -28t5 -25.5q0 -28 -41 -50t-72 -22q-26 0 -42.5 20t-18.5 48q-14 197 -14 422z" />
<glyph unicode="I" horiz-adv-x="428" d="M70 446q0 50 4.5 143.5t5.5 129.5q6 164 6 493q0 30 11 54t38 24q10 0 41.5 -13.5t40.5 -21.5q14 -12 29 -57q16 -44 16 -567v-189v-366q-3 -58 -72 -58q-14 0 -25.5 8.5t-17.5 8.5q-4 0 -10.5 -3t-9.5 -3q-12 0 -21.5 17.5t-9.5 31.5q0 12 5 21.5t13.5 20.5t12.5 19 q-27 5 -33 15q-10 16 -17 126.5t-7 165.5z" />
<glyph unicode="J" horiz-adv-x="749" d="M12 305q0 32 14 55t44 23q39 0 62 -27.5t33 -66.5t19.5 -78t31 -66.5t58.5 -27.5q31 0 50 23t24.5 49t5.5 55q0 299 -26 782q0 21 -19 21q-25 0 -77.5 -7.5t-79.5 -7.5q-25 0 -35 11.5t-15 37.5q-2 13 -9 42t-11 52t-4 42q0 3 1 7.5t1 6.5q12 38 76 47q169 27 338 27 q222 0 243 -27q8 -11 15.5 -45.5t7.5 -52.5q0 -31 -18 -58.5t-48 -27.5q-12 0 -32 10t-31 10q-9 0 -15 -6.5t-8.5 -15t-8.5 -15t-15 -6.5q-5 0 -14.5 4t-14.5 4q-17 0 -24 -17.5t-7 -37.5l-8 -547q-1 -49 -2.5 -81.5t-7.5 -90t-15.5 -97.5t-28 -88t-43.5 -77.5t-63 -49.5 t-86 -20q-59 0 -102.5 15t-69.5 38t-43.5 64t-25.5 80t-15 98q0 6 -1 18.5t-1 18.5z" />
<glyph unicode="K" horiz-adv-x="792" d="M31 535q0 165 8 489q0 11 1 47t1.5 54.5t3.5 46.5t8 49q3 12 6 19t5 12t8 7.5t9 3.5t15 2.5t19 2.5q18 12 43 12q76 0 88 -27q11 -26 14 -72q2 -25 2 -59q0 -28 -2 -62q-2 -75 -2 -81q0 -9 1 -18.5t2.5 -21.5t2.5 -19q20 0 43 28q124 142 162 189q25 32 68 112 q23 41 51 41q32 0 57 -17.5t25 -47.5q0 -10 -7.5 -29t-22 -44t-25.5 -43.5t-27 -43.5t-19 -29q-6 -10 -22 -36.5t-24.5 -40t-23 -34t-29 -36.5t-30.5 -31q-10 -8 -28.5 -29.5t-18.5 -29.5q0 -5 29 -54t62.5 -105t39.5 -67q41 -78 107.5 -242t66.5 -216q0 -30 -8 -43t-35 -13 q-40 0 -72.5 23.5t-50.5 60.5q-26 54 -67 155t-79.5 181t-84.5 144q-6 10 -16 14q-6 -11 -9 -38.5t-3 -50t0.5 -57.5t0.5 -40q0 -25 -8 -78t-8 -80q0 -5 1 -17t1 -18q0 -5 -1 -14.5t-1 -14.5q0 -15 5 -45t5 -45q0 -55 -46.5 -94t-102.5 -39q-82 0 -82 86q0 74 -3 222t-3 221 z" />
<glyph unicode="L" horiz-adv-x="657" d="M49 698q0 387 31 514q6 23 18 34t35 14q14 2 47.5 12t50.5 10q24 0 36 -15t12 -40q0 -19 -16.5 -76.5t-16.5 -99.5q0 -31 2 -96t2 -97q0 -104 -5 -310t-5 -308v-14.5v-12.5t1 -9.5t3 -8.5t6 -4.5t10.5 -3.5t15.5 -1q20 0 61 2t62 2q103 5 125 5q8 0 16 -2t17.5 -7 t14 -7.5t15.5 -11t13 -9.5q12 -18 12 -43q0 -42 -24 -65t-66 -23q-12 0 -29.5 6t-25.5 6q-17 0 -23 -12q-16 -7 -96 -7q-14 0 -44 2.5t-44 2.5q-21 0 -58.5 -9.5t-56.5 -9.5q-28 0 -51.5 11t-23.5 36q0 8 5 25t5 26v5q-1 95 -16 291t-15 298z" />
<glyph unicode="M" horiz-adv-x="1079" d="M51 1135q0 30 24.5 49.5t55.5 19.5q41 0 164.5 -138.5t153.5 -203.5q2 -5 8 -24.5t12.5 -33t13.5 -16.5q8 -4 15 -4q12 0 20 15q8 13 43 58t45 75q4 10 10.5 19.5t16 20t14.5 17.5q11 15 25 50.5t28 54.5q8 11 24 30t26.5 35t17.5 35q6 15 15.5 21.5t16.5 7t27 0.5 q11 0 30 13t38 13q24 0 36.5 -39.5t12.5 -72.5q0 -87 -1 -261.5t-1 -261.5q0 -47 -3 -142t-3 -142q0 -72 -4 -107q-1 -9 -12 -32t-11 -29q0 -12 6.5 -35.5t6.5 -34.5q0 -36 -7 -54.5t-16 -22.5t-25.5 -9.5t-27.5 -13.5q-29 -21 -51 -21q-31 0 -44.5 28t-13.5 62 q0 87 -9.5 251.5t-10.5 189.5q-2 37 -3 109t-3 108q0 14 -6 22q-16 0 -46 -38.5t-61.5 -76.5t-52.5 -38q-3 0 -10 1t-11 1t-21 -9.5t-32 -9.5q-25 0 -54.5 28.5t-52 64.5t-51 73.5t-49.5 50.5q-10 -16 -10 -49q0 -3 6 -180q1 -22 7.5 -60.5t8.5 -54.5q11 -157 11 -172 q0 -44 -4 -67q-1 -10 -15 -35t-14 -59q0 -22 16 -41l2 -13q-12 0 -12 -12q0 -4 3 -12.5t3 -12.5q0 -51 -94 -51q-33 0 -55.5 15.5t-22.5 46.5q0 7 5 21.5t5 21.5q0 9 -9.5 20t-10.5 29q-20 383 -27 926q0 15 -3 43t-3 43z" />
<glyph unicode="N" horiz-adv-x="987" d="M31 1139q0 26 19.5 52.5t43.5 35.5h15q13 0 39 4t40 4q22 0 54 -37q11 -15 21.5 -30t21.5 -32.5t18.5 -30.5t19 -34t17 -31.5t17.5 -35t16 -32.5t17 -35.5t16 -33.5q12 -24 227 -465q21 -41 29 -41l8 2q-4 37 -4 115q0 32 4.5 90.5t5.5 81.5q1 24 3.5 147t6.5 224.5 t10 122.5q14 34 45 34q26 0 40 -1.5t28.5 -8.5t20.5 -22t6 -41q0 -47 -5.5 -142.5t-5.5 -142.5v-623q0 -17 7.5 -45.5t7.5 -42.5q0 -41 -9 -63q5 -10 5 -16q0 -10 -9.5 -30.5t-11.5 -29.5q-4 -14 -23 -23.5t-36 -9.5q-31 0 -62.5 27.5t-42.5 58.5q-3 6 -8 11q-23 9 -59 59.5 t-79.5 129t-76.5 142.5t-71.5 142.5t-43.5 87.5q-9 17 -15.5 35.5t-14 41t-11.5 35.5q-15 15 -18 17q-7 -11 -10 -19q-4 -25 -5 -56q-1 -21 -1 -44v-23v-55q0 -22 -3.5 -117.5t-3.5 -146.5q0 -61 17 -182q1 -9 7.5 -28t6.5 -30q0 -13 -14 -27t-29 -22q-9 -4 -36 -25.5 t-42 -21.5t-26 8.5t-17.5 25t-10 29.5t-7 34t-4.5 26h4q-4 30 -8 43q-14 70 -20.5 169t-6.5 172.5t2 192.5t2 164q0 104 -6 209q-1 14 -6.5 49.5t-5.5 53.5z" />
<glyph unicode="O" horiz-adv-x="794" d="M18 492q0 130 15 253q7 70 34.5 152t71 160.5t110 131t140.5 52.5q47 0 71.5 -14t55.5 -53q96 -118 134 -257t38 -311q0 -86 -17.5 -220.5t-45.5 -174.5q-29 -17 -29 -70q0 -6 -4 -14q-79 -137 -195 -150q-3 0 -38 -6t-52 -6q-71 0 -134 66.5t-97 149t-41 151.5 q-2 16 -7 50.5t-7.5 60.5t-2.5 49zM236 571q0 -27 16 -164t22 -151q27 -80 70 -131q16 -21 25 -21q7 0 21.5 18t31 44t18.5 29q37 44 58.5 85t30.5 93t10.5 86.5t1.5 107.5v127l-2 2q-4 58 -11 101.5t-23.5 93.5t-49 87t-80.5 60q-18 6 -21 6q-19 0 -52.5 -68t-33.5 -93 q0 -3 1 -10.5t1 -10.5q0 -24 -14 -75t-14 -78q0 -3 1 -11t1 -12q0 -20 -4 -58t-4 -57z" />
<glyph unicode="P" horiz-adv-x="698" d="M10 733q0 21 2 31q11 76 11 166q0 165 2 198q1 23 10 33.5t31 16.5q188 57 204 57q9 0 29 -4q6 -2 51 -11t68 -18q93 -36 145.5 -116t52.5 -181q0 -70 -29 -132.5t-79 -109t-107.5 -81t-124.5 -58.5q-5 -2 -9 -4t-7 -5.5t-5 -6t-3.5 -7.5t-2 -7t-1 -8.5t-0.5 -8.5v-10 v-10q0 -52 5 -158.5t5 -159.5q0 -17 -12 -24l-6 -11q4 -12 4 -16q0 -6 -4 -19.5t-4 -19.5q0 -5 3 -13.5t3 -12.5q0 -23 -56.5 -41.5t-87.5 -18.5q-9 0 -16 2.5t-11.5 8.5t-8 12t-5.5 15.5t-3.5 16.5t-2 18.5t-0.5 17v17v13.5h2q-43 402 -43 649zM217 1040q0 -67 27 -321 q5 -29 20 -29q38 0 75 45.5t57.5 93.5t31.5 91q-3 7 -6.5 22t-8 26.5t-10.5 20.5q-54 70 -170 70q-16 0 -16 -19z" />
<glyph unicode="Q" horiz-adv-x="823" d="M6 627q0 117 32.5 225t94.5 231q33 64 121 131q66 48 129 48q53 0 86 -23q64 -40 110 -110.5t68.5 -155t32.5 -163.5t10 -161q0 -107 -26 -234t-72 -206q-10 -15 -10 -23q0 -12 60 -65.5t60 -75.5q0 -19 -19 -37t-38 -18q-26 0 -57 27.5t-54 55t-32 27.5q-7 0 -37 -18 q-40 -27 -133 -27q-72 0 -130.5 41t-93.5 103.5t-59 141.5t-33.5 150.5t-9.5 135.5zM229 559q0 -85 15 -170q1 -5 4.5 -22t3.5 -27q0 -13 -6 -25q0 -8 8 -25.5t20 -39t15 -29.5q19 -57 82 -57q14 0 21 0.5t15.5 6.5t8.5 17q0 7 -37 54t-37 71q0 23 17.5 43.5t39.5 20.5 q18 0 30.5 -10.5t24.5 -26.5t23 -23q7 7 10 17q8 23 16.5 167t8.5 201q0 130 -78 279q-13 27 -63 63q-9 9 -17 9q-12 0 -39.5 -74.5t-35.5 -106.5q-50 -155 -50 -313z" />
<glyph unicode="R" horiz-adv-x="768" d="M27 612v514q0 63 71 66q32 2 96 22.5t101 20.5q9 0 27.5 -2t27.5 -2t29 2t29 2q58 0 106 -49t72 -112.5t24 -119.5q0 -58 -16 -104t-38 -72.5t-44.5 -45.5t-38.5 -32t-16 -22q0 -15 6 -27q9 -31 29.5 -94.5t29.5 -95.5q38 -156 49 -197q6 -19 15.5 -55.5t16 -58.5t19 -52 t27.5 -55q8 -16 8 -27q0 -53 -82 -53q-40 0 -78 71.5t-46 123.5q-3 15 -35 108q-11 34 -30 101.5t-36 121.5t-35 99q-8 16 -16 16q-3 0 -63 -24q-25 -6 -25 -31q0 -23 1 -71t1 -72q0 -178 -12 -353q-2 -25 -19 -42t-43 -17q-5 0 -15 2t-15 2q-6 -2 -17 -2q-31 0 -43 41 q-12 47 -17 105q-5 52 -5 90q1 4 1 8q0 41 1.5 110t1.5 101v161h-4zM203 750q0 -41 14 -41q3 0 9.5 2t9.5 2q107 36 156.5 99t49.5 173q0 28 -24.5 56t-52.5 28q-18 0 -39 -3.5t-51 -10t-39 -8.5q-23 -3 -27 -7.5t-4 -27.5l-2 -51v-211z" />
<glyph unicode="S" horiz-adv-x="729" d="M-61 311q0 37 33.5 71t70.5 34q36 0 63 -38.5t45.5 -86t26.5 -55.5q80 -72 154 -72q70 0 105.5 48.5t35.5 121.5q0 59 -18.5 118t-44 103.5t-70 97t-77 85t-85.5 81.5q-25 23 -62.5 40t-68.5 38.5t-57 65.5q-17 33 -17 69q0 48 27 82q18 20 37 55q35 58 88.5 84.5 t132.5 38.5q42 6 43 6h84q50 -1 106 -84.5t55 -136.5q0 -28 -42.5 -43.5t-79.5 -15.5q-18 0 -26 5.5t-9.5 12.5t-1.5 25q0 13 -34 28t-50 15q-25 0 -76 -39.5t-51 -60.5q0 -25 42 -61.5t71 -47.5q34 -13 69 -35.5t55.5 -39.5t57.5 -50q78 -67 127 -186t49 -228 q0 -111 -72 -192t-184 -119q-21 -7 -90 -12l-2 4q-74 -8 -109 -8q-40 0 -101.5 37t-76.5 73q-33 87 -61 133q-12 24 -12 39z" />
<glyph unicode="T" horiz-adv-x="663" d="M-43 1169q0 74 47 74q8 0 24.5 -1t24.5 -1q26 0 84 4q46 6 133.5 11t122.5 8q22 2 63 7t75 8t63 3q59 0 59 -100q0 -34 -8 -92q-150 -4 -237 -19q-23 -3 -23 -27q0 -50 5 -149.5t5 -149.5q0 -81 -12 -243.5t-12 -243.5q0 -16 4 -45t4 -45q0 -11 -8 -31q-1 -6 0.5 -19 t1.5 -16q0 -27 -21 -58.5t-47 -31.5q-22 0 -54 17.5t-38 36.5q-29 99 -29 299q0 47 3 142.5t3 143.5q3 194 3 389q0 33 -19 33q-18 0 -51.5 -6t-50.5 -6q-12 0 -37 3t-37 3q-10 0 -16 3t-8.5 10.5t-3 12t0 15.5t0.5 14q0 14 -7 26t-7 21z" />
<glyph unicode="U" horiz-adv-x="856" d="M43 608q0 545 14 598q10 41 47 41q5 0 15.5 -2t15.5 -2q10 0 30 14.5t38 14.5q19 0 31 -11t16 -33.5t5 -34.5t1 -36q0 -88 -14.5 -262.5t-14.5 -261.5q0 -51 1 -152t1 -151q0 -92 101 -193q22 -22 45 -22q36 0 61 47q64 105 74 186q28 225 29 295q2 45 2 97t-1 115t-1 97 q0 124 16 265q1 11 3 20t6 15t6.5 11t10 7.5t11 4.5t14 2.5t14 0.5h17.5h18q28 0 40 -12.5t18 -40.5q6 -31 9.5 -93t3.5 -107t-0.5 -127t-0.5 -91v-123q-4 -127 -66 -367q-21 -79 -47 -133t-75 -96q-7 -6 -30.5 -28.5t-42 -36t-34.5 -13.5q-4 0 -12 1t-12 1q-7 0 -23 -3 t-23 -3q-100 0 -177.5 57.5t-98.5 151.5q-41 171 -41 393z" />
<glyph unicode="V" horiz-adv-x="796" d="M-72 1210q0 21 11.5 42.5t31.5 21.5q6 0 17.5 -3t17.5 -3q11 0 25.5 8t29.5 8q11 0 35 -8q38 -12 47 -25t9 -53q0 -27 12 -57q48 -131 102 -408q8 -53 37 -164.5t47 -134.5q14 18 15 23q10 22 18 59q79 320 113 451q12 48 42.5 137.5t36.5 107.5q6 19 11 28.5t16 17.5 t29 8q8 0 24.5 -2t24.5 -2q55 0 55 -54q0 -21 -14.5 -79t-39 -139t-45.5 -148t-46.5 -145t-30.5 -93q-5 -18 -14.5 -56t-17.5 -67.5t-17 -54.5q-12 -36 -38.5 -106.5t-37.5 -106.5v-51q0 -43 -19 -96.5t-53 -53.5q-25 0 -48 21.5t-31 46.5q-94 244 -226 735q-8 27 -41 121 t-60.5 176t-27.5 98z" />
<glyph unicode="W" horiz-adv-x="1105" d="M35 1231q0 30 15 48.5t44 18.5q11 0 37 -3t41 -3q55 0 64 -57q26 -129 90 -485q2 -12 3 -38t4.5 -45.5t12.5 -33.5q38 20 72 63q26 28 96 56q8 4 16 4q28 0 54.5 -41t51.5 -94.5t42 -69.5q26 41 39 164q35 244 119 459q11 31 26.5 46t46.5 19q10 1 33 7.5t35 6.5 q19 0 39 -11.5t20 -29.5q0 -11 -21.5 -96.5t-46.5 -181t-30 -117.5q-9 -42 -21.5 -118.5t-17.5 -104.5q-9 -44 -29.5 -131t-29.5 -131q-28 -136 -37 -262q-4 -43 -37 -43q-20 0 -37 10q-5 3 -9.5 7t-10.5 12.5t-7 9.5q-72 118 -141 303q-42 122 -57 143q-20 -20 -60 -149.5 t-47 -145.5q-22 -54 -39 -141l-2 -6q-16 -37 -37 -37q-20 0 -33 4t-21 15t-11.5 19t-9 27.5t-8.5 28.5l6 2v10v4q-11 36 -18.5 73.5t-15 91t-11.5 75.5q-16 89 -47 268.5t-48 268.5q-5 27 -23 96t-31 127t-13 88z" />
<glyph unicode="X" horiz-adv-x="970" d="M86 1194q0 17 8.5 28.5t17.5 16t27 10t25 8.5q18 11 33 11q22 0 43 -25q23 -26 47 -65q23 -38 95 -157.5t112 -184.5q14 -21 20 -21t16 19q143 244 191 380q18 54 90 54q9 0 29 3t30 3q11 0 17 -2.5t8.5 -8.5t3 -10.5t-0.5 -14t-1 -13.5q0 -11 10.5 -27t10.5 -33 q0 -30 -115 -245t-150 -263q-20 -23 -20 -43q0 -32 83.5 -165t133.5 -201q26 -37 51 -49q12 -7 17 -14t5.5 -11.5t0.5 -21.5q0 -6 7 -24t7 -28q0 -21 -27.5 -38t-50.5 -17q-45 0 -93.5 41.5t-88 101t-74.5 119t-62 101t-40 41.5q-5 0 -17.5 -13.5t-29.5 -37.5t-34.5 -50.5 t-37.5 -58.5t-34.5 -55t-29 -47t-16.5 -27q-6 -10 -21.5 -40t-27 -49.5t-31 -37t-39.5 -17.5q-21 0 -38 19t-17 41t140.5 269t140.5 271q0 17 -50.5 92t-111.5 160t-111.5 180t-50.5 146z" />
<glyph unicode="Y" horiz-adv-x="831" d="M-8 1233q0 55 169 55h12h11q12 0 20 -4t11.5 -9.5t9.5 -17.5q45 -92 127 -280q7 -14 17.5 -45.5t17.5 -46.5q3 -8 14 -19q23 21 48 102.5t51 161t51 99.5q12 9 27.5 16t34 14.5t28.5 12.5q18 12 41 12q25 0 51.5 -11t26.5 -32q0 -45 -12 -80q-37 -93 -136 -307 q-8 -19 -20 -40.5t-28 -47.5t-23 -39q-7 -14 -13 -18q-4 -4 -7.5 -8.5t-6.5 -7.5t-5 -7.5t-3.5 -6.5t-3 -7t-2 -7t-1.5 -8.5t-1 -8.5t-1 -10t-1 -11q-31 -327 -37 -377q-6 -61 -25 -100v-7q0 -8 6 -22.5t6 -22.5q0 -19 -62 -50.5t-85 -31.5q-20 0 -20 39v21q3 70 9 149 t14.5 175t12.5 149q1 5 4 26t3 33q0 10 -7 17q-13 16 -22 32.5t-17.5 37.5t-15.5 34q-7 12 -43.5 72t-70.5 117.5t-71 124.5t-60 118t-23 72z" />
<glyph unicode="Z" horiz-adv-x="831" d="M57 82q0 35 90 188q52 104 158 308q51 91 148.5 256.5t124.5 212.5q14 28 14 40q0 20 -23 39l-8 -10q1 -19 -9 -26t-30 -7q-39 -2 -108 -2.5t-92 -1.5q-16 0 -49.5 -3t-51.5 -3q-80 0 -80 53q0 7 4 19q25 53 50.5 76.5t76.5 23.5q28 0 80.5 10t77.5 11q105 6 107 6 q18 0 50 -5t48 -5q12 0 37 5t39 5q34 0 55.5 -20.5t21.5 -55.5q0 -18 -7 -44.5t-22.5 -62.5t-30.5 -69.5t-40 -80t-41.5 -78t-44.5 -80.5l-40 -70t-37 -63.5t-27 -45.5q-13 -22 -34.5 -67t-35.5 -66q-41 -62 -55 -111q-4 -12 -8 -16q-12 -10 -18 -19.5t-11.5 -24t-9.5 -22.5 q-5 -10 -18.5 -26.5t-16.5 -22.5q-7 -18 -15 -26t-8 -13q0 -6 13 -10q18 -6 198 -16v2q25 0 77 2t77 2q22 0 30 -9.5t11 -33.5q1 -9 9.5 -28t8.5 -31q0 -25 -34 -44.5t-62 -19.5q-10 0 -27 4t-26 4q-23 0 -69 -2t-68 -2q-10 0 -31 -2t-31 -2q-17 0 -53 8q-1 3 -21 0.5 t-22 -2.5l-8 2q-18 1 -65.5 9t-76.5 8q-19 0 -30 17t-11 38zM592 131l2 2h-2v-2z" />
<glyph unicode="[" horiz-adv-x="456" d="M37 408q0 380 29 964q1 24 3 38.5t9.5 32.5t21.5 32q7 9 65.5 30t72.5 21q12 0 32 -5t31 -5q10 0 30 2t29 2q22 0 45 -19.5t23 -40.5q0 -27 -27 -35q-38 -10 -114 -22q-35 -4 -41.5 -12.5t-9.5 -47.5q-23 -255 -23 -331q0 -56 -9 -166.5t-9 -165.5q0 -79 2 -173t4.5 -162 t7 -178t6.5 -165q1 -14 1.5 -40.5t1.5 -48t3 -40.5q2 -22 7.5 -30t25.5 -11q23 -3 68 -7t67 -7q12 -1 31.5 -13t32.5 -12q4 0 11.5 1t10.5 1q17 0 17 -18q0 -24 -23.5 -58t-46.5 -34q-12 0 -37 5t-37 5q-14 0 -37 -6t-37 -6q-30 0 -86.5 13.5t-83.5 14.5q-23 1 -32.5 11 t-14.5 34q-13 105 -16 252h2q-6 399 -6 400z" />
<glyph unicode="\" horiz-adv-x="681" d="M23 1378q0 19 20 19q8 0 23 -2t22 -2q115 0 152 -117q62 -209 206 -778q60 -224 142 -457l10 -30t14.5 -47t5.5 -27q0 -17 -14 -17q-9 0 -52 15.5t-50 17.5q-18 6 -25.5 14t-15.5 27q-49 109 -150 395q-25 73 -46.5 155t-46.5 189t-38 158q-7 28 -47 148t-75 226t-35 113 z" />
<glyph unicode="]" horiz-adv-x="456" d="M-98 -223q0 18 14 18q4 0 12 -2t11 -2q13 0 32.5 12.5t32.5 14.5q22 3 66.5 7t66.5 7q21 3 27 10.5t8 28.5q1 21 3 65.5t3 65.5q19 534 19 678q0 62 -9.5 186t-9.5 187q0 55 -20 290q-3 38 -10.5 47t-41.5 13q-50 5 -116 22q-25 8 -25 35q0 20 22.5 40t43.5 20 q10 0 30.5 -2t30.5 -2q12 0 32 4t30 4q14 0 72 -20.5t67 -28.5q32 -34 35 -105q26 -592 26 -962q0 -200 -6 -400h2q-4 -170 -16 -252q-3 -25 -12.5 -34.5t-32.5 -10.5q-28 -1 -84.5 -14.5t-87.5 -13.5q-13 0 -36.5 6t-35.5 6q-14 0 -38.5 -5t-35.5 -5q-23 0 -46 34t-23 58z " />
<glyph unicode="^" horiz-adv-x="532" d="M117 1087q20 41 67 109t62 94q8 19 26 19q12 0 25 -13q7 -7 20.5 -23.5t20.5 -23.5q10 -11 45 -38.5t59.5 -51.5t24.5 -39q0 -12 -15.5 -26.5t-27.5 -14.5t-76 59.5t-72 59.5q-11 0 -42 -47t-37 -64q-12 -34 -60 -34q-11 0 -14.5 11t-1.5 23h-4z" />
<glyph unicode="_" horiz-adv-x="860" d="M43 123q0 27 13.5 44t39 23.5t44 8.5t46.5 2h506q21 0 33.5 -1t26.5 -10.5t14 -27.5q0 -8 -1 -25.5t-1 -25.5q0 -37 -32.5 -52.5t-72.5 -13.5q-96 2 -288 2q-34 0 -101.5 -2t-101.5 -2q-28 0 -39.5 0.5t-32 4t-29.5 11.5t-16.5 24t-7.5 40z" />
<glyph unicode="`" horiz-adv-x="346" d="M43 1212q0 14 34.5 35t49.5 21q5 0 9.5 -2t7 -4t7 -7t5.5 -6q9 -10 25.5 -27.5t22.5 -24.5t15.5 -21t15 -29t11.5 -37q-10 -31 -25 -31q-23 0 -43.5 14.5t-34.5 33t-36 36.5t-46 23q-18 4 -18 26z" />
<glyph unicode="a" horiz-adv-x="790" d="M10 33q0 20 7 58.5t18.5 88.5t13.5 62l76 383q6 27 39.5 206.5t58.5 270.5q9 30 45 104q14 29 35 29q24 0 42.5 -22.5t27.5 -49.5q22 -66 125 -393q12 -37 39 -120.5t42 -130t35.5 -116t36.5 -127.5q-4 -12 -4 -18q0 -11 12.5 -28.5t14.5 -26.5q8 -36 8 -84 q0 -115 -39 -115q-48 0 -79.5 32.5t-37.5 80.5q-2 10 -12.5 44.5t-24 76t-16.5 51.5q-4 12 -10 17.5t-11.5 6t-21.5 0.5q-21 0 -66.5 6.5t-68.5 6.5q-12 0 -25.5 -29.5t-24.5 -73t-17.5 -74t-10.5 -51.5q-3 -25 -27 -28q9 -27 9 -37q0 -62 -68 -62q-7 0 -21.5 -4t-21.5 -4 q-29 0 -53.5 21t-24.5 49zM297 442q0 -9 6.5 -15t18.5 -8.5t21.5 -4t24 -2t17.5 -0.5v2q2 0 10.5 -0.5t14.5 -0.5t13 1.5t11 5t4 10.5q0 12 -31.5 130.5t-37.5 125.5q-4 8 -9 8q-6 -2 -10 -10q-2 -2 -27.5 -119t-25.5 -123z" />
<glyph unicode="b" horiz-adv-x="741" d="M10 1112q0 20 11 49.5t26 32.5q14 2 21 4.5t15.5 9t16.5 11.5q21 12 101 13q9 0 29 1.5t30 1.5q98 0 196.5 -68t98.5 -161q0 -50 -26 -101.5t-57 -84t-57 -59.5t-26 -34q0 -10 12 -18q92 -78 161 -188t69 -212q0 -95 -58 -176t-146.5 -125.5t-180.5 -44.5q-47 0 -103 17 q-8 3 -24.5 14t-26.5 14q-42 15 -58 41.5t-16 73.5q0 49 3 138.5t4 111.5h2l2 133q0 100 -9.5 302t-9.5 304zM172 1051q0 -43 4 -121l2 -125q0 -41 33 -41q59 0 134 73t75 132q0 45 -31 73t-69 36.5t-82 8.5q-2 0 -15 0.5t-16.5 0t-12.5 -2.5t-12 -5.5t-6.5 -11t-3.5 -17.5z M184 211q0 -8 5.5 -23.5t5.5 -23.5q0 -2 1 -15.5t2 -21.5t4 -19t8 -16.5t13 -5.5q130 0 189 54t59 182q0 40 -13 94.5t-41.5 107t-64.5 64.5q-24 8 -71 25.5t-70 25.5q-8 4 -14 4q-13 0 -13 -51q0 -56 6.5 -167t6.5 -167q0 -9 -6.5 -23.5t-6.5 -23.5z" />
<glyph unicode="c" horiz-adv-x="718" d="M10 666q0 360 185 510q73 59 145 59q83 0 157 -78.5t74 -161.5q0 -25 -11 -43t-34 -18q-27 0 -44.5 23.5t-25.5 51t-28.5 51t-54.5 23.5q-44 0 -78 -34q-48 -51 -69 -207.5t-21 -284.5q0 -86 14.5 -234.5t38.5 -177.5q22 -28 92 -28q52 0 95.5 19.5t65.5 43t44.5 43 t38.5 19.5q17 0 27 -13t10 -30q0 -89 -94.5 -162.5t-186.5 -73.5q-54 0 -102.5 24.5t-84 66.5t-61 88.5t-43.5 99.5q-49 145 -49 424z" />
<glyph unicode="d" horiz-adv-x="792" d="M18 401q0 75 3.5 158.5t10 189.5t9.5 160q1 20 2 85t4 117.5t10 76.5q10 39 50 56.5t86 17.5q12 0 32.5 -4.5t30.5 -4.5q13 0 36 1t34 1q72 0 132.5 -49.5t99 -124t66 -164.5t39 -168.5t11.5 -138.5q0 -138 -44 -277.5t-128 -234.5q-33 -36 -61 -56.5t-66 -27.5 q-16 -3 -68 -23t-59 -20q-5 0 -14.5 3t-14.5 3q-10 0 -28.5 -8t-28.5 -8q-18 0 -58 10t-47 19q-27 34 -30 69q-9 169 -9 342zM219.5 152q0.5 -5 2.5 -11t9 -8t19 -2q51 0 110 45q22 15 55.5 44t41.5 42q10 18 18 39.5t13.5 49t10 49.5t7 56.5t4 53.5t2 58t0.5 52v52.5v44.5 q0 37 -14 84q-42 125 -70 172q-63 106 -166 106q-16 0 -20 -5.5t-6 -20.5q-11 -115 -11 -445q0 -69 -2 -210t-2 -212q0 -7 -1 -18t-0.5 -16z" />
<glyph unicode="e" horiz-adv-x="677" d="M20 569q0 107 23 445q1 11 2.5 46.5t3 53.5t6 46t11.5 50q11 33 49 33q180 10 219 10q10 0 21 -1t24.5 -2.5t21.5 -2.5q5 0 38 -1t51 -4t43.5 -10t38 -22.5t12.5 -38.5q0 -19 -15 -35t-34 -16q-4 0 -14 2t-15 2q-21 0 -60.5 -15t-62.5 -15q-11 0 -34 3t-34 3 q-25 0 -79 -4q-15 -2 -14 -23q0 -164 3 -246q0 -24 4.5 -28t30.5 -4h49q73 -2 101 -23.5t28 -93.5q0 -23 -18.5 -39t-40.5 -16q-21 0 -64 6t-65 6q-24 0 -27 -25q-1 -21 -3 -65.5t-3 -65.5q-1 -23 -7.5 -125t-6.5 -157q0 -6 1 -10.5t2 -7t5 -4t5 -2t8 -2t9 -1.5 q20 -3 77.5 -13.5t88.5 -13.5q15 -1 42 0.5t36 1.5q64 0 83 -13q15 -11 15 -30q0 -10 -8 -24t-8 -23q0 -4 2 -12.5t2 -13.5q0 -22 -27 -32.5t-55 -10.5q-13 0 -32.5 8t-30.5 8q-105 0 -297 -12q-5 0 -15.5 -2t-15.5 -2q-26 0 -36.5 28.5t-14.5 67.5t-12 51q-7 27 -7 436z " />
<glyph unicode="f" horiz-adv-x="626" d="M2 1192v6q-1 44 17 56t65 14v-2q16 2 53 6.5t64 7t53 2.5q18 0 51 -2t51 -2q11 0 34.5 2t35.5 2q38 0 57 -24t19 -62q0 -4 3 -13t3 -14q0 -25 -23.5 -47t-48.5 -22q-7 0 -20 1t-19 1q-30 0 -174 -21q-15 -1 -20.5 -8t-5.5 -22q0 -51 19.5 -153.5t19.5 -154.5 q0 -22 18 -22q20 0 58.5 4t56.5 4q22 0 43.5 -24.5t21.5 -47.5q0 -10 -8 -22.5t-10 -18.5q-3 -19 -15.5 -31t-33 -17.5t-37.5 -7.5t-42.5 -3t-35.5 -2q-25 -3 -25 -27q-8 -123 -10 -180q-2 -22 -3.5 -79.5t-4.5 -88.5q-1 -17 -14 -29t-26 -19t-13 -11q2 -6 19.5 -21.5 t17.5 -33.5q0 -26 -26.5 -38t-55.5 -12q-7 0 -22.5 -2t-22.5 -2q-54 0 -54 121q0 98 5.5 295t5.5 297q0 86 -9.5 244.5t-11.5 222.5z" />
<glyph unicode="g" horiz-adv-x="823" d="M33 500q0 132 31 296.5t83 262.5q139 256 334 256q44 0 101 -59t57 -105q0 -24 -19 -50t-42 -26q-6 0 -26 16t-47 32t-52 16q-19 0 -41 -15q-137 -98 -156 -231q-37 -253 -37 -406q0 -10 -1 -57v-40v-28q1 -21 5 -58t15 -63.5t28 -47.5q47 -58 105 -58q36 0 64 10 t47 25.5t32 41t20 49t11 57.5t5 58t1 58q0 16 -5.5 22.5t-21.5 6.5t-46 -3t-46 -3q-30 0 -54 25t-24 55t28 44.5t64 17t81 8.5t69 18q16 8 27 8q18 0 31.5 -16.5t13.5 -34.5q0 -6 -4.5 -16.5t-4.5 -16.5t8 -13.5t9 -15.5q8 -66 8 -98q0 -16 -3 -45t-3 -45q0 -21 3 -64.5 t3 -66.5q0 -95 -53.5 -145t-151.5 -72q-82 -21 -117 -21q-58 0 -102 33q-60 44 -100 92q-58 66 -92.5 188.5t-34.5 223.5z" />
<glyph unicode="h" horiz-adv-x="882" d="M27 453v98q2 65 2.5 213t5 258t16.5 213q4 37 20.5 51t53.5 14q13 0 33.5 7.5t29.5 7.5q23 0 38.5 -33t15.5 -59q0 -59 -6.5 -178t-6.5 -179q0 -35 21 -35q10 0 35 5q69 12 237 12q12 0 16.5 6t6.5 20q1 15 5.5 105t11 158.5t16.5 91.5q12 33 34 33q7 0 20.5 -5.5 t20.5 -5.5t19.5 4.5t19.5 4.5q51 0 50 -166q0 -344 -29 -684q-5 -51 -14.5 -155t-14.5 -155q-1 -2 -1 -6t-0.5 -7.5t-3 -6t-5.5 -2.5q-1 0 -25 6q19 -51 19 -66q0 -26 -36 -38.5t-69 -12.5q-29 0 -42 58t-13 104q0 85 12 254.5t12 253.5q0 22 -16 22q-126 0 -227 -16 q-35 -5 -43 -12t-8 -39v-238q0 -39 -9 -172q-1 -4 -1.5 -27t-2.5 -41t-6 -18t-18 7t-19 8q4 -7 13.5 -22.5t14.5 -28t5 -25.5q0 -28 -41 -50t-72 -22q-26 0 -42.5 20t-18.5 48q-14 197 -14 422z" />
<glyph unicode="i" horiz-adv-x="428" d="M70 446q0 50 4.5 143.5t5.5 129.5q6 164 6 493q0 30 11 54t38 24q10 0 41.5 -13.5t40.5 -21.5q14 -12 29 -57q16 -44 16 -567v-189v-366q-3 -58 -72 -58q-14 0 -25.5 8.5t-17.5 8.5q-4 0 -10.5 -3t-9.5 -3q-12 0 -21.5 17.5t-9.5 31.5q0 12 5 21.5t13.5 20.5t12.5 19 q-27 5 -33 15q-10 16 -17 126.5t-7 165.5z" />
<glyph unicode="j" horiz-adv-x="749" d="M12 305q0 32 14 55t44 23q39 0 62 -27.5t33 -66.5t19.5 -78t31 -66.5t58.5 -27.5q31 0 50 23t24.5 49t5.5 55q0 299 -26 782q0 21 -19 21q-25 0 -77.5 -7.5t-79.5 -7.5q-25 0 -35 11.5t-15 37.5q-2 13 -9 42t-11 52t-4 42q0 3 1 7.5t1 6.5q12 38 76 47q169 27 338 27 q222 0 243 -27q8 -11 15.5 -45.5t7.5 -52.5q0 -31 -18 -58.5t-48 -27.5q-12 0 -32 10t-31 10q-9 0 -15 -6.5t-8.5 -15t-8.5 -15t-15 -6.5q-5 0 -14.5 4t-14.5 4q-17 0 -24 -17.5t-7 -37.5l-8 -547q-1 -49 -2.5 -81.5t-7.5 -90t-15.5 -97.5t-28 -88t-43.5 -77.5t-63 -49.5 t-86 -20q-59 0 -102.5 15t-69.5 38t-43.5 64t-25.5 80t-15 98q0 6 -1 18.5t-1 18.5z" />
<glyph unicode="k" horiz-adv-x="792" d="M31 535q0 165 8 489q0 11 1 47t1.5 54.5t3.5 46.5t8 49q3 12 6 19t5 12t8 7.5t9 3.5t15 2.5t19 2.5q18 12 43 12q76 0 88 -27q11 -26 14 -72q2 -25 2 -59q0 -28 -2 -62q-2 -75 -2 -81q0 -9 1 -18.5t2.5 -21.5t2.5 -19q20 0 43 28q124 142 162 189q25 32 68 112 q23 41 51 41q32 0 57 -17.5t25 -47.5q0 -10 -7.5 -29t-22 -44t-25.5 -43.5t-27 -43.5t-19 -29q-6 -10 -22 -36.5t-24.5 -40t-23 -34t-29 -36.5t-30.5 -31q-10 -8 -28.5 -29.5t-18.5 -29.5q0 -5 29 -54t62.5 -105t39.5 -67q41 -78 107.5 -242t66.5 -216q0 -30 -8 -43t-35 -13 q-40 0 -72.5 23.5t-50.5 60.5q-26 54 -67 155t-79.5 181t-84.5 144q-6 10 -16 14q-6 -11 -9 -38.5t-3 -50t0.5 -57.5t0.5 -40q0 -25 -8 -78t-8 -80q0 -5 1 -17t1 -18q0 -5 -1 -14.5t-1 -14.5q0 -15 5 -45t5 -45q0 -55 -46.5 -94t-102.5 -39q-82 0 -82 86q0 74 -3 222t-3 221 z" />
<glyph unicode="l" horiz-adv-x="657" d="M49 698q0 387 31 514q6 23 18 34t35 14q14 2 47.5 12t50.5 10q24 0 36 -15t12 -40q0 -19 -16.5 -76.5t-16.5 -99.5q0 -31 2 -96t2 -97q0 -104 -5 -310t-5 -308v-14.5v-12.5t1 -9.5t3 -8.5t6 -4.5t10.5 -3.5t15.5 -1q20 0 61 2t62 2q103 5 125 5q8 0 16 -2t17.5 -7 t14 -7.5t15.5 -11t13 -9.5q12 -18 12 -43q0 -42 -24 -65t-66 -23q-12 0 -29.5 6t-25.5 6q-17 0 -23 -12q-16 -7 -96 -7q-14 0 -44 2.5t-44 2.5q-21 0 -58.5 -9.5t-56.5 -9.5q-28 0 -51.5 11t-23.5 36q0 8 5 25t5 26v5q-1 95 -16 291t-15 298z" />
<glyph unicode="m" horiz-adv-x="1079" d="M51 1135q0 30 24.5 49.5t55.5 19.5q41 0 164.5 -138.5t153.5 -203.5q2 -5 8 -24.5t12.5 -33t13.5 -16.5q8 -4 15 -4q12 0 20 15q8 13 43 58t45 75q4 10 10.5 19.5t16 20t14.5 17.5q11 15 25 50.5t28 54.5q8 11 24 30t26.5 35t17.5 35q6 15 15.5 21.5t16.5 7t27 0.5 q11 0 30 13t38 13q24 0 36.5 -39.5t12.5 -72.5q0 -87 -1 -261.5t-1 -261.5q0 -47 -3 -142t-3 -142q0 -72 -4 -107q-1 -9 -12 -32t-11 -29q0 -12 6.5 -35.5t6.5 -34.5q0 -36 -7 -54.5t-16 -22.5t-25.5 -9.5t-27.5 -13.5q-29 -21 -51 -21q-31 0 -44.5 28t-13.5 62 q0 87 -9.5 251.5t-10.5 189.5q-2 37 -3 109t-3 108q0 14 -6 22q-16 0 -46 -38.5t-61.5 -76.5t-52.5 -38q-3 0 -10 1t-11 1t-21 -9.5t-32 -9.5q-25 0 -54.5 28.5t-52 64.5t-51 73.5t-49.5 50.5q-10 -16 -10 -49q0 -3 6 -180q1 -22 7.5 -60.5t8.5 -54.5q11 -157 11 -172 q0 -44 -4 -67q-1 -10 -15 -35t-14 -59q0 -22 16 -41l2 -13q-12 0 -12 -12q0 -4 3 -12.5t3 -12.5q0 -51 -94 -51q-33 0 -55.5 15.5t-22.5 46.5q0 7 5 21.5t5 21.5q0 9 -9.5 20t-10.5 29q-20 383 -27 926q0 15 -3 43t-3 43z" />
<glyph unicode="n" horiz-adv-x="987" d="M31 1139q0 26 19.5 52.5t43.5 35.5h15q13 0 39 4t40 4q22 0 54 -37q11 -15 21.5 -30t21.5 -32.5t18.5 -30.5t19 -34t17 -31.5t17.5 -35t16 -32.5t17 -35.5t16 -33.5q12 -24 227 -465q21 -41 29 -41l8 2q-4 37 -4 115q0 32 4.5 90.5t5.5 81.5q1 24 3.5 147t6.5 224.5 t10 122.5q14 34 45 34q26 0 40 -1.5t28.5 -8.5t20.5 -22t6 -41q0 -47 -5.5 -142.5t-5.5 -142.5v-623q0 -17 7.5 -45.5t7.5 -42.5q0 -41 -9 -63q5 -10 5 -16q0 -10 -9.5 -30.5t-11.5 -29.5q-4 -14 -23 -23.5t-36 -9.5q-31 0 -62.5 27.5t-42.5 58.5q-3 6 -8 11q-23 9 -59 59.5 t-79.5 129t-76.5 142.5t-71.5 142.5t-43.5 87.5q-9 17 -15.5 35.5t-14 41t-11.5 35.5q-15 15 -18 17q-7 -11 -10 -19q-4 -25 -5 -56q-1 -21 -1 -44v-23v-55q0 -22 -3.5 -117.5t-3.5 -146.5q0 -61 17 -182q1 -9 7.5 -28t6.5 -30q0 -13 -14 -27t-29 -22q-9 -4 -36 -25.5 t-42 -21.5t-26 8.5t-17.5 25t-10 29.5t-7 34t-4.5 26h4q-4 30 -8 43q-14 70 -20.5 169t-6.5 172.5t2 192.5t2 164q0 104 -6 209q-1 14 -6.5 49.5t-5.5 53.5z" />
<glyph unicode="o" horiz-adv-x="794" d="M18 492q0 130 15 253q7 70 34.5 152t71 160.5t110 131t140.5 52.5q47 0 71.5 -14t55.5 -53q96 -118 134 -257t38 -311q0 -86 -17.5 -220.5t-45.5 -174.5q-29 -17 -29 -70q0 -6 -4 -14q-79 -137 -195 -150q-3 0 -38 -6t-52 -6q-71 0 -134 66.5t-97 149t-41 151.5 q-2 16 -7 50.5t-7.5 60.5t-2.5 49zM236 571q0 -27 16 -164t22 -151q27 -80 70 -131q16 -21 25 -21q7 0 21.5 18t31 44t18.5 29q37 44 58.5 85t30.5 93t10.5 86.5t1.5 107.5v127l-2 2q-4 58 -11 101.5t-23.5 93.5t-49 87t-80.5 60q-18 6 -21 6q-19 0 -52.5 -68t-33.5 -93 q0 -3 1 -10.5t1 -10.5q0 -24 -14 -75t-14 -78q0 -3 1 -11t1 -12q0 -20 -4 -58t-4 -57z" />
<glyph unicode="p" horiz-adv-x="698" d="M10 733q0 21 2 31q11 76 11 166q0 165 2 198q1 23 10 33.5t31 16.5q188 57 204 57q9 0 29 -4q6 -2 51 -11t68 -18q93 -36 145.5 -116t52.5 -181q0 -70 -29 -132.5t-79 -109t-107.5 -81t-124.5 -58.5q-5 -2 -9 -4t-7 -5.5t-5 -6t-3.5 -7.5t-2 -7t-1 -8.5t-0.5 -8.5v-10 v-10q0 -52 5 -158.5t5 -159.5q0 -17 -12 -24l-6 -11q4 -12 4 -16q0 -6 -4 -19.5t-4 -19.5q0 -5 3 -13.5t3 -12.5q0 -23 -56.5 -41.5t-87.5 -18.5q-9 0 -16 2.5t-11.5 8.5t-8 12t-5.5 15.5t-3.5 16.5t-2 18.5t-0.5 17v17v13.5h2q-43 402 -43 649zM217 1040q0 -67 27 -321 q5 -29 20 -29q38 0 75 45.5t57.5 93.5t31.5 91q-3 7 -6.5 22t-8 26.5t-10.5 20.5q-54 70 -170 70q-16 0 -16 -19z" />
<glyph unicode="q" horiz-adv-x="823" d="M6 627q0 117 32.5 225t94.5 231q33 64 121 131q66 48 129 48q53 0 86 -23q64 -40 110 -110.5t68.5 -155t32.5 -163.5t10 -161q0 -107 -26 -234t-72 -206q-10 -15 -10 -23q0 -12 60 -65.5t60 -75.5q0 -19 -19 -37t-38 -18q-26 0 -57 27.5t-54 55t-32 27.5q-7 0 -37 -18 q-40 -27 -133 -27q-72 0 -130.5 41t-93.5 103.5t-59 141.5t-33.5 150.5t-9.5 135.5zM229 559q0 -85 15 -170q1 -5 4.5 -22t3.5 -27q0 -13 -6 -25q0 -8 8 -25.5t20 -39t15 -29.5q19 -57 82 -57q14 0 21 0.5t15.5 6.5t8.5 17q0 7 -37 54t-37 71q0 23 17.5 43.5t39.5 20.5 q18 0 30.5 -10.5t24.5 -26.5t23 -23q7 7 10 17q8 23 16.5 167t8.5 201q0 130 -78 279q-13 27 -63 63q-9 9 -17 9q-12 0 -39.5 -74.5t-35.5 -106.5q-50 -155 -50 -313z" />
<glyph unicode="r" horiz-adv-x="768" d="M27 612v514q0 63 71 66q32 2 96 22.5t101 20.5q9 0 27.5 -2t27.5 -2t29 2t29 2q58 0 106 -49t72 -112.5t24 -119.5q0 -58 -16 -104t-38 -72.5t-44.5 -45.5t-38.5 -32t-16 -22q0 -15 6 -27q9 -31 29.5 -94.5t29.5 -95.5q38 -156 49 -197q6 -19 15.5 -55.5t16 -58.5t19 -52 t27.5 -55q8 -16 8 -27q0 -53 -82 -53q-40 0 -78 71.5t-46 123.5q-3 15 -35 108q-11 34 -30 101.5t-36 121.5t-35 99q-8 16 -16 16q-3 0 -63 -24q-25 -6 -25 -31q0 -23 1 -71t1 -72q0 -178 -12 -353q-2 -25 -19 -42t-43 -17q-5 0 -15 2t-15 2q-6 -2 -17 -2q-31 0 -43 41 q-12 47 -17 105q-5 52 -5 90q1 4 1 8q0 41 1.5 110t1.5 101v161h-4zM203 750q0 -41 14 -41q3 0 9.5 2t9.5 2q107 36 156.5 99t49.5 173q0 28 -24.5 56t-52.5 28q-18 0 -39 -3.5t-51 -10t-39 -8.5q-23 -3 -27 -7.5t-4 -27.5l-2 -54v-208z" />
<glyph unicode="s" horiz-adv-x="729" d="M-61 311q0 37 33.5 71t70.5 34q36 0 63 -38.5t45.5 -86t26.5 -55.5q80 -72 154 -72q70 0 105.5 48.5t35.5 121.5q0 59 -18.5 118t-44 103.5t-70 97t-77 85t-85.5 81.5q-25 23 -62.5 40t-68.5 38.5t-57 65.5q-17 33 -17 69q0 48 27 82q18 20 37 55q35 58 88.5 84.5 t132.5 38.5q42 6 43 6h84q50 -1 106 -84.5t55 -136.5q0 -28 -42.5 -43.5t-79.5 -15.5q-18 0 -26 5.5t-9.5 12.5t-1.5 25q0 13 -34 28t-50 15q-25 0 -76 -39.5t-51 -60.5q0 -25 42 -61.5t71 -47.5q34 -13 69 -35.5t55.5 -39.5t57.5 -50q78 -67 127 -186t49 -228 q0 -111 -72 -192t-184 -119q-21 -7 -90 -12l-2 4q-74 -8 -109 -8q-40 0 -101.5 37t-76.5 73q-33 87 -61 133q-12 24 -12 39z" />
<glyph unicode="t" horiz-adv-x="663" d="M-43 1169q0 74 47 74q8 0 24.5 -1t24.5 -1q26 0 84 4q46 6 133.5 11t122.5 8q22 2 63 7t75 8t63 3q59 0 59 -100q0 -34 -8 -92q-150 -4 -237 -19q-23 -3 -23 -27q0 -50 5 -149.5t5 -149.5q0 -81 -12 -243.5t-12 -243.5q0 -16 4 -45t4 -45q0 -11 -8 -31q-1 -6 0.5 -18.5 t1.5 -16.5q0 -27 -21 -58.5t-47 -31.5q-22 0 -54 17.5t-38 36.5q-29 99 -29 299q0 47 3 142.5t3 143.5q3 194 3 389q0 33 -19 33q-18 0 -51.5 -6t-50.5 -6q-12 0 -37 3t-37 3q-10 0 -16 3t-8.5 10.5t-3 12t0 15.5t0.5 14q0 14 -7 26t-7 21z" />
<glyph unicode="u" horiz-adv-x="856" d="M43 608q0 545 14 598q10 41 47 41q5 0 15.5 -2t15.5 -2q10 0 30 14.5t38 14.5q19 0 31 -11t16 -33.5t5 -34.5t1 -36q0 -88 -14.5 -262.5t-14.5 -261.5q0 -51 1 -152t1 -151q0 -92 101 -193q22 -22 45 -22q36 0 61 47q64 105 74 186q28 225 29 295q2 45 2 97t-1 115t-1 97 q0 124 16 265q1 11 3 20t6 15t6.5 11t10 7.5t11 4.5t14 2.5t14 0.5h17.5h18q28 0 40 -12.5t18 -40.5q6 -31 9.5 -93t3.5 -107t-0.5 -127t-0.5 -91v-123q-4 -127 -66 -367q-21 -79 -47 -133t-75 -96q-7 -6 -30.5 -28.5t-42 -36t-34.5 -13.5q-4 0 -12 1t-12 1q-7 0 -23 -3 t-23 -3q-100 0 -177.5 57.5t-98.5 151.5q-41 171 -41 393z" />
<glyph unicode="v" horiz-adv-x="796" d="M-72 1210q0 21 11.5 42.5t31.5 21.5q6 0 17.5 -3t17.5 -3q11 0 25.5 8t29.5 8q11 0 35 -8q38 -12 47 -25t9 -53q0 -27 12 -57q48 -131 102 -408q8 -53 37 -164.5t47 -134.5q14 18 15 23q10 22 18 59q79 320 113 451q12 48 42.5 137.5t36.5 107.5q6 19 11 28.5t16 17.5 t29 8q8 0 24.5 -2t24.5 -2q55 0 55 -54q0 -21 -14.5 -79t-39 -139t-45.5 -148t-46.5 -145t-30.5 -93q-5 -18 -14.5 -56t-17.5 -67.5t-17 -54.5q-12 -36 -38.5 -106.5t-37.5 -106.5v-51q0 -43 -19 -96.5t-53 -53.5q-25 0 -48 21.5t-31 46.5q-94 244 -226 735q-8 27 -41 121 t-60.5 176t-27.5 98z" />
<glyph unicode="w" horiz-adv-x="1105" d="M35 1231q0 30 15 48.5t44 18.5q11 0 37 -3t41 -3q55 0 64 -57q26 -129 90 -485q2 -12 3 -38t4.5 -45.5t12.5 -33.5q38 20 72 63q26 28 96 56q8 4 16 4q28 0 54.5 -41t51.5 -94.5t42 -69.5q26 41 39 164q35 244 119 459q11 31 26.5 46t46.5 19q10 1 33 7.5t35 6.5 q19 0 39 -11.5t20 -29.5q0 -11 -21.5 -96.5t-46.5 -181t-30 -117.5q-9 -42 -21.5 -118.5t-17.5 -104.5q-9 -44 -29.5 -131t-29.5 -131q-28 -136 -37 -262q-4 -43 -37 -43q-20 0 -37 10q-5 3 -9.5 7t-10.5 12.5t-7 9.5q-72 118 -141 303q-42 122 -57 143q-20 -20 -60 -149.5 t-47 -145.5q-22 -54 -39 -141l-2 -6q-16 -37 -37 -37q-20 0 -33 4t-21 15t-11.5 19t-9 27.5t-8.5 28.5l6 2v10v4q-11 36 -18.5 73.5t-15 91t-11.5 75.5q-16 89 -47 268.5t-48 268.5q-5 27 -23 96t-31 127t-13 88z" />
<glyph unicode="x" horiz-adv-x="970" d="M86 1194q0 17 8.5 28.5t17.5 16t27 10t25 8.5q18 11 33 11q22 0 43 -25q23 -26 47 -65q23 -38 95 -157.5t112 -184.5q14 -21 20 -21t16 19q143 244 191 380q18 54 90 54q9 0 29 3t30 3q11 0 17 -2.5t8.5 -8.5t3 -10.5t-0.5 -14t-1 -13.5q0 -11 10.5 -27t10.5 -33 q0 -30 -115 -245t-150 -263q-20 -23 -20 -43q0 -32 83.5 -165t133.5 -201q26 -37 51 -49q12 -7 17 -14t5.5 -11.5t0.5 -21.5q0 -6 7 -24t7 -28q0 -21 -27.5 -38t-50.5 -17q-45 0 -93.5 41.5t-88 101t-74.5 119t-62 101t-40 41.5q-5 0 -17.5 -13.5t-29.5 -37.5t-34.5 -50.5 t-37.5 -58.5t-34.5 -55t-29 -47t-16.5 -27q-6 -10 -21.5 -40t-27 -49.5t-31 -37t-39.5 -17.5q-21 0 -38 19t-17 41t140.5 269t140.5 271q0 17 -50.5 92t-111.5 160t-111.5 180t-50.5 146z" />
<glyph unicode="y" horiz-adv-x="831" d="M-8 1233q0 55 169 55h12h11q12 0 20 -4t11.5 -9.5t9.5 -17.5q45 -92 127 -280q7 -14 17.5 -45.5t17.5 -46.5q3 -8 14 -19q23 21 48 102.5t51 161t51 99.5q12 9 27.5 16t34 14.5t28.5 12.5q18 12 41 12q25 0 51.5 -11t26.5 -32q0 -45 -12 -80q-37 -93 -136 -307 q-8 -19 -20 -40.5t-28 -47.5t-23 -39q-7 -14 -13 -18q-4 -4 -7.5 -8.5t-6.5 -7.5t-5 -7.5t-3.5 -6.5t-3 -7t-2 -7t-1.5 -8.5t-1 -8.5t-1 -10t-1 -11q-31 -327 -37 -377q-6 -61 -25 -100v-7q0 -8 6 -22.5t6 -22.5q0 -19 -62 -50.5t-85 -31.5q-20 0 -20 39v21q3 70 9 149 t14.5 175t12.5 149q1 5 4 26t3 33q0 10 -7 17q-13 16 -22 32.5t-17.5 37.5t-15.5 34q-7 12 -43.5 72t-70.5 117.5t-71 124.5t-60 118t-23 72z" />
<glyph unicode="z" horiz-adv-x="831" d="M57 82q0 35 90 188q52 104 158 308q51 91 148.5 256.5t124.5 212.5q14 28 14 40q0 20 -23 39l-8 -10q1 -19 -9 -26t-30 -7q-39 -2 -108 -2.5t-92 -1.5q-16 0 -49.5 -3t-51.5 -3q-80 0 -80 53q0 7 4 19q25 53 50.5 76.5t76.5 23.5q28 0 80.5 10t77.5 11q105 6 107 6 q18 0 50 -5t48 -5q12 0 37 5t39 5q34 0 55.5 -20.5t21.5 -55.5q0 -18 -7 -44.5t-22.5 -62.5t-30.5 -69.5t-40 -80t-41.5 -78t-44.5 -80.5l-40 -70t-37 -63.5t-27 -45.5q-13 -22 -34.5 -67t-35.5 -66q-41 -62 -55 -111q-4 -12 -8 -16q-12 -10 -18 -19.5t-11.5 -24t-9.5 -22.5 q-5 -10 -18.5 -26.5t-16.5 -22.5q-7 -18 -15 -26t-8 -13q0 -6 13 -10q18 -6 198 -16v2q25 0 77 2t77 2q22 0 30 -9.5t11 -33.5q1 -9 9.5 -28t8.5 -31q0 -25 -34 -44.5t-62 -19.5q-10 0 -27 4t-26 4q-23 0 -69 -2t-68 -2q-10 0 -31 -2t-31 -2q-17 0 -53 8q-1 3 -21 0.5 t-22 -2.5l-8 2q-18 1 -65.5 9t-76.5 8q-19 0 -30 17t-11 38zM592 131l2 2h-2v-2z" />
<glyph unicode="{" horiz-adv-x="528" d="M37 1190q0 70 56 128.5t134 100.5q9 6 30.5 11t25.5 6q6 1 37 10.5t34 9.5q12 0 40 -38.5t28 -53.5q0 -26 -22.5 -43.5t-49 -26.5t-49 -29.5t-22.5 -52.5t40.5 -108.5t40.5 -120.5q0 -12 -5.5 -37t-4.5 -37q0 -4 1 -12t1 -12q0 -34 -15 -75t-30.5 -67.5t-15.5 -27.5 q0 -9 18.5 -33t40 -52.5t40 -74.5t18.5 -92q0 -49 -12 -108.5t-24.5 -99.5t-35.5 -103q-8 -24 -8 -58q0 -42 16.5 -81t36.5 -61.5t36.5 -40t16.5 -22.5q0 -22 -33 -44.5t-55 -22.5q-25 0 -53 14q-74 31 -112.5 109.5t-30.5 163.5h-7q6 29 19.5 90t21.5 97.5t14.5 88.5 t6.5 96q0 51 -16 85.5t-38.5 50.5t-45 26t-38.5 20.5t-16 26.5q0 13 34.5 45t69.5 67.5t35 57.5q0 21 -38 76t-76.5 125.5t-38.5 128.5z" />
<glyph unicode="|" horiz-adv-x="681" d="M195 371q0 77 6 164t16 193.5t14 164.5q5 82 5 293q0 30 -2.5 92t-2.5 94q0 48 11 63t55 21q8 1 21 4.5t24.5 5.5t22.5 2q67 0 67 -84q0 -126 -7.5 -262t-24.5 -344.5t-21 -261.5q-5 -66 -7.5 -148.5t-3 -125t0 -156.5t0.5 -133q0 -17 -0.5 -24t-3.5 -22t-11 -21.5 t-22 -6.5t-44 3t-44 3q-12 0 -18 4.5t-8 10.5t-3 20q-20 163 -20 451z" />
<glyph unicode="}" horiz-adv-x="528" d="M47 -143q0 5 26.5 31t53.5 72.5t27 100.5q0 25 -11 58q-1 4 -10.5 32.5t-12 35.5t-10.5 32.5t-10.5 36t-8.5 33t-8 36.5t-5.5 33.5t-4.5 37t-1 34.5q0 47 18 93t40 74t40 53t18 34l-15 27q-15 27 -29.5 68t-14.5 75q0 5 1 15.5t1 15.5q0 10 -6 31.5t-6 33.5 q0 45 42 121.5t42 108.5q0 26 -15 44.5t-36 28.5t-42 19.5t-36 24.5t-15 36q0 14 28 52t38 38q12 0 72 -20q49 -11 55 -14q190 -106 190 -232q0 -44 -24 -98.5t-52.5 -95t-52.5 -79.5t-24 -57q0 -22 35.5 -57t70.5 -67t35 -46q0 -16 -16 -26.5t-38.5 -20.5t-45 -25.5 t-38.5 -50t-16 -85.5q0 -56 8.5 -114.5t27.5 -143t24 -113.5l-6 -2q2 -8 2 -25q0 -57 -23 -115.5t-69.5 -101.5t-104.5 -43q-23 0 -55.5 22.5t-32.5 43.5z" />
<glyph unicode="&#xad;" d="M100 610q0 81 84 78v2h291q44 0 41 -41v-55q0 -30 -15 -49t-44 -19q-110 4 -166 4q-21 0 -60.5 -2t-58.5 -2q-6 0 -14 1t-18 2.5t-15 2.5q-25 20 -25 78z" />
<glyph unicode="&#x2000;" horiz-adv-x="763" />
<glyph unicode="&#x2001;" horiz-adv-x="1526" />
<glyph unicode="&#x2002;" horiz-adv-x="763" />
<glyph unicode="&#x2003;" horiz-adv-x="1526" />
<glyph unicode="&#x2004;" horiz-adv-x="508" />
<glyph unicode="&#x2005;" horiz-adv-x="381" />
<glyph unicode="&#x2006;" horiz-adv-x="254" />
<glyph unicode="&#x2007;" horiz-adv-x="254" />
<glyph unicode="&#x2008;" horiz-adv-x="190" />
<glyph unicode="&#x2009;" horiz-adv-x="305" />
<glyph unicode="&#x200a;" horiz-adv-x="84" />
<glyph unicode="&#x2010;" d="M100 610q0 81 84 78v2h291q44 0 41 -41v-55q0 -30 -15 -49t-44 -19q-110 4 -166 4q-21 0 -60.5 -2t-58.5 -2q-6 0 -14 1t-18 2.5t-15 2.5q-25 20 -25 78z" />
<glyph unicode="&#x2011;" d="M100 610q0 81 84 78v2h291q44 0 41 -41v-55q0 -30 -15 -49t-44 -19q-110 4 -166 4q-21 0 -60.5 -2t-58.5 -2q-6 0 -14 1t-18 2.5t-15 2.5q-25 20 -25 78z" />
<glyph unicode="&#x2012;" d="M100 610q0 81 84 78v2h291q44 0 41 -41v-55q0 -30 -15 -49t-44 -19q-110 4 -166 4q-21 0 -60.5 -2t-58.5 -2q-6 0 -14 1t-18 2.5t-15 2.5q-25 20 -25 78z" />
<glyph unicode="&#x2013;" horiz-adv-x="1272" d="M100 610q0 81 207 78v2h716q108 0 101 -41v-55q0 -30 -37 -49t-109 -19q-270 4 -408 4q-52 0 -149 -2t-144 -2q-15 0 -34.5 1t-44 2.5t-36.5 2.5q-62 20 -62 78z" />
<glyph unicode="&#x2014;" horiz-adv-x="2295" d="M100 610q0 81 413 78v2h1432q217 0 202 -41v-55q0 -30 -74 -49t-216 -19q-542 4 -817 4q-103 0 -297.5 -2t-288.5 -2q-29 0 -68.5 1t-88.5 2.5t-74 2.5q-123 20 -123 78z" />
<glyph unicode="&#x202f;" horiz-adv-x="305" />
<glyph unicode="&#x205f;" horiz-adv-x="381" />
<glyph unicode="&#x25fc;" horiz-adv-x="1269" d="M0 0v1270h1270v-1270h-1270z" />
</font>
</defs>
</svg>
