<?xml version="1.0" standalone="no"?>
<!DOCTYPE svg PUBLIC "-//W3C//DTD SVG 1.1//EN" "http://www.w3.org/Graphics/SVG/1.1/DTD/svg11.dtd" >
<svg xmlns="http://www.w3.org/2000/svg" xmlns:xlink="http://www.w3.org/1999/xlink" version="1.1">
<metadata></metadata>
<defs>
<font id="safina_scriptregular" horiz-adv-x="593" >
<font-face units-per-em="2048" ascent="1638" descent="-410" />
<missing-glyph horiz-adv-x="573" />
<glyph horiz-adv-x="0" />
<glyph unicode="&#xd;" horiz-adv-x="573" />
<glyph horiz-adv-x="0" />
<glyph horiz-adv-x="0" />
<glyph unicode=" "  horiz-adv-x="573" />
<glyph unicode="&#x09;" horiz-adv-x="573" />
<glyph unicode="&#xa0;" horiz-adv-x="573" />
<glyph unicode="!" horiz-adv-x="393" d="M72 290.5q0 14.5 1 34t3 52.5q12 203 59 332q55 154 158 182q12 4 16 -8t-10 -17q-2 0 -3 -1t-3 -1t-2 -1t-2 -1q-47 -29 -72 -160q-10 -55 -15 -125.5t-7 -156.5q-2 -147 6 -223t8 -78q0 -10 -8 -13q-2 0 -29.5 -7t-52.5 -7h-8q-14 2 -19.5 15.5t-9.5 29.5t-5 37t-3 49 q0 25 -1 39t-1 28.5zM104 -37q0 33 16.5 51.5t43.5 18.5q29 0 46 -18.5t17 -51.5q0 -31 -17 -50t-46 -19q-27 0 -43.5 19t-16.5 50z" />
<glyph unicode="&#x22;" horiz-adv-x="571" d="M117 817q0 33 16.5 51.5t42.5 18.5q29 0 46.5 -18.5t17.5 -51.5q0 -16 -5.5 -57t-13.5 -84t-19.5 -76t-25.5 -33q-12 0 -23.5 33t-19.5 76t-12 84t-4 57zM315 817q0 33 16.5 51.5t43.5 18.5q29 0 46 -18.5t17 -51.5q0 -16 -5 -57t-13 -84t-19.5 -76t-25.5 -33 q-12 0 -23.5 33t-19.5 76t-12.5 84t-4.5 57z" />
<glyph unicode="#" horiz-adv-x="948" d="M113 287l8 41q0 4 4 8q4 2 10 2l162 -55l59 178l-235 63q-12 4 -8 15l8 41q0 4 4 8q4 2 10 2l240 -80l55 168q4 12 14 8q10 0 11 -12v-4v-2l-47 -170l192 -64l82 244q4 12 14 8q10 0 11 -12v-4v-2l-68 -248l156 -51q12 -4 8 -15q0 -10 -12 -10h-5h-2l-155 43l-54 -197 l220 -73q12 -4 8 -15q0 -10 -12 -10h-5h-2l-219 60l-39 -148q-4 -10 -12 -10l-2 2l-41 8q-4 0 -8 4q-2 4 -2 10l49 148l-178 49l-58 -211q-4 -10 -12 -10l-2 2l-41 8q-4 0 -8 4q-2 4 -2 10l72 211l-160 43q-12 4 -8 15zM346 266l178 -59l64 190l-193 54zM401 473h5h-5z" />
<glyph unicode="$" horiz-adv-x="905" d="M92 584q0 96 55.5 177t171.5 126q47 16 93 22l4 146l2 2v2q0 10 12 10q4 0 10 -10v-146q10 2 31 2q90 0 147 -47q53 -43 54 -123q0 -25 -6.5 -50t-22.5 -50q-14 -23 -31.5 -44t-40.5 -44q-68 -55 -131 -74v-116q37 -16 74 -35t66 -41q72 -55 71 -125q0 -90 -71 -143 q-51 -43 -142 -50v-108q2 -4 0 -5t-2 -3q-4 0 -7 -2t-3 2h-27q-8 4 -8 10v2l4 104q-72 4 -123 23.5t-73 56.5q-31 53 8 103q18 20 49 29.5t66 2.5q6 0 6 -8t-11 -8q-61 10 -94 -29q-16 -16 -17 -37.5t13 -44.5q39 -66 176 -69l4 291q-51 20 -105 48.5t-99 65.5t-74 83 t-29 104zM194.5 644q-4.5 -50 12 -99t59.5 -84q29 -23 62.5 -41.5t72.5 -36.5l2 94h-8q-10 0 -10 8t10 9h8l9 397q-41 -6 -76 -24.5t-62 -45.5q-33 -31 -54 -79t-25.5 -98zM438 -8q70 6 111 45t41 90q0 43 -39 74.5t-111 66.5zM440 502q27 10 56.5 27.5t56.5 39.5 q49 41 73.5 87t24.5 89q0 72 -48 112t-132 40h-6q-16 0 -25 -2v-393z" />
<glyph unicode="%" horiz-adv-x="714" d="M39 -2q0 6 2 8l534 971q4 2 6.5 5t6.5 1q8 -4 8 -12v-2v-2l-502 -971v-2q-4 -6 -12 -6l-35 6zM68 739q2 -74 30 -123q27 -49 84 -49q61 0 94 45q18 27 27.5 63t11.5 73.5t-3 74.5t-13 68q-6 6 -16 2v-6q8 -31 13 -67t3 -72.5t-10 -69.5t-25 -57q-18 -31 -57 -37h-6 q-10 0 -18.5 3t-16.5 15q8 55 27.5 105.5t39 92.5t30.5 75.5t1 54.5q-10 23 -28.5 35t-38.5 12q-29 0 -58 -23q-23 -23 -43 -57q-33 -70 -28 -158zM127 733.5q-2 28.5 0 57t6 53.5q16 98 64 119q51 -20 53 -49t-16.5 -69t-45 -94.5t-32.5 -123.5q-14 20 -20.5 49t-8.5 57.5z M319 180q2 -74 31 -123q27 -49 84 -49q61 0 94 45q18 27 27.5 63t11.5 73.5t-3 74.5t-13 68q-6 6 -16 2v-6q8 -31 13 -67t3 -72.5t-10.5 -69.5t-24.5 -58q-18 -31 -57 -36h-6q-10 0 -18.5 3t-16.5 15q8 55 27.5 105.5t39 92.5t30.5 75.5t1 54.5q-10 23 -28.5 35t-38.5 12 q-29 0 -58 -23q-23 -23 -43 -57q-33 -70 -29 -158zM379 174q-2 29 0 57.5t6 53.5q16 98 64 118q51 -20 53 -48.5t-16.5 -68.5t-45 -94.5t-32.5 -123.5q-14 20 -20.5 48.5t-8.5 57.5z" />
<glyph unicode="&#x26;" horiz-adv-x="931" d="M109 178q0 45 17 84t45 74t62.5 67.5t71.5 63.5q8 8 14 12q-80 143 -79 254q0 82 41 129q35 41 94 41q53 0 99 -41t46 -114q0 -84 -52 -150t-118 -123q43 -76 105.5 -159t146.5 -175q4 16 4 25q23 123 -28 293q-47 2 -70 -11.5t-29 -19.5q-14 -16 -8 -29q2 -8 12 -8 q14 -4 11 -16q0 -8 -13 -8h-2q-23 2 -33 26q-8 27 15 49q8 10 22.5 20.5t42.5 16.5q49 10 113 -2q84 -16 119 25q25 27 14 63q-8 25 -35 31q-23 4 -39 -1t-22 -13q-8 -8 -4 -15q0 -4 4 -5t8 -3q12 0 8 -14q0 -10 -14 -10q-16 4 -22.5 12t-8.5 12q-6 18 10 39q27 33 86 20 q39 -6 52 -45q16 -49 -17 -88q-47 -51 -143 -32q-18 2 -31 6q49 -168 27 -297q-2 -18 -10 -41q37 -41 77.5 -82t83.5 -82l17 -16q8 -10 16 -27.5t2 -38.5q-6 -25 -45 -37h-2q-8 0 -12 8q-4 12 8 17q27 6 29 20q4 10 -2.5 22.5t-12.5 18.5l-14 15q-20 18 -60 59t-94 96 q-25 -66 -75 -114q-35 -31 -79 -46.5t-91 -15.5q-55 0 -111 25q-68 29 -104 88q-43 63 -43 147zM246 207q0 -82 15 -144.5t48 -95.5t85 -27.5t126 58.5q49 45 74 117q-31 33 -61.5 68.5t-63.5 74.5q-41 53 -76 103.5t-61 97.5q-4 -4 -6 -5t-4 -5q-4 -2 -13 -11l-2 -2 q-29 -23 -45 -84t-16 -145zM330 713.5q-2 -64.5 4 -125t16 -80.5q53 47 88 90q58 76 58 150q0 61 -38 96t-83 35q-23 0 -33 -50.5t-12 -115z" />
<glyph unicode="'" horiz-adv-x="329" d="M117 817q0 33 16.5 51.5t42.5 18.5q29 0 46.5 -18.5t17.5 -51.5q0 -16 -5.5 -57t-13.5 -84t-19.5 -76t-25.5 -33q-12 0 -23.5 33t-19.5 76t-12 84t-4 57z" />
<glyph unicode="(" horiz-adv-x="387" d="M87 302q-3 89 1 159q6 82 21.5 171t39 177t55.5 168t70 143q4 12 15 6q10 -6 6 -16l-17 -58q-16 -57 -35.5 -155t-36 -228t-16.5 -278q0 -147 15.5 -264t33 -199t33.5 -126l15 -44q8 -12 -4 -16q-3 -2 -7 -2q-6 0 -10 4q-63 84 -100 180t-56.5 192.5t-22.5 185.5z" />
<glyph unicode=")" horiz-adv-x="395" d="M78 1110q-4 10 6 16t14 -6q39 -63 71 -143t55.5 -168t39 -177t21.5 -171q4 -70 1 -159t-22.5 -185.5t-56.5 -192.5t-101 -180q-4 -4 -10 -4q-4 0 -6 2q-12 4 -4 16l16 44q15 44 32.5 126t32.5 199t15 264t-16 277.5t-35.5 228.5t-36.5 155z" />
<glyph unicode="*" horiz-adv-x="522" d="M98 780q-2 2 2 11q4 4 11 2l53 -5l-35 43q-6 10 0 17q8 6 16 0h5l2 -2l43 -39l6 74q4 12 12 12t12 -10l2 -4v-2l9 -89l53 66l2 2q6 6 16 0l33 -29q4 0 4 -8t-6 -8l-37 -31l43 -2q12 -4 12 -12t-10 -12l-4 -2h-2l-72 -11l54 -41l2 -2q6 -6 0 -16l-29 -33q0 -4 -8 -4t-8 6 l-33 39l6 -45v-2q0 -8 -10 -12l-43 -4q-2 -2 -11 2q-4 4 -2 10l2 47l-36 -31q-4 -2 -8.5 -2t-8.5 4q-6 6 -2 15l2 4l2 2l49 57l-69 -8h-2q-8 0 -13 10z" />
<glyph unicode="+" horiz-adv-x="815" d="M117 451q-2 2 2 10q4 4 10 2l233 -6l7 235q4 12 12 13q8 0 12 -11l2 -4v-2l11 -233l243 -6q12 -4 13 -13q0 -8 -11 -12l-4 -2h-2l-237 -12l12 -232v-2q0 -8 -10 -12l-43 -4q-2 -2 -11 2q-4 4 -2 10l6 236l-225 -11h-2q-8 0 -12 11zM383 430h2v2h-2v-2z" />
<glyph unicode="," horiz-adv-x="315" d="M53 53q0 33 16.5 51.5t43.5 18.5q29 0 46 -18.5t17 -51.5q0 -16 -10 -40.5t-25.5 -49t-32 -42t-30.5 -17.5q-16 0 -6 23.5t51 58.5q-23 -2 -37 6t-21.5 19.5t-9.5 23.5t-2 18z" />
<glyph unicode="-" horiz-adv-x="671" d="M111 332q-2 2 2 10q4 4 10 2l405 -14q12 -4 13 -13q0 -8 -11 -12l-4 -2h-2l-395 -24h-2q-8 0 -12 10z" />
<glyph unicode="." horiz-adv-x="327" d="M53 51q0 33 16.5 51.5t43.5 18.5q29 0 46 -18.5t17 -51.5q0 -31 -17 -50t-46 -19q-27 0 -43.5 19t-16.5 50z" />
<glyph unicode="/" horiz-adv-x="659" d="M14 49q0 8 4 10l594 1082q8 8 15 6q8 -6 8 -17l-2 -4v-2l-555 -1089v-2q-4 -6 -17 -6l-38 16q-2 -2 -3.5 1t-5.5 5z" />
<glyph unicode="0" horiz-adv-x="673" d="M0 377q-4 104 13.5 204.5t52.5 180.5q41 86 94 135q63 55 133 55q47 0 90 -26.5t66 -83.5q23 -53 -3 -134t-70 -182.5t-90 -220.5t-65 -246q35 -61 80 -61h10q45 8 82 33.5t64 64.5q23 35 38 77t24 86t13.5 87t4.5 80q4 94 -8.5 177t-26.5 136q-2 8 6 13q6 1 14 -7 q16 -53 27.5 -138t7.5 -183q0 -37 -4 -82t-13.5 -90t-25.5 -88t-41 -80q-76 -115 -219 -115q-57 0 -105.5 31t-82.5 90q-59 117 -66 287zM135 408q6 -117 31 -215q10 -29 18.5 -55.5t18.5 -49.5q23 135 67.5 254t85.5 215t65.5 167t6.5 107q-23 45 -57.5 71t-73.5 28 q-59 -29 -98 -104.5t-58 -194.5q-12 -106 -6 -223z" />
<glyph unicode="1" horiz-adv-x="516" d="M31 711q2 2 3 4t3 4l35 19q34 20 82.5 50.5t102.5 67.5t95 74q0 2 4 2l4 4q9 8 15 2q8 -4 4 -12q-20 -53 -30.5 -140.5t-14.5 -187.5t-2 -202.5t6 -185.5t8 -136.5t4 -55.5q0 -4 -4 -8t-6 -4l-117 -6h-2q-4 0 -6 2q-4 4 -4 8q0 6 -2 53.5t-2 118t1 155.5t6 165 t13.5 147.5t22.5 102.5q8 18 16 35.5t17 33.5l-156 -174q-4 -4 -8 -4q-2 0 -3 1t-3 1l-76 55q-6 2 -6 11z" />
<glyph unicode="2" horiz-adv-x="638" d="M20 -8q0 61 21.5 109.5t55.5 88t78 72.5t89 66q94 72 125 195.5t-8 289.5q0 4 -5 19.5t-14.5 32t-22.5 29.5t-32 13q-47 0 -92 -21.5t-84 -60.5q-39 -45 -60.5 -103t-21.5 -124q0 -10 -10 -10q-12 0 -12 10q0 72 23.5 134.5t66.5 109.5q39 41 88 65.5t102 24.5 q6 0 13.5 -1t13.5 -1q4 0 6 -2q68 -12 115 -68q63 -80 63 -219q0 -61 -21.5 -109.5t-55 -88.5t-78 -72.5t-89.5 -65.5q-43 -31 -82.5 -60.5t-71.5 -65.5t-52.5 -78t-24.5 -95q18 6 53 15.5t74 16.5t77 7t64 -12q102 -49 158 -19q29 16 38 44t9 30q0 8 10 8q12 0 13 -12 q0 -4 -9.5 -36t-48.5 -54q-27 -14 -63 -14q-27 0 -55.5 7t-63.5 23q-27 12 -71 9t-86 -11t-74 -18l-31 -10q-10 0 -12 2q-4 4 -5 10z" />
<glyph unicode="3" horiz-adv-x="673" d="M20.5 134q2.5 48 30.5 85q8 10 17 2q12 -8 4 -16q-25 -33 -27 -74t18 -82q23 -43 58 -65q39 -27 88 -27q14 0 28.5 1t28.5 3q57 31 86 95.5t38 140t3 147.5t-20 115q-47 -27 -105 -27q-57 0 -80 8q-20 8 -20 29q0 35 28.5 44t82.5 9q55 0 102 -12q10 23 16 57.5t9 71.5 q10 127 -29 201q-29 57 -82 51h-4q-57 -14 -86 -51q-23 -23 -32 -50.5t-13 -50.5q-4 -27 0 -55q0 -14 -10 -14q-14 -4 -15 10q0 2 -1 19.5t3 43t14.5 56t34.5 57.5q57 68 176 68q84 0 132 -54q39 -49 38 -125q0 -53 -18 -107t-53 -101q-16 -20 -39 -41q35 -16 70 -47 q68 -68 67 -173q0 -63 -24.5 -123.5t-69.5 -109.5q-80 -86 -193 -104q0 -2 -4 -2q-14 -2 -28.5 -3.5t-30.5 -1.5q-53 0 -98 29t-70 78q-23 47 -20.5 95zM193 469q0 -2 6 -6q18 -6 69 -6t97 26v4q-20 6 -42 8.5t-44 2.5q-33 0 -50.5 -2t-25.5 -6.5t-9 -9.5t-1 -11z" />
<glyph unicode="4" horiz-adv-x="634" d="M12 356q0 41 21.5 90.5t55.5 102.5t76 106.5t81 102.5q51 63 88 116l2 3q2 4 6 8q2 2 2 4t4 6q12 20 14.5 27.5t2.5 9.5q-10 10 2 18q8 8 20 -2q18 -23 -27 -88q-14 -23 -41.5 -75t-56.5 -115q-43 -96 -62.5 -163t-13.5 -99q12 4 24.5 5t25.5 5q31 4 55 8t47 8 q16 59 34.5 111.5t37.5 95.5l15 37.5t11 34.5q4 10 7 18t14 8q6 0 10 -6q4 -4 4 -11t-6 -42q-4 -27 -11.5 -68t-17.5 -98q-4 -18 -6 -36.5t-4 -35.5q35 0 51.5 -5t24.5 -9q12 -10 12 -25q0 -14 -14 -14t-15 14q-2 2 -10 5q-16 4 -51 4q-4 -76 7 -136.5t26 -103.5 q10 -31 19 -53.5t20 -38.5q10 -19 20 -33q2 -4 2 -12q-4 -8 -10 -10l-123 -45h-6q-8 0 -12 8q-72 190 -41 381q2 10 3 18t3 16q-33 -2 -76 -12q-43 -8 -84 -16t-72 -17q-37 -8 -69 -16h-4q-6 0 -9 2q-6 6 -6 12z" />
<glyph unicode="5" horiz-adv-x="616" d="M6 227q4 10 17 11q14 -4 10 -17q-8 -41 5 -87t46 -85q59 -76 145 -76q23 0 38.5 17.5t24.5 43t14 52.5t9 45q10 55 12.5 116.5t-3.5 119.5q0 6 -6.5 34.5t-17.5 61.5t-25.5 59.5t-32.5 26.5q-47 0 -84 -18.5t-54 -36.5q0 -2 -2 -5l-4 -8q-4 -14 -16 -10q-14 0 -10 14 q2 4 3 8.5t3 8.5q-16 88 -24.5 146.5t-6.5 96.5q0 82 43 111q16 10 49 6t88 -16q31 -6 66 -12.5t65.5 -9.5t56 0t42.5 16q16 10 16 43q0 12 14 12q12 0 13 -12q0 -43 -27 -64q-18 -16 -47 -20t-61.5 -2t-69.5 9t-72 15q-33 8 -59 10v-6q-6 -31 -6 -67q0 -33 4 -81t18 -108 v-2q27 8 62 8q109 0 168 -86q53 -76 53 -194q0 -63 -16.5 -126t-47 -112t-73.5 -79.5t-97 -30.5q-98 0 -166 86q-35 43 -51 95t-6 99z" />
<glyph unicode="6" horiz-adv-x="622" d="M11 300q-5 93 18 183q37 166 143 287q96 104 205 137q12 4 14 4q2 2 6 2q57 10 105 2q10 -4 10 -16q-4 -12 -14 -8q-55 8 -113 -6q-72 -25 -127 -97q-53 -74 -84 -184q-23 -84 -31 -180t2 -191q4 -45 14.5 -94t32 -88t57.5 -59.5t91 -9.5q23 8 36 36.5t20 64.5t8.5 69.5 t-1.5 54.5q-4 47 -11 90t-23.5 68.5t-44 25.5t-70.5 -39q-31 -29 -39 -70.5t2 -88.5q4 -12 -10 -17q-10 0 -14 10q-12 53 -1 100.5t46 82.5q63 68 157 51q72 -17 109 -80q33 -57 22 -137q-4 -49 -23.5 -95.5t-51.5 -80.5q-23 -23 -46.5 -40.5t-52.5 -27.5v-2q-8 -4 -10 -4 h-2q-41 -10 -76 -10q-84 0 -147 63q-33 31 -49.5 62.5t-22.5 46.5v2q-29 90 -34 183z" />
<glyph unicode="7" horiz-adv-x="706" d="M16 803q35 61 215 80q74 8 159 8t157 -2h90q8 0 12 -10t-4 -15l-21 -16q-20 -17 -51.5 -45.5t-69.5 -70.5t-75 -97q-45 -66 -74.5 -132.5t-46.5 -135.5q-41 -174 6 -353q2 -8 -4 -14q-4 -2 -33.5 -20.5t-64.5 -18.5q-27 0 -43 16q-12 16 -23.5 70.5t-1.5 138.5 q6 57 29 140.5t82 183.5q115 190 328 352h-35q-72 2 -156 2t-158 -8q-166 -16 -192 -68q-18 -31 12 -75q8 -10 -4 -19q-10 -8 -18 4q-39 59 -15 105z" />
<glyph unicode="8" horiz-adv-x="753" d="M45 236q4 166 205 327q6 2 8 8q2 0 4 2l31 25q-29 20 -52.5 38.5t-43.5 41.5q-29 31 -40.5 62.5t-11.5 66.5q0 39 16.5 70.5t44 53t63.5 33t73 11.5q57 0 102 -21.5t68 -60.5q41 -72 -18 -160q-10 -10 -21 -4q-6 4 -8 9t2 10q53 76 18 133q-16 31 -56 49t-87 18 q-23 0 -35 -16.5t-18 -43t-7 -57t-1 -59.5q2 -57 9 -96t17 -49q2 -2 2 -6q2 -2 4 -3.5t4 -3.5q154 109 379 207q15 6 21 -6q4 -12 -8 -18q-221 -96 -367 -199q43 -35 90 -73t86 -89q90 -115 90 -270q0 -57 -31.5 -105.5t-91.5 -80.5q-37 -20 -77.5 -31.5t-83.5 -11.5 q-37 0 -77 9t-75 29q-57 33 -92 97q-37 72 -35 164zM207 257q-2 -62 4 -120q10 -68 31.5 -105.5t54.5 -52t77 -7t97 31.5q53 25 81 69t28 93q0 82 -24 144.5t-61.5 110.5t-83.5 86t-92 71l-2 2q-10 -8 -18 -14.5t-18 -14.5q-23 -27 -38.5 -73t-24.5 -102.5t-11 -118.5z" />
<glyph unicode="9" horiz-adv-x="661" d="M12 647q0 53 16.5 103.5t47.5 91.5q25 33 69.5 63.5t116.5 30.5q51 0 92 -29q39 -29 39 -59q0 -10 -12 -10t-12 10q0 16 -30 39.5t-77 23.5q-49 0 -77.5 -24.5t-43 -61.5t-17.5 -82t1 -88q6 -57 21.5 -95t39 -51t54 1t69.5 61q31 35 49.5 77t18.5 77q-4 23 -8 35t-4 14 q-2 6 6 14q2 0 31.5 10.5t54.5 10.5q20 0 35 -43q6 -16 13 -37.5t13 -50.5q12 -59 19.5 -120.5t7.5 -115.5q0 -57 -15.5 -144t-52.5 -169q-94 -203 -270 -203q-12 0 -12 11q0 12 12 12q49 0 92 18l4 4q47 23 75 69t41 106.5t14 130t-5 139t-16.5 134t-20.5 114.5 q-18 -53 -63 -109q-37 -43 -81 -67.5t-87 -24.5q-72 0 -113 57q-35 51 -35 127z" />
<glyph unicode=":" horiz-adv-x="350" d="M109 70q0 33 16 51t43 18q29 0 46 -18.5t17 -50.5q0 -31 -17 -50.5t-46 -19.5q-27 0 -43 19.5t-16 50.5zM117 352q0 33 16.5 51.5t42.5 18.5q29 0 46.5 -18.5t17.5 -51.5q0 -31 -17.5 -50t-46.5 -19q-27 0 -43 19.5t-16 49.5z" />
<glyph unicode=";" horiz-adv-x="415" d="M109 53q0 33 16 51.5t43 18.5q29 0 46 -18.5t17 -51.5q0 -16 -10 -40.5t-25.5 -49t-32 -42t-30.5 -17.5q-16 0 -6 23.5t51 58.5q-23 -2 -37 6t-21 19.5t-9 23.5t-2 18zM117 352q0 33 16.5 51.5t42.5 18.5q29 0 46.5 -18.5t17.5 -51.5q0 -31 -17.5 -50t-46.5 -19 q-27 0 -43 19.5t-16 49.5z" />
<glyph unicode="&#x3c;" horiz-adv-x="827" d="M88 459q0 4 8 8l578 381q10 4 16 -2q6 -8 -2 -17l-2 -4l-2 -2l-522 -389l549 -252l2 2q8 -8 6 -16l-14 -41q2 -2 -1.5 -3t-5.5 -5q-2 -2 -12 2q-150 80 -248 134t-160.5 90t-96.5 55.5t-50 30.5t-23.5 16.5t-19.5 11.5z" />
<glyph unicode="=" horiz-adv-x="786" d="M190 317q-2 6 3 11q4 4 10 4l405 -17q12 0 13 -10q0 -10 -11 -14h-4l-2 -2l-395 -23h-2q-8 0 -12 10zM190 451q-2 2 3 10q4 4 10 2l405 -14q12 -4 13 -13q0 -8 -11 -12l-4 -2h-2l-395 -25h-2q-8 0 -12 11z" />
<glyph unicode="&#x3e;" horiz-adv-x="823" d="M90 168q-2 8 6 16l2 -2l549 252l-522 389l-2 2l-2 4q-8 8 -2 17q6 6 16 2l578 -381q8 -4 8 -8q-12 -6 -19.5 -11.5t-23.5 -16.5t-50 -30.5t-96.5 -55.5t-162 -90t-246.5 -134q-10 -4 -12 -2q-2 4 -5.5 5t-1.5 3z" />
<glyph unicode="?" horiz-adv-x="585" d="M74 770q23 51 74 84t106 33q98 0 160 -49q71 -54 71 -160q0 -55 -13 -99t-34.5 -81t-49.5 -68t-56 -61q-4 -4 -6 -6.5t-7 -6.5q-35 -47 -40 -102t-3 -111v-39q0 -8 -8 -16t-26 -8q-10 0 -21.5 1t-21.5 3q-12 4 -19 4h-2h-2v2h-2h-2v2h-2v2v2v2q0 37 12.5 80t34 83t49 75 t58.5 57q27 25 41 62t20 77.5t7 82.5t-1 77q-2 37 -6 70t-18.5 55.5t-41 35.5t-71.5 13q-23 0 -47.5 -8t-46.5 -20q-45 -31 -70 -76q-18 -41 -14 -90q6 -53 49 -103q6 -10 -4 -16q-6 -6 -15 2q-86 113 -32 215zM170 -41q0 33 17 52.5t46 19.5q27 0 44.5 -19.5t17.5 -52.5 q0 -31 -17.5 -51.5t-44.5 -20.5q-29 0 -46 20.5t-17 51.5z" />
<glyph unicode="@" horiz-adv-x="1239" d="M190 221q0 115 25 236t83 220t154.5 162.5t241.5 63.5q96 0 166 -40t117 -105.5t70.5 -148.5t29.5 -169t-7 -168t-41 -145.5t-69.5 -100t-95.5 -32.5q-45 4 -67 26q-18 18 -24.5 48t-8.5 65q-4 -6 -7 -13t-7 -14q-59 -98 -154 -98q-76 0 -117 66q-35 57 -35 145 q0 55 13.5 109.5t38.5 99.5q57 102 145 102q102 0 133 -90q4 -12 -6 -16q-12 -4 -16 8q-27 70 -107 74q-29 -29 -49.5 -80t-30.5 -115q-8 -61 -3 -118.5t22 -94.5q25 -55 65 -51h6q39 18 74 72q10 16 17.5 31.5t11.5 27.5q6 14 8 29v2q2 16 2 31.5v29.5t10 24.5t25.5 16.5 t32 9.5t28.5 3.5q6 0 10 -7q12 -12 7 -90q-2 -25 -3 -52.5t0 -55t5 -49t14 -33.5q8 -8 21 -8q31 0 59.5 62.5t42.5 156.5t10 202.5t-39 203t-104.5 156.5t-184.5 62q-76 0 -137 -29.5t-108 -79.5t-79 -114.5t-46 -134.5t-18.5 -152.5t5 -169t35 -167t69.5 -143t110.5 -100.5 t158.5 -38q51 0 102.5 18.5t95.5 45t77.5 56.5t54.5 54q8 10 20.5 5t4.5 -21q-29 -35 -66 -70t-87 -63.5t-115.5 -47t-153.5 -18.5q-96 0 -176 41t-137.5 111.5t-89.5 165t-32 200.5z" />
<glyph unicode="A" horiz-adv-x="1032" d="M0 393q0 129 26.5 252t73.5 223q47 104 119 166q80 68 166 68q74 0 120 -26.5t68 -55.5q61 -72 62 -166q0 -14 -14 -14q-12 0 -13 14q0 39 -14 78t-42 69.5t-69 50t-94 21.5q-55 -18 -91 -90t-58.5 -171t-29.5 -216q-5 -91 -5 -177v-49q2 -108 14 -197t33 -134 q18 -45 38.5 -65.5t38 -27.5t31 -6t19.5 -1q106 35 160 163q4 10 13 39t18.5 62t16.5 61.5t7 38.5q0 29 1 58.5t1 58.5q0 45 43 72q34 22 82 22h4q18 0 24.5 -22.5t10.5 -49.5q2 -29 2 -67.5v-79.5q0 -43 1 -110.5t7 -131t19.5 -108.5t35.5 -45q35 0 70 46t63.5 109.5 t49 132t26.5 111.5q0 10 15 6q12 0 8 -16q-4 -14 -10.5 -52t-18.5 -86.5t-31.5 -100.5t-47 -95t-64.5 -71.5t-84 -28.5q-41 0 -77 14t-64.5 49t-47 94.5t-20.5 151.5q-4 -16 -11.5 -35.5t-15.5 -36.5q-43 -96 -110.5 -146t-155.5 -50q-72 0 -130 39.5t-99 113.5 q-35 66 -52.5 153t-17.5 191z" />
<glyph unicode="B" horiz-adv-x="923" d="M-55 -119q-4 12 10 13q63 0 115 26q2 0 4 2q102 55 143 230q20 91 20 214q0 67 -6 144q-6 82 -16 158.5t-21.5 139t-20.5 106.5t-13 61q-41 -6 -78 -14.5t-45 -24.5q-4 -4 0 -12q4 -12 -6 -17q-2 -2 -4 -2q-8 0 -13 8q-8 23 0 35q14 25 59.5 35t104.5 21h12q14 6 37 6 q47 8 86 20t49 35q4 10 15 6q12 -2 8 -14q-10 -27 -42 -40t-75 -24q8 -10 19 -35q8 -20 16 -48.5t16 -63.5q10 -53 19.5 -108.5t13.5 -108.5q4 16 9.5 34.5t9.5 36.5q31 98 82 156q61 74 151 74q84 0 131 -53q41 -47 41 -125q0 -53 -19.5 -108.5t-54.5 -100.5 q-10 -12 -19 -23.5t-19 -21.5q63 -31 102 -99q28 -57 28 -123q0 -18 -2 -36q-10 -88 -63 -164q-20 -29 -49 -55.5t-57 -43.5q33 -10 79 -30.5t98 -40t104 -34.5t97 -15q12 -1 24 -1q24 0 49 3q38 4 74 16t64.5 32.5t47.5 51.5q8 8 16 2q12 -4 4 -16q-20 -33 -51 -53.5 t-68 -33t-75.5 -17.5t-75.5 -5q-53 0 -109.5 15.5t-111 37t-103.5 44t-88 34.5q-23 -10 -64 -19q-40 -10 -84 -12q-9 -1 -18 0q-34 0 -65 8q-39 10 -58 36q-12 18 -6 43q10 31 42 35q10 1 20 1q24 0 52 -6q40 -8 79 -22.5t63 -22.5q37 43 55.5 105.5t22.5 128.5q2 26 2 51 q0 39 -4 75q-6 60 -19 97q-51 -29 -104 -29q-55 0 -80 10q-23 10 -22 29q0 35 28.5 44t81.5 9q29 0 54.5 -4t48.5 -10q20 51 26 129q1 19 1 36q0 99 -29 159q-28 53 -80 53h-4q-39 -16 -66 -49q-49 -59 -76 -148q-12 -41 -20 -80t-13 -69q-6 -37 -6 -68v-6 q-4 -72 -21.5 -161t-51.5 -173q-51 -123 -123 -186q-88 -82 -203 -82q-12 0 -12 12zM326 1q2 -5 4 -7q10 -18 38.5 -25.5t61.5 -6.5t64.5 8t50.5 18q-55 16 -105.5 30.5t-79.5 14.5q-18 0 -24 -4q-4 -2 -8 -13q-4 -10 -2 -15zM434 475q0 -4 6 -6q10 -4 27.5 -6t44.5 -2 q47 0 94 26v7q-41 10 -86 10q-33 0 -50 -2t-25.5 -6t-9.5 -9.5t-1 -11.5z" />
<glyph unicode="C" horiz-adv-x="755" d="M6 360q0 117 23.5 228.5t70.5 199.5q106 203 283 203q113 0 176 -71q41 -41 57.5 -95.5t24.5 -95.5q6 -45 6 -75.5v-32.5q0 -10 -14 -11q-12 0 -12 13v29q0 30 -7.5 73t-24 91t-48.5 85q-55 57 -142 62q-4 -8 -14 -9h-8q-47 0 -96 -65q-49 -72 -80 -195 q-31 -115 -40 -245q-4 -62 -4 -120q0 -65 5 -128q14 -131 51 -214t92 -112q66 0 109 21.5t67 44.5q31 29 51.5 65.5t24.5 77.5q2 12 16 12q10 -4 11 -16q-6 -43 -27.5 -85t-57.5 -75t-85 -53.5t-111 -20.5q-143 0 -225 160q-35 70 -53.5 160t-18.5 194z" />
<glyph unicode="D" horiz-adv-x="911" d="M-78 -145q0 14 12 14q66 0 119 27q2 0 2 1t2 1q109 61 148 243q16 77 19 171q1 32 1 64q0 66 -4 140q-6 88 -16 171t-21.5 148.5t-21.5 111.5t-12 61q-41 -8 -78 -17.5t-45 -25.5q0 -2 -1 -5.5t3 -11.5q4 -10 -9 -18h-4q-8 0 -10 6q-4 16 -3 25.5t5 15.5q16 37 69.5 48 t113 17.5t109.5 18.5t62 51q4 12 17 8q14 -4 8 -20q-10 -29 -45 -45.5t-82 -26.5q4 -8 6 -13t6 -16q18 -47 37 -118q12 -55 22.5 -113.5t14.5 -114.5q4 20 7 42t7 44q57 252 166 252q66 0 119 -36.5t88 -112.5q31 -61 48.5 -146.5t17.5 -183.5q0 -109 -21.5 -214t-62.5 -192 q-39 -90 -97 -139q-66 -53 -137 -53q-63 0 -102 22.5t-62 47.5q-45 49 -55 118q-18 -41 -39.5 -77.5t-50.5 -67.5q-100 -117 -238 -117q-12 0 -12 15zM279 145q6 -4 6 -8q0 -37 13 -71.5t37.5 -62.5t60.5 -45t83 -17q49 18 88 97t60 208q20 119 20 248t-22 239 q-18 111 -53 169q-32 54 -70 54h-6q0 -4 -2 -4q-27 -14 -55.5 -63t-55.5 -156q-10 -47 -16.5 -89t-10.5 -77q-6 -39 -6 -75q0 -6 -2 -11q-4 -72 -20.5 -158.5t-48.5 -177.5z" />
<glyph unicode="E" horiz-adv-x="700" d="M-2 264q0 78 20.5 147.5t57.5 123.5q41 61 100 92q-29 37 -44 85t-15 97q0 55 16.5 105.5t48.5 84.5q35 41 85 64.5t112 23.5q49 0 82 -10t52 -25.5t28.5 -31.5t13.5 -31q4 -20 3 -39.5t-9 -40.5q-4 -18 -15.5 -32.5t-21.5 -20.5q-12 -12 -20 4q-2 4 -1 11.5t5 9.5 q16 10 27.5 38.5t0.5 59.5q-8 43 -55 59q-18 8 -44 0t-53.5 -28.5t-52 -50t-40.5 -64.5q-29 -67 -41 -133q-9 -49 -8 -86q0 -13 1 -25q41 10 76 11q8 0 35 -3.5t53.5 -11.5t48 -21.5t21.5 -31.5t-11.5 -28.5t-27.5 -16.5t-35.5 -7t-34.5 -1q-82 0 -139 47q-23 -29 -36 -83 t-19 -124q-1 -28 -1 -57q0 -50 4 -99q7 -78 28 -147q45 -168 126 -187q8 -4 11 -6h2q66 0 131 37t92 115q9 26 9 51q0 16 -4 31q-9 39 -40 67q-10 6 -2 23q9 8 23 0q53 -54 53 -122q0 -30 -10 -62q-12 -35 -36 -67t-56 -54q-35 -27 -77 -39t-83 -12q-162 0 -250 131 q-84 113 -84 280zM242 621q8 -31 45 -40.5t69 -9.5q2 0 16.5 1t30 4.5t24.5 8.5t3 13q-10 14 -45 23.5t-78 9.5q-29 0 -65 -10z" />
<glyph unicode="F" horiz-adv-x="817" d="M-12 637q0 23 5 54.5t20.5 68.5t44 74.5t77.5 74.5q88 66 218 97.5t300 31.5q111 0 195 17.5t141 50.5q86 47 86 119q0 41 -29.5 68.5t-74.5 27.5q-96 0 -142 -80q-16 -29 -24 -55q-4 -12 -6 -25q-4 -18 -15 -14q-10 0 -10 16q0 2 6 32t27 65q20 33 59 62.5t105 29.5 q55 0 93 -37t38 -90q0 -27 -18.5 -69t-84.5 -81q-119 -67 -340 -67h-6q-129 0 -239 -19q12 -16 22 -41q10 -23 18.5 -52.5t18.5 -66.5q16 -72 25.5 -149.5t11.5 -144.5q6 2 13 2h12q38 4 68 4q15 0 28 -1q39 -3 43 -3q10 0 10 -17q0 -16 -16 -16q-20 2 -45 2h-51.5t-61.5 -4 q0 -57 -7 -124t-22 -128q-23 -92 -54.5 -165t-72.5 -126q-106 -137 -262 -137q-12 0 -12 16t12 17q35 0 63.5 5t57.5 21h2q2 0 2 1t2 1q109 57 146 234q22 101 22 233q0 56 -4 117q-39 -14 -82 -47q-2 -2 -6 -2q-8 0 -10 8q-8 8 4 20q37 31 92 56q-6 80 -17.5 155.5 t-23.5 137t-21.5 104.5t-13.5 59q-90 -29 -158 -79q-43 -31 -69.5 -66t-39.5 -66.5t-18.5 -60.5t-5.5 -49q0 -78 39 -133q43 -55 101 -55q14 0 14 -17q0 -14 -14 -14q-70 0 -117 65q-25 31 -37 71t-12 83z" />
<glyph unicode="G" horiz-adv-x="962" d="M-12 604q4 162 80 293q57 100 144 152.5t194 52.5q129 0 202 -80q37 -39 55.5 -87t26.5 -91q7 -38 7 -66v-7q-1 -30 -1 -32q0 -12 -12 -12t-12 14q0 47 -8 95q-8 41 -23.5 87t-50.5 83q-67 71 -181 71h-3q-10 0 -18.5 -1t-18.5 -1q-4 -4 -9 -4q-23 0 -52 -21.5t-60 -91.5 q-25 -53 -41.5 -122.5t-24.5 -149.5q-7 -64 -7 -126q0 -24 1 -48q4 -84 21 -152q6 -25 16 -52t24.5 -51t34 -41t45.5 -23q74 2 122 23.5t77 43.5q72 57 84 135q-2 41 -4 63.5t-2 24.5q0 10 10 15q2 0 13.5 1t26.5 3t32.5 2t32.5 -2q10 -1 18 -13q12 -16 18.5 -54t8.5 -88 q1 -20 1 -41q0 -31 -2 -64q-3 -56 -12 -107q6 -6 4 -12q0 -8 -6 -8q-2 -4 -2 -11q-6 -31 -18 -68.5t-29.5 -78.5t-42 -83t-55.5 -81q-72 -86 -154 -129q-74 -35 -149 -35q-31 0 -62 6q-74 12 -109 59q-27 34 -27 82q0 16 3 34q10 66 60.5 134t128.5 117q72 47 151.5 71 t165.5 24q4 47 4 90v82q-14 -25 -31.5 -47.5t-40.5 -38.5q-86 -74 -217 -74q-90 0 -157 43q-66 41 -107 113q-35 57 -51 130q-13 58 -13 119q0 15 1 31zM119 -195q-3 -15 -3 -29q0 -38 21 -65q27 -39 94 -51q29 -5 55 -5q33 0 62 7l4 2q111 25 174 156q51 109 70 278 q0 8 1 15.5t1 15.5h-2q-164 0 -299 -88q-72 -47 -120 -110.5t-58 -125.5z" />
<glyph unicode="H" horiz-adv-x="1097" d="M-39 633q0 4 5 28.5t14.5 61.5t23.5 84t35 96q23 59 49.5 106.5t54.5 80.5q76 88 168 88q18 0 61.5 -15.5t86.5 -75.5q102 -145 102 -479v-18q45 25 116 55.5t140 46.5q20 78 47 147.5t60 123.5q90 147 204 147q35 0 54.5 -24.5t23.5 -67.5v-7q0 -47 -22 -99 q-24 -56 -70 -103q-29 -29 -76 -61.5t-118 -53.5q-6 -33 -12.5 -68.5t-12.5 -74.5q-6 -41 -10 -94.5t-6 -110.5q-1 -28 -1 -57t1 -59q2 -58 6 -109q8 -102 23.5 -174t35.5 -97q4 -2 7 -5t7 -3q12 0 13 -12q0 -12 -13 -12q-51 0 -92 47q-70 82 -88 268q-4 45 -6 99 q-1 27 -1 54t1 55q2 56 6 112.5t13 105.5q8 53 20 105q-86 -27 -139.5 -53.5t-110.5 -55.5q-4 -166 -24.5 -305t-61.5 -240q-43 -111 -98 -166t-129 -55q-59 0 -95 44t-40 122v16q0 91 42 196q46 114 134 214q29 33 64.5 66.5t82.5 66.5v102q0 72 -5 149t-17.5 147.5 t-30.5 127t-45 86.5q-16 20 -41 20.5t-50.5 -12t-49 -31t-37.5 -34.5q-51 -63 -99 -178q-18 -49 -32.5 -95t-23.5 -83t-14 -61l-5 -23q-4 -12 -15 -13q-10 4 -10 17zM137 -45q4 -66 33 -100.5t78 -34.5q33 0 59.5 32.5t46 76.5t31.5 90.5t18 72.5q10 74 19.5 168t11.5 217 q-39 -31 -71.5 -61.5t-57.5 -59.5q-86 -98 -129 -213q-39 -90 -39 -173v-15zM926 721q61 20 103 48.5t69 57.5q50 51 68 103q17 47 16 81v7q-4 47 -23.5 57t-30.5 10h-4q-2 -2 -3 -2t-3 -2q-84 -25 -141 -178q-14 -37 -27.5 -83t-23.5 -99z" />
<glyph unicode="I" horiz-adv-x="440" d="M-137 39q0 68 20.5 132.5t61.5 117.5q33 41 94 82t160 47q0 25 -1 50.5t-1 51.5q-4 100 -12.5 193.5t-17.5 169t-17.5 126t-10.5 62.5q-35 -4 -64.5 -9t-41.5 -20q-2 -4 -4 -9t0 -17q4 -12 -11 -17h-2q-10 0 -14 11q-6 31 10 49q20 27 64.5 32t101.5 9q31 0 61.5 2 t56.5 7t45 15.5t28 28.5q4 12 16 8q12 -2 8 -18q-12 -31 -46 -45.5t-77 -20.5q4 -10 8.5 -32.5t8.5 -67.5t7 -101.5t7 -121.5q2 -53 3 -114.5t1 -122t-1 -115t-5 -91.5q-2 -20 -7 -55t-14.5 -77t-23.5 -88t-35 -91q-18 -39 -38.5 -69.5t-43.5 -53.5q-37 -33 -71 -45 q-4 -2 -9 -2q-10 -2 -19 -3t-20 -1q-74 0 -114 65q-37 57 -41 148zM-109 39q0 -35 8.5 -68.5t24 -59.5t39 -42t55.5 -16q19 0 35 6q72 43 108 177t38 355q-92 -6 -147.5 -44t-84.5 -77q-37 -48 -57 -108q-19 -55 -19 -112v-11z" />
<glyph unicode="J" horiz-adv-x="823" d="M-4 -238q-6 21 -6 44q0 39 18 81q33 72 98 125q41 35 104.5 64.5t135.5 58.5q47 23 98.5 44.5t102.5 47.5v29q0 78 -12.5 183.5t-27.5 207t-29.5 180t-20.5 105.5q-53 -23 -108.5 -47.5t-100.5 -55t-73 -68.5q-25 -34 -25 -74v-9q0 -14 -13 -14q-12 0 -12 14v7 q0 51 29 91q32 43 82.5 78t112 61.5t120.5 51.5l29 12q12 8 30 12q43 18 75 35.5t42 36.5q4 12 17 4q4 -2 6 -8t-2 -10q-10 -20 -39 -39t-70 -37v-2q18 -31 36.5 -115t33 -181t22.5 -188.5t8 -136.5v-31.5t2 -27.5l23 10q4 2 6 -10t-2 -17q-8 -6 -21.5 -14t-13.5 -12 q-4 -43 -12 -87t-18 -83q-37 -125 -105 -217q-59 -78 -137 -125l-4 -4q-2 0 -3 -1t-3 -1l-17 -9q-96 -51 -213 -51q-55 0 -93 24.5t-50 67.5zM20 -229q10 -35 41 -54.5t78 -19.5q63 0 120 16t106 45q37 33 67.5 81t54 105.5t39 122t19.5 130.5q-47 -25 -95.5 -46.5 t-95.5 -39.5q-70 -31 -131 -59.5t-102 -61.5q-70 -57 -91 -118q-14 -38 -14 -69q0 -17 4 -32z" />
<glyph unicode="K" horiz-adv-x="960" d="M-25 -29q-4 12 11 13q63 0 114 26q2 0 4 2q106 57 144 232q14 66 19 144q3 44 3 93q0 39 -2 80q-4 4 -8 4q-23 16 -22 39q0 27 24 47q-6 76 -16 147.5t-19.5 128t-18.5 95.5t-11 51h-13q-47 -8 -91 -18.5t-54 -26.5q-4 -8 0 -18t-6 -17h-6q-8 0 -11 8q-8 20 0 39 q16 25 60.5 35t103.5 21q10 4 22.5 5t24.5 3q12 4 35 8q37 8 65.5 20.5t34.5 32.5q6 10 17 6q12 -4 8 -16q-8 -23 -31.5 -36t-56.5 -23q8 -12 18 -37q8 -20 16.5 -50t16.5 -65q16 -70 25.5 -144.5t11.5 -140.5q57 -23 105 -71q63 8 116 24q47 18 94 78q25 37 46.5 82 t33.5 94q20 69 20 130q0 14 -1 28q-10 78 -49 109l-4 4q-47 -14 -69 -60.5t-22 -95.5q0 -12 -12 -12t-12 12q0 41 11 77t34 60q41 47 104 47q61 0 107 -49q49 -55 49 -145q0 -113 -49 -195q-47 -80 -133 -131q-59 -33 -140 -57q-6 -2 -13 -4t-13 -2q-18 -4 -38 -8.5 t-40 -8.5q35 -39 72 -102q51 -86 90 -188.5t69 -192.5q16 -47 30.5 -88t29.5 -70q18 -41 27.5 -48t11.5 -7q63 0 123 80q8 8 16 2q12 -8 4 -17q-66 -90 -143 -90h-11q-4 -4 -10 -4q-102 0 -188 168q-39 74 -70 162t-59 174q-20 57 -40 113.5t-38 97.5q-10 0 -20.5 -1 t-20.5 -1q-4 -72 -21.5 -158t-50.5 -166q-49 -121 -123 -188q-88 -82 -202 -82q-12 0 -13 12zM262 604q0 -6 4 -10v10q0 8 -2 10q0 -2 -1 -4t-1 -6zM387 578q6 0 13.5 1t13.5 1q-14 27 -25 41q0 -10 -1 -21.5t-1 -21.5z" />
<glyph unicode="L" horiz-adv-x="702" d="M-33 -102q0 43 47 73q45 31 125 31q31 0 66 -10t71 -27q25 35 41 68q72 145 72 428q0 39 -2 85t-7 95t-13.5 98t-22.5 97q-12 37 -23.5 59.5t-17.5 32.5q-31 -20 -55.5 -41t-26.5 -37q0 -8 6 -14q8 -10 0 -19q-4 -4 -8 -4t-8 4q-16 16 -14 37q4 25 31.5 48.5t68.5 51.5 l4 2q4 4 11 9.5t16 11.5q14 10 27.5 19.5t27.5 15.5q35 23 59.5 48t22.5 48q-4 12 10 12q10 0 14 -12q2 -27 -18 -51.5t-51 -48.5q4 -2 5 -4.5t5 -6.5q29 -59 54.5 -161.5t25.5 -255.5q0 -90 -9 -172t-32 -158q-33 -133 -100 -242q-12 -16 -23.5 -32.5t-23.5 -30.5 q29 -16 59.5 -33.5t60.5 -34.5q70 -41 140 -79q72 -38 136 -55q38 -10 72 -10q24 0 48 5q56 12 100 72q8 8 16 2q10 -8 2 -17q-61 -86 -163 -86q-18 0 -37 2t-41 8q-70 16 -141.5 55.5t-143.5 80.5q-33 18 -64.5 35.5t-60.5 33.5q-49 -53 -102 -83.5t-105 -30.5 q-59 0 -96 24q-35 25 -35 64zM-8 -102q0 -23 24 -43q35 -20 82 -21q25 0 47 8q1 2 5 6q29 20 57.5 43t54.5 54q-70 32 -120 32h-3q-43 0 -70.5 -8t-41.5 -18q-35 -23 -35 -53z" />
<glyph unicode="M" horiz-adv-x="1398" d="M6 -88q0 12 12 12q63 0 115 27l4 2q104 55 142 227q21 98 21 224q0 61 -5 128q-6 88 -19.5 172t-25.5 149t-22 103l-9 39q0 6 4 11q-10 -2 -17 -3.5t-18 -1.5q-47 -8 -91 -18t-54 -27q0 -4 -1 -7t1 -11q6 -8 -6 -16h-4q-10 0 -13 8q-6 23 3 39q14 25 59 35t102 20 q14 2 43 7t57.5 13.5t53 19.5t31.5 28q4 12 16 8q10 -4 6 -17q-12 -33 -59 -51q6 -8 16 -33q8 -20 16.5 -49.5t16.5 -64.5q12 -53 21.5 -108.5t13.5 -108.5q4 18 7 38.5t9 41.5q55 239 159 239h1q104 0 168 -153q45 -119 51 -281q8 35 17.5 72t19.5 75q37 125 76 193 q49 94 110 94q68 0 111 -47q35 -37 53.5 -104.5t22.5 -167.5q2 -33 1 -67q0 -55 -4 -115q-6 -96 -14 -193q-6 -74 -11 -144.5t-5 -130t8 -102.5t27 -63q12 -15 30 -15q12 0 13 -12q0 -12 -13 -12q-23 0 -45 16q-53 0 -86 37q-31 33 -44 93t-16 137q-1 26 -1 53q0 54 4 112 l12 176q7 80 13 158q6 68 5 127v17q-1 66 -11.5 117.5t-32.5 76.5q-18 18 -47 20q-70 -43 -132 -262q-14 -51 -25 -100t-19.5 -88t-12.5 -64l-4 -24l-2 -4q-4 -78 -20.5 -146.5t-38.5 -124.5q-55 -131 -148 -164q-4 -4 -8 -4h-2q-10 -2 -21.5 -3t-21.5 -1q-12 0 -12 13 q0 12 12 12h20.5t20.5 4q35 45 61.5 158.5t36.5 259.5q6 76 6 145q0 75 -7 141q-13 128 -48 193q-29 59 -72 59h-6h-2q-25 -16 -52.5 -62t-51.5 -151q-10 -43 -16.5 -83t-10.5 -71.5t-6 -52.5l-2 -20q0 -4 -2 -6q-4 -74 -21.5 -163t-52.5 -175q-49 -121 -123 -188 q-88 -82 -203 -82q-12 0 -12 12z" />
<glyph unicode="N" horiz-adv-x="1056" d="M-27 -84q0 12 13 12q61 0 114 27l2 2q106 55 144 227q20 90 20 211q0 66 -6 142q-6 88 -18.5 172t-24.5 148.5t-21 102.5l-10 39q0 8 -4 9q-18 -4 -44.5 -7.5t-52.5 -8.5t-46.5 -12t-28.5 -19q-4 -8 0 -19q4 -10 -6 -16h-4q-10 0 -12 8q-8 18 2 39q14 25 58 35t104 20 q14 2 42.5 7t58.5 13.5t53.5 19.5t29.5 28q2 12 14 8q12 -2 8 -17q-6 -16 -21 -28t-38 -23q4 -6 8 -14t8 -18q8 -20 16.5 -50t16.5 -65q16 -76 26.5 -157t12.5 -148v-31.5t-2 -32.5q20 66 43 127q133 344 285 344q70 0 112 -47q68 -74 74 -272q2 -34 1 -70q0 -54 -3 -112 q-6 -96 -14 -193q-6 -74 -10.5 -144.5t-4.5 -130t7.5 -102.5t25.5 -63q15 -15 33 -15q12 0 12 -12t-12 -12q-96 0 -138 59.5t-54 151.5q-6 50 -6 106q0 47 4 97q10 110 18 210q6 80 11 158q4 65 4 122v22q-1 66 -10 117.5t-32 76.5q-10 10 -21.5 15t-27.5 5q-4 0 -6 3 q-37 -12 -69 -46t-60.5 -79t-53 -97.5t-42.5 -101.5q-23 -61 -41.5 -120.5t-30.5 -107t-19 -77.5l-6 -29q-2 -2 -2 -4q-14 -59 -41 -125q-49 -121 -123 -188q-88 -82 -202 -82q-12 0 -13 12z" />
<glyph unicode="O" horiz-adv-x="931" d="M0 305q0 123 29.5 241t83.5 212q63 106 139 160q82 63 186 63q63 0 118.5 -34t90.5 -97q29 -52 40 -116q6 -37 6 -77q0 -29 -3 -59q-10 -78 -45 -153.5t-88 -141.5q-12 -12 -22 -4q-12 8 -5 16q59 72 90 146q32 75 40 143q4 29 3 56q-1 36 -7 72q-12 60 -35 108 q-31 53 -79 82.5t-102 31.5q-84 -31 -141 -121t-86 -231q-22 -108 -22 -227q1 -17 1 -34q4 -138 33 -251q63 -229 181 -229h8h6q127 23 207 116q35 41 58.5 90.5t37.5 99.5t21.5 100t11.5 93q2 35 2 69q0 75 -10 143q-14 98 -31 157q-2 12 10 16q17 4 21 -8q18 -61 32 -161 q8 -60 8 -127q0 -44 -4 -91q-4 -45 -11 -96t-22 -103.5t-39 -103.5t-61 -94q-117 -135 -313 -135q-82 0 -148.5 37t-109.5 108q-80 129 -80 334z" />
<glyph unicode="P" horiz-adv-x="870" d="M-45 -158q0 12 12 13q61 0 115 28l4 2q104 61 141 252q21 109 21 252q0 65 -4 137q-6 88 -16.5 172t-21.5 153t-21.5 117t-12.5 64q-41 -8 -78 -16t-45 -25q-6 -6 0 -16q4 -14 -8 -17q0 -2 -4 -2q-6 0 -10 9q-8 20 0 39q16 25 60 36t103 21q8 0 13 2q14 2 37 6 q47 8 86 21.5t47 37.5q4 10 16 7q12 -4 8 -15q-10 -29 -42.5 -44t-73.5 -25q12 -20 24 -61.5t23.5 -95.5t20.5 -115.5t16 -123.5q6 39 18 78q31 106 80 168q63 80 153 80q82 0 125 -74q37 -61 37 -168q0 -78 -20.5 -164t-59.5 -157q-41 -82 -93 -125t-109 -43q-53 0 -74 59 q-6 21 -6 43q0 36 16 76q29 72 111 135q8 8 16 -4q6 -8 -2 -16q-77 -59 -101 -122q-15 -39 -15 -70q0 -18 5 -34q12 -43 50 -43q45 0 72.5 29t41 71t18.5 89t7 84q7 69 7 132q0 31 -2 61q-5 89 -26 141q-23 60 -57 60q-4 0 -8 -1q-41 -20 -70.5 -61t-50 -90.5t-32 -102.5 t-17.5 -96t-8 -72l-2 -29q0 -4 -2 -6q-4 -78 -20.5 -174t-51.5 -188q-49 -129 -123 -203q-92 -88 -205 -88q-12 0 -12 12z" />
<glyph unicode="Q" horiz-adv-x="835" d="M-25 543q-6 45 -6 89q0 49 7 96q14 89 49 161q43 90 118 141q80 55 189 55q166 0 262 -178q41 -78 62.5 -177t21.5 -210q0 -117 -23.5 -222t-68.5 -187q-10 -20 -22.5 -37t-24.5 -33q66 -23 127 -50.5t120 -53.5q80 -39 157 -71t153 -48q46 -9 94 -9q29 0 58 3 q77 10 159 55q10 8 18 -4q4 -4 2 -10.5t-8 -8.5q-109 -63 -229 -63q-25 0 -48.5 3t-49.5 7q-78 16 -157 48t-161 71q-61 29 -124.5 57.5t-131.5 50.5q-94 -100 -221 -100q-123 0 -197 31q-47 20 -60 41.5t-13 34.5q0 10 8 26.5t41 30.5q47 20 125 20q49 0 96 -5t94 -15 q29 49 52.5 112.5t39.5 135.5q27 117 32 234q1 27 1 54q0 85 -12 160q-6 39 -18.5 81t-33 80t-50 69.5t-72.5 48.5q-100 0 -170 -49q-72 -47 -111 -131q-35 -68 -46 -153q-6 -45 -6 -91q0 -42 5 -86q12 -94 45 -179t86 -153q8 -10 -2 -20q-10 -6 -20 4q-53 70 -89 157.5 t-47 186.5zM55 25q0 -10 12.5 -23.5t43.5 -26.5q16 -6 41.5 -13t62.5 -11q2 2 8 2h10q45 0 81 33.5t59 68.5q2 0 2 2q-45 8 -88 12.5t-86 4.5q-47 0 -74 -6.5t-41 -12.5q-31 -12 -31 -30z" />
<glyph unicode="R" horiz-adv-x="927" d="M-39 -147q0 12 12 12q66 0 117 29l4 2q51 29 88 91t58 156q22 111 22 257q0 61 -4 128q-6 94 -16.5 182.5t-21.5 158t-20.5 114.5t-11.5 53q-12 -6 -36.5 -9t-50 -7t-47 -12.5t-29.5 -22.5l-3.5 -7t3.5 -13q4 -10 -7 -17h-6q-8 0 -10 8q-8 25 2 41q14 29 59.5 39.5 t104.5 20.5q18 4 47 9t58.5 12t53 20.5t29.5 34.5q4 10 15 6q10 -4 8 -19q-8 -23 -31.5 -38t-58.5 -25q10 -12 18 -39q8 -23 17.5 -53.5t17.5 -69.5q16 -72 24.5 -147.5t12.5 -143.5q29 109 76 197q53 96 116 155q10 6 17.5 13.5t15.5 11.5l2 2q2 0 3 1t3 1q53 33 109 33 q47 0 75.5 -49t28.5 -133q0 -66 -18.5 -129.5t-52.5 -112.5q-16 -23 -37 -44.5t-49 -39.5q37 -51 63 -135q31 -94 44 -203t24 -207q4 -51 8 -93t10 -73q4 -23 7 -35t7 -16q4 -8 9 -6q66 0 125 86q8 8 18 2q10 -10 2 -18q-66 -96 -145 -97h-11q-4 -4 -8 -4q-104 0 -149 170 q-20 72 -29.5 159t-19.5 177q-8 72 -16.5 140.5t-20.5 119.5q-31 -6 -66 -6q-20 0 -37.5 3t-27.5 13q-23 12 -23 39q0 29 23.5 50.5t56.5 21.5q74 0 123 -47q16 12 26.5 47t14.5 88q3 36 3 72v18q-1 45 -6 83t-13.5 64.5t-20.5 37.5q-8 4 -14 0q-18 -8 -37 -27 q-61 -55 -111 -148q-51 -94 -77.5 -206.5t-32.5 -210.5q-10 -59 -25.5 -121t-38.5 -119q-49 -131 -125 -203q-88 -88 -205 -88q-12 0 -12 15zM457 526q0 -12 10 -18q8 -4 19 -7t34 -3q33 0 58 6q-8 25 -22.5 46t-43.5 21q-18 0 -36.5 -13t-18.5 -32z" />
<glyph unicode="S" horiz-adv-x="811" d="M35 702q0 135 63.5 250t196.5 176q86 41 174 41q109 0 170 -65q61 -61 61 -172q0 -76 -32 -144q-31 -63 -84 -120q-49 -53 -103.5 -84t-97.5 -31q-12 0 -12 12t12 13q37 0 87 29.5t95 76.5q53 57 82 121.5t29 126.5q0 98 -54.5 155.5t-152.5 57.5q-2 -2 -6 -2 q-133 0 -219 -105q-37 -45 -61.5 -112.5t-30.5 -139.5q-1 -16 -1 -31q-1 -55 15 -109q20 -68 70 -116q37 -37 85 -65.5t97 -56.5q47 -27 94 -54.5t82 -62.5q82 -76 82 -176q0 -129 -80 -203q-72 -68 -193 -68q-90 0 -153.5 30t-91.5 83q-17 34 -17 69q1 3 1 6q2 38 24 68 q22 28 56 42q20 8 43 8q15 0 32 -3q10 0 10 -14q-4 -10 -14 -10q-14 2 -26 2q-51 0 -81 -39q-21 -29 -22 -61q0 -27 16 -56q23 -47 81 -73.5t142 -26.5q92 0 147.5 57.5t55.5 134.5q0 66 -52 114t-155 101q-59 31 -123.5 71t-118 92.5t-88 118t-34.5 144.5z" />
<glyph unicode="T" horiz-adv-x="802" d="M-36 854q-2 11 -2 22q0 28 13 56q12 29 49 63.5t119 61.5q103 35 257 35q36 0 75 -2q16 -2 45 -3.5t51 -3.5q2 0 3 -1t4 -1q50 -4 116 -5h13q59 0 119 8q66 8 120.5 28.5t81.5 58.5q15 22 15 44q0 19 -11 38q-14 25 -39.5 40.5t-54.5 15.5q-12 0 -12 12t12 12 q35 0 67 -18t48 -49q16 -25 16 -50q0 -28 -20 -57q-10 -16 -33 -34.5t-64 -35t-102.5 -26.5t-151.5 -10h-47t-53 2q6 -12 12 -31q8 -23 14.5 -54.5t12.5 -68.5q12 -78 20.5 -164t10.5 -162q0 -39 -4.5 -90t-12.5 -108.5t-23.5 -116.5t-35.5 -115q-49 -125 -123 -198 q-90 -86 -203 -86h-2q-10 0 -12 12q0 12 12 12q57 0 115 27l4 4q104 59 139 250q16 78 18 176q0 18 1 37q0 83 -9 178q-6 88 -18 172t-24.5 152.5t-22.5 117t-14 66.5q-25 1 -50 1q-149 0 -251 -32q-59 -20 -98.5 -49t-55.5 -63q-12 -23 -12 -46q0 -9 2 -17q6 -32 30 -54 q25 -25 70 -33q10 -2 20 -2q38 0 85 23q12 4 16 -7q6 -10 -4 -16q-53 -25 -96 -25q-35 0 -63 12.5t-44 28.5q-31 29 -38 68z" />
<glyph unicode="U" horiz-adv-x="823" d="M-41 1118q0 12 12 12q8 0 27.5 -6t41 -14t39 -17.5t23.5 -15.5q31 -35 44.5 -95t16.5 -137q1 -26 1 -53q0 -54 -4 -112q-6 -88 -13 -176l-12 -156q-5 -67 -6 -125q0 -9 1 -19q1 -66 11.5 -117.5t32.5 -76.5q18 -20 49 -20q4 0 6 -2q37 12 69 46t59.5 78t52 96t43.5 101 q43 111 68.5 227.5t72.5 237.5q49 121 123 189q84 77 203 81q12 0 12 -12t-12 -12q-57 0 -115 -27l-4 -2q-104 -55 -142 -229q-21 -96 -21 -222q0 -61 5 -128q6 -90 18.5 -173t24.5 -147.5t22 -103.5l9 -39q2 -6 -2 -10l-7 -9q-8 -8 -19 -16t-25.5 -15.5t-30.5 -7.5 q-23 0 -43 52q-10 23 -17.5 52.5t-15.5 63.5q-16 76 -26.5 157t-12.5 149v30.5t2 32.5q-10 -31 -21.5 -62.5t-23.5 -64.5q-129 -344 -285 -344q-68 0 -110 47q-70 74 -76 272q-2 34 -2 70q0 54 4 112q6 96 14 193q6 75 12 145q5 60 4 111v19q-1 60 -8.5 102.5t-25.5 63.5 q-12 14 -31 14q-12 0 -12 12z" />
<glyph unicode="V" horiz-adv-x="684" d="M-127 1049q0 12 12 12q84 0 136.5 -50t84 -136.5t51 -199t38.5 -237.5q16 -102 31.5 -195t37.5 -167q25 -78 53 -115q33 -39 70 -39q33 20 57 109q16 59 28.5 137t23.5 166q16 131 38.5 269t67.5 255q47 123 119 191q82 71 191 71h6q12 0 12 -12t-12 -12h-9 q-190 0 -284 -246q-43 -115 -65.5 -252t-39.5 -268q-12 -92 -24.5 -172t-29.5 -140.5t-43 -94.5t-65 -34q-84 0 -138 62.5t-89 162t-55.5 222.5t-36.5 244q-12 92 -25.5 176t-31.5 149q-39 131 -97 131q-12 0 -12 13z" />
<glyph unicode="W" horiz-adv-x="1249" d="M-49 981q0 12 12 12q10 0 29.5 -6t40 -14t38 -17.5t23.5 -15.5q31 -35 44.5 -94.5t16.5 -135.5q1 -24 1 -50q0 -55 -4 -115q-6 -88 -13 -176q-6 -80 -12 -158q-5 -67 -6 -125q0 -10 1 -20q1 -66 11 -116t33 -75q18 -20 47 -20q68 43 131 260q14 51 25.5 100t19.5 88 t13 63l4 25v4q12 158 61 271q55 133 145 163q4 4 9 5q20 6 47 6q12 0 12 -13q0 -12 -12 -12q-20 0 -39 -6q-18 -23 -33.5 -62.5t-29 -95t-24 -121t-14.5 -139.5q-6 -74 -6 -142q0 -76 8 -144q14 -128 48 -193q14 -31 38.5 -54.5t49.5 -23.5q102 2 178 68.5t127 162t80.5 204 t42.5 194.5q10 77 11 149v13q0 66 -9 131q-23 162 -88 297q-4 12 6 16q12 8 16 -6q35 -72 57.5 -147.5t32.5 -155.5q9 -65 9 -134v-14q-1 -76 -11 -153q-8 -61 -25.5 -133t-44 -143.5t-62.5 -139.5t-84 -120t-108.5 -82.5t-134.5 -30.5q-53 0 -112.5 44t-89.5 119 q-47 117 -54 277q-12 -70 -34 -144q-18 -59 -37 -108t-39 -84q-52 -94 -111 -94q-68 0 -110 47q-35 37 -53.5 104.5t-22.5 167.5q-2 34 -2 70q0 55 4 113q6 96 14 192q6 76 11.5 146.5t5.5 129t-8.5 101.5t-26.5 63q-12 14 -31 15q-12 0 -12 12z" />
<glyph unicode="X" horiz-adv-x="731" d="M-52 -20q16 72 75 137q8 10 16 2q10 -6 2 -19q-55 -66 -68 -129q-4 -20 -4 -39q0 -35 15 -63q30 -49 92 -49q17 0 37 4q78 16 131 51t89 86t57.5 115.5t37.5 140.5q8 45 12 90q-20 61 -22 129q-1 14 -1 28q0 35 7 68q-2 2 -2 4.5t-2 4.5q-35 88 -111 166q-66 66 -145 112 q-72 41 -124 60.5t-54 19.5q-8 0 -9 12v4q0 8 2.5 19.5t8.5 22t16 16.5t29 6q72 -2 146.5 -33t142.5 -84q100 -78 157 -184q43 68 105 115q84 66 186 84q38 6 76 6q73 0 143 -23q12 -4 8 -14q-4 -12 -16 -8q-63 21 -130 21q-38 0 -77 -7q-98 -18 -176 -78q-66 -49 -106 -123 q8 -10 10 -22q45 -111 45 -233q0 -27 -2 -54q-6 -70 -25 -133q6 -10 12.5 -17.5t12.5 -15.5q43 -49 94 -89t104 -79q66 -47 123.5 -94t81.5 -111q4 -12 -6 -16h-6q-8 0 -10 6q-23 59 -78 104.5t-119 92.5q-57 41 -114.5 85t-102.5 103q-10 -27 -21.5 -51.5t-23.5 -48.5 q-29 -53 -67 -100.5t-83 -81.5q-94 -76 -200 -97q-10 -2 -20.5 -3t-20.5 -1q-37 0 -66.5 15.5t-46.5 46.5q-20 33 -20 75q-1 23 5 48z" />
<glyph unicode="Y" horiz-adv-x="856" d="M-33 1198q0 12 13 12q23 0 45 -14q61 0 98 -39q27 -29 37 -75t12 -102v-28q0 -44 -4 -92q-6 -63 -12 -127q-6 -57 -12.5 -114.5t-7.5 -106.5v-10q0 -43 8 -77q8 -38 30 -54q28 -20 56 -20q18 0 36 7q47 21 90 69t80 112.5t62.5 119t36 85t2.5 14.5q0 2 4 6q20 72 57 125 t61 72v2h3h2h2h2h2h2h2v-2h2v-3l2 -2v-2v-2v-2v-2v-2l-2 -2q-27 -41 -37 -89q-9 -44 -9 -92v-9q1 -54 9 -112.5t18 -117.5q10 -66 19.5 -130t9.5 -130q0 -59 -10 -116.5t-29 -110.5q-41 -119 -117 -184q-102 -92 -245 -93h-21.5t-21.5 2q-96 10 -148 74q-40 54 -40 128 q0 10 1 20q6 59 37 112.5t82 91.5q43 33 119 60q55 19 131 19q29 0 61 -3q12 0 13 -12q-4 -12 -15 -12q-31 3 -59 3q-72 0 -124 -19q-71 -25 -110 -54q-47 -37 -76.5 -86t-33.5 -102q-1 -10 -1 -19q0 -66 36 -110q43 -59 129 -66q21 -2 42 -2q36 0 70 6q2 0 3 1t3 1 q166 27 193 293q6 62 6 130q0 62 -5 129q-11 140 -30 282v22q-10 -25 -23.5 -54.5t-29.5 -57.5q-27 -47 -54.5 -85t-58.5 -65q-76 -72 -159 -72q-80 0 -127 52q-55 61 -62 208v30q0 49 4 102q7 69 15 137q6 53 10 104t4 94t-6 76t-21 51q-16 16 -38 17q-12 0 -13 12z" />
<glyph unicode="Z" horiz-adv-x="1001" d="M31 -16q48 32 122 32h5q43 0 93 -20.5t105 -48.5q78 53 144 125q152 168 186 379q16 100 16 179q0 32 -2 62q-10 100 -26 162q-16 55 -32.5 87t-23.5 42q-55 -8 -117.5 -13t-129.5 -7q-59 0 -113.5 -13.5t-99.5 -36.5q-37 -18 -63.5 -43.5t-41.5 -54.5q-11 -23 -11 -44 q0 -22 13 -40q17 -25 59 -33q18 -4 40 -4q26 0 57 6q14 4 14 -10q4 -10 -10 -14q-35 -6 -61 -6q-53 0 -81 16t-38 31q-18 25 -18 54q0 25 14 54q14 27 41.5 55.5t69.5 51t98.5 38t130.5 17.5q49 0 107.5 4t117.5 12.5t117.5 22.5t105.5 37q119 51 119 115q0 23 -20.5 37 t-53.5 14q-12 0 -12 12t12 12q43 0 71 -20.5t28 -54.5q0 -8 -4.5 -23.5t-17.5 -34t-40 -39t-72 -41.5q-18 -8 -38.5 -15t-42.5 -13q29 -63 54 -150.5t25 -230.5q0 -178 -88 -340q-76 -137 -207 -254q-35 -31 -71.5 -57.5t-73.5 -49.5q18 -10 35.5 -20t36.5 -21 q70 -41 141 -79q70 -36 134 -54q38 -10 74 -11q24 0 47 5q56 12 99 72q9 8 17 2q10 -8 2 -17q-61 -86 -164 -86q-18 0 -36.5 2.5t-41.5 8.5q-68 16 -140.5 55t-144.5 80q-23 12 -42 24.5t-42 22.5q-45 -27 -88 -46.5t-79 -31.5l-19 -6h-4q-16 -4 -30.5 -6t-24.5 -2 q-63 0 -97 24t-34 62q0 47 45 76zM10 -90q0 -25 25 -43q31 -20 82 -21q14 0 31 4.5t40 10.5q37 12 74 29.5t72 39.5q-49 27 -94 44.5t-82 17.5q-45 0 -72 -9.5t-43 -19.5q-33 -23 -33 -53z" />
<glyph unicode="[" horiz-adv-x="352" d="M57 -66v183.5t1 214t3 223.5q0 233 7 367q2 61 3 94t3 50t4 21.5t4 6.5q23 20 94 20q41 0 77 -5t52 -11q12 0 8 -13q0 -10 -12 -10q-2 0 -31.5 1t-74.5 1q-23 0 -43 -65q-20 -66 -29 -178q-4 -53 -7 -112.5t-4 -118t-1 -112v-94.5q0 -92 3 -189t9 -179q4 -68 9 -109 t9 -65.5t7.5 -33.5t5.5 -11q16 0 40.5 -1.5t46 -1.5t37.5 -1l17 -1q6 0 10 -10q0 -10 -6 -12q-10 -6 -28.5 -9t-41 -5t-43 -3.5t-32.5 -1.5q-63 0 -80 14.5t-17 26.5v129z" />
<glyph unicode="\" horiz-adv-x="659" d="M14 1130q0 10 9 17q6 2 14 -6l594 -1082q4 -2 4 -10q-4 -2 -5 -5t-3 -1l-39 -16q-12 0 -17 6v2l-555 1089v2z" />
<glyph unicode="]" horiz-adv-x="411" d="M35 -207q0 10 12 10q2 0 32 -1t75 -1q23 0 43 66t28 178q4 53 7.5 112.5t4.5 118t1 111.5v94q0 92 -3.5 189.5t-9.5 179.5q-4 68 -9 108.5t-9 65.5t-7 34t-5 11q-16 0 -41 1t-46.5 1t-37.5 1l-17 1q-6 0 -10 10q0 8 6 13q8 6 27.5 9t42 5t43.5 3t33 1q63 0 79.5 -14.5 t16.5 -26.5v-129v-183.5t-1 -214t-3 -222.5q0 -236 -6 -367q-2 -61 -3.5 -94t-3.5 -50.5t-4 -21.5t-4 -6q-23 -20 -94 -21q-41 0 -77 5.5t-52 11.5q-12 0 -8 12z" />
<glyph unicode="^" horiz-adv-x="645" d="M100 457l213 331q2 4 3 8.5t3 4.5q12 -29 24.5 -51.5t32 -56.5t48.5 -88t76 -142q4 -10 2 -12q-4 -2 -5 -5.5t-3 -1.5l-41 -14q-8 -2 -17 6l2 2l-121 318l-192 -310l-2 -2l-4 -2q-8 -8 -17 -2q-6 6 -2 17z" />
<glyph unicode="_" horiz-adv-x="872" d="M82 -31q-2 2 2 11q4 4 10 2l692 -15q12 -4 13 -12q0 -8 -11 -12l-4 -2h-2l-682 -25h-2q-8 0 -12 10z" />
<glyph unicode="`" horiz-adv-x="387" d="M80 785.5q-6 13.5 6 27.5q12 16 28.5 14t26.5 -12q6 -4 29 -25.5t46.5 -47t40.5 -49t11 -31.5q-6 -6 -31.5 7t-55 32.5t-54.5 38t-31 22.5q-10 10 -16 23.5z" />
<glyph unicode="a" d="M-2 219q0 55 13.5 109.5t37.5 99.5q57 102 146 102q102 0 133 -90q4 -12 -6 -16q-12 -4 -17 8q-14 38 -43 60q-18 14 -38 13q-13 0 -27 -5q-39 -16 -53.5 -70.5t-24.5 -118.5q-5 -38 -5 -74q0 -23 2 -45q5 -58 21 -94q23 -51 61 -51h5h6q39 18 74 72q10 16 17 31.5 t11 27.5q6 14 8 29v2q2 16 2.5 31.5t0.5 29.5t10 24.5t25.5 16.5t32 9.5t28.5 3.5q6 0 10 -7q8 -8 8 -45q0 -19 -2 -45q-2 -25 -3 -52.5t0 -55t5 -49t15 -33.5q8 -8 20 -8q18 0 32.5 14t27 34.5t20.5 44t14 42.5q16 53 24.5 95t8.5 44q4 12 10 12q4 0 10.5 -7t4.5 -13 q0 -2 -9.5 -44t-25.5 -95q-41 -141 -109 -152q-4 -2 -18.5 -6t-42.5 -4q-41 0 -68 26q-18 18 -24.5 48t-8.5 65q-4 -6 -7 -13t-7 -14q-59 -98 -153 -98q-76 0 -117 66q-35 57 -35 145z" />
<glyph unicode="b" horiz-adv-x="690" d="M2 338q0 59 15.5 151.5t52.5 178.5q45 106 113.5 161.5t156.5 55.5q66 0 104 -45q33 -41 33 -111q0 -68 -30.5 -142.5t-84.5 -133.5q-100 -113 -237 -142q6 -59 14 -111.5t19 -95.5q8 29 23.5 57.5t35.5 55.5q80 98 170 98q78 0 121 -65q39 -59 39 -146q49 35 90 82 t57 115q5 14 15 10t10 -14q-16 -59 -49 -106.5t-86 -88.5q-10 -8 -19.5 -15t-19.5 -13q-4 -43 -18.5 -83t-37.5 -73q-41 -55 -100 -78q-2 -2 -8 -2q-35 -10 -68 -10q-43 0 -61 12q-12 10 -15.5 21.5t-3.5 21.5q0 41 44.5 70t107.5 59l37 19q2 18 2 37.5t-2 40.5 q-6 59 -16.5 111t-43.5 61q-7 2 -15 2q-23 -1 -49 -21q-34 -26 -60 -59q-31 -39 -49.5 -83t-18.5 -81q4 -12 5 -22.5t3 -16.5q2 -8 4 -12q4 -10 -6 -15q-2 -2 -30.5 -12t-55.5 -10q-20 0 -35 45q-8 16 -14 40.5t-12 53.5q-12 61 -19.5 127t-7.5 121zM115 526q-1 -18 -1 -36 q0 -56 5 -121q2 -8 2 -16.5v-16.5q131 29 223 133q51 57 80 127t29 133q0 61 -27 94q-31 37 -86 37q-51 0 -92 -20q-2 0 -2 -1t-2 -1q-84 -43 -115 -183q-12 -57 -14 -129zM258 -117q0 -14 7 -22t48 -8q16 0 31.5 2t28.5 6q12 23 26.5 57.5t20.5 83.5q-16 -8 -25 -10 q-57 -29 -97 -54.5t-40 -54.5z" />
<glyph unicode="c" horiz-adv-x="436" d="M0 242q0 57 15.5 114.5t41.5 104.5q29 53 69 80.5t81 29.5h8q41 -4 57 -22q14 -18 12.5 -45t-8.5 -49q-4 -12 -14 -9q-10 0 -10 15q7 28 7 46.5t-7 27.5q-4 4 -13.5 8t-23.5 -2q-16 -6 -29.5 -25.5t-23.5 -47.5t-18.5 -60.5t-14.5 -65.5t-8 -71q-1 -19 -1 -37t1 -36 q2 -36 7 -68t13 -50q18 -39 41 -43t27 -4q35 6 72.5 35.5t69.5 69.5t55.5 85t31.5 80q4 10 17 10q4 -2 6 -9t0 -11q-12 -49 -43 -105.5t-74 -101.5q-44 -44 -96 -70q-38 -18 -75 -19q-15 0 -30 3q-35 2 -64.5 24.5t-47.5 53.5q-16 25 -23.5 74t-7.5 90z" />
<glyph unicode="d" horiz-adv-x="755" d="M-6 227q0 102 51 183q57 92 145 92q72 0 113 -49q6 100 22.5 183t41.5 148q68 170 184 170q70 0 106 -69q33 -61 33 -158q0 -76 -20.5 -152.5t-57.5 -136.5q-41 -70 -94 -106q-55 -37 -115 -43q2 -168 29 -260t55 -119q8 -8 17 -8h2q45 2 82 31.5t65.5 73.5t48 95.5 t33 95.5t19.5 73.5t6 31.5q0 10 12 10q14 -4 10 -14q0 -4 -14 -67.5t-45 -141.5q-41 -94 -86 -145q-61 -68 -135 -68q-16 0 -52 11.5t-71 60.5q-57 78 -72 223q-4 -8 -8 -16.5t-8 -18.5q-51 -98 -146 -98q-76 0 -116 57q-35 51 -35 131zM106 213q6 -53 23 -86q24 -49 67 -49 h3q23 0 42 26.5t29 45.5q14 31 23 59q4 15 6 29q0 4 2 4q-2 18 -2 37.5v39.5v43.5t2 43.5q-14 34 -42 60q-18 16 -38 17q-12 0 -26 -6q-41 -16 -61 -60q-22 -43 -28 -97q-3 -27 -3 -54t3 -53zM403 313q70 6 116 49.5t73 88.5q35 59 54.5 131.5t19.5 144.5q0 92 -31 147 t-84 56h-4l-4 -4q-78 -27 -113 -205q-14 -74 -20.5 -173t-6.5 -235z" />
<glyph unicode="e" horiz-adv-x="522" d="M-4 231q0 53 13.5 104.5t37.5 92.5q57 98 146 98q41 0 67 -32q23 -27 23 -72q0 -35 -12.5 -69t-34.5 -62q-49 -59 -121 -66q0 -25 3 -66.5t14 -82.5t32.5 -72t58.5 -37q49 0 99.5 34t93.5 84t72.5 108.5t37.5 107.5q5 10 15 10q16 -4 12 -14q-12 -59 -43 -122.5t-79 -117 t-111.5 -88.5t-139.5 -35q-63 0 -100 33t-55.5 79t-23.5 97.5t-5 87.5zM113 250q39 4 63.5 21.5t38.5 35.5q43 53 43 115q0 34 -16 57q-14 18 -45 23q-61 -61 -78 -189q-4 -16 -4 -31.5t-2 -31.5z" />
<glyph unicode="f" horiz-adv-x="462" d="M-13 83q3 118 19 239q18 143 52 259.5t79 200.5q92 170 205 170q57 0 84 -47q16 -30 16 -62q0 -38 -22 -77q-27 -49 -90 -82q-70 -33 -158 -33q-33 -129 -63 -340q-12 -98 -15 -219q-1 -31 -1 -63q0 -89 7 -179q8 -119 24.5 -200.5t39.5 -106.5q6 -6 8 -6q70 0 100 64 q31 61 31 166q0 57 -9 122.5t-26 128.5q-63 6 -104 58q-43 49 -43 102q0 25 12 41q6 6 15.5 12.5t25.5 6.5q27 0 57 -50q10 -23 22.5 -50t22.5 -62q8 -18 11 -33q78 4 116.5 72.5t65.5 185.5q0 12 14 8q12 -4 9 -14q-16 -72 -34 -118t-40 -81q-49 -72 -125 -78 q16 -63 25.5 -128.5t9.5 -122.5q0 -113 -33 -177q-40 -77 -121 -77h-2q-45 0 -82 43q-25 29 -53.5 97t-42.5 208q-8 80 -8 168q0 27 1 54zM145 178q0 -43 37 -86q10 -12 30.5 -27.5t49.5 -19.5q-6 10 -8 23q-25 80 -47.5 112.5t-32.5 32.5q-14 0 -20 -8q-8 -8 -9 -27z M178 676q78 4 135.5 29.5t85.5 72.5q16 29 18.5 59.5t-11.5 55.5q-23 35 -64 35h-2q-4 -4 -6 -4q-82 -27 -141 -207q-4 -10 -7.5 -20.5t-7.5 -20.5z" />
<glyph unicode="g" horiz-adv-x="559" d="M-315 -477q0 119 96 205q113 94 311 94q166 0 289 -47q0 12 1 24.5t1 24.5q0 119 -18.5 208t-30.5 132q-10 -25 -29 -58q-59 -98 -153 -98q-76 0 -117 66q-35 57 -35 145q0 55 13.5 109.5t37.5 99.5q57 102 146 102q102 0 133 -90q4 -12 -6 -16q-12 -4 -17 8 q-29 74 -110 74q-29 0 -56 -17q-25 -49 -34 -115q-5 -34 -5 -68q0 -30 4 -60q10 -72 37 -123t68 -76q43 18 74 72q10 16 17 31.5t11 27.5q6 14 9 29v2v2h2v2h2q0 2 1 2t1 2h2q14 4 27 4q31 0 55 -20q12 -10 26.5 -29.5t25.5 -53.5t18 -83t7 -119q0 -49 -6 -95t-16 -91 q16 -10 29.5 -21.5t25.5 -23.5q33 -35 52.5 -69t27.5 -61.5t10 -46t2 -20.5q0 -12 -12 -12t-12 12q-4 29 -12 59q-8 27 -24.5 57.5t-47.5 63.5q-10 10 -21.5 19.5t-23.5 17.5q-4 -12 -8 -24.5t-9 -24.5q-43 -113 -122 -199q-23 -25 -49.5 -46t-55.5 -40q-2 0 -4 -2l-4 -2 q-131 -78 -289 -78q-109 0 -174 72q-31 33 -46 74t-15 88zM-291 -477q0 -88 55 -146q59 -63 156 -63q156 0 281 78q88 76 133 184q16 41 28.5 84t16.5 90q-119 47 -287 47q-188 0 -295 -90q-43 -35 -65.5 -83t-22.5 -101z" />
<glyph unicode="h" horiz-adv-x="645" d="M0 338q0 59 15.5 151.5t52.5 178.5q94 217 270 217q70 0 104 -45q35 -45 35 -111q0 -68 -31.5 -142.5t-85.5 -133.5q-47 -55 -108.5 -91t-128.5 -51q10 -82 22.5 -151.5t22.5 -114.5q20 76 59 133q27 41 55.5 64.5t55.5 23.5q31 0 52.5 -18.5t36.5 -47t26.5 -63.5 t21.5 -67q6 -20 12.5 -40t12.5 -34q8 -16 12 -20.5t6 -4.5t10.5 4.5t19.5 20.5t26.5 48t31.5 87q10 31 16.5 60.5t12.5 52.5q6 27 12 53q4 14 15 10q10 -4 10 -14q0 -2 -11.5 -54.5t-31.5 -115.5q-10 -37 -22.5 -65.5t-22.5 -51.5q-23 -43 -45 -53q0 -2 -13.5 -11.5 t-42.5 -9.5t-48 16.5t-34.5 42t-27 57.5t-21.5 63q-12 39 -25.5 72.5t-29.5 33.5q-4 0 -6 2q-18 -18 -43 -53q-51 -80 -68 -174q0 -2 2 -4q0 -12 -8 -15q-2 -2 -30.5 -12t-53.5 -10q-20 0 -37 45q-6 16 -13 40.5t-13 53.5q-10 53 -16.5 108.5t-8.5 106.5zM116 369l5 -33 q63 14 119.5 47t101.5 86q51 57 81 127t30 133q0 59 -29 94q-31 37 -86 37q-51 0 -92 -20l-4 -2q-86 -45 -113 -183q-16 -76 -16 -176q-1 -52 3 -110z" />
<glyph unicode="i" horiz-adv-x="272" d="M-2 547q0 27 14.5 45t36.5 18q23 0 37 -18.5t14 -44.5q0 -27 -14 -46.5t-37 -19.5t-37 19.5t-14 46.5zM2 162q-1 22 -1 45t1 45q2 45 2 82q0 29 23.5 49t50.5 20q14 0 17 -14t5 -29q0 -14 1 -33.5t1 -41.5q0 -41 1 -87t8 -87q12 -82 45 -82q20 0 37.5 25.5t32 65.5 t26.5 87t24 92q5 10 15 10q14 0 10 -14q-10 -39 -20.5 -90t-32 -98.5t-56 -80t-90.5 -32.5q-39 0 -59 24q-20 20 -29.5 59.5t-11.5 84.5z" />
<glyph unicode="j" horiz-adv-x="235" d="M-422 -369q12 66 56 133.5t108 116.5q119 92 258 96q6 66 7 125q1 30 1 56t-1 49q-1 45 -3 73l-2 27q-2 8 8 12q2 0 33 5.5t55 1.5q20 -2 29 -50q4 -18 5 -42.5t3 -55.5q1 -18 1 -36q0 -36 -3 -74q-4 -58 -12 -109q4 -2 4 -12l-6 -6q0 -4 -1 -6.5t-1 -4.5 q-6 -31 -16.5 -68.5t-26 -79.5t-36 -84t-46.5 -81q-111 -170 -260 -170q-25 0 -45 6q-66 10 -95 64q-18 33 -18 73q0 20 4 41zM-400 -410.5q-1 -23.5 7 -46t27.5 -42t56.5 -25.5q19 -3 38 -3l56 7q2 0 4 2q90 25 145 158q43 106 62 280q2 10 2 17.5t2 15.5q-131 -4 -244 -90 q-59 -47 -101 -110.5t-52 -125.5q-2 -14 -3 -37.5zM2 481q0 27 14.5 45.5t34.5 18.5q23 0 37 -18.5t14 -45.5t-14 -46t-37 -19q-20 0 -34.5 19.5t-14.5 45.5z" />
<glyph unicode="k" horiz-adv-x="686" d="M2 244q-1 17 -1 34q0 42 4 86q5 60 13 111q6 29 15.5 66t25.5 77v3q0 6 2 8q16 43 37 89t47 87q59 96 129 151q86 63 179 64q39 0 62.5 -10.5t35.5 -23.5t16 -28.5t4 -25.5q0 -47 -38.5 -103.5t-104.5 -105.5q-121 -86 -270 -109q-4 -27 -8.5 -55.5t-8.5 -56.5 q-4 -45 -6 -86l-4 -82q10 27 23.5 51.5t29.5 46.5q23 35 49.5 57.5t55.5 38.5q2 0 2 1t2 1t3 1t3 1q39 16 76 17q35 0 56.5 -27.5t21.5 -72.5q0 -35 -14.5 -68t-39.5 -59q-20 -23 -55 -41q23 -25 37 -60t24.5 -71.5t16.5 -75.5t10 -72q4 -25 6 -46.5t6 -37.5q4 -10 6.5 -14 t4.5 -8t4 -5q31 0 57.5 18.5t49 48.5t40 65.5t29.5 70.5q14 39 24.5 76t16.5 66.5t9 47.5l3 19q4 10 14 10q14 -4 11 -14l-3 -19q-3 -20 -10.5 -49.5t-17.5 -67.5t-25 -77q-33 -90 -77 -149q-66 -80 -118 -81h-2q-50 0 -87 42q-37 43 -58.5 113.5t-27.5 133.5q-4 33 -6 62 t-9 51q-10 -2 -20 -2h-21q-33 0 -47 8q-12 6 -15 14.5t-3 12.5q0 16 18.5 28.5t40.5 12.5q51 0 88 -25q16 12 23 53q11 40 11 68q0 12 -2 22q-7 33 -27.5 41.5t-51 -10t-61.5 -63.5q-33 -45 -51.5 -98.5t-20.5 -102.5v-40t2 -30q0 -14 2 -26q0 -10 -8 -12q-2 -2 -32.5 -12.5 t-55.5 -10.5q-8 0 -16 8q-6 8 -11.5 26.5t-7.5 40t-3 44t-1 39.5zM162 639q90 16 153.5 48t98.5 56q59 45 96 96.5t37 92.5q0 29 -21 45q-25 18 -73 18q-53 0 -97 -20q-2 0 -2 -1t-2 -1q-94 -45 -149 -185q-12 -33 -22.5 -69.5t-18.5 -79.5zM190 291q1 -2 5 -4q8 -6 36 -6 h16.5t16.5 2q-8 16 -15 20t-16 4h-6h-2q-16 0 -25.5 -6t-9.5 -10z" />
<glyph unicode="l" horiz-adv-x="456" d="M2 319q0 291 70 465q66 170 182 170q59 0 90 -53q29 -45 29 -123t-25.5 -162t-71.5 -155q-72 -115 -170 -156q0 -176 28 -271t56 -124q8 -8 19 -8q45 2 82 31.5t65.5 73.5t48 95.5t33 95.5t19.5 73.5t6 31.5q0 10 14 10q10 -4 10 -14q-2 -4 -15 -67.5t-46 -141.5 q-37 -94 -86 -145q-61 -68 -135 -68q-16 0 -51 11.5t-70 60.5q-82 109 -82 370zM106 332q84 37 150 141q43 70 67.5 152t24.5 153v5q0 66 -24 106q-23 41 -70 41h-2q-2 -2 -3 -2t-3 -2q-78 -29 -113 -205q-12 -72 -19.5 -166t-7.5 -223z" />
<glyph unicode="m" horiz-adv-x="901" d="M-4 270q4 10 6 23.5t6 28.5q8 33 16.5 65.5t19.5 59t26.5 44t35.5 17.5q49 0 62 -55q6 -25 8 -56.5t4 -72.5v-17q2 -12 2 -23.5v-21.5q14 47 30.5 95.5t37.5 91.5q33 72 61 106q33 49 66 49q18 0 35 -16q28 -28 28 -102v-17q0 -66 -4 -139q-2 -12 -2 -24.5t-2 -24.5 q0 2 1 2t1 2q10 45 28.5 77.5t35.5 55.5q29 41 61.5 64.5t56.5 23.5q27 0 45.5 -24.5t31 -65.5t20.5 -93.5t14 -105.5q6 -41 11 -79t14 -66q10 -37 16 -45.5t10 -8.5t11.5 4.5t18.5 17.5t25.5 39.5t30.5 74.5q10 27 17.5 52t13.5 46q8 23 12 45q5 10 15 10q12 -4 8 -16 q-4 -23 -12 -45q-6 -20 -13.5 -47t-17.5 -54q-41 -121 -88 -147q-2 -2 -3 -2t-3 -2q-35 -10 -58 -10q-18 0 -33.5 5t-31.5 15q-31 18 -49.5 55t-29.5 81t-16.5 91.5t-9.5 87.5q-2 27 -4 48.5t-6 38.5q-2 25 -8 30q-8 -8 -15.5 -15t-13.5 -18q-16 -20 -33.5 -52t-27.5 -72 q-9 -35 -9 -68t9 -64q8 0 12 -8q4 -12 -8 -16q-25 -8 -51 -8q-37 0 -60 20q-23 18 -33 49t-12 70q-1 20 -1 40t1 40q2 41 6 80q6 43 6 78q0 10 -1 16t-1 10q-18 -31 -43 -80q-29 -61 -51 -131.5t-33 -128.5l-2 -4q0 -33 -8 -56.5t-33 -35.5q-12 -6 -24 -6t-21 6 q-27 16 -32 71.5t-7 131.5q0 63 -6 123q-14 -47 -22 -93q-4 -14 -6 -27.5t-7 -23.5q-4 -12 -16 -8t-8 14z" />
<glyph unicode="n" horiz-adv-x="653" d="M2 287q8 33 20.5 81t28 92t33.5 75.5t41 31.5q20 0 32.5 -23.5t18.5 -66.5t8 -101.5t2 -127.5v-42.5t2 -35.5v-23.5t2 -21.5q10 39 26.5 76t35.5 69q8 16 22.5 36t31 37t34.5 29.5t37 12.5q47 0 76 -74q10 -31 17 -67.5t13 -73.5q4 -25 8.5 -49.5t10.5 -46t13 -34.5 t17 -13q4 0 12.5 4t18.5 17t24.5 40t30.5 74q10 27 17.5 52.5t13.5 45.5q8 23 13 45q4 10 14 10q8 -2 8 -16q-2 -2 -12 -46t-31 -99q-41 -121 -88 -148q-2 -2 -3 -2t-3 -2q-37 -12 -68 -12q-37 0 -63 20q-25 16 -38 43t-19.5 58.5t-8.5 66.5t-2 66q0 20 -1 37.5t-3 29.5 q-2 8 -2 12.5t-2 8.5t-4 4h-2q-29 -25 -60 -78q-29 -49 -49 -105.5t-30 -109.5q0 -35 -8.5 -60.5t-34.5 -37.5q-6 -4 -17 -4q-8 0 -16 4q-31 20 -37 105t-6 231q2 49 2 95t-4 81q-10 -29 -18.5 -68t-28.5 -106q-2 -10 -13 -11q-4 2 -9 6.5t-3 8.5z" />
<glyph unicode="o" horiz-adv-x="530" d="M2 303q14 88 64 143q48 48 109 48q12 0 24 -2q55 -10 88 -35q8 4 17 7t20 -1q25 -4 39 -37t18 -57q8 -41 10 -97q0 -14 1 -28q0 -39 -5 -70q-4 -16 -8 -27q29 -2 49.5 4.5t42.5 28.5q47 51 66 119q0 12 14 8q12 0 8 -14q-8 -39 -26.5 -71t-43.5 -58q-42 -42 -98 -42 q-9 0 -18 1q-10 -31 -34 -57.5t-54.5 -43t-67.5 -23.5q-20 -4 -39 -4q-17 0 -33 3q-88 16 -127 113q-23 58 -23 122q0 34 7 70zM111 202q0 -12 -1 -23q0 -43 7 -68q9 -49 39 -67q23 -14 50 -13q8 0 15 1q35 5 70 29.5t57 63.5q-37 10 -66.5 40t-45.5 58q-14 27 -19.5 57.5 t0.5 63.5q10 53 37 86q4 4 6 5t4 5q-14 10 -30.5 18.5t-36.5 8.5q-25 0 -43.5 -44t-29.5 -102.5t-13 -118.5zM240 340q-3 -16 -3 -32q0 -40 19 -72q14 -23 39.5 -50.5t58.5 -35.5q4 12 8 28q4 26 4 59q0 17 -1 35q-3 54 -11 90q-6 35 -16 55.5t-19 22.5q-4 0 -7 -1t-7 -1 q10 -10 18.5 -23.5t12.5 -29.5q4 -12 -6 -16q-12 -4 -17 8q-10 27 -30 49q-31 -27 -43 -86z" />
<glyph unicode="p" horiz-adv-x="628" d="M-17 -608v21q0 33 2 71q3 51 7 106q4 35 6 69t4 62q0 35 1 102.5t1 148.5v167v157v116v47q0 8 8 12l90 37q6 0 11 -2q6 -4 6 -10v-199q10 20 21.5 38.5t25.5 37.5q39 47 84 72.5t90 25.5q74 0 119 -68q20 -29 29.5 -65.5t9.5 -77.5q0 -51 -13 -94q53 12 94.5 43t55.5 96 q4 12 14 8q14 -4 10 -14q-18 -78 -68 -112.5t-114 -47.5q-16 -39 -37 -65q-39 -55 -100 -78q-2 -2 -6 -2q-16 -6 -33.5 -8t-34.5 -2q-61 0 -88 39q-10 16 -13 33.5t-3 31.5q0 41 53 53q39 8 109 9q12 2 23 2h24q4 25 5 52t-3 60q-4 59 -22.5 106.5t-45.5 69.5 q-31 -8 -61.5 -28.5t-57.5 -55.5q-57 -68 -67 -137v-928q0 -2 -1 -4t-1 -4q-2 0 -10.5 -8t-30.5 -8q-23 0 -56 16q-18 10 -27 39t-10 70zM186 88q0 -29 14.5 -54.5t65.5 -25.5q35 0 60 8q10 18 21 46t20 65h-21.5t-21.5 -2q-66 -2 -102 -7t-36 -30z" />
<glyph unicode="q" horiz-adv-x="667" d="M-4 217q0 55 14.5 109.5t36.5 97.5q59 104 146 104q39 0 71.5 -15t54.5 -42v68q0 4 7 10q4 4 10 0l96 -31q8 -4 8 -12q0 -2 -2 -44t-4 -109.5t-4 -153.5t-4 -174t-2 -171t2 -147q14 84 44 142.5t65 111.5q18 31 37.5 64.5t38 74.5t35 90.5t28.5 112.5q4 14 14 10 q14 -4 10 -14q-25 -129 -64.5 -208t-78.5 -142q-23 -37 -43 -72t-35.5 -76t-25 -91t-9.5 -116q4 -12 -8 -27.5t-45 -41.5q-20 -16 -33 -17q-14 0 -26 13q-14 16 -21.5 54t-8.5 92v28q0 43 2 93q3 67 9 140q2 35 4 62.5t2 48.5v94q-4 -6 -7 -13t-7 -16q-59 -98 -156 -98 q-76 0 -116 66q-35 57 -35 145zM97 320q3 -46 7 -76q4 -41 17.5 -91.5t36 -80t53.5 -26.5t70 71q10 16 17 31.5t11 27.5q6 14 8 29l2 2v217q-12 35 -46.5 57.5t-79.5 22.5q-43 0 -65 -29t-28 -69q-4 -28 -4 -57q0 -14 1 -29z" />
<glyph unicode="r" horiz-adv-x="370" d="M-55 381q0 10 1 34.5t6 49t15 44t29 19.5q25 0 34 -30.5t10 -68.5v-19q0 -28 -2 -56q-3 -37 -5 -49v-2q20 -2 41.5 -2t44.5 2h51q23 0 35 -14q16 -21 16 -58v-8q-2 -43 -8 -92q-4 -43 -7 -85t11 -58q8 -8 23 -8q8 2 22 20q10 16 27.5 47t40.5 88q10 29 18 59.5t14 53.5 q8 27 13 53q4 12 14 8q12 -4 8 -16q-4 -27 -12 -53q-6 -25 -14.5 -54.5t-18.5 -60.5q-8 -23 -21.5 -55.5t-34 -63.5t-47 -53.5t-59.5 -22.5q-27 0 -45 21q-18 18 -25 52t-9 74q-1 20 -1 40.5t1 40.5q2 41 6 75l4 46h-2q-29 -2 -59.5 -1t-55 10t-42 30.5t-17.5 62.5zM-31 381 q0 -63 39 -64q9 71 9 113v8q-1 43 -17 62l-2 2q-14 -16 -21.5 -50t-7.5 -71z" />
<glyph unicode="s" horiz-adv-x="342" d="M-121 547q0 12 5 30.5t16 36.5q25 47 71 48q57 0 86 -48q26 -37 27 -92q0 -6 -1 -11q-3 -62 -20 -128q49 -55 95.5 -118.5t68.5 -133.5q39 29 70 70t47 98q4 12 16 8q14 -4 11 -16q-23 -66 -59 -110t-79 -75q8 -31 9 -67q0 -127 -76 -182q-25 -16 -50.5 -23.5t-41.5 -9.5 q-6 -2 -17 -2q-25 0 -41 20t-16 56q0 53 29.5 87.5t70.5 63.5q-18 68 -51 130.5t-67 121.5q-41 66 -72 128.5t-31 117.5zM-86 588q0 -29 34 -71t81 -95q4 -4 7 -8t7 -8q6 25 10 47t6 43q1 9 1 18q0 55 -23 88q-16 23 -34.5 29t-31.5 6q-33 0 -51 -35l-6 -12v-2zM25 -102 q0 -27 12 -41q8 -8 14 -11q2 2 4 2h13q16 4 31.5 28t15.5 69t-9 80q-35 -27 -58 -55.5t-23 -71.5z" />
<glyph unicode="t" horiz-adv-x="325" d="M-764 651q-10 8 0 19q27 27 55.5 51t70.5 42.5t104.5 29t158.5 10.5q61 0 147.5 -12.5t180.5 -26.5q12 -4 24.5 -5t24.5 -3q0 35 1 65.5t1 59.5q0 6 6 10l10 4q11 4 25 6t30.5 -1t28.5 -15q6 -8 8 -37q1 -16 2 -48q0 -25 -1 -61q59 -10 116.5 -15t110.5 -7q23 -1 43 -1 q159 0 213 54q8 12 16 0q10 -8 2 -16q-61 -63 -233 -63q-20 0 -41 1q-53 2 -110.5 7.5t-116.5 15.5v-32.5t-2 -35.5q-1 -85 -3 -185q0 -23 -1 -46q0 -75 4 -144q2 -35 5 -71.5t7 -70.5t12 -59.5t19 -37.5l8 -4q43 4 73.5 46t51.5 85q10 25 19 49t16 45q8 23 10 43 q0 10 14 10q10 -4 10 -20q-2 -4 -13 -46t-33.5 -92.5t-56.5 -93.5t-81 -51h-6h-6h-4q-43 0 -74 31q-37 37 -54 113q-18 74 -25 170q-6 84 -6 175v27q1 106 3 203v8q-12 2 -24.5 3t-26.5 5q-94 14 -179 26.5t-145 12.5q-86 0 -147.5 -9t-106.5 -28q-39 -16 -64.5 -38.5 t-54.5 -51.5q-2 -2 -8 -2t-8 2z" />
<glyph unicode="u" horiz-adv-x="550" d="M-29 475v2q0 10 11 15q4 0 6 -3q16 2 27.5 3.5t21.5 3.5q27 6 35 -2q8 -6 8 -31v-4q0 -16 3 -59.5t11 -90.5t19.5 -88t23.5 -53q2 -2 6 -2h2q27 25 60 88q18 37 29.5 69.5t15.5 41.5q0 8 10 12q35 2 55 6q29 4 35 -2q8 -8 8 -31v-4q0 -18 3.5 -59t9.5 -85t15 -81t22 -49 l2 -2q41 12 85 72.5t62 158.5q4 12 14 12q14 -4 11 -14q-8 -45 -25.5 -91t-44.5 -84t-59.5 -61.5t-69.5 -23.5q-39 0 -73 51t-50 127q-6 23 -5 45.5t-1 40.5q-6 -14 -12 -28.5t-15 -30.5q-57 -121 -118 -121q-63 0 -107 180q-14 59 -21.5 109.5t-9.5 62.5z" />
<glyph unicode="v" horiz-adv-x="612" d="M-2 276q47 262 154 263q27 0 45 -28t30.5 -74t20.5 -106.5t16 -123.5q6 -47 11.5 -90t13.5 -76q4 -25 9 -37t9 -18q4 -8 8 -9h7q2 2 4 3q4 2 13 12t19 41q8 23 15.5 51.5t11.5 62.5l10 72q-16 25 -16 72q0 20 2 35.5t6 25.5q4 12 9 23.5t16 11.5q10 0 14 -12q2 -4 2 -15 q0 -20 -2 -56t-6 -79q19 -30 64 -30h3q49 0 83 31.5t44 68.5q4 12 17 8q12 -4 8 -14q-18 -57 -66 -92q-41 -27 -86 -27q-47 0 -71 23l-6 -50q-12 -78 -27 -118q-20 -57 -49 -70l-4 -2q-10 -4 -21.5 -6t-21.5 -2q-37 0 -64 18q-55 39 -82 156q-12 49 -19 102t-11 101 q-2 29 -4.5 53t-6.5 45q-4 25 -8 32t-6 9h-4l-6 -10q-33 -66 -53 -179q-4 -10 -15 -10q-14 4 -10 14z" />
<glyph unicode="w" horiz-adv-x="804" d="M-1 70v15q0 31 3 71q4 35 4 74.5t-6 80.5q0 8 6 15q6 0 10 4q10 6 21.5 11t23.5 5q29 0 41 -41q6 -20 9.5 -54t5.5 -72q1 -15 1 -30q0 -21 -2 -43q-3 -36 -10 -63q18 14 36 55t34.5 89.5t29.5 96.5t23 78q23 66 40.5 108t45.5 42q27 0 43.5 -25.5t25.5 -66.5t13 -93.5 t6 -105.5q0 -20 -1 -55t-2 -71t-1 -67.5t2 -45.5q6 -39 12.5 -46.5t8.5 -7.5h6h2h4q23 14 50.5 65.5t56.5 133.5q23 68 34 129q-6 18 -6 45q0 20 3 35.5t6 25.5q4 12 10 23.5t16 11.5q8 0 14 -12v-14q0 -16 -4 -46t-14 -69q4 -4 4 -8q20 -43 76 -43q49 0 84 30.5t45 67.5 q2 12 14 8q12 -2 8 -14q-8 -29 -25.5 -51.5t-39.5 -38.5q-43 -27 -86 -27q-61 0 -88 39q-6 -25 -13.5 -49.5t-15.5 -50.5q-14 -43 -28.5 -78t-28.5 -64q-39 -68 -74 -75h-4h-2q-18 -6 -37 -6q-31 0 -55 18q-27 18 -39 67.5t-16.5 109t-4.5 120.5v104q0 23 -1 47.5t-3 43.5 q-4 -12 -8 -24.5t-8 -27.5q-12 -39 -27.5 -95t-35 -110.5t-43 -95.5t-54.5 -51q-4 -4 -13 -5t-13 -1h-2q-31 0 -46 18q-20 20 -21 56z" />
<glyph unicode="x" horiz-adv-x="493" d="M-125 -68q0 12 12 13q45 0 77 9t56.5 27.5t44 47t41.5 65.5q-14 49 -23 99.5t-17 95.5q-4 25 -9.5 49t-9.5 43q-4 -18 -9 -38.5t-11 -43.5l-2 -8l-2 -8q-4 -12 -17 -9q-4 0 -6 6.5t0 10.5q2 14 10 46t19.5 65.5t27 59t33.5 25.5q41 0 67.5 -62.5t49.5 -154.5q2 6 10 19 q49 94 78 139t51 45q12 0 12 -12t-12 -12q-2 0 -8 -7q-4 -4 -12.5 -14t-18.5 -27q-16 -23 -32.5 -54.5t-36.5 -70.5q-4 -10 -10.5 -21t-12.5 -22q4 -23 9 -44t9 -44q18 -102 41 -174q14 -49 23.5 -57t11.5 -8l4 -2q10 2 34 29.5t56 91.5q33 63 56.5 134.5t38.5 143.5 q4 12 14 8q14 0 10 -14q-14 -72 -38.5 -145.5t-57.5 -137.5q-16 -35 -44 -76.5t-56 -54.5q0 -2 -2 -2q-23 -8 -43 -8q-29 0 -58 16q-63 39 -106 172q-20 -27 -40 -52t-45.5 -44.5t-60 -32t-84.5 -12.5q-12 0 -12 12z" />
<glyph unicode="y" horiz-adv-x="741" d="M-125 -512q-8 22 -8 46q0 36 17 76q30 68 98 122q43 33 105.5 61.5t133.5 56.5q49 23 100.5 44.5t100.5 46.5q2 10 2 28q0 59 -5 120t-13.5 117t-17.5 104t-15 81q-4 -23 -11.5 -48.5t-15.5 -53.5q-51 -166 -113 -166q-68 0 -108 47q-55 61 -62 201q-4 33 0 61 q-20 -51 -38 -151q0 -14 -15 -11q-10 0 -10 15q16 78 32.5 136t39.5 95q20 35 35.5 43t21.5 8q27 0 43 -16q12 -16 16.5 -37.5t4.5 -47.5t-3.5 -51.5t-3.5 -47.5q0 -25 -1 -63v-25q0 -25 1 -47q2 -35 9.5 -60t23.5 -25h14q14 0 27.5 16.5t26 40t20.5 49.5t15 42 q18 59 27 107.5t9 50.5h2v2v2l2 2h3q0 2 2 2h2q10 3 20 3q24 0 45 -18q51 -39 76 -163q12 -49 18.5 -107.5t6.5 -114.5q0 -14 -1.5 -27.5t-1.5 -27.5q4 4 8.5 5t8.5 5q84 61 132 131t64 156q5 10 15 10q14 -4 10 -14q-20 -115 -86 -190.5t-154 -133.5q-10 -100 -32 -178 q-37 -121 -105 -209q-57 -74 -137 -123q-2 0 -2 -1t-2 -1q-2 -2 -6 -2q-4 -4 -8.5 -5t-8.5 -5q-100 -47 -215 -47q-53 0 -89 21.5t-50 62.5zM-102 -504q10 -35 40.5 -51t75.5 -16q128 0 228 57q37 33 67.5 79t53 101t38 117.5t21.5 128.5q-47 -23 -95 -43.5t-96 -40.5 q-70 -29 -131 -56.5t-102 -60.5q-63 -47 -92 -112q-14 -36 -14 -66q0 -20 6 -37z" />
<glyph unicode="z" horiz-adv-x="595" d="M-88 -489q-9 29 -9 59q0 48 23 96q23 47 60 88t88 78q41 29 86 49.5t90 38.5q8 4 16 7t17 7q-12 55 -40 96.5t-69 61.5q-43 -23 -92 -24h-4q-31 0 -45 20q-6 12 0 25q12 26 75 26h5h2h2h4h4q6 0 13 -1t18 -3q35 83 52 143q13 45 13 77q0 12 -2 22q-59 -47 -119 -68 q-38 -15 -69 -15q-7 0 -13 1q-4 -2 -10 -2q-4 0 -8 4q-12 2 -18 6q-31 12 -43.5 33.5t-12.5 38.5v10q0 33 25 47q23 10 43 -4q10 -6 22 -30q9 -18 10 -54q0 -12 -1 -25h6q34 0 87 22q58 24 144 105q14 12 24.5 12.5t14.5 -3.5q23 -11 25 -63q0 -7 1 -14q0 -45 -12 -91 q-8 -31 -25.5 -71t-49.5 -75q-4 -4 -9.5 -10t-11.5 -10q16 -4 31.5 -11.5t32.5 -17.5q63 -39 92 -115q23 12 44 26.5t42 33.5q53 47 88 111.5t51 154.5q4 14 14 10q14 -4 11 -14q-14 -76 -39 -131t-56.5 -96t-69.5 -70t-77 -49q6 -23 8 -46.5t2 -49.5q0 -51 -6 -98.5 t-22 -90.5q-12 -41 -32 -76.5t-42 -66.5q-47 -57 -106.5 -89t-121.5 -32q-53 0 -94 28.5t-57 78.5zM-66 -481q14 -43 48 -66.5t81 -23.5q43 0 91 18q0 2 2 4q43 37 70.5 77t42 87t19.5 102.5t5 122.5q0 18 -1 36t-3 34q-20 -8 -29 -12q-45 -18 -88 -38t-84 -48 q-98 -68 -139 -156q-21 -49 -22 -92q1 -23 7 -45zM-49 375q0 -10 8 -24.5t31 -24.5q2 0 4 -1t6 -1q4 37 -3 57t-17 27q-8 4 -11 4q-4 0 -6 -2q-4 -4 -9 -11.5t-3 -23.5zM53 100q2 -2 8.5 -5t18.5 -3q33 2 61 12q-18 6 -28 11q-33 0 -45.5 -5.5t-14.5 -9.5z" />
<glyph unicode="{" horiz-adv-x="409" d="M23 465q0 20 17 30.5t34 18.5q14 4 25.5 10t11.5 15q2 117 3 210t3 158q2 63 3 99t3 52.5t4 21.5t4 7q23 20 94 21q41 0 77 -5t52 -11q10 0 11 -13q-4 -10 -15 -10h-31q-14 0 -33.5 1t-41.5 1q-4 0 -12.5 -5t-16.5 -23.5t-17.5 -53.5t-17.5 -92q-16 -133 -18 -362 q-2 -20 -19.5 -29.5t-33.5 -16.5q-10 -4 -21.5 -9t-13.5 -11q4 -4 15 -9t22 -9q20 -8 34.5 -15.5t14.5 -21.5v-52v-14q2 -92 6 -182t8 -164q4 -59 9 -97t9.5 -59.5t7.5 -31t5 -11.5q35 0 64.5 -2t31.5 -2q6 0 10 -10q4 -8 -6 -12q-18 -10 -47.5 -14.5t-54.5 -4.5 q-63 0 -80 14.5t-17 26.5v90.5v143.5t1.5 176t1.5 190q-2 4 -14.5 11.5t-20.5 11.5q-20 8 -35.5 17.5t-15.5 25.5zM47 465l4 -4q-2 2 -2 8q-2 -2 -2 -4z" />
<glyph unicode="|" horiz-adv-x="477" d="M193 -317l32 1525l2 2v2q4 12 15 13q4 0 6 -4t6 -9l4 -1538q2 -4 0 -6t-2 -4q-4 0 -7 -2t-3 2l-43 4q-10 5 -10 13v2z" />
<glyph unicode="}" horiz-adv-x="432" d="M23 -213q4 10 14 10q14 -2 31 -2h75q4 0 12.5 5t16.5 23.5t17.5 52.5t17.5 93q16 133 18 363q2 20 19.5 29.5t34.5 15.5q10 4 21 9t13 11q-4 4 -15 9.5t-22 9.5q-20 8 -34.5 15t-14.5 22v51v14q-2 92 -6 182.5t-8 163.5q-4 59 -9 97t-9.5 59.5t-7.5 31t-5 11.5 q-35 0 -64.5 2t-31.5 2q-6 0 -10 10q-4 8 6 13q18 10 47.5 14t54.5 4q63 0 80 -14.5t17 -26.5v-90.5v-143t-1 -177t-1 -189.5q2 -4 14 -11t20 -12q20 -8 36 -17t16 -26q0 -20 -17.5 -30.5t-34.5 -18.5q-14 -4 -25.5 -10t-11.5 -14q-2 -117 -3 -210t-3 -159q-2 -63 -3 -99 t-3 -52.5t-4 -21.5t-4 -7q-23 -20 -94 -21q-41 0 -77 5.5t-52 11.5q-10 0 -10 12z" />
<glyph unicode="~" horiz-adv-x="868" d="M104 322q0 25 16.5 42t43.5 17q39 0 87 -16.5t100 -37t104.5 -37t97.5 -16.5q53 0 98 28t68 73q16 4 17 -4.5t-5 -22.5q-18 -41 -64 -72.5t-118 -31.5q-49 0 -95 15t-91.5 34.5t-90.5 36t-92 20.5q-4 -25 -15 -44t-32 -19q-12 0 -20.5 12t-8.5 23zM129 317q0 -4 2 -4 q0 -2 2 -2q12 0 16.5 9.5t6.5 19.5h-2v10q-12 0 -18.5 -12t-6.5 -21z" />
<glyph unicode="&#xa1;" horiz-adv-x="425" d="M6 -334q-4 12 10 17q2 0 3 1t4 1q2 0 2 1t2 1q47 29 71 159q10 55 15.5 126t7.5 157q2 147 -6.5 223t-8.5 78q0 10 9 12q2 0 29.5 7.5t52.5 7.5h8q14 -2 19 -15.5t9 -29.5t5.5 -37l3.5 -49q0 -25 1 -39.5t1 -28.5t-1 -33.5t-3 -52.5q-12 -203 -60 -332 q-55 -154 -157 -182q-12 -4 -17 8zM88 586q0 31 17.5 50t46.5 19q27 0 43 -19.5t16 -49.5q0 -33 -16.5 -51.5t-42.5 -18.5q-29 0 -46.5 18.5t-17.5 51.5z" />
<glyph unicode="&#xa2;" horiz-adv-x="786" d="M115 453q0 76 19.5 147.5t58.5 126.5q39 57 91 88t113 39l4 154v4q8 8 13 8q4 0 5 -3t3 -5v-156h8q94 0 145 -45q35 -27 49.5 -60.5t20.5 -60.5q2 -16 3 -27.5t1 -21.5v-20q0 -8 -12 -9q-10 0 -10 9v19t-5.5 47t-19.5 57.5t-41 54.5q-49 39 -119 39q-4 -4 -12 -4h-8 l4 -687q29 6 49.5 16.5t36.5 20.5q25 20 42 44t21 48q0 4 4.5 6.5t8.5 2.5q8 -2 8 -11q-8 -47 -52 -88t-118 -57v-137v-4q0 -2 -2 -2t-5 -2t-3 2l-33 2q-6 6 -6 8v2l2 127h-17q-121 0 -188 102q-29 45 -44 102.5t-15 123.5zM243.5 511q-7.5 -83 0.5 -159q25 -174 121 -209 h14l16 684q-29 -10 -51 -36q-39 -41 -68 -123q-25 -74 -32.5 -157z" />
<glyph unicode="&#xa3;" horiz-adv-x="792" d="M53 391l6 51q0 12 13 13l141 -11q2 113 19.5 207t50.5 160q33 68 79 104q45 37 103 37q72 0 121 -45q41 -45 41 -106q0 -41 -19.5 -81t-56.5 -69q-84 -68 -229 -71q-2 -33 -3.5 -68t-1.5 -76l203 -14q12 -4 12 -12q0 -12 -12 -13l-203 -10q-2 -76 -13 -150.5t-32 -115.5 q41 2 80 -6.5t78 -18.5q66 -16 126 -24.5t118 26.5q6 6 14 -2q6 -6 2 -14q0 -2 -17.5 -22.5t-58.5 -39.5q-59 -25 -133 -24q-72 0 -151 20q-100 25 -148.5 17t-62.5 -17q-6 -2 -8 -8q-4 -4 -8.5 -5t-8.5 3q-6 6 -4 14q0 6 4 11l2 2q-2 0 6 4q39 45 91 67q10 31 15 108t5 171 l-147 -6q-2 0 -11 4q-2 2 -2 10zM211 84q2 0 4 2h-2zM324 604q135 4 211 66q67 55 67 131q0 53 -35 88q-39 39 -102 39h-2q-4 -4 -6 -4q-78 -23 -111 -166q-8 -33 -13 -70t-9 -84z" />
<glyph unicode="&#xa4;" horiz-adv-x="1028" d="M49 170q-4 8 2 14l2 2l158 142q-31 39 -48.5 84t-17.5 98q0 96 58 172l-150 133l-2 2q-6 6 -2 14l29 35q0 4 8 4q6 0 8 -4l139 -149q45 45 106.5 70.5t133.5 25.5t135.5 -27.5t108.5 -74.5l133 149l2 2q6 6 14 2l35 -28q4 0 4 -9q0 -6 -4 -8l-153 -143q25 -35 39 -77 t14 -89q0 -98 -62 -178l162 -150q4 -2 4 -8q0 -8 -4 -8l-35 -29q-8 -4 -14 2l-2 2l-141 158q-45 -43 -105.5 -67.5t-130.5 -24.5q-68 0 -127 23.5t-104 64.5l-148 -160q-2 -4 -8 -4q-8 0 -8 4zM274 510q0 -57 17 -113l57 52l2 2l4 2q10 4 17 -2q4 -4 0 -19l-66 -70 q29 -59 72 -92.5t94 -33.5q53 0 98 38.5t70 102.5l-51 59l-2 2l-2 4q-4 10 2 17q4 4 18 0l47 -45q12 45 13 96q0 35 -11 80l-49 -47q-14 -4 -18 0q-6 6 -2 16l2 4l2 2l57 64q-23 63 -65.5 106t-85.5 53q-14 4 -13.5 2t-17.5 1q-51 -4 -95 -44t-69 -102l72 -76q4 -14 0 -18 q-6 -6 -17 -2l-4 2l-2 2l-61 53q-13 -47 -13 -96z" />
<glyph unicode="&#xa5;" horiz-adv-x="768" d="M106 905q0 12 10.5 24.5t25 24t27.5 20.5t21 13q6 2 13 0q6 -4 6 -10l15 -53q14 -52 37.5 -126.5t51 -156.5t56.5 -143q20 27 28 32q27 63 52.5 141.5t46 146t32.5 113.5l13 46q2 8 8 10q6 4 10 0q8 -4 22.5 -13t28 -19.5t23.5 -22.5t12 -25q14 -86 -123 -282 q-33 -47 -62.5 -86t-51.5 -62q-8 -35 -12.5 -66.5t-8.5 -60.5l154 -6q6 -4 6 -6q0 -6 -4 -6l-2 -2h-2l-154 -8v-47.5t2 -43.5l154 -6q6 -4 6 -6q0 -6 -4 -6l-2 -2h-2l-150 -8q0 -12 2 -17q6 -68 16.5 -108.5t10.5 -42.5q0 -6 -4 -8q-4 -8 -8 -9l-132 -6q-12 0 -12 13 q0 4 -3 53t7 121l-96 -4h-2q-8 0 -12 10l-4 22q-2 2 2 11q4 4 10 2l106 -4q6 43 19 81l-119 -4h-2q-8 0 -12 11l-4 22q-2 2 2 10q4 4 10 2l135 -6l12 31q10 27 19.5 45t17.5 35q-18 20 -51 55t-68 80q-135 178 -123 307z" />
<glyph unicode="&#xa6;" horiz-adv-x="395" d="M158 -317l32 649l3 2v2q4 12 14 12q4 0 6 -4t6 -8l4 -662q2 -4 0 -6t-2 -4q-4 0 -7 -2t-3 2l-43 4q-10 5 -10 13v2zM158 541v2l32 657l3 2v2q4 12 14 13q4 0 6 -4.5t6 -8.5l4 -669q2 -4 0 -6.5t-2 -4.5q-4 0 -7 -2t-3 2l-43 4q-10 5 -10 13z" />
<glyph unicode="&#xa7;" horiz-adv-x="927" d="M123 489q0 53 13.5 90t37.5 78q-16 49 -16 99q0 121 56 222t175 155q74 37 154 36q94 0 151 -57q53 -53 54 -154q0 -31 -6.5 -63.5t-22.5 -63.5q-27 -55 -74 -106q-45 -47 -92 -74.5t-86 -27.5q-10 0 -10 10q0 12 10 12q33 0 77 25.5t85 68.5q47 51 72.5 108.5 t25.5 110.5q0 88 -49 138.5t-135 50.5q-2 -2 -6 -2q-119 0 -193 -92q-33 -41 -55.5 -100.5t-26.5 -123t12.5 -124t61.5 -103.5q33 -33 76 -58.5t86 -49.5q41 -23 83 -48.5t72 -56.5q74 -68 74 -156q0 -106 -61 -170q27 -41 26 -96q0 -113 -71 -180q-63 -59 -170 -59 q-80 0 -137.5 26.5t-82.5 73.5q-33 70 9 127q18 27 50 38t66 3q8 0 9 -12q-4 -8 -13 -9q-66 10 -94 -32q-16 -23 -18 -50.5t12 -54.5q20 -41 72.5 -64.5t126.5 -23.5q82 0 131 50t49 120q0 59 -46 101t-139 90q-53 27 -109 62.5t-104.5 81.5t-79 104t-30.5 130zM246 543 q-6 -63 2 -113.5t53 -93.5q33 -33 76 -58.5t86 -50.5q41 -23 83 -48t72 -56l23 -25q25 37 25 88q0 59 -46.5 101.5t-138.5 89.5q-59 29 -122.5 70.5t-112.5 95.5z" />
<glyph unicode="&#xa8;" horiz-adv-x="448" d="M72 743q0 27 14 45.5t37 18.5t37 -18.5t14 -45.5t-14 -46t-37 -19t-37 19.5t-14 45.5zM227 743q0 27 14.5 45.5t37.5 18.5t37 -18.5t14 -45.5t-14 -46t-37 -19t-37.5 19.5t-14.5 45.5z" />
<glyph unicode="&#xa9;" horiz-adv-x="1116" d="M51 545q0 115 24.5 235.5t83 220t155 163t241.5 63.5q117 0 198 -64.5t129 -165t65.5 -220.5t8 -229.5t-44 -194.5t-90.5 -113l-2 22q31 12 54.5 86t32.5 178.5t-2 221t-49 217t-109.5 166t-182.5 65.5q-76 0 -137 -29.5t-108.5 -80t-79 -115t-45.5 -133.5 q-14 -68 -18.5 -152t4.5 -170t35 -167t70 -143.5t110.5 -100t158.5 -37.5q51 0 102.5 18t95.5 45t77.5 56.5t54.5 54.5q8 10 20 5t4 -22q-29 -35 -65.5 -69.5t-86.5 -63.5t-116 -47t-154 -18q-96 0 -176 41t-137 111.5t-89 164.5t-32 201zM313 592q0 57 15.5 114.5 t42.5 104.5q29 53 68.5 81t80.5 30h8q41 -4 58 -23q14 -18 12 -45t-8 -49q-4 -12 -15 -8q-10 0 -10 14q14 55 0 74q-10 8 -37 12q-29 -31 -52 -85t-34 -120q-6 -33 -8 -70.5t0 -73.5t7 -67.5t14 -50.5q18 -39 40.5 -43t26.5 -4q35 6 73 36t69.5 69.5t55 84.5t32.5 80 q4 10 16 11q4 -2 6 -9.5t0 -11.5q-12 -49 -43 -105.5t-74 -101.5t-95 -70.5t-105 -15.5q-35 2 -65 24.5t-48 53.5q-16 25 -23.5 74t-7.5 90z" />
<glyph unicode="&#xaa;" horiz-adv-x="831" d="M86 672q0 55 13.5 109.5t37.5 99.5q57 102 146 102q102 0 133 -90q4 -12 -6 -16q-12 -4 -17 8q-14 37 -45 60.5t-67 8.5q-35 -14 -52.5 -67t-22.5 -119t1 -127t18 -90q25 -55 66 -51h6q39 18 74 71q10 16 17 31.5t11 28.5q6 14 9 28v3q2 16 2 31.5v29.5t10 24.5 t25.5 16.5t32 9t28.5 3q6 0 10 -6q12 -12 6 -90q-2 -25 -3 -52.5t0 -55t5 -49t15 -34.5q8 -8 20 -8q18 0 32.5 14.5t27 35t20.5 44t14 41.5q16 53 24.5 95.5t8.5 44.5q4 12 10 12q4 0 10.5 -7t4.5 -13q0 -2 -9.5 -44t-25.5 -96q-41 -141 -109 -151q-4 -2 -18 -6.5t-43 -4.5 q-41 0 -68 27q-18 18 -24 48t-8 65q-4 -6 -7.5 -13.5t-7.5 -13.5q-59 -98 -153 -98q-76 0 -117 65q-35 57 -35 146zM150 387q-2 2 2 10q4 4 10 2l405 -14q12 -4 13 -12q0 -8 -11 -13l-4 -2h-2l-395 -24h-2q-8 0 -12 10z" />
<glyph unicode="&#xab;" horiz-adv-x="827" d="M78 434.5q2 14.5 2 24.5l8 8l401 371q12 12 17 8q6 -8 -2 -17l-6 -6l-375 -438l375 -279l2 3q8 -8 6 -17l-14 -41q2 -2 -1.5 -3t-5.5 -5q-2 -2 -12 2q-113 74 -186.5 131t-116.5 99t-62.5 72t-25.5 51.5t-4 36zM303 434.5q2 14.5 2 24.5l8 8l402 371q12 12 16 8 q6 -8 -2 -17l-6 -6l-375 -438l375 -279l2 3q8 -8 6 -17l-14 -41q2 -2 -1 -3t-5 -5q-2 -2 -13 2q-113 74 -186.5 131t-116.5 99t-62.5 72t-25.5 51.5t-4 36z" />
<glyph unicode="&#xad;" horiz-adv-x="671" d="M111 332q-2 2 2 10q4 4 10 2l405 -14q12 -4 13 -13q0 -8 -11 -12l-4 -2h-2l-395 -24h-2q-8 0 -12 10z" />
<glyph unicode="&#xae;" horiz-adv-x="1064" d="M86 545q0 115 24.5 235.5t83 220t154.5 163t242 63.5q117 0 197.5 -64.5t129 -165t65.5 -220.5t8 -229.5t-44 -194.5t-90 -113l-2 22q31 12 54.5 86t32.5 178.5t-2 221t-49 217t-109.5 166t-182.5 65.5q-76 0 -137.5 -29.5t-108.5 -80t-78.5 -115t-46.5 -133.5 q-14 -68 -18 -152t5 -170t34.5 -167t69.5 -143.5t111 -100t159 -37.5q51 0 102 18t95 45t78 56.5t55 54.5q8 10 20 5t4 -22q-29 -35 -65.5 -69.5t-87 -63.5t-116 -47t-153.5 -18q-96 0 -176 41t-137 111.5t-89 164.5t-32 201zM301 358q0 4 8 4q16 0 30.5 4.5t31.5 10.5l2 4 q59 29 78 125q16 82 10 192q-6 98 -20.5 173t-16.5 85q-8 -4 -21.5 -5t-27 -4t-24.5 -6t-13 -9q-2 -4 0 -12q0 -6 -4 -9h-4q-4 0 -4 4q-6 12 0 23q8 10 31.5 16.5t56.5 10.5q8 2 23.5 5t30.5 7t27.5 11t16.5 18q4 4 10 2q4 0 4 -11q-4 -10 -18 -18t-31 -14q6 -2 10 -19 q4 -10 8.5 -26.5t8.5 -34.5q18 -74 22 -146q8 25 17.5 50.5t21.5 48.5q16 25 30.5 43t33.5 34q4 4 8 6.5t8 6.5h2l2 4q14 6 28.5 10t31.5 4q23 0 39 -25.5t16 -68.5q0 -33 -10.5 -64.5t-26.5 -54.5q-10 -10 -20.5 -22.5t-26.5 -20.5q8 -14 16.5 -30.5t16.5 -36.5 q16 -49 23 -103.5t14 -105.5q2 -25 4 -45.5t6 -36.5q2 -10 4 -15.5t4 -9.5t4 -4q35 0 66 43q4 4 10 2q4 -6 0 -10q-37 -49 -76 -49h-6q-2 -2 -4 -2q-55 0 -80 86q-12 35 -17.5 80t-11.5 88q-4 37 -7 71.5t-11 61.5q-10 -2 -35 -2q-27 0 -35 6q-12 12 -12 18q0 14 13.5 26.5 t29.5 12.5q35 0 66 -24q10 6 14 24.5t8 42.5q4 47 -2 89t-18 53h-7q-6 -4 -11 -7.5t-9 -7.5q-29 -27 -59 -74q-29 -47 -41.5 -104t-16.5 -109q-12 -57 -35 -120q-29 -66 -65 -101q-23 -25 -52.5 -35t-58.5 -10q-8 0 -8 6zM567 696q0 -2 2 -2l4 -4q4 -2 10.5 -4t16.5 -2 q14 0 31 4q-4 10 -11.5 21.5t-23.5 11.5q-10 0 -19.5 -7t-9.5 -18z" />
<glyph unicode="&#xb0;" horiz-adv-x="493" d="M102 776q0 47 34 81t81 34t81 -34t34 -81t-34 -80.5t-81 -33.5t-81 33.5t-34 80.5z" />
<glyph unicode="&#xb1;" horiz-adv-x="757" d="M82 451q-2 2 2 10q4 4 10 2l234 -6l6 235q4 12 12 13q8 0 12 -11l2 -4v-2l11 -233l243 -6q12 -4 13 -13q0 -8 -11 -12l-4 -2h-2l-237 -12l12 -232v-2q0 -8 -10 -12l-43 -4q-2 -2 -10 2q-4 4 -3 10l7 236l-226 -11h-2q-8 0 -12 11zM139 113q-2 2 2 10q4 4 11 2l405 -14 q12 -4 12 -13q0 -8 -10 -12l-4 -2h-2l-395 -25h-2q-8 0 -13 11zM348 430h2v2h-2v-2z" />
<glyph unicode="&#xb2;" horiz-adv-x="425" d="M76 543v6q0 57 31.5 91t72.5 62q10 6 18.5 13.5t18.5 13.5q12 6 19.5 28.5t9.5 52.5t0 60.5t-8 55.5q-14 43 -48 34.5t-65 -36.5q-16 -20 -22.5 -43t-6.5 -54q0 -2 -5 -3t-7 -1q-6 0 -6 4q0 66 41 113q41 41 88 41h12l2 -2q31 -6 53 -31q29 -39 29 -100q0 -57 -35 -91 t-75 -65q-41 -29 -67 -57.5t-30 -67.5q16 6 52 12.5t61 -4.5q49 -23 72 -8q6 4 10 8.5t8 8.5t4 8t4 4q6 0 6 -6t-4 -15q-4 -6 -8 -14t-14 -12q-12 -6 -29 -6q-25 0 -55 14q-12 6 -32.5 4t-40 -6t-34.5 -8l-14 -4h-6z" />
<glyph unicode="&#xb3;" horiz-adv-x="425" d="M91 651q1 21 13 35q2 2 9 2q6 -6 6 -8q-20 -31 -4 -63.5t57 -32.5q29 0 45 22.5t23.5 54t5.5 65.5t-8 58q-10 -4 -21.5 -8t-21.5 -4q-8 0 -26.5 3t-18.5 16q0 12 11 17t26.5 6t30.5 -2t24 -5q4 10 7 23.5t3 29.5q4 55 -12 84q-8 25 -33 21h-2q-27 -4 -37 -21 q-10 -10 -12 -20.5t-4 -20.5t0 -22q0 -8 -7 -9q-2 0 -6 1t-4 4q0 45 17.5 74.5t76.5 29.5q31 0 54.5 -20.5t23.5 -55.5q0 -47 -33 -86q-4 -6 -8 -10l-8 -8q21 -7 29 -19q29 -29 28 -73q0 -51 -41 -97q-16 -16 -35.5 -27.5t-41.5 -15.5h-2q-4 -2 -11.5 -2h-13.5q-47 0 -70 45 q-10 18 -9 39zM164 791q12 -8 30.5 -6.5t32.5 10.5q-6 2 -17 2h-23.5t-19.5 -2t-3 -4z" />
<glyph unicode="&#xb4;" horiz-adv-x="376" d="M86 662q-6 8 11.5 31.5t41 49t46 47t28.5 25.5q10 10 26.5 12t28.5 -14q12 -14 6 -27.5t-16 -23.5q-6 -4 -30.5 -22.5t-54.5 -38t-55.5 -33t-31.5 -6.5z" />
<glyph unicode="&#xb7;" horiz-adv-x="315" d="M82 307q0 33 16.5 51.5t42.5 18.5q29 0 46.5 -18.5t17.5 -51.5q0 -31 -17.5 -50t-46.5 -19q-27 0 -43 19t-16 50z" />
<glyph unicode="&#xb8;" horiz-adv-x="352" d="M85 -146.5q1 11.5 9 15.5q16 -6 36 -12.5t37 -7.5t28.5 7.5t11.5 32.5q0 14 -15.5 17.5t-35 5.5t-35 5t-15.5 15q0 6 1.5 22.5t5.5 32t9 28t15 12.5q4 0 17.5 -2.5t11.5 -12.5q-2 -2 -4 -2q-2 -2 -4 -2h-2q-6 0 -13.5 -23.5t-7.5 -37.5q0 -10 17.5 -12.5t39 -5.5t39 -10 t17.5 -25q0 -33 -18.5 -47.5t-43 -18.5t-51 0t-41.5 10q-10 4 -9 15.5z" />
<glyph unicode="&#xb9;" horiz-adv-x="387" d="M94 889l2 4l16 8q17 8 39.5 22.5t47 31t45.5 32.5v2q2 0 2 2q2 2 6 0l2 -2v-2q-14 -37 -17.5 -105.5t-2 -137t4.5 -120.5l3 -53q0 -2 -2 -4l-4 -2l-54 -2h-2q-2 2 -2 4q0 4 -2 48t-1 101.5t5 112t15 78.5q4 8 7 17.5t7 15.5l-70 -80q-2 -2 -4 -2h-4l-35 27q-2 0 -2 4z " />
<glyph unicode="&#xba;" horiz-adv-x="417" d="M70 743q-4 88 28 158q20 35 43 57q29 23 58 23q20 0 38.5 -12.5t28.5 -34.5q10 -20 -1 -54t-30.5 -76t-39 -92t-27.5 -106q8 -12 16.5 -15t18.5 -3h6q39 6 57 37q16 25 24.5 57.5t10.5 69t-3 72.5t-13 67v6q10 4 16 -2q8 -31 13 -67.5t3 -74.5t-11 -74t-27 -63 q-33 -45 -95 -45q-57 0 -84 50q-29 49 -30 122zM129 737.5q2 -28.5 8 -57.5t21 -49q6 70 31.5 127t44 99t16.5 69.5t-51 40.5q-48 -21 -64 -119q-4 -25 -6 -53.5t0 -57z" />
<glyph unicode="&#xbb;" horiz-adv-x="774" d="M47 92q-2 8 6 17l2 -3l375 279l-375 438l-6 6q-8 8 -2 17q4 4 16 -8l402 -371l8 -8q0 -10 2 -24.5t-4 -36t-25.5 -51.5t-62.5 -72t-116.5 -99t-186.5 -131q-10 -4 -12 -2q-2 4 -5.5 5t-1.5 3zM272 92q-2 8 7 17l2 -3l374 279l-374 438l-7 6q-8 8 -2 17q4 4 17 -8 l401 -371l8 -8q0 -10 2 -24.5t-4 -36t-25.5 -51.5t-62.5 -72t-116.5 -99t-186.5 -131q-10 -4 -12 -2q-2 4 -5 5t-1 3z" />
<glyph unicode="&#xbc;" horiz-adv-x="745" d="M63 -2q0 6 3 8l534 971q4 2 6 5t6 1q8 -4 9 -12v-2v-2l-502 -971v-2q-4 -6 -13 -6l-34 6zM94 889l2 4l16 8q17 8 39.5 22.5t47 31t45.5 32.5v2q2 0 2 2q2 2 6 0l2 -2v-2q-14 -37 -17.5 -105.5t-2 -137t4.5 -120.5l3 -53q0 -2 -2 -4l-4 -2l-54 -2h-2q-2 2 -2 4q0 4 -2 48 t-1 101.5t5 112t15 78.5q4 8 7 17.5t7 15.5l-70 -80q-2 -2 -4 -2h-4l-35 27q-2 0 -2 4zM352 152q0 27 16.5 61.5t41 68t50 63.5t44.5 48q0 2 2 4q2 4 4 6.5t2 4.5v4q-2 6 2 10t10 -2q6 -12 -12 -39q-8 -10 -19.5 -33.5t-27.5 -52.5q-18 -45 -28.5 -75t-6.5 -44q6 2 12.5 2 t10.5 2q16 4 26 5t19 3q10 33 23.5 62t23.5 63q4 14 10 15q4 0 4 -6q2 -2 3 -5.5t-3 -19.5q-2 -10 -6 -28.5t-8 -45.5q-4 -20 -4 -30q16 0 22 -2.5t10 -4.5q6 -4 7 -12q0 -6 -7 -6q-8 0 -8 6l-4 2q-4 0 -8 1t-14 1q-2 -35 4 -62.5t12 -45.5q6 -25 16 -43q6 -8 11 -15v-6 q0 -2 -4 -6l-56 -18h-2q-6 0 -6 4q-33 80 -22 170q2 4 2 8t2 8l-36 -6t-46.5 -8t-39 -7.5t-14.5 -3.5h-2h-4q-2 0 -2 5z" />
<glyph unicode="&#xbd;" horiz-adv-x="727" d="M63 -2q0 6 3 8l534 971q4 2 6 5t6 1q8 -4 9 -12v-2v-2l-502 -971v-2q-4 -6 -13 -6l-34 6zM94 889l2 4l16 8q17 8 39.5 22.5t47 31t45.5 32.5v2q2 0 2 2q2 2 6 0l2 -2v-2q-14 -37 -17.5 -105.5t-2 -137t4.5 -120.5l3 -53q0 -2 -2 -4l-4 -2l-54 -2h-2q-2 2 -2 4q0 4 -2 48 t-1 101.5t5 112t15 78.5q4 8 7 17.5t7 15.5l-70 -80q-2 -2 -4 -2h-4l-35 27q-2 0 -2 4zM371 -14q0 57 31.5 91t72.5 62q10 6 18.5 13.5t18.5 13.5q12 6 19.5 28.5t9.5 52t0 60.5t-9 55q-4 16 -7 24.5t-11 12.5h-12q-43 0 -82 -39q-16 -20 -22.5 -42.5t-6.5 -53.5q0 -2 -5 -3 t-7 -1q-6 0 -6 4q0 66 41 113q41 41 88 41h12l2 -2q31 -6 53 -31q29 -39 29 -100q0 -57 -35 -91t-76 -65q-41 -29 -66.5 -57.5t-29.5 -67.5q16 6 52 12.5t61 -4.5q49 -23 71 -8q6 4 10.5 8t8.5 8t4 9q0 4 4 4q6 0 6 -6t-4 -15q-4 -6 -8 -14t-14 -12q-12 -6 -29 -6 q-25 0 -55 14q-12 6 -33 4t-40 -6t-33 -8l-15 -4h-6v6z" />
<glyph unicode="&#xbe;" horiz-adv-x="747" d="M63 -2q0 6 3 8l534 971q4 2 6 5t6 1q8 -4 9 -12v-2v-2l-502 -971v-2q-4 -6 -13 -6l-34 6zM91 651.5q-1 -20.5 9 -39.5q23 -45 70 -45h13t12 2h2q23 4 42 15.5t35 27.5q41 45 41 97q1 44 -28 73q-8 12 -29 19l8 8t8 10q33 39 33 86q0 35 -23.5 55.5t-54.5 20.5 q-59 0 -76.5 -29.5t-17.5 -74.5q0 -2 4 -3.5t6 -1.5q6 0 7 9q-2 12 0 22t4 20.5t12 20.5q10 16 37 21h2q25 4 33 -21q16 -29 12 -84q0 -16 -3 -29.5t-7 -23.5q-8 2 -23.5 5t-31 2t-26.5 -6t-11 -17t18 -15.5t27 -3.5q10 0 21 4l22 8q6 -25 8 -58.5t-5.5 -65t-23.5 -54 t-45 -22.5q-41 0 -57.5 32.5t4.5 63.5q0 2 -6 8q-6 0 -9 -2q-12 -14 -13 -34.5zM164 791q-4 2 3 4t19.5 2h23.5t17 -2q-14 -8 -32.5 -10t-30.5 6zM352 152q0 -4 2 -5h4h2q-2 0 14.5 3.5t39 7.5t46 8t36.5 6q-2 -4 -2 -8t-2 -8q-10 -90 22 -170q0 -4 6 -4h2l56 18q4 4 4 6v6 q-4 6 -11 15q-10 18 -16 43q-6 18 -12 45.5t-4 62.5q10 0 14 -1t8 -1l4 -2q0 -6 8 -6q6 0 7 6q0 8 -7 12q-4 2 -10 4.5t-22 2.5q0 10 4 30q4 27 8 45.5t6 28.5q4 16 3 19t-3 6q0 6 -4 6q-6 0 -10 -15q-10 -35 -23.5 -63.5t-23.5 -61.5q-8 -2 -18.5 -3t-26.5 -5 q-4 -2 -10.5 -2t-12.5 -2q-4 14 6 44t29 75q16 29 27.5 52.5t19.5 33.5q18 27 12 39q-6 6 -10 2t-2 -10v-4q0 -2 -2 -4.5t-4 -6.5q-2 -2 -2 -4q-18 -18 -44 -48t-50.5 -63.5t-41 -68.5t-16.5 -61z" />
<glyph unicode="&#xbf;" horiz-adv-x="579" d="M39 -182q0 55 13.5 99t35 81t49 67.5t56.5 61.5l6 6l6 6q35 47 40 102.5t3 110.5v39q0 8 8 17q8 8 27 8q10 0 21 -1t22 -3q12 -4 18 -4h2l4 -2h2v-3h2v-2v-2v-2q0 -94 -35.5 -159.5t-78.5 -127t-77 -132t-30 -175.5q2 -37 6 -68.5t18.5 -55t41 -37t71.5 -13.5 q23 0 47.5 8.5t47.5 20.5q45 31 69 76q18 41 15 90q-6 53 -50 102q-6 10 4 17q6 6 15 -2q86 -113 33 -215q-23 -51 -74 -84t-107 -33q-98 0 -159 49q-72 54 -72 160zM229 537q0 31 17.5 51t44.5 20q29 0 46 -20.5t17 -50.5q0 -33 -17 -52.5t-46 -19.5q-27 0 -44.5 19.5 t-17.5 52.5z" />
<glyph unicode="&#xc0;" horiz-adv-x="1267" d="M-201 41q-27 55 27 121q31 37 87 62.5t134 21.5q23 80 57 141q82 150 203 150q49 0 74 -25q25 -29 25 -70q0 -59 -40 -139t-110 -151q-45 -49 -94 -86t-99 -60q4 -16 9.5 -31.5t13.5 -25.5q37 -59 104 -60q63 0 119 27l6 6q113 55 179 240q29 72 45 166t26 204 q2 25 3 48.5t3 48.5q-100 51 -90 119q0 12 13 12q12 -4 12 -15q-4 -25 13.5 -46t51.5 -44q2 66 1 125.5t-2 106.5t-4 79.5t-3 45.5q-205 -18 -334 -76q-59 -27 -104 -57.5t-70 -67.5q-23 -33 -26.5 -60.5t0.5 -43.5q4 -12 -9 -17h-4q-8 0 -12 8q-4 10 -3 45t34 82 q29 41 76 73t108 60q86 41 177 57.5t175 25t152 16.5t108 37q-10 14 -10 30q0 23 14.5 39.5t34.5 16.5q12 0 21.5 -9.5t9.5 -25.5q0 -25 -24 -49q16 -8 57 -9q12 0 12 -12t-12 -12q-53 0 -80 12q-23 -14 -55.5 -25.5t-81.5 -21.5q147 -49 201 -270q14 -53 22 -113t12 -121 q59 -18 112.5 -37.5t91.5 -43t58.5 -51t14.5 -60.5q0 -12 -12 -13h-3q-10 6 -10 17q2 4 2 14t-8 23.5t-29.5 30t-60.5 34.5q-33 16 -72 30.5t-84 27.5q6 -111 6 -222q2 -100 5.5 -189t17.5 -157q14 -74 38.5 -135t63.5 -67q20 -4 36 1t28 15q23 16 28 38.5t5 24.5 q0 10 14 11q10 0 10 -15q0 -2 -7 -30.5t-34 -51.5q-31 -20 -63 -20q-4 0 -9.5 1t-9.5 1q-39 4 -65.5 38t-43 85t-23.5 113.5t-10 124t-4 118t-1 92.5q0 59 -2 116.5t-6 117.5q-16 4 -35 9t-35 11q-41 10 -81 23.5t-79 25.5q0 -10 -2 -14q-4 -39 -14 -89t-27.5 -105.5 t-40 -113.5t-53.5 -114q-74 -127 -153 -192q-96 -82 -216 -82q-84 0 -124 69q-16 25 -27 64q-57 -20 -107 -21q-14 0 -33.5 2.5t-39 9.5t-36 19t-24.5 33zM-178 51q18 -49 110 -49q45 0 103 21q-6 32 -6 73q0 29 3 60.5t11 64.5h-16q-63 0 -110.5 -22.5t-72.5 -51.5 q-43 -55 -22 -96zM53 96q0 -16 1 -31.5t3 -31.5q94 39 181 135q66 70 104.5 145.5t38.5 128.5q0 33 -16 50q-18 20 -58 20q-104 0 -180 -139q-35 -55 -53 -129q29 -4 55 -13q12 -4 8 -14q-4 -12 -14 -8q-14 4 -28.5 6t-26.5 4q-8 -31 -11.5 -62.5t-3.5 -60.5zM518.5 1322 q-6.5 14 5.5 28q12 16 28.5 14t27.5 -12q6 -4 28.5 -25.5t46 -47.5t41 -49.5t11.5 -31.5q-6 -6 -32 7.5t-55.5 32.5t-54 37.5t-30.5 22.5q-10 10 -16.5 24zM680 1014q8 -20 14 -58t11 -106q4 -61 2 -126t-7 -124q39 -12 80 -24.5t82 -26.5l62 -19q-6 88 -19.5 169t-41 146.5 t-71.5 109.5t-112 59zM846 1124q0 -10 6 -16q18 14 21.5 23.5t3.5 13.5q0 2 -1.5 6t-5.5 4q-10 0 -17 -10t-7 -21z" />
<glyph unicode="&#xc1;" horiz-adv-x="1267" d="M-201 41q-27 55 27 121q31 37 87 62.5t134 21.5q23 80 57 141q82 150 203 150q49 0 74 -25q25 -29 25 -70q0 -59 -40 -139t-110 -151q-45 -49 -94 -86t-99 -60q4 -16 9.5 -31.5t13.5 -25.5q37 -59 104 -60q63 0 119 27l6 6q113 55 179 240q29 72 45 166t26 204 q2 25 3 48.5t3 48.5q-100 51 -90 119q0 12 13 12q12 -4 12 -15q-4 -25 13.5 -46t51.5 -44q2 66 1 125.5t-2 106.5t-4 79.5t-3 45.5q-205 -18 -334 -76q-59 -27 -104 -57.5t-70 -67.5q-23 -33 -26.5 -60.5t0.5 -43.5q4 -12 -9 -17h-4q-8 0 -12 8q-4 10 -3 45t34 82 q29 41 75 73t109 60q92 39 185.5 55.5t174 25t146.5 17.5t106 38q-10 14 -10 30q0 23 14.5 39.5t34.5 16.5q12 0 21.5 -9.5t9.5 -25.5q0 -25 -24 -49q16 -8 57 -9q12 0 12 -12t-12 -12q-53 0 -80 12q-23 -14 -55.5 -25.5t-81.5 -21.5q147 -49 201 -270q14 -53 22 -113 t12 -121q59 -18 112.5 -37.5t91.5 -43t58.5 -51t14.5 -60.5q0 -12 -12 -13h-3q-10 6 -10 17q2 4 2 14t-8 23.5t-29.5 30t-60.5 34.5q-33 16 -72 30.5t-84 27.5q6 -111 6 -222q2 -100 5.5 -189t17.5 -157q14 -74 38.5 -135t63.5 -67q20 -4 36 1t28 15q23 16 28 38.5t5 24.5 q0 10 14 11q10 0 10 -15q0 -2 -7 -30.5t-34 -51.5q-31 -20 -63 -20q-4 0 -9.5 1t-9.5 1q-39 4 -65.5 38t-43 85t-23.5 113.5t-10 124t-4 118t-1 92.5q0 59 -2 116.5t-6 117.5q-16 4 -35 9t-35 11q-41 10 -81 23.5t-79 25.5q0 -10 -2 -14q-4 -39 -14 -89t-27.5 -105.5 t-40 -113.5t-53.5 -114q-74 -127 -153 -192q-96 -82 -216 -82q-84 0 -124 69q-16 25 -27 64q-57 -20 -107 -21q-14 0 -33.5 2.5t-39 9.5t-36 19t-24.5 33zM-178 51q18 -49 110 -49q45 0 103 21q-6 32 -6 73q0 29 3 60.5t11 64.5h-16q-63 0 -110.5 -22.5t-72.5 -51.5 q-43 -55 -22 -96zM53 96q0 -16 1 -31.5t3 -31.5q94 39 181 135q66 70 104.5 145.5t38.5 128.5q0 33 -16 50q-18 20 -58 20q-104 0 -180 -139q-35 -55 -53 -129q29 -4 55 -13q12 -4 8 -14q-4 -12 -14 -8q-14 4 -28.5 6t-26.5 4q-8 -31 -11.5 -62.5t-3.5 -60.5zM592 1198 q-6 8 11.5 31.5t41 49.5t46 47.5t28.5 25.5q10 10 26.5 12t28.5 -14q12 -14 6 -27.5t-16 -24.5q-6 -4 -30.5 -22.5t-54.5 -37.5t-55.5 -32.5t-31.5 -7.5zM680 1014q8 -20 14 -58t11 -106q4 -61 2 -126t-7 -124q39 -12 80 -24.5t82 -26.5l62 -19q-6 88 -19.5 169t-41 146.5 t-71.5 109.5t-112 59zM846 1124q0 -10 6 -16q18 14 21.5 23.5t3.5 13.5q0 2 -1.5 6t-5.5 4q-10 0 -17 -10t-7 -21z" />
<glyph unicode="&#xc2;" horiz-adv-x="1267" d="M-201 41q8 -20 24.5 -32.5t36 -19.5t39 -9.5t33.5 -2.5q49 0 107 21q10 -39 27 -64q41 -70 124 -69q119 0 216 82q80 66 153 192q31 55 53.5 113.5t40 114t27.5 105.5t14 89q2 4 2 14q39 -12 79 -25t81 -24q16 -6 34.5 -11t35.5 -9q4 -59 6 -116.5t2 -117.5q0 -37 1 -93 t4 -117.5t10 -124t23.5 -113.5t43 -85t65.5 -38q4 0 9.5 -1t9.5 -1q33 0 63 20q27 23 34 51.5t7 30.5q0 14 -10 15q-14 0 -14 -11q0 -2 -5.5 -24.5t-27.5 -38.5q-12 -10 -27.5 -15.5t-36.5 -0.5q-39 6 -63.5 67.5t-38.5 134.5q-14 68 -17 157t-6 189q0 111 -6 222 q45 -12 84 -26.5t72 -31.5q39 -18 60.5 -34.5t29.5 -30t8 -23.5t-2 -14q0 -10 10 -17h3q12 0 12 13q6 33 -14.5 60.5t-58.5 51t-91.5 43t-112.5 37.5q-4 61 -12 121t-22 113q-53 221 -201 270q49 10 81.5 21.5t55.5 25.5q27 -12 80 -12q12 0 12 12t-12 12q-41 0 -57 9 q25 25 24 49q0 16 -9 25.5t-22 9.5q-20 0 -34.5 -16.5t-14.5 -39.5q0 -16 10 -30q-20 -14 -61 -26.5t-113 -20.5q-31 0 -93 -9.5t-129.5 -24t-128 -28.5t-87.5 -27q-129 -53 -184 -133q-33 -47 -34 -81.5t3 -45.5q4 -8 12 -8h4q12 4 9 17q-4 16 0 43.5t26 60.5 q25 37 70 67.5t104 57.5q129 57 334 76q0 -12 3 -45t4 -80t2 -106.5t-1 -125.5q-35 23 -52 44.5t-13 45.5q0 10 -12 15q-12 0 -13 -12q-10 -68 90 -119q-2 -25 -3 -48.5t-3 -48.5q-10 -111 -26.5 -205t-44.5 -165q-66 -184 -179 -240l-6 -6q-55 -27 -119 -27q-68 0 -104 60 q-8 10 -13 25.5t-10 31.5q49 23 98.5 59.5t94.5 86.5q70 72 110 151.5t40 138.5q0 41 -25 70q-25 25 -74 25q-121 0 -203 -150q-35 -61 -57 -141q-78 4 -134 -21.5t-87 -62.5q-53 -66 -27 -121zM-178 51q-20 41 22 96q25 29 72 51.5t111 22.5h16q-8 -33 -11 -64.5t-3 -60.5 q0 -41 6 -73q-57 -20 -103 -21q-92 0 -110 49zM53 96q0 29 3 60.5t12 62.5q12 -2 26.5 -4t28.5 -6q10 -4 14 8q4 10 -8 14q-27 8 -55 13q18 74 53 129q76 139 180 139q39 0 58 -20q16 -16 16 -50q0 -53 -39 -128.5t-104 -145.5q-86 -96 -181 -135q-2 16 -3 31.5t-1 31.5z M575 1208q45 59 64.5 96t46.5 37q12 0 24.5 -13t23.5 -32.5t21.5 -41t20.5 -40.5q4 -10 2 -12q-4 -2 -5 -5t-3 -1l-29 -14q-10 -4 -14 8l-49 104l-80 -98l-4 -2q-8 -8 -16 -2q-6 6 -3 16zM680 1014q68 -14 112 -58.5t71.5 -110t41 -146.5t19.5 -169l-62 19q-41 14 -82 26.5 t-80 24.5q4 59 6.5 123.5t-1.5 126.5q-4 68 -10.5 105.5t-14.5 58.5zM846 1124q0 10 7 20.5t17 10.5q4 0 5.5 -4t1.5 -6q0 -4 -3.5 -13.5t-21.5 -23.5q-6 6 -6 16z" />
<glyph unicode="&#xc3;" horiz-adv-x="1267" d="M-201 41q8 -20 24.5 -32.5t36 -19.5t39 -9.5t33.5 -2.5q49 0 107 21q10 -39 27 -64q41 -70 124 -69q119 0 216 82q80 66 153 192q31 55 53.5 113.5t40 114t27.5 105.5t14 89q2 4 2 14q39 -12 79 -25t81 -24q16 -6 34.5 -11t35.5 -9q4 -59 6 -116.5t2 -117.5q0 -37 1 -93 t4 -117.5t10 -124t23.5 -113.5t43 -85t65.5 -38q4 0 9.5 -1t9.5 -1q33 0 63 20q27 23 34 51.5t7 30.5q0 14 -10 15q-14 0 -14 -11q0 -2 -5.5 -24.5t-27.5 -38.5q-12 -10 -27.5 -15.5t-36.5 -0.5q-39 6 -63.5 67.5t-38.5 134.5q-14 68 -17 157t-6 189q0 111 -6 222 q45 -12 84 -26.5t72 -31.5q39 -18 60.5 -34.5t29.5 -30t8 -23.5t-2 -14q0 -10 10 -17h3q12 0 12 13q6 33 -14.5 60.5t-58.5 51t-91.5 43t-112.5 37.5q-4 61 -12 121t-22 113q-53 221 -201 270q49 10 81.5 21.5t55.5 25.5q27 -12 80 -12q12 0 12 12t-12 12q-41 0 -57 9 q25 25 24 49q0 16 -9 25.5t-22 9.5q-20 0 -34.5 -16.5t-14.5 -39.5q0 -16 10 -30q-20 -14 -61 -26.5t-113 -20.5q-4 2 -8 2q-29 0 -49 -7q-117 -10 -212 -30.5t-169 -53.5q-129 -53 -184 -133q-33 -47 -34 -81.5t3 -45.5q4 -8 12 -8h4q12 4 9 17q-4 16 0 43.5t26 60.5 q25 37 70 67.5t104 57.5q129 57 334 76q0 -12 3 -45t4 -80t2 -106.5t-1 -125.5q-35 23 -52 44.5t-13 45.5q0 10 -12 15q-12 0 -13 -12q-10 -68 90 -119q-2 -25 -3 -48.5t-3 -48.5q-10 -111 -26.5 -205t-44.5 -165q-66 -184 -179 -240l-6 -6q-55 -27 -119 -27q-68 0 -104 60 q-8 10 -13 25.5t-10 31.5q49 23 98.5 59.5t94.5 86.5q70 72 110 151.5t40 138.5q0 41 -25 70q-25 25 -74 25q-121 0 -203 -150q-35 -61 -57 -141q-78 4 -134 -21.5t-87 -62.5q-53 -66 -27 -121zM-178 51q-20 41 22 96q25 29 72 51.5t111 22.5h16q-8 -33 -11 -64.5t-3 -60.5 q0 -41 6 -73q-57 -20 -103 -21q-92 0 -110 49zM53 96q0 29 3 60.5t12 62.5q12 -2 26.5 -4t28.5 -6q10 -4 14 8q4 10 -8 14q-27 8 -55 13q18 74 53 129q76 139 180 139q39 0 58 -20q16 -16 16 -50q0 -53 -39 -128.5t-104 -145.5q-86 -96 -181 -135q-2 16 -3 31.5t-1 31.5z M563 1255q0 18 16.5 31.5t30.5 13.5q27 0 51.5 -21.5t53.5 -21.5q16 0 36.5 4.5t30.5 38.5q20 6 15 -12q-10 -31 -32 -44t-50 -13q-18 0 -33.5 7t-27 16.5t-21.5 16.5t-21 7q-14 0 -25.5 -9t-11.5 -16v-6q1 -2 3 -4q-14 -2 -15 12zM680 1014q68 -14 112 -58.5t71.5 -110 t41 -146.5t19.5 -169l-62 19q-41 14 -82 26.5t-80 24.5q4 59 6.5 123.5t-1.5 126.5q-4 68 -10.5 105.5t-14.5 58.5zM846 1124q0 10 7 20.5t17 10.5q4 0 5.5 -4t1.5 -6q0 -4 -3.5 -13.5t-21.5 -23.5q-6 6 -6 16z" />
<glyph unicode="&#xc4;" horiz-adv-x="1267" d="M-201 41q-27 55 27 121q31 37 87 62.5t134 21.5q23 80 57 141q82 150 203 150q49 0 74 -25q25 -29 25 -70q0 -59 -40 -139t-110 -151q-45 -49 -94 -86t-99 -60q4 -16 9.5 -31.5t13.5 -25.5q37 -59 104 -60q63 0 119 27l6 6q113 55 179 240q29 72 45 166t26 204 q2 25 3 48.5t3 48.5q-100 51 -90 119q0 12 13 12q12 -4 12 -15q-4 -25 13.5 -46t51.5 -44q2 66 1 125.5t-2 106.5t-4 79.5t-3 45.5q-205 -18 -334 -76q-59 -27 -104 -57.5t-70 -67.5q-23 -33 -26.5 -60.5t0.5 -43.5q4 -12 -9 -17h-4q-8 0 -12 8q-4 10 -3 45t34 82 q55 80 184 133q74 33 169 53.5t212 30.5q20 6 49 7q4 0 8 -2q72 8 113 20t61 27q-10 14 -10 30q0 23 14.5 39.5t34.5 16.5q12 0 21.5 -9.5t9.5 -25.5q0 -25 -24 -49q16 -8 57 -9q12 0 12 -12t-12 -12q-53 0 -80 12q-23 -14 -55.5 -25.5t-81.5 -21.5q147 -49 201 -270 q14 -53 22 -113t12 -121q59 -18 112.5 -37.5t91.5 -43t58.5 -51t14.5 -60.5q0 -12 -12 -13h-3q-10 6 -10 17q2 4 2 14t-8 23.5t-29.5 30t-60.5 34.5q-33 16 -72 30.5t-84 27.5q6 -111 6 -222q2 -100 5.5 -189t17.5 -157q14 -74 38.5 -135t63.5 -67q20 -4 36 1t28 15 q23 16 28 38.5t5 24.5q0 10 14 11q10 0 10 -15q0 -2 -7 -30.5t-34 -51.5q-31 -20 -63 -20q-4 0 -9.5 1t-9.5 1q-39 4 -65.5 38t-43 85t-23.5 113.5t-10 124t-4 118t-1 92.5q0 59 -2 116.5t-6 117.5q-16 4 -35 9t-35 11q-41 10 -81 23.5t-79 25.5q0 -10 -2 -14 q-4 -39 -14 -89t-27.5 -105.5t-40 -113.5t-53.5 -114q-74 -127 -153 -192q-96 -82 -216 -82q-84 0 -124 69q-16 25 -27 64q-57 -20 -107 -21q-14 0 -33.5 2.5t-39 9.5t-36 19t-24.5 33zM-178 51q18 -49 110 -49q45 0 103 21q-6 32 -6 73q0 29 3 60.5t11 64.5h-16 q-63 0 -110.5 -22.5t-72.5 -51.5q-43 -55 -22 -96zM53 96q0 -16 1 -31.5t3 -31.5q94 39 181 135q66 70 104.5 145.5t38.5 128.5q0 33 -16 50q-18 20 -58 20q-104 0 -180 -139q-35 -55 -53 -129q29 -4 55 -13q12 -4 8 -14q-4 -12 -14 -8q-14 4 -28.5 6t-26.5 4 q-8 -31 -11.5 -62.5t-3.5 -60.5zM520 1245q0 27 14.5 45.5t36.5 18.5q23 0 37.5 -18.5t14.5 -45.5t-14.5 -46t-37.5 -19t-37 19.5t-14 45.5zM676 1245q0 27 14.5 45.5t36.5 18.5q23 0 37 -18.5t14 -45.5t-14 -46t-37 -19t-37 19.5t-14 45.5zM680 1014q8 -20 14 -58t11 -106 q4 -61 2 -126t-7 -124q39 -12 80 -24.5t82 -26.5l62 -19q-6 88 -19.5 169t-41 146.5t-71.5 109.5t-112 59zM846 1124q0 -10 6 -16q18 14 21.5 23.5t3.5 13.5q0 2 -1.5 6t-5.5 4q-10 0 -17 -10t-7 -21z" />
<glyph unicode="&#xc5;" horiz-adv-x="1267" d="M-201 41q-27 55 27 121q31 37 87 62.5t134 21.5q23 80 57 141q82 150 203 150q49 0 74 -25q25 -29 25 -70q0 -59 -40 -139t-110 -151q-45 -49 -94 -86t-99 -60q4 -16 9.5 -31.5t13.5 -25.5q37 -59 104 -60q63 0 119 27l6 6q113 55 179 240q29 72 45 166t26 204 q2 25 3 48.5t3 48.5q-100 51 -90 119q0 12 13 12q12 -4 12 -15q-4 -25 13.5 -46t51.5 -44q2 66 1 125.5t-2 106.5t-4 79.5t-3 45.5q-205 -18 -334 -76q-59 -27 -104 -57.5t-70 -67.5q-23 -33 -26.5 -60.5t0.5 -43.5q4 -12 -9 -17h-4q-8 0 -12 8q-4 10 -3 45t34 82 q55 80 184 133q74 33 169 53.5t212 30.5q20 6 49 7q4 0 8 -2q72 8 113 20t61 27q-10 14 -10 30q0 23 14.5 39.5t34.5 16.5q12 0 21.5 -9.5t9.5 -25.5q0 -25 -24 -49q16 -8 57 -9q12 0 12 -12t-12 -12q-53 0 -80 12q-23 -14 -55.5 -25.5t-81.5 -21.5q147 -49 201 -270 q14 -53 22 -113t12 -121q59 -18 112.5 -37.5t91.5 -43t58.5 -51t14.5 -60.5q0 -12 -12 -13h-3q-10 6 -10 17q2 4 2 14t-8 23.5t-29.5 30t-60.5 34.5q-33 16 -72 30.5t-84 27.5q6 -111 6 -222q2 -100 5.5 -189t17.5 -157q14 -74 38.5 -135t63.5 -67q20 -4 36 1t28 15 q23 16 28 38.5t5 24.5q0 10 14 11q10 0 10 -15q0 -2 -7 -30.5t-34 -51.5q-31 -20 -63 -20q-4 0 -9.5 1t-9.5 1q-39 4 -65.5 38t-43 85t-23.5 113.5t-10 124t-4 118t-1 92.5q0 59 -2 116.5t-6 117.5q-16 4 -35 9t-35 11q-41 10 -81 23.5t-79 25.5q0 -10 -2 -14 q-4 -39 -14 -89t-27.5 -105.5t-40 -113.5t-53.5 -114q-74 -127 -153 -192q-96 -82 -216 -82q-84 0 -124 69q-16 25 -27 64q-57 -20 -107 -21q-14 0 -33.5 2.5t-39 9.5t-36 19t-24.5 33zM-178 51q18 -49 110 -49q45 0 103 21q-6 32 -6 73q0 29 3 60.5t11 64.5h-16 q-63 0 -110.5 -22.5t-72.5 -51.5q-43 -55 -22 -96zM53 96q0 -16 1 -31.5t3 -31.5q94 39 181 135q66 70 104.5 145.5t38.5 128.5q0 33 -16 50q-18 20 -58 20q-104 0 -180 -139q-35 -55 -53 -129q29 -4 55 -13q12 -4 8 -14q-4 -12 -14 -8q-14 4 -28.5 6t-26.5 4 q-8 -31 -11.5 -62.5t-3.5 -60.5zM590 1233q0 31 21.5 52.5t52.5 21.5t52 -21.5t21 -52.5t-21.5 -52.5t-51.5 -21.5q-31 0 -52.5 21.5t-21.5 52.5zM616 1233q0 -18 13.5 -31.5t32.5 -13.5q18 0 31.5 13t13.5 32q0 18 -13.5 31.5t-31.5 13.5t-32 -13.5t-14 -31.5zM680 1014 q8 -20 14 -58t11 -106q4 -61 2 -126t-7 -124q39 -12 80 -24.5t82 -26.5l62 -19q-6 88 -19.5 169t-41 146.5t-71.5 109.5t-112 59zM846 1124q0 -10 6 -16q18 14 21.5 23.5t3.5 13.5q0 2 -1.5 6t-5.5 4q-10 0 -17 -10t-7 -21z" />
<glyph unicode="&#xc6;" horiz-adv-x="1908" d="M3 99.5q7 31.5 32 62.5q31 37 87 62.5t134 21.5q23 80 57 141q82 150 203 150q49 0 74 -25q25 -29 24 -70q0 -59 -39.5 -139t-109.5 -151q-45 -49 -94 -86t-99 -60q4 -16 9.5 -31.5t13.5 -25.5q37 -59 104 -60q63 0 119 27l6 6q113 55 178 240q29 72 45.5 166t26.5 204 l6 97q-100 51 -90 119q0 12 12 12q12 -4 13 -15q-4 -25 13 -46t52 -44q2 66 1 125.5t-2 106.5t-4 79.5t-3 45.5q-205 -18 -334 -76q-59 -27 -104 -57.5t-70 -67.5q-23 -33 -27 -60.5t1 -43.5q4 -12 -9 -17h-4q-8 0 -12 8q-4 10 -3 45t34 82q55 80 184 133q74 33 169 53.5 t212 30.5q20 6 49 7q4 0 8 -2q72 8 113 20t61 27q-10 14 -10 30q0 23 14.5 39.5t34.5 16.5q12 0 21.5 -9.5t9.5 -25.5q0 -25 -25 -49q16 -8 58 -9q12 0 12 -12t-12 -12q-53 0 -80 12q-23 -14 -55.5 -25.5t-81.5 -21.5q147 -49 200 -270q14 -53 22.5 -113t12.5 -121 q25 -8 49.5 -15t46.5 -17q6 12 12.5 22t14.5 21q41 61 100 92q-29 37 -44 85t-15 97q0 55 16.5 105.5t49.5 84.5q35 41 85 64.5t111 23.5q49 0 82 -10t52.5 -25.5t28.5 -31.5t13 -31q4 -20 3 -39.5t-9 -40.5q-4 -18 -15 -32.5t-22 -20.5q-12 -12 -20 4q-2 4 -1 11.5t5 9.5 q16 10 27.5 38.5t1.5 59.5q-8 43 -56 59q-18 8 -43.5 0t-53.5 -28.5t-52.5 -50t-40.5 -64.5q-29 -66 -40 -132.5t-7 -111.5q41 10 76 11q8 0 34.5 -3.5t53 -11.5t48 -21.5t21.5 -31.5t-11 -28.5t-27.5 -16.5t-36 -7t-33.5 -1q-82 0 -140 47q-16 -23 -28.5 -63t-20.5 -89 q33 -23 49.5 -48.5t12.5 -55.5q0 -12 -13 -13h-2q-10 6 -10 17q2 6 -1 25.5t-40 46.5q-2 -10 -2 -27q-4 -78 3 -156t28 -147q45 -168 127 -187l10 -6h2q66 0 131.5 37t91.5 115q14 43 5 82t-39 67q-10 6 -3 23q8 8 23 0q76 -78 43 -184q-12 -35 -35.5 -67t-56.5 -54 q-35 -27 -77 -39t-83 -12q-162 0 -250 131q-84 113 -84 280q0 113 41 205q-20 8 -41.5 14t-44.5 13q6 -111 6 -222q2 -100 5.5 -189t17.5 -157q14 -74 38.5 -135t63.5 -67q20 -4 35.5 1t28.5 15q23 16 28 38.5t5 24.5q0 10 14 11q10 0 10 -15q0 -2 -7 -30.5t-34 -51.5 q-31 -20 -63 -20q-4 0 -9.5 1t-9.5 1q-41 4 -66.5 38t-42 85t-23.5 113.5t-10 124t-4 118t-1 92.5q0 59 -2 116.5t-6 117.5q-16 4 -35 9t-35 11q-41 10 -81 23.5t-79 25.5q0 -10 -2 -14q-4 -39 -14 -89t-27.5 -105.5t-40 -113.5t-53.5 -114q-74 -127 -154 -192 q-96 -82 -215 -82q-84 0 -125 69q-16 25 -26 64q-57 -20 -107 -21q-14 0 -33.5 2.5t-39 9.5t-36 19t-24.5 33q-12 27 -5 58.5zM31 51q18 -49 110 -49q45 0 103 21q-6 32 -6 73q0 29 3 60.5t11 64.5h-16q-63 0 -110.5 -22.5t-72.5 -51.5q-43 -55 -22 -96zM262 96 q0 -16 1 -31.5t3 -31.5q94 39 180 135q66 70 105 145.5t39 128.5q0 33 -17 50q-18 20 -57 20q-104 0 -180 -139q-35 -55 -53 -129q29 -4 55 -13q12 -4 8 -14q-4 -12 -14 -8l-56 10q-8 -31 -11 -62.5t-3 -60.5zM889 1014q8 -20 14 -58t10 -106q4 -61 2 -126t-6 -124 q39 -12 80 -24.5t82 -26.5l62 -19q-6 88 -19.5 169t-41.5 146.5t-72 109.5t-111 59zM1055 1124q0 -10 6 -16q18 14 21 23.5t3 13.5q0 2 -1 6t-5 4q-10 0 -17 -10t-7 -21zM1450 621q8 -31 45 -40.5t70 -9.5q2 0 16 1t29.5 4.5t25 8.5t2.5 13q-10 14 -44.5 23.5t-77.5 9.5 q-29 0 -66 -10z" />
<glyph unicode="&#xc7;" horiz-adv-x="1093" d="M0 1108q0 94 59 154q63 61 185 61q68 0 145.5 -34t155.5 -97q33 -27 60.5 -55.5t51.5 -57.5q43 20 91 25q18 6 43 2q43 0 71.5 -13.5t47 -34t26.5 -47t8 -53.5q0 -51 -24.5 -103t-67.5 -95q-49 -47 -114.5 -74t-141.5 -27q-16 0 -30.5 1.5t-30.5 1.5q-4 -39 -6.5 -96.5 t-2.5 -118t3 -117t10 -92.5q18 -125 62 -207t110 -115q31 0 56.5 6t47.5 17q-39 88 -39 180q0 84 33 139q39 61 106 61q47 0 72 -36q23 -33 23 -82q0 -70 -42 -149t-120 -124q8 -16 14 -22q23 -37 64 -71t106 -34q47 0 90.5 11.5t63.5 46.5q4 16 19.5 14t6.5 -18l-4 -9 q-25 -41 -74 -55t-102 -14q-63 0 -110 33q-43 27 -80 81l-17 27q-18 -8 -37.5 -14t-42.5 -10q-4 -6 -6 -21.5t-2 -28.5q0 -10 17.5 -14t37 -9t37 -14.5t17.5 -27.5q0 -33 -18.5 -47.5t-43 -18.5t-51 0t-41.5 11q-10 4 -9 18t9 18q16 -6 37 -12t39 -7t30.5 4t12.5 24 q0 14 -16.5 18t-37 7t-36.5 8t-16 18q0 10 2 32.5t8 38.5h-8q-86 0 -145.5 42t-98.5 110t-58.5 154t-25.5 174t-2 171t16 144q-23 6 -51 16q-53 20 -100 47t-88 62q-72 63 -113 141t-41 156zM25 1108q0 -72 37.5 -145.5t107.5 -133.5q78 -67 180 -104q12 -4 24.5 -7t24.5 -7 q25 106 76 196q51 92 129 144l29 18q-37 43 -83 85t-97.5 74t-104.5 51t-104 19q-111 0 -166 -55q-53 -49 -53 -135zM539 686q14 0 28.5 -1t28.5 -1q70 0 131 23.5t109 70.5q41 39 62.5 86t21.5 94q0 57 -34 90t-95 33h-3h-2h-17t-17 -2q-35 -6 -68 -35q16 -27 29.5 -50 t21.5 -46q8 -12 -6 -16q-12 -4 -16 8q-8 20 -19.5 42t-27.5 44l-9 -10q-57 -70 -92 -197q-8 -33 -15 -65.5t-11 -67.5zM801 119q0 -43 10.5 -86t26.5 -82q25 14 43 30.5t32 32.5q33 41 52.5 90.5t19.5 96.5q0 43 -18 67q-18 27 -52 27q-55 0 -86 -49q-29 -51 -28 -127z" />
<glyph unicode="&#xc8;" horiz-adv-x="985" d="M-332 530q6 51 33 93q57 94 207 159q168 74 448 99q4 106 66 182q76 86 203 86q90 0 141 -55q23 -23 34 -52.5t11 -60.5q0 -45 -24.5 -83t-73.5 -40h-2q-55 0 -88 23q-6 4 -15 16q-53 -20 -121 -29q-6 -23 -9 -42t-7 -40q-2 -23 -2 -41t4 -34q33 8 76 8q18 0 40.5 -2 t45 -6t42 -13.5t30.5 -21.5q10 -16 4 -35q0 -2 -4 -6q-35 -29 -107 -29q-43 0 -79 12.5t-64 34.5q-12 -16 -22.5 -44.5t-17.5 -64.5t-12.5 -76t-7.5 -77q-2 -41 -1 -90t5.5 -99t11.5 -96.5t17 -80.5q47 -162 133 -181l4 -4h8q31 0 59 5t50 14q-29 45 -42 94t-13 98 q0 78 36.5 125t96.5 47q51 0 80 -41q27 -35 26 -96q0 -10 -1 -22t-7 -41q-10 -33 -25.5 -63t-37.5 -52q-12 -16 -32 -31.5t-46 -28.5q59 -76 140 -129t192 -53q31 0 61.5 10.5t54 31t33.5 47t2 61.5q-4 20 7.5 22t15.5 -14q10 -41 -0.5 -75t-35 -57.5t-61 -36.5t-77.5 -13 q-104 0 -199.5 53t-155.5 143q-51 -23 -121 -22q-162 0 -256 131q-20 27 -35.5 67.5t-26.5 86.5t-16 92.5t-5 87.5q0 39 5 83t14 87t24.5 80.5t33.5 64.5q41 57 107 94q-29 35 -44.5 77t-19.5 89q-270 -25 -438 -96q-143 -61 -194 -150q-29 -43 -31 -82t8 -61q6 -12 -6 -16 q-2 -2 -4 -2q-8 0 -13 8q-14 33 -10 73zM477 686q6 -16 15 -24v-3q51 -29 108 -28q59 0 88 22q0 6 -2 9q-10 14 -49 23t-88 9q-41 0 -72 -8zM494 895q35 4 59.5 10t44.5 13q-2 6 -2 16q0 29 18 51q18 25 41 25q41 0 45 -37q0 -10 -11 -28.5t-56 -39.5q4 -4 6 -4 q20 -18 70 -18h2q39 0 57 30.5t18 67.5q0 55 -36 96q-20 20 -43 29q-35 2 -65 -11.5t-52.5 -35t-38.5 -46t-27 -44.5q-18 -37 -30 -74zM518.5 1322q-6.5 14 5.5 28q12 16 28.5 14t27.5 -12q6 -4 28.5 -25.5t46 -47.5t41 -49.5t11.5 -31.5q-6 -6 -32 7.5t-55.5 32.5t-54 37.5 t-30.5 22.5q-10 10 -16.5 24zM621 928q33 14 44 26.5t11 18.5q0 12 -21 12q-10 0 -22 -15.5t-12 -35.5v-6zM653 51q0 -47 13.5 -94t40.5 -88q25 12 42 26.5t31 28.5q38 39 54 96q6 29 8 42.5t2 23.5q0 63 -26.5 88t-55.5 25q-41 0 -75 -33t-34 -115z" />
<glyph unicode="&#xc9;" horiz-adv-x="985" d="M-332 530q6 51 33 93q57 94 207 159q168 74 448 99q4 106 66 182q76 86 203 86q90 0 141 -55q23 -23 34 -52.5t11 -60.5q0 -45 -24.5 -83t-73.5 -40h-2q-55 0 -88 23q-6 4 -15 16q-53 -20 -121 -29q-6 -23 -9 -42t-7 -40q-2 -23 -2 -41t4 -34q33 8 76 8q18 0 40.5 -2 t45 -6t42 -13.5t30.5 -21.5q10 -16 4 -35q0 -2 -4 -6q-35 -29 -107 -29q-43 0 -79 12.5t-64 34.5q-12 -16 -22.5 -44.5t-17.5 -64.5t-12.5 -76t-7.5 -77q-2 -41 -1 -90t5.5 -99t11.5 -96.5t17 -80.5q47 -162 133 -181l4 -4h8q31 0 59 5t50 14q-29 45 -42 94t-13 98 q0 78 36.5 125t96.5 47q51 0 80 -41q27 -35 26 -96q0 -10 -1 -22t-7 -41q-10 -33 -25.5 -63t-37.5 -52q-12 -16 -32 -31.5t-46 -28.5q59 -76 140 -129t192 -53q31 0 61.5 10.5t54 31t33.5 47t2 61.5q-4 20 7.5 22t15.5 -14q10 -41 -0.5 -75t-35 -57.5t-61 -36.5t-77.5 -13 q-104 0 -199.5 53t-155.5 143q-51 -23 -121 -22q-162 0 -256 131q-20 27 -35.5 67.5t-26.5 86.5t-16 92.5t-5 87.5q0 39 5 83t14 87t24.5 80.5t33.5 64.5q41 57 107 94q-29 35 -44.5 77t-19.5 89q-270 -25 -438 -96q-143 -61 -194 -150q-29 -43 -31 -82t8 -61q6 -12 -6 -16 q-2 -2 -4 -2q-8 0 -13 8q-14 33 -10 73zM477 686q6 -16 15 -24v-3q51 -29 108 -28q59 0 88 22q0 6 -2 9q-10 14 -49 23t-88 9q-41 0 -72 -8zM494 895q35 4 59.5 10t44.5 13q-2 6 -2 16q0 29 18 51q18 25 41 25q41 0 45 -37q0 -10 -11 -28.5t-56 -39.5q4 -4 6 -4 q20 -18 70 -18h2q39 0 57 30.5t18 67.5q0 55 -36 96q-20 20 -43 29q-35 2 -65 -11.5t-52.5 -35t-38.5 -46t-27 -44.5q-18 -37 -30 -74zM524 1198q-6 8 11.5 31.5t41 49.5t46 47.5t28.5 25.5q10 10 27 12t29 -14q12 -14 6 -27.5t-17 -24.5q-6 -4 -30.5 -22.5t-54 -37.5 t-55.5 -32.5t-32 -7.5zM621 928q33 14 44 26.5t11 18.5q0 12 -21 12q-10 0 -22 -15.5t-12 -35.5v-6zM653 51q0 -47 13.5 -94t40.5 -88q25 12 42 26.5t31 28.5q38 39 54 96q6 29 8 42.5t2 23.5q0 63 -26.5 88t-55.5 25q-41 0 -75 -33t-34 -115z" />
<glyph unicode="&#xca;" horiz-adv-x="985" d="M-332 530q-4 -41 10 -73q4 -8 13 -8q2 0 4 2q12 4 6 16q-10 23 -8 61.5t31 81.5q51 88 194 150q168 72 438 96q4 -47 19.5 -89t44.5 -77q-66 -37 -107 -94q-18 -27 -33.5 -64.5t-24.5 -80.5t-14 -87.5t-5 -82.5q0 -41 5 -87.5t16 -92.5t26.5 -87t35.5 -67 q94 -131 256 -131q70 0 121 22q59 -90 154.5 -143t200.5 -53q41 0 77.5 13t61 36.5t35 57.5t0.5 75q-4 16 -15.5 14t-7.5 -22q8 -35 -2 -61.5t-33.5 -47t-54.5 -31t-61 -10.5q-111 0 -192 53.5t-140 128.5q27 12 46 27.5t32 32.5q23 23 38 52.5t25 62.5q6 29 7 41t1 22 q0 61 -26 96q-29 41 -80 41q-59 0 -96 -47t-37 -125q0 -49 13 -98t42 -94q-23 -8 -50.5 -13.5t-58.5 -5.5h-8l-4 4q-86 18 -133 181q-10 35 -17 81t-11.5 96t-5.5 99t1 90q2 37 7.5 77t12.5 76t17 64.5t23 44.5q29 -23 64.5 -35t78.5 -12q72 0 107 29q4 4 4 6q6 18 -4 35 q-10 12 -30 21.5t-42.5 13.5t-45 6t-40.5 2q-43 0 -76 -8q-4 16 -4 34.5t2 40.5q4 20 7 40t9 42q68 8 121 29q8 -12 15 -16q33 -23 88 -23h2q49 2 73.5 40t24.5 83q0 31 -11.5 60.5t-33.5 52.5q-51 55 -141 55q-127 0 -203 -86q-61 -76 -66 -182q-281 -25 -448 -99 q-150 -66 -207 -159q-27 -41 -33 -93zM477 686q31 8 72 8q49 0 88 -9t49 -23q2 -2 2 -9q-29 -23 -88 -22q-57 0 -108 28v3q-8 8 -15 24zM494 895q12 37 30 74q10 20 26.5 44.5t39 46t52.5 35t65 11.5q23 -8 43 -29q36 -41 36 -96q0 -37 -18 -67.5t-57 -30.5h-2q-49 0 -70 18 q-2 0 -6 4q45 20 56 39t11 29q-4 37 -45 37q-23 0 -41 -25q-18 -23 -18 -51q0 -10 2 -16q-20 -6 -45 -12.5t-59 -10.5zM506 1208q45 59 64.5 96t45.5 37q12 0 24.5 -13t24 -32.5t21.5 -41t21 -40.5q4 -10 2 -12q-4 -2 -5.5 -5t-3.5 -1l-28 -14q-11 -4 -15 8l-49 104l-80 -98 l-4 -2q-8 -8 -16 -2q-6 6 -2 16zM621 928v6q0 20 12 35.5t22 15.5q20 0 21 -12q0 -6 -11 -18.5t-44 -26.5zM653 51q0 82 34 115t75 33q29 0 55.5 -24.5t26.5 -88.5q0 -10 -2 -23.5t-8 -42.5q-16 -57 -54 -96q-14 -14 -31.5 -28.5t-41.5 -26.5q-27 41 -40.5 88t-13.5 94z" />
<glyph unicode="&#xcb;" horiz-adv-x="985" d="M-332 530q6 51 33 93q57 94 207 159q168 74 448 99q4 106 66 182q76 86 203 86q90 0 141 -55q23 -23 34 -52.5t11 -60.5q0 -45 -24.5 -83t-73.5 -40h-2q-55 0 -88 23q-6 4 -15 16q-53 -20 -121 -29q-6 -23 -9 -42t-7 -40q-2 -23 -2 -41t4 -34q33 8 76 8q18 0 40.5 -2 t45 -6t42 -13.5t30.5 -21.5q10 -16 4 -35q0 -2 -4 -6q-35 -29 -107 -29q-43 0 -79 12.5t-64 34.5q-12 -16 -22.5 -44.5t-17.5 -64.5t-12.5 -76t-7.5 -77q-2 -41 -1 -90t5.5 -99t11.5 -96.5t17 -80.5q47 -162 133 -181l4 -4h8q31 0 59 5t50 14q-29 45 -42 94t-13 98 q0 78 36.5 125t96.5 47q51 0 80 -41q27 -35 26 -96q0 -10 -1 -22t-7 -41q-10 -33 -25.5 -63t-37.5 -52q-12 -16 -32 -31.5t-46 -28.5q59 -76 140 -129t192 -53q31 0 61.5 10.5t54 31t33.5 47t2 61.5q-4 20 7.5 22t15.5 -14q10 -41 -0.5 -75t-35 -57.5t-61 -36.5t-77.5 -13 q-104 0 -199.5 53t-155.5 143q-51 -23 -121 -22q-162 0 -256 131q-20 27 -35.5 67.5t-26.5 86.5t-16 92.5t-5 87.5q0 39 5 83t14 87t24.5 80.5t33.5 64.5q41 57 107 94q-29 35 -44.5 77t-19.5 89q-270 -25 -438 -96q-143 -61 -194 -150q-29 -43 -31 -82t8 -61q6 -12 -6 -16 q-2 -2 -4 -2q-8 0 -13 8q-14 33 -10 73zM453 1253q0 27 14 45.5t37 18.5t37 -18.5t14 -45.5t-14 -46t-37 -19t-37 19.5t-14 45.5zM477 686q6 -16 15 -24v-3q51 -29 108 -28q59 0 88 22q0 6 -2 9q-10 14 -49 23t-88 9q-41 0 -72 -8zM494 895q35 4 59.5 10t44.5 13q-2 6 -2 16 q0 29 18 51q18 25 41 25q41 0 45 -37q0 -10 -11 -28.5t-56 -39.5q4 -4 6 -4q20 -18 70 -18h2q39 0 57 30.5t18 67.5q0 55 -36 96q-20 20 -43 29q-35 2 -65 -11.5t-52.5 -35t-38.5 -46t-27 -44.5q-18 -37 -30 -74zM608 1253q0 27 14.5 45.5t36.5 18.5q23 0 37.5 -18.5 t14.5 -45.5t-14.5 -46t-37.5 -19t-37 19.5t-14 45.5zM621 928q33 14 44 26.5t11 18.5q0 12 -21 12q-10 0 -22 -15.5t-12 -35.5v-6zM653 51q0 -47 13.5 -94t40.5 -88q25 12 42 26.5t31 28.5q38 39 54 96q6 29 8 42.5t2 23.5q0 63 -26.5 88t-55.5 25q-41 0 -75 -33t-34 -115z " />
<glyph unicode="&#xcc;" horiz-adv-x="692" d="M-4 800q-10 46 6 93q6 16 23.5 40.5t52.5 48.5t91 41t142 17q8 0 15.5 1t15.5 1t16.5 1t16.5 1q72 6 119 33q4 4 12 8q-25 18 -25 48q0 20 13.5 35.5t29.5 15.5t25.5 -13.5t9.5 -31.5q0 -8 -2 -19.5t-12 -25.5q12 -4 26.5 -6.5t30.5 -2.5q12 0 12 -12t-12 -12 q-47 0 -74 12q-4 -4 -10 -8l-12 -8q-41 -25 -98 -33q4 -10 7 -30.5t7 -61.5t8 -92.5t6 -108.5q2 -25 3 -74t2 -103t1 -105.5v-77.5q96 -10 138 -92q29 -55 22.5 -124t-47.5 -126q-45 -68 -123 -99q-37 -12 -74 -18q-2 -2 -2 -3t-2 -3q-16 -37 -37.5 -64.5t-44.5 -48.5 q-31 -29 -71 -41q-2 -2 -6 -2q-10 -2 -19.5 -3t-19.5 -1q-63 0 -95 49q-29 41 -28 113q0 72 28.5 152.5t75.5 146.5q84 117 199 151q-2 6 -2 21q-4 88 -12.5 192.5t-16.5 197.5t-16 161.5t-10 85.5q-70 -4 -116 -19.5t-76 -36t-43 -42t-19 -35.5q-14 -39 -5 -77t37 -63 q29 -27 67 -27.5t79 21.5q12 4 16 -6q6 -10 -4 -16q-49 -23 -86 -23h-12q-47 4 -76 33q-35 29 -45 75zM57 -92q0 -63 25 -101q25 -37 74 -36q10 0 18.5 1t18.5 3q33 18 56 52t40 79q-14 2 -28.5 2t-31.5 4q-10 0 -10 12q4 14 14 10q16 -2 32 -3t32 -1q27 86 35 191.5 t4 210.5q-102 -31 -178 -139q-47 -63 -74 -140.5t-27 -144.5zM191 1322q-6 14 6 28q12 16 28.5 14t26.5 -12q6 -4 28.5 -25.5t46 -47.5t41 -49.5t11.5 -31.5q-6 -6 -31.5 7.5t-55.5 32.5t-54.5 37.5t-30.5 22.5q-10 10 -16 24zM371 -61q14 4 26.5 7t24.5 9q72 29 113 88 q37 51 43 112.5t-19 110.5q-39 70 -117 80q0 -47 -2 -88t-6 -70q-4 -35 -18.5 -105.5t-44.5 -143.5zM506 1133q0 -14 16 -29q10 10 11.5 20.5t1.5 14.5q-1 20 -11 20q-6 0 -12 -8t-6 -18z" />
<glyph unicode="&#xcd;" horiz-adv-x="692" d="M-4 800q-10 46 6 93q6 16 23.5 40.5t52.5 48.5t91 41t142 17q8 0 15.5 1t15.5 1t16.5 1t16.5 1q72 6 119 33q4 4 12 8q-25 18 -25 48q0 20 13.5 35.5t29.5 15.5t25.5 -13.5t9.5 -31.5q0 -8 -2 -19.5t-12 -25.5q12 -4 26.5 -6.5t30.5 -2.5q12 0 12 -12t-12 -12 q-47 0 -74 12q-4 -4 -10 -8l-12 -8q-41 -25 -98 -33q4 -10 7 -30.5t7 -61.5t8 -92.5t6 -108.5q2 -25 3 -74t2 -103t1 -105.5v-77.5q96 -10 138 -92q29 -55 22.5 -124t-47.5 -126q-45 -68 -123 -99q-37 -12 -74 -18q-2 -2 -2 -3t-2 -3q-16 -37 -37.5 -64.5t-44.5 -48.5 q-23 -23 -52.5 -35t-63.5 -12q-63 0 -95 49q-29 41 -28 113q0 72 28.5 152.5t75.5 146.5q84 117 199 151q-2 6 -2 21q-4 88 -12.5 192.5t-16.5 197.5t-16 161.5t-10 85.5q-70 -4 -116 -19.5t-76 -36t-43 -42t-19 -35.5q-14 -39 -5 -77t37 -63q29 -27 67 -27.5t79 21.5 q12 4 16 -6q6 -10 -4 -16q-49 -23 -86 -23h-12q-47 4 -76 33q-35 29 -45 75zM57 -92q0 -63 25 -101q25 -37 74 -36q10 0 18.5 1t18.5 3q33 18 56 52t40 79q-14 2 -28.5 2t-31.5 4q-10 0 -10 12q4 14 14 10q16 -2 32 -3t32 -1q27 86 35 191.5t4 210.5q-102 -31 -178 -139 q-47 -63 -74 -140.5t-27 -144.5zM248 1198q-6 8 11 31.5t41 49.5t46.5 47.5t28.5 25.5q10 10 26.5 12t28.5 -14q12 -14 6 -27.5t-16 -24.5q-6 -4 -30.5 -22.5t-54.5 -37.5t-55.5 -32.5t-31.5 -7.5zM371 -61q14 4 26.5 7t24.5 9q72 29 113 88q37 51 43 112.5t-19 110.5 q-39 70 -117 80q0 -47 -2 -88t-6 -70q-4 -35 -18.5 -105.5t-44.5 -143.5zM506 1133q0 -14 16 -29q10 10 11.5 20.5t1.5 14.5q-1 20 -11 20q-6 0 -12 -8t-6 -18z" />
<glyph unicode="&#xce;" horiz-adv-x="692" d="M-4 800q10 -46 45 -75q29 -29 76 -33h12q37 0 86 23q10 6 4 16q-4 10 -16 6q-41 -23 -79 -21.5t-67 27.5q-29 25 -38 63t6 77q6 14 19 35.5t43 42t76 36t116 19.5q2 -16 10 -85t16 -162t16.5 -197.5t12.5 -192.5q0 -14 2 -21q-115 -35 -199 -151q-47 -66 -75.5 -146.5 t-28.5 -152.5t28 -113q31 -49 95 -49q10 0 19 1t20 3q4 0 6 2q41 12 71 41q23 20 44.5 48t37.5 65q2 2 2 3t2 3q37 6 74 18q78 31 123 99q41 57 47 125.5t-22 124.5q-41 82 -138 92v78t-1 105t-2 103.5t-3 73.5q-2 57 -6 108.5t-8 92.5t-7 61.5t-7 30.5q57 8 98 33l12 8 t10 8q27 -12 74 -12q12 0 12 12t-12 12q-16 0 -30.5 2.5t-26.5 6.5q10 14 12 25t2 20q0 18 -9 31.5t-26 13.5q-16 0 -29.5 -15.5t-13.5 -35.5q0 -29 25 -48q-8 -4 -12 -8q-47 -27 -119 -33q-8 0 -16.5 -1t-16.5 -1t-15.5 -1t-15.5 -1q-86 0 -142 -17t-91 -41t-52.5 -48.5 t-23.5 -40.5q-16 -47 -6 -93zM57 -92q0 68 27 144.5t74 140.5q76 109 178 139q4 -104 -4 -210t-35 -192q-16 0 -31.5 1t-32.5 3q-10 4 -14 -10q0 -12 10 -12q16 -4 30.5 -4t29.5 -2q-16 -45 -39.5 -79t-56.5 -52q-10 -2 -18.5 -3t-18.5 -1q-49 0 -74 36q-25 37 -25 101z M240 1208q45 59 64.5 96t45.5 37q12 0 24.5 -13t24 -32.5t21.5 -41t20 -40.5q4 -10 2 -12q-4 -2 -5 -5t-3 -1l-28 -14q-11 -4 -15 8l-49 104l-80 -98l-4 -2q-8 -8 -16 -2q-6 6 -2 16zM371 -61q31 74 45 144t18 105q4 29 6 70t2 88q78 -10 117 -80q25 -49 18.5 -110.5 t-42.5 -112.5q-41 -59 -113 -88q-12 -6 -24.5 -9t-26.5 -7zM506 1133q0 10 6 18t12 8q10 0 11 -20q0 -4 -1.5 -14.5t-11.5 -20.5q-16 14 -16 29z" />
<glyph unicode="&#xcf;" horiz-adv-x="692" d="M-4 800q-10 46 6 93q6 16 23.5 40.5t52.5 48.5t91 41t142 17q8 0 15.5 1t15.5 1t16.5 1t16.5 1q72 6 119 33q4 4 12 8q-25 18 -25 48q0 20 13.5 35.5t29.5 15.5t25.5 -13.5t9.5 -31.5q0 -8 -2 -19.5t-12 -25.5q12 -4 26.5 -6.5t30.5 -2.5q12 0 12 -12t-12 -12 q-47 0 -74 12q-4 -4 -10 -8l-12 -8q-41 -25 -98 -33q4 -10 7 -30.5t7 -61.5t8 -92.5t6 -108.5q2 -25 3 -74t2 -103t1 -105.5v-77.5q96 -10 138 -92q29 -55 22.5 -124t-47.5 -126q-45 -68 -123 -99q-37 -12 -74 -18q-2 -2 -2 -3t-2 -3q-16 -37 -37.5 -64.5t-44.5 -48.5 q-31 -29 -71 -41q-2 -2 -6 -2q-10 -2 -19.5 -3t-19.5 -1q-63 0 -95 49q-29 41 -28 113q0 72 28.5 152.5t75.5 146.5q84 117 199 151q-2 6 -2 21q-4 88 -12.5 192.5t-16.5 197.5t-16 161.5t-10 85.5q-70 -4 -116 -19.5t-76 -36t-43 -42t-19 -35.5q-14 -39 -5 -77t37 -63 q29 -27 67 -27.5t79 21.5q12 4 16 -6q6 -10 -4 -16q-49 -23 -86 -23h-12q-47 4 -76 33q-35 29 -45 75zM57 -92q0 -63 25 -101q25 -37 74 -36q10 0 18.5 1t18.5 3q33 18 56 52t40 79q-14 2 -28.5 2t-31.5 4q-10 0 -10 12q4 14 14 10q16 -2 32 -3t32 -1q27 86 35 191.5 t4 210.5q-102 -31 -178 -139q-47 -63 -74 -140.5t-27 -144.5zM190 1227q0 27 14.5 45t37.5 18t37 -18.5t14 -44.5q0 -27 -14 -46.5t-37 -19.5t-37.5 19.5t-14.5 46.5zM346 1227q0 27 14.5 45t36.5 18q23 0 37.5 -18.5t14.5 -44.5q0 -27 -14.5 -46.5t-37.5 -19.5t-37 19.5 t-14 46.5zM371 -61q14 4 26.5 7t24.5 9q72 29 113 88q37 51 43 112.5t-19 110.5q-39 70 -117 80q0 -47 -2 -88t-6 -70q-4 -35 -18.5 -105.5t-44.5 -143.5zM506 1133q0 -14 16 -29q10 10 11.5 20.5t1.5 14.5q-1 20 -11 20q-6 0 -12 -8t-6 -18z" />
<glyph unicode="&#xd0;" horiz-adv-x="1298" d="M-76 17.5q6 35.5 31 66.5q27 35 76 61.5t121 22.5q4 53 17 102t32 90q61 131 161 132q57 0 87 -39q27 -37 26 -97q0 -66 -32.5 -151.5t-86.5 -159.5q-59 -78 -127 -127l-28 -16q4 -10 7 -19.5t7 -17.5q16 -33 47 -63.5t80 -30.5q59 0 113 28l6 6q102 59 139 265 q31 170 16 415l-4 43l-135 -6h-2q-8 0 -12 10l-4 43q-2 2 2 11q4 4 10 2l137 -4q-8 84 -18 160.5t-20.5 136t-17.5 97.5t-9 48q-215 -23 -350 -86q-55 -29 -94.5 -61.5t-59.5 -73.5q-18 -37 -20.5 -70t6.5 -55q6 -10 -7 -18h-4q-10 0 -12 10q-10 25 -8 64.5t24 84.5 q18 35 55.5 72t102 70.5t160.5 58.5t235 35q72 6 117 20.5t70 30.5q-10 12 -13.5 24.5t-3.5 18.5q0 25 13.5 41t29.5 16q14 0 23.5 -12t9.5 -31q2 -27 -18 -51q10 -4 24.5 -7t36.5 -3q12 0 12 -14q0 -12 -12 -13q-51 0 -80 17q-4 -4 -14 -11q-20 -16 -49 -25t-64 -18 q6 -8 17 -39q10 -23 17 -56.5t15 -74.5q12 -59 20.5 -118.5t12.5 -118.5q4 23 8.5 47.5t10.5 46.5q55 256 157 256q129 0 201 -164q29 -72 45.5 -165t16.5 -203q0 -123 -20.5 -240t-57.5 -211q-20 -49 -43 -88t-52 -68q-61 -61 -133 -61q-94 0 -153 133q-16 35 -27.5 74 t-15.5 73q-47 -137 -115 -213q-86 -109 -215 -108q-94 0 -147 111q-4 10 -8.5 18t-8.5 20q-53 -25 -104 -24q-59 0 -92 22q-37 18 -52 60q-12 33 -6 68.5zM-47 -41q25 -63 121 -63q49 0 96 20q-23 84 -23 172v26.5t3 24.5h-19q-57 0 -96 -21.5t-62 -51.5q-41 -57 -20 -107z M172 88q0 -92 21 -160l24 17q66 43 119 118q53 72 84 151t31 142q0 45 -21 80q-23 27 -68 27q-53 0 -86.5 -38t-52.5 -79q-37 -76 -47 -180q31 -4 57 -14q10 -8 9 -19q-4 -12 -15 -8l-53 12q-2 -12 -2 -23.5v-25.5zM690 123q0 -39 11 -91.5t34 -103.5q18 -41 50 -78.5 t81 -39.5q49 20 87 110t59 240q8 68 12 140.5t3 144t-6 140t-15 130.5q-20 117 -52 176t-73 55q-27 -16 -54.5 -65.5t-50.5 -159.5q-8 -39 -14 -75t-10 -66l194 -7q12 -4 12 -12t-10 -12l-4 -2h-2l-197 -10q-2 -14 -3 -23.5t-1 -17.5v-15v-8q-2 -66 -10 -140.5t-24 -144.5z M766 1151q0 -10 12 -23q16 18 17 35q-1 17 -11 17q-6 0 -12 -8.5t-6 -20.5z" />
<glyph unicode="&#xd1;" horiz-adv-x="1665" d="M2 180q-16 -84 16 -155q51 -119 197 -119q92 0 193 71q2 2 3 2.5t3 2.5q70 -68 176 -68q127 0 219 94q98 100 147 293q4 10 5.5 19.5t3.5 19.5q14 45 39.5 124t60.5 165q68 158 134.5 239.5t131.5 81.5q4 0 9.5 -1t9.5 -1q20 -4 30 -16q18 -23 24.5 -69t3.5 -107.5 t-12.5 -136t-19.5 -152.5q-14 -102 -26.5 -207.5t-12.5 -201t15.5 -174.5t58.5 -126q51 -61 148 -61q10 -4 36 -4q94 0 129 88q21 49 17 104q-4 51 -27 76q-10 8 -18 0t0 -16q16 -16 20 -62.5t-14 -93.5q-10 -25 -35 -48.5t-72 -23.5q-49 0 -79 31q-43 53 -41 203 q4 70 13 149.5t21 167.5q14 96 25.5 192.5t13.5 181.5t-12 154.5t-53 114.5q-49 55 -131 62q-4 0 -6.5 1t-6.5 1h-2h-6q-145 0 -289 -336q-33 -78 -53 -143q2 25 3 47t-1 45q0 68 -10 147.5t-27 155.5q-10 35 -17 63.5t-17 51.5q-4 10 -7.5 17t-7.5 13q106 8 166 43q2 2 5 3 t7 5q35 -14 82 -14q12 0 13 12q0 12 -13 13q-23 0 -37 2t-24 6q20 16 20 43q-2 16 -11 26.5t-26 10.5q-16 0 -29.5 -14.5t-13.5 -32.5q0 -6 3.5 -16.5t13.5 -20.5q-25 -14 -70 -26.5t-117 -16.5q-250 -18 -393 -80q-119 -49 -166 -125q-29 -47 -23.5 -81t9.5 -44q2 -6 10 -6 h4q14 4 7 16q-6 16 -5.5 44t19.5 59q43 70 153 114q59 25 135 42.5t169 27.5q2 -10 11 -52t21.5 -105.5t23.5 -144.5t17 -167q16 -219 -14 -358q-41 -176 -143 -232q-4 0 -4 -4q-53 -25 -115 -24q-92 0 -156 59q74 59 135 147q72 102 114 214t42 202q0 76 -33 117 q-33 47 -104 47q-127 0 -207 -139q-41 -72 -59 -162q-29 4 -55.5 1t-53.5 -9q-41 -10 -76 -32t-63 -54q-29 -33 -47.5 -71t-24.5 -79zM25 176q8 37 24.5 73t42.5 64q25 29 74 58.5t127 29.5h24q-4 -29 -7 -56.5t-3 -55.5q0 -156 68 -258q4 -8 10 -15.5t12 -15.5 q-94 -70 -182 -70q-129 0 -176 105q-27 66 -14 141zM332 289q0 51 10 108q16 -2 33.5 -6t36.5 -8q12 -4 14 8q4 12 -8 15q-41 14 -72 16q18 84 55 151q47 80 97.5 103.5t89.5 23.5q57 0 86 -36q27 -35 26 -103q0 -86 -41 -194.5t-110 -206.5q-31 -45 -64.5 -81t-68.5 -65 q-4 8 -10.5 15.5t-10.5 15.5q-63 96 -63 244zM1069 1139q0 10 6 16t12 6q12 0 13 -12q0 -14 -19 -33q-12 8 -12 23zM1077 1255q0 18 16.5 31.5t30.5 13.5q27 0 51.5 -21.5t53.5 -21.5q16 0 36.5 4.5t30.5 38.5q20 6 15 -12q-10 -31 -32 -44t-50 -13q-18 0 -33.5 7t-27 16.5 t-21.5 16.5t-21 7q-14 0 -25 -9t-11 -16v-6q0 -2 2 -4q-14 -2 -15 12z" />
<glyph unicode="&#xd2;" horiz-adv-x="1210" d="M10 807q0 88 23.5 166t68.5 135q102 131 279 131q84 0 165 -40t144 -112q59 -70 90 -151h4q55 0 101.5 -24.5t77.5 -73.5q57 -90 57 -224q0 -86 -23.5 -165.5t-66.5 -143.5q-18 -25 -43 -51.5t-58.5 -48t-76.5 -35.5t-97 -14h-31.5t-31.5 2q4 -27 9 -51.5t11 -47.5 q25 -98 63 -151t83 -53h8h4q102 23 170 108q31 39 51.5 87t34.5 97.5t20.5 97.5t10.5 91q8 111 -2.5 206t-24.5 154q-4 10 8 15q15 3 15 -9q16 -59 26.5 -156t1.5 -212q-4 -43 -11 -93.5t-21.5 -101.5t-36 -100t-54.5 -90q-94 -125 -256 -125q-141 0 -217 141 q-49 92 -61 230q-88 31 -149.5 79t-102.5 95q-78 90 -120 203.5t-42 234.5zM35 807q0 -117 41 -226.5t114 -195.5q37 -45 94.5 -89t137.5 -75q-2 16 -2 31.5v32.5q0 117 24.5 231.5t69.5 206.5q49 96 115 154q57 47 125 57q-27 74 -82 137q-59 68 -136 105.5t-155 37.5 q-80 0 -145.5 -30.5t-112.5 -89.5q-88 -113 -88 -287zM579 372.5q-1 -98.5 11 -190.5q16 -2 32.5 -2h32.5q49 0 89 13.5t71 33t54.5 44t39.5 48.5q41 59 63.5 136t22.5 159q0 127 -53 209q-57 88 -154 88q27 -88 15 -174q0 -10 -15 -10q-10 0 -10 14q8 80 -12 160 q-61 -37 -104.5 -123t-65.5 -215q-16 -92 -17 -190.5zM684 1264.5q-6 13.5 6 27.5q12 16 28.5 14.5t26.5 -12.5q6 -4 29 -25.5t46.5 -47t41 -49t10.5 -31.5q-6 -6 -31.5 7t-55 32.5t-54 38t-31.5 22.5q-10 10 -16 23.5z" />
<glyph unicode="&#xd3;" horiz-adv-x="1210" d="M10 807q0 88 23.5 166t68.5 135q102 131 279 131q84 0 165 -40t144 -112q59 -70 90 -151h4q55 0 101.5 -24.5t77.5 -73.5q57 -90 57 -224q0 -86 -23.5 -165.5t-66.5 -143.5q-18 -25 -43 -51.5t-58.5 -48t-76.5 -35.5t-97 -14h-31.5t-31.5 2q4 -27 9 -51.5t11 -47.5 q25 -98 63 -151t83 -53h8h4q102 23 170 108q31 39 51.5 87t34.5 97.5t20.5 97.5t10.5 91q8 111 -2.5 206t-24.5 154q-4 10 8 15q15 3 15 -9q16 -59 26.5 -156t1.5 -212q-4 -43 -11 -93.5t-21.5 -101.5t-36 -100t-54.5 -90q-94 -125 -256 -125q-141 0 -217 141 q-49 92 -61 230q-88 31 -149.5 79t-102.5 95q-78 90 -120 203.5t-42 234.5zM35 807q0 -117 41 -226.5t114 -195.5q37 -45 94.5 -89t137.5 -75q-2 16 -2 31.5v32.5q0 117 24.5 231.5t69.5 206.5q49 96 115 154q57 47 125 57q-27 74 -82 137q-59 68 -136 105.5t-155 37.5 q-80 0 -145.5 -30.5t-112.5 -89.5q-88 -113 -88 -287zM579 372.5q-1 -98.5 11 -190.5q16 -2 32.5 -2h32.5q49 0 89 13.5t71 33t54.5 44t39.5 48.5q41 59 63.5 136t22.5 159q0 127 -53 209q-57 88 -154 88q27 -88 15 -174q0 -10 -15 -10q-10 0 -10 14q8 80 -12 160 q-61 -37 -104.5 -123t-65.5 -215q-16 -92 -17 -190.5zM825 1141q-6 8 11.5 31.5t41 49t46 47t28.5 25.5q10 10 27 12t29 -14q12 -14 6 -27.5t-17 -23.5q-6 -4 -30.5 -22.5t-54 -38t-55.5 -32.5t-32 -7z" />
<glyph unicode="&#xd4;" horiz-adv-x="1210" d="M10 807q0 -121 42 -234.5t120 -203.5q41 -47 102.5 -95.5t149.5 -78.5q12 -137 61 -230q76 -141 217 -141q162 0 256 125q33 41 54.5 90t36 100t21.5 101.5t11 93.5q8 115 -2 212t-26 156q0 12 -15 9q-12 -4 -8 -15q14 -59 24.5 -154.5t2.5 -205.5q-4 -43 -10.5 -91 t-20.5 -97.5t-34.5 -97.5t-51.5 -87q-68 -86 -170 -108h-4h-8q-45 0 -83 53t-63 151q-6 23 -11 47.5t-9 51.5q16 -2 31.5 -2h31.5q53 0 96.5 14t77 35.5t58 48.5t43.5 51q43 63 66.5 143t23.5 166q0 133 -57 224q-31 49 -77 73.5t-102 24.5h-4q-31 82 -90 151 q-63 72 -144 112t-165 40q-176 0 -279 -131q-45 -57 -68.5 -135t-23.5 -166zM35 807q0 174 88 287q47 59 112.5 89.5t145.5 30.5q78 0 154.5 -37.5t136.5 -105.5q55 -63 82 -137q-68 -10 -125 -57q-66 -57 -115 -154q-45 -92 -69.5 -207t-24.5 -231v-32t2 -32 q-80 31 -137.5 75t-94.5 89q-74 86 -114.5 195.5t-40.5 226.5zM579 372.5q1 98.5 17 190.5q23 129 66 215t104 123q20 -80 12 -160q0 -14 10 -14q14 0 15 10q12 86 -15 174q97 0 154 -88q53 -82 53 -209q0 -82 -22.5 -158.5t-63.5 -136.5q-16 -25 -39.5 -49t-54.5 -43.5 t-70.5 -33t-89.5 -13.5h-32.5t-32.5 2q-12 92 -11 190.5zM694 1208q45 59 64.5 96t46.5 37q12 0 24.5 -13t23.5 -32.5t21.5 -41t20.5 -40.5q4 -10 2 -12q-4 -2 -5 -5t-3 -1l-29 -14q-10 -4 -14 8l-49 104l-80 -98l-4 -2q-8 -8 -17 -2q-6 6 -2 16z" />
<glyph unicode="&#xd5;" horiz-adv-x="1210" d="M10 807q0 -121 42 -234.5t120 -203.5q41 -47 102.5 -95.5t149.5 -78.5q12 -137 61 -230q76 -141 217 -141q162 0 256 125q33 41 54.5 90t36 100t21.5 101.5t11 93.5q8 115 -2 212t-26 156q0 12 -15 9q-12 -4 -8 -15q14 -59 24.5 -154.5t2.5 -205.5q-4 -43 -10.5 -91 t-20.5 -97.5t-34.5 -97.5t-51.5 -87q-68 -86 -170 -108h-4h-8q-45 0 -83 53t-63 151q-6 23 -11 47.5t-9 51.5q16 -2 31.5 -2h31.5q53 0 96.5 14t77 35.5t58 48.5t43.5 51q43 63 66.5 143t23.5 166q0 133 -57 224q-31 49 -77 73.5t-102 24.5h-4q-31 82 -90 151 q-63 72 -144 112t-165 40q-176 0 -279 -131q-45 -57 -68.5 -135t-23.5 -166zM35 807q0 174 88 287q47 59 112.5 89.5t145.5 30.5q78 0 154.5 -37.5t136.5 -105.5q55 -63 82 -137q-68 -10 -125 -57q-66 -57 -115 -154q-45 -92 -69.5 -207t-24.5 -231v-32t2 -32 q-80 31 -137.5 75t-94.5 89q-74 86 -114.5 195.5t-40.5 226.5zM579 372.5q1 98.5 17 190.5q23 129 66 215t104 123q20 -80 12 -160q0 -14 10 -14q14 0 15 10q12 86 -15 174q97 0 154 -88q53 -82 53 -209q0 -82 -22.5 -158.5t-63.5 -136.5q-16 -25 -39.5 -49t-54.5 -43.5 t-70.5 -33t-89.5 -13.5h-32.5t-32.5 2q-12 92 -11 190.5zM639 1255q0 18 16.5 31.5t30.5 13.5q27 0 51.5 -21.5t53.5 -21.5q16 0 36.5 4.5t30.5 38.5q20 6 14 -12q-10 -31 -31.5 -44t-49.5 -13q-18 0 -34 7t-27 16.5t-21.5 16.5t-20.5 7q-14 0 -25.5 -9t-11.5 -16v-6 q0 -2 2 -4q-14 -2 -14 12z" />
<glyph unicode="&#xd6;" horiz-adv-x="1210" d="M10 807q0 88 23.5 166t68.5 135q102 131 279 131q84 0 165 -40t144 -112q59 -70 90 -151h4q55 0 101.5 -24.5t77.5 -73.5q57 -90 57 -224q0 -86 -23.5 -165.5t-66.5 -143.5q-18 -25 -43 -51.5t-58.5 -48t-76.5 -35.5t-97 -14h-31.5t-31.5 2q4 -27 9 -51.5t11 -47.5 q25 -98 63 -151t83 -53h8h4q102 23 170 108q31 39 51.5 87t34.5 97.5t20.5 97.5t10.5 91q8 111 -2.5 206t-24.5 154q-4 10 8 15q15 3 15 -9q16 -59 26.5 -156t1.5 -212q-4 -43 -11 -93.5t-21.5 -101.5t-36 -100t-54.5 -90q-94 -125 -256 -125q-141 0 -217 141 q-49 92 -61 230q-88 31 -149.5 79t-102.5 95q-78 90 -120 203.5t-42 234.5zM35 807q0 -117 41 -226.5t114 -195.5q37 -45 94.5 -89t137.5 -75q-2 16 -2 31.5v32.5q0 117 24.5 231.5t69.5 206.5q49 96 115 154q57 47 125 57q-27 74 -82 137q-59 68 -136 105.5t-155 37.5 q-80 0 -145.5 -30.5t-112.5 -89.5q-88 -113 -88 -287zM579 372.5q-1 -98.5 11 -190.5q16 -2 32.5 -2h32.5q49 0 89 13.5t71 33t54.5 44t39.5 48.5q41 59 63.5 136t22.5 159q0 127 -53 209q-57 88 -154 88q27 -88 15 -174q0 -10 -15 -10q-10 0 -10 14q8 80 -12 160 q-61 -37 -104.5 -123t-65.5 -215q-16 -92 -17 -190.5zM674 1245q0 27 14 45.5t37 18.5t37 -18.5t14 -45.5t-14 -46t-37 -19t-37 19.5t-14 45.5zM829 1245q0 27 14.5 45.5t37.5 18.5t37 -18.5t14 -45.5t-14 -46t-37 -19t-37.5 19.5t-14.5 45.5z" />
<glyph unicode="&#xd7;" horiz-adv-x="602" d="M90 262q0 8 6 8l170 162l-166 154h-2q-6 6 -2 16l29 33q0 6 8 6t8 -6l162 -168l170 162q14 4 19 0q6 -6 0 -17v-4l-3 -2l-157 -172l168 -176q4 -14 0 -18q-6 -6 -17 0h-4l-2 2l-176 159l-156 -172v-2q-6 -6 -16 -2l-33 29q-6 0 -6 8zM299 432h2l-2 2v-2z" />
<glyph unicode="&#xd8;" horiz-adv-x="931" d="M-35 -121q0 4 4 8l90 119q-59 123 -59 299q0 123 29.5 241t83.5 212q63 106 139 160q82 63 186 63q63 0 118.5 -34t90.5 -97l21 -47l127 164q4 2 6 4t6 -2q6 -6 2 -13v-4l-131 -178q23 -82 12 -176q-10 -78 -45 -153.5t-88 -141.5q-12 -12 -22 -4q-12 8 -5 16 q90 111 117 223.5t8 202.5l-442 -606l12 -45q63 -229 181 -229h14q127 23 207 116q35 41 58.5 90.5t37.5 99.5t21.5 100t11.5 93q6 115 -7.5 212.5t-31.5 156.5q-2 12 10 16q16 4 21 -8q18 -61 31.5 -161.5t4.5 -217.5q-4 -45 -11 -96t-22.5 -103.5t-39 -103.5t-60.5 -94 q-117 -135 -313 -135q-78 0 -143.5 35t-108.5 100l-74 -100l-2 -2q-4 -6 -12 0l-27 16q-2 -2 -2 1t-4 3zM190.5 397.5q-2.5 -106.5 12.5 -204.5l444 581q-6 16 -12 32.5t-14 33.5q-31 53 -79 82.5t-102 31.5q-84 -31 -141 -121t-86 -231q-20 -98 -22.5 -204.5z" />
<glyph unicode="&#xd9;" horiz-adv-x="1361" d="M-41 1049q2 61 39 106q41 45 106 45q98 0 170 -74q57 35 115 35q51 0 90 -20h4q137 -18 176 -246q16 -98 16.5 -214t-3.5 -226q-2 -63 -3 -124t2 -110t10 -86t24 -51q6 -8 18 -8q4 0 6 -2q37 12 68.5 41.5t60.5 71.5t53.5 89.5t42.5 94.5q23 57 41.5 111.5t30.5 97.5 t20 70l7 28v2q20 72 53 142.5t84 123.5q94 96 229 101q12 0 13 -13q4 -12 -11 -12q-61 -2 -116 -25l-5 -4q-55 -29 -88.5 -90t-52 -138t-25 -156t-6.5 -140q0 -117 13.5 -231.5t38.5 -227.5q10 -51 22 -94t27 -76q16 -37 38.5 -65.5t69.5 -28.5q31 0 55.5 14.5t43 37t30 50 t17.5 56.5q2 10 11 7t9 -11q0 -31 -13 -63t-35.5 -57.5t-52.5 -42t-65 -16.5q-92 0 -159 91q-55 70 -97 204q-33 111 -47 218.5t-16 185.5v26.5t2 30.5q-10 -29 -20.5 -58.5t-22.5 -58.5q-29 -68 -58.5 -122t-60.5 -93q-80 -102 -166 -102q-49 0 -82 33q-27 29 -39 77 t-15 109.5t1 132t8 146.5q6 84 9.5 167t-1.5 156q-4 84 -22.5 139.5t-46.5 88.5q-43 45 -115 45q-47 0 -98 -29q10 -10 17 -23.5t16 -25.5q35 -59 53 -136t18 -161q0 -141 -51 -240q-57 -111 -158 -110q-78 0 -119.5 54t-41.5 155q0 98 41 208q-59 37 -85 97.5t-22 122.5z M-16 1047q-4 -37 6 -75t33 -67q8 -12 20 -26.5t31 -24.5q27 66 57 117q55 90 115 135l8 6q-29 27 -65.5 45.5t-84.5 18.5q-55 0 -86 -37q-31 -35 -34 -92zM49 621q0 -27 5 -59t19.5 -59.5t41 -47t71.5 -19.5q47 0 82 29t57.5 76t34 104t11.5 117q0 80 -17.5 154t-50.5 131 q-6 10 -14 22t-19 25l-8 -7q-61 -47 -110 -129q-33 -53 -58 -118q29 -12 64 -19q14 0 10 -14q0 -10 -12 -10q-41 6 -70 20q-16 -51 -26.5 -100t-10.5 -96zM811 1342.5q-6 13.5 6 27.5q12 16 28.5 14t26.5 -12q6 -4 29 -25.5t46.5 -47t41 -49t10.5 -31.5q-6 -6 -31.5 7 t-55 32.5t-54 38t-31.5 22.5q-10 10 -16 23.5z" />
<glyph unicode="&#xda;" horiz-adv-x="1361" d="M-41 1049q2 61 39 106q41 45 106 45q98 0 170 -74q57 35 115 35q51 0 90 -20h4q137 -18 176 -246q16 -98 16.5 -214t-3.5 -226q-2 -63 -3 -124t2 -110t10 -86t24 -51q6 -8 18 -8q4 0 6 -2q37 12 68.5 41.5t60.5 71.5t53.5 89.5t42.5 94.5q23 57 41.5 111.5t30.5 97.5 t20 70l7 28v2q20 72 53 142.5t84 123.5q94 96 229 101q12 0 13 -13q4 -12 -11 -12q-61 -2 -116 -25l-5 -4q-55 -29 -88.5 -90t-52 -138t-25 -156t-6.5 -140q0 -117 13.5 -231.5t38.5 -227.5q10 -51 22 -94t27 -76q16 -37 38.5 -65.5t69.5 -28.5q31 0 55.5 14.5t43 37t30 50 t17.5 56.5q2 10 11 7t9 -11q0 -31 -13 -63t-35.5 -57.5t-52.5 -42t-65 -16.5q-92 0 -159 91q-55 70 -97 204q-33 111 -47 218.5t-16 185.5v26.5t2 30.5q-10 -29 -20.5 -58.5t-22.5 -58.5q-29 -68 -58.5 -122t-60.5 -93q-80 -102 -166 -102q-49 0 -82 33q-27 29 -39 77 t-15 109.5t1 132t8 146.5q6 84 9.5 167t-1.5 156q-4 84 -22.5 139.5t-46.5 88.5q-43 45 -115 45q-47 0 -98 -29q10 -10 17 -23.5t16 -25.5q35 -59 53 -136t18 -161q0 -141 -51 -240q-57 -111 -158 -110q-78 0 -119.5 54t-41.5 155q0 98 41 208q-59 37 -85 97.5t-22 122.5z M-16 1047q-4 -37 6 -75t33 -67q8 -12 20 -26.5t31 -24.5q27 66 57 117q55 90 115 135l8 6q-29 27 -65.5 45.5t-84.5 18.5q-55 0 -86 -37q-31 -35 -34 -92zM49 621q0 -27 5 -59t19.5 -59.5t41 -47t71.5 -19.5q47 0 82 29t57.5 76t34 104t11.5 117q0 80 -17.5 154t-50.5 131 q-6 10 -14 22t-19 25l-8 -7q-61 -47 -110 -129q-33 -53 -58 -118q29 -12 64 -19q14 0 10 -14q0 -10 -12 -10q-41 6 -70 20q-16 -51 -26.5 -100t-10.5 -96zM768 1363q-6 14 6 28q12 16 28.5 14t26.5 -12q6 -4 29 -25.5t46.5 -47.5t41 -49.5t10.5 -31.5q-6 -6 -31.5 7.5 t-55 32.5t-54 37.5t-31.5 22.5q-10 10 -16 24z" />
<glyph unicode="&#xdb;" horiz-adv-x="1361" d="M-41 1049q-4 -61 21.5 -122t85.5 -98q-41 -111 -41 -208q0 -100 42 -154.5t119 -54.5q100 0 158 110q51 98 51 240q0 84 -18.5 160.5t-52.5 136.5q-8 12 -15.5 25.5t-17.5 23.5q51 29 98 29q72 0 115 -45q29 -33 47 -88.5t22 -139.5q4 -74 1 -156.5t-9 -166.5 q-4 -76 -8 -146.5t-1 -132t15.5 -110t38.5 -76.5q33 -33 82 -33q86 0 166 102q31 39 60.5 93.5t58.5 121.5q12 29 22.5 59t20.5 58q-2 -16 -2 -30.5v-26.5q2 -78 16.5 -185.5t46.5 -218.5q41 -135 97 -204q68 -90 159 -91q35 0 65 16.5t52.5 42t35.5 57.5t13 63q0 8 -9 11 t-11 -7q-6 -29 -17.5 -56.5t-30 -50t-43 -37t-55.5 -14.5q-47 0 -69.5 28.5t-38.5 65.5q-14 33 -26.5 76t-22.5 94q-25 113 -38.5 227.5t-13.5 231.5q0 61 6.5 140t25 156t52 138.5t88.5 89.5q4 4 5 4q55 23 116 25q14 0 11 12q0 12 -13 13q-135 -4 -229 -101 q-51 -53 -84 -123.5t-53 -142.5v-2l-7 -28q-8 -27 -20 -70t-30.5 -97.5t-41.5 -111.5q-18 -47 -42.5 -94.5t-53.5 -89.5t-60.5 -71.5t-68.5 -41.5q-2 2 -6 2q-12 0 -18 8q-16 14 -23.5 51t-10.5 86t-2 109.5t3 124.5q4 111 4 226.5t-17 213.5q-39 227 -176 246h-4 q-39 20 -90 20q-57 0 -115 -35q-72 74 -170 74q-66 0 -106 -45q-37 -45 -39 -106zM-16 1047q4 57 34 92q31 37 86 37q47 0 84 -18.5t66 -45.5l-8 -6q-59 -45 -115 -135q-31 -51 -57 -117q-18 10 -30.5 24.5t-20.5 26.5q-23 29 -33 67t-6 75zM49 621q0 47 10.5 96t26.5 100 q29 -14 70 -20q12 0 12 10q4 14 -10 14q-35 6 -64 19q25 66 58 118q49 82 110 129l8 7q10 -12 18.5 -24.5t14.5 -22.5q33 -57 50.5 -131t17.5 -154q0 -59 -11.5 -116.5t-34 -104.5t-57.5 -76t-82 -29q-45 0 -71.5 19.5t-41 47t-19.5 59.5t-5 59zM809 1208q45 59 64.5 96 t46.5 37q12 0 24 -13t23.5 -32.5t21.5 -41t21 -40.5q4 -10 2 -12q-4 -2 -5 -5t-3 -1l-29 -14q-10 -4 -14 8l-50 104l-80 -98l-4 -2q-8 -8 -16 -2q-6 6 -2 16z" />
<glyph unicode="&#xdc;" horiz-adv-x="1361" d="M-41 1049q2 61 39 106q41 45 106 45q98 0 170 -74q57 35 115 35q113 0 178.5 -58.5t91.5 -207.5q16 -98 16.5 -214t-3.5 -226q-2 -63 -3 -124t2 -110t10 -86t24 -51q6 -8 18 -8q4 0 6 -2q37 12 68.5 41.5t60.5 71.5t53.5 89.5t42.5 94.5q23 57 41.5 111.5t30.5 97.5 t20 70l7 28v2q20 72 53 142.5t84 123.5q94 96 229 101q12 0 13 -13q4 -12 -11 -12q-61 -2 -116 -25l-5 -4q-55 -29 -88.5 -90t-52 -138t-25 -156t-6.5 -140q0 -117 13.5 -231.5t38.5 -227.5q10 -51 22 -94t27 -76q16 -37 38.5 -65.5t69.5 -28.5q31 0 55.5 14.5t43 37t30 50 t17.5 56.5q2 10 11 7t9 -11q0 -31 -13 -63t-35.5 -57.5t-52.5 -42t-65 -16.5q-92 0 -159 91q-55 70 -97 204q-33 111 -47 218.5t-16 185.5v26.5t2 30.5q-10 -29 -20.5 -58.5t-22.5 -58.5q-29 -68 -58.5 -122t-60.5 -93q-80 -102 -166 -102q-49 0 -82 33q-27 29 -39 77 t-15 109.5t1 132t8 146.5q6 84 9.5 167t-1.5 156q-4 84 -22.5 139.5t-46.5 88.5q-43 45 -115 45q-47 0 -98 -29q10 -10 17 -23.5t16 -25.5q35 -59 53 -136t18 -161q0 -141 -51 -240q-57 -111 -158 -110q-78 0 -119.5 54t-41.5 155q0 98 41 208q-59 37 -85 97.5t-22 122.5z M-16 1047q-4 -37 6 -75t33 -67q8 -12 20 -26.5t31 -24.5q27 66 57 117q55 90 115 135l8 6q-29 27 -65.5 45.5t-84.5 18.5q-55 0 -86 -37q-31 -35 -34 -92zM49 621q0 -27 5 -59t19.5 -59.5t41 -47t71.5 -19.5q47 0 82 29t57.5 76t34 104t11.5 117q0 80 -17.5 154t-50.5 131 q-6 10 -14 22t-19 25l-8 -7q-61 -47 -110 -129q-33 -53 -58 -118q29 -12 64 -19q14 0 10 -14q0 -10 -12 -10q-41 6 -70 20q-16 -51 -26.5 -100t-10.5 -96zM772 1227q0 27 14.5 45t36.5 18q23 0 37 -18.5t14 -44.5q0 -27 -14 -46.5t-37 -19.5t-37 19.5t-14 46.5zM928 1227 q0 27 14 45t37 18t37 -18.5t14 -44.5q0 -27 -14 -46.5t-37 -19.5t-37 19.5t-14 46.5z" />
<glyph unicode="&#xdd;" horiz-adv-x="1359" d="M-27 934q4 66 41 106q39 45 105 45q98 0 170 -73q57 35 114 35q121 0 185.5 -72t85.5 -195q16 -98 16 -213.5t-2 -226.5q-2 -61 -3 -133t1 -136.5t9 -113.5t20 -68q12 20 24.5 39t28.5 37q33 37 71 66.5t83 50.5q16 8 33.5 15t35.5 12q4 10 7 21t8 22q12 33 20 78.5 t14.5 93t10.5 87.5l6 60v22.5t4 24.5v4v4q8 39 23.5 75t35 64.5t38 49t32.5 30.5h2v3h2h2h2h2h2v-3h2l2 -2v-2h2v-2v-2h2v-2v-2h-2v-2v-2h-2q-25 -37 -36 -79t-13 -92t3 -108.5t14 -125.5q2 -14 4 -41t4 -56.5t3 -58.5t3 -43q63 -10 123 -43q74 -41 127 -113 q27 -35 46 -71.5t34 -75.5q59 49 136 75.5t161 26.5h2q41 0 90 -9t101 -28.5t103.5 -52.5t98.5 -80q8 -12 -2 -18q-8 -8 -17 0q-80 82 -190 127q-47 18 -94 27.5t-90 9.5h-2q-104 0 -175 -33t-112 -68q0 -2 -1 -2t-1 -2q8 -27 11 -53.5t3 -48.5q0 -49 -16 -82 q-23 -35 -62 -35q-57 0 -57 59q0 37 25.5 82t66.5 86q-25 80 -80 152q-33 43 -89 87t-138 58q4 -57 8 -118.5t4 -131.5q0 -203 -69 -321q-78 -133 -230 -147q-2 -2 -6 -3h-2h-4h-27q-106 0 -166 78q-55 72 -55 183q0 51 13.5 103t35.5 103q-41 4 -67 33q-27 27 -39.5 88.5 t-15.5 138t1 160.5t9 160q6 84 9 167t-1 159q-8 162 -70 225q-43 45 -115 45q-47 0 -98 -29q10 -10 17.5 -22.5t17.5 -26.5q33 -59 51.5 -136t18.5 -159q0 -143 -52 -241q-57 -111 -157 -111q-78 0 -120 54.5t-42 154.5q0 98 41 209q-57 37 -84 98t-23 121zM-2 932 q-6 -75 39 -141q8 -12 20.5 -26.5t30.5 -25.5q25 63 57 119q27 41 55.5 76t59.5 57q2 2 4 3t4 3q-29 29 -64.5 46.5t-84.5 17.5q-55 0 -86 -37q-31 -35 -35 -92zM63 506q0 -25 5.5 -57.5t19.5 -60.5t41 -47t72 -19q47 0 81.5 28.5t57 75.5t34 105.5t11.5 117.5 q0 78 -17.5 152t-50.5 131q-6 10 -14 22.5t-18 24.5q-2 -2 -4 -3t-5 -3q-29 -23 -57.5 -55.5t-50.5 -73.5q-37 -59 -59 -117q25 -14 63 -20q12 0 12 -15q-4 -10 -14 -10q-20 4 -36.5 9t-33.5 11q-16 -51 -26.5 -100t-10.5 -96zM668 -360q0 -102 49 -168q51 -68 147 -68h18.5 t18.5 2q70 14 111 81t59.5 165t20.5 216t-7 234q-20 -4 -39.5 -7t-35.5 -7q-39 -92 -92 -149q-82 -88 -199 -95q-51 -102 -51 -204zM735 -123h2q6 0 11 -4q84 12 151 82q45 47 80 125q-68 -23 -115 -59.5t-78 -71.5q-14 -16 -26 -34.5t-25 -37.5zM825 1141q-6 8 11.5 31.5 t41 49t46 47t28.5 25.5q10 10 27 12t29 -14q12 -14 6 -27.5t-17 -23.5q-6 -4 -30.5 -22.5t-54 -38t-55.5 -32.5t-32 -7zM1020 117q16 4 31.5 6t31.5 4q-2 20 -4 54t-4 70t-4 68.5t-4 51.5q-4 -16 -7 -47t-8 -65t-10.5 -66t-11.5 -50q-4 -8 -5 -14t-5 -12zM1430 -365 q0 -35 32 -34q27 -1 39 22q14 23 15 70q0 37 -11 84q-41 -41 -58 -78t-17 -64z" />
<glyph unicode="&#xde;" horiz-adv-x="638" d="M-276 -158q0 12 12 13q61 0 114 28l5 2q104 61 141 252q31 158 16 389q-6 88 -16 186.5t-19.5 184.5t-14.5 152.5t-1 95.5q4 0 17.5 3t52.5 7q10 0 20.5 -1t20.5 -17q12 -20 21 -74.5t16.5 -124.5t12.5 -145.5t11 -137.5q6 43 27.5 90.5t55.5 87t77 65.5t92 26 q45 0 76 -22.5t50 -57.5t27.5 -78t8.5 -84q0 -78 -20.5 -135.5t-59.5 -128.5q-41 -82 -93 -125t-110 -43q-53 0 -74 59q-16 55 11 119q29 72 110 135q8 8 17 -4q6 -8 -2 -16q-78 -59 -101.5 -122t-9.5 -104q12 -43 49 -43q41 0 80 29q2 0 2 1t2 1q2 2 11.5 17.5t19.5 62.5 q8 33 14 74t10 88q2 20 4.5 75.5t-4 113t-26 102.5t-60.5 45q-41 -20 -70.5 -57.5t-50 -80.5t-31.5 -88t-17.5 -81.5t-8.5 -61.5l-2 -25q0 -4 -2 -6q-4 -78 -20.5 -174t-51.5 -188q-49 -129 -122 -203q-92 -88 -205 -88q-12 0 -12 12z" />
<glyph unicode="&#xdf;" horiz-adv-x="692" d="M-287 -119q-4 12 11 13q63 0 114 26q2 0 4 2q53 29 86 86.5t58 143.5q12 37 17 104.5t11 151.5t16.5 178t33 187t59.5 178t96 151q68 74 152 74q61 0 99 -34t59.5 -85t29.5 -110.5t8 -110.5q0 -90 -32.5 -180.5t-102.5 -157.5q63 -31 103 -99q35 -72 25.5 -159.5 t-62.5 -163.5q-20 -29 -47 -52.5t-56 -39.5q33 -10 71 -30t78 -40t77.5 -35.5t70.5 -17.5q72 -4 131.5 20.5t94.5 83.5q8 8 16 2q12 -4 4 -16q-41 -66 -102.5 -90.5t-135.5 -24.5q-39 0 -82 15.5t-86 37t-84.5 44t-80.5 34.5q-86 -41 -193 -26q-76 8 -96 39q-12 18 -6 43 q6 20 20 28q29 16 89.5 1t146.5 -44q37 43 55 105.5t22.5 128t-2 126t-18.5 97.5q-51 -29 -104 -29q-55 0 -80 10q-23 10 -23 29q0 35 29 44t82 9q29 0 54.5 -4t47.5 -10q4 12 9.5 39t10.5 59.5t8 64.5t5 50q0 18 1 57t-1 84t-9 93.5t-20.5 87t-36 63.5t-55.5 25 q-39 -16 -65 -50q-49 -59 -76 -147l-17 -59q-8 -33 -11 -60.5t-7 -50.5q-4 -25 -4 -47v-6q-2 -37 -7 -116t-14.5 -168t-21.5 -172t-29 -124q-51 -123 -123 -186q-88 -82 -202 -82q-12 0 -13 12zM94 1q2 -5 4 -7q12 -21 78 -31q35 -4 70 -1t63 28q-55 16 -103 29.5t-77 13.5 q-18 0 -25 -4q-4 -2 -8 -13q-4 -10 -2 -15zM203 475q0 -4 6 -6q10 -4 27.5 -6t44.5 -2q47 0 94 26v7q-41 10 -86 10q-33 0 -50.5 -2t-25.5 -6t-9 -9.5t-1 -11.5z" />
<glyph unicode="&#xe0;" d="M-4 219q0 55 13.5 109.5t37.5 99.5q57 102 146 102q25 0 54 -13t47.5 -40.5t20.5 -68.5t-28 -97q-2 -4 -7.5 -6t-9.5 2q-4 2 -6 7t2 10q25 39 25 71.5t-14.5 57t-37 39t-42.5 14.5q-29 -29 -49.5 -80t-30.5 -115q-8 -61 -3 -118.5t21 -94.5q25 -55 66 -51h6q39 18 74 72 q10 16 17 31.5t11 27.5q6 14 8 29v2q2 16 2 31.5v29.5t10.5 24.5t26 16.5t31.5 9.5t29 3.5q6 0 10 -7q12 -12 6 -90q-2 -25 -3 -62.5t0 -76.5t5 -70.5t15 -44.5q8 -8 20 -8q14 0 32.5 38t37 92.5t34 110.5t25.5 93q4 23 12 14.5t4 -30.5q-10 -43 -26.5 -100.5t-37 -111 t-39.5 -91t-34 -39.5q-4 -2 -18.5 -6.5t-42.5 -4.5q-41 0 -68 27q-10 8 -15 30.5t-9.5 49t-6.5 52.5t-2 44q-4 -6 -7 -13t-7 -14q-59 -98 -154 -98q-76 0 -116 66q-35 57 -35 145zM172 738.5q-6 13.5 6 27.5q12 16 28.5 14t26.5 -12q6 -4 29 -25.5t46.5 -47t41 -49 t10.5 -32.5q-6 -6 -31.5 7.5t-55 33t-54 38t-31.5 22.5q-10 10 -16 23.5z" />
<glyph unicode="&#xe1;" d="M-4 219q0 55 13.5 109.5t37.5 99.5q57 102 146 102q25 0 54 -13t47.5 -40.5t20.5 -68.5t-28 -97q-2 -4 -7.5 -6t-9.5 2q-4 2 -6 7t2 10q25 39 25 71.5t-14.5 57t-37 39t-42.5 14.5q-29 -29 -49.5 -80t-30.5 -115q-8 -61 -3 -118.5t21 -94.5q25 -55 66 -51h6q39 18 74 72 q10 16 17 31.5t11 27.5q6 14 8 29v2q2 16 2 31.5v29.5t10.5 24.5t26 16.5t31.5 9.5t29 3.5q6 0 10 -7q12 -12 6 -90q-2 -25 -3 -62.5t0 -76.5t5 -70.5t15 -44.5q8 -8 20 -8q14 0 32.5 38t37 92.5t34 110.5t25.5 93q4 23 12 14.5t4 -30.5q-10 -43 -26.5 -100.5t-37 -111 t-39.5 -91t-34 -39.5q-4 -2 -18.5 -6.5t-42.5 -4.5q-41 0 -68 27q-10 8 -15 30.5t-9.5 49t-6.5 52.5t-2 44q-4 -6 -7 -13t-7 -14q-59 -98 -154 -98q-76 0 -116 66q-35 57 -35 145zM205 625q-6 8 11 31.5t41 49t46.5 47t28.5 25.5q10 10 26.5 12t28.5 -14q12 -14 6 -27.5 t-16 -23.5q-6 -4 -30.5 -22.5t-54.5 -38t-55.5 -33t-31.5 -6.5z" />
<glyph unicode="&#xe2;" d="M-4 219q0 -88 35 -145q41 -66 116 -66q94 0 154 98q4 6 7 13.5t7 13.5q0 -18 2 -44t6.5 -52.5t9.5 -49t15 -30.5q27 -27 68 -27q29 0 43 4.5t18 6.5q14 2 33.5 39.5t40 91t37 111t26.5 100.5q4 23 -4 31t-12 -15q-10 -37 -25.5 -93t-34 -110.5t-37 -92.5t-32.5 -38 q-12 0 -20 8q-10 12 -14.5 44t-5.5 71t0 77t3 62q6 78 -6 90q-4 6 -10 7q-12 0 -28.5 -3.5t-32 -9.5t-26 -16t-10.5 -25v-29.5t-2 -31.5v-2q-2 -14 -8 -29q-4 -12 -11 -27.5t-17 -31.5q-35 -53 -74 -72h-6q-41 -4 -66 51q-16 37 -21 94.5t3 118.5q10 63 30.5 114.5 t49.5 80.5q20 0 42.5 -14.5t37 -39t14.5 -57.5t-25 -71q-4 -4 -2 -9.5t6 -7.5q4 -4 9.5 -2t7.5 6q31 55 28.5 96.5t-21 69t-48 40.5t-53.5 13q-88 0 -146 -102q-25 -45 -38 -99.5t-13 -109.5zM182 635q45 59 64.5 96t46.5 37q12 0 24.5 -13.5t23.5 -33t21.5 -41t20.5 -39.5 q4 -10 2 -12q-4 -2 -5 -5t-3 -1l-29 -15q-10 -4 -14 8l-49 105l-80 -98l-4 -2q-8 -8 -17 -3q-6 6 -2 17z" />
<glyph unicode="&#xe3;" d="M-4 219q0 -88 35 -145q41 -66 116 -66q94 0 154 98q4 6 7 13.5t7 13.5q0 -18 2 -44t6.5 -52.5t9.5 -49t15 -30.5q27 -27 68 -27q29 0 43 4.5t18 6.5q14 2 33.5 39.5t40 91t37 111t26.5 100.5q4 23 -4 31t-12 -15q-10 -37 -25.5 -93t-34 -110.5t-37 -92.5t-32.5 -38 q-12 0 -20 8q-10 12 -14.5 44t-5.5 71t0 77t3 62q6 78 -6 90q-4 6 -10 7q-12 0 -28.5 -3.5t-32 -9.5t-26 -16t-10.5 -25v-29.5t-2 -31.5v-2q-2 -14 -8 -29q-4 -12 -11 -27.5t-17 -31.5q-35 -53 -74 -72h-6q-41 -4 -66 51q-16 37 -21 94.5t3 118.5q10 63 30.5 114.5 t49.5 80.5q20 0 42.5 -14.5t37 -39t14.5 -57.5t-25 -71q-4 -4 -2 -9.5t6 -7.5q4 -4 9.5 -2t7.5 6q31 55 28.5 96.5t-21 69t-48 40.5t-53.5 13q-88 0 -146 -102q-25 -45 -38 -99.5t-13 -109.5zM180 637q0 18 16.5 31.5t30.5 13.5q27 0 51.5 -21.5t53.5 -21.5q16 0 36.5 4 t30.5 39q20 6 15 -12q-10 -31 -32 -44.5t-50 -13.5q-18 0 -33.5 7.5t-27 16.5t-21.5 16t-21 7q-14 0 -25 -9t-11 -15v-6q0 -2 2 -4q-14 -2 -15 12z" />
<glyph unicode="&#xe4;" d="M-4 219q0 55 13.5 109.5t37.5 99.5q57 102 146 102q25 0 54 -13t47.5 -40.5t20.5 -68.5t-28 -97q-2 -4 -7.5 -6t-9.5 2q-4 2 -6 7t2 10q25 39 25 71.5t-14.5 57t-37 39t-42.5 14.5q-29 -29 -49.5 -80t-30.5 -115q-8 -61 -3 -118.5t21 -94.5q25 -55 66 -51h6q39 18 74 72 q10 16 17 31.5t11 27.5q6 14 8 29v2q2 16 2 31.5v29.5t10.5 24.5t26 16.5t31.5 9.5t29 3.5q6 0 10 -7q12 -12 6 -90q-2 -25 -3 -62.5t0 -76.5t5 -70.5t15 -44.5q8 -8 20 -8q14 0 32.5 38t37 92.5t34 110.5t25.5 93q4 23 12 14.5t4 -30.5q-10 -43 -26.5 -100.5t-37 -111 t-39.5 -91t-34 -39.5q-4 -2 -18.5 -6.5t-42.5 -4.5q-41 0 -68 27q-10 8 -15 30.5t-9.5 49t-6.5 52.5t-2 44q-4 -6 -7 -13t-7 -14q-59 -98 -154 -98q-76 0 -116 66q-35 57 -35 145zM160 674q0 27 14 45t37 18t37 -18.5t14 -44.5q0 -27 -14 -46.5t-37 -19.5t-37 19.5t-14 46.5 zM315 674q0 27 14.5 45t37.5 18t37 -18.5t14 -44.5q0 -27 -14 -46.5t-37 -19.5t-37.5 19.5t-14.5 46.5z" />
<glyph unicode="&#xe5;" d="M-4 219q0 55 13.5 109.5t37.5 99.5q57 102 146 102q25 0 54 -13t47.5 -40.5t20.5 -68.5t-28 -97q-2 -4 -7.5 -6t-9.5 2q-4 2 -6 7t2 10q25 39 25 71.5t-14.5 57t-37 39t-42.5 14.5q-29 -29 -49.5 -80t-30.5 -115q-8 -61 -3 -118.5t21 -94.5q25 -55 66 -51h6q39 18 74 72 q10 16 17 31.5t11 27.5q6 14 8 29v2q2 16 2 31.5v29.5t10.5 24.5t26 16.5t31.5 9.5t29 3.5q6 0 10 -7q12 -12 6 -90q-2 -25 -3 -62.5t0 -76.5t5 -70.5t15 -44.5q8 -8 20 -8q14 0 32.5 38t37 92.5t34 110.5t25.5 93q4 23 12 14.5t4 -30.5q-10 -43 -26.5 -100.5t-37 -111 t-39.5 -91t-34 -39.5q-4 -2 -18.5 -6.5t-42.5 -4.5q-41 0 -68 27q-10 8 -15 30.5t-9.5 49t-6.5 52.5t-2 44q-4 -6 -7 -13t-7 -14q-59 -98 -154 -98q-76 0 -116 66q-35 57 -35 145zM186 676q0 31 21.5 52.5t52.5 21.5t52.5 -21.5t21.5 -52.5t-21.5 -52.5t-52.5 -21.5 t-52.5 21.5t-21.5 52.5zM211 676q0 -20 14.5 -34.5t34.5 -14.5t34.5 14t14.5 35q0 20 -14 34.5t-35 14.5q-20 0 -34.5 -14.5t-14.5 -34.5z" />
<glyph unicode="&#xe6;" horiz-adv-x="843" d="M-8 201q0 55 13 109.5t38 99.5q57 102 145 102q25 0 54.5 -13.5t48 -41t20.5 -68.5t-28 -96q-2 -4 -7.5 -6t-9.5 2q-4 2 -6 7t2 9q25 39 25 72t-14.5 57.5t-37 38.5t-42.5 14q-29 -29 -49.5 -80t-30.5 -114q-8 -61 -3 -118.5t21 -94.5q25 -55 66 -51h6q20 10 49 41.5 t45 58.5q6 8 10 15.5t8 15.5q-4 20 -4 37.5v33.5q0 53 13.5 104.5t37.5 92.5q57 98 146 98q41 0 67 -32q23 -27 23 -72q0 -35 -12.5 -69t-34.5 -62q-49 -59 -121 -66q0 -25 3 -66.5t14.5 -82.5t33 -72t58.5 -37q49 0 99 34t93 84t73 108.5t38 107.5q4 10 14 10q16 -4 12 -14 q-12 -59 -42.5 -122.5t-79 -117t-112 -88.5t-138.5 -35q-43 0 -74 16.5t-51.5 42t-32.5 58.5t-19 68l-2 -2q-29 -47 -79 -87t-95 -40q-76 0 -116 65q-35 57 -35 146zM428 250q39 4 63.5 21.5t38.5 35.5q43 53 43 115q0 34 -16 57q-14 18 -45 23q-61 -61 -78 -189 q-4 -16 -4 -31.5t-2 -31.5z" />
<glyph unicode="&#xe7;" horiz-adv-x="434" d="M0 242q0 57 15.5 114.5t41.5 104.5q29 53 69 80.5t81 29.5h8q41 -4 57 -22q14 -18 12.5 -45t-8.5 -49q-4 -12 -14 -9q-10 0 -10 15q14 55 0 74q-10 8 -37 12q-29 -31 -52.5 -85t-33.5 -120q-6 -33 -8 -71t0 -73.5t7 -67.5t13 -50q18 -39 41 -43t27 -4q35 6 72.5 35.5 t69.5 69.5t55.5 85t31.5 80q4 10 17 10q4 -2 6 -9t0 -11q-10 -45 -37 -95.5t-63.5 -93.5t-82 -72.5t-92.5 -33.5q-6 -10 -10 -27.5t-4 -27.5t17.5 -12.5t39 -5.5t39 -10t17.5 -26q0 -33 -18.5 -47t-43 -18t-51.5 0t-41 10q-10 4 -9 15.5t9 15.5q16 -6 35.5 -12.5t37 -7.5 t29 7.5t11.5 32.5q0 14 -15.5 17.5t-35 5.5t-35 5t-15.5 15q0 10 2 32t9 38q-4 0 -6.5 1t-4.5 1q-35 2 -64.5 24.5t-47.5 53.5q-16 25 -23.5 74t-7.5 90z" />
<glyph unicode="&#xe8;" horiz-adv-x="522" d="M-4 231q0 53 13.5 104.5t37.5 92.5q57 98 146 98q41 0 67 -32q23 -27 23 -72q0 -35 -12.5 -69t-34.5 -62q-49 -59 -121 -66q0 -25 3 -66.5t14 -82.5t32.5 -72t58.5 -37q49 0 99.5 34t93.5 84t72.5 108.5t37.5 107.5q5 10 15 10q16 -4 12 -14q-12 -59 -43 -122.5t-79 -117 t-111.5 -88.5t-139.5 -35q-63 0 -100 33t-55.5 79t-23.5 97.5t-5 87.5zM80 738.5q-6 13.5 6 27.5q12 16 28.5 14t26.5 -12q6 -4 29 -25.5t46.5 -47t40.5 -49t11 -32.5q-6 -6 -31.5 7.5t-55 33t-54.5 38t-31 22.5q-10 10 -16 23.5zM113 250q39 4 63.5 21.5t38.5 35.5 q43 53 43 115q0 34 -16 57q-14 18 -45 23q-61 -61 -78 -189q-4 -16 -4 -31.5t-2 -31.5z" />
<glyph unicode="&#xe9;" horiz-adv-x="522" d="M-4 231q0 53 13.5 104.5t37.5 92.5q57 98 146 98q41 0 67 -32q23 -27 23 -72q0 -35 -12.5 -69t-34.5 -62q-49 -59 -121 -66q0 -25 3 -66.5t14 -82.5t32.5 -72t58.5 -37q49 0 99.5 34t93.5 84t72.5 108.5t37.5 107.5q5 10 15 10q16 -4 12 -14q-12 -59 -43 -122.5t-79 -117 t-111.5 -88.5t-139.5 -35q-63 0 -100 33t-55.5 79t-23.5 97.5t-5 87.5zM86 614q-6 8 11.5 32t41 49.5t46 47t28.5 25.5q10 10 26.5 12t28.5 -14q12 -14 6 -27.5t-16 -23.5q-6 -4 -30.5 -22.5t-54.5 -38t-55.5 -33t-31.5 -7.5zM113 250q39 4 63.5 21.5t38.5 35.5 q43 53 43 115q0 34 -16 57q-14 18 -45 23q-61 -61 -78 -189q-4 -16 -4 -31.5t-2 -31.5z" />
<glyph unicode="&#xea;" horiz-adv-x="522" d="M-4 231q0 -37 5 -88t23.5 -97t55.5 -79t100 -33q76 0 139.5 35t111.5 88.5t79 117t43 122.5q4 10 -12 14q-10 0 -15 -10q-8 -49 -37.5 -107.5t-72.5 -108.5t-93.5 -84t-99.5 -34q-37 6 -58.5 37t-32.5 72t-14 83t-3 66q72 6 121 66q23 29 35 62.5t12 68.5q0 45 -23 72 q-27 33 -67 32q-88 0 -146 -98q-25 -41 -38 -92t-13 -105zM88 635q45 59 64.5 96t46.5 37q12 0 24.5 -13.5t23.5 -33t21.5 -41t20.5 -39.5q4 -10 2 -12q-4 -2 -5 -5t-3 -1l-29 -15q-10 -4 -14 8l-50 105l-79 -98l-5 -2q-8 -8 -16 -3q-6 6 -2 17zM113 250q2 16 2 31.5t4 31.5 q16 127 78 189q31 -5 45 -23q16 -23 16 -57q0 -61 -43 -115q-14 -18 -38.5 -35.5t-63.5 -21.5z" />
<glyph unicode="&#xeb;" horiz-adv-x="522" d="M-4 231q0 53 13.5 104.5t37.5 92.5q57 98 146 98q41 0 67 -32q23 -27 23 -72q0 -35 -12.5 -69t-34.5 -62q-49 -59 -121 -66q0 -25 3 -66.5t14 -82.5t32.5 -72t58.5 -37q49 0 99.5 34t93.5 84t72.5 108.5t37.5 107.5q5 10 15 10q16 -4 12 -14q-12 -59 -43 -122.5t-79 -117 t-111.5 -88.5t-139.5 -35q-63 0 -100 33t-55.5 79t-23.5 97.5t-5 87.5zM43 674q0 27 14.5 45t36.5 18q23 0 37 -18.5t14 -44.5q0 -27 -14 -46.5t-37 -19.5t-37 19.5t-14 46.5zM113 250q39 4 63.5 21.5t38.5 35.5q43 53 43 115q0 34 -16 57q-14 18 -45 23q-61 -61 -78 -189 q-4 -16 -4 -31.5t-2 -31.5zM199 674q0 27 14 45t37 18t37 -18.5t14 -44.5q0 -27 -14 -46.5t-37 -19.5t-37 19.5t-14 46.5z" />
<glyph unicode="&#xec;" horiz-adv-x="274" d="M-71.5 660.5q-6.5 13.5 5.5 27.5q12 16 29 14t27 -12q6 -4 28.5 -25.5t46 -47t41 -49t11.5 -31.5q-6 -6 -32 7t-55.5 32.5t-54 38t-30.5 22.5q-10 10 -16.5 23.5zM2 162q-2 45 0 90t2 82q0 29 23.5 49t50.5 20q14 0 17 -14t5 -29q0 -14 1 -33.5t1 -41.5q0 -41 1 -87 t8 -87q12 -82 45 -82q20 0 37.5 25.5t32 65.5t26.5 87t24 92q5 10 15 10q14 0 10 -14q-8 -31 -19.5 -79t-28.5 -93t-40 -80t-53 -39q-6 -4 -19.5 -7t-38.5 -3q-39 0 -59 24q-20 20 -29.5 59.5t-11.5 84.5z" />
<glyph unicode="&#xed;" horiz-adv-x="274" d="M2 162q-2 45 0 90t2 82q0 29 23.5 49t50.5 20q14 0 17 -14t5 -29q0 -14 1 -33.5t1 -41.5q0 -41 1 -87t8 -87q12 -82 45 -82q20 0 37.5 25.5t32 65.5t26.5 87t24 92q5 10 15 10q14 0 10 -14q-8 -31 -19.5 -79t-28.5 -93t-40 -80t-53 -39q-6 -4 -19.5 -7t-38.5 -3 q-39 0 -59 24q-20 20 -29.5 59.5t-11.5 84.5zM4 537q-6 8 11.5 31.5t41 49t46 47t28.5 25.5q10 10 26.5 12t28.5 -14q12 -14 6 -27.5t-16 -23.5q-6 -4 -30.5 -22.5t-54.5 -38t-55.5 -33t-31.5 -6.5z" />
<glyph unicode="&#xee;" horiz-adv-x="274" d="M-53 602q45 59 64.5 96t45.5 37q12 0 24.5 -13t24 -32.5t21.5 -41t20 -40.5q4 -10 3 -12q-4 -2 -5.5 -5t-3.5 -1l-28 -15q-11 -3 -15 9l-49 104l-80 -98l-4 -2q-8 -8 -16 -2q-6 6 -2 16zM2 162q2 -45 11.5 -84t29.5 -60q20 -25 59 -24q25 0 38.5 3t19.5 7q31 4 53.5 39 t39.5 80t28.5 93t19.5 79q4 14 -10 14q-10 0 -15 -10q-12 -45 -24 -92t-26.5 -87t-32 -65.5t-37.5 -25.5q-33 0 -45 82q-6 41 -7.5 87t-1.5 87q0 23 -1 42t-1 33q-2 14 -5 28.5t-17 14.5q-27 0 -50.5 -20.5t-23.5 -48.5q0 -37 -2 -82t0 -90z" />
<glyph unicode="&#xef;" horiz-adv-x="274" d="M-80 631q0 27 14.5 45t36.5 18q23 0 37.5 -18.5t14.5 -44.5q0 -27 -14.5 -46.5t-37.5 -19.5t-37 19.5t-14 46.5zM2 162q-2 45 0 90t2 82q0 29 23.5 49t50.5 20q14 0 17 -14t5 -29q0 -14 1 -33.5t1 -41.5q0 -41 1 -87t8 -87q12 -82 45 -82q20 0 37.5 25.5t32 65.5t26.5 87 t24 92q5 10 15 10q14 0 10 -14q-8 -31 -19.5 -79t-28.5 -93t-40 -80t-53 -39q-6 -4 -19.5 -7t-38.5 -3q-39 0 -59 24q-20 20 -29.5 59.5t-11.5 84.5zM76 631q0 27 14 45t37 18t37 -18.5t14 -44.5q0 -27 -14 -46.5t-37 -19.5t-37 19.5t-14 46.5z" />
<glyph unicode="&#xf0;" horiz-adv-x="507" d="M2 303q14 88 64 143q57 57 133 46q27 -4 50 -14.5t56 -39.5q10 -10 18.5 -23.5t12.5 -29.5q4 -12 -6 -16q-10 -2 -17 8q-43 72 -116 90q-14 -23 -43 -88.5t-41 -147.5q-4 -35 -4 -65.5t8 -54.5q12 -59 59 -88q-2 -2 0 -3q70 0 115 33t68.5 84t24.5 111.5t-13 113.5 q-16 57 -43 95.5t-57.5 68t-62.5 56t-61 63.5q-18 -23 -41 -31q-29 -12 -38 -11t-7 7t7 14l6 7q16 6 30.5 17t26.5 24q-10 14 -16 28q-23 41 -28 71t1 41t21.5 -1t33.5 -57q8 -23 23 -47q18 23 31.5 42t19.5 29q-4 -10 -13 -36.5t-26 -55.5q27 -43 58.5 -78t62.5 -70.5 t56.5 -75.5t41.5 -93q14 -55 11.5 -125t-32.5 -130.5t-86.5 -96t-144.5 -19.5t-127 113q-35 90 -16 192zM217 778q0 2 1 4t1 4t2 2q-2 -2 -2 -4q-2 -2 -2 -6z" />
<glyph unicode="&#xf1;" horiz-adv-x="655" d="M0 287q-2 -4 3 -8.5t9 -6.5q10 0 13 11q20 68 28 106.5t19 67.5q4 -35 4 -81t-2 -95q0 -145 6 -230.5t37 -105.5q8 -4 16 -4q10 0 17 4q27 12 35 37.5t8 60.5q10 53 30.5 109.5t48.5 105.5q31 53 60 78h2q2 0 4 -4t2 -8.5t2 -12.5q2 -12 3 -29.5t1 -37.5q0 -31 2 -66 t8 -66.5t19.5 -58t38.5 -43.5q27 -20 63 -20q31 0 68 12q2 2 3 2t3 2q47 27 88 148q20 55 30.5 99t12.5 46q0 14 -8 16q-10 0 -15 -10q-4 -23 -12 -45q-6 -20 -13 -46t-18 -52q-16 -47 -30.5 -74t-24.5 -40t-18 -17t-13 -4q-10 0 -17 13t-13 34.5t-10.5 46t-8.5 49.5 q-6 37 -13 74t-17 67q-29 74 -76 74q-18 0 -37 -12.5t-35 -29.5t-30.5 -36.5t-22.5 -36.5q-18 -33 -34.5 -69.5t-27.5 -75.5q-2 10 -2 21.5v23.5q-2 16 -2 35.5v42.5q0 70 -2 128t-8 101t-18.5 66.5t-32.5 23.5q-23 0 -41.5 -31.5t-33.5 -75.5t-27.5 -92.5t-20.5 -80.5z M180 637q0 18 16.5 31.5t30.5 13.5q27 0 51.5 -21.5t53.5 -21.5q16 0 36.5 4t30.5 39q20 6 15 -12q-10 -31 -32 -44.5t-50 -13.5q-18 0 -33.5 7.5t-27 16.5t-21.5 16t-21 7q-14 0 -25 -9t-11 -15v-6q0 -2 2 -4q-14 -2 -15 12z" />
<glyph unicode="&#xf2;" horiz-adv-x="530" d="M2 303q14 88 64 143q57 57 133 46q55 -10 88 -35q8 4 17 7t20 -1q25 -4 39 -37t18 -57q8 -41 10 -97.5t-4 -97.5q-4 -16 -8 -27q29 -2 49.5 4.5t42.5 28.5q43 45 61 119q1 12 15 8q12 0 8 -14q-14 -76 -66 -129q-49 -49 -116 -41q-10 -31 -34 -57.5t-54.5 -43 t-67.5 -23.5t-72 -1q-88 16 -127 113q-35 90 -16 192zM110 190.5q-1 -55.5 7 -79.5q12 -59 59 -88q-2 -3 0 -3q51 -4 100.5 25t71.5 80q-37 10 -66.5 40t-45.5 58q-14 27 -19.5 57.5t0.5 63.5q10 53 37 86q4 4 6 5t4 5q-27 20 -67 27q-29 -10 -47.5 -57.5t-28.5 -105.5 t-11 -113.5zM129 738.5q-6 13.5 6 27.5q12 16 28.5 14t26.5 -12q6 -4 29 -25.5t46.5 -47t41 -49t10.5 -32.5q-6 -6 -31.5 7.5t-55 33t-54 38t-31.5 22.5q-10 10 -16 23.5zM240 340q-10 -59 16 -104q14 -23 39.5 -50.5t58.5 -35.5q4 12 8 28q6 39 3 93.5t-11 90.5 q-6 35 -16 55.5t-19 22.5q-4 0 -7 -1t-7 -1q10 -10 18.5 -23.5t12.5 -29.5q4 -12 -6 -16q-12 -4 -17 8q-10 27 -30 49q-31 -27 -43 -86z" />
<glyph unicode="&#xf3;" horiz-adv-x="530" d="M2 303q14 88 64 143q57 57 133 46q55 -10 88 -35q8 4 17 7t20 -1q25 -4 39 -37t18 -57q8 -41 10 -97.5t-4 -97.5q-4 -16 -8 -27q29 -2 49.5 4.5t42.5 28.5q43 45 61 119q1 12 15 8q12 0 8 -14q-14 -76 -66 -129q-49 -49 -116 -41q-10 -31 -34 -57.5t-54.5 -43 t-67.5 -23.5t-72 -1q-88 16 -127 113q-35 90 -16 192zM109 165.5q0 -30.5 8 -54.5q12 -59 59 -88q-2 -3 0 -3q51 -4 100.5 25t71.5 80q-37 10 -66.5 40t-45.5 58q-14 27 -19.5 57.5t0.5 63.5q10 53 37 86q4 4 6 5t4 5q-27 20 -67 27q-14 -23 -43 -88.5t-41 -147.5 q-4 -35 -4 -65.5zM135 614q-6 8 11.5 32t41 49.5t46 47t28.5 25.5q10 10 26.5 12t28.5 -14q12 -14 6 -27.5t-16 -23.5q-6 -4 -30.5 -22.5t-54 -38t-55.5 -33t-32 -7.5zM240 340q-10 -59 16 -104q14 -23 39.5 -50.5t58.5 -35.5q4 12 8 28q6 39 3 93.5t-11 90.5 q-6 35 -16 55.5t-19 22.5q-4 0 -7 -1t-7 -1q10 -10 18.5 -23.5t12.5 -29.5q4 -12 -6 -16q-12 -4 -17 8q-10 27 -30 49q-31 -27 -43 -86z" />
<glyph unicode="&#xf4;" horiz-adv-x="530" d="M2 303q-18 -102 16 -192q39 -96 127 -113q35 -6 72 1t67.5 23.5t54 43t34.5 57.5q68 -8 116 41q51 53 66 129q4 14 -8 14q-14 4 -15 -8q-18 -74 -61 -119q-23 -23 -43 -29t-49 -4q4 10 8 27q6 41 4 97.5t-10 97.5q-4 25 -18.5 57.5t-38.5 36.5q-10 4 -19.5 1t-17.5 -7 q-33 25 -88 35q-76 12 -133 -46q-49 -55 -64 -143zM109 166.5q0 30.5 4 64.5q12 82 40.5 147.5t43.5 88.5q41 -6 67 -27q-2 -4 -4 -5t-6 -5q-27 -33 -37 -86q-6 -33 -1 -63.5t20 -57.5q16 -29 45.5 -58.5t66.5 -39.5q-23 -51 -72 -80t-100 -25q-2 0 0 3q-47 29 -59 88 q-8 25 -8 55.5zM115 635q45 59 64.5 96t45.5 37q12 0 24.5 -13.5t24 -33t21.5 -41t20 -39.5q4 -10 2 -12q-4 -2 -5 -5t-3 -1l-28 -15q-11 -4 -15 8l-49 105l-80 -98l-4 -2q-8 -8 -16 -3q-6 6 -2 17zM240 340q12 59 43 86q20 -23 30 -49q4 -12 17 -8q10 4 6 16 q-4 16 -12.5 29.5t-18.5 23.5q4 0 7 1t7 1q8 -2 18.5 -22.5t16.5 -55.5q8 -37 11.5 -91t-3.5 -93q-4 -16 -8 -28q-33 8 -58.5 35.5t-39.5 50.5q-27 45 -16 104z" />
<glyph unicode="&#xf5;" horiz-adv-x="530" d="M2 303q-18 -102 16 -192q39 -96 127 -113q35 -6 72 1t67.5 23.5t54 43t34.5 57.5q68 -8 116 41q51 53 66 129q4 14 -8 14q-14 4 -15 -8q-18 -74 -61 -119q-23 -23 -43 -29t-49 -4q4 10 8 27q6 41 4 97.5t-10 97.5q-4 25 -18.5 57.5t-38.5 36.5q-10 4 -19.5 1t-17.5 -7 q-33 25 -88 35q-76 12 -133 -46q-49 -55 -64 -143zM96 637q0 18 16.5 31.5t30.5 13.5q27 0 51.5 -21.5t53.5 -21.5q16 0 36.5 4t30.5 39q20 6 15 -12q-10 -31 -32 -44.5t-50 -13.5q-18 0 -33.5 7.5t-27 16.5t-21.5 16t-21 7q-14 0 -25 -9t-11 -15v-6q0 -2 2 -4 q-14 -2 -15 12zM109 166.5q0 30.5 4 64.5q12 82 40.5 147.5t43.5 88.5q41 -6 67 -27q-2 -4 -4 -5t-6 -5q-27 -33 -37 -86q-6 -33 -1 -63.5t20 -57.5q16 -29 45.5 -58.5t66.5 -39.5q-23 -51 -72 -80t-100 -25q-2 0 0 3q-47 29 -59 88q-8 25 -8 55.5zM240 340q12 59 43 86 q20 -23 30 -49q4 -12 17 -8q10 4 6 16q-4 16 -12.5 29.5t-18.5 23.5q4 0 7 1t7 1q8 -2 18.5 -22.5t16.5 -55.5q8 -37 11.5 -91t-3.5 -93q-4 -16 -8 -28q-33 8 -58.5 35.5t-39.5 50.5q-27 45 -16 104z" />
<glyph unicode="&#xf6;" horiz-adv-x="530" d="M2 303q14 88 64 143q57 57 133 46q55 -10 88 -35q8 4 17 7t20 -1q25 -4 39 -37t18 -57q8 -41 10 -97.5t-4 -97.5q-4 -16 -8 -27q29 -2 49.5 4.5t42.5 28.5q43 45 61 119q1 12 15 8q12 0 8 -14q-14 -76 -66 -129q-49 -49 -116 -41q-10 -31 -34 -57.5t-54.5 -43 t-67.5 -23.5t-72 -1q-88 16 -127 113q-35 90 -16 192zM96 674q0 27 14.5 45t36.5 18q23 0 37.5 -18.5t14.5 -44.5q0 -27 -14.5 -46.5t-37.5 -19.5t-37 19.5t-14 46.5zM109 165.5q0 -30.5 8 -54.5q12 -59 59 -88q-2 -3 0 -3q51 -4 100.5 25t71.5 80q-37 10 -66.5 40t-45.5 58 q-14 27 -19.5 57.5t0.5 63.5q10 53 37 86q4 4 6 5t4 5q-27 20 -67 27q-14 -23 -43 -88.5t-41 -147.5q-4 -35 -4 -65.5zM240 340q-10 -59 16 -104q14 -23 39.5 -50.5t58.5 -35.5q4 12 8 28q6 39 3 93.5t-11 90.5q-6 35 -16 55.5t-19 22.5q-4 0 -7 -1t-7 -1q10 -10 18.5 -23.5 t12.5 -29.5q4 -12 -6 -16q-12 -4 -17 8q-10 27 -30 49q-31 -27 -43 -86zM252 674q0 27 14.5 45t36.5 18q23 0 37 -18.5t14 -44.5q0 -27 -14 -46.5t-37 -19.5t-37 19.5t-14 46.5z" />
<glyph unicode="&#xf7;" horiz-adv-x="673" d="M76 332q-2 2 2 10q4 4 10 2l475 -14q12 -4 12 -13q0 -8 -10 -12l-4 -2h-2l-465 -24h-2q-8 0 -12 10zM276 158q0 33 16.5 51t43.5 18q29 0 46 -18.5t17 -50.5q0 -31 -17 -50.5t-46 -19.5q-27 0 -43.5 19.5t-16.5 50.5zM276 467q0 33 16.5 51.5t43.5 18.5q29 0 46 -18.5 t17 -51.5q0 -31 -17 -50.5t-46 -19.5q-27 0 -43.5 19.5t-16.5 50.5z" />
<glyph unicode="&#xf8;" horiz-adv-x="530" d="M-27 -182q0 6 2 8l109 197q-43 31 -66 88q-35 90 -16 192q14 88 64 143q57 57 133 46q55 -10 88 -35q8 4 17 7t20 -1l96 172q4 2 6 4t6 0q6 -4 6 -12l-2 -2v-2l-90 -174q14 -16 22.5 -40t12.5 -40q8 -41 10 -97.5t-4 -97.5q-4 -16 -8 -27q29 -2 49.5 4.5t42.5 28.5 q43 45 61 119q0 12 15 8q12 0 8 -14q-14 -76 -66 -129q-49 -49 -116 -41q-10 -31 -34 -57.5t-54.5 -43t-67.5 -23.5t-72 -1q-6 2 -12 2t-12 4l-101 -197v-2q-2 -4 -12 -4l-28 13q-2 -2 -7 4zM109 166q0 -30 8 -55q0 -6 4 -19l96 176q-4 16 -4 36t4 40q10 53 37 86q4 4 6 5 t4 5q-27 20 -67 27q-14 -23 -43 -88.5t-41 -147.5q-4 -35 -4 -65zM143 49q14 -16 33 -26q-2 -3 0 -3q51 -4 100.5 25t71.5 80q-37 10 -66.5 40t-45.5 58q-2 0 -3 2zM238 303l57 107l-12 16q-31 -27 -43 -86q-2 -10 -2 -18.5v-18.5zM246 252q2 -10 10 -16q14 -23 39.5 -50.5 t58.5 -35.5q4 12 8 28q6 39 3 93.5t-11 90.5q-10 43 -20 62l-8 -16q8 -10 10 -23q4 -12 -6 -16q-12 -4 -17 8l-2 4zM305 438q0 -2 2 -4l4 4h-6z" />
<glyph unicode="&#xf9;" horiz-adv-x="653" d="M0 283q2 20 8 43q4 20 10.5 44.5t14.5 51.5q14 49 27.5 77.5t24.5 44t20.5 19.5t15.5 4q41 0 51 -90t10 -231q2 -23 2 -42.5v-35.5q2 -35 5.5 -56.5t5.5 -33.5q2 -4 2 -7t2 -8q43 2 73 31q20 20 31.5 49t18 59.5t8.5 62.5t2 59v39t4 26q6 18 26 33q14 10 35 10 q25 -4 25 -29q0 -53 10 -120.5t29 -128.5q20 -63 37 -95q18 -33 30 -32q4 0 12.5 4t19.5 17t25.5 40t30.5 74q10 27 16.5 52.5t12.5 45.5q6 23 12 45q5 12 15 8q14 0 10 -14q-4 -23 -12 -45q-6 -20 -13.5 -47t-17.5 -53q-47 -127 -90 -148l-4 -4q-27 -10 -49 -10 q-33 0 -66 22q-53 39 -80 125q-4 14 -8 35q-8 -29 -20.5 -53.5t-32.5 -42.5q-37 -37 -105 -41q-6 -2 -20 -2q-20 0 -33.5 12t-22 28.5t-12.5 34t-6 27.5q-8 41 -10 92.5t-4 104.5q0 33 -1 64.5t-3 60.5q-8 -16 -15 -45q-8 -27 -14 -50.5t-10 -41.5q-6 -23 -8 -43 q-4 -14 -15 -11q-14 4 -10 15zM129 738.5q-6 13.5 6 27.5q12 16 28.5 14t26.5 -12q6 -4 29 -25.5t46.5 -47t41 -49t10.5 -32.5q-6 -6 -31.5 7.5t-55 33t-54 38t-31.5 22.5q-10 10 -16 23.5z" />
<glyph unicode="&#xfa;" horiz-adv-x="653" d="M0 283q2 20 8 43q4 20 10.5 44.5t14.5 51.5q14 49 27.5 77.5t24.5 44t20.5 19.5t15.5 4q41 0 51 -90t10 -231q2 -23 2 -42.5v-35.5q2 -35 5.5 -56.5t5.5 -33.5q2 -4 2 -7t2 -8q43 2 73 31q20 20 31.5 49t18 59.5t8.5 62.5t2 59v39t4 26q6 18 26 33q14 10 35 10 q25 -4 25 -29q0 -53 10 -120.5t29 -128.5q20 -63 37 -95q18 -33 30 -32q4 0 12.5 4t19.5 17t25.5 40t30.5 74q10 27 16.5 52.5t12.5 45.5q6 23 12 45q5 12 15 8q14 0 10 -14q-4 -23 -12 -45q-6 -20 -13.5 -47t-17.5 -53q-47 -127 -90 -148l-4 -4q-27 -10 -49 -10 q-33 0 -66 22q-53 39 -80 125q-4 14 -8 35q-8 -29 -20.5 -53.5t-32.5 -42.5q-37 -37 -105 -41q-6 -2 -20 -2q-20 0 -33.5 12t-22 28.5t-12.5 34t-6 27.5q-8 41 -10 92.5t-4 104.5q0 33 -1 64.5t-3 60.5q-8 -16 -15 -45q-8 -27 -14 -50.5t-10 -41.5q-6 -23 -8 -43 q-4 -14 -15 -11q-14 4 -10 15zM215 614q-6 8 11.5 32t41 49.5t46 47t28.5 25.5q10 10 26.5 12t28.5 -14q12 -14 6 -27.5t-16 -23.5q-6 -4 -30.5 -22.5t-54.5 -38t-55.5 -33t-31.5 -7.5z" />
<glyph unicode="&#xfb;" horiz-adv-x="653" d="M0 283q-4 -10 10 -15q10 -4 15 11q2 20 8 43q4 18 10 41.5t14 50.5q6 29 15 45q2 -29 3 -60.5t1 -64.5q2 -53 4 -104.5t10 -92.5q2 -10 6 -27.5t12.5 -34t21.5 -28.5t34 -12q14 0 20 2q68 4 105 41q20 18 32.5 42.5t20.5 53.5q4 -20 8 -35q27 -86 80 -125q33 -23 66 -22 q23 0 49 10l4 4q43 20 90 148q10 27 17.5 53t13.5 47q8 23 12 45q4 14 -10 14q-10 4 -15 -8q-6 -23 -12 -45q-6 -20 -12 -46t-17 -52q-16 -47 -30.5 -74t-25.5 -40t-19.5 -17t-12.5 -4q-12 0 -30 32q-16 31 -37 95q-18 61 -28.5 128.5t-10.5 120.5q0 25 -25 29 q-20 0 -35 -10q-20 -14 -26 -33q-4 -10 -4 -26.5v-38.5q0 -27 -2 -59t-8.5 -62.5t-17.5 -59t-32 -49.5q-31 -29 -73 -31q-2 4 -2 7.5t-2 7.5q-2 12 -5.5 33.5t-5.5 56.5v35.5t-2 42.5q0 141 -10 231t-51 90q-6 0 -15.5 -4t-20.5 -19.5t-24.5 -44t-27.5 -77.5 q-8 -27 -14.5 -51.5t-10.5 -44.5q-6 -23 -8 -43zM176 635q45 59 64.5 96t46.5 37q12 0 24.5 -13.5t23.5 -33t21.5 -41t20.5 -39.5q4 -10 2 -12q-4 -2 -5 -5t-3 -1l-29 -15q-10 -4 -14 8l-49 105l-80 -98l-4 -2q-8 -8 -17 -3q-6 6 -2 17z" />
<glyph unicode="&#xfc;" horiz-adv-x="653" d="M0 283q2 20 8 43q4 20 10.5 44.5t14.5 51.5q14 49 27.5 77.5t24.5 44t20.5 19.5t15.5 4q41 0 51 -90t10 -231q2 -23 2 -42.5v-35.5q0 -23 2 -48.5t10.5 -41t26 -14t49.5 29.5q20 20 31.5 49t18 59.5t8.5 62.5t2 59v39t4 26q6 18 26 33q14 10 35 10q25 -4 25 -29 q0 -53 10 -120.5t29 -128.5q20 -63 37 -95q18 -33 30 -32q4 0 12.5 4t19.5 17t25.5 40t30.5 74q10 27 16.5 52.5t12.5 45.5q6 23 12 45q5 12 15 8q14 0 10 -14q-4 -23 -12 -45q-6 -20 -13.5 -47t-17.5 -53q-47 -127 -90 -148l-4 -4q-27 -10 -49 -10q-33 0 -66 22 q-53 39 -80 125q-4 14 -8 35q-8 -29 -20.5 -53.5t-32.5 -42.5q-37 -37 -105 -41q-6 -2 -20 -2q-20 0 -33.5 12t-22 28.5t-12.5 34t-6 27.5q-8 41 -10 92.5t-4 104.5q0 33 -1 64.5t-3 60.5q-8 -16 -15 -45q-8 -27 -14 -50.5t-10 -41.5q-6 -23 -8 -43q-4 -14 -15 -11 q-14 4 -10 15zM139 674q0 27 14.5 45t36.5 18q23 0 37.5 -18.5t14.5 -44.5q0 -27 -14.5 -46.5t-37.5 -19.5t-37 19.5t-14 46.5zM295 674q0 27 14.5 45t36.5 18q23 0 37 -18.5t14 -44.5q0 -27 -14 -46.5t-37 -19.5t-37 19.5t-14 46.5z" />
<glyph unicode="&#xfd;" horiz-adv-x="741" d="M-127 -512q-20 55 9.5 122.5t97.5 121.5q43 33 105 61.5t134 56.5q49 23 100.5 44.5t100.5 46.5q2 10 2 28q0 59 -5 120t-13.5 117t-17.5 104t-15 81q-4 -23 -11.5 -48.5t-15.5 -53.5q-51 -166 -113 -166q-68 0 -108 47q-55 61 -62 201q-4 33 0 61q-20 -51 -38 -151 q0 -14 -15 -11q-10 0 -10 15q16 78 32.5 136t39.5 95q20 35 35.5 43t21.5 8q27 0 43 -16q12 -16 16 -37.5t4 -47.5t-3 -51.5t-3 -47.5q0 -25 -1 -63t1 -72.5t9.5 -59.5t23.5 -25h14q14 0 27.5 16.5t26 40t20.5 49.5t14 42q18 59 27.5 107.5t9.5 50.5h2v2v2l2 2h2q0 2 3 2h2 q35 10 65 -15q51 -39 76 -163q12 -49 18 -107.5t6 -114.5q0 -14 -1 -27.5t-1 -27.5q4 4 8.5 5t8.5 5q84 61 132 131t64 156q5 10 15 10q14 -4 10 -14q-20 -115 -86 -190.5t-154 -133.5q-10 -100 -32 -178q-37 -121 -105 -209q-57 -74 -137 -123q-2 0 -2 -1t-2 -1 q-2 -2 -6 -2q-4 -4 -8.5 -5t-8.5 -5q-100 -47 -215 -47q-53 0 -89 21.5t-50 62.5zM-104 -504q10 -35 40.5 -51t75.5 -16q128 0 228 57q37 33 67.5 79t53 101t38 117.5t21.5 128.5q-47 -23 -95.5 -43.5t-95.5 -40.5q-70 -29 -131 -56.5t-102 -60.5q-63 -47 -92 -112 q-23 -59 -8 -103zM248 614q-6 8 11 32t41 49.5t46.5 47t28.5 25.5q10 10 26.5 12t28.5 -14q12 -14 6 -27.5t-16 -23.5q-6 -4 -30.5 -22.5t-54.5 -38t-55.5 -33t-31.5 -7.5z" />
<glyph unicode="&#xfe;" horiz-adv-x="630" d="M-285 -158q0 12 13 13q61 0 114 28l4 2q104 61 142 252q31 158 16 389q-10 178 -26.5 280.5t-8.5 158.5q4 0 17.5 3t52.5 7q10 0 20.5 -1t20.5 -18q25 -41 30 -109.5t15 -191.5q6 43 27.5 90.5t55.5 87t77 65.5t92 26q45 0 75.5 -22.5t50 -57.5t28 -78t8.5 -84 q0 -78 -20.5 -135t-59.5 -129q-37 -72 -82 -109t-92 -48t-95.5 -3t-87.5 31q-10 -41 -20 -84t-27 -84q-49 -129 -123 -203q-92 -88 -204 -88q-12 0 -13 12zM106 317q135 -66 204 -2t85 232q2 20 4 75.5t-4 113t-25.5 102.5t-60.5 45q-41 -20 -70.5 -57.5t-50 -80.5t-32 -88 t-17.5 -81.5t-8 -61.5l-2 -25q0 -4 -2 -6q-4 -37 -8 -79t-13 -87z" />
<glyph unicode="&#xff;" horiz-adv-x="741" d="M-125 -512q-20 55 9.5 122.5t97.5 121.5q43 33 105.5 61.5t133.5 56.5q49 23 100.5 44.5t100.5 46.5q2 10 2 28q0 59 -5 120t-13.5 117t-17.5 104t-15 81q-4 -23 -11.5 -48.5t-15.5 -53.5q-51 -166 -113 -166q-68 0 -108 47q-55 61 -62 201q-4 33 0 61q-20 -51 -38 -151 q0 -14 -15 -11q-10 0 -10 15q16 78 32.5 136t39.5 95q20 35 35.5 43t21.5 8q27 0 43 -16q12 -16 16.5 -37.5t4.5 -47.5t-3.5 -51.5t-3.5 -47.5q0 -25 -1 -63t1 -72.5t9.5 -59.5t23.5 -25h14q14 0 27.5 16.5t26 40t20.5 49.5t15 42q18 59 27 107.5t9 50.5h2v2v2l2 2h3 q0 2 2 2h2q35 10 65 -15q51 -39 76 -163q12 -49 18.5 -107.5t6.5 -114.5q0 -14 -1.5 -27.5t-1.5 -27.5q4 4 8.5 5t8.5 5q84 61 132 131t64 156q5 10 15 10q14 -4 10 -14q-20 -115 -86 -190.5t-154 -133.5q-10 -100 -32 -178q-37 -121 -105 -209q-57 -74 -137 -123 q-2 0 -2 -1t-2 -1q-2 -2 -6 -2q-4 -4 -8.5 -5t-8.5 -5q-100 -47 -215 -47q-53 0 -89 21.5t-50 62.5zM-102 -504q10 -35 40.5 -51t75.5 -16q128 0 228 57q37 33 67.5 79t53 101t38 117.5t21.5 128.5q-47 -23 -95 -43.5t-96 -40.5q-70 -29 -131 -56.5t-102 -60.5 q-63 -47 -92 -112q-23 -59 -8 -103zM160 674q0 27 14 45t37 18t37 -18.5t14 -44.5q0 -27 -14 -46.5t-37 -19.5t-37 19.5t-14 46.5zM315 674q0 27 14.5 45t37.5 18t37 -18.5t14 -44.5q0 -27 -14 -46.5t-37 -19.5t-37.5 19.5t-14.5 46.5z" />
<glyph unicode="&#x152;" horiz-adv-x="1306" d="M-6 373q0 123 29.5 240.5t82.5 211.5q63 106 140 160q82 63 186 64q63 0 118.5 -34t90.5 -97q29 -53 40 -117t3 -135q-10 -78 -45 -154t-88 -141q-12 -12 -23 -4q-12 8 -4 16q59 72 90 145.5t39.5 142t-3 129t-36.5 107.5q-31 53 -79 83t-101 32q-84 -31 -141 -121 t-86 -231q-25 -123 -22 -261.5t34 -250.5q63 -229 180 -230h15q127 23 207 117l18 25q-35 82 -35 194q0 78 20.5 147.5t57.5 123.5q14 23 30.5 39t32.5 30q-4 53 -13 103.5t-10 99.5t12.5 96t53.5 96q35 41 85.5 64.5t111.5 23.5q49 0 82 -10t52.5 -25.5t28.5 -31.5t13 -31 q4 -20 3 -39.5t-9 -40.5q-4 -18 -15.5 -32.5t-21.5 -20.5q-12 -12 -20 4q-2 4 -1 11.5t5 9.5q16 10 27.5 38.5t0.5 59.5q-8 43 -55 59q-18 8 -43.5 0t-53.5 -28.5t-52.5 -50t-40.5 -64.5q-29 -66 -40 -132.5t-7 -111.5q41 10 75 11q8 0 35 -3.5t53.5 -11.5t48 -21.5 t21.5 -31.5t-11 -28.5t-27.5 -16.5t-36 -7t-33.5 -1q-82 0 -140 47q-29 -41 -43 -117q0 -12 -1 -23.5t-1 -21.5q-4 -47 -12 -102q0 -63 8 -126t25 -120q45 -168 127 -187l10 -6h2q66 0 131.5 37t91.5 115q14 43 5 82t-40 67q-10 6 -2 23q9 8 23 0q76 -78 43 -184 q-12 -35 -36 -67t-56 -54q-35 -27 -77 -39t-83 -12q-162 0 -250 131q-10 12 -18 25.5t-17 29.5l-8 -10q-117 -135 -313 -135q-82 0 -148.5 36.5t-109.5 108.5q-80 129 -80 334zM774 623q4 0 8 4l-8 10v-14zM778 571q4 8 8.5 15.5t8.5 13.5q-4 -4 -8.5 -5t-8.5 -5v-19z M848 621q8 -31 45 -40.5t70 -9.5q2 0 16 1t29.5 4.5t24.5 8.5t3 13q-10 14 -45 23.5t-78 9.5q-29 0 -65 -10z" />
<glyph unicode="&#x153;" horiz-adv-x="808" d="M8 303q14 88 64 143q57 57 133 46q55 -10 88 -35q8 4 17 7t20 -1l20 -10q55 74 129 73q41 0 68 -32q23 -27 22 -72q0 -20 -8 -63.5t-26.5 -89.5t-48 -86t-74.5 -52q0 -25 8 -52.5t21.5 -51t30.5 -41t38 -19.5q49 0 99 34t93 84t73 108.5t38 107.5q4 10 14 10 q16 -4 13 -14q-12 -59 -43 -122.5t-79 -117t-111.5 -88.5t-139.5 -35q-59 0 -96 30t-56 73q-35 -25 -78.5 -36t-84.5 -3q-88 16 -127 113q-35 90 -17 192zM115 165.5q0 -30.5 8 -54.5q12 -59 59 -88q-2 -3 0 -3q33 -4 65 7.5t58 33.5q-8 27 -13 53.5t-7 53.5 q-14 12 -24.5 26.5t-18.5 28.5q-14 27 -19.5 57.5t0.5 63.5q10 53 37 86q4 4 6 5t4 5q-27 20 -67 27q-14 -23 -43 -88.5t-41 -147.5q-4 -35 -4 -65.5zM246 340q-10 -59 16 -104q4 -8 9 -14.5t12 -14.5v24q0 84 30 158q-10 18 -24 37q-31 -27 -43 -86zM311 438l17 -22l6 12 l2 4l-10 8q-4 0 -7.5 -1t-7.5 -1zM409 249q1 -46 1 -93q31 6 55 36.5t41.5 70.5t28 83t10.5 76q-1 34 -17 57q-14 18 -45 23q-35 -37 -50 -79t-20 -85t-4 -89z" />
<glyph unicode="&#x178;" horiz-adv-x="856" d="M-33 1198q0 12 13 12q23 0 45 -14q61 0 98 -39q27 -29 37 -75t12 -102t-4 -119.5t-12 -127.5q-6 -57 -11.5 -112.5t-5.5 -103.5t8.5 -87t26.5 -59q20 -23 57 -23q2 0 4.5 -1t4.5 -1q49 10 90 45t73.5 80t57 95t41 92t26 70t9.5 30t4 6q20 72 57 125t61 72v2h3h2h2h2h2h2 h2v-2h2v-3l2 -2v-2v-2v-2v-2v-2l-2 -2q-27 -41 -37 -89t-9 -101.5t9 -112t18 -117.5q10 -66 19.5 -130t9.5 -130q0 -59 -10 -116.5t-29 -110.5q-41 -119 -117 -184q-102 -92 -245 -93h-21.5t-21.5 2q-96 10 -148 74q-45 61 -39 148q6 59 37 112.5t82 91.5q43 33 119 59.5 t192 16.5q12 0 13 -12q-4 -12 -15 -12q-111 10 -182.5 -15.5t-110.5 -54.5q-47 -37 -76.5 -86t-33.5 -102q-6 -78 35 -129q43 -59 129 -66q57 -6 112 4q2 0 3 1t3 1q166 27 193 293q12 119 1 259t-30 282v22q-10 -25 -23.5 -54.5t-29.5 -57.5q-27 -47 -54.5 -85t-58.5 -65 q-76 -72 -159 -72q-80 0 -127 52q-55 61 -62 208q-2 63 4.5 132t14.5 137q6 53 10 104t4 94t-6 76t-21 51q-16 16 -38 17q-12 0 -13 12zM260 1268q0 27 14.5 45t36.5 18q23 0 37 -18.5t14 -44.5q0 -27 -14 -46.5t-37 -19.5t-37 19.5t-14 46.5zM416 1268q0 27 14 45t37 18 t37 -18.5t14 -44.5q0 -27 -14 -46.5t-37 -19.5t-37 19.5t-14 46.5z" />
<glyph unicode="&#x2c6;" horiz-adv-x="454" d="M123 655q45 59 64.5 96t45.5 37q12 0 24.5 -13t24 -32.5t21.5 -41t21 -39.5q4 -10 2 -13q-4 -2 -5.5 -5t-3.5 -1l-28 -14q-11 -4 -15 8l-49 104l-80 -98l-4 -2q-8 -8 -16 -2q-6 6 -2 16z" />
<glyph unicode="&#x2dc;" horiz-adv-x="309" d="M37 688q0 18 16.5 31.5t30.5 13.5q27 0 51.5 -21.5t52.5 -21.5q16 0 37 4t31 39q20 6 14 -12q-10 -31 -31.5 -44t-50.5 -13q-18 0 -33.5 7t-26.5 16t-21.5 16.5t-20.5 7.5q-14 0 -25.5 -9.5t-11.5 -15.5v-6q0 -2 2 -4q-14 -2 -14 12z" />
<glyph unicode="&#x2000;" horiz-adv-x="702" />
<glyph unicode="&#x2001;" horiz-adv-x="1405" />
<glyph unicode="&#x2002;" horiz-adv-x="702" />
<glyph unicode="&#x2003;" horiz-adv-x="1405" />
<glyph unicode="&#x2004;" horiz-adv-x="468" />
<glyph unicode="&#x2005;" horiz-adv-x="351" />
<glyph unicode="&#x2006;" horiz-adv-x="234" />
<glyph unicode="&#x2007;" horiz-adv-x="234" />
<glyph unicode="&#x2008;" horiz-adv-x="175" />
<glyph unicode="&#x2009;" horiz-adv-x="281" />
<glyph unicode="&#x200a;" horiz-adv-x="78" />
<glyph unicode="&#x2010;" horiz-adv-x="671" d="M111 332q-2 2 2 10q4 4 10 2l405 -14q12 -4 13 -13q0 -8 -11 -12l-4 -2h-2l-395 -24h-2q-8 0 -12 10z" />
<glyph unicode="&#x2011;" horiz-adv-x="671" d="M111 332q-2 2 2 10q4 4 10 2l405 -14q12 -4 13 -13q0 -8 -11 -12l-4 -2h-2l-395 -24h-2q-8 0 -12 10z" />
<glyph unicode="&#x2012;" horiz-adv-x="671" d="M111 332q-2 2 2 10q4 4 10 2l405 -14q12 -4 13 -13q0 -8 -11 -12l-4 -2h-2l-395 -24h-2q-8 0 -12 10z" />
<glyph unicode="&#x2013;" horiz-adv-x="684" d="M76 332q-2 2 2 10q4 4 10 2l475 -14q12 -4 12 -13q0 -8 -10 -12l-4 -2h-2l-465 -24h-2q-8 0 -12 10z" />
<glyph unicode="&#x2014;" horiz-adv-x="960" d="M76 332q-2 2 2 10q4 4 10 2l776 -14q12 -4 13 -13q0 -8 -11 -12l-4 -2h-2l-766 -24h-2q-8 0 -12 10z" />
<glyph unicode="&#x2018;" horiz-adv-x="374" d="M61 657q0 14 11.5 49t29 71t36 62.5t32.5 26.5q8 0 8 -15t-8 -37.5t-21.5 -47.5t-33.5 -41q23 2 37 -6t21 -19.5t9 -23.5t2 -19q0 -33 -16 -51t-43 -18q-29 0 -46.5 18.5t-17.5 50.5z" />
<glyph unicode="&#x2019;" horiz-adv-x="301" d="M68 797q0 33 16 51t43 18q29 0 46 -18.5t17 -50.5q0 -16 -12 -50t-28.5 -70t-35 -62.5t-32.5 -26.5q-8 0 -8 15t8 38t21.5 47.5t33.5 40.5q-23 -2 -37 6t-21 19.5t-9 24t-2 18.5z" />
<glyph unicode="&#x201a;" horiz-adv-x="292" d="M68 47q0 33 16 51.5t43 18.5q29 0 46 -18.5t17 -51.5q0 -16 -12 -50t-28.5 -70t-35 -62.5t-32.5 -26.5q-8 0 -8 15.5t8 38t21.5 47t33.5 41.5q-23 -2 -37 6t-21 19t-9 23.5t-2 18.5z" />
<glyph unicode="&#x201c;" horiz-adv-x="555" d="M61 657q0 14 11.5 49t29 71t36 62.5t32.5 26.5q8 0 8 -15t-8 -37.5t-21.5 -47.5t-33.5 -41q23 2 37 -6t21 -19.5t9 -23.5t2 -19q0 -33 -16 -51t-43 -18q-29 0 -46.5 18.5t-17.5 50.5zM248 657q0 14 11 49t28.5 71t36 62.5t32.5 26.5q8 0 8.5 -15t-8 -37.5t-21.5 -47.5 t-34 -41q23 2 37 -6t21.5 -19.5t9.5 -23.5t2 -19q0 -33 -16.5 -51t-43.5 -18q-29 0 -46 18.5t-17 50.5z" />
<glyph unicode="&#x201d;" horiz-adv-x="518" d="M68 797q0 33 16 51t43 18q29 0 46 -18.5t17 -50.5q0 -16 -12 -50t-28.5 -70t-35 -62.5t-32.5 -26.5q-8 0 -8 15t8 38t21.5 47.5t33.5 40.5q-23 -2 -37 6t-21 19.5t-9 24t-2 18.5zM254 797q0 33 16.5 51t42.5 18q29 0 46.5 -18.5t17.5 -50.5q0 -16 -12.5 -50t-29 -70 t-35 -62.5t-32.5 -26.5q-8 0 -8 15t8 38t21.5 47.5t34.5 40.5q-23 -2 -37.5 6t-21.5 19.5t-9 24t-2 18.5z" />
<glyph unicode="&#x201e;" horiz-adv-x="512" d="M68 47q0 33 16 51.5t43 18.5q29 0 46 -18.5t17 -51.5q0 -16 -12 -50t-28.5 -70t-35 -62.5t-32.5 -26.5q-8 0 -8 15.5t8 38t21.5 47t33.5 41.5q-23 -2 -37 6t-21 19t-9 23.5t-2 18.5zM238 47q0 33 16 51.5t43 18.5q29 0 46 -18.5t17 -51.5q0 -16 -12 -50t-28.5 -70 t-35 -62.5t-32.5 -26.5q-8 0 -8 15.5t8 38t21.5 47t33.5 41.5q-23 -2 -37 6t-21 19t-9 23.5t-2 18.5z" />
<glyph unicode="&#x2022;" horiz-adv-x="505" d="M127 440q0 59 29.5 92t76.5 33q51 0 83 -32.5t32 -92.5q0 -55 -32 -90t-83 -35q-47 0 -76.5 35t-29.5 90z" />
<glyph unicode="&#x2026;" horiz-adv-x="704" d="M53 51q0 33 16.5 51.5t43.5 18.5q29 0 46 -18.5t17 -51.5q0 -31 -17 -50t-46 -19q-27 0 -43.5 19t-16.5 50zM248 51q0 33 16.5 51.5t42.5 18.5q29 0 46.5 -18.5t17.5 -51.5q0 -31 -17.5 -50t-46.5 -19q-27 0 -43 19t-16 50zM436 49q0 33 16.5 51.5t43.5 18.5 q29 0 46 -18.5t17 -51.5q0 -31 -17 -50t-46 -19q-27 0 -43.5 19t-16.5 50z" />
<glyph unicode="&#x202f;" horiz-adv-x="281" />
<glyph unicode="&#x2039;" horiz-adv-x="661" d="M78 434.5q2 14.5 2 24.5l8 8l401 371q12 12 17 8q6 -8 -2 -17l-6 -6l-375 -438l375 -279l2 3q8 -8 6 -17l-14 -41q2 -2 -1.5 -3t-5.5 -5q-2 -2 -12 2q-113 74 -186.5 131t-116.5 99t-62.5 72t-25.5 51.5t-4 36z" />
<glyph unicode="&#x203a;" horiz-adv-x="561" d="M55 92q-2 8 6 17l2 -3l375 279l-375 438l-6 6q-8 8 -2 17q4 4 17 -8l401 -371l8 -8q0 -10 2 -24.5t-4 -36t-25.5 -51.5t-62.5 -72t-116.5 -99t-186.5 -131q-10 -4 -12 -2q-2 4 -5 5t-1 3z" />
<glyph unicode="&#x205f;" horiz-adv-x="351" />
<glyph unicode="&#x20ac;" horiz-adv-x="800" d="M14 414q-2 2 2 8q4 4 11 2l73 -2v6q-6 82 6 156l-61 -2h-2q-8 0 -12 8l-4 37q-2 2 2 8q4 4 10 2l76 -2q10 43 24.5 82t32.5 74q47 86 114.5 129t151.5 43q111 0 174 -62q35 -33 58 -74l-29 -2q-14 31 -45 62q-53 47 -127 47t-127 -57q-41 -61 -70 -166l-8 -40t-8 -42 l176 -4q12 -4 12 -11q0 -6 -10 -10l-4 -2h-2l-176 -10q-10 -86 -6 -176l174 -4q12 -4 12 -11q0 -6 -10 -10l-4 -2h-2l-168 -10q2 -23 4 -43.5t6 -42.5q8 -55 24.5 -104.5t38 -85t47 -57t54.5 -21.5q63 0 99 15t59 34q39 33 53 69l29 2q-23 -59 -86.5 -105t-163.5 -46 q-141 0 -226 135q-33 49 -52 110.5t-30 133.5l-71 -4h-2q-10 0 -13 8z" />
<glyph unicode="&#x2122;" horiz-adv-x="917" d="M62.5 931.5q-3.5 14.5 3.5 26.5q6 12 19 24.5t44 23.5q23 10 53.5 12t67.5 0h17.5t19.5 -2h2q18 -2 42.5 -2t48 3t44 10t31.5 22q10 18 2 28q-12 23 -35 23h-4q-2 0 -2 2q0 6 6 6q12 0 24.5 -7.5t16.5 -17.5q12 -23 0 -41q-10 -10 -37 -23t-94 -13h-37q2 -2 3 -5.5 t3 -7.5q12 -35 16.5 -78t4.5 -88q0 -29 -6.5 -72.5t-22.5 -84.5q-14 -43 -45 -74t-76 -31l-4 4l2 2l2 2q23 0 43 11q2 0 2 2q39 20 51 92q12 53 2 145q-4 66 -14 120t-12 67q-70 0 -113 -13q-47 -16 -55 -41q-14 -27 6 -43q10 -10 26.5 -13t38.5 7h3h2q4 -4 -2 -8 q-10 -4 -18.5 -6t-16.5 -2q-23 0 -39 16q-10 10 -13.5 24.5zM344 565q0 4 4 4q23 0 43 11q41 23 53 84q12 53 7 129q-2 33 -6.5 63.5t-9.5 54t-8 39.5l-3 15l2 4q-4 0 -7 -1t-7 -1q-16 -4 -33 -7.5t-21 -9.5v-2v-4q2 -6 -4 -6h-2q-2 0 -2 2q-2 8 0 14q4 10 20.5 13.5 t39.5 7.5q12 2 37.5 8t29.5 16q2 4 8 5q2 -2 2 -7q-6 -12 -24 -18q6 -6 8 -12q4 -8 6 -19.5t6 -21.5q4 -20 7.5 -41t5.5 -41l6 30q18 88 59 89q39 0 62 -58q8 -23 13 -48.5t5 -53.5q4 10 7 24.5t7 28.5q12 47 27 70q18 37 41 37q25 0 43 -19q23 -27 27 -100q0 -31 -1 -67 t-6 -70q-4 -55 -6 -101.5t13 -62.5q4 -4 12 -4q4 0 4 -4q0 -6 -4 -7q-10 0 -17 7q-18 0 -32 14q-23 25 -22 85t5 126q4 59 6.5 111.5t-14.5 70.5q-12 8 -18 8q-23 -16 -49 -96q-6 -18 -9.5 -36.5t-7.5 -33.5q-4 -18 -6 -32v-2q-2 -55 -23 -101q-16 -45 -55 -59q0 -2 -2 -2 q-4 -2 -8 -2h-8t-4 4q0 6 4 6q10 0 16 2q10 16 20.5 58t14.5 96q4 59 0 106t-18 70q-8 23 -29 22q-10 -6 -19.5 -23.5t-19.5 -56.5q-8 -31 -10 -56.5t-2 -27.5v-2q-4 -29 -9.5 -60.5t-19.5 -64.5q-18 -43 -45 -69q-33 -29 -76 -29q-4 0 -4 4z" />
<glyph unicode="&#x25fc;" horiz-adv-x="491" d="M0 0v492h492v-492h-492z" />
</font>
</defs>
</svg>
